<?xml version="1.0" encoding="utf-8" standalone="no"?>
<!DOCTYPE svg PUBLIC "-//W3C//DTD SVG 1.1//EN"
  "http://www.w3.org/Graphics/SVG/1.1/DTD/svg11.dtd">
<svg xmlns:xlink="http://www.w3.org/1999/xlink" width="432pt" height="288pt" viewBox="0 0 432 288" xmlns="http://www.w3.org/2000/svg" version="1.1">
 <metadata>
  <rdf:RDF xmlns:dc="http://purl.org/dc/elements/1.1/" xmlns:cc="http://creativecommons.org/ns#" xmlns:rdf="http://www.w3.org/1999/02/22-rdf-syntax-ns#">
   <cc:Work>
    <dc:type rdf:resource="http://purl.org/dc/dcmitype/StillImage"/>
    <dc:date>2021-11-24T18:06:28.462257</dc:date>
    <dc:format>image/svg+xml</dc:format>
    <dc:creator>
     <cc:Agent>
      <dc:title>Matplotlib v3.5.0, https://matplotlib.org/</dc:title>
     </cc:Agent>
    </dc:creator>
   </cc:Work>
  </rdf:RDF>
 </metadata>
 <defs>
  <style type="text/css">*{stroke-linejoin: round; stroke-linecap: butt}</style>
 </defs>
 <g id="figure_1">
  <g id="patch_1">
   <path d="M 0 288 
L 432 288 
L 432 0 
L 0 0 
z
" style="fill: #ffffff"/>
  </g>
  <g id="axes_1">
   <g id="patch_2">
    <path d="M 24.689196 250.305354 
L 429.165354 250.305354 
L 429.165354 24.674646 
L 24.689196 24.674646 
z
" style="fill: #ffffff"/>
   </g>
   <g id="matplotlib.axis_1">
    <g id="xtick_1">
     <g id="line2d_1">
      <path d="M 36.136635 250.305354 
L 36.136635 24.674646 
" clip-path="url(#pa4485429c2)" style="fill: none; stroke: #000000; stroke-opacity: 0.1; stroke-width: 0.5; stroke-linecap: square"/>
     </g>
     <g id="line2d_2">
      <defs>
       <path id="m516416b6d5" d="M 0 0 
L 0 -2.5 
" style="stroke: #000000; stroke-width: 0.5"/>
      </defs>
      <g>
       <use xlink:href="#m516416b6d5" x="36.136635" y="250.305354" style="stroke: #000000; stroke-width: 0.5"/>
      </g>
     </g>
     <g id="text_1">
      <!-- $0$ -->
      <g transform="translate(32.296635 262.923479)scale(0.12 -0.12)">
       <defs>
        <path id="DejaVuSans-30" d="M 2034 4250 
Q 1547 4250 1301 3770 
Q 1056 3291 1056 2328 
Q 1056 1369 1301 889 
Q 1547 409 2034 409 
Q 2525 409 2770 889 
Q 3016 1369 3016 2328 
Q 3016 3291 2770 3770 
Q 2525 4250 2034 4250 
z
M 2034 4750 
Q 2819 4750 3233 4129 
Q 3647 3509 3647 2328 
Q 3647 1150 3233 529 
Q 2819 -91 2034 -91 
Q 1250 -91 836 529 
Q 422 1150 422 2328 
Q 422 3509 836 4129 
Q 1250 4750 2034 4750 
z
" transform="scale(0.015625)"/>
       </defs>
       <use xlink:href="#DejaVuSans-30" transform="translate(0 0.78125)"/>
      </g>
     </g>
    </g>
    <g id="xtick_2">
     <g id="line2d_3">
      <path d="M 99.733515 250.305354 
L 99.733515 24.674646 
" clip-path="url(#pa4485429c2)" style="fill: none; stroke: #000000; stroke-opacity: 0.1; stroke-width: 0.5; stroke-linecap: square"/>
     </g>
     <g id="line2d_4">
      <g>
       <use xlink:href="#m516416b6d5" x="99.733515" y="250.305354" style="stroke: #000000; stroke-width: 0.5"/>
      </g>
     </g>
     <g id="text_2">
      <!-- $1$ -->
      <g transform="translate(95.893515 262.923479)scale(0.12 -0.12)">
       <defs>
        <path id="DejaVuSans-31" d="M 794 531 
L 1825 531 
L 1825 4091 
L 703 3866 
L 703 4441 
L 1819 4666 
L 2450 4666 
L 2450 531 
L 3481 531 
L 3481 0 
L 794 0 
L 794 531 
z
" transform="scale(0.015625)"/>
       </defs>
       <use xlink:href="#DejaVuSans-31" transform="translate(0 0.09375)"/>
      </g>
     </g>
    </g>
    <g id="xtick_3">
     <g id="line2d_5">
      <path d="M 163.330395 250.305354 
L 163.330395 24.674646 
" clip-path="url(#pa4485429c2)" style="fill: none; stroke: #000000; stroke-opacity: 0.1; stroke-width: 0.5; stroke-linecap: square"/>
     </g>
     <g id="line2d_6">
      <g>
       <use xlink:href="#m516416b6d5" x="163.330395" y="250.305354" style="stroke: #000000; stroke-width: 0.5"/>
      </g>
     </g>
     <g id="text_3">
      <!-- $2$ -->
      <g transform="translate(159.490395 262.923479)scale(0.12 -0.12)">
       <defs>
        <path id="DejaVuSans-32" d="M 1228 531 
L 3431 531 
L 3431 0 
L 469 0 
L 469 531 
Q 828 903 1448 1529 
Q 2069 2156 2228 2338 
Q 2531 2678 2651 2914 
Q 2772 3150 2772 3378 
Q 2772 3750 2511 3984 
Q 2250 4219 1831 4219 
Q 1534 4219 1204 4116 
Q 875 4013 500 3803 
L 500 4441 
Q 881 4594 1212 4672 
Q 1544 4750 1819 4750 
Q 2544 4750 2975 4387 
Q 3406 4025 3406 3419 
Q 3406 3131 3298 2873 
Q 3191 2616 2906 2266 
Q 2828 2175 2409 1742 
Q 1991 1309 1228 531 
z
" transform="scale(0.015625)"/>
       </defs>
       <use xlink:href="#DejaVuSans-32" transform="translate(0 0.78125)"/>
      </g>
     </g>
    </g>
    <g id="xtick_4">
     <g id="line2d_7">
      <path d="M 226.927275 250.305354 
L 226.927275 24.674646 
" clip-path="url(#pa4485429c2)" style="fill: none; stroke: #000000; stroke-opacity: 0.1; stroke-width: 0.5; stroke-linecap: square"/>
     </g>
     <g id="line2d_8">
      <g>
       <use xlink:href="#m516416b6d5" x="226.927275" y="250.305354" style="stroke: #000000; stroke-width: 0.5"/>
      </g>
     </g>
     <g id="text_4">
      <!-- $3$ -->
      <g transform="translate(223.087275 262.923479)scale(0.12 -0.12)">
       <defs>
        <path id="DejaVuSans-33" d="M 2597 2516 
Q 3050 2419 3304 2112 
Q 3559 1806 3559 1356 
Q 3559 666 3084 287 
Q 2609 -91 1734 -91 
Q 1441 -91 1130 -33 
Q 819 25 488 141 
L 488 750 
Q 750 597 1062 519 
Q 1375 441 1716 441 
Q 2309 441 2620 675 
Q 2931 909 2931 1356 
Q 2931 1769 2642 2001 
Q 2353 2234 1838 2234 
L 1294 2234 
L 1294 2753 
L 1863 2753 
Q 2328 2753 2575 2939 
Q 2822 3125 2822 3475 
Q 2822 3834 2567 4026 
Q 2313 4219 1838 4219 
Q 1578 4219 1281 4162 
Q 984 4106 628 3988 
L 628 4550 
Q 988 4650 1302 4700 
Q 1616 4750 1894 4750 
Q 2613 4750 3031 4423 
Q 3450 4097 3450 3541 
Q 3450 3153 3228 2886 
Q 3006 2619 2597 2516 
z
" transform="scale(0.015625)"/>
       </defs>
       <use xlink:href="#DejaVuSans-33" transform="translate(0 0.78125)"/>
      </g>
     </g>
    </g>
    <g id="xtick_5">
     <g id="line2d_9">
      <path d="M 290.524156 250.305354 
L 290.524156 24.674646 
" clip-path="url(#pa4485429c2)" style="fill: none; stroke: #000000; stroke-opacity: 0.1; stroke-width: 0.5; stroke-linecap: square"/>
     </g>
     <g id="line2d_10">
      <g>
       <use xlink:href="#m516416b6d5" x="290.524156" y="250.305354" style="stroke: #000000; stroke-width: 0.5"/>
      </g>
     </g>
     <g id="text_5">
      <!-- $4$ -->
      <g transform="translate(286.684156 262.923479)scale(0.12 -0.12)">
       <defs>
        <path id="DejaVuSans-34" d="M 2419 4116 
L 825 1625 
L 2419 1625 
L 2419 4116 
z
M 2253 4666 
L 3047 4666 
L 3047 1625 
L 3713 1625 
L 3713 1100 
L 3047 1100 
L 3047 0 
L 2419 0 
L 2419 1100 
L 313 1100 
L 313 1709 
L 2253 4666 
z
" transform="scale(0.015625)"/>
       </defs>
       <use xlink:href="#DejaVuSans-34" transform="translate(0 0.09375)"/>
      </g>
     </g>
    </g>
    <g id="xtick_6">
     <g id="line2d_11">
      <path d="M 354.121036 250.305354 
L 354.121036 24.674646 
" clip-path="url(#pa4485429c2)" style="fill: none; stroke: #000000; stroke-opacity: 0.1; stroke-width: 0.5; stroke-linecap: square"/>
     </g>
     <g id="line2d_12">
      <g>
       <use xlink:href="#m516416b6d5" x="354.121036" y="250.305354" style="stroke: #000000; stroke-width: 0.5"/>
      </g>
     </g>
     <g id="text_6">
      <!-- $5$ -->
      <g transform="translate(350.281036 262.923479)scale(0.12 -0.12)">
       <defs>
        <path id="DejaVuSans-35" d="M 691 4666 
L 3169 4666 
L 3169 4134 
L 1269 4134 
L 1269 2991 
Q 1406 3038 1543 3061 
Q 1681 3084 1819 3084 
Q 2600 3084 3056 2656 
Q 3513 2228 3513 1497 
Q 3513 744 3044 326 
Q 2575 -91 1722 -91 
Q 1428 -91 1123 -41 
Q 819 9 494 109 
L 494 744 
Q 775 591 1075 516 
Q 1375 441 1709 441 
Q 2250 441 2565 725 
Q 2881 1009 2881 1497 
Q 2881 1984 2565 2268 
Q 2250 2553 1709 2553 
Q 1456 2553 1204 2497 
Q 953 2441 691 2322 
L 691 4666 
z
" transform="scale(0.015625)"/>
       </defs>
       <use xlink:href="#DejaVuSans-35" transform="translate(0 0.09375)"/>
      </g>
     </g>
    </g>
    <g id="xtick_7">
     <g id="line2d_13">
      <path d="M 417.717916 250.305354 
L 417.717916 24.674646 
" clip-path="url(#pa4485429c2)" style="fill: none; stroke: #000000; stroke-opacity: 0.1; stroke-width: 0.5; stroke-linecap: square"/>
     </g>
     <g id="line2d_14">
      <g>
       <use xlink:href="#m516416b6d5" x="417.717916" y="250.305354" style="stroke: #000000; stroke-width: 0.5"/>
      </g>
     </g>
     <g id="text_7">
      <!-- $6$ -->
      <g transform="translate(413.877916 262.923479)scale(0.12 -0.12)">
       <defs>
        <path id="DejaVuSans-36" d="M 2113 2584 
Q 1688 2584 1439 2293 
Q 1191 2003 1191 1497 
Q 1191 994 1439 701 
Q 1688 409 2113 409 
Q 2538 409 2786 701 
Q 3034 994 3034 1497 
Q 3034 2003 2786 2293 
Q 2538 2584 2113 2584 
z
M 3366 4563 
L 3366 3988 
Q 3128 4100 2886 4159 
Q 2644 4219 2406 4219 
Q 1781 4219 1451 3797 
Q 1122 3375 1075 2522 
Q 1259 2794 1537 2939 
Q 1816 3084 2150 3084 
Q 2853 3084 3261 2657 
Q 3669 2231 3669 1497 
Q 3669 778 3244 343 
Q 2819 -91 2113 -91 
Q 1303 -91 875 529 
Q 447 1150 447 2328 
Q 447 3434 972 4092 
Q 1497 4750 2381 4750 
Q 2619 4750 2861 4703 
Q 3103 4656 3366 4563 
z
" transform="scale(0.015625)"/>
       </defs>
       <use xlink:href="#DejaVuSans-36" transform="translate(0 0.78125)"/>
      </g>
     </g>
    </g>
    <g id="text_8">
     <!-- t [s] -->
     <g transform="translate(210.838525 281.576604)scale(0.16 -0.16)">
      <defs>
       <path id="DejaVuSans-74" d="M 1172 4494 
L 1172 3500 
L 2356 3500 
L 2356 3053 
L 1172 3053 
L 1172 1153 
Q 1172 725 1289 603 
Q 1406 481 1766 481 
L 2356 481 
L 2356 0 
L 1766 0 
Q 1100 0 847 248 
Q 594 497 594 1153 
L 594 3053 
L 172 3053 
L 172 3500 
L 594 3500 
L 594 4494 
L 1172 4494 
z
" transform="scale(0.015625)"/>
       <path id="DejaVuSans-20" transform="scale(0.015625)"/>
       <path id="DejaVuSans-5b" d="M 550 4863 
L 1875 4863 
L 1875 4416 
L 1125 4416 
L 1125 -397 
L 1875 -397 
L 1875 -844 
L 550 -844 
L 550 4863 
z
" transform="scale(0.015625)"/>
       <path id="DejaVuSans-73" d="M 2834 3397 
L 2834 2853 
Q 2591 2978 2328 3040 
Q 2066 3103 1784 3103 
Q 1356 3103 1142 2972 
Q 928 2841 928 2578 
Q 928 2378 1081 2264 
Q 1234 2150 1697 2047 
L 1894 2003 
Q 2506 1872 2764 1633 
Q 3022 1394 3022 966 
Q 3022 478 2636 193 
Q 2250 -91 1575 -91 
Q 1294 -91 989 -36 
Q 684 19 347 128 
L 347 722 
Q 666 556 975 473 
Q 1284 391 1588 391 
Q 1994 391 2212 530 
Q 2431 669 2431 922 
Q 2431 1156 2273 1281 
Q 2116 1406 1581 1522 
L 1381 1569 
Q 847 1681 609 1914 
Q 372 2147 372 2553 
Q 372 3047 722 3315 
Q 1072 3584 1716 3584 
Q 2034 3584 2315 3537 
Q 2597 3491 2834 3397 
z
" transform="scale(0.015625)"/>
       <path id="DejaVuSans-5d" d="M 1947 4863 
L 1947 -844 
L 622 -844 
L 622 -397 
L 1369 -397 
L 1369 4416 
L 622 4416 
L 622 4863 
L 1947 4863 
z
" transform="scale(0.015625)"/>
      </defs>
      <use xlink:href="#DejaVuSans-74"/>
      <use xlink:href="#DejaVuSans-20" x="39.208984"/>
      <use xlink:href="#DejaVuSans-5b" x="70.996094"/>
      <use xlink:href="#DejaVuSans-73" x="110.009766"/>
      <use xlink:href="#DejaVuSans-5d" x="162.109375"/>
     </g>
    </g>
   </g>
   <g id="matplotlib.axis_2">
    <g id="ytick_1">
     <g id="line2d_15">
      <path d="M 24.689196 246.154433 
L 429.165354 246.154433 
" clip-path="url(#pa4485429c2)" style="fill: none; stroke: #000000; stroke-opacity: 0.1; stroke-width: 0.5; stroke-linecap: square"/>
     </g>
     <g id="line2d_16">
      <defs>
       <path id="m5a2310caae" d="M 0 0 
L 2.5 0 
" style="stroke: #000000; stroke-width: 0.5"/>
      </defs>
      <g>
       <use xlink:href="#m5a2310caae" x="24.689196" y="246.154433" style="stroke: #000000; stroke-width: 0.5"/>
      </g>
     </g>
     <g id="text_9">
      <!-- $-6$ -->
      <g transform="translate(3.429196 250.713496)scale(0.12 -0.12)">
       <defs>
        <path id="DejaVuSans-2212" d="M 678 2272 
L 4684 2272 
L 4684 1741 
L 678 1741 
L 678 2272 
z
" transform="scale(0.015625)"/>
       </defs>
       <use xlink:href="#DejaVuSans-2212" transform="translate(0 0.78125)"/>
       <use xlink:href="#DejaVuSans-36" transform="translate(83.789062 0.78125)"/>
      </g>
     </g>
    </g>
    <g id="ytick_2">
     <g id="line2d_17">
      <path d="M 24.689196 193.655763 
L 429.165354 193.655763 
" clip-path="url(#pa4485429c2)" style="fill: none; stroke: #000000; stroke-opacity: 0.1; stroke-width: 0.5; stroke-linecap: square"/>
     </g>
     <g id="line2d_18">
      <g>
       <use xlink:href="#m5a2310caae" x="24.689196" y="193.655763" style="stroke: #000000; stroke-width: 0.5"/>
      </g>
     </g>
     <g id="text_10">
      <!-- $-4$ -->
      <g transform="translate(3.429196 198.214825)scale(0.12 -0.12)">
       <use xlink:href="#DejaVuSans-2212" transform="translate(0 0.09375)"/>
       <use xlink:href="#DejaVuSans-34" transform="translate(83.789062 0.09375)"/>
      </g>
     </g>
    </g>
    <g id="ytick_3">
     <g id="line2d_19">
      <path d="M 24.689196 141.157092 
L 429.165354 141.157092 
" clip-path="url(#pa4485429c2)" style="fill: none; stroke: #000000; stroke-opacity: 0.1; stroke-width: 0.5; stroke-linecap: square"/>
     </g>
     <g id="line2d_20">
      <g>
       <use xlink:href="#m5a2310caae" x="24.689196" y="141.157092" style="stroke: #000000; stroke-width: 0.5"/>
      </g>
     </g>
     <g id="text_11">
      <!-- $-2$ -->
      <g transform="translate(3.429196 145.716154)scale(0.12 -0.12)">
       <use xlink:href="#DejaVuSans-2212" transform="translate(0 0.78125)"/>
       <use xlink:href="#DejaVuSans-32" transform="translate(83.789062 0.78125)"/>
      </g>
     </g>
    </g>
    <g id="ytick_4">
     <g id="line2d_21">
      <path d="M 24.689196 88.658421 
L 429.165354 88.658421 
" clip-path="url(#pa4485429c2)" style="fill: none; stroke: #000000; stroke-opacity: 0.1; stroke-width: 0.5; stroke-linecap: square"/>
     </g>
     <g id="line2d_22">
      <g>
       <use xlink:href="#m5a2310caae" x="24.689196" y="88.658421" style="stroke: #000000; stroke-width: 0.5"/>
      </g>
     </g>
     <g id="text_12">
      <!-- $0$ -->
      <g transform="translate(13.509196 93.217484)scale(0.12 -0.12)">
       <use xlink:href="#DejaVuSans-30" transform="translate(0 0.78125)"/>
      </g>
     </g>
    </g>
    <g id="ytick_5">
     <g id="line2d_23">
      <path d="M 24.689196 36.159751 
L 429.165354 36.159751 
" clip-path="url(#pa4485429c2)" style="fill: none; stroke: #000000; stroke-opacity: 0.1; stroke-width: 0.5; stroke-linecap: square"/>
     </g>
     <g id="line2d_24">
      <g>
       <use xlink:href="#m5a2310caae" x="24.689196" y="36.159751" style="stroke: #000000; stroke-width: 0.5"/>
      </g>
     </g>
     <g id="text_13">
      <!-- $2$ -->
      <g transform="translate(13.509196 40.718813)scale(0.12 -0.12)">
       <use xlink:href="#DejaVuSans-32" transform="translate(0 0.78125)"/>
      </g>
     </g>
    </g>
   </g>
   <g id="line2d_25">
    <path d="M 417.717916 99.107337 
L 417.704559 99.109252 
L 417.57099 99.128317 
L 417.346777 99.159949 
L 416.92394 99.218318 
L 416.313758 99.299531 
L 415.397125 99.414627 
L 414.218817 99.549878 
L 412.68049 99.703802 
L 410.8488 99.851493 
L 408.655774 99.973933 
L 406.175111 100.035971 
L 404.99854 100.035234 
" clip-path="url(#pa4485429c2)" style="fill: none; stroke: #009afa"/>
   </g>
   <g id="line2d_26">
    <path d="M 417.717916 122.697896 
L 417.704559 122.679583 
L 417.57099 122.496987 
L 417.346777 122.192647 
L 416.92394 121.626031 
L 416.313758 120.824974 
L 415.397125 119.657522 
L 414.218817 118.217926 
L 412.68049 116.437078 
L 410.8488 114.453765 
L 408.655774 112.261323 
L 406.175111 110.000812 
L 404.99854 109.004357 
" clip-path="url(#pa4485429c2)" style="fill: none; stroke: #e36f47"/>
   </g>
   <g id="patch_3">
    <path d="M 24.689196 250.305354 
L 24.689196 24.674646 
" style="fill: none; stroke: #000000; stroke-linejoin: miter; stroke-linecap: square"/>
   </g>
   <g id="patch_4">
    <path d="M 24.689196 250.305354 
L 429.165354 250.305354 
" style="fill: none; stroke: #000000; stroke-linejoin: miter; stroke-linecap: square"/>
   </g>
   <g id="line2d_27">
    <path d="M 404.99854 117.42955 
L 404.932903 117.442163 
L 404.276535 117.562175 
L 403.620168 117.670803 
L 402.271399 117.857287 
L 400.922631 117.992099 
L 398.822943 118.094285 
L 396.705644 118.056875 
L 393.913364 117.781121 
L 392.279164 117.494984 
" clip-path="url(#pa4485429c2)" style="fill: none; stroke: #3ea44e"/>
   </g>
   <g id="text_14">
    <!-- Adjoint State -->
    <g transform="translate(159.102197 18.674646)scale(0.21 -0.21)">
     <defs>
      <path id="DejaVuSans-41" d="M 2188 4044 
L 1331 1722 
L 3047 1722 
L 2188 4044 
z
M 1831 4666 
L 2547 4666 
L 4325 0 
L 3669 0 
L 3244 1197 
L 1141 1197 
L 716 0 
L 50 0 
L 1831 4666 
z
" transform="scale(0.015625)"/>
      <path id="DejaVuSans-64" d="M 2906 2969 
L 2906 4863 
L 3481 4863 
L 3481 0 
L 2906 0 
L 2906 525 
Q 2725 213 2448 61 
Q 2172 -91 1784 -91 
Q 1150 -91 751 415 
Q 353 922 353 1747 
Q 353 2572 751 3078 
Q 1150 3584 1784 3584 
Q 2172 3584 2448 3432 
Q 2725 3281 2906 2969 
z
M 947 1747 
Q 947 1113 1208 752 
Q 1469 391 1925 391 
Q 2381 391 2643 752 
Q 2906 1113 2906 1747 
Q 2906 2381 2643 2742 
Q 2381 3103 1925 3103 
Q 1469 3103 1208 2742 
Q 947 2381 947 1747 
z
" transform="scale(0.015625)"/>
      <path id="DejaVuSans-6a" d="M 603 3500 
L 1178 3500 
L 1178 -63 
Q 1178 -731 923 -1031 
Q 669 -1331 103 -1331 
L -116 -1331 
L -116 -844 
L 38 -844 
Q 366 -844 484 -692 
Q 603 -541 603 -63 
L 603 3500 
z
M 603 4863 
L 1178 4863 
L 1178 4134 
L 603 4134 
L 603 4863 
z
" transform="scale(0.015625)"/>
      <path id="DejaVuSans-6f" d="M 1959 3097 
Q 1497 3097 1228 2736 
Q 959 2375 959 1747 
Q 959 1119 1226 758 
Q 1494 397 1959 397 
Q 2419 397 2687 759 
Q 2956 1122 2956 1747 
Q 2956 2369 2687 2733 
Q 2419 3097 1959 3097 
z
M 1959 3584 
Q 2709 3584 3137 3096 
Q 3566 2609 3566 1747 
Q 3566 888 3137 398 
Q 2709 -91 1959 -91 
Q 1206 -91 779 398 
Q 353 888 353 1747 
Q 353 2609 779 3096 
Q 1206 3584 1959 3584 
z
" transform="scale(0.015625)"/>
      <path id="DejaVuSans-69" d="M 603 3500 
L 1178 3500 
L 1178 0 
L 603 0 
L 603 3500 
z
M 603 4863 
L 1178 4863 
L 1178 4134 
L 603 4134 
L 603 4863 
z
" transform="scale(0.015625)"/>
      <path id="DejaVuSans-6e" d="M 3513 2113 
L 3513 0 
L 2938 0 
L 2938 2094 
Q 2938 2591 2744 2837 
Q 2550 3084 2163 3084 
Q 1697 3084 1428 2787 
Q 1159 2491 1159 1978 
L 1159 0 
L 581 0 
L 581 3500 
L 1159 3500 
L 1159 2956 
Q 1366 3272 1645 3428 
Q 1925 3584 2291 3584 
Q 2894 3584 3203 3211 
Q 3513 2838 3513 2113 
z
" transform="scale(0.015625)"/>
      <path id="DejaVuSans-53" d="M 3425 4513 
L 3425 3897 
Q 3066 4069 2747 4153 
Q 2428 4238 2131 4238 
Q 1616 4238 1336 4038 
Q 1056 3838 1056 3469 
Q 1056 3159 1242 3001 
Q 1428 2844 1947 2747 
L 2328 2669 
Q 3034 2534 3370 2195 
Q 3706 1856 3706 1288 
Q 3706 609 3251 259 
Q 2797 -91 1919 -91 
Q 1588 -91 1214 -16 
Q 841 59 441 206 
L 441 856 
Q 825 641 1194 531 
Q 1563 422 1919 422 
Q 2459 422 2753 634 
Q 3047 847 3047 1241 
Q 3047 1584 2836 1778 
Q 2625 1972 2144 2069 
L 1759 2144 
Q 1053 2284 737 2584 
Q 422 2884 422 3419 
Q 422 4038 858 4394 
Q 1294 4750 2059 4750 
Q 2388 4750 2728 4690 
Q 3069 4631 3425 4513 
z
" transform="scale(0.015625)"/>
      <path id="DejaVuSans-61" d="M 2194 1759 
Q 1497 1759 1228 1600 
Q 959 1441 959 1056 
Q 959 750 1161 570 
Q 1363 391 1709 391 
Q 2188 391 2477 730 
Q 2766 1069 2766 1631 
L 2766 1759 
L 2194 1759 
z
M 3341 1997 
L 3341 0 
L 2766 0 
L 2766 531 
Q 2569 213 2275 61 
Q 1981 -91 1556 -91 
Q 1019 -91 701 211 
Q 384 513 384 1019 
Q 384 1609 779 1909 
Q 1175 2209 1959 2209 
L 2766 2209 
L 2766 2266 
Q 2766 2663 2505 2880 
Q 2244 3097 1772 3097 
Q 1472 3097 1187 3025 
Q 903 2953 641 2809 
L 641 3341 
Q 956 3463 1253 3523 
Q 1550 3584 1831 3584 
Q 2591 3584 2966 3190 
Q 3341 2797 3341 1997 
z
" transform="scale(0.015625)"/>
      <path id="DejaVuSans-65" d="M 3597 1894 
L 3597 1613 
L 953 1613 
Q 991 1019 1311 708 
Q 1631 397 2203 397 
Q 2534 397 2845 478 
Q 3156 559 3463 722 
L 3463 178 
Q 3153 47 2828 -22 
Q 2503 -91 2169 -91 
Q 1331 -91 842 396 
Q 353 884 353 1716 
Q 353 2575 817 3079 
Q 1281 3584 2069 3584 
Q 2775 3584 3186 3129 
Q 3597 2675 3597 1894 
z
M 3022 2063 
Q 3016 2534 2758 2815 
Q 2500 3097 2075 3097 
Q 1594 3097 1305 2825 
Q 1016 2553 972 2059 
L 3022 2063 
z
" transform="scale(0.015625)"/>
     </defs>
     <use xlink:href="#DejaVuSans-41"/>
     <use xlink:href="#DejaVuSans-64" x="66.658203"/>
     <use xlink:href="#DejaVuSans-6a" x="130.134766"/>
     <use xlink:href="#DejaVuSans-6f" x="157.917969"/>
     <use xlink:href="#DejaVuSans-69" x="219.099609"/>
     <use xlink:href="#DejaVuSans-6e" x="246.882812"/>
     <use xlink:href="#DejaVuSans-74" x="310.261719"/>
     <use xlink:href="#DejaVuSans-20" x="349.470703"/>
     <use xlink:href="#DejaVuSans-53" x="381.257812"/>
     <use xlink:href="#DejaVuSans-74" x="444.734375"/>
     <use xlink:href="#DejaVuSans-61" x="483.943359"/>
     <use xlink:href="#DejaVuSans-74" x="545.222656"/>
     <use xlink:href="#DejaVuSans-65" x="584.431641"/>
    </g>
   </g>
   <g id="line2d_28">
    <path d="M 404.99854 153.50799 
L 404.932903 153.335992 
L 404.276535 151.640437 
L 403.620168 149.988583 
L 402.271399 146.726309 
L 400.922631 143.634422 
L 398.822943 139.138586 
L 396.705644 134.969492 
L 393.913364 129.980114 
L 392.279164 127.307471 
" clip-path="url(#pa4485429c2)" style="fill: none; stroke: #c371d2"/>
   </g>
   <g id="line2d_29">
    <path d="M 392.279164 149.316111 
L 392.20175 149.312368 
L 391.427617 149.257152 
L 390.653484 149.169056 
L 389.037305 148.876667 
L 387.421126 148.432895 
L 384.936556 147.445976 
L 382.451986 146.079419 
L 379.559788 144.005208 
" clip-path="url(#pa4485429c2)" style="fill: none; stroke: #ac8e18"/>
   </g>
   <g id="line2d_30">
    <path d="M 392.279164 169.56727 
L 392.20175 169.311824 
L 391.427617 166.800075 
L 390.653484 164.364496 
L 389.037305 159.514475 
L 387.421126 154.966363 
L 384.936556 148.518839 
L 382.451986 142.677442 
L 379.559788 136.564348 
" clip-path="url(#pa4485429c2)" style="fill: none; stroke: #00aaae"/>
   </g>
   <g id="line2d_31">
    <path d="M 379.559788 192.095175 
L 379.472321 192.030927 
L 378.59765 191.350337 
L 377.672056 190.554003 
L 375.810837 188.712196 
L 373.938059 186.531121 
L 371.098551 182.593255 
L 368.259044 177.909665 
L 366.840412 175.303181 
" clip-path="url(#pa4485429c2)" style="fill: none; stroke: #ed5e93"/>
   </g>
   <g id="line2d_32">
    <path d="M 379.559788 159.868848 
L 379.472321 159.6093 
L 378.59765 157.062769 
L 377.672056 154.462728 
L 375.810837 149.51463 
L 373.938059 144.89197 
L 371.098551 138.505752 
L 368.259044 132.800548 
L 366.840412 130.183195 
" clip-path="url(#pa4485429c2)" style="fill: none; stroke: #c68225"/>
   </g>
   <g id="line2d_33">
    <path d="M 366.840412 227.531326 
L 366.745963 227.379465 
L 365.801481 225.801578 
L 364.72014 223.862692 
L 362.6682 219.793739 
L 360.522693 215.000429 
L 357.422617 207.12973 
L 354.322541 198.230372 
L 354.121036 197.620356 
" clip-path="url(#pa4485429c2)" style="fill: none; stroke: #00a98d"/>
   </g>
   <g id="line2d_34">
    <path d="M 366.840412 136.594386 
L 366.745963 136.397243 
L 365.801481 134.465909 
L 364.72014 132.341949 
L 362.6682 128.553427 
L 360.522693 124.908995 
L 357.422617 120.16084 
L 354.322541 115.962254 
L 354.121036 115.706994 
" clip-path="url(#pa4485429c2)" style="fill: none; stroke: #8e971e"/>
   </g>
   <g id="line2d_35">
    <path d="M 354.121036 243.91958 
L 354.024428 243.693644 
L 353.058349 241.365171 
L 351.872817 238.337442 
L 349.736702 232.413414 
L 347.425144 225.349837 
L 344.229141 214.54166 
L 341.40166 204.112434 
" clip-path="url(#pa4485429c2)" style="fill: none; stroke: #00a9cc"/>
   </g>
   <g id="line2d_36">
    <path d="M 354.121036 114.109212 
L 354.024428 113.991598 
L 353.058349 112.839905 
L 351.872817 111.485696 
L 349.736702 109.200553 
L 347.425144 106.936606 
L 344.229141 104.128514 
L 341.40166 101.924617 
" clip-path="url(#pa4485429c2)" style="fill: none; stroke: #9b7fe9"/>
   </g>
   <g id="line2d_37">
    <path d="M 341.40166 241.79257 
L 341.310458 241.538406 
L 340.398445 238.936536 
L 339.242743 235.484619 
L 337.219262 229.034087 
L 335.000002 221.399316 
L 332.029413 210.351729 
L 329.058824 198.529413 
L 328.682284 196.989497 
" clip-path="url(#pa4485429c2)" style="fill: none; stroke: #618df6"/>
   </g>
   <g id="line2d_38">
    <path d="M 341.40166 96.850586 
L 341.310458 96.801892 
L 340.398445 96.324513 
L 339.242743 95.743906 
L 337.219262 94.789181 
L 335.000002 93.826597 
L 332.029413 92.663363 
L 329.058824 91.629301 
L 328.682284 91.506923 
" clip-path="url(#pa4485429c2)" style="fill: none; stroke: #f06073"/>
   </g>
   <g id="line2d_39">
    <path d="M 328.682284 226.677216 
L 328.574103 226.358561 
L 327.492297 223.097257 
L 326.308331 219.376969 
L 324.054415 211.877647 
L 321.8005 203.887039 
L 318.632081 191.953978 
L 315.962908 181.453375 
" clip-path="url(#pa4485429c2)" style="fill: none; stroke: #dd65b6"/>
   </g>
   <g id="line2d_40">
    <path d="M 328.682284 84.652727 
L 328.574103 84.648887 
L 327.492297 84.611377 
L 326.308331 84.572157 
L 324.054415 84.502311 
L 321.8005 84.438532 
L 318.632081 84.35756 
L 315.962908 84.297201 
" clip-path="url(#pa4485429c2)" style="fill: none; stroke: #6c9f33"/>
   </g>
   <g id="line2d_41">
    <path d="M 315.962908 204.557162 
L 315.859724 204.261764 
L 314.827892 201.253083 
L 313.587722 197.510972 
L 311.350369 190.436044 
L 308.990653 182.588229 
L 305.758185 171.346792 
L 303.243532 162.388213 
" clip-path="url(#pa4485429c2)" style="fill: none; stroke: #009afa"/>
   </g>
   <g id="line2d_42">
    <path d="M 315.962908 76.38628 
L 315.859724 76.418871 
L 314.827892 76.737564 
L 313.587722 77.103773 
L 311.350369 77.720621 
L 308.990653 78.314691 
L 305.758185 79.043272 
L 303.243532 79.549584 
" clip-path="url(#pa4485429c2)" style="fill: none; stroke: #e36f47"/>
   </g>
   <g id="line2d_43">
    <path d="M 303.243532 180.327648 
L 303.144104 180.068004 
L 302.149831 177.434425 
L 300.989217 174.279969 
L 298.851473 168.264871 
L 296.62844 161.783702 
L 293.531619 152.495925 
L 290.524156 143.392455 
" clip-path="url(#pa4485429c2)" style="fill: none; stroke: #3ea44e"/>
   </g>
   <g id="line2d_44">
    <path d="M 303.243532 70.998418 
L 303.144104 71.053824 
L 302.149831 71.596065 
L 300.989217 72.202615 
L 298.851473 73.249541 
L 296.62844 74.248376 
L 293.531619 75.501381 
L 290.524156 76.580411 
" clip-path="url(#pa4485429c2)" style="fill: none; stroke: #c371d2"/>
   </g>
   <g id="line2d_45">
    <path d="M 290.524156 157.389901 
L 290.428003 157.172174 
L 289.466483 154.972314 
L 288.39813 152.484045 
L 286.367808 147.644909 
L 284.315741 142.649073 
L 281.39555 135.44934 
L 278.47536 128.297945 
L 277.80478 126.684634 
" clip-path="url(#pa4485429c2)" style="fill: none; stroke: #ac8e18"/>
   </g>
   <g id="line2d_46">
    <path d="M 290.524156 67.762178 
L 290.428003 67.830768 
L 289.466483 68.502536 
L 288.39813 69.219597 
L 286.367808 70.501742 
L 284.315741 71.697324 
L 281.39555 73.240349 
L 278.47536 74.616063 
L 277.80478 74.910551 
" clip-path="url(#pa4485429c2)" style="fill: none; stroke: #00aaae"/>
   </g>
   <g id="line2d_47">
    <path d="M 277.80478 137.744064 
L 277.71222 137.56961 
L 276.786622 135.813683 
L 275.822606 133.965951 
L 273.916826 130.268708 
L 272.011046 126.542387 
L 269.31497 121.282204 
L 266.618893 116.134705 
L 265.085403 113.302323 
" clip-path="url(#pa4485429c2)" style="fill: none; stroke: #ed5e93"/>
   </g>
   <g id="line2d_48">
    <path d="M 277.80478 66.301312 
L 277.71222 66.375024 
L 276.786622 67.097533 
L 275.822606 67.822486 
L 273.916826 69.177137 
L 272.011046 70.433804 
L 269.31497 72.058248 
L 266.618893 73.519745 
L 265.085403 74.285069 
" clip-path="url(#pa4485429c2)" style="fill: none; stroke: #c68225"/>
   </g>
   <g id="line2d_49">
    <path d="M 265.085403 122.247516 
L 264.998108 122.115144 
L 264.125149 120.787739 
L 263.25219 119.455761 
L 261.5213 116.809088 
L 259.79041 114.173647 
L 257.414511 110.609204 
L 255.038612 107.159495 
L 252.501684 103.662755 
L 252.366027 103.482929 
" clip-path="url(#pa4485429c2)" style="fill: none; stroke: #00a98d"/>
   </g>
   <g id="line2d_50">
    <path d="M 265.085403 66.597879 
L 264.998108 66.668226 
L 264.125149 67.35856 
L 263.25219 68.025554 
L 261.5213 69.282259 
L 259.79041 70.456303 
L 257.414511 71.943455 
L 255.038612 73.298663 
L 252.501684 74.613787 
L 252.366027 74.680555 
" clip-path="url(#pa4485429c2)" style="fill: none; stroke: #8e971e"/>
   </g>
   <g id="line2d_51">
    <path d="M 252.366027 111.013506 
L 252.298323 110.933537 
L 251.621274 110.134091 
L 250.944225 109.335915 
L 249.671248 107.841311 
L 248.398272 106.360621 
L 246.789472 104.518453 
L 245.180672 102.721464 
L 243.51735 100.924498 
L 241.467622 98.814147 
L 239.646651 97.055553 
" clip-path="url(#pa4485429c2)" style="fill: none; stroke: #00a9cc"/>
   </g>
   <g id="line2d_52">
    <path d="M 252.366027 69.036284 
L 252.298323 69.085411 
L 251.621274 69.569558 
L 250.944225 70.040991 
L 249.671248 70.894173 
L 248.398272 71.705804 
L 246.789472 72.67537 
L 245.180672 73.585882 
L 243.51735 74.469147 
L 241.467622 75.482018 
L 239.646651 76.317027 
" clip-path="url(#pa4485429c2)" style="fill: none; stroke: #9b7fe9"/>
   </g>
   <g id="line2d_53">
    <path d="M 239.646651 103.840252 
L 239.571202 103.773567 
L 238.81671 103.108194 
L 238.062218 102.446406 
L 236.555693 101.138906 
L 235.049169 99.857523 
L 232.892021 98.082371 
L 230.734874 96.399593 
L 228.231181 94.588706 
L 226.927275 93.717889 
" clip-path="url(#pa4485429c2)" style="fill: none; stroke: #618df6"/>
   </g>
   <g id="line2d_54">
    <path d="M 239.646651 74.461727 
L 239.571202 74.50108 
L 238.81671 74.888283 
L 238.062218 75.264212 
L 236.555693 75.982477 
L 235.049169 76.659711 
L 232.892021 77.562812 
L 230.734874 78.393438 
L 228.231181 79.274699 
L 226.927275 79.701399 
" clip-path="url(#pa4485429c2)" style="fill: none; stroke: #f06073"/>
   </g>
   <g id="line2d_55">
    <path d="M 226.927275 100.540486 
L 226.846705 100.490814 
L 226.041004 99.994493 
L 225.144115 99.443771 
L 223.446312 98.410025 
L 221.723393 97.380843 
L 219.284596 95.973735 
L 216.8458 94.648207 
L 214.207899 93.330756 
" clip-path="url(#pa4485429c2)" style="fill: none; stroke: #dd65b6"/>
   </g>
   <g id="line2d_56">
    <path d="M 226.927275 84.171684 
L 226.846705 84.18316 
L 226.041004 84.295952 
L 225.144115 84.417415 
L 223.446312 84.636036 
L 221.723393 84.843657 
L 219.284596 85.1148 
L 216.8458 85.361717 
L 214.207899 85.604166 
" clip-path="url(#pa4485429c2)" style="fill: none; stroke: #6c9f33"/>
   </g>
   <g id="line2d_57">
    <path d="M 214.207899 101.45675 
L 214.132957 101.427524 
L 213.38353 101.131721 
L 212.519577 100.783245 
L 210.907637 100.114368 
L 209.236445 99.400709 
L 206.901518 98.381877 
L 204.566591 97.356484 
L 202.010182 96.250236 
L 201.488523 96.029352 
" clip-path="url(#pa4485429c2)" style="fill: none; stroke: #009afa"/>
   </g>
   <g id="line2d_58">
    <path d="M 214.207899 99.516862 
L 214.132957 99.481866 
L 213.38353 99.137441 
L 212.519577 98.752617 
L 210.907637 98.068067 
L 209.236445 97.401937 
L 206.901518 96.539812 
L 204.566591 95.751135 
L 202.010182 94.963558 
L 201.488523 94.812045 
" clip-path="url(#pa4485429c2)" style="fill: none; stroke: #e36f47"/>
   </g>
   <g id="line2d_59">
    <path d="M 201.488523 108.035982 
L 201.438418 108.020563 
L 200.937365 107.861873 
L 200.436313 107.69508 
L 199.473962 107.352748 
L 198.511611 106.982639 
L 197.321026 106.48874 
L 196.130442 105.958087 
L 194.681455 105.268022 
L 193.039271 104.435765 
L 191.20111 103.454288 
L 189.22197 102.357054 
L 188.769147 102.102377 
" clip-path="url(#pa4485429c2)" style="fill: none; stroke: #3ea44e"/>
   </g>
   <g id="line2d_60">
    <path d="M 201.488523 120.148411 
L 201.438418 120.083208 
L 200.937365 119.438062 
L 200.436313 118.805268 
L 199.473962 117.623568 
L 198.511611 116.48478 
L 197.321026 115.132766 
L 196.130442 113.840834 
L 194.681455 112.34527 
L 193.039271 110.746248 
L 191.20111 109.069085 
L 189.22197 107.386188 
L 188.769147 107.018115 
" clip-path="url(#pa4485429c2)" style="fill: none; stroke: #c371d2"/>
   </g>
   <g id="line2d_61">
    <path d="M 188.769147 123.66666 
L 188.71183 123.622949 
L 188.138657 123.176741 
L 187.565484 122.714386 
L 186.377975 121.708018 
L 185.190467 120.641329 
L 183.397427 118.931528 
L 181.604388 117.124818 
L 179.368733 114.777293 
L 177.133078 112.376128 
L 176.049771 111.210568 
" clip-path="url(#pa4485429c2)" style="fill: none; stroke: #ac8e18"/>
   </g>
   <g id="line2d_62">
    <path d="M 188.769147 138.756136 
L 188.71183 138.63585 
L 188.138657 137.447385 
L 187.565484 136.284691 
L 186.377975 133.955047 
L 185.190467 131.728249 
L 183.397427 128.549411 
L 181.604388 125.577399 
L 179.368733 122.137568 
L 177.133078 118.967255 
L 176.049771 117.520859 
" clip-path="url(#pa4485429c2)" style="fill: none; stroke: #00aaae"/>
   </g>
   <g id="line2d_63">
    <path d="M 176.049771 149.369718 
L 175.98382 149.217937 
L 175.324304 147.692018 
L 174.593628 145.986452 
L 173.188027 142.672067 
L 171.753568 139.266124 
L 169.677506 134.344294 
L 167.601444 129.50362 
L 165.164719 124.022972 
L 163.330395 120.108122 
" clip-path="url(#pa4485429c2)" style="fill: none; stroke: #ed5e93"/>
   </g>
   <g id="line2d_64">
    <path d="M 176.049771 138.744348 
L 175.98382 138.59562 
L 175.324304 137.128551 
L 174.593628 135.545352 
L 173.188027 132.619212 
L 171.753568 129.787732 
L 169.677506 125.946661 
L 167.601444 122.387086 
L 165.164719 118.532894 
L 163.330395 115.843203 
" clip-path="url(#pa4485429c2)" style="fill: none; stroke: #c68225"/>
   </g>
   <g id="line2d_65">
    <path d="M 163.330395 170.413218 
L 163.26485 170.13493 
L 162.609403 167.357538 
L 161.865016 164.219396 
L 160.471673 158.408214 
L 159.042672 152.568091 
L 157.026856 144.602612 
L 155.011039 137.050566 
L 152.711804 129.045997 
L 150.611019 122.388134 
" clip-path="url(#pa4485429c2)" style="fill: none; stroke: #00a98d"/>
   </g>
   <g id="line2d_66">
    <path d="M 163.330395 116.372327 
L 163.26485 116.267616 
L 162.609403 115.234451 
L 161.865016 114.091384 
L 160.471673 112.034386 
L 159.042672 110.031953 
L 157.026856 107.377458 
L 155.011039 104.908784 
L 152.711804 102.296867 
L 150.611019 100.084486 
" clip-path="url(#pa4485429c2)" style="fill: none; stroke: #8e971e"/>
   </g>
   <g id="line2d_67">
    <path d="M 150.611019 171.408489 
L 150.575503 171.224104 
L 150.241385 169.494455 
L 149.907266 167.774267 
L 149.201389 164.173339 
L 148.488306 160.586528 
L 147.363804 155.045645 
L 146.226684 149.605927 
L 144.733024 142.740218 
L 143.237549 136.223773 
L 141.488595 129.099892 
L 139.739641 122.555864 
L 137.891643 116.302802 
" clip-path="url(#pa4485429c2)" style="fill: none; stroke: #00a9cc"/>
   </g>
   <g id="line2d_68">
    <path d="M 150.611019 87.625681 
L 150.575503 87.602983 
L 150.241385 87.390915 
L 149.907266 87.181484 
L 149.201389 86.747405 
L 148.488306 86.320337 
L 147.363804 85.668953 
L 146.226684 85.037155 
L 144.733024 84.245292 
L 143.237549 83.494211 
L 141.488595 82.663984 
L 139.739641 81.883095 
L 137.891643 81.106508 
" clip-path="url(#pa4485429c2)" style="fill: none; stroke: #9b7fe9"/>
   </g>
   <g id="line2d_69">
    <path d="M 137.891643 157.298176 
L 137.827844 156.978019 
L 137.189855 153.801996 
L 136.518001 150.51122 
L 135.197497 144.216864 
L 133.876994 138.180827 
L 131.984415 130.026342 
L 130.091836 122.522845 
L 127.914651 114.755339 
L 125.737467 107.959983 
L 125.172267 106.360979 
" clip-path="url(#pa4485429c2)" style="fill: none; stroke: #618df6"/>
   </g>
   <g id="line2d_70">
    <path d="M 137.891643 63.268191 
L 137.827844 63.283463 
L 137.189855 63.434321 
L 136.518001 63.589848 
L 135.197497 63.885005 
L 133.876994 64.168291 
L 131.984415 64.552667 
L 130.091836 64.916903 
L 127.914651 65.311773 
L 125.737467 65.687577 
L 125.172267 65.786037 
" clip-path="url(#pa4485429c2)" style="fill: none; stroke: #f06073"/>
   </g>
   <g id="line2d_71">
    <path d="M 125.172267 138.329727 
L 125.118867 138.102485 
L 124.584862 135.849144 
L 123.969202 133.29629 
L 122.834022 128.722273 
L 121.663855 124.202783 
L 120.062896 118.363538 
L 118.461937 112.952941 
L 116.860978 107.994182 
L 115.539619 104.254345 
L 113.567747 99.267135 
L 112.452891 96.768688 
" clip-path="url(#pa4485429c2)" style="fill: none; stroke: #dd65b6"/>
   </g>
   <g id="line2d_72">
    <path d="M 125.172267 46.058511 
L 125.118867 46.107069 
L 124.584862 46.587811 
L 123.969202 47.131486 
L 122.834022 48.10477 
L 121.663855 49.071055 
L 120.062896 50.334848 
L 118.461937 51.537982 
L 116.860978 52.685924 
L 115.539619 53.59685 
L 113.567747 54.895254 
L 112.452891 55.607023 
" clip-path="url(#pa4485429c2)" style="fill: none; stroke: #6c9f33"/>
   </g>
   <g id="line2d_73">
    <path d="M 112.452891 120.68848 
L 112.399956 120.51233 
L 111.87061 118.768119 
L 111.281638 116.865735 
L 110.151043 113.331206 
L 108.988388 109.867815 
L 107.313357 105.199618 
L 105.638327 100.934734 
L 103.671525 96.459952 
L 101.704723 92.573989 
L 99.737921 89.272928 
L 99.733515 89.266195 
" clip-path="url(#pa4485429c2)" style="fill: none; stroke: #009afa"/>
   </g>
   <g id="line2d_74">
    <path d="M 112.452891 35.691344 
L 112.399956 35.763089 
L 111.87061 36.473708 
L 111.281638 37.250199 
L 110.151043 38.699882 
L 108.988388 40.137999 
L 107.313357 42.120708 
L 105.638327 44.008474 
L 103.671525 46.114607 
L 101.704723 48.117898 
L 99.737921 50.034184 
L 99.733515 50.038412 
" clip-path="url(#pa4485429c2)" style="fill: none; stroke: #e36f47"/>
   </g>
   <g id="line2d_75">
    <path d="M 99.733515 106.498838 
L 99.673709 106.352544 
L 99.075644 104.90802 
L 98.47758 103.498109 
L 97.297739 100.821164 
L 96.117899 98.290501 
L 94.513571 95.093456 
L 92.909243 92.190498 
L 91.200546 89.429848 
L 89.49185 87.014078 
L 88.092492 85.291274 
L 87.014139 84.117429 
" clip-path="url(#pa4485429c2)" style="fill: none; stroke: #3ea44e"/>
   </g>
   <g id="line2d_76">
    <path d="M 99.733515 31.06042 
L 99.673709 31.15647 
L 99.075644 32.107134 
L 98.47758 33.040466 
L 97.297739 34.832262 
L 96.117899 36.562477 
L 94.513571 38.822153 
L 92.909243 40.984612 
L 91.200546 43.191158 
L 89.49185 45.309998 
L 88.092492 46.989512 
L 87.014139 48.254264 
" clip-path="url(#pa4485429c2)" style="fill: none; stroke: #c371d2"/>
   </g>
   <g id="line2d_77">
    <path d="M 87.014139 95.932952 
L 86.962494 95.84556 
L 86.446045 94.982203 
L 85.929595 94.138537 
L 84.915278 92.54007 
L 83.900962 91.022313 
L 82.581723 89.172738 
L 81.262485 87.468724 
L 79.943247 85.91347 
L 78.086084 83.977522 
L 76.197552 82.31429 
L 74.294763 80.943394 
" clip-path="url(#pa4485429c2)" style="fill: none; stroke: #ac8e18"/>
   </g>
   <g id="line2d_78">
    <path d="M 87.014139 31.158764 
L 86.962494 31.246446 
L 86.446045 32.11595 
L 85.929595 32.972476 
L 84.915278 34.617927 
L 83.900962 36.217127 
L 82.581723 38.231549 
L 81.262485 40.177362 
L 79.943247 42.059968 
L 78.086084 44.61181 
L 76.197552 47.105132 
L 74.294763 49.530658 
" clip-path="url(#pa4485429c2)" style="fill: none; stroke: #00aaae"/>
   </g>
   <g id="line2d_79">
    <path d="M 74.294763 88.444013 
L 74.282966 88.431227 
L 74.165 88.30377 
L 73.937962 88.060506 
L 73.565 87.66677 
L 72.985031 87.069217 
L 72.169093 86.259479 
L 71.067534 85.225076 
L 69.671868 84.014187 
L 67.954475 82.680985 
L 65.925229 81.332584 
L 63.576241 80.078732 
L 61.575387 79.266373 
" clip-path="url(#pa4485429c2)" style="fill: none; stroke: #ed5e93"/>
   </g>
   <g id="line2d_80">
    <path d="M 74.294763 35.207806 
L 74.282966 35.227432 
L 74.165 35.423334 
L 73.937962 35.798574 
L 73.565 36.409921 
L 72.985031 37.348304 
L 72.169093 38.643898 
L 71.067534 40.349323 
L 69.671868 42.442144 
L 67.954475 44.921211 
L 65.925229 47.727657 
L 63.576241 50.832843 
L 61.575387 53.379408 
" clip-path="url(#pa4485429c2)" style="fill: none; stroke: #c68225"/>
   </g>
   <g id="line2d_81">
    <path d="M 61.575387 83.41129 
L 61.512478 83.372754 
L 60.883387 82.995118 
L 60.234757 82.620756 
L 58.882113 81.88975 
L 57.508496 81.218404 
L 55.348458 80.309674 
L 53.145892 79.572108 
L 50.220709 78.883558 
L 48.856011 78.674935 
" clip-path="url(#pa4485429c2)" style="fill: none; stroke: #00a98d"/>
   </g>
   <g id="line2d_82">
    <path d="M 61.575387 42.724664 
L 61.512478 42.820395 
L 60.883387 43.769105 
L 60.234757 44.731318 
L 58.882113 46.687637 
L 57.508496 48.609002 
L 55.348458 51.507334 
L 53.145892 54.325473 
L 50.220709 57.884019 
L 48.856011 59.486714 
" clip-path="url(#pa4485429c2)" style="fill: none; stroke: #8e971e"/>
   </g>
   <g id="line2d_83">
    <path d="M 48.856011 80.330608 
L 48.767511 80.307128 
L 47.88251 80.082372 
L 46.963792 79.868744 
L 45.07872 79.493679 
L 43.181387 79.204047 
L 40.243291 78.928332 
L 37.295568 78.859944 
L 36.136635 78.888493 
" clip-path="url(#pa4485429c2)" style="fill: none; stroke: #00a9cc"/>
   </g>
   <g id="line2d_84">
    <path d="M 48.856011 53.507464 
L 48.767511 53.620894 
L 47.88251 54.741566 
L 46.963792 55.879549 
L 45.07872 58.137559 
L 43.181387 60.313773 
L 40.243291 63.512131 
L 37.295568 66.541862 
L 36.136635 67.69175 
" clip-path="url(#pa4485429c2)" style="fill: none; stroke: #9b7fe9"/>
   </g>
  </g>
 </g>
 <defs>
  <clipPath id="pa4485429c2">
   <rect x="24.689196" y="24.674646" width="404.476158" height="225.630709"/>
  </clipPath>
 </defs>
</svg>
