<?xml version="1.0" encoding="utf-8" standalone="no"?>
<!DOCTYPE svg PUBLIC "-//W3C//DTD SVG 1.1//EN"
  "http://www.w3.org/Graphics/SVG/1.1/DTD/svg11.dtd">
<svg xmlns:xlink="http://www.w3.org/1999/xlink" width="432pt" height="288pt" viewBox="0 0 432 288" xmlns="http://www.w3.org/2000/svg" version="1.1">
 <metadata>
  <rdf:RDF xmlns:dc="http://purl.org/dc/elements/1.1/" xmlns:cc="http://creativecommons.org/ns#" xmlns:rdf="http://www.w3.org/1999/02/22-rdf-syntax-ns#">
   <cc:Work>
    <dc:type rdf:resource="http://purl.org/dc/dcmitype/StillImage"/>
    <dc:date>2021-12-16T21:21:41.619942</dc:date>
    <dc:format>image/svg+xml</dc:format>
    <dc:creator>
     <cc:Agent>
      <dc:title>Matplotlib v3.5.0, https://matplotlib.org/</dc:title>
     </cc:Agent>
    </dc:creator>
   </cc:Work>
  </rdf:RDF>
 </metadata>
 <defs>
  <style type="text/css">*{stroke-linejoin: round; stroke-linecap: butt}</style>
 </defs>
 <g id="figure_1">
  <g id="patch_1">
   <path d="M 0 288 
L 432 288 
L 432 0 
L 0 0 
z
" style="fill: #ffffff"/>
  </g>
  <g id="axes_1">
   <g id="patch_2">
    <path d="M 32.226125 250.305354 
L 429.165354 250.305354 
L 429.165354 24.674646 
L 32.226125 24.674646 
z
" style="fill: #ffffff"/>
   </g>
   <g id="matplotlib.axis_1">
    <g id="xtick_1">
     <g id="line2d_1">
      <path d="M 43.460254 250.305354 
L 43.460254 24.674646 
" clip-path="url(#p449c7190cf)" style="fill: none; stroke: #000000; stroke-opacity: 0.1; stroke-width: 0.5; stroke-linecap: square"/>
     </g>
     <g id="line2d_2">
      <defs>
       <path id="mdec3e89080" d="M 0 0 
L 0 -2.5 
" style="stroke: #000000; stroke-width: 0.5"/>
      </defs>
      <g>
       <use xlink:href="#mdec3e89080" x="43.460254" y="250.305354" style="stroke: #000000; stroke-width: 0.5"/>
      </g>
     </g>
     <g id="text_1">
      <!-- $0$ -->
      <g transform="translate(39.620254 262.923479)scale(0.12 -0.12)">
       <defs>
        <path id="DejaVuSans-30" d="M 2034 4250 
Q 1547 4250 1301 3770 
Q 1056 3291 1056 2328 
Q 1056 1369 1301 889 
Q 1547 409 2034 409 
Q 2525 409 2770 889 
Q 3016 1369 3016 2328 
Q 3016 3291 2770 3770 
Q 2525 4250 2034 4250 
z
M 2034 4750 
Q 2819 4750 3233 4129 
Q 3647 3509 3647 2328 
Q 3647 1150 3233 529 
Q 2819 -91 2034 -91 
Q 1250 -91 836 529 
Q 422 1150 422 2328 
Q 422 3509 836 4129 
Q 1250 4750 2034 4750 
z
" transform="scale(0.015625)"/>
       </defs>
       <use xlink:href="#DejaVuSans-30" transform="translate(0 0.78125)"/>
      </g>
     </g>
    </g>
    <g id="xtick_2">
     <g id="line2d_3">
      <path d="M 118.354448 250.305354 
L 118.354448 24.674646 
" clip-path="url(#p449c7190cf)" style="fill: none; stroke: #000000; stroke-opacity: 0.1; stroke-width: 0.5; stroke-linecap: square"/>
     </g>
     <g id="line2d_4">
      <g>
       <use xlink:href="#mdec3e89080" x="118.354448" y="250.305354" style="stroke: #000000; stroke-width: 0.5"/>
      </g>
     </g>
     <g id="text_2">
      <!-- $1$ -->
      <g transform="translate(114.514448 262.923479)scale(0.12 -0.12)">
       <defs>
        <path id="DejaVuSans-31" d="M 794 531 
L 1825 531 
L 1825 4091 
L 703 3866 
L 703 4441 
L 1819 4666 
L 2450 4666 
L 2450 531 
L 3481 531 
L 3481 0 
L 794 0 
L 794 531 
z
" transform="scale(0.015625)"/>
       </defs>
       <use xlink:href="#DejaVuSans-31" transform="translate(0 0.09375)"/>
      </g>
     </g>
    </g>
    <g id="xtick_3">
     <g id="line2d_5">
      <path d="M 193.248643 250.305354 
L 193.248643 24.674646 
" clip-path="url(#p449c7190cf)" style="fill: none; stroke: #000000; stroke-opacity: 0.1; stroke-width: 0.5; stroke-linecap: square"/>
     </g>
     <g id="line2d_6">
      <g>
       <use xlink:href="#mdec3e89080" x="193.248643" y="250.305354" style="stroke: #000000; stroke-width: 0.5"/>
      </g>
     </g>
     <g id="text_3">
      <!-- $2$ -->
      <g transform="translate(189.408643 262.923479)scale(0.12 -0.12)">
       <defs>
        <path id="DejaVuSans-32" d="M 1228 531 
L 3431 531 
L 3431 0 
L 469 0 
L 469 531 
Q 828 903 1448 1529 
Q 2069 2156 2228 2338 
Q 2531 2678 2651 2914 
Q 2772 3150 2772 3378 
Q 2772 3750 2511 3984 
Q 2250 4219 1831 4219 
Q 1534 4219 1204 4116 
Q 875 4013 500 3803 
L 500 4441 
Q 881 4594 1212 4672 
Q 1544 4750 1819 4750 
Q 2544 4750 2975 4387 
Q 3406 4025 3406 3419 
Q 3406 3131 3298 2873 
Q 3191 2616 2906 2266 
Q 2828 2175 2409 1742 
Q 1991 1309 1228 531 
z
" transform="scale(0.015625)"/>
       </defs>
       <use xlink:href="#DejaVuSans-32" transform="translate(0 0.78125)"/>
      </g>
     </g>
    </g>
    <g id="xtick_4">
     <g id="line2d_7">
      <path d="M 268.142837 250.305354 
L 268.142837 24.674646 
" clip-path="url(#p449c7190cf)" style="fill: none; stroke: #000000; stroke-opacity: 0.1; stroke-width: 0.5; stroke-linecap: square"/>
     </g>
     <g id="line2d_8">
      <g>
       <use xlink:href="#mdec3e89080" x="268.142837" y="250.305354" style="stroke: #000000; stroke-width: 0.5"/>
      </g>
     </g>
     <g id="text_4">
      <!-- $3$ -->
      <g transform="translate(264.302837 262.923479)scale(0.12 -0.12)">
       <defs>
        <path id="DejaVuSans-33" d="M 2597 2516 
Q 3050 2419 3304 2112 
Q 3559 1806 3559 1356 
Q 3559 666 3084 287 
Q 2609 -91 1734 -91 
Q 1441 -91 1130 -33 
Q 819 25 488 141 
L 488 750 
Q 750 597 1062 519 
Q 1375 441 1716 441 
Q 2309 441 2620 675 
Q 2931 909 2931 1356 
Q 2931 1769 2642 2001 
Q 2353 2234 1838 2234 
L 1294 2234 
L 1294 2753 
L 1863 2753 
Q 2328 2753 2575 2939 
Q 2822 3125 2822 3475 
Q 2822 3834 2567 4026 
Q 2313 4219 1838 4219 
Q 1578 4219 1281 4162 
Q 984 4106 628 3988 
L 628 4550 
Q 988 4650 1302 4700 
Q 1616 4750 1894 4750 
Q 2613 4750 3031 4423 
Q 3450 4097 3450 3541 
Q 3450 3153 3228 2886 
Q 3006 2619 2597 2516 
z
" transform="scale(0.015625)"/>
       </defs>
       <use xlink:href="#DejaVuSans-33" transform="translate(0 0.78125)"/>
      </g>
     </g>
    </g>
    <g id="xtick_5">
     <g id="line2d_9">
      <path d="M 343.037031 250.305354 
L 343.037031 24.674646 
" clip-path="url(#p449c7190cf)" style="fill: none; stroke: #000000; stroke-opacity: 0.1; stroke-width: 0.5; stroke-linecap: square"/>
     </g>
     <g id="line2d_10">
      <g>
       <use xlink:href="#mdec3e89080" x="343.037031" y="250.305354" style="stroke: #000000; stroke-width: 0.5"/>
      </g>
     </g>
     <g id="text_5">
      <!-- $4$ -->
      <g transform="translate(339.197031 262.923479)scale(0.12 -0.12)">
       <defs>
        <path id="DejaVuSans-34" d="M 2419 4116 
L 825 1625 
L 2419 1625 
L 2419 4116 
z
M 2253 4666 
L 3047 4666 
L 3047 1625 
L 3713 1625 
L 3713 1100 
L 3047 1100 
L 3047 0 
L 2419 0 
L 2419 1100 
L 313 1100 
L 313 1709 
L 2253 4666 
z
" transform="scale(0.015625)"/>
       </defs>
       <use xlink:href="#DejaVuSans-34" transform="translate(0 0.09375)"/>
      </g>
     </g>
    </g>
    <g id="xtick_6">
     <g id="line2d_11">
      <path d="M 417.931225 250.305354 
L 417.931225 24.674646 
" clip-path="url(#p449c7190cf)" style="fill: none; stroke: #000000; stroke-opacity: 0.1; stroke-width: 0.5; stroke-linecap: square"/>
     </g>
     <g id="line2d_12">
      <g>
       <use xlink:href="#mdec3e89080" x="417.931225" y="250.305354" style="stroke: #000000; stroke-width: 0.5"/>
      </g>
     </g>
     <g id="text_6">
      <!-- $5$ -->
      <g transform="translate(414.091225 262.923479)scale(0.12 -0.12)">
       <defs>
        <path id="DejaVuSans-35" d="M 691 4666 
L 3169 4666 
L 3169 4134 
L 1269 4134 
L 1269 2991 
Q 1406 3038 1543 3061 
Q 1681 3084 1819 3084 
Q 2600 3084 3056 2656 
Q 3513 2228 3513 1497 
Q 3513 744 3044 326 
Q 2575 -91 1722 -91 
Q 1428 -91 1123 -41 
Q 819 9 494 109 
L 494 744 
Q 775 591 1075 516 
Q 1375 441 1709 441 
Q 2250 441 2565 725 
Q 2881 1009 2881 1497 
Q 2881 1984 2565 2268 
Q 2250 2553 1709 2553 
Q 1456 2553 1204 2497 
Q 953 2441 691 2322 
L 691 4666 
z
" transform="scale(0.015625)"/>
       </defs>
       <use xlink:href="#DejaVuSans-35" transform="translate(0 0.09375)"/>
      </g>
     </g>
    </g>
    <g id="text_7">
     <!-- t [s] -->
     <g transform="translate(214.60699 281.576604)scale(0.16 -0.16)">
      <defs>
       <path id="DejaVuSans-74" d="M 1172 4494 
L 1172 3500 
L 2356 3500 
L 2356 3053 
L 1172 3053 
L 1172 1153 
Q 1172 725 1289 603 
Q 1406 481 1766 481 
L 2356 481 
L 2356 0 
L 1766 0 
Q 1100 0 847 248 
Q 594 497 594 1153 
L 594 3053 
L 172 3053 
L 172 3500 
L 594 3500 
L 594 4494 
L 1172 4494 
z
" transform="scale(0.015625)"/>
       <path id="DejaVuSans-20" transform="scale(0.015625)"/>
       <path id="DejaVuSans-5b" d="M 550 4863 
L 1875 4863 
L 1875 4416 
L 1125 4416 
L 1125 -397 
L 1875 -397 
L 1875 -844 
L 550 -844 
L 550 4863 
z
" transform="scale(0.015625)"/>
       <path id="DejaVuSans-73" d="M 2834 3397 
L 2834 2853 
Q 2591 2978 2328 3040 
Q 2066 3103 1784 3103 
Q 1356 3103 1142 2972 
Q 928 2841 928 2578 
Q 928 2378 1081 2264 
Q 1234 2150 1697 2047 
L 1894 2003 
Q 2506 1872 2764 1633 
Q 3022 1394 3022 966 
Q 3022 478 2636 193 
Q 2250 -91 1575 -91 
Q 1294 -91 989 -36 
Q 684 19 347 128 
L 347 722 
Q 666 556 975 473 
Q 1284 391 1588 391 
Q 1994 391 2212 530 
Q 2431 669 2431 922 
Q 2431 1156 2273 1281 
Q 2116 1406 1581 1522 
L 1381 1569 
Q 847 1681 609 1914 
Q 372 2147 372 2553 
Q 372 3047 722 3315 
Q 1072 3584 1716 3584 
Q 2034 3584 2315 3537 
Q 2597 3491 2834 3397 
z
" transform="scale(0.015625)"/>
       <path id="DejaVuSans-5d" d="M 1947 4863 
L 1947 -844 
L 622 -844 
L 622 -397 
L 1369 -397 
L 1369 4416 
L 622 4416 
L 622 4863 
L 1947 4863 
z
" transform="scale(0.015625)"/>
      </defs>
      <use xlink:href="#DejaVuSans-74"/>
      <use xlink:href="#DejaVuSans-20" x="39.208984"/>
      <use xlink:href="#DejaVuSans-5b" x="70.996094"/>
      <use xlink:href="#DejaVuSans-73" x="110.009766"/>
      <use xlink:href="#DejaVuSans-5d" x="162.109375"/>
     </g>
    </g>
   </g>
   <g id="matplotlib.axis_2">
    <g id="ytick_1">
     <g id="line2d_13">
      <path d="M 32.226125 228.388203 
L 429.165354 228.388203 
" clip-path="url(#p449c7190cf)" style="fill: none; stroke: #000000; stroke-opacity: 0.1; stroke-width: 0.5; stroke-linecap: square"/>
     </g>
     <g id="line2d_14">
      <defs>
       <path id="m07d1c69799" d="M 0 0 
L 2.5 0 
" style="stroke: #000000; stroke-width: 0.5"/>
      </defs>
      <g>
       <use xlink:href="#m07d1c69799" x="32.226125" y="228.388203" style="stroke: #000000; stroke-width: 0.5"/>
      </g>
     </g>
     <g id="text_8">
      <!-- $-80$ -->
      <g transform="translate(3.286125 232.947265)scale(0.12 -0.12)">
       <defs>
        <path id="DejaVuSans-2212" d="M 678 2272 
L 4684 2272 
L 4684 1741 
L 678 1741 
L 678 2272 
z
" transform="scale(0.015625)"/>
        <path id="DejaVuSans-38" d="M 2034 2216 
Q 1584 2216 1326 1975 
Q 1069 1734 1069 1313 
Q 1069 891 1326 650 
Q 1584 409 2034 409 
Q 2484 409 2743 651 
Q 3003 894 3003 1313 
Q 3003 1734 2745 1975 
Q 2488 2216 2034 2216 
z
M 1403 2484 
Q 997 2584 770 2862 
Q 544 3141 544 3541 
Q 544 4100 942 4425 
Q 1341 4750 2034 4750 
Q 2731 4750 3128 4425 
Q 3525 4100 3525 3541 
Q 3525 3141 3298 2862 
Q 3072 2584 2669 2484 
Q 3125 2378 3379 2068 
Q 3634 1759 3634 1313 
Q 3634 634 3220 271 
Q 2806 -91 2034 -91 
Q 1263 -91 848 271 
Q 434 634 434 1313 
Q 434 1759 690 2068 
Q 947 2378 1403 2484 
z
M 1172 3481 
Q 1172 3119 1398 2916 
Q 1625 2713 2034 2713 
Q 2441 2713 2670 2916 
Q 2900 3119 2900 3481 
Q 2900 3844 2670 4047 
Q 2441 4250 2034 4250 
Q 1625 4250 1398 4047 
Q 1172 3844 1172 3481 
z
" transform="scale(0.015625)"/>
       </defs>
       <use xlink:href="#DejaVuSans-2212" transform="translate(0 0.78125)"/>
       <use xlink:href="#DejaVuSans-38" transform="translate(83.789062 0.78125)"/>
       <use xlink:href="#DejaVuSans-30" transform="translate(147.412109 0.78125)"/>
      </g>
     </g>
    </g>
    <g id="ytick_2">
     <g id="line2d_15">
      <path d="M 32.226125 183.040734 
L 429.165354 183.040734 
" clip-path="url(#p449c7190cf)" style="fill: none; stroke: #000000; stroke-opacity: 0.1; stroke-width: 0.5; stroke-linecap: square"/>
     </g>
     <g id="line2d_16">
      <g>
       <use xlink:href="#m07d1c69799" x="32.226125" y="183.040734" style="stroke: #000000; stroke-width: 0.5"/>
      </g>
     </g>
     <g id="text_9">
      <!-- $-60$ -->
      <g transform="translate(3.286125 187.599797)scale(0.12 -0.12)">
       <defs>
        <path id="DejaVuSans-36" d="M 2113 2584 
Q 1688 2584 1439 2293 
Q 1191 2003 1191 1497 
Q 1191 994 1439 701 
Q 1688 409 2113 409 
Q 2538 409 2786 701 
Q 3034 994 3034 1497 
Q 3034 2003 2786 2293 
Q 2538 2584 2113 2584 
z
M 3366 4563 
L 3366 3988 
Q 3128 4100 2886 4159 
Q 2644 4219 2406 4219 
Q 1781 4219 1451 3797 
Q 1122 3375 1075 2522 
Q 1259 2794 1537 2939 
Q 1816 3084 2150 3084 
Q 2853 3084 3261 2657 
Q 3669 2231 3669 1497 
Q 3669 778 3244 343 
Q 2819 -91 2113 -91 
Q 1303 -91 875 529 
Q 447 1150 447 2328 
Q 447 3434 972 4092 
Q 1497 4750 2381 4750 
Q 2619 4750 2861 4703 
Q 3103 4656 3366 4563 
z
" transform="scale(0.015625)"/>
       </defs>
       <use xlink:href="#DejaVuSans-2212" transform="translate(0 0.78125)"/>
       <use xlink:href="#DejaVuSans-36" transform="translate(83.789062 0.78125)"/>
       <use xlink:href="#DejaVuSans-30" transform="translate(147.412109 0.78125)"/>
      </g>
     </g>
    </g>
    <g id="ytick_3">
     <g id="line2d_17">
      <path d="M 32.226125 137.693265 
L 429.165354 137.693265 
" clip-path="url(#p449c7190cf)" style="fill: none; stroke: #000000; stroke-opacity: 0.1; stroke-width: 0.5; stroke-linecap: square"/>
     </g>
     <g id="line2d_18">
      <g>
       <use xlink:href="#m07d1c69799" x="32.226125" y="137.693265" style="stroke: #000000; stroke-width: 0.5"/>
      </g>
     </g>
     <g id="text_10">
      <!-- $-40$ -->
      <g transform="translate(3.286125 142.252328)scale(0.12 -0.12)">
       <use xlink:href="#DejaVuSans-2212" transform="translate(0 0.78125)"/>
       <use xlink:href="#DejaVuSans-34" transform="translate(83.789062 0.78125)"/>
       <use xlink:href="#DejaVuSans-30" transform="translate(147.412109 0.78125)"/>
      </g>
     </g>
    </g>
    <g id="ytick_4">
     <g id="line2d_19">
      <path d="M 32.226125 92.345797 
L 429.165354 92.345797 
" clip-path="url(#p449c7190cf)" style="fill: none; stroke: #000000; stroke-opacity: 0.1; stroke-width: 0.5; stroke-linecap: square"/>
     </g>
     <g id="line2d_20">
      <g>
       <use xlink:href="#m07d1c69799" x="32.226125" y="92.345797" style="stroke: #000000; stroke-width: 0.5"/>
      </g>
     </g>
     <g id="text_11">
      <!-- $-20$ -->
      <g transform="translate(3.286125 96.904859)scale(0.12 -0.12)">
       <use xlink:href="#DejaVuSans-2212" transform="translate(0 0.78125)"/>
       <use xlink:href="#DejaVuSans-32" transform="translate(83.789062 0.78125)"/>
       <use xlink:href="#DejaVuSans-30" transform="translate(147.412109 0.78125)"/>
      </g>
     </g>
    </g>
    <g id="ytick_5">
     <g id="line2d_21">
      <path d="M 32.226125 46.998328 
L 429.165354 46.998328 
" clip-path="url(#p449c7190cf)" style="fill: none; stroke: #000000; stroke-opacity: 0.1; stroke-width: 0.5; stroke-linecap: square"/>
     </g>
     <g id="line2d_22">
      <g>
       <use xlink:href="#m07d1c69799" x="32.226125" y="46.998328" style="stroke: #000000; stroke-width: 0.5"/>
      </g>
     </g>
     <g id="text_12">
      <!-- $0$ -->
      <g transform="translate(21.046125 51.55739)scale(0.12 -0.12)">
       <use xlink:href="#DejaVuSans-30" transform="translate(0 0.78125)"/>
      </g>
     </g>
    </g>
   </g>
   <g id="line2d_23">
    <path d="M 417.931225 47.214671 
L 417.929276 47.21426 
L 417.909786 47.210149 
L 417.842738 47.196028 
L 417.769509 47.180637 
L 417.614129 47.148096 
L 417.445237 47.112904 
L 417.179343 47.057888 
L 416.901064 47.000835 
L 416.544191 46.928478 
L 416.187318 46.857068 
L 415.787432 46.77822 
L 415.387546 46.700654 
L 414.878787 46.603899 
L 414.304081 46.497315 
L 413.613435 46.373218 
L 412.830897 46.238141 
L 411.916384 46.08812 
L 410.883348 45.929351 
L 409.698736 45.761943 
L 408.366677 45.593238 
L 406.855953 45.427817 
L 405.158368 45.275506 
L 403.236144 45.145993 
L 401.066611 45.053187 
L 398.630834 45.012098 
L 396.012207 45.033984 
L 393.315798 45.11586 
L 390.549462 45.247814 
L 387.679604 45.420587 
L 384.648456 45.627783 
L 381.987118 45.821127 
L 379.325781 46.019692 
L 376.535168 46.230502 
L 374.223162 46.405632 
L 371.911156 46.581621 
L 370.04393 46.724351 
L 368.390077 46.851676 
L 367.016992 46.958239 
L 365.993236 47.038305 
L 364.969481 47.11905 
L 363.712726 47.219271 
L 362.371199 47.327701 
L 360.815112 47.455616 
L 359.1253 47.597399 
L 357.195663 47.763433 
L 355.069465 47.952025 
L 352.650252 48.174653 
L 349.949022 48.434456 
L 346.880193 48.745617 
L 343.501098 49.110104 
L 343.037031 49.162019 
" clip-path="url(#p449c7190cf)" style="fill: none; stroke: #00008b"/>
   </g>
   <g id="line2d_24">
    <path d="M 417.931225 43.548925 
L 417.929276 43.54916 
L 417.909786 43.551509 
L 417.842738 43.559584 
L 417.769509 43.568386 
L 417.614129 43.587006 
L 417.445237 43.607159 
L 417.179343 43.638705 
L 416.901064 43.671487 
L 416.544191 43.713182 
L 416.187318 43.754496 
L 415.787432 43.800345 
L 415.387546 43.845735 
L 414.878787 43.902832 
L 414.304081 43.96648 
L 413.613435 44.041812 
L 412.830897 44.125704 
L 411.916384 44.221868 
L 410.883348 44.328206 
L 409.698736 44.447369 
L 408.366677 44.578131 
L 406.855953 44.722751 
L 405.158368 44.881276 
L 403.236144 45.056721 
L 401.066611 45.25116 
L 398.630834 45.467465 
L 396.012207 45.701455 
L 393.315798 45.949159 
L 390.549462 46.217272 
L 387.679604 46.519697 
L 384.648456 46.87921 
L 381.987118 47.242538 
L 379.325781 47.664871 
L 376.535168 48.187914 
L 374.223162 48.696706 
L 371.911156 49.284599 
L 370.04393 49.823121 
L 368.390077 50.350769 
L 367.016992 50.826192 
L 365.993236 51.202972 
L 364.969481 51.598829 
L 363.712726 52.110594 
L 362.371199 52.687421 
L 360.815112 53.394139 
L 359.1253 54.203677 
L 357.195663 55.174799 
L 355.069465 56.290398 
L 352.650252 57.597029 
L 349.949022 59.068923 
L 346.880193 60.703969 
L 343.501098 62.382365 
L 343.037031 62.598101 
" clip-path="url(#p449c7190cf)" style="fill: none; stroke: #cc0000"/>
   </g>
   <g id="patch_3">
    <path d="M 32.226125 250.305354 
L 32.226125 24.674646 
" style="fill: none; stroke: #000000; stroke-linejoin: miter; stroke-linecap: square"/>
   </g>
   <g id="patch_4">
    <path d="M 32.226125 250.305354 
L 429.165354 250.305354 
" style="fill: none; stroke: #000000; stroke-linejoin: miter; stroke-linecap: square"/>
   </g>
   <g id="line2d_25">
    <path d="M 343.037031 48.716136 
L 342.974889 48.722897 
L 342.353469 48.790998 
L 341.659495 48.868106 
L 340.358934 49.015703 
L 339.050455 49.168366 
L 337.315116 49.377558 
L 335.579777 49.594727 
L 333.412098 49.87779 
L 330.736545 50.246248 
L 327.622065 50.703464 
L 323.988144 51.278404 
L 319.893249 51.984365 
L 315.294424 52.857412 
L 310.255434 53.920925 
L 304.790209 55.213161 
L 300.063368 56.456912 
L 296.138205 57.584477 
L 291.632231 58.99051 
L 287.126257 60.519171 
L 282.382714 62.262017 
L 277.639171 64.137817 
L 272.895628 66.135471 
L 268.810697 67.937452 
L 268.142837 68.237763 
" clip-path="url(#p449c7190cf)" style="fill: none; stroke: #00008b"/>
   </g>
   <g id="text_13">
    <!-- Adjoint State -->
    <g transform="translate(162.870662 18.674646)scale(0.21 -0.21)">
     <defs>
      <path id="DejaVuSans-41" d="M 2188 4044 
L 1331 1722 
L 3047 1722 
L 2188 4044 
z
M 1831 4666 
L 2547 4666 
L 4325 0 
L 3669 0 
L 3244 1197 
L 1141 1197 
L 716 0 
L 50 0 
L 1831 4666 
z
" transform="scale(0.015625)"/>
      <path id="DejaVuSans-64" d="M 2906 2969 
L 2906 4863 
L 3481 4863 
L 3481 0 
L 2906 0 
L 2906 525 
Q 2725 213 2448 61 
Q 2172 -91 1784 -91 
Q 1150 -91 751 415 
Q 353 922 353 1747 
Q 353 2572 751 3078 
Q 1150 3584 1784 3584 
Q 2172 3584 2448 3432 
Q 2725 3281 2906 2969 
z
M 947 1747 
Q 947 1113 1208 752 
Q 1469 391 1925 391 
Q 2381 391 2643 752 
Q 2906 1113 2906 1747 
Q 2906 2381 2643 2742 
Q 2381 3103 1925 3103 
Q 1469 3103 1208 2742 
Q 947 2381 947 1747 
z
" transform="scale(0.015625)"/>
      <path id="DejaVuSans-6a" d="M 603 3500 
L 1178 3500 
L 1178 -63 
Q 1178 -731 923 -1031 
Q 669 -1331 103 -1331 
L -116 -1331 
L -116 -844 
L 38 -844 
Q 366 -844 484 -692 
Q 603 -541 603 -63 
L 603 3500 
z
M 603 4863 
L 1178 4863 
L 1178 4134 
L 603 4134 
L 603 4863 
z
" transform="scale(0.015625)"/>
      <path id="DejaVuSans-6f" d="M 1959 3097 
Q 1497 3097 1228 2736 
Q 959 2375 959 1747 
Q 959 1119 1226 758 
Q 1494 397 1959 397 
Q 2419 397 2687 759 
Q 2956 1122 2956 1747 
Q 2956 2369 2687 2733 
Q 2419 3097 1959 3097 
z
M 1959 3584 
Q 2709 3584 3137 3096 
Q 3566 2609 3566 1747 
Q 3566 888 3137 398 
Q 2709 -91 1959 -91 
Q 1206 -91 779 398 
Q 353 888 353 1747 
Q 353 2609 779 3096 
Q 1206 3584 1959 3584 
z
" transform="scale(0.015625)"/>
      <path id="DejaVuSans-69" d="M 603 3500 
L 1178 3500 
L 1178 0 
L 603 0 
L 603 3500 
z
M 603 4863 
L 1178 4863 
L 1178 4134 
L 603 4134 
L 603 4863 
z
" transform="scale(0.015625)"/>
      <path id="DejaVuSans-6e" d="M 3513 2113 
L 3513 0 
L 2938 0 
L 2938 2094 
Q 2938 2591 2744 2837 
Q 2550 3084 2163 3084 
Q 1697 3084 1428 2787 
Q 1159 2491 1159 1978 
L 1159 0 
L 581 0 
L 581 3500 
L 1159 3500 
L 1159 2956 
Q 1366 3272 1645 3428 
Q 1925 3584 2291 3584 
Q 2894 3584 3203 3211 
Q 3513 2838 3513 2113 
z
" transform="scale(0.015625)"/>
      <path id="DejaVuSans-53" d="M 3425 4513 
L 3425 3897 
Q 3066 4069 2747 4153 
Q 2428 4238 2131 4238 
Q 1616 4238 1336 4038 
Q 1056 3838 1056 3469 
Q 1056 3159 1242 3001 
Q 1428 2844 1947 2747 
L 2328 2669 
Q 3034 2534 3370 2195 
Q 3706 1856 3706 1288 
Q 3706 609 3251 259 
Q 2797 -91 1919 -91 
Q 1588 -91 1214 -16 
Q 841 59 441 206 
L 441 856 
Q 825 641 1194 531 
Q 1563 422 1919 422 
Q 2459 422 2753 634 
Q 3047 847 3047 1241 
Q 3047 1584 2836 1778 
Q 2625 1972 2144 2069 
L 1759 2144 
Q 1053 2284 737 2584 
Q 422 2884 422 3419 
Q 422 4038 858 4394 
Q 1294 4750 2059 4750 
Q 2388 4750 2728 4690 
Q 3069 4631 3425 4513 
z
" transform="scale(0.015625)"/>
      <path id="DejaVuSans-61" d="M 2194 1759 
Q 1497 1759 1228 1600 
Q 959 1441 959 1056 
Q 959 750 1161 570 
Q 1363 391 1709 391 
Q 2188 391 2477 730 
Q 2766 1069 2766 1631 
L 2766 1759 
L 2194 1759 
z
M 3341 1997 
L 3341 0 
L 2766 0 
L 2766 531 
Q 2569 213 2275 61 
Q 1981 -91 1556 -91 
Q 1019 -91 701 211 
Q 384 513 384 1019 
Q 384 1609 779 1909 
Q 1175 2209 1959 2209 
L 2766 2209 
L 2766 2266 
Q 2766 2663 2505 2880 
Q 2244 3097 1772 3097 
Q 1472 3097 1187 3025 
Q 903 2953 641 2809 
L 641 3341 
Q 956 3463 1253 3523 
Q 1550 3584 1831 3584 
Q 2591 3584 2966 3190 
Q 3341 2797 3341 1997 
z
" transform="scale(0.015625)"/>
      <path id="DejaVuSans-65" d="M 3597 1894 
L 3597 1613 
L 953 1613 
Q 991 1019 1311 708 
Q 1631 397 2203 397 
Q 2534 397 2845 478 
Q 3156 559 3463 722 
L 3463 178 
Q 3153 47 2828 -22 
Q 2503 -91 2169 -91 
Q 1331 -91 842 396 
Q 353 884 353 1716 
Q 353 2575 817 3079 
Q 1281 3584 2069 3584 
Q 2775 3584 3186 3129 
Q 3597 2675 3597 1894 
z
M 3022 2063 
Q 3016 2534 2758 2815 
Q 2500 3097 2075 3097 
Q 1594 3097 1305 2825 
Q 1016 2553 972 2059 
L 3022 2063 
z
" transform="scale(0.015625)"/>
     </defs>
     <use xlink:href="#DejaVuSans-41"/>
     <use xlink:href="#DejaVuSans-64" x="66.658203"/>
     <use xlink:href="#DejaVuSans-6a" x="130.134766"/>
     <use xlink:href="#DejaVuSans-6f" x="157.917969"/>
     <use xlink:href="#DejaVuSans-69" x="219.099609"/>
     <use xlink:href="#DejaVuSans-6e" x="246.882812"/>
     <use xlink:href="#DejaVuSans-74" x="310.261719"/>
     <use xlink:href="#DejaVuSans-20" x="349.470703"/>
     <use xlink:href="#DejaVuSans-53" x="381.257812"/>
     <use xlink:href="#DejaVuSans-74" x="444.734375"/>
     <use xlink:href="#DejaVuSans-61" x="483.943359"/>
     <use xlink:href="#DejaVuSans-74" x="545.222656"/>
     <use xlink:href="#DejaVuSans-65" x="584.431641"/>
    </g>
   </g>
   <g id="line2d_26">
    <path d="M 343.037031 64.387754 
L 342.974889 64.423585 
L 342.353469 64.777783 
L 341.659495 65.163973 
L 340.358934 65.858586 
L 339.050455 66.514877 
L 337.315116 67.311866 
L 335.579777 68.016642 
L 333.412098 68.755973 
L 330.736545 69.437278 
L 327.622065 69.893963 
L 323.988144 69.96646 
L 319.893249 69.481692 
L 315.294424 68.302774 
L 310.255434 66.391736 
L 304.790209 63.809669 
L 300.063368 61.337109 
L 296.138205 59.223225 
L 291.632231 56.818419 
L 287.126257 54.51313 
L 282.382714 52.254492 
L 277.639171 50.208605 
L 272.895628 48.395201 
L 268.810697 47.024012 
L 268.142837 46.816699 
" clip-path="url(#p449c7190cf)" style="fill: none; stroke: #cc0000"/>
   </g>
   <g id="line2d_27">
    <path d="M 268.142837 68.541197 
L 268.104831 68.558733 
L 267.724769 68.734344 
L 267.209496 68.973119 
L 266.404136 69.347779 
L 265.582055 69.731842 
L 264.226764 70.367914 
L 262.532329 71.166499 
L 260.247655 72.244465 
L 257.583989 73.493201 
L 254.38112 74.963196 
L 250.87704 76.497687 
L 247.022441 78.04111 
L 243.093919 79.38306 
L 239.165398 80.401481 
L 234.276762 81.063582 
L 228.777819 80.773357 
L 224.473787 79.629808 
L 220.169754 77.588711 
L 215.515345 74.354547 
L 210.860936 70.158117 
L 206.206526 65.250757 
L 202.230664 60.793248 
L 198.254802 56.396864 
L 194.944395 53.001874 
L 193.248643 51.411007 
" clip-path="url(#p449c7190cf)" style="fill: none; stroke: #00008b"/>
   </g>
   <g id="line2d_28">
    <path d="M 268.142837 47.519286 
L 268.104831 47.506605 
L 267.724769 47.380644 
L 267.209496 47.212333 
L 266.404136 46.954898 
L 265.582055 46.699152 
L 264.226764 46.29277 
L 262.532329 45.810908 
L 260.247655 45.205833 
L 257.583989 44.562479 
L 254.38112 43.872189 
L 250.87704 43.213637 
L 247.022441 42.595195 
L 243.093919 42.067277 
L 239.165398 41.630687 
L 234.276762 41.197683 
L 228.777819 40.834844 
L 224.473787 40.628278 
L 220.169754 40.479078 
L 215.515345 40.373281 
L 210.860936 40.318246 
L 206.206526 40.309221 
L 202.230664 40.338995 
L 198.254802 40.403167 
L 194.944395 40.489594 
L 193.248643 40.549542 
" clip-path="url(#p449c7190cf)" style="fill: none; stroke: #cc0000"/>
   </g>
   <g id="line2d_29">
    <path d="M 193.248643 52.350357 
L 193.216631 52.291102 
L 192.896512 51.704305 
L 192.474977 50.947792 
L 191.753174 49.695892 
L 190.941275 48.354973 
L 189.896683 46.736698 
L 188.85209 45.240942 
L 187.542146 43.539289 
L 185.993992 41.776248 
L 184.307506 40.153524 
L 182.481034 38.728469 
L 180.580663 37.583929 
L 178.62568 36.72826 
L 176.670696 36.156115 
L 174.563286 35.807466 
L 171.907782 35.689564 
L 169.252278 35.846573 
L 166.596773 36.208968 
L 163.941269 36.725152 
L 161.285765 37.358957 
L 158.63026 38.086378 
L 155.974756 38.89244 
L 153.319252 39.768591 
L 150.663747 40.710738 
L 148.008243 41.717833 
L 145.67624 42.654837 
L 143.344238 43.644491 
L 140.974505 44.706557 
L 138.604772 45.828187 
L 136.589947 46.830444 
L 134.575122 47.880414 
L 132.560297 48.980457 
L 129.954752 50.482178 
L 127.349207 52.07743 
L 124.621396 53.854507 
L 122.266523 55.481886 
L 119.91165 57.20113 
L 118.354448 58.390847 
" clip-path="url(#p449c7190cf)" style="fill: none; stroke: #00008b"/>
   </g>
   <g id="line2d_30">
    <path d="M 193.248643 31.06042 
L 193.216631 31.067796 
L 192.896512 31.141851 
L 192.474977 31.240262 
L 191.753174 31.411222 
L 190.941275 31.607748 
L 189.896683 31.867864 
L 188.85209 32.137664 
L 187.542146 32.491386 
L 185.993992 32.935799 
L 184.307506 33.459925 
L 182.481034 34.085822 
L 180.580663 34.817816 
L 178.62568 35.679001 
L 176.670696 36.678183 
L 174.563286 37.9488 
L 171.907782 39.912988 
L 169.252278 42.403086 
L 166.596773 45.566792 
L 163.941269 49.568614 
L 161.285765 54.578929 
L 158.63026 60.758377 
L 155.974756 68.239172 
L 153.319252 77.10573 
L 150.663747 87.377315 
L 148.008243 98.995303 
L 145.67624 110.192659 
L 143.344238 122.169795 
L 140.974505 134.940359 
L 138.604772 148.073905 
L 136.589947 159.321316 
L 134.575122 170.460863 
L 132.560297 181.315351 
L 129.954752 194.653575 
L 127.349207 206.876059 
L 124.621396 218.144849 
L 122.266523 226.397749 
L 119.91165 233.139521 
L 118.354448 236.720457 
" clip-path="url(#p449c7190cf)" style="fill: none; stroke: #cc0000"/>
   </g>
   <g id="line2d_31">
    <path d="M 118.354448 58.38998 
L 118.299119 58.433121 
L 117.745825 58.867608 
L 117.103414 59.379155 
L 115.838765 60.408848 
L 114.436637 61.586447 
L 112.285562 63.469306 
L 109.934105 65.637666 
L 106.817185 68.699101 
L 103.43638 72.275878 
L 99.333649 77.000545 
L 94.924201 82.583103 
L 89.886489 89.651807 
L 84.629246 97.869782 
L 79.172269 107.36176 
L 73.715291 117.864088 
L 69.544427 126.564189 
L 66.576568 133.095951 
L 63.608708 139.8945 
L 60.640848 146.933999 
L 57.209925 155.325472 
L 53.779002 163.914631 
L 50.056101 173.340513 
L 46.3332 182.709795 
L 43.460254 189.765223 
" clip-path="url(#p449c7190cf)" style="fill: none; stroke: #00008b"/>
   </g>
   <g id="line2d_32">
    <path d="M 118.354448 236.867372 
L 118.299119 236.981162 
L 117.745825 238.069153 
L 117.103414 239.21814 
L 115.838765 241.120186 
L 114.436637 242.67078 
L 112.285562 243.91958 
L 109.934105 243.759594 
L 106.817185 241.22716 
L 103.43638 235.767093 
L 99.333649 225.91277 
L 94.924201 212.237446 
L 89.886489 193.956648 
L 84.629246 173.292918 
L 79.172269 151.520863 
L 73.715291 130.526869 
L 69.544427 115.5041 
L 66.576568 105.492338 
L 63.608708 96.094167 
L 60.640848 87.33693 
L 57.209925 78.022725 
L 53.779002 69.57324 
L 50.056101 61.352443 
L 46.3332 54.072123 
L 43.460254 49.061229 
" clip-path="url(#p449c7190cf)" style="fill: none; stroke: #cc0000"/>
   </g>
  </g>
 </g>
 <defs>
  <clipPath id="p449c7190cf">
   <rect x="32.226125" y="24.674646" width="396.939229" height="225.630709"/>
  </clipPath>
 </defs>
</svg>
