<?xml version="1.0" encoding="utf-8" standalone="no"?>
<!DOCTYPE svg PUBLIC "-//W3C//DTD SVG 1.1//EN"
  "http://www.w3.org/Graphics/SVG/1.1/DTD/svg11.dtd">
<svg xmlns:xlink="http://www.w3.org/1999/xlink" width="432pt" height="288pt" viewBox="0 0 432 288" xmlns="http://www.w3.org/2000/svg" version="1.1">
 <metadata>
  <rdf:RDF xmlns:dc="http://purl.org/dc/elements/1.1/" xmlns:cc="http://creativecommons.org/ns#" xmlns:rdf="http://www.w3.org/1999/02/22-rdf-syntax-ns#">
   <cc:Work>
    <dc:type rdf:resource="http://purl.org/dc/dcmitype/StillImage"/>
    <dc:date>2021-11-24T21:10:51.612927</dc:date>
    <dc:format>image/svg+xml</dc:format>
    <dc:creator>
     <cc:Agent>
      <dc:title>Matplotlib v3.5.0, https://matplotlib.org/</dc:title>
     </cc:Agent>
    </dc:creator>
   </cc:Work>
  </rdf:RDF>
 </metadata>
 <defs>
  <style type="text/css">*{stroke-linejoin: round; stroke-linecap: butt}</style>
 </defs>
 <g id="figure_1">
  <g id="patch_1">
   <path d="M 0 288 
L 432 288 
L 432 0 
L 0 0 
z
" style="fill: #ffffff"/>
  </g>
  <g id="axes_1">
   <g id="patch_2">
    <path d="M 43.376721 250.305354 
L 429.165354 250.305354 
L 429.165354 24.674646 
L 43.376721 24.674646 
z
" style="fill: #ffffff"/>
   </g>
   <g id="matplotlib.axis_1">
    <g id="xtick_1">
     <g id="line2d_1">
      <path d="M 54.295267 250.305354 
L 54.295267 24.674646 
" clip-path="url(#p9b4e4cff11)" style="fill: none; stroke: #000000; stroke-opacity: 0.1; stroke-width: 0.5; stroke-linecap: square"/>
     </g>
     <g id="line2d_2">
      <defs>
       <path id="me5be442cbe" d="M 0 0 
L 0 -2.5 
" style="stroke: #000000; stroke-width: 0.5"/>
      </defs>
      <g>
       <use xlink:href="#me5be442cbe" x="54.295267" y="250.305354" style="stroke: #000000; stroke-width: 0.5"/>
      </g>
     </g>
     <g id="text_1">
      <!-- $0$ -->
      <g transform="translate(50.455267 262.923479)scale(0.12 -0.12)">
       <defs>
        <path id="DejaVuSans-30" d="M 2034 4250 
Q 1547 4250 1301 3770 
Q 1056 3291 1056 2328 
Q 1056 1369 1301 889 
Q 1547 409 2034 409 
Q 2525 409 2770 889 
Q 3016 1369 3016 2328 
Q 3016 3291 2770 3770 
Q 2525 4250 2034 4250 
z
M 2034 4750 
Q 2819 4750 3233 4129 
Q 3647 3509 3647 2328 
Q 3647 1150 3233 529 
Q 2819 -91 2034 -91 
Q 1250 -91 836 529 
Q 422 1150 422 2328 
Q 422 3509 836 4129 
Q 1250 4750 2034 4750 
z
" transform="scale(0.015625)"/>
       </defs>
       <use xlink:href="#DejaVuSans-30" transform="translate(0 0.78125)"/>
      </g>
     </g>
    </g>
    <g id="xtick_2">
     <g id="line2d_3">
      <path d="M 127.085575 250.305354 
L 127.085575 24.674646 
" clip-path="url(#p9b4e4cff11)" style="fill: none; stroke: #000000; stroke-opacity: 0.1; stroke-width: 0.5; stroke-linecap: square"/>
     </g>
     <g id="line2d_4">
      <g>
       <use xlink:href="#me5be442cbe" x="127.085575" y="250.305354" style="stroke: #000000; stroke-width: 0.5"/>
      </g>
     </g>
     <g id="text_2">
      <!-- $1$ -->
      <g transform="translate(123.245575 262.923479)scale(0.12 -0.12)">
       <defs>
        <path id="DejaVuSans-31" d="M 794 531 
L 1825 531 
L 1825 4091 
L 703 3866 
L 703 4441 
L 1819 4666 
L 2450 4666 
L 2450 531 
L 3481 531 
L 3481 0 
L 794 0 
L 794 531 
z
" transform="scale(0.015625)"/>
       </defs>
       <use xlink:href="#DejaVuSans-31" transform="translate(0 0.09375)"/>
      </g>
     </g>
    </g>
    <g id="xtick_3">
     <g id="line2d_5">
      <path d="M 199.875883 250.305354 
L 199.875883 24.674646 
" clip-path="url(#p9b4e4cff11)" style="fill: none; stroke: #000000; stroke-opacity: 0.1; stroke-width: 0.5; stroke-linecap: square"/>
     </g>
     <g id="line2d_6">
      <g>
       <use xlink:href="#me5be442cbe" x="199.875883" y="250.305354" style="stroke: #000000; stroke-width: 0.5"/>
      </g>
     </g>
     <g id="text_3">
      <!-- $2$ -->
      <g transform="translate(196.035883 262.923479)scale(0.12 -0.12)">
       <defs>
        <path id="DejaVuSans-32" d="M 1228 531 
L 3431 531 
L 3431 0 
L 469 0 
L 469 531 
Q 828 903 1448 1529 
Q 2069 2156 2228 2338 
Q 2531 2678 2651 2914 
Q 2772 3150 2772 3378 
Q 2772 3750 2511 3984 
Q 2250 4219 1831 4219 
Q 1534 4219 1204 4116 
Q 875 4013 500 3803 
L 500 4441 
Q 881 4594 1212 4672 
Q 1544 4750 1819 4750 
Q 2544 4750 2975 4387 
Q 3406 4025 3406 3419 
Q 3406 3131 3298 2873 
Q 3191 2616 2906 2266 
Q 2828 2175 2409 1742 
Q 1991 1309 1228 531 
z
" transform="scale(0.015625)"/>
       </defs>
       <use xlink:href="#DejaVuSans-32" transform="translate(0 0.78125)"/>
      </g>
     </g>
    </g>
    <g id="xtick_4">
     <g id="line2d_7">
      <path d="M 272.666192 250.305354 
L 272.666192 24.674646 
" clip-path="url(#p9b4e4cff11)" style="fill: none; stroke: #000000; stroke-opacity: 0.1; stroke-width: 0.5; stroke-linecap: square"/>
     </g>
     <g id="line2d_8">
      <g>
       <use xlink:href="#me5be442cbe" x="272.666192" y="250.305354" style="stroke: #000000; stroke-width: 0.5"/>
      </g>
     </g>
     <g id="text_4">
      <!-- $3$ -->
      <g transform="translate(268.826192 262.923479)scale(0.12 -0.12)">
       <defs>
        <path id="DejaVuSans-33" d="M 2597 2516 
Q 3050 2419 3304 2112 
Q 3559 1806 3559 1356 
Q 3559 666 3084 287 
Q 2609 -91 1734 -91 
Q 1441 -91 1130 -33 
Q 819 25 488 141 
L 488 750 
Q 750 597 1062 519 
Q 1375 441 1716 441 
Q 2309 441 2620 675 
Q 2931 909 2931 1356 
Q 2931 1769 2642 2001 
Q 2353 2234 1838 2234 
L 1294 2234 
L 1294 2753 
L 1863 2753 
Q 2328 2753 2575 2939 
Q 2822 3125 2822 3475 
Q 2822 3834 2567 4026 
Q 2313 4219 1838 4219 
Q 1578 4219 1281 4162 
Q 984 4106 628 3988 
L 628 4550 
Q 988 4650 1302 4700 
Q 1616 4750 1894 4750 
Q 2613 4750 3031 4423 
Q 3450 4097 3450 3541 
Q 3450 3153 3228 2886 
Q 3006 2619 2597 2516 
z
" transform="scale(0.015625)"/>
       </defs>
       <use xlink:href="#DejaVuSans-33" transform="translate(0 0.78125)"/>
      </g>
     </g>
    </g>
    <g id="xtick_5">
     <g id="line2d_9">
      <path d="M 345.4565 250.305354 
L 345.4565 24.674646 
" clip-path="url(#p9b4e4cff11)" style="fill: none; stroke: #000000; stroke-opacity: 0.1; stroke-width: 0.5; stroke-linecap: square"/>
     </g>
     <g id="line2d_10">
      <g>
       <use xlink:href="#me5be442cbe" x="345.4565" y="250.305354" style="stroke: #000000; stroke-width: 0.5"/>
      </g>
     </g>
     <g id="text_5">
      <!-- $4$ -->
      <g transform="translate(341.6165 262.923479)scale(0.12 -0.12)">
       <defs>
        <path id="DejaVuSans-34" d="M 2419 4116 
L 825 1625 
L 2419 1625 
L 2419 4116 
z
M 2253 4666 
L 3047 4666 
L 3047 1625 
L 3713 1625 
L 3713 1100 
L 3047 1100 
L 3047 0 
L 2419 0 
L 2419 1100 
L 313 1100 
L 313 1709 
L 2253 4666 
z
" transform="scale(0.015625)"/>
       </defs>
       <use xlink:href="#DejaVuSans-34" transform="translate(0 0.09375)"/>
      </g>
     </g>
    </g>
    <g id="xtick_6">
     <g id="line2d_11">
      <path d="M 418.246808 250.305354 
L 418.246808 24.674646 
" clip-path="url(#p9b4e4cff11)" style="fill: none; stroke: #000000; stroke-opacity: 0.1; stroke-width: 0.5; stroke-linecap: square"/>
     </g>
     <g id="line2d_12">
      <g>
       <use xlink:href="#me5be442cbe" x="418.246808" y="250.305354" style="stroke: #000000; stroke-width: 0.5"/>
      </g>
     </g>
     <g id="text_6">
      <!-- $5$ -->
      <g transform="translate(414.406808 262.923479)scale(0.12 -0.12)">
       <defs>
        <path id="DejaVuSans-35" d="M 691 4666 
L 3169 4666 
L 3169 4134 
L 1269 4134 
L 1269 2991 
Q 1406 3038 1543 3061 
Q 1681 3084 1819 3084 
Q 2600 3084 3056 2656 
Q 3513 2228 3513 1497 
Q 3513 744 3044 326 
Q 2575 -91 1722 -91 
Q 1428 -91 1123 -41 
Q 819 9 494 109 
L 494 744 
Q 775 591 1075 516 
Q 1375 441 1709 441 
Q 2250 441 2565 725 
Q 2881 1009 2881 1497 
Q 2881 1984 2565 2268 
Q 2250 2553 1709 2553 
Q 1456 2553 1204 2497 
Q 953 2441 691 2322 
L 691 4666 
z
" transform="scale(0.015625)"/>
       </defs>
       <use xlink:href="#DejaVuSans-35" transform="translate(0 0.09375)"/>
      </g>
     </g>
    </g>
    <g id="text_7">
     <!-- t [s] -->
     <g transform="translate(220.182288 281.576604)scale(0.16 -0.16)">
      <defs>
       <path id="DejaVuSans-74" d="M 1172 4494 
L 1172 3500 
L 2356 3500 
L 2356 3053 
L 1172 3053 
L 1172 1153 
Q 1172 725 1289 603 
Q 1406 481 1766 481 
L 2356 481 
L 2356 0 
L 1766 0 
Q 1100 0 847 248 
Q 594 497 594 1153 
L 594 3053 
L 172 3053 
L 172 3500 
L 594 3500 
L 594 4494 
L 1172 4494 
z
" transform="scale(0.015625)"/>
       <path id="DejaVuSans-20" transform="scale(0.015625)"/>
       <path id="DejaVuSans-5b" d="M 550 4863 
L 1875 4863 
L 1875 4416 
L 1125 4416 
L 1125 -397 
L 1875 -397 
L 1875 -844 
L 550 -844 
L 550 4863 
z
" transform="scale(0.015625)"/>
       <path id="DejaVuSans-73" d="M 2834 3397 
L 2834 2853 
Q 2591 2978 2328 3040 
Q 2066 3103 1784 3103 
Q 1356 3103 1142 2972 
Q 928 2841 928 2578 
Q 928 2378 1081 2264 
Q 1234 2150 1697 2047 
L 1894 2003 
Q 2506 1872 2764 1633 
Q 3022 1394 3022 966 
Q 3022 478 2636 193 
Q 2250 -91 1575 -91 
Q 1294 -91 989 -36 
Q 684 19 347 128 
L 347 722 
Q 666 556 975 473 
Q 1284 391 1588 391 
Q 1994 391 2212 530 
Q 2431 669 2431 922 
Q 2431 1156 2273 1281 
Q 2116 1406 1581 1522 
L 1381 1569 
Q 847 1681 609 1914 
Q 372 2147 372 2553 
Q 372 3047 722 3315 
Q 1072 3584 1716 3584 
Q 2034 3584 2315 3537 
Q 2597 3491 2834 3397 
z
" transform="scale(0.015625)"/>
       <path id="DejaVuSans-5d" d="M 1947 4863 
L 1947 -844 
L 622 -844 
L 622 -397 
L 1369 -397 
L 1369 4416 
L 622 4416 
L 622 4863 
L 1947 4863 
z
" transform="scale(0.015625)"/>
      </defs>
      <use xlink:href="#DejaVuSans-74"/>
      <use xlink:href="#DejaVuSans-20" x="39.208984"/>
      <use xlink:href="#DejaVuSans-5b" x="70.996094"/>
      <use xlink:href="#DejaVuSans-73" x="110.009766"/>
      <use xlink:href="#DejaVuSans-5d" x="162.109375"/>
     </g>
    </g>
   </g>
   <g id="matplotlib.axis_2">
    <g id="ytick_1">
     <g id="line2d_13">
      <path d="M 43.376721 216.079768 
L 429.165354 216.079768 
" clip-path="url(#p9b4e4cff11)" style="fill: none; stroke: #000000; stroke-opacity: 0.1; stroke-width: 0.5; stroke-linecap: square"/>
     </g>
     <g id="line2d_14">
      <defs>
       <path id="mbe65efeb59" d="M 0 0 
L 2.5 0 
" style="stroke: #000000; stroke-width: 0.5"/>
      </defs>
      <g>
       <use xlink:href="#mbe65efeb59" x="43.376721" y="216.079768" style="stroke: #000000; stroke-width: 0.5"/>
      </g>
     </g>
     <g id="text_8">
      <!-- $-0.05$ -->
      <g transform="translate(3.036721 220.638831)scale(0.12 -0.12)">
       <defs>
        <path id="DejaVuSans-2212" d="M 678 2272 
L 4684 2272 
L 4684 1741 
L 678 1741 
L 678 2272 
z
" transform="scale(0.015625)"/>
        <path id="DejaVuSans-2e" d="M 684 794 
L 1344 794 
L 1344 0 
L 684 0 
L 684 794 
z
" transform="scale(0.015625)"/>
       </defs>
       <use xlink:href="#DejaVuSans-2212" transform="translate(0 0.78125)"/>
       <use xlink:href="#DejaVuSans-30" transform="translate(83.789062 0.78125)"/>
       <use xlink:href="#DejaVuSans-2e" transform="translate(147.412109 0.78125)"/>
       <use xlink:href="#DejaVuSans-30" transform="translate(179.199219 0.78125)"/>
       <use xlink:href="#DejaVuSans-35" transform="translate(242.822266 0.78125)"/>
      </g>
     </g>
    </g>
    <g id="ytick_2">
     <g id="line2d_15">
      <path d="M 43.376721 167.749356 
L 429.165354 167.749356 
" clip-path="url(#p9b4e4cff11)" style="fill: none; stroke: #000000; stroke-opacity: 0.1; stroke-width: 0.5; stroke-linecap: square"/>
     </g>
     <g id="line2d_16">
      <g>
       <use xlink:href="#mbe65efeb59" x="43.376721" y="167.749356" style="stroke: #000000; stroke-width: 0.5"/>
      </g>
     </g>
     <g id="text_9">
      <!-- $0.00$ -->
      <g transform="translate(13.116721 172.308419)scale(0.12 -0.12)">
       <use xlink:href="#DejaVuSans-30" transform="translate(0 0.78125)"/>
       <use xlink:href="#DejaVuSans-2e" transform="translate(63.623047 0.78125)"/>
       <use xlink:href="#DejaVuSans-30" transform="translate(95.410156 0.78125)"/>
       <use xlink:href="#DejaVuSans-30" transform="translate(159.033203 0.78125)"/>
      </g>
     </g>
    </g>
    <g id="ytick_3">
     <g id="line2d_17">
      <path d="M 43.376721 119.418944 
L 429.165354 119.418944 
" clip-path="url(#p9b4e4cff11)" style="fill: none; stroke: #000000; stroke-opacity: 0.1; stroke-width: 0.5; stroke-linecap: square"/>
     </g>
     <g id="line2d_18">
      <g>
       <use xlink:href="#mbe65efeb59" x="43.376721" y="119.418944" style="stroke: #000000; stroke-width: 0.5"/>
      </g>
     </g>
     <g id="text_10">
      <!-- $0.05$ -->
      <g transform="translate(13.116721 123.978007)scale(0.12 -0.12)">
       <use xlink:href="#DejaVuSans-30" transform="translate(0 0.78125)"/>
       <use xlink:href="#DejaVuSans-2e" transform="translate(63.623047 0.78125)"/>
       <use xlink:href="#DejaVuSans-30" transform="translate(95.410156 0.78125)"/>
       <use xlink:href="#DejaVuSans-35" transform="translate(159.033203 0.78125)"/>
      </g>
     </g>
    </g>
    <g id="ytick_4">
     <g id="line2d_19">
      <path d="M 43.376721 71.088532 
L 429.165354 71.088532 
" clip-path="url(#p9b4e4cff11)" style="fill: none; stroke: #000000; stroke-opacity: 0.1; stroke-width: 0.5; stroke-linecap: square"/>
     </g>
     <g id="line2d_20">
      <g>
       <use xlink:href="#mbe65efeb59" x="43.376721" y="71.088532" style="stroke: #000000; stroke-width: 0.5"/>
      </g>
     </g>
     <g id="text_11">
      <!-- $0.10$ -->
      <g transform="translate(13.116721 75.647595)scale(0.12 -0.12)">
       <use xlink:href="#DejaVuSans-30" transform="translate(0 0.78125)"/>
       <use xlink:href="#DejaVuSans-2e" transform="translate(63.623047 0.78125)"/>
       <use xlink:href="#DejaVuSans-31" transform="translate(95.410156 0.78125)"/>
       <use xlink:href="#DejaVuSans-30" transform="translate(159.033203 0.78125)"/>
      </g>
     </g>
    </g>
   </g>
   <g id="line2d_21">
    <path d="M 418.246808 168.788414 
L 418.218522 168.78367 
L 417.935661 168.736324 
L 417.126943 168.60192 
L 416.194222 168.448677 
L 414.428018 168.163758 
L 412.531266 167.865396 
L 410.967777 167.625296 
" clip-path="url(#p9b4e4cff11)" style="fill: none; stroke: #009afa"/>
   </g>
   <g id="line2d_22">
    <path d="M 418.246808 164.941672 
L 418.218522 164.938631 
L 417.935661 164.908289 
L 417.126943 164.822221 
L 416.194222 164.724298 
L 414.428018 164.543268 
L 412.531266 164.356231 
L 410.967777 164.208723 
" clip-path="url(#p9b4e4cff11)" style="fill: none; stroke: #e36f47"/>
   </g>
   <g id="patch_3">
    <path d="M 43.376721 250.305354 
L 43.376721 24.674646 
" style="fill: none; stroke: #000000; stroke-linejoin: miter; stroke-linecap: square"/>
   </g>
   <g id="patch_4">
    <path d="M 43.376721 250.305354 
L 429.165354 250.305354 
" style="fill: none; stroke: #000000; stroke-linejoin: miter; stroke-linecap: square"/>
   </g>
   <g id="line2d_23">
    <path d="M 410.967777 168.256044 
L 410.93734 168.248011 
L 410.632965 168.167827 
L 409.884563 167.971804 
L 409.00307 167.742969 
L 407.523491 167.363782 
L 405.948938 166.966819 
L 403.848406 166.447377 
L 403.688746 166.408342 
" clip-path="url(#p9b4e4cff11)" style="fill: none; stroke: #3ea44e"/>
   </g>
   <g id="text_12">
    <!-- Adjoint State -->
    <g transform="translate(168.445959 18.674646)scale(0.21 -0.21)">
     <defs>
      <path id="DejaVuSans-41" d="M 2188 4044 
L 1331 1722 
L 3047 1722 
L 2188 4044 
z
M 1831 4666 
L 2547 4666 
L 4325 0 
L 3669 0 
L 3244 1197 
L 1141 1197 
L 716 0 
L 50 0 
L 1831 4666 
z
" transform="scale(0.015625)"/>
      <path id="DejaVuSans-64" d="M 2906 2969 
L 2906 4863 
L 3481 4863 
L 3481 0 
L 2906 0 
L 2906 525 
Q 2725 213 2448 61 
Q 2172 -91 1784 -91 
Q 1150 -91 751 415 
Q 353 922 353 1747 
Q 353 2572 751 3078 
Q 1150 3584 1784 3584 
Q 2172 3584 2448 3432 
Q 2725 3281 2906 2969 
z
M 947 1747 
Q 947 1113 1208 752 
Q 1469 391 1925 391 
Q 2381 391 2643 752 
Q 2906 1113 2906 1747 
Q 2906 2381 2643 2742 
Q 2381 3103 1925 3103 
Q 1469 3103 1208 2742 
Q 947 2381 947 1747 
z
" transform="scale(0.015625)"/>
      <path id="DejaVuSans-6a" d="M 603 3500 
L 1178 3500 
L 1178 -63 
Q 1178 -731 923 -1031 
Q 669 -1331 103 -1331 
L -116 -1331 
L -116 -844 
L 38 -844 
Q 366 -844 484 -692 
Q 603 -541 603 -63 
L 603 3500 
z
M 603 4863 
L 1178 4863 
L 1178 4134 
L 603 4134 
L 603 4863 
z
" transform="scale(0.015625)"/>
      <path id="DejaVuSans-6f" d="M 1959 3097 
Q 1497 3097 1228 2736 
Q 959 2375 959 1747 
Q 959 1119 1226 758 
Q 1494 397 1959 397 
Q 2419 397 2687 759 
Q 2956 1122 2956 1747 
Q 2956 2369 2687 2733 
Q 2419 3097 1959 3097 
z
M 1959 3584 
Q 2709 3584 3137 3096 
Q 3566 2609 3566 1747 
Q 3566 888 3137 398 
Q 2709 -91 1959 -91 
Q 1206 -91 779 398 
Q 353 888 353 1747 
Q 353 2609 779 3096 
Q 1206 3584 1959 3584 
z
" transform="scale(0.015625)"/>
      <path id="DejaVuSans-69" d="M 603 3500 
L 1178 3500 
L 1178 0 
L 603 0 
L 603 3500 
z
M 603 4863 
L 1178 4863 
L 1178 4134 
L 603 4134 
L 603 4863 
z
" transform="scale(0.015625)"/>
      <path id="DejaVuSans-6e" d="M 3513 2113 
L 3513 0 
L 2938 0 
L 2938 2094 
Q 2938 2591 2744 2837 
Q 2550 3084 2163 3084 
Q 1697 3084 1428 2787 
Q 1159 2491 1159 1978 
L 1159 0 
L 581 0 
L 581 3500 
L 1159 3500 
L 1159 2956 
Q 1366 3272 1645 3428 
Q 1925 3584 2291 3584 
Q 2894 3584 3203 3211 
Q 3513 2838 3513 2113 
z
" transform="scale(0.015625)"/>
      <path id="DejaVuSans-53" d="M 3425 4513 
L 3425 3897 
Q 3066 4069 2747 4153 
Q 2428 4238 2131 4238 
Q 1616 4238 1336 4038 
Q 1056 3838 1056 3469 
Q 1056 3159 1242 3001 
Q 1428 2844 1947 2747 
L 2328 2669 
Q 3034 2534 3370 2195 
Q 3706 1856 3706 1288 
Q 3706 609 3251 259 
Q 2797 -91 1919 -91 
Q 1588 -91 1214 -16 
Q 841 59 441 206 
L 441 856 
Q 825 641 1194 531 
Q 1563 422 1919 422 
Q 2459 422 2753 634 
Q 3047 847 3047 1241 
Q 3047 1584 2836 1778 
Q 2625 1972 2144 2069 
L 1759 2144 
Q 1053 2284 737 2584 
Q 422 2884 422 3419 
Q 422 4038 858 4394 
Q 1294 4750 2059 4750 
Q 2388 4750 2728 4690 
Q 3069 4631 3425 4513 
z
" transform="scale(0.015625)"/>
      <path id="DejaVuSans-61" d="M 2194 1759 
Q 1497 1759 1228 1600 
Q 959 1441 959 1056 
Q 959 750 1161 570 
Q 1363 391 1709 391 
Q 2188 391 2477 730 
Q 2766 1069 2766 1631 
L 2766 1759 
L 2194 1759 
z
M 3341 1997 
L 3341 0 
L 2766 0 
L 2766 531 
Q 2569 213 2275 61 
Q 1981 -91 1556 -91 
Q 1019 -91 701 211 
Q 384 513 384 1019 
Q 384 1609 779 1909 
Q 1175 2209 1959 2209 
L 2766 2209 
L 2766 2266 
Q 2766 2663 2505 2880 
Q 2244 3097 1772 3097 
Q 1472 3097 1187 3025 
Q 903 2953 641 2809 
L 641 3341 
Q 956 3463 1253 3523 
Q 1550 3584 1831 3584 
Q 2591 3584 2966 3190 
Q 3341 2797 3341 1997 
z
" transform="scale(0.015625)"/>
      <path id="DejaVuSans-65" d="M 3597 1894 
L 3597 1613 
L 953 1613 
Q 991 1019 1311 708 
Q 1631 397 2203 397 
Q 2534 397 2845 478 
Q 3156 559 3463 722 
L 3463 178 
Q 3153 47 2828 -22 
Q 2503 -91 2169 -91 
Q 1331 -91 842 396 
Q 353 884 353 1716 
Q 353 2575 817 3079 
Q 1281 3584 2069 3584 
Q 2775 3584 3186 3129 
Q 3597 2675 3597 1894 
z
M 3022 2063 
Q 3016 2534 2758 2815 
Q 2500 3097 2075 3097 
Q 1594 3097 1305 2825 
Q 1016 2553 972 2059 
L 3022 2063 
z
" transform="scale(0.015625)"/>
     </defs>
     <use xlink:href="#DejaVuSans-41"/>
     <use xlink:href="#DejaVuSans-64" x="66.658203"/>
     <use xlink:href="#DejaVuSans-6a" x="130.134766"/>
     <use xlink:href="#DejaVuSans-6f" x="157.917969"/>
     <use xlink:href="#DejaVuSans-69" x="219.099609"/>
     <use xlink:href="#DejaVuSans-6e" x="246.882812"/>
     <use xlink:href="#DejaVuSans-74" x="310.261719"/>
     <use xlink:href="#DejaVuSans-20" x="349.470703"/>
     <use xlink:href="#DejaVuSans-53" x="381.257812"/>
     <use xlink:href="#DejaVuSans-74" x="444.734375"/>
     <use xlink:href="#DejaVuSans-61" x="483.943359"/>
     <use xlink:href="#DejaVuSans-74" x="545.222656"/>
     <use xlink:href="#DejaVuSans-65" x="584.431641"/>
    </g>
   </g>
   <g id="line2d_24">
    <path d="M 410.967777 161.818228 
L 410.93734 161.812399 
L 410.632965 161.754298 
L 409.884563 161.612967 
L 409.00307 161.449471 
L 407.523491 161.183015 
L 405.948938 160.911742 
L 403.848406 160.572591 
L 403.688746 160.547969 
" clip-path="url(#p9b4e4cff11)" style="fill: none; stroke: #c371d2"/>
   </g>
   <g id="line2d_25">
    <path d="M 403.688746 166.703271 
L 403.662193 166.694975 
L 403.396659 166.612107 
L 402.859484 166.445003 
L 402.151835 166.225944 
L 401.045315 165.8858 
L 399.704203 165.477274 
L 397.897757 164.933073 
L 396.409716 164.489589 
" clip-path="url(#p9b4e4cff11)" style="fill: none; stroke: #ac8e18"/>
   </g>
   <g id="line2d_26">
    <path d="M 403.688746 158.627049 
L 403.662193 158.620911 
L 403.396659 158.559824 
L 402.859484 158.437922 
L 402.151835 158.280896 
L 401.045315 158.043991 
L 399.704203 157.772076 
L 397.897757 157.434841 
L 396.409716 157.184456 
" clip-path="url(#p9b4e4cff11)" style="fill: none; stroke: #00aaae"/>
   </g>
   <g id="line2d_27">
    <path d="M 396.409716 164.547495 
L 396.363305 164.531812 
L 395.8992 164.375178 
L 395.195849 164.138463 
L 394.031919 163.748405 
L 392.525533 163.246407 
L 390.445402 162.557812 
L 389.130685 162.124834 
" clip-path="url(#p9b4e4cff11)" style="fill: none; stroke: #ed5e93"/>
   </g>
   <g id="line2d_28">
    <path d="M 396.409716 155.683598 
L 396.363305 155.673788 
L 395.8992 155.577253 
L 395.195849 155.436491 
L 394.031919 155.218855 
L 392.525533 154.967157 
L 390.445402 154.679446 
L 389.130685 154.535643 
" clip-path="url(#p9b4e4cff11)" style="fill: none; stroke: #c68225"/>
   </g>
   <g id="line2d_29">
    <path d="M 389.130685 162.035371 
L 389.057997 162.00958 
L 388.331113 161.751873 
L 387.426765 161.431708 
L 385.740156 160.835747 
L 383.810433 160.155071 
L 381.851654 159.464664 
" clip-path="url(#p9b4e4cff11)" style="fill: none; stroke: #00a98d"/>
   </g>
   <g id="line2d_30">
    <path d="M 389.130685 153.37151 
L 389.057997 153.362185 
L 388.331113 153.274535 
L 387.426765 153.179938 
L 385.740156 153.047939 
L 383.810433 152.970629 
L 381.851654 152.975911 
" clip-path="url(#p9b4e4cff11)" style="fill: none; stroke: #8e971e"/>
   </g>
   <g id="line2d_31">
    <path d="M 381.851654 159.299178 
L 381.755576 159.26357 
L 380.794801 158.907403 
L 379.714655 158.506663 
L 377.584934 157.715247 
L 375.319595 156.870526 
L 374.572623 156.591068 
" clip-path="url(#p9b4e4cff11)" style="fill: none; stroke: #00a9cc"/>
   </g>
   <g id="line2d_32">
    <path d="M 381.851654 152.06261 
L 381.755576 152.063515 
L 380.794801 152.084694 
L 379.714655 152.135002 
L 377.584934 152.317854 
L 375.319595 152.634974 
L 374.572623 152.767111 
" clip-path="url(#p9b4e4cff11)" style="fill: none; stroke: #9b7fe9"/>
   </g>
   <g id="line2d_33">
    <path d="M 374.572623 156.396835 
L 374.461885 156.353861 
L 373.354502 155.923492 
L 372.15137 155.454467 
L 369.750699 154.513868 
L 367.293592 153.543485 
" clip-path="url(#p9b4e4cff11)" style="fill: none; stroke: #618df6"/>
   </g>
   <g id="line2d_34">
    <path d="M 374.572623 152.035648 
L 374.461885 152.055609 
L 373.354502 152.272417 
L 372.15137 152.543097 
L 369.750699 153.191481 
L 367.293592 153.999433 
" clip-path="url(#p9b4e4cff11)" style="fill: none; stroke: #f06073"/>
   </g>
   <g id="line2d_35">
    <path d="M 367.293592 153.348952 
L 367.173872 153.300151 
L 365.976671 152.810959 
L 364.7135 152.29233 
L 362.172475 151.241232 
L 360.014562 150.339652 
" clip-path="url(#p9b4e4cff11)" style="fill: none; stroke: #dd65b6"/>
   </g>
   <g id="line2d_36">
    <path d="M 367.293592 153.398626 
L 367.173872 153.441306 
L 365.976671 153.886697 
L 364.7135 154.392292 
L 362.172475 155.515643 
L 360.014562 156.572481 
" clip-path="url(#p9b4e4cff11)" style="fill: none; stroke: #6c9f33"/>
   </g>
   <g id="line2d_37">
    <path d="M 360.014562 150.160219 
L 359.887697 150.105817 
L 358.619056 149.560127 
L 357.350415 149.011298 
L 354.763128 147.882393 
L 352.735531 146.988325 
" clip-path="url(#p9b4e4cff11)" style="fill: none; stroke: #009afa"/>
   </g>
   <g id="line2d_38">
    <path d="M 360.014562 156.067712 
L 359.887697 156.132639 
L 358.619056 156.798469 
L 357.350415 157.492881 
L 354.763128 158.990458 
L 352.735531 160.230279 
" clip-path="url(#p9b4e4cff11)" style="fill: none; stroke: #e36f47"/>
   </g>
   <g id="line2d_39">
    <path d="M 352.735531 146.832246 
L 352.601187 146.771733 
L 351.316564 146.191256 
L 350.031942 145.607429 
L 347.564504 144.476962 
L 345.4565 143.501867 
" clip-path="url(#p9b4e4cff11)" style="fill: none; stroke: #3ea44e"/>
   </g>
   <g id="line2d_40">
    <path d="M 352.735531 159.795996 
L 352.601187 159.880177 
L 351.316564 160.696099 
L 350.031942 161.530099 
L 347.564504 163.17537 
L 345.4565 164.615557 
" clip-path="url(#p9b4e4cff11)" style="fill: none; stroke: #c371d2"/>
   </g>
   <g id="line2d_41">
    <path d="M 345.4565 143.371363 
L 345.339495 143.316246 
L 344.296829 142.823962 
L 343.254163 142.32968 
L 341.312524 141.404208 
L 339.370884 140.472633 
L 338.177469 139.897293 
" clip-path="url(#p9b4e4cff11)" style="fill: none; stroke: #ac8e18"/>
   </g>
   <g id="line2d_42">
    <path d="M 345.4565 164.236878 
L 345.339495 164.317813 
L 344.296829 165.04207 
L 343.254163 165.770834 
L 341.312524 167.136482 
L 339.370884 168.507024 
L 338.177469 169.348819 
" clip-path="url(#p9b4e4cff11)" style="fill: none; stroke: #00aaae"/>
   </g>
   <g id="line2d_43">
    <path d="M 338.177469 139.792696 
L 338.094716 139.752297 
L 337.267184 139.347805 
L 336.436577 138.940929 
L 334.598038 138.037537 
L 332.680927 137.092186 
L 330.898438 136.211056 
" clip-path="url(#p9b4e4cff11)" style="fill: none; stroke: #ed5e93"/>
   </g>
   <g id="line2d_44">
    <path d="M 338.177469 169.0149 
L 338.094716 169.07342 
L 337.267184 169.658082 
L 336.436577 170.243537 
L 334.598038 171.53248 
L 332.680927 172.8617 
L 330.898438 174.079567 
" clip-path="url(#p9b4e4cff11)" style="fill: none; stroke: #c68225"/>
   </g>
   <g id="line2d_45">
    <path d="M 330.898438 136.130639 
L 330.752635 136.05782 
L 329.482797 135.423326 
L 328.212958 134.788569 
L 325.543263 133.455018 
L 323.619407 132.496763 
" clip-path="url(#p9b4e4cff11)" style="fill: none; stroke: #00a98d"/>
   </g>
   <g id="line2d_46">
    <path d="M 330.898438 173.786349 
L 330.752635 173.885468 
L 329.482797 174.742716 
L 328.212958 175.588113 
L 325.543263 177.322432 
L 323.619407 178.530775 
" clip-path="url(#p9b4e4cff11)" style="fill: none; stroke: #8e971e"/>
   </g>
   <g id="line2d_47">
    <path d="M 323.619407 132.438923 
L 323.459327 132.358731 
L 321.913286 131.585876 
L 320.367244 130.8167 
L 317.164189 129.23942 
L 316.340377 128.838312 
" clip-path="url(#p9b4e4cff11)" style="fill: none; stroke: #00a9cc"/>
   </g>
   <g id="line2d_48">
    <path d="M 323.619407 178.276737 
L 323.459327 178.37601 
L 321.913286 179.321252 
L 320.367244 180.240686 
L 317.164189 182.05933 
L 316.340377 182.506856 
" clip-path="url(#p9b4e4cff11)" style="fill: none; stroke: #9b7fe9"/>
   </g>
   <g id="line2d_49">
    <path d="M 316.340377 128.800931 
L 316.176849 128.72102 
L 314.541578 127.926974 
L 312.906306 127.143281 
L 309.429884 125.519367 
L 309.061346 125.351129 
" clip-path="url(#p9b4e4cff11)" style="fill: none; stroke: #618df6"/>
   </g>
   <g id="line2d_50">
    <path d="M 316.340377 182.296044 
L 316.176849 182.384321 
L 314.541578 183.24903 
L 312.906306 184.08004 
L 309.429884 185.733256 
L 309.061346 185.899094 
" clip-path="url(#p9b4e4cff11)" style="fill: none; stroke: #f06073"/>
   </g>
   <g id="line2d_51">
    <path d="M 309.061346 125.333093 
L 308.896184 125.257559 
L 307.244562 124.511797 
L 305.432972 123.71561 
L 301.798302 122.198619 
L 301.782315 122.19221 
" clip-path="url(#p9b4e4cff11)" style="fill: none; stroke: #dd65b6"/>
   </g>
   <g id="line2d_52">
    <path d="M 309.061346 185.738191 
L 308.896184 185.812251 
L 307.244562 186.533317 
L 305.432972 187.283004 
L 301.798302 188.658323 
L 301.782315 188.663985 
" clip-path="url(#p9b4e4cff11)" style="fill: none; stroke: #6c9f33"/>
   </g>
   <g id="line2d_53">
    <path d="M 301.782315 122.192559 
L 301.619798 122.12727 
L 299.994628 121.488991 
L 298.012509 120.749022 
L 294.503284 119.556398 
" clip-path="url(#p9b4e4cff11)" style="fill: none; stroke: #009afa"/>
   </g>
   <g id="line2d_54">
    <path d="M 301.782315 188.565266 
L 301.619798 188.622899 
L 299.994628 189.180606 
L 298.012509 189.815132 
L 294.503284 190.818382 
" clip-path="url(#p9b4e4cff11)" style="fill: none; stroke: #e36f47"/>
   </g>
   <g id="line2d_55">
    <path d="M 294.503284 119.575556 
L 294.350463 119.527326 
L 292.822246 119.063556 
L 290.68489 118.474669 
L 287.224253 117.684428 
" clip-path="url(#p9b4e4cff11)" style="fill: none; stroke: #3ea44e"/>
   </g>
   <g id="line2d_56">
    <path d="M 294.503284 190.79913 
L 294.350463 190.839341 
L 292.822246 191.226052 
L 290.68489 191.720566 
L 287.224253 192.41063 
" clip-path="url(#p9b4e4cff11)" style="fill: none; stroke: #c371d2"/>
   </g>
   <g id="line2d_57">
    <path d="M 287.224253 117.723747 
L 287.091959 117.698006 
L 285.76902 117.459134 
L 283.509305 117.132511 
L 280.080232 116.848891 
L 279.945223 116.843233 
" clip-path="url(#p9b4e4cff11)" style="fill: none; stroke: #ac8e18"/>
   </g>
   <g id="line2d_58">
    <path d="M 287.224253 192.49378 
L 287.091959 192.517313 
L 285.76902 192.742246 
L 283.509305 193.083601 
L 280.080232 193.502655 
L 279.945223 193.51678 
" clip-path="url(#p9b4e4cff11)" style="fill: none; stroke: #00aaae"/>
   </g>
   <g id="line2d_59">
    <path d="M 279.945223 116.905998 
L 279.852258 116.902781 
L 278.922617 116.882085 
L 276.568136 116.926024 
L 273.705485 117.175072 
L 272.666192 117.320923 
" clip-path="url(#p9b4e4cff11)" style="fill: none; stroke: #ed5e93"/>
   </g>
   <g id="line2d_60">
    <path d="M 279.945223 193.730768 
L 279.852258 193.740025 
L 278.922617 193.828096 
L 276.568136 194.015426 
L 273.705485 194.176996 
L 272.666192 194.21843 
" clip-path="url(#p9b4e4cff11)" style="fill: none; stroke: #c68225"/>
   </g>
   <g id="line2d_61">
    <path d="M 272.666192 117.41283 
L 272.576045 117.427678 
L 271.674579 117.588956 
L 269.217779 118.149335 
L 266.560958 118.960201 
L 265.387161 119.387897 
" clip-path="url(#p9b4e4cff11)" style="fill: none; stroke: #00a98d"/>
   </g>
   <g id="line2d_62">
    <path d="M 272.666192 194.598205 
L 272.576045 194.600748 
L 271.674579 194.622569 
L 269.217779 194.649649 
L 266.560958 194.627976 
L 265.387161 194.602343 
" clip-path="url(#p9b4e4cff11)" style="fill: none; stroke: #8e971e"/>
   </g>
   <g id="line2d_63">
    <path d="M 265.387161 119.519125 
L 265.255055 119.571858 
L 263.933993 120.129719 
L 261.758205 121.170497 
L 258.501508 123.01511 
L 258.10813 123.260978 
" clip-path="url(#p9b4e4cff11)" style="fill: none; stroke: #00a9cc"/>
   </g>
   <g id="line2d_64">
    <path d="M 265.387161 195.184516 
L 265.255055 195.179563 
L 263.933993 195.123586 
L 261.758205 195.006612 
L 258.501508 194.777079 
L 258.10813 194.745127 
" clip-path="url(#p9b4e4cff11)" style="fill: none; stroke: #9b7fe9"/>
   </g>
   <g id="line2d_65">
    <path d="M 258.10813 123.447243 
L 257.955914 123.54716 
L 256.433754 124.587497 
L 254.44426 126.05885 
L 251.010817 128.889405 
L 250.829099 129.049016 
" clip-path="url(#p9b4e4cff11)" style="fill: none; stroke: #618df6"/>
   </g>
   <g id="line2d_66">
    <path d="M 258.10813 195.561474 
L 257.955914 195.546467 
L 256.433754 195.389369 
L 254.44426 195.165349 
L 251.010817 194.731815 
L 250.829099 194.70727 
" clip-path="url(#p9b4e4cff11)" style="fill: none; stroke: #f06073"/>
   </g>
   <g id="line2d_67">
    <path d="M 250.829099 129.315863 
L 250.668411 129.463007 
L 249.061526 130.975596 
L 247.26373 132.753202 
L 243.862328 136.346066 
L 243.550068 136.689419 
" clip-path="url(#p9b4e4cff11)" style="fill: none; stroke: #dd65b6"/>
   </g>
   <g id="line2d_68">
    <path d="M 250.829099 195.773469 
L 250.668411 195.748219 
L 249.061526 195.489335 
L 247.26373 195.186255 
L 243.862328 194.576179 
L 243.550068 194.517793 
" clip-path="url(#p9b4e4cff11)" style="fill: none; stroke: #6c9f33"/>
   </g>
   <g id="line2d_69">
    <path d="M 243.550068 137.079166 
L 243.386064 137.26741 
L 241.746025 139.180824 
L 240.105985 141.14553 
L 236.856328 145.165492 
L 236.271038 145.903226 
" clip-path="url(#p9b4e4cff11)" style="fill: none; stroke: #009afa"/>
   </g>
   <g id="line2d_70">
    <path d="M 243.550068 195.801465 
L 243.386064 195.766365 
L 241.746025 195.409873 
L 240.105985 195.043472 
L 236.856328 194.289673 
L 236.271038 194.149858 
" clip-path="url(#p9b4e4cff11)" style="fill: none; stroke: #e36f47"/>
   </g>
   <g id="line2d_71">
    <path d="M 236.271038 146.480432 
L 236.108526 146.693768 
L 234.596803 148.68853 
L 233.08508 150.696502 
L 230.219156 154.516244 
L 228.992007 156.14584 
" clip-path="url(#p9b4e4cff11)" style="fill: none; stroke: #3ea44e"/>
   </g>
   <g id="line2d_72">
    <path d="M 236.271038 195.533562 
L 236.108526 195.4899 
L 234.596803 195.079618 
L 233.08508 194.661766 
L 230.219156 193.849536 
L 228.992007 193.49317 
" clip-path="url(#p9b4e4cff11)" style="fill: none; stroke: #c371d2"/>
   </g>
   <g id="line2d_73">
    <path d="M 228.992007 157.000344 
L 228.866785 157.171609 
L 227.678095 158.790908 
L 226.489406 160.395609 
L 224.265977 163.346057 
L 222.042549 166.208808 
L 221.712976 166.62411 
" clip-path="url(#p9b4e4cff11)" style="fill: none; stroke: #ac8e18"/>
   </g>
   <g id="line2d_74">
    <path d="M 228.992007 194.725408 
L 228.866785 194.685082 
L 227.678095 194.299829 
L 226.489406 193.909985 
L 224.265977 193.168616 
L 222.042549 192.410396 
L 221.712976 192.296435 
" clip-path="url(#p9b4e4cff11)" style="fill: none; stroke: #00aaae"/>
   </g>
   <g id="line2d_75">
    <path d="M 221.712976 167.845825 
L 221.677323 167.89099 
L 221.320797 168.34089 
L 220.757188 169.045443 
L 219.75874 170.272583 
L 218.394193 171.903233 
L 216.48215 174.089895 
L 214.433945 176.292632 
" clip-path="url(#p9b4e4cff11)" style="fill: none; stroke: #ed5e93"/>
   </g>
   <g id="line2d_76">
    <path d="M 221.712976 193.003719 
L 221.677323 192.990485 
L 221.320797 192.857908 
L 220.757188 192.647417 
L 219.75874 192.271776 
L 218.394193 191.752543 
L 216.48215 191.013188 
L 214.433945 190.204786 
" clip-path="url(#p9b4e4cff11)" style="fill: none; stroke: #c68225"/>
   </g>
   <g id="line2d_77">
    <path d="M 214.433945 177.919099 
L 214.370793 177.981316 
L 213.739275 178.594982 
L 212.923717 179.36421 
L 211.399065 180.730062 
L 209.600258 182.21627 
L 207.154914 184.01189 
" clip-path="url(#p9b4e4cff11)" style="fill: none; stroke: #00a98d"/>
   </g>
   <g id="line2d_78">
    <path d="M 214.433945 189.997509 
L 214.370793 189.97099 
L 213.739275 189.704938 
L 212.923717 189.358937 
L 211.399065 188.704646 
L 209.600258 187.919264 
L 207.154914 186.826581 
" clip-path="url(#p9b4e4cff11)" style="fill: none; stroke: #8e971e"/>
   </g>
   <g id="line2d_79">
    <path d="M 207.154914 185.954959 
L 207.056299 186.008554 
L 206.070145 186.521163 
L 205.035801 187.01305 
L 202.925252 187.872351 
L 200.79519 188.544711 
L 199.875883 188.77532 
" clip-path="url(#p9b4e4cff11)" style="fill: none; stroke: #00a9cc"/>
   </g>
   <g id="line2d_80">
    <path d="M 207.154914 185.521594 
L 207.056299 185.474735 
L 206.070145 185.003732 
L 205.035801 184.504702 
L 202.925252 183.469925 
L 200.79519 182.400291 
L 199.875883 181.92988 
" clip-path="url(#p9b4e4cff11)" style="fill: none; stroke: #9b7fe9"/>
   </g>
   <g id="line2d_81">
    <path d="M 199.875883 190.830416 
L 199.76641 190.832652 
L 198.671672 190.830179 
L 197.565715 190.782684 
L 195.271622 190.547126 
L 192.977528 190.138151 
L 192.596853 190.054506 
" clip-path="url(#p9b4e4cff11)" style="fill: none; stroke: #618df6"/>
   </g>
   <g id="line2d_82">
    <path d="M 199.875883 179.649402 
L 199.76641 179.589433 
L 198.671672 178.986531 
L 197.565715 178.371146 
L 195.271622 177.07329 
L 192.977528 175.743092 
L 192.596853 175.518901 
" clip-path="url(#p9b4e4cff11)" style="fill: none; stroke: #f06073"/>
   </g>
   <g id="line2d_83">
    <path d="M 192.596853 191.985791 
L 192.493845 191.93676 
L 191.463774 191.432576 
L 190.305634 190.836995 
L 188.064674 189.607439 
L 185.716798 188.225114 
L 185.317822 187.981861 
" clip-path="url(#p9b4e4cff11)" style="fill: none; stroke: #dd65b6"/>
   </g>
   <g id="line2d_84">
    <path d="M 192.596853 172.598101 
L 192.493845 172.531571 
L 191.463774 171.863525 
L 190.305634 171.106207 
L 188.064674 169.621104 
L 185.716798 168.035148 
L 185.317822 167.762415 
" clip-path="url(#p9b4e4cff11)" style="fill: none; stroke: #6c9f33"/>
   </g>
   <g id="line2d_85">
    <path d="M 185.317822 189.602858 
L 185.234356 189.531312 
L 184.399695 188.812712 
L 183.229457 187.796708 
L 181.238453 186.051151 
L 178.811029 183.905887 
L 178.038791 183.221534 
" clip-path="url(#p9b4e4cff11)" style="fill: none; stroke: #009afa"/>
   </g>
   <g id="line2d_86">
    <path d="M 185.317822 164.597604 
L 185.234356 164.533598 
L 184.399695 163.892191 
L 183.229457 162.988777 
L 181.238453 161.440857 
L 178.811029 159.536306 
L 178.038791 158.926814 
" clip-path="url(#p9b4e4cff11)" style="fill: none; stroke: #e36f47"/>
   </g>
   <g id="line2d_87">
    <path d="M 178.038791 184.433452 
L 177.982988 184.372596 
L 177.424961 183.764653 
L 176.238578 182.476406 
L 174.627752 180.738468 
L 171.991343 177.928619 
L 170.75976 176.632434 
" clip-path="url(#p9b4e4cff11)" style="fill: none; stroke: #3ea44e"/>
   </g>
   <g id="line2d_88">
    <path d="M 178.038791 155.866021 
L 177.982988 155.81639 
L 177.424961 155.320027 
L 176.238578 154.264699 
L 174.627752 152.833131 
L 171.991343 150.500253 
L 170.75976 149.418092 
" clip-path="url(#p9b4e4cff11)" style="fill: none; stroke: #c371d2"/>
   </g>
   <g id="line2d_89">
    <path d="M 170.75976 177.407261 
L 170.731558 177.373658 
L 170.449531 177.038023 
L 169.386556 175.77973 
L 168.509668 174.749804 
L 166.881509 172.857369 
L 165.253349 170.990875 
L 163.613466 169.137069 
L 163.480729 168.988144 
" clip-path="url(#p9b4e4cff11)" style="fill: none; stroke: #ac8e18"/>
   </g>
   <g id="line2d_90">
    <path d="M 170.75976 146.719993 
L 170.731558 146.692355 
L 170.449531 146.416251 
L 169.386556 145.380508 
L 168.509668 144.532678 
L 166.881509 142.977747 
L 165.253349 141.453174 
L 163.613466 139.955433 
L 163.480729 139.836072 
" clip-path="url(#p9b4e4cff11)" style="fill: none; stroke: #00aaae"/>
   </g>
   <g id="line2d_91">
    <path d="M 163.480729 169.378333 
L 163.463912 169.35795 
L 163.295733 169.154274 
L 162.838198 168.601593 
L 162.325707 167.984987 
L 161.403282 166.881638 
L 160.456144 165.757217 
L 159.128492 164.195154 
L 157.800839 162.648904 
L 156.312139 160.932992 
L 156.201699 160.806411 
" clip-path="url(#p9b4e4cff11)" style="fill: none; stroke: #ed5e93"/>
   </g>
   <g id="line2d_92">
    <path d="M 163.480729 137.614056 
L 163.463912 137.597458 
L 163.295733 137.431765 
L 162.838198 136.983663 
L 162.325707 136.486569 
L 161.403282 135.605624 
L 160.456144 134.720966 
L 159.128492 133.518485 
L 157.800839 132.364644 
L 156.312139 131.135613 
L 156.201699 131.047348 
" clip-path="url(#p9b4e4cff11)" style="fill: none; stroke: #c68225"/>
   </g>
   <g id="line2d_93">
    <path d="M 156.201699 160.906535 
L 156.176442 160.876204 
L 155.923881 160.573168 
L 155.451142 160.007307 
L 154.75425 159.176281 
L 153.720701 157.950454 
L 152.377706 156.368851 
L 150.61655 154.312575 
L 148.922668 152.351853 
" clip-path="url(#p9b4e4cff11)" style="fill: none; stroke: #00a98d"/>
   </g>
   <g id="line2d_94">
    <path d="M 156.201699 129.292877 
L 156.176442 129.271143 
L 155.923881 129.055056 
L 155.451142 128.656832 
L 154.75425 128.085128 
L 153.720701 127.272646 
L 152.377706 126.284361 
L 150.61655 125.113801 
L 148.922668 124.133933 
" clip-path="url(#p9b4e4cff11)" style="fill: none; stroke: #8e971e"/>
   </g>
   <g id="line2d_95">
    <path d="M 148.922668 152.261413 
L 148.850933 152.17623 
L 148.133581 151.325809 
L 147.379916 150.434937 
L 145.810633 148.587934 
L 144.174896 146.672544 
L 141.643637 143.724976 
" clip-path="url(#p9b4e4cff11)" style="fill: none; stroke: #00a9cc"/>
   </g>
   <g id="line2d_96">
    <path d="M 148.922668 122.774253 
L 148.850933 122.733246 
L 148.133581 122.339039 
L 147.379916 121.956571 
L 145.810633 121.269246 
L 144.174896 120.717074 
L 141.643637 120.215496 
" clip-path="url(#p9b4e4cff11)" style="fill: none; stroke: #9b7fe9"/>
   </g>
   <g id="line2d_97">
    <path d="M 141.643637 143.528287 
L 141.536288 143.401119 
L 140.473099 142.142881 
L 139.40991 140.886416 
L 137.216759 138.299041 
L 135.0215 135.711291 
L 134.364606 134.93658 
" clip-path="url(#p9b4e4cff11)" style="fill: none; stroke: #618df6"/>
   </g>
   <g id="line2d_98">
    <path d="M 141.643637 119.160004 
L 141.536288 119.146204 
L 140.473099 119.054823 
L 139.40991 119.046705 
L 137.216759 119.301175 
L 135.0215 119.928941 
L 134.364606 120.189955 
" clip-path="url(#p9b4e4cff11)" style="fill: none; stroke: #f06073"/>
   </g>
   <g id="line2d_99">
    <path d="M 134.364606 134.692825 
L 134.253333 134.559732 
L 133.140597 133.228417 
L 131.993402 131.854614 
L 129.6199 129.007332 
L 127.246398 126.149238 
L 127.085575 125.955028 
" clip-path="url(#p9b4e4cff11)" style="fill: none; stroke: #dd65b6"/>
   </g>
   <g id="line2d_100">
    <path d="M 134.364606 119.359082 
L 134.253333 119.405612 
L 133.140597 119.925802 
L 131.993402 120.566237 
L 129.6199 122.227671 
L 127.246398 124.334027 
L 127.085575 124.492377 
" clip-path="url(#p9b4e4cff11)" style="fill: none; stroke: #6c9f33"/>
   </g>
   <g id="line2d_101">
    <path d="M 127.085575 125.704015 
L 126.972819 125.566342 
L 125.845252 124.187845 
L 124.618367 122.683791 
L 122.196161 119.701207 
L 119.806544 116.738442 
" clip-path="url(#p9b4e4cff11)" style="fill: none; stroke: #009afa"/>
   </g>
   <g id="line2d_102">
    <path d="M 127.085575 123.822994 
L 126.972819 123.934948 
L 125.845252 125.108431 
L 124.618367 126.494468 
L 122.196161 129.555163 
L 119.806544 132.970742 
" clip-path="url(#p9b4e4cff11)" style="fill: none; stroke: #e36f47"/>
   </g>
   <g id="line2d_103">
    <path d="M 119.806544 116.50178 
L 119.692314 116.358366 
L 118.550006 114.921452 
L 117.338719 113.391923 
L 114.939605 110.344739 
L 112.540491 107.272188 
L 112.527514 107.255494 
" clip-path="url(#p9b4e4cff11)" style="fill: none; stroke: #3ea44e"/>
   </g>
   <g id="line2d_104">
    <path d="M 119.806544 132.418788 
L 119.692314 132.591389 
L 118.550006 134.362846 
L 117.338719 136.327919 
L 114.939605 140.46633 
L 112.540491 144.895575 
L 112.527514 144.920232 
" clip-path="url(#p9b4e4cff11)" style="fill: none; stroke: #c371d2"/>
   </g>
   <g id="line2d_105">
    <path d="M 112.527514 107.044276 
L 112.412612 106.895421 
L 111.263591 105.403603 
L 110.114571 103.90569 
L 107.84732 100.93262 
L 105.580069 97.936284 
L 105.248483 97.496101 
" clip-path="url(#p9b4e4cff11)" style="fill: none; stroke: #ac8e18"/>
   </g>
   <g id="line2d_106">
    <path d="M 112.527514 144.455672 
L 112.412612 144.674637 
L 111.263591 146.895219 
L 110.114571 149.16808 
L 107.84732 153.788886 
L 105.580069 158.556114 
L 105.248483 159.262994 
" clip-path="url(#p9b4e4cff11)" style="fill: none; stroke: #00aaae"/>
   </g>
   <g id="line2d_107">
    <path d="M 105.248483 97.315108 
L 105.148859 97.18202 
L 104.222413 95.942329 
L 103.295968 94.698939 
L 101.606134 92.421919 
L 99.916299 90.133673 
L 97.969452 87.4847 
" clip-path="url(#p9b4e4cff11)" style="fill: none; stroke: #ed5e93"/>
   </g>
   <g id="line2d_108">
    <path d="M 105.248483 158.865579 
L 105.148859 159.07872 
L 104.222413 161.07009 
L 103.295968 163.076149 
L 101.606134 166.765385 
L 99.916299 170.480024 
L 97.969452 174.772481 
" clip-path="url(#p9b4e4cff11)" style="fill: none; stroke: #c68225"/>
   </g>
   <g id="line2d_109">
    <path d="M 97.969452 87.334646 
L 97.88275 87.215853 
L 97.015729 86.026629 
L 96.148708 84.83515 
L 94.24714 82.215057 
L 92.27272 79.486325 
L 90.690421 77.295235 
" clip-path="url(#p9b4e4cff11)" style="fill: none; stroke: #00a98d"/>
   </g>
   <g id="line2d_110">
    <path d="M 97.969452 174.429353 
L 97.88275 174.620731 
L 97.015729 176.533559 
L 96.148708 178.443187 
L 94.24714 182.612588 
L 92.27272 186.897472 
L 90.690421 190.286004 
" clip-path="url(#p9b4e4cff11)" style="fill: none; stroke: #8e971e"/>
   </g>
   <g id="line2d_111">
    <path d="M 90.690421 77.174851 
L 90.548573 76.977531 
L 89.257858 75.181431 
L 87.967142 73.384869 
L 85.261829 69.622483 
L 83.41139 67.055898 
" clip-path="url(#p9b4e4cff11)" style="fill: none; stroke: #00a9cc"/>
   </g>
   <g id="line2d_112">
    <path d="M 90.690421 189.990519 
L 90.548573 190.292407 
L 89.257858 193.020546 
L 87.967142 195.710994 
L 85.261829 201.212051 
L 83.41139 204.849945 
" clip-path="url(#p9b4e4cff11)" style="fill: none; stroke: #9b7fe9"/>
   </g>
   <g id="line2d_113">
    <path d="M 83.41139 66.963175 
L 83.265922 66.761115 
L 81.811239 64.744241 
L 80.356557 62.735596 
L 77.264287 58.503087 
L 76.13236 56.9701 
" clip-path="url(#p9b4e4cff11)" style="fill: none; stroke: #618df6"/>
   </g>
   <g id="line2d_114">
    <path d="M 83.41139 204.599827 
L 83.265922 204.881564 
L 81.811239 207.660667 
L 80.356557 210.366591 
L 77.264287 215.862785 
L 76.13236 217.780923 
" clip-path="url(#p9b4e4cff11)" style="fill: none; stroke: #f06073"/>
   </g>
   <g id="line2d_115">
    <path d="M 76.13236 56.902742 
L 75.980195 56.696894 
L 74.45855 54.649587 
L 72.824452 52.47624 
L 69.50091 48.15399 
L 68.853329 47.32969 
" clip-path="url(#p9b4e4cff11)" style="fill: none; stroke: #dd65b6"/>
   </g>
   <g id="line2d_116">
    <path d="M 76.13236 217.578516 
L 75.980195 217.83287 
L 74.45855 220.325387 
L 72.824452 222.896229 
L 69.50091 227.781423 
L 68.853329 228.677553 
" clip-path="url(#p9b4e4cff11)" style="fill: none; stroke: #6c9f33"/>
   </g>
   <g id="line2d_117">
    <path d="M 68.853329 47.285755 
L 68.693323 47.082648 
L 67.093264 45.074484 
L 65.279745 42.85321 
L 61.710469 38.679823 
L 61.574298 38.526429 
" clip-path="url(#p9b4e4cff11)" style="fill: none; stroke: #009afa"/>
   </g>
   <g id="line2d_118">
    <path d="M 68.853329 228.529549 
L 68.693323 228.748543 
L 67.093264 230.878303 
L 65.279745 233.158799 
L 61.710469 237.236966 
L 61.574298 237.381592 
" clip-path="url(#p9b4e4cff11)" style="fill: none; stroke: #e36f47"/>
   </g>
   <g id="line2d_119">
    <path d="M 61.574298 38.50464 
L 61.406389 38.315871 
L 59.727299 36.468227 
L 57.721256 34.363239 
L 54.295267 31.06042 
" clip-path="url(#p9b4e4cff11)" style="fill: none; stroke: #3ea44e"/>
   </g>
   <g id="line2d_120">
    <path d="M 61.574298 237.299331 
L 61.406389 237.476813 
L 59.727299 239.186489 
L 57.721256 241.074468 
L 54.295267 243.91958 
" clip-path="url(#p9b4e4cff11)" style="fill: none; stroke: #c371d2"/>
   </g>
  </g>
 </g>
 <defs>
  <clipPath id="p9b4e4cff11">
   <rect x="43.376721" y="24.674646" width="385.788633" height="225.630709"/>
  </clipPath>
 </defs>
</svg>
