<?xml version="1.0" encoding="utf-8" standalone="no"?>
<!DOCTYPE svg PUBLIC "-//W3C//DTD SVG 1.1//EN"
  "http://www.w3.org/Graphics/SVG/1.1/DTD/svg11.dtd">
<svg xmlns:xlink="http://www.w3.org/1999/xlink" width="288pt" height="252pt" viewBox="0 0 288 252" xmlns="http://www.w3.org/2000/svg" version="1.1">
 <metadata>
  <rdf:RDF xmlns:dc="http://purl.org/dc/elements/1.1/" xmlns:cc="http://creativecommons.org/ns#" xmlns:rdf="http://www.w3.org/1999/02/22-rdf-syntax-ns#">
   <cc:Work>
    <dc:type rdf:resource="http://purl.org/dc/dcmitype/StillImage"/>
    <dc:date>2023-02-06T14:02:55.603487</dc:date>
    <dc:format>image/svg+xml</dc:format>
    <dc:creator>
     <cc:Agent>
      <dc:title>Matplotlib v3.5.3, https://matplotlib.org/</dc:title>
     </cc:Agent>
    </dc:creator>
   </cc:Work>
  </rdf:RDF>
 </metadata>
 <defs>
  <style type="text/css">*{stroke-linejoin: round; stroke-linecap: butt}</style>
 </defs>
 <g id="figure_1">
  <g id="patch_1">
   <path d="M 0 252 
L 288 252 
L 288 0 
L 0 0 
z
" style="fill: #ffffff"/>
  </g>
  <g id="axes_1">
   <g id="patch_2">
    <path d="M 44.970495 108.255354 
L 285.165354 108.255354 
L 285.165354 2.834646 
L 44.970495 2.834646 
z
" style="fill: #ffffff"/>
   </g>
   <g id="PathCollection_1">
    <defs>
     <path id="m348f0352f4" d="M -2 2 
L 2 2 
L 2 -2 
L -2 -2 
z
"/>
    </defs>
    <g clip-path="url(#p90adbf5832)">
     <use xlink:href="#m348f0352f4" x="51.768463" y="89.487731" style="fill: #00008b"/>
     <use xlink:href="#m348f0352f4" x="97.088248" y="66.288751" style="fill: #00008b"/>
     <use xlink:href="#m348f0352f4" x="142.408032" y="6.216426" style="fill: #00008b"/>
     <use xlink:href="#m348f0352f4" x="187.727817" y="98.034306" style="fill: #00008b"/>
     <use xlink:href="#m348f0352f4" x="233.047602" y="81.25773" style="fill: #00008b"/>
     <use xlink:href="#m348f0352f4" x="278.367387" y="10.87728" style="fill: #00008b"/>
    </g>
   </g>
   <g id="matplotlib.axis_1">
    <g id="xtick_1">
     <g id="line2d_1">
      <defs>
       <path id="m30fff52c85" d="M 0 0 
L 0 -2.5 
" style="stroke: #000000; stroke-width: 0.5"/>
      </defs>
      <g>
       <use xlink:href="#m30fff52c85" x="51.768463" y="108.255354" style="stroke: #000000; stroke-width: 0.5"/>
      </g>
     </g>
     <g id="line2d_2">
      <defs>
       <path id="m7b19ca089c" d="M 0 0 
L 0 2.5 
" style="stroke: #000000; stroke-width: 0.5"/>
      </defs>
      <g>
       <use xlink:href="#m7b19ca089c" x="51.768463" y="2.834646" style="stroke: #000000; stroke-width: 0.5"/>
      </g>
     </g>
    </g>
    <g id="xtick_2">
     <g id="line2d_3">
      <g>
       <use xlink:href="#m30fff52c85" x="97.088248" y="108.255354" style="stroke: #000000; stroke-width: 0.5"/>
      </g>
     </g>
     <g id="line2d_4">
      <g>
       <use xlink:href="#m7b19ca089c" x="97.088248" y="2.834646" style="stroke: #000000; stroke-width: 0.5"/>
      </g>
     </g>
    </g>
    <g id="xtick_3">
     <g id="line2d_5">
      <g>
       <use xlink:href="#m30fff52c85" x="142.408032" y="108.255354" style="stroke: #000000; stroke-width: 0.5"/>
      </g>
     </g>
     <g id="line2d_6">
      <g>
       <use xlink:href="#m7b19ca089c" x="142.408032" y="2.834646" style="stroke: #000000; stroke-width: 0.5"/>
      </g>
     </g>
    </g>
    <g id="xtick_4">
     <g id="line2d_7">
      <g>
       <use xlink:href="#m30fff52c85" x="187.727817" y="108.255354" style="stroke: #000000; stroke-width: 0.5"/>
      </g>
     </g>
     <g id="line2d_8">
      <g>
       <use xlink:href="#m7b19ca089c" x="187.727817" y="2.834646" style="stroke: #000000; stroke-width: 0.5"/>
      </g>
     </g>
    </g>
    <g id="xtick_5">
     <g id="line2d_9">
      <g>
       <use xlink:href="#m30fff52c85" x="233.047602" y="108.255354" style="stroke: #000000; stroke-width: 0.5"/>
      </g>
     </g>
     <g id="line2d_10">
      <g>
       <use xlink:href="#m7b19ca089c" x="233.047602" y="2.834646" style="stroke: #000000; stroke-width: 0.5"/>
      </g>
     </g>
    </g>
    <g id="xtick_6">
     <g id="line2d_11">
      <g>
       <use xlink:href="#m30fff52c85" x="278.367387" y="108.255354" style="stroke: #000000; stroke-width: 0.5"/>
      </g>
     </g>
     <g id="line2d_12">
      <g>
       <use xlink:href="#m7b19ca089c" x="278.367387" y="2.834646" style="stroke: #000000; stroke-width: 0.5"/>
      </g>
     </g>
    </g>
   </g>
   <g id="matplotlib.axis_2">
    <g id="ytick_1">
     <g id="line2d_13">
      <defs>
       <path id="md7fcb5a73b" d="M 0 0 
L 2.5 0 
" style="stroke: #000000; stroke-width: 0.5"/>
      </defs>
      <g>
       <use xlink:href="#md7fcb5a73b" x="44.970495" y="93.337931" style="stroke: #000000; stroke-width: 0.5"/>
      </g>
     </g>
     <g id="line2d_14">
      <defs>
       <path id="m16610507ab" d="M 0 0 
L -2.5 0 
" style="stroke: #000000; stroke-width: 0.5"/>
      </defs>
      <g>
       <use xlink:href="#m16610507ab" x="285.165354" y="93.337931" style="stroke: #000000; stroke-width: 0.5"/>
      </g>
     </g>
     <g id="text_1">
      <!-- $1$ -->
      <g transform="translate(34.430495 97.517071)scale(0.11 -0.11)">
       <defs>
        <path id="DejaVuSans-31" d="M 794 531 
L 1825 531 
L 1825 4091 
L 703 3866 
L 703 4441 
L 1819 4666 
L 2450 4666 
L 2450 531 
L 3481 531 
L 3481 0 
L 794 0 
L 794 531 
z
" transform="scale(0.015625)"/>
       </defs>
       <use xlink:href="#DejaVuSans-31" transform="translate(0 0.09375)"/>
      </g>
     </g>
    </g>
    <g id="ytick_2">
     <g id="line2d_15">
      <g>
       <use xlink:href="#md7fcb5a73b" x="44.970495" y="77.691172" style="stroke: #000000; stroke-width: 0.5"/>
      </g>
     </g>
     <g id="line2d_16">
      <g>
       <use xlink:href="#m16610507ab" x="285.165354" y="77.691172" style="stroke: #000000; stroke-width: 0.5"/>
      </g>
     </g>
     <g id="text_2">
      <!-- $2$ -->
      <g transform="translate(34.430495 81.870312)scale(0.11 -0.11)">
       <defs>
        <path id="DejaVuSans-32" d="M 1228 531 
L 3431 531 
L 3431 0 
L 469 0 
L 469 531 
Q 828 903 1448 1529 
Q 2069 2156 2228 2338 
Q 2531 2678 2651 2914 
Q 2772 3150 2772 3378 
Q 2772 3750 2511 3984 
Q 2250 4219 1831 4219 
Q 1534 4219 1204 4116 
Q 875 4013 500 3803 
L 500 4441 
Q 881 4594 1212 4672 
Q 1544 4750 1819 4750 
Q 2544 4750 2975 4387 
Q 3406 4025 3406 3419 
Q 3406 3131 3298 2873 
Q 3191 2616 2906 2266 
Q 2828 2175 2409 1742 
Q 1991 1309 1228 531 
z
" transform="scale(0.015625)"/>
       </defs>
       <use xlink:href="#DejaVuSans-32" transform="translate(0 0.78125)"/>
      </g>
     </g>
    </g>
    <g id="ytick_3">
     <g id="line2d_17">
      <g>
       <use xlink:href="#md7fcb5a73b" x="44.970495" y="62.044412" style="stroke: #000000; stroke-width: 0.5"/>
      </g>
     </g>
     <g id="line2d_18">
      <g>
       <use xlink:href="#m16610507ab" x="285.165354" y="62.044412" style="stroke: #000000; stroke-width: 0.5"/>
      </g>
     </g>
     <g id="text_3">
      <!-- $3$ -->
      <g transform="translate(34.430495 66.223553)scale(0.11 -0.11)">
       <defs>
        <path id="DejaVuSans-33" d="M 2597 2516 
Q 3050 2419 3304 2112 
Q 3559 1806 3559 1356 
Q 3559 666 3084 287 
Q 2609 -91 1734 -91 
Q 1441 -91 1130 -33 
Q 819 25 488 141 
L 488 750 
Q 750 597 1062 519 
Q 1375 441 1716 441 
Q 2309 441 2620 675 
Q 2931 909 2931 1356 
Q 2931 1769 2642 2001 
Q 2353 2234 1838 2234 
L 1294 2234 
L 1294 2753 
L 1863 2753 
Q 2328 2753 2575 2939 
Q 2822 3125 2822 3475 
Q 2822 3834 2567 4026 
Q 2313 4219 1838 4219 
Q 1578 4219 1281 4162 
Q 984 4106 628 3988 
L 628 4550 
Q 988 4650 1302 4700 
Q 1616 4750 1894 4750 
Q 2613 4750 3031 4423 
Q 3450 4097 3450 3541 
Q 3450 3153 3228 2886 
Q 3006 2619 2597 2516 
z
" transform="scale(0.015625)"/>
       </defs>
       <use xlink:href="#DejaVuSans-33" transform="translate(0 0.78125)"/>
      </g>
     </g>
    </g>
    <g id="ytick_4">
     <g id="line2d_19">
      <g>
       <use xlink:href="#md7fcb5a73b" x="44.970495" y="46.397653" style="stroke: #000000; stroke-width: 0.5"/>
      </g>
     </g>
     <g id="line2d_20">
      <g>
       <use xlink:href="#m16610507ab" x="285.165354" y="46.397653" style="stroke: #000000; stroke-width: 0.5"/>
      </g>
     </g>
     <g id="text_4">
      <!-- $4$ -->
      <g transform="translate(34.430495 50.576794)scale(0.11 -0.11)">
       <defs>
        <path id="DejaVuSans-34" d="M 2419 4116 
L 825 1625 
L 2419 1625 
L 2419 4116 
z
M 2253 4666 
L 3047 4666 
L 3047 1625 
L 3713 1625 
L 3713 1100 
L 3047 1100 
L 3047 0 
L 2419 0 
L 2419 1100 
L 313 1100 
L 313 1709 
L 2253 4666 
z
" transform="scale(0.015625)"/>
       </defs>
       <use xlink:href="#DejaVuSans-34" transform="translate(0 0.09375)"/>
      </g>
     </g>
    </g>
    <g id="ytick_5">
     <g id="line2d_21">
      <g>
       <use xlink:href="#md7fcb5a73b" x="44.970495" y="30.750894" style="stroke: #000000; stroke-width: 0.5"/>
      </g>
     </g>
     <g id="line2d_22">
      <g>
       <use xlink:href="#m16610507ab" x="285.165354" y="30.750894" style="stroke: #000000; stroke-width: 0.5"/>
      </g>
     </g>
     <g id="text_5">
      <!-- $5$ -->
      <g transform="translate(34.430495 34.930034)scale(0.11 -0.11)">
       <defs>
        <path id="DejaVuSans-35" d="M 691 4666 
L 3169 4666 
L 3169 4134 
L 1269 4134 
L 1269 2991 
Q 1406 3038 1543 3061 
Q 1681 3084 1819 3084 
Q 2600 3084 3056 2656 
Q 3513 2228 3513 1497 
Q 3513 744 3044 326 
Q 2575 -91 1722 -91 
Q 1428 -91 1123 -41 
Q 819 9 494 109 
L 494 744 
Q 775 591 1075 516 
Q 1375 441 1709 441 
Q 2250 441 2565 725 
Q 2881 1009 2881 1497 
Q 2881 1984 2565 2268 
Q 2250 2553 1709 2553 
Q 1456 2553 1204 2497 
Q 953 2441 691 2322 
L 691 4666 
z
" transform="scale(0.015625)"/>
       </defs>
       <use xlink:href="#DejaVuSans-35" transform="translate(0 0.09375)"/>
      </g>
     </g>
    </g>
    <g id="ytick_6">
     <g id="line2d_23">
      <g>
       <use xlink:href="#md7fcb5a73b" x="44.970495" y="15.104134" style="stroke: #000000; stroke-width: 0.5"/>
      </g>
     </g>
     <g id="line2d_24">
      <g>
       <use xlink:href="#m16610507ab" x="285.165354" y="15.104134" style="stroke: #000000; stroke-width: 0.5"/>
      </g>
     </g>
     <g id="text_6">
      <!-- $6$ -->
      <g transform="translate(34.430495 19.283275)scale(0.11 -0.11)">
       <defs>
        <path id="DejaVuSans-36" d="M 2113 2584 
Q 1688 2584 1439 2293 
Q 1191 2003 1191 1497 
Q 1191 994 1439 701 
Q 1688 409 2113 409 
Q 2538 409 2786 701 
Q 3034 994 3034 1497 
Q 3034 2003 2786 2293 
Q 2538 2584 2113 2584 
z
M 3366 4563 
L 3366 3988 
Q 3128 4100 2886 4159 
Q 2644 4219 2406 4219 
Q 1781 4219 1451 3797 
Q 1122 3375 1075 2522 
Q 1259 2794 1537 2939 
Q 1816 3084 2150 3084 
Q 2853 3084 3261 2657 
Q 3669 2231 3669 1497 
Q 3669 778 3244 343 
Q 2819 -91 2113 -91 
Q 1303 -91 875 529 
Q 447 1150 447 2328 
Q 447 3434 972 4092 
Q 1497 4750 2381 4750 
Q 2619 4750 2861 4703 
Q 3103 4656 3366 4563 
z
" transform="scale(0.015625)"/>
       </defs>
       <use xlink:href="#DejaVuSans-36" transform="translate(0 0.78125)"/>
      </g>
     </g>
    </g>
    <g id="text_7">
     <!-- u(t) -->
     <g transform="translate(28.142839 65.478516)rotate(-90)scale(0.11 -0.11)">
      <defs>
       <path id="DejaVuSans-75" d="M 544 1381 
L 544 3500 
L 1119 3500 
L 1119 1403 
Q 1119 906 1312 657 
Q 1506 409 1894 409 
Q 2359 409 2629 706 
Q 2900 1003 2900 1516 
L 2900 3500 
L 3475 3500 
L 3475 0 
L 2900 0 
L 2900 538 
Q 2691 219 2414 64 
Q 2138 -91 1772 -91 
Q 1169 -91 856 284 
Q 544 659 544 1381 
z
M 1991 3584 
L 1991 3584 
z
" transform="scale(0.015625)"/>
       <path id="DejaVuSans-28" d="M 1984 4856 
Q 1566 4138 1362 3434 
Q 1159 2731 1159 2009 
Q 1159 1288 1364 580 
Q 1569 -128 1984 -844 
L 1484 -844 
Q 1016 -109 783 600 
Q 550 1309 550 2009 
Q 550 2706 781 3412 
Q 1013 4119 1484 4856 
L 1984 4856 
z
" transform="scale(0.015625)"/>
       <path id="DejaVuSans-74" d="M 1172 4494 
L 1172 3500 
L 2356 3500 
L 2356 3053 
L 1172 3053 
L 1172 1153 
Q 1172 725 1289 603 
Q 1406 481 1766 481 
L 2356 481 
L 2356 0 
L 1766 0 
Q 1100 0 847 248 
Q 594 497 594 1153 
L 594 3053 
L 172 3053 
L 172 3500 
L 594 3500 
L 594 4494 
L 1172 4494 
z
" transform="scale(0.015625)"/>
       <path id="DejaVuSans-29" d="M 513 4856 
L 1013 4856 
Q 1481 4119 1714 3412 
Q 1947 2706 1947 2009 
Q 1947 1309 1714 600 
Q 1481 -109 1013 -844 
L 513 -844 
Q 928 -128 1133 580 
Q 1338 1288 1338 2009 
Q 1338 2731 1133 3434 
Q 928 4138 513 4856 
z
" transform="scale(0.015625)"/>
      </defs>
      <use xlink:href="#DejaVuSans-75"/>
      <use xlink:href="#DejaVuSans-28" x="63.378906"/>
      <use xlink:href="#DejaVuSans-74" x="102.392578"/>
      <use xlink:href="#DejaVuSans-29" x="141.601562"/>
     </g>
    </g>
   </g>
   <g id="PathCollection_2">
    <defs>
     <path id="m735e1781ee" d="M -2 2 
L 2 2 
L 2 -2 
L -2 -2 
z
"/>
    </defs>
    <g clip-path="url(#p90adbf5832)">
     <use xlink:href="#m735e1781ee" x="51.768463" y="93.53862" style="fill: #cc0000"/>
     <use xlink:href="#m735e1781ee" x="97.088248" y="104.333349" style="fill: #cc0000"/>
     <use xlink:href="#m735e1781ee" x="142.408032" y="77.699487" style="fill: #cc0000"/>
     <use xlink:href="#m735e1781ee" x="187.727817" y="79.543418" style="fill: #cc0000"/>
     <use xlink:href="#m735e1781ee" x="233.047602" y="104.188644" style="fill: #cc0000"/>
     <use xlink:href="#m735e1781ee" x="278.367387" y="99.473108" style="fill: #cc0000"/>
    </g>
   </g>
   <g id="patch_3">
    <path d="M 44.970495 108.255354 
L 44.970495 2.834646 
" style="fill: none; stroke: #000000; stroke-linejoin: miter; stroke-linecap: square"/>
   </g>
   <g id="patch_4">
    <path d="M 285.165354 108.255354 
L 285.165354 2.834646 
" style="fill: none; stroke: #000000; stroke-linejoin: miter; stroke-linecap: square"/>
   </g>
   <g id="patch_5">
    <path d="M 44.970495 108.255354 
L 285.165354 108.255354 
" style="fill: none; stroke: #000000; stroke-linejoin: miter; stroke-linecap: square"/>
   </g>
   <g id="patch_6">
    <path d="M 44.970495 2.834646 
L 285.165354 2.834646 
" style="fill: none; stroke: #000000; stroke-linejoin: miter; stroke-linecap: square"/>
   </g>
   <g id="line2d_25">
    <path d="M 278.367387 72.468179 
L 278.3669 72.467098 
L 278.362039 72.456285 
L 278.33133 72.387962 
L 278.295219 72.307585 
L 278.217215 72.133833 
L 278.127967 71.934833 
L 277.986783 71.619632 
L 277.835012 71.280316 
L 277.64211 70.848452 
L 277.442748 70.401609 
L 277.233699 69.932703 
L 276.976141 69.354833 
L 276.645679 68.613813 
L 276.246872 67.721446 
L 275.753087 66.621913 
L 275.161149 65.316086 
L 274.442924 63.757725 
L 273.587549 61.953089 
L 272.563655 59.890036 
L 271.352914 57.625082 
L 269.922853 55.250202 
L 268.257328 52.968304 
L 266.342425 51.064778 
L 264.193967 49.88871 
L 261.838232 49.727264 
L 259.313554 50.713352 
L 256.655626 52.791848 
L 253.943762 55.706408 
L 251.231897 59.129915 
L 249.115826 61.995707 
L 245.905651 66.445093 
L 242.695477 70.819101 
L 238.981693 75.59338 
L 235.079883 80.153364 
L 233.047602 82.322485 
" clip-path="url(#p90adbf5832)" style="fill: none; stroke: #00008b"/>
   </g>
   <g id="line2d_26">
    <path d="M 278.367387 15.296445 
L 278.3669 15.297537 
L 278.362039 15.30846 
L 278.33133 15.377603 
L 278.295219 15.459212 
L 278.217215 15.636606 
L 278.127967 15.841426 
L 277.986783 16.169448 
L 277.835012 16.527497 
L 277.64211 16.990605 
L 277.442748 17.47851 
L 277.233699 18.000087 
L 276.976141 18.656429 
L 276.645679 19.520163 
L 276.246872 20.59369 
L 275.753087 21.967722 
L 275.161149 23.675733 
L 274.442924 25.828567 
L 273.587549 28.491564 
L 272.563655 31.791774 
L 271.352914 35.802016 
L 269.922853 40.605363 
L 268.257328 46.163126 
L 266.342425 52.332629 
L 264.193967 58.781813 
L 261.838232 65.114531 
L 259.313554 70.958813 
L 256.655626 76.075138 
L 253.943762 80.301665 
L 251.231897 83.667287 
L 249.115826 85.790938 
L 245.905651 88.324918 
L 242.695477 90.19588 
L 238.981693 91.72537 
L 235.079883 92.771741 
L 233.047602 93.1345 
" clip-path="url(#p90adbf5832)" style="fill: none; stroke: #cc0000"/>
   </g>
   <g id="line2d_27">
    <path d="M 233.047602 82.321738 
L 232.953023 82.419341 
L 232.00723 83.378241 
L 230.991996 84.372989 
L 228.928171 86.286571 
L 226.781372 88.126378 
L 223.466514 90.681324 
L 220.069748 92.965632 
L 215.740736 95.440797 
L 211.411724 97.490841 
L 205.479523 99.727197 
L 199.547323 101.428936 
L 193.078562 102.810922 
L 187.727817 103.661068 
" clip-path="url(#p90adbf5832)" style="fill: none; stroke: #00008b"/>
   </g>
   <g id="line2d_28">
    <path d="M 233.047602 93.184495 
L 232.953023 93.198668 
L 232.00723 93.328225 
L 230.991996 93.443573 
L 228.928171 93.607849 
L 226.781372 93.686981 
L 223.466514 93.645272 
L 220.069748 93.416438 
L 215.740736 92.878526 
L 211.411724 92.081798 
L 205.479523 90.585438 
L 199.547323 88.611787 
L 193.078562 85.882421 
L 187.727817 83.12677 
" clip-path="url(#p90adbf5832)" style="fill: none; stroke: #cc0000"/>
   </g>
   <g id="line2d_29">
    <path d="M 187.727817 103.676711 
L 187.605615 103.693481 
L 186.383595 103.855218 
L 185.124113 104.010935 
L 182.595788 104.291706 
L 180.067463 104.532873 
L 176.409527 104.817178 
L 172.75159 105.030884 
L 168.487777 105.195856 
L 164.223964 105.271749 
L 159.937487 105.254035 
L 155.65101 105.130395 
L 152.353609 104.949903 
L 149.568898 104.727343 
L 146.784187 104.42669 
L 143.999477 104.030005 
L 142.408032 103.751132 
" clip-path="url(#p90adbf5832)" style="fill: none; stroke: #00008b"/>
   </g>
   <g id="line2d_30">
    <path d="M 187.727817 83.160762 
L 187.605615 83.092199 
L 186.383595 82.392201 
L 185.124113 81.642937 
L 182.595788 80.050912 
L 180.067463 78.336609 
L 176.409527 75.627517 
L 172.75159 72.63049 
L 168.487777 68.747282 
L 164.223964 64.415631 
L 159.937487 59.581514 
L 155.65101 54.246927 
L 152.353609 49.799123 
L 149.568898 45.814896 
L 146.784187 41.63407 
L 143.999477 37.278182 
L 142.408032 34.722822 
" clip-path="url(#p90adbf5832)" style="fill: none; stroke: #cc0000"/>
   </g>
   <g id="line2d_31">
    <path d="M 142.408032 103.728372 
L 142.338239 103.715133 
L 141.64031 103.577904 
L 140.934988 103.429876 
L 139.466885 103.088997 
L 137.998781 102.698752 
L 135.752642 101.98993 
L 133.506504 101.118665 
L 130.66088 99.722466 
L 127.815256 97.910499 
L 124.625407 95.241784 
L 121.435558 91.722801 
L 118.171421 87.066348 
L 114.907285 81.262988 
L 111.643148 74.461046 
L 108.379012 67.156228 
L 104.637154 59.248756 
L 100.502193 52.721955 
L 97.608841 50.226761 
L 97.088248 49.975987 
" clip-path="url(#p90adbf5832)" style="fill: none; stroke: #00008b"/>
   </g>
   <g id="line2d_32">
    <path d="M 142.408032 34.785903 
L 142.338239 34.673177 
L 141.64031 33.542207 
L 140.934988 32.393042 
L 139.466885 29.985731 
L 137.998781 27.566663 
L 135.752642 23.873715 
L 133.506504 20.243527 
L 130.66088 15.858048 
L 127.815256 11.904564 
L 124.625407 8.324856 
L 121.435558 6.10661 
L 118.171421 5.818251 
L 114.907285 8.085809 
L 111.643148 13.242031 
L 108.379012 21.163227 
L 104.637154 32.721642 
L 100.502193 46.559255 
L 97.608841 55.723772 
L 97.088248 57.273171 
" clip-path="url(#p90adbf5832)" style="fill: none; stroke: #cc0000"/>
   </g>
   <g id="line2d_33">
    <path d="M 97.088248 50.055318 
L 97.061431 50.043825 
L 96.793264 49.93751 
L 96.456092 49.825954 
L 95.961687 49.706374 
L 95.216487 49.622868 
L 94.052477 49.715626 
L 92.490263 50.236461 
L 90.396791 51.554862 
L 87.966953 53.797999 
L 85.213546 56.993822 
L 82.258807 60.880996 
L 79.078598 65.278687 
L 75.755341 69.845702 
L 72.294173 74.375621 
L 68.801797 78.59384 
L 65.309421 82.402542 
L 61.817045 85.789036 
L 59.061187 88.171046 
L 56.30533 90.311374 
L 53.549472 92.226368 
L 51.768463 93.352247 
" clip-path="url(#p90adbf5832)" style="fill: none; stroke: #00008b"/>
   </g>
   <g id="line2d_34">
    <path d="M 97.088248 57.170365 
L 97.061431 57.249198 
L 96.793264 58.032161 
L 96.456092 59.002508 
L 95.961687 60.396166 
L 95.216487 62.429069 
L 94.052477 65.436013 
L 92.490263 69.141657 
L 90.396791 73.519489 
L 87.966953 77.80427 
L 85.213546 81.739618 
L 82.258807 85.046725 
L 79.078598 87.7523 
L 75.755341 89.839549 
L 72.294173 91.394362 
L 68.801797 92.470016 
L 65.309421 93.158698 
L 61.817045 93.53746 
L 59.061187 93.653182 
L 56.30533 93.628749 
L 53.549472 93.47809 
L 51.768463 93.318194 
" clip-path="url(#p90adbf5832)" style="fill: none; stroke: #cc0000"/>
   </g>
   <g id="line2d_35">
    <path d="M 278.3669 72.467098 
L 278.367387 72.468179 
" clip-path="url(#p90adbf5832)" style="fill: none; stroke: #00008b"/>
   </g>
   <g id="line2d_36">
    <path d="M 278.3669 15.297537 
L 278.367387 15.296445 
" clip-path="url(#p90adbf5832)" style="fill: none; stroke: #cc0000"/>
   </g>
   <g id="patch_7">
    <path d="M 278.643228 65.765649 
Q 278.505307 69.116914 278.367387 72.468179 
Q 275.769127 70.347083 273.170867 68.225988 
z
" style="fill: #00008b; stroke: #00008b; stroke-linecap: round"/>
   </g>
   <g id="patch_8">
    <path d="M 273.186605 19.557841 
Q 275.776996 17.427143 278.367387 15.296445 
Q 278.517711 18.647176 278.668035 21.997908 
z
" style="fill: #cc0000; stroke: #cc0000; stroke-linecap: round"/>
   </g>
   <g id="text_8">
    <!-- State -->
    <g transform="translate(249.250043 2.492688)scale(0.11 -0.11)">
     <defs>
      <path id="DejaVuSans-53" d="M 3425 4513 
L 3425 3897 
Q 3066 4069 2747 4153 
Q 2428 4238 2131 4238 
Q 1616 4238 1336 4038 
Q 1056 3838 1056 3469 
Q 1056 3159 1242 3001 
Q 1428 2844 1947 2747 
L 2328 2669 
Q 3034 2534 3370 2195 
Q 3706 1856 3706 1288 
Q 3706 609 3251 259 
Q 2797 -91 1919 -91 
Q 1588 -91 1214 -16 
Q 841 59 441 206 
L 441 856 
Q 825 641 1194 531 
Q 1563 422 1919 422 
Q 2459 422 2753 634 
Q 3047 847 3047 1241 
Q 3047 1584 2836 1778 
Q 2625 1972 2144 2069 
L 1759 2144 
Q 1053 2284 737 2584 
Q 422 2884 422 3419 
Q 422 4038 858 4394 
Q 1294 4750 2059 4750 
Q 2388 4750 2728 4690 
Q 3069 4631 3425 4513 
z
" transform="scale(0.015625)"/>
      <path id="DejaVuSans-61" d="M 2194 1759 
Q 1497 1759 1228 1600 
Q 959 1441 959 1056 
Q 959 750 1161 570 
Q 1363 391 1709 391 
Q 2188 391 2477 730 
Q 2766 1069 2766 1631 
L 2766 1759 
L 2194 1759 
z
M 3341 1997 
L 3341 0 
L 2766 0 
L 2766 531 
Q 2569 213 2275 61 
Q 1981 -91 1556 -91 
Q 1019 -91 701 211 
Q 384 513 384 1019 
Q 384 1609 779 1909 
Q 1175 2209 1959 2209 
L 2766 2209 
L 2766 2266 
Q 2766 2663 2505 2880 
Q 2244 3097 1772 3097 
Q 1472 3097 1187 3025 
Q 903 2953 641 2809 
L 641 3341 
Q 956 3463 1253 3523 
Q 1550 3584 1831 3584 
Q 2591 3584 2966 3190 
Q 3341 2797 3341 1997 
z
" transform="scale(0.015625)"/>
      <path id="DejaVuSans-65" d="M 3597 1894 
L 3597 1613 
L 953 1613 
Q 991 1019 1311 708 
Q 1631 397 2203 397 
Q 2534 397 2845 478 
Q 3156 559 3463 722 
L 3463 178 
Q 3153 47 2828 -22 
Q 2503 -91 2169 -91 
Q 1331 -91 842 396 
Q 353 884 353 1716 
Q 353 2575 817 3079 
Q 1281 3584 2069 3584 
Q 2775 3584 3186 3129 
Q 3597 2675 3597 1894 
z
M 3022 2063 
Q 3016 2534 2758 2815 
Q 2500 3097 2075 3097 
Q 1594 3097 1305 2825 
Q 1016 2553 972 2059 
L 3022 2063 
z
" transform="scale(0.015625)"/>
     </defs>
     <use xlink:href="#DejaVuSans-53"/>
     <use xlink:href="#DejaVuSans-74" x="63.476562"/>
     <use xlink:href="#DejaVuSans-61" x="102.685547"/>
     <use xlink:href="#DejaVuSans-74" x="163.964844"/>
     <use xlink:href="#DejaVuSans-65" x="203.173828"/>
    </g>
   </g>
  </g>
  <g id="axes_2">
   <g id="patch_9">
    <path d="M 44.970495 219.345354 
L 285.165354 219.345354 
L 285.165354 113.924646 
L 44.970495 113.924646 
z
" style="fill: #ffffff"/>
   </g>
   <g id="line2d_37">
    <path d="M 278.367387 174.116137 
L 278.3669 174.115395 
L 278.362039 174.10798 
L 278.33133 174.06119 
L 278.295219 174.006277 
L 278.217215 173.888061 
L 278.127967 173.753473 
L 277.986783 173.54202 
L 277.835012 173.316684 
L 277.64211 173.033205 
L 277.442748 172.743641 
L 277.233699 172.443688 
L 276.976141 172.079254 
L 276.645679 171.619823 
L 276.246872 171.077358 
L 275.753087 170.423437 
L 275.161149 169.66462 
L 274.442924 168.779279 
L 273.587549 167.773104 
L 272.563655 166.633632 
L 271.352914 165.370918 
L 269.922853 163.987142 
L 268.257328 162.506446 
L 266.342425 160.955184 
L 264.193967 159.37706 
L 261.838232 157.808313 
L 259.313554 156.276412 
L 256.655626 154.792949 
L 253.943762 153.382261 
L 251.231897 152.048183 
L 249.115826 151.044027 
L 245.905651 149.575384 
L 242.695477 148.145849 
L 238.981693 146.524762 
L 235.079883 144.842855 
L 233.047602 143.971063 
" clip-path="url(#p09c1ce5079)" style="fill: none; stroke: #00008b"/>
   </g>
   <g id="matplotlib.axis_3">
    <g id="xtick_7">
     <g id="line2d_38">
      <g>
       <use xlink:href="#m30fff52c85" x="51.768463" y="219.345354" style="stroke: #000000; stroke-width: 0.5"/>
      </g>
     </g>
     <g id="line2d_39">
      <g>
       <use xlink:href="#m7b19ca089c" x="51.768463" y="113.924646" style="stroke: #000000; stroke-width: 0.5"/>
      </g>
     </g>
     <g id="text_9">
      <!-- $0$ -->
      <g transform="translate(48.248463 231.203636)scale(0.11 -0.11)">
       <defs>
        <path id="DejaVuSans-30" d="M 2034 4250 
Q 1547 4250 1301 3770 
Q 1056 3291 1056 2328 
Q 1056 1369 1301 889 
Q 1547 409 2034 409 
Q 2525 409 2770 889 
Q 3016 1369 3016 2328 
Q 3016 3291 2770 3770 
Q 2525 4250 2034 4250 
z
M 2034 4750 
Q 2819 4750 3233 4129 
Q 3647 3509 3647 2328 
Q 3647 1150 3233 529 
Q 2819 -91 2034 -91 
Q 1250 -91 836 529 
Q 422 1150 422 2328 
Q 422 3509 836 4129 
Q 1250 4750 2034 4750 
z
" transform="scale(0.015625)"/>
       </defs>
       <use xlink:href="#DejaVuSans-30" transform="translate(0 0.78125)"/>
      </g>
     </g>
    </g>
    <g id="xtick_8">
     <g id="line2d_40">
      <g>
       <use xlink:href="#m30fff52c85" x="97.088248" y="219.345354" style="stroke: #000000; stroke-width: 0.5"/>
      </g>
     </g>
     <g id="line2d_41">
      <g>
       <use xlink:href="#m7b19ca089c" x="97.088248" y="113.924646" style="stroke: #000000; stroke-width: 0.5"/>
      </g>
     </g>
     <g id="text_10">
      <!-- $1$ -->
      <g transform="translate(93.568248 231.203636)scale(0.11 -0.11)">
       <use xlink:href="#DejaVuSans-31" transform="translate(0 0.09375)"/>
      </g>
     </g>
    </g>
    <g id="xtick_9">
     <g id="line2d_42">
      <g>
       <use xlink:href="#m30fff52c85" x="142.408032" y="219.345354" style="stroke: #000000; stroke-width: 0.5"/>
      </g>
     </g>
     <g id="line2d_43">
      <g>
       <use xlink:href="#m7b19ca089c" x="142.408032" y="113.924646" style="stroke: #000000; stroke-width: 0.5"/>
      </g>
     </g>
     <g id="text_11">
      <!-- $2$ -->
      <g transform="translate(138.888032 231.203636)scale(0.11 -0.11)">
       <use xlink:href="#DejaVuSans-32" transform="translate(0 0.78125)"/>
      </g>
     </g>
    </g>
    <g id="xtick_10">
     <g id="line2d_44">
      <g>
       <use xlink:href="#m30fff52c85" x="187.727817" y="219.345354" style="stroke: #000000; stroke-width: 0.5"/>
      </g>
     </g>
     <g id="line2d_45">
      <g>
       <use xlink:href="#m7b19ca089c" x="187.727817" y="113.924646" style="stroke: #000000; stroke-width: 0.5"/>
      </g>
     </g>
     <g id="text_12">
      <!-- $3$ -->
      <g transform="translate(184.207817 231.203636)scale(0.11 -0.11)">
       <use xlink:href="#DejaVuSans-33" transform="translate(0 0.78125)"/>
      </g>
     </g>
    </g>
    <g id="xtick_11">
     <g id="line2d_46">
      <g>
       <use xlink:href="#m30fff52c85" x="233.047602" y="219.345354" style="stroke: #000000; stroke-width: 0.5"/>
      </g>
     </g>
     <g id="line2d_47">
      <g>
       <use xlink:href="#m7b19ca089c" x="233.047602" y="113.924646" style="stroke: #000000; stroke-width: 0.5"/>
      </g>
     </g>
     <g id="text_13">
      <!-- $4$ -->
      <g transform="translate(229.527602 231.203636)scale(0.11 -0.11)">
       <use xlink:href="#DejaVuSans-34" transform="translate(0 0.09375)"/>
      </g>
     </g>
    </g>
    <g id="xtick_12">
     <g id="line2d_48">
      <g>
       <use xlink:href="#m30fff52c85" x="278.367387" y="219.345354" style="stroke: #000000; stroke-width: 0.5"/>
      </g>
     </g>
     <g id="line2d_49">
      <g>
       <use xlink:href="#m7b19ca089c" x="278.367387" y="113.924646" style="stroke: #000000; stroke-width: 0.5"/>
      </g>
     </g>
     <g id="text_14">
      <!-- $5$ -->
      <g transform="translate(274.847387 231.203636)scale(0.11 -0.11)">
       <use xlink:href="#DejaVuSans-35" transform="translate(0 0.09375)"/>
      </g>
     </g>
    </g>
    <g id="text_15">
     <!-- t [s] -->
     <g transform="translate(154.006909 245.849573)scale(0.11 -0.11)">
      <defs>
       <path id="DejaVuSans-20" transform="scale(0.015625)"/>
       <path id="DejaVuSans-5b" d="M 550 4863 
L 1875 4863 
L 1875 4416 
L 1125 4416 
L 1125 -397 
L 1875 -397 
L 1875 -844 
L 550 -844 
L 550 4863 
z
" transform="scale(0.015625)"/>
       <path id="DejaVuSans-73" d="M 2834 3397 
L 2834 2853 
Q 2591 2978 2328 3040 
Q 2066 3103 1784 3103 
Q 1356 3103 1142 2972 
Q 928 2841 928 2578 
Q 928 2378 1081 2264 
Q 1234 2150 1697 2047 
L 1894 2003 
Q 2506 1872 2764 1633 
Q 3022 1394 3022 966 
Q 3022 478 2636 193 
Q 2250 -91 1575 -91 
Q 1294 -91 989 -36 
Q 684 19 347 128 
L 347 722 
Q 666 556 975 473 
Q 1284 391 1588 391 
Q 1994 391 2212 530 
Q 2431 669 2431 922 
Q 2431 1156 2273 1281 
Q 2116 1406 1581 1522 
L 1381 1569 
Q 847 1681 609 1914 
Q 372 2147 372 2553 
Q 372 3047 722 3315 
Q 1072 3584 1716 3584 
Q 2034 3584 2315 3537 
Q 2597 3491 2834 3397 
z
" transform="scale(0.015625)"/>
       <path id="DejaVuSans-5d" d="M 1947 4863 
L 1947 -844 
L 622 -844 
L 622 -397 
L 1369 -397 
L 1369 4416 
L 622 4416 
L 622 4863 
L 1947 4863 
z
" transform="scale(0.015625)"/>
      </defs>
      <use xlink:href="#DejaVuSans-74"/>
      <use xlink:href="#DejaVuSans-20" x="39.208984"/>
      <use xlink:href="#DejaVuSans-5b" x="70.996094"/>
      <use xlink:href="#DejaVuSans-73" x="110.009766"/>
      <use xlink:href="#DejaVuSans-5d" x="162.109375"/>
     </g>
    </g>
   </g>
   <g id="matplotlib.axis_4">
    <g id="ytick_7">
     <g id="line2d_50">
      <g>
       <use xlink:href="#md7fcb5a73b" x="44.970495" y="213.98395" style="stroke: #000000; stroke-width: 0.5"/>
      </g>
     </g>
     <g id="line2d_51">
      <g>
       <use xlink:href="#m16610507ab" x="285.165354" y="213.98395" style="stroke: #000000; stroke-width: 0.5"/>
      </g>
     </g>
     <g id="text_16">
      <!-- $-10$ -->
      <g transform="translate(18.150495 218.163091)scale(0.11 -0.11)">
       <defs>
        <path id="DejaVuSans-2212" d="M 678 2272 
L 4684 2272 
L 4684 1741 
L 678 1741 
L 678 2272 
z
" transform="scale(0.015625)"/>
       </defs>
       <use xlink:href="#DejaVuSans-2212" transform="translate(0 0.78125)"/>
       <use xlink:href="#DejaVuSans-31" transform="translate(83.789062 0.78125)"/>
       <use xlink:href="#DejaVuSans-30" transform="translate(147.412109 0.78125)"/>
      </g>
     </g>
    </g>
    <g id="ytick_8">
     <g id="line2d_52">
      <g>
       <use xlink:href="#md7fcb5a73b" x="44.970495" y="193.701177" style="stroke: #000000; stroke-width: 0.5"/>
      </g>
     </g>
     <g id="line2d_53">
      <g>
       <use xlink:href="#m16610507ab" x="285.165354" y="193.701177" style="stroke: #000000; stroke-width: 0.5"/>
      </g>
     </g>
     <g id="text_17">
      <!-- $-5$ -->
      <g transform="translate(25.190495 197.880317)scale(0.11 -0.11)">
       <use xlink:href="#DejaVuSans-2212" transform="translate(0 0.09375)"/>
       <use xlink:href="#DejaVuSans-35" transform="translate(83.789062 0.09375)"/>
      </g>
     </g>
    </g>
    <g id="ytick_9">
     <g id="line2d_54">
      <g>
       <use xlink:href="#md7fcb5a73b" x="44.970495" y="173.418403" style="stroke: #000000; stroke-width: 0.5"/>
      </g>
     </g>
     <g id="line2d_55">
      <g>
       <use xlink:href="#m16610507ab" x="285.165354" y="173.418403" style="stroke: #000000; stroke-width: 0.5"/>
      </g>
     </g>
     <g id="text_18">
      <!-- $0$ -->
      <g transform="translate(34.430495 177.597544)scale(0.11 -0.11)">
       <use xlink:href="#DejaVuSans-30" transform="translate(0 0.78125)"/>
      </g>
     </g>
    </g>
    <g id="ytick_10">
     <g id="line2d_56">
      <g>
       <use xlink:href="#md7fcb5a73b" x="44.970495" y="153.13563" style="stroke: #000000; stroke-width: 0.5"/>
      </g>
     </g>
     <g id="line2d_57">
      <g>
       <use xlink:href="#m16610507ab" x="285.165354" y="153.13563" style="stroke: #000000; stroke-width: 0.5"/>
      </g>
     </g>
     <g id="text_19">
      <!-- $5$ -->
      <g transform="translate(34.430495 157.31477)scale(0.11 -0.11)">
       <use xlink:href="#DejaVuSans-35" transform="translate(0 0.09375)"/>
      </g>
     </g>
    </g>
    <g id="ytick_11">
     <g id="line2d_58">
      <g>
       <use xlink:href="#md7fcb5a73b" x="44.970495" y="132.852856" style="stroke: #000000; stroke-width: 0.5"/>
      </g>
     </g>
     <g id="line2d_59">
      <g>
       <use xlink:href="#m16610507ab" x="285.165354" y="132.852856" style="stroke: #000000; stroke-width: 0.5"/>
      </g>
     </g>
     <g id="text_20">
      <!-- $10$ -->
      <g transform="translate(27.390495 137.031997)scale(0.11 -0.11)">
       <use xlink:href="#DejaVuSans-31" transform="translate(0 0.78125)"/>
       <use xlink:href="#DejaVuSans-30" transform="translate(63.623047 0.78125)"/>
      </g>
     </g>
    </g>
    <g id="text_21">
     <!-- a(t) -->
     <g transform="translate(11.862839 176.453359)rotate(-90)scale(0.11 -0.11)">
      <use xlink:href="#DejaVuSans-61"/>
      <use xlink:href="#DejaVuSans-28" x="61.279297"/>
      <use xlink:href="#DejaVuSans-74" x="100.292969"/>
      <use xlink:href="#DejaVuSans-29" x="139.501953"/>
     </g>
    </g>
   </g>
   <g id="line2d_60">
    <path d="M 278.367387 162.599469 
L 278.3669 162.599327 
L 278.362039 162.597908 
L 278.33133 162.588958 
L 278.295219 162.578466 
L 278.217215 162.555924 
L 278.127967 162.530338 
L 277.986783 162.490314 
L 277.835012 162.447914 
L 277.64211 162.394974 
L 277.442748 162.3414 
L 277.233699 162.286491 
L 276.976141 162.220664 
L 276.645679 162.139229 
L 276.246872 162.045632 
L 275.753087 161.937125 
L 275.161149 161.818345 
L 274.442924 161.691755 
L 273.587549 161.567857 
L 272.563655 161.461165 
L 271.352914 161.399166 
L 269.922853 161.42521 
L 268.257328 161.606997 
L 266.342425 162.041652 
L 264.193967 162.849107 
L 261.838232 164.158911 
L 259.313554 166.083086 
L 256.655626 168.693677 
L 253.943762 171.939158 
L 251.231897 175.693365 
L 249.115826 178.900968 
L 245.905651 184.084091 
L 242.695477 189.420451 
L 238.981693 195.470412 
L 235.079883 201.339986 
L 233.047602 204.09636 
" clip-path="url(#p09c1ce5079)" style="fill: none; stroke: #cc0000"/>
   </g>
   <g id="patch_10">
    <path d="M 44.970495 219.345354 
L 44.970495 113.924646 
" style="fill: none; stroke: #000000; stroke-linejoin: miter; stroke-linecap: square"/>
   </g>
   <g id="patch_11">
    <path d="M 285.165354 219.345354 
L 285.165354 113.924646 
" style="fill: none; stroke: #000000; stroke-linejoin: miter; stroke-linecap: square"/>
   </g>
   <g id="patch_12">
    <path d="M 44.970495 219.345354 
L 285.165354 219.345354 
" style="fill: none; stroke: #000000; stroke-linejoin: miter; stroke-linecap: square"/>
   </g>
   <g id="patch_13">
    <path d="M 44.970495 113.924646 
L 285.165354 113.924646 
" style="fill: none; stroke: #000000; stroke-linejoin: miter; stroke-linecap: square"/>
   </g>
   <g id="line2d_61">
    <path d="M 235.079883 144.842855 
L 233.047602 143.971063 
" clip-path="url(#p09c1ce5079)" style="fill: none; stroke: #00008b"/>
   </g>
   <g id="line2d_62">
    <path d="M 235.079883 201.339986 
L 233.047602 204.09636 
" clip-path="url(#p09c1ce5079)" style="fill: none; stroke: #cc0000"/>
   </g>
   <g id="line2d_63">
    <path d="M 233.047602 143.983116 
L 232.953023 143.939175 
L 232.00723 143.499577 
L 230.991996 143.027253 
L 228.928171 142.066179 
L 226.781372 141.065862 
L 223.466514 139.525291 
L 220.069748 137.962886 
L 215.740736 136.026342 
L 211.411724 134.203858 
L 205.479523 132.037078 
L 199.547323 130.492379 
L 193.078562 129.910746 
L 187.727817 130.624557 
" clip-path="url(#p09c1ce5079)" style="fill: none; stroke: #00008b"/>
   </g>
   <g id="line2d_64">
    <path d="M 233.047602 202.682035 
L 232.953023 202.803241 
L 232.00723 203.987957 
L 230.991996 205.202195 
L 228.928171 207.480367 
L 226.781372 209.566697 
L 223.466514 212.21323 
L 220.069748 214.207402 
L 215.740736 215.770939 
L 211.411724 216.361749 
L 205.479523 215.898767 
L 199.547323 214.330705 
L 193.078562 211.795709 
L 187.727817 209.308822 
" clip-path="url(#p09c1ce5079)" style="fill: none; stroke: #cc0000"/>
   </g>
   <g id="line2d_65">
    <path d="M 193.078562 129.910746 
L 187.727817 130.624557 
" clip-path="url(#p09c1ce5079)" style="fill: none; stroke: #00008b"/>
   </g>
   <g id="line2d_66">
    <path d="M 193.078562 211.795709 
L 187.727817 209.308822 
" clip-path="url(#p09c1ce5079)" style="fill: none; stroke: #cc0000"/>
   </g>
   <g id="line2d_67">
    <path d="M 233.047602 143.971063 
L 233.047602 143.983116 
" clip-path="url(#p09c1ce5079)" style="fill: none; stroke-dasharray: 1,1.65; stroke-dashoffset: 0; stroke: #00008b"/>
   </g>
   <g id="line2d_68">
    <path d="M 233.047602 204.09636 
L 233.047602 202.682035 
" clip-path="url(#p09c1ce5079)" style="fill: none; stroke-dasharray: 1,1.65; stroke-dashoffset: 0; stroke: #cc0000"/>
   </g>
   <g id="line2d_69">
    <path d="M 187.727817 130.688477 
L 187.605615 130.721261 
L 186.383595 131.089911 
L 185.124113 131.54917 
L 182.595788 132.728767 
L 180.067463 134.267104 
L 176.409527 137.165396 
L 172.75159 140.867941 
L 168.487777 146.17067 
L 164.223964 152.40276 
L 159.937487 159.363016 
L 155.65101 166.667982 
L 152.353609 172.239271 
L 149.568898 176.737361 
L 146.784187 180.910157 
L 143.999477 184.636626 
L 142.408032 186.522109 
" clip-path="url(#p09c1ce5079)" style="fill: none; stroke: #00008b"/>
   </g>
   <g id="line2d_70">
    <path d="M 187.727817 209.773747 
L 187.605615 209.712832 
L 186.383595 209.09924 
L 185.124113 208.459482 
L 182.595788 207.158833 
L 180.067463 205.845319 
L 176.409527 203.940745 
L 172.75159 202.050889 
L 168.487777 199.888071 
L 164.223964 197.78485 
L 159.937487 195.740578 
L 155.65101 193.770475 
L 152.353609 192.30424 
L 149.568898 191.097571 
L 146.784187 189.917653 
L 143.999477 188.761438 
L 142.408032 188.109448 
" clip-path="url(#p09c1ce5079)" style="fill: none; stroke: #cc0000"/>
   </g>
   <g id="line2d_71">
    <path d="M 143.999477 184.636626 
L 142.408032 186.522109 
" clip-path="url(#p09c1ce5079)" style="fill: none; stroke: #00008b"/>
   </g>
   <g id="line2d_72">
    <path d="M 143.999477 188.761438 
L 142.408032 188.109448 
" clip-path="url(#p09c1ce5079)" style="fill: none; stroke: #cc0000"/>
   </g>
   <g id="line2d_73">
    <path d="M 187.727817 130.624557 
L 187.727817 130.688477 
" clip-path="url(#p09c1ce5079)" style="fill: none; stroke-dasharray: 1,1.65; stroke-dashoffset: 0; stroke: #00008b"/>
   </g>
   <g id="line2d_74">
    <path d="M 187.727817 209.308822 
L 187.727817 209.773747 
" clip-path="url(#p09c1ce5079)" style="fill: none; stroke-dasharray: 1,1.65; stroke-dashoffset: 0; stroke: #cc0000"/>
   </g>
   <g id="line2d_75">
    <path d="M 142.408032 187.626774 
L 142.338239 187.660489 
L 141.64031 187.982312 
L 140.934988 188.278862 
L 139.466885 188.803127 
L 137.998781 189.200315 
L 135.752642 189.565358 
L 133.506504 189.645082 
L 130.66088 189.36832 
L 127.815256 188.720164 
L 124.625407 187.638543 
L 121.435558 186.282909 
L 118.171421 184.719498 
L 114.907285 183.071709 
L 111.643148 181.41085 
L 108.379012 179.781805 
L 104.637154 177.979198 
L 100.502193 176.065505 
L 97.608841 174.762202 
L 97.088248 174.529629 
" clip-path="url(#p09c1ce5079)" style="fill: none; stroke: #00008b"/>
   </g>
   <g id="line2d_76">
    <path d="M 142.408032 182.593914 
L 142.338239 182.573314 
L 141.64031 182.367914 
L 140.934988 182.1614 
L 139.466885 181.734792 
L 137.998781 181.312031 
L 135.752642 180.671491 
L 133.506504 180.03626 
L 130.66088 179.235096 
L 127.815256 178.432027 
L 124.625407 177.520574 
L 121.435558 176.585952 
L 118.171421 175.591656 
L 114.907285 174.543938 
L 111.643148 173.428196 
L 108.379012 172.233757 
L 104.637154 170.766284 
L 100.502193 169.053622 
L 97.608841 167.83967 
L 97.088248 167.623634 
" clip-path="url(#p09c1ce5079)" style="fill: none; stroke: #cc0000"/>
   </g>
   <g id="line2d_77">
    <path d="M 97.608841 174.762202 
L 97.088248 174.529629 
" clip-path="url(#p09c1ce5079)" style="fill: none; stroke: #00008b"/>
   </g>
   <g id="line2d_78">
    <path d="M 97.608841 167.83967 
L 97.088248 167.623634 
" clip-path="url(#p09c1ce5079)" style="fill: none; stroke: #cc0000"/>
   </g>
   <g id="line2d_79">
    <path d="M 142.408032 186.522109 
L 142.408032 187.626774 
" clip-path="url(#p09c1ce5079)" style="fill: none; stroke-dasharray: 1,1.65; stroke-dashoffset: 0; stroke: #00008b"/>
   </g>
   <g id="line2d_80">
    <path d="M 142.408032 188.109448 
L 142.408032 182.593914 
" clip-path="url(#p09c1ce5079)" style="fill: none; stroke-dasharray: 1,1.65; stroke-dashoffset: 0; stroke: #cc0000"/>
   </g>
   <g id="line2d_81">
    <path d="M 97.088248 174.345728 
L 97.061431 174.321444 
L 96.793264 174.07878 
L 96.456092 173.774114 
L 95.961687 173.328143 
L 95.216487 172.65729 
L 94.052477 171.61127 
L 92.490263 170.207199 
L 90.396791 168.316113 
L 87.966953 166.091059 
L 85.213546 163.505971 
L 82.258807 160.624799 
L 79.078598 157.361662 
L 75.755341 153.728231 
L 72.294173 149.652843 
L 68.801797 145.189564 
L 65.309421 140.325096 
L 61.817045 135.014142 
L 59.061187 130.481275 
L 56.30533 125.628156 
L 53.549472 120.441432 
L 51.768463 116.908251 
" clip-path="url(#p09c1ce5079)" style="fill: none; stroke: #00008b"/>
   </g>
   <g id="line2d_82">
    <path d="M 97.088248 161.561939 
L 97.061431 161.54202 
L 96.793264 161.343571 
L 96.456092 161.096065 
L 95.961687 160.737564 
L 95.216487 160.208382 
L 94.052477 159.413342 
L 92.490263 158.419714 
L 90.396791 157.2527 
L 87.966953 156.190025 
L 85.213546 155.440545 
L 82.258807 155.246459 
L 79.078598 155.789482 
L 75.755341 157.180018 
L 72.294173 159.442894 
L 68.801797 162.425176 
L 65.309421 165.92939 
L 61.817045 169.765406 
L 59.061187 172.903287 
L 56.30533 176.057573 
L 53.549472 179.161841 
L 51.768463 181.112917 
" clip-path="url(#p09c1ce5079)" style="fill: none; stroke: #cc0000"/>
   </g>
   <g id="line2d_83">
    <path d="M 53.549472 120.441432 
L 51.768463 116.908251 
" clip-path="url(#p09c1ce5079)" style="fill: none; stroke: #00008b"/>
   </g>
   <g id="line2d_84">
    <path d="M 53.549472 179.161841 
L 51.768463 181.112917 
" clip-path="url(#p09c1ce5079)" style="fill: none; stroke: #cc0000"/>
   </g>
   <g id="line2d_85">
    <path d="M 97.088248 174.529629 
L 97.088248 174.345728 
" clip-path="url(#p09c1ce5079)" style="fill: none; stroke-dasharray: 1,1.65; stroke-dashoffset: 0; stroke: #00008b"/>
   </g>
   <g id="line2d_86">
    <path d="M 97.088248 167.623634 
L 97.088248 161.561939 
" clip-path="url(#p09c1ce5079)" style="fill: none; stroke-dasharray: 1,1.65; stroke-dashoffset: 0; stroke: #cc0000"/>
   </g>
   <g id="patch_14">
    <path d="M 237.378981 149.09348 
Q 235.213292 146.532271 233.047602 143.971063 
Q 236.395982 143.775236 239.744363 143.579409 
z
" style="fill: #00008b; stroke: #00008b; stroke-linecap: round"/>
   </g>
   <g id="patch_15">
    <path d="M 239.022873 201.047403 
Q 236.035237 202.571882 233.047602 204.09636 
Q 233.620601 200.791565 234.193599 197.486769 
z
" style="fill: #cc0000; stroke: #cc0000; stroke-linecap: round"/>
   </g>
   <g id="patch_16">
    <path d="M 194.071827 132.804817 
Q 190.899822 131.714687 187.727817 130.624557 
Q 190.503124 128.741031 193.278432 126.857505 
z
" style="fill: #00008b; stroke: #00008b; stroke-linecap: round"/>
   </g>
   <g id="patch_17">
    <path d="M 191.904429 214.558195 
Q 189.816123 211.933508 187.727817 209.308822 
Q 191.08055 209.212989 194.433282 209.117156 
z
" style="fill: #cc0000; stroke: #cc0000; stroke-linecap: round"/>
   </g>
   <g id="patch_18">
    <path d="M 148.570599 183.872056 
Q 145.489316 185.197083 142.408032 186.522109 
Q 143.196781 183.262067 143.98553 180.002024 
z
" style="fill: #00008b; stroke: #00008b; stroke-linecap: round"/>
   </g>
   <g id="patch_19">
    <path d="M 146.822848 193.160132 
Q 144.61544 190.63479 142.408032 188.109448 
Q 145.75275 187.858727 149.097469 187.608006 
z
" style="fill: #cc0000; stroke: #cc0000; stroke-linecap: round"/>
   </g>
   <g id="patch_20">
    <path d="M 101.342754 179.716071 
Q 99.215501 177.12285 97.088248 174.529629 
Q 100.439176 174.383759 103.790105 174.23789 
z
" style="fill: #00008b; stroke: #00008b; stroke-linecap: round"/>
   </g>
   <g id="patch_21">
    <path d="M 101.480152 172.694252 
Q 99.2842 170.158943 97.088248 167.623634 
Q 100.434067 167.388057 103.779885 167.152481 
z
" style="fill: #cc0000; stroke: #cc0000; stroke-linecap: round"/>
   </g>
   <g id="patch_22">
    <path d="M 51.790328 123.616419 
Q 51.779395 120.262335 51.768463 116.908251 
Q 54.45829 118.911955 57.148116 120.91566 
z
" style="fill: #00008b; stroke: #00008b; stroke-linecap: round"/>
   </g>
   <g id="patch_23">
    <path d="M 58.02926 178.704097 
Q 54.898862 179.908507 51.768463 181.112917 
Q 52.683174 177.885952 53.597885 174.658987 
z
" style="fill: #cc0000; stroke: #cc0000; stroke-linecap: round"/>
   </g>
   <g id="text_22">
    <!-- Adjoint State -->
    <g transform="translate(207.312543 175.115053)scale(0.11 -0.11)">
     <defs>
      <path id="DejaVuSans-41" d="M 2188 4044 
L 1331 1722 
L 3047 1722 
L 2188 4044 
z
M 1831 4666 
L 2547 4666 
L 4325 0 
L 3669 0 
L 3244 1197 
L 1141 1197 
L 716 0 
L 50 0 
L 1831 4666 
z
" transform="scale(0.015625)"/>
      <path id="DejaVuSans-64" d="M 2906 2969 
L 2906 4863 
L 3481 4863 
L 3481 0 
L 2906 0 
L 2906 525 
Q 2725 213 2448 61 
Q 2172 -91 1784 -91 
Q 1150 -91 751 415 
Q 353 922 353 1747 
Q 353 2572 751 3078 
Q 1150 3584 1784 3584 
Q 2172 3584 2448 3432 
Q 2725 3281 2906 2969 
z
M 947 1747 
Q 947 1113 1208 752 
Q 1469 391 1925 391 
Q 2381 391 2643 752 
Q 2906 1113 2906 1747 
Q 2906 2381 2643 2742 
Q 2381 3103 1925 3103 
Q 1469 3103 1208 2742 
Q 947 2381 947 1747 
z
" transform="scale(0.015625)"/>
      <path id="DejaVuSans-6a" d="M 603 3500 
L 1178 3500 
L 1178 -63 
Q 1178 -731 923 -1031 
Q 669 -1331 103 -1331 
L -116 -1331 
L -116 -844 
L 38 -844 
Q 366 -844 484 -692 
Q 603 -541 603 -63 
L 603 3500 
z
M 603 4863 
L 1178 4863 
L 1178 4134 
L 603 4134 
L 603 4863 
z
" transform="scale(0.015625)"/>
      <path id="DejaVuSans-6f" d="M 1959 3097 
Q 1497 3097 1228 2736 
Q 959 2375 959 1747 
Q 959 1119 1226 758 
Q 1494 397 1959 397 
Q 2419 397 2687 759 
Q 2956 1122 2956 1747 
Q 2956 2369 2687 2733 
Q 2419 3097 1959 3097 
z
M 1959 3584 
Q 2709 3584 3137 3096 
Q 3566 2609 3566 1747 
Q 3566 888 3137 398 
Q 2709 -91 1959 -91 
Q 1206 -91 779 398 
Q 353 888 353 1747 
Q 353 2609 779 3096 
Q 1206 3584 1959 3584 
z
" transform="scale(0.015625)"/>
      <path id="DejaVuSans-69" d="M 603 3500 
L 1178 3500 
L 1178 0 
L 603 0 
L 603 3500 
z
M 603 4863 
L 1178 4863 
L 1178 4134 
L 603 4134 
L 603 4863 
z
" transform="scale(0.015625)"/>
      <path id="DejaVuSans-6e" d="M 3513 2113 
L 3513 0 
L 2938 0 
L 2938 2094 
Q 2938 2591 2744 2837 
Q 2550 3084 2163 3084 
Q 1697 3084 1428 2787 
Q 1159 2491 1159 1978 
L 1159 0 
L 581 0 
L 581 3500 
L 1159 3500 
L 1159 2956 
Q 1366 3272 1645 3428 
Q 1925 3584 2291 3584 
Q 2894 3584 3203 3211 
Q 3513 2838 3513 2113 
z
" transform="scale(0.015625)"/>
     </defs>
     <use xlink:href="#DejaVuSans-41"/>
     <use xlink:href="#DejaVuSans-64" x="66.658203"/>
     <use xlink:href="#DejaVuSans-6a" x="130.134766"/>
     <use xlink:href="#DejaVuSans-6f" x="157.917969"/>
     <use xlink:href="#DejaVuSans-69" x="219.099609"/>
     <use xlink:href="#DejaVuSans-6e" x="246.882812"/>
     <use xlink:href="#DejaVuSans-74" x="310.261719"/>
     <use xlink:href="#DejaVuSans-20" x="349.470703"/>
     <use xlink:href="#DejaVuSans-53" x="381.257812"/>
     <use xlink:href="#DejaVuSans-74" x="444.734375"/>
     <use xlink:href="#DejaVuSans-61" x="483.943359"/>
     <use xlink:href="#DejaVuSans-74" x="545.222656"/>
     <use xlink:href="#DejaVuSans-65" x="584.431641"/>
    </g>
   </g>
  </g>
 </g>
 <defs>
  <clipPath id="p90adbf5832">
   <rect x="44.970495" y="2.834646" width="240.194859" height="105.420709"/>
  </clipPath>
  <clipPath id="p09c1ce5079">
   <rect x="44.970495" y="113.924646" width="240.194859" height="105.420709"/>
  </clipPath>
 </defs>
</svg>
