<?xml version="1.0" encoding="utf-8" standalone="no"?>
<!DOCTYPE svg PUBLIC "-//W3C//DTD SVG 1.1//EN"
  "http://www.w3.org/Graphics/SVG/1.1/DTD/svg11.dtd">
<svg xmlns:xlink="http://www.w3.org/1999/xlink" width="432pt" height="252pt" viewBox="0 0 432 252" xmlns="http://www.w3.org/2000/svg" version="1.1">
 <metadata>
  <rdf:RDF xmlns:dc="http://purl.org/dc/elements/1.1/" xmlns:cc="http://creativecommons.org/ns#" xmlns:rdf="http://www.w3.org/1999/02/22-rdf-syntax-ns#">
   <cc:Work>
    <dc:type rdf:resource="http://purl.org/dc/dcmitype/StillImage"/>
    <dc:date>2021-12-15T21:57:38.170898</dc:date>
    <dc:format>image/svg+xml</dc:format>
    <dc:creator>
     <cc:Agent>
      <dc:title>Matplotlib v3.5.0, https://matplotlib.org/</dc:title>
     </cc:Agent>
    </dc:creator>
   </cc:Work>
  </rdf:RDF>
 </metadata>
 <defs>
  <style type="text/css">*{stroke-linejoin: round; stroke-linecap: butt}</style>
 </defs>
 <g id="figure_1">
  <g id="patch_1">
   <path d="M 0 252 
L 432 252 
L 432 0 
L 0 0 
z
" style="fill: #ffffff"/>
  </g>
  <g id="axes_1">
   <g id="patch_2">
    <path d="M 27.147058 231.265354 
L 429.165354 231.265354 
L 429.165354 2.834646 
L 27.147058 2.834646 
z
" style="fill: #ffffff"/>
   </g>
   <g id="matplotlib.axis_1">
    <g id="xtick_1">
     <g id="line2d_1">
      <path d="M 38.524934 231.265354 
L 38.524934 2.834646 
" clip-path="url(#p15f4b336db)" style="fill: none; stroke: #000000; stroke-opacity: 0.1; stroke-width: 0.5; stroke-linecap: square"/>
     </g>
     <g id="line2d_2">
      <defs>
       <path id="m88eb244944" d="M 0 0 
L 0 -2.5 
" style="stroke: #000000; stroke-width: 0.5"/>
      </defs>
      <g>
       <use xlink:href="#m88eb244944" x="38.524934" y="231.265354" style="stroke: #000000; stroke-width: 0.5"/>
      </g>
     </g>
     <g id="line2d_3">
      <defs>
       <path id="madbddef925" d="M 0 0 
L 0 2.5 
" style="stroke: #000000; stroke-width: 0.5"/>
      </defs>
      <g>
       <use xlink:href="#madbddef925" x="38.524934" y="2.834646" style="stroke: #000000; stroke-width: 0.5"/>
      </g>
     </g>
     <g id="text_1">
      <!-- $0$ -->
      <g transform="translate(33.404934 246.922854)scale(0.16 -0.16)">
       <defs>
        <path id="DejaVuSans-30" d="M 2034 4250 
Q 1547 4250 1301 3770 
Q 1056 3291 1056 2328 
Q 1056 1369 1301 889 
Q 1547 409 2034 409 
Q 2525 409 2770 889 
Q 3016 1369 3016 2328 
Q 3016 3291 2770 3770 
Q 2525 4250 2034 4250 
z
M 2034 4750 
Q 2819 4750 3233 4129 
Q 3647 3509 3647 2328 
Q 3647 1150 3233 529 
Q 2819 -91 2034 -91 
Q 1250 -91 836 529 
Q 422 1150 422 2328 
Q 422 3509 836 4129 
Q 1250 4750 2034 4750 
z
" transform="scale(0.015625)"/>
       </defs>
       <use xlink:href="#DejaVuSans-30" transform="translate(0 0.78125)"/>
      </g>
     </g>
    </g>
    <g id="xtick_2">
     <g id="line2d_4">
      <path d="M 114.377443 231.265354 
L 114.377443 2.834646 
" clip-path="url(#p15f4b336db)" style="fill: none; stroke: #000000; stroke-opacity: 0.1; stroke-width: 0.5; stroke-linecap: square"/>
     </g>
     <g id="line2d_5">
      <g>
       <use xlink:href="#m88eb244944" x="114.377443" y="231.265354" style="stroke: #000000; stroke-width: 0.5"/>
      </g>
     </g>
     <g id="line2d_6">
      <g>
       <use xlink:href="#madbddef925" x="114.377443" y="2.834646" style="stroke: #000000; stroke-width: 0.5"/>
      </g>
     </g>
     <g id="text_2">
      <!-- $1$ -->
      <g transform="translate(109.257443 246.922854)scale(0.16 -0.16)">
       <defs>
        <path id="DejaVuSans-31" d="M 794 531 
L 1825 531 
L 1825 4091 
L 703 3866 
L 703 4441 
L 1819 4666 
L 2450 4666 
L 2450 531 
L 3481 531 
L 3481 0 
L 794 0 
L 794 531 
z
" transform="scale(0.015625)"/>
       </defs>
       <use xlink:href="#DejaVuSans-31" transform="translate(0 0.09375)"/>
      </g>
     </g>
    </g>
    <g id="xtick_3">
     <g id="line2d_7">
      <path d="M 190.229952 231.265354 
L 190.229952 2.834646 
" clip-path="url(#p15f4b336db)" style="fill: none; stroke: #000000; stroke-opacity: 0.1; stroke-width: 0.5; stroke-linecap: square"/>
     </g>
     <g id="line2d_8">
      <g>
       <use xlink:href="#m88eb244944" x="190.229952" y="231.265354" style="stroke: #000000; stroke-width: 0.5"/>
      </g>
     </g>
     <g id="line2d_9">
      <g>
       <use xlink:href="#madbddef925" x="190.229952" y="2.834646" style="stroke: #000000; stroke-width: 0.5"/>
      </g>
     </g>
     <g id="text_3">
      <!-- $2$ -->
      <g transform="translate(185.109952 246.922854)scale(0.16 -0.16)">
       <defs>
        <path id="DejaVuSans-32" d="M 1228 531 
L 3431 531 
L 3431 0 
L 469 0 
L 469 531 
Q 828 903 1448 1529 
Q 2069 2156 2228 2338 
Q 2531 2678 2651 2914 
Q 2772 3150 2772 3378 
Q 2772 3750 2511 3984 
Q 2250 4219 1831 4219 
Q 1534 4219 1204 4116 
Q 875 4013 500 3803 
L 500 4441 
Q 881 4594 1212 4672 
Q 1544 4750 1819 4750 
Q 2544 4750 2975 4387 
Q 3406 4025 3406 3419 
Q 3406 3131 3298 2873 
Q 3191 2616 2906 2266 
Q 2828 2175 2409 1742 
Q 1991 1309 1228 531 
z
" transform="scale(0.015625)"/>
       </defs>
       <use xlink:href="#DejaVuSans-32" transform="translate(0 0.78125)"/>
      </g>
     </g>
    </g>
    <g id="xtick_4">
     <g id="line2d_10">
      <path d="M 266.08246 231.265354 
L 266.08246 2.834646 
" clip-path="url(#p15f4b336db)" style="fill: none; stroke: #000000; stroke-opacity: 0.1; stroke-width: 0.5; stroke-linecap: square"/>
     </g>
     <g id="line2d_11">
      <g>
       <use xlink:href="#m88eb244944" x="266.08246" y="231.265354" style="stroke: #000000; stroke-width: 0.5"/>
      </g>
     </g>
     <g id="line2d_12">
      <g>
       <use xlink:href="#madbddef925" x="266.08246" y="2.834646" style="stroke: #000000; stroke-width: 0.5"/>
      </g>
     </g>
     <g id="text_4">
      <!-- $3$ -->
      <g transform="translate(260.96246 246.922854)scale(0.16 -0.16)">
       <defs>
        <path id="DejaVuSans-33" d="M 2597 2516 
Q 3050 2419 3304 2112 
Q 3559 1806 3559 1356 
Q 3559 666 3084 287 
Q 2609 -91 1734 -91 
Q 1441 -91 1130 -33 
Q 819 25 488 141 
L 488 750 
Q 750 597 1062 519 
Q 1375 441 1716 441 
Q 2309 441 2620 675 
Q 2931 909 2931 1356 
Q 2931 1769 2642 2001 
Q 2353 2234 1838 2234 
L 1294 2234 
L 1294 2753 
L 1863 2753 
Q 2328 2753 2575 2939 
Q 2822 3125 2822 3475 
Q 2822 3834 2567 4026 
Q 2313 4219 1838 4219 
Q 1578 4219 1281 4162 
Q 984 4106 628 3988 
L 628 4550 
Q 988 4650 1302 4700 
Q 1616 4750 1894 4750 
Q 2613 4750 3031 4423 
Q 3450 4097 3450 3541 
Q 3450 3153 3228 2886 
Q 3006 2619 2597 2516 
z
" transform="scale(0.015625)"/>
       </defs>
       <use xlink:href="#DejaVuSans-33" transform="translate(0 0.78125)"/>
      </g>
     </g>
    </g>
    <g id="xtick_5">
     <g id="line2d_13">
      <path d="M 341.934969 231.265354 
L 341.934969 2.834646 
" clip-path="url(#p15f4b336db)" style="fill: none; stroke: #000000; stroke-opacity: 0.1; stroke-width: 0.5; stroke-linecap: square"/>
     </g>
     <g id="line2d_14">
      <g>
       <use xlink:href="#m88eb244944" x="341.934969" y="231.265354" style="stroke: #000000; stroke-width: 0.5"/>
      </g>
     </g>
     <g id="line2d_15">
      <g>
       <use xlink:href="#madbddef925" x="341.934969" y="2.834646" style="stroke: #000000; stroke-width: 0.5"/>
      </g>
     </g>
     <g id="text_5">
      <!-- $4$ -->
      <g transform="translate(336.814969 246.922854)scale(0.16 -0.16)">
       <defs>
        <path id="DejaVuSans-34" d="M 2419 4116 
L 825 1625 
L 2419 1625 
L 2419 4116 
z
M 2253 4666 
L 3047 4666 
L 3047 1625 
L 3713 1625 
L 3713 1100 
L 3047 1100 
L 3047 0 
L 2419 0 
L 2419 1100 
L 313 1100 
L 313 1709 
L 2253 4666 
z
" transform="scale(0.015625)"/>
       </defs>
       <use xlink:href="#DejaVuSans-34" transform="translate(0 0.09375)"/>
      </g>
     </g>
    </g>
    <g id="xtick_6">
     <g id="line2d_16">
      <path d="M 417.787478 231.265354 
L 417.787478 2.834646 
" clip-path="url(#p15f4b336db)" style="fill: none; stroke: #000000; stroke-opacity: 0.1; stroke-width: 0.5; stroke-linecap: square"/>
     </g>
     <g id="line2d_17">
      <g>
       <use xlink:href="#m88eb244944" x="417.787478" y="231.265354" style="stroke: #000000; stroke-width: 0.5"/>
      </g>
     </g>
     <g id="line2d_18">
      <g>
       <use xlink:href="#madbddef925" x="417.787478" y="2.834646" style="stroke: #000000; stroke-width: 0.5"/>
      </g>
     </g>
     <g id="text_6">
      <!-- $5$ -->
      <g transform="translate(412.667478 246.922854)scale(0.16 -0.16)">
       <defs>
        <path id="DejaVuSans-35" d="M 691 4666 
L 3169 4666 
L 3169 4134 
L 1269 4134 
L 1269 2991 
Q 1406 3038 1543 3061 
Q 1681 3084 1819 3084 
Q 2600 3084 3056 2656 
Q 3513 2228 3513 1497 
Q 3513 744 3044 326 
Q 2575 -91 1722 -91 
Q 1428 -91 1123 -41 
Q 819 9 494 109 
L 494 744 
Q 775 591 1075 516 
Q 1375 441 1709 441 
Q 2250 441 2565 725 
Q 2881 1009 2881 1497 
Q 2881 1984 2565 2268 
Q 2250 2553 1709 2553 
Q 1456 2553 1204 2497 
Q 953 2441 691 2322 
L 691 4666 
z
" transform="scale(0.015625)"/>
       </defs>
       <use xlink:href="#DejaVuSans-35" transform="translate(0 0.09375)"/>
      </g>
     </g>
    </g>
   </g>
   <g id="matplotlib.axis_2">
    <g id="ytick_1">
     <g id="line2d_19">
      <path d="M 27.147058 225.320465 
L 429.165354 225.320465 
" clip-path="url(#p15f4b336db)" style="fill: none; stroke: #000000; stroke-opacity: 0.1; stroke-width: 0.5; stroke-linecap: square"/>
     </g>
     <g id="line2d_20">
      <defs>
       <path id="maa5e458f14" d="M 0 0 
L 2.5 0 
" style="stroke: #000000; stroke-width: 0.5"/>
      </defs>
      <g>
       <use xlink:href="#maa5e458f14" x="27.147058" y="225.320465" style="stroke: #000000; stroke-width: 0.5"/>
      </g>
     </g>
     <g id="line2d_21">
      <defs>
       <path id="m9564143f8e" d="M 0 0 
L -2.5 0 
" style="stroke: #000000; stroke-width: 0.5"/>
      </defs>
      <g>
       <use xlink:href="#m9564143f8e" x="429.165354" y="225.320465" style="stroke: #000000; stroke-width: 0.5"/>
      </g>
     </g>
     <g id="text_7">
      <!-- $0$ -->
      <g transform="translate(13.407058 231.399215)scale(0.16 -0.16)">
       <use xlink:href="#DejaVuSans-30" transform="translate(0 0.78125)"/>
      </g>
     </g>
    </g>
    <g id="ytick_2">
     <g id="line2d_22">
      <path d="M 27.147058 173.300909 
L 429.165354 173.300909 
" clip-path="url(#p15f4b336db)" style="fill: none; stroke: #000000; stroke-opacity: 0.1; stroke-width: 0.5; stroke-linecap: square"/>
     </g>
     <g id="line2d_23">
      <g>
       <use xlink:href="#maa5e458f14" x="27.147058" y="173.300909" style="stroke: #000000; stroke-width: 0.5"/>
      </g>
     </g>
     <g id="line2d_24">
      <g>
       <use xlink:href="#m9564143f8e" x="429.165354" y="173.300909" style="stroke: #000000; stroke-width: 0.5"/>
      </g>
     </g>
     <g id="text_8">
      <!-- $5$ -->
      <g transform="translate(13.407058 179.379659)scale(0.16 -0.16)">
       <use xlink:href="#DejaVuSans-35" transform="translate(0 0.09375)"/>
      </g>
     </g>
    </g>
    <g id="ytick_3">
     <g id="line2d_25">
      <path d="M 27.147058 121.281353 
L 429.165354 121.281353 
" clip-path="url(#p15f4b336db)" style="fill: none; stroke: #000000; stroke-opacity: 0.1; stroke-width: 0.5; stroke-linecap: square"/>
     </g>
     <g id="line2d_26">
      <g>
       <use xlink:href="#maa5e458f14" x="27.147058" y="121.281353" style="stroke: #000000; stroke-width: 0.5"/>
      </g>
     </g>
     <g id="line2d_27">
      <g>
       <use xlink:href="#m9564143f8e" x="429.165354" y="121.281353" style="stroke: #000000; stroke-width: 0.5"/>
      </g>
     </g>
     <g id="text_9">
      <!-- $10$ -->
      <g transform="translate(3.167058 127.360103)scale(0.16 -0.16)">
       <use xlink:href="#DejaVuSans-31" transform="translate(0 0.78125)"/>
       <use xlink:href="#DejaVuSans-30" transform="translate(63.623047 0.78125)"/>
      </g>
     </g>
    </g>
    <g id="ytick_4">
     <g id="line2d_28">
      <path d="M 27.147058 69.261797 
L 429.165354 69.261797 
" clip-path="url(#p15f4b336db)" style="fill: none; stroke: #000000; stroke-opacity: 0.1; stroke-width: 0.5; stroke-linecap: square"/>
     </g>
     <g id="line2d_29">
      <g>
       <use xlink:href="#maa5e458f14" x="27.147058" y="69.261797" style="stroke: #000000; stroke-width: 0.5"/>
      </g>
     </g>
     <g id="line2d_30">
      <g>
       <use xlink:href="#m9564143f8e" x="429.165354" y="69.261797" style="stroke: #000000; stroke-width: 0.5"/>
      </g>
     </g>
     <g id="text_10">
      <!-- $15$ -->
      <g transform="translate(3.167058 75.340547)scale(0.16 -0.16)">
       <use xlink:href="#DejaVuSans-31" transform="translate(0 0.09375)"/>
       <use xlink:href="#DejaVuSans-35" transform="translate(63.623047 0.09375)"/>
      </g>
     </g>
    </g>
    <g id="ytick_5">
     <g id="line2d_31">
      <path d="M 27.147058 17.242242 
L 429.165354 17.242242 
" clip-path="url(#p15f4b336db)" style="fill: none; stroke: #000000; stroke-opacity: 0.1; stroke-width: 0.5; stroke-linecap: square"/>
     </g>
     <g id="line2d_32">
      <g>
       <use xlink:href="#maa5e458f14" x="27.147058" y="17.242242" style="stroke: #000000; stroke-width: 0.5"/>
      </g>
     </g>
     <g id="line2d_33">
      <g>
       <use xlink:href="#m9564143f8e" x="429.165354" y="17.242242" style="stroke: #000000; stroke-width: 0.5"/>
      </g>
     </g>
     <g id="text_11">
      <!-- $20$ -->
      <g transform="translate(3.167058 23.320992)scale(0.16 -0.16)">
       <use xlink:href="#DejaVuSans-32" transform="translate(0 0.78125)"/>
       <use xlink:href="#DejaVuSans-30" transform="translate(63.623047 0.78125)"/>
      </g>
     </g>
    </g>
   </g>
   <g id="PathCollection_1">
    <defs>
     <path id="mff778485c0" d="M 0 2 
C 0.530406 2 1.03916 1.789267 1.414214 1.414214 
C 1.789267 1.03916 2 0.530406 2 0 
C 2 -0.530406 1.789267 -1.03916 1.414214 -1.414214 
C 1.03916 -1.789267 0.530406 -2 0 -2 
C -0.530406 -2 -1.03916 -1.789267 -1.414214 -1.414214 
C -1.789267 -1.03916 -2 -0.530406 -2 0 
C -2 0.530406 -1.789267 1.03916 -1.414214 1.414214 
C -1.03916 1.789267 -0.530406 2 0 2 
z
"/>
    </defs>
    <g clip-path="url(#p15f4b336db)">
     <use xlink:href="#mff778485c0" x="38.524934" y="214.737812" style="fill: #00008b"/>
     <use xlink:href="#mff778485c0" x="46.110185" y="214.113981" style="fill: #00008b"/>
     <use xlink:href="#mff778485c0" x="53.695436" y="213.543149" style="fill: #00008b"/>
     <use xlink:href="#mff778485c0" x="61.280687" y="212.268928" style="fill: #00008b"/>
     <use xlink:href="#mff778485c0" x="68.865938" y="211.066607" style="fill: #00008b"/>
     <use xlink:href="#mff778485c0" x="76.451188" y="209.097367" style="fill: #00008b"/>
     <use xlink:href="#mff778485c0" x="84.036439" y="207.196471" style="fill: #00008b"/>
     <use xlink:href="#mff778485c0" x="91.62169" y="205.564143" style="fill: #00008b"/>
     <use xlink:href="#mff778485c0" x="99.206941" y="202.522532" style="fill: #00008b"/>
     <use xlink:href="#mff778485c0" x="106.792192" y="199.771031" style="fill: #00008b"/>
     <use xlink:href="#mff778485c0" x="114.377443" y="196.353338" style="fill: #00008b"/>
     <use xlink:href="#mff778485c0" x="121.962694" y="192.403224" style="fill: #00008b"/>
     <use xlink:href="#mff778485c0" x="129.547945" y="188.374191" style="fill: #00008b"/>
     <use xlink:href="#mff778485c0" x="137.133196" y="183.49346" style="fill: #00008b"/>
     <use xlink:href="#mff778485c0" x="144.718446" y="178.571112" style="fill: #00008b"/>
     <use xlink:href="#mff778485c0" x="152.303697" y="172.352212" style="fill: #00008b"/>
     <use xlink:href="#mff778485c0" x="159.888948" y="166.969138" style="fill: #00008b"/>
     <use xlink:href="#mff778485c0" x="167.474199" y="160.624799" style="fill: #00008b"/>
     <use xlink:href="#mff778485c0" x="175.05945" y="156.289949" style="fill: #00008b"/>
     <use xlink:href="#mff778485c0" x="182.644701" y="153.519559" style="fill: #00008b"/>
     <use xlink:href="#mff778485c0" x="190.229952" y="155.290487" style="fill: #00008b"/>
     <use xlink:href="#mff778485c0" x="197.815203" y="161.085402" style="fill: #00008b"/>
     <use xlink:href="#mff778485c0" x="205.400453" y="171.449222" style="fill: #00008b"/>
     <use xlink:href="#mff778485c0" x="212.985704" y="183.85034" style="fill: #00008b"/>
     <use xlink:href="#mff778485c0" x="220.570955" y="194.992835" style="fill: #00008b"/>
     <use xlink:href="#mff778485c0" x="228.156206" y="202.668073" style="fill: #00008b"/>
     <use xlink:href="#mff778485c0" x="235.741457" y="208.040532" style="fill: #00008b"/>
     <use xlink:href="#mff778485c0" x="243.326708" y="211.164696" style="fill: #00008b"/>
     <use xlink:href="#mff778485c0" x="250.911959" y="213.333668" style="fill: #00008b"/>
     <use xlink:href="#mff778485c0" x="258.49721" y="214.856342" style="fill: #00008b"/>
     <use xlink:href="#mff778485c0" x="266.08246" y="215.114056" style="fill: #00008b"/>
     <use xlink:href="#mff778485c0" x="273.667711" y="215.162187" style="fill: #00008b"/>
     <use xlink:href="#mff778485c0" x="281.252962" y="215.314314" style="fill: #00008b"/>
     <use xlink:href="#mff778485c0" x="288.838213" y="214.874552" style="fill: #00008b"/>
     <use xlink:href="#mff778485c0" x="296.423464" y="214.433809" style="fill: #00008b"/>
     <use xlink:href="#mff778485c0" x="304.008715" y="213.931894" style="fill: #00008b"/>
     <use xlink:href="#mff778485c0" x="311.593966" y="212.330148" style="fill: #00008b"/>
     <use xlink:href="#mff778485c0" x="319.179217" y="211.293259" style="fill: #00008b"/>
     <use xlink:href="#mff778485c0" x="326.764467" y="209.496995" style="fill: #00008b"/>
     <use xlink:href="#mff778485c0" x="334.349718" y="207.73997" style="fill: #00008b"/>
     <use xlink:href="#mff778485c0" x="341.934969" y="205.45159" style="fill: #00008b"/>
     <use xlink:href="#mff778485c0" x="349.52022" y="203.063711" style="fill: #00008b"/>
     <use xlink:href="#mff778485c0" x="357.105471" y="200.78729" style="fill: #00008b"/>
     <use xlink:href="#mff778485c0" x="364.690722" y="197.526795" style="fill: #00008b"/>
     <use xlink:href="#mff778485c0" x="372.275973" y="193.484743" style="fill: #00008b"/>
     <use xlink:href="#mff778485c0" x="379.861224" y="188.943467" style="fill: #00008b"/>
     <use xlink:href="#mff778485c0" x="387.446474" y="184.705624" style="fill: #00008b"/>
     <use xlink:href="#mff778485c0" x="395.031725" y="178.931184" style="fill: #00008b"/>
     <use xlink:href="#mff778485c0" x="402.616976" y="173.409409" style="fill: #00008b"/>
     <use xlink:href="#mff778485c0" x="410.202227" y="167.397436" style="fill: #00008b"/>
     <use xlink:href="#mff778485c0" x="417.787478" y="162.303306" style="fill: #00008b"/>
    </g>
   </g>
   <g id="PathCollection_2">
    <defs>
     <path id="ma06f241bdc" d="M 0 2 
C 0.530406 2 1.03916 1.789267 1.414214 1.414214 
C 1.789267 1.03916 2 0.530406 2 0 
C 2 -0.530406 1.789267 -1.03916 1.414214 -1.414214 
C 1.03916 -1.789267 0.530406 -2 0 -2 
C -0.530406 -2 -1.03916 -1.789267 -1.414214 -1.414214 
C -1.789267 -1.03916 -2 -0.530406 -2 0 
C -2 0.530406 -1.789267 1.03916 -1.414214 1.414214 
C -1.03916 1.789267 -0.530406 2 0 2 
z
"/>
    </defs>
    <g clip-path="url(#p15f4b336db)">
     <use xlink:href="#ma06f241bdc" x="38.524934" y="214.844243" style="fill: #cc0000"/>
     <use xlink:href="#ma06f241bdc" x="46.110185" y="216.949892" style="fill: #cc0000"/>
     <use xlink:href="#ma06f241bdc" x="53.695436" y="218.140979" style="fill: #cc0000"/>
     <use xlink:href="#ma06f241bdc" x="61.280687" y="219.287956" style="fill: #cc0000"/>
     <use xlink:href="#ma06f241bdc" x="68.865938" y="220.128503" style="fill: #cc0000"/>
     <use xlink:href="#ma06f241bdc" x="76.451188" y="220.932195" style="fill: #cc0000"/>
     <use xlink:href="#ma06f241bdc" x="84.036439" y="221.56807" style="fill: #cc0000"/>
     <use xlink:href="#ma06f241bdc" x="91.62169" y="221.791725" style="fill: #cc0000"/>
     <use xlink:href="#ma06f241bdc" x="99.206941" y="222.350843" style="fill: #cc0000"/>
     <use xlink:href="#ma06f241bdc" x="106.792192" y="222.51719" style="fill: #cc0000"/>
     <use xlink:href="#ma06f241bdc" x="114.377443" y="222.560604" style="fill: #cc0000"/>
     <use xlink:href="#ma06f241bdc" x="121.962694" y="222.644832" style="fill: #cc0000"/>
     <use xlink:href="#ma06f241bdc" x="129.547945" y="222.544644" style="fill: #cc0000"/>
     <use xlink:href="#ma06f241bdc" x="137.133196" y="222.391938" style="fill: #cc0000"/>
     <use xlink:href="#ma06f241bdc" x="144.718446" y="221.902439" style="fill: #cc0000"/>
     <use xlink:href="#ma06f241bdc" x="152.303697" y="221.311719" style="fill: #cc0000"/>
     <use xlink:href="#ma06f241bdc" x="159.888948" y="220.323418" style="fill: #cc0000"/>
     <use xlink:href="#ma06f241bdc" x="167.474199" y="218.439331" style="fill: #cc0000"/>
     <use xlink:href="#ma06f241bdc" x="175.05945" y="215.745892" style="fill: #cc0000"/>
     <use xlink:href="#ma06f241bdc" x="182.644701" y="211.052305" style="fill: #cc0000"/>
     <use xlink:href="#ma06f241bdc" x="190.229952" y="204.65587" style="fill: #cc0000"/>
     <use xlink:href="#ma06f241bdc" x="197.815203" y="195.608008" style="fill: #cc0000"/>
     <use xlink:href="#ma06f241bdc" x="205.400453" y="186.209077" style="fill: #cc0000"/>
     <use xlink:href="#ma06f241bdc" x="212.985704" y="180.046757" style="fill: #cc0000"/>
     <use xlink:href="#ma06f241bdc" x="220.570955" y="177.680148" style="fill: #cc0000"/>
     <use xlink:href="#ma06f241bdc" x="228.156206" y="180.099398" style="fill: #cc0000"/>
     <use xlink:href="#ma06f241bdc" x="235.741457" y="184.343719" style="fill: #cc0000"/>
     <use xlink:href="#ma06f241bdc" x="243.326708" y="190.357762" style="fill: #cc0000"/>
     <use xlink:href="#ma06f241bdc" x="250.911959" y="196.055674" style="fill: #cc0000"/>
     <use xlink:href="#ma06f241bdc" x="258.49721" y="200.85084" style="fill: #cc0000"/>
     <use xlink:href="#ma06f241bdc" x="266.08246" y="205.590723" style="fill: #cc0000"/>
     <use xlink:href="#ma06f241bdc" x="273.667711" y="208.867689" style="fill: #cc0000"/>
     <use xlink:href="#ma06f241bdc" x="281.252962" y="212.315849" style="fill: #cc0000"/>
     <use xlink:href="#ma06f241bdc" x="288.838213" y="214.735217" style="fill: #cc0000"/>
     <use xlink:href="#ma06f241bdc" x="296.423464" y="216.625053" style="fill: #cc0000"/>
     <use xlink:href="#ma06f241bdc" x="304.008715" y="218.214384" style="fill: #cc0000"/>
     <use xlink:href="#ma06f241bdc" x="311.593966" y="219.315866" style="fill: #cc0000"/>
     <use xlink:href="#ma06f241bdc" x="319.179217" y="220.167344" style="fill: #cc0000"/>
     <use xlink:href="#ma06f241bdc" x="326.764467" y="221.152876" style="fill: #cc0000"/>
     <use xlink:href="#ma06f241bdc" x="334.349718" y="221.410825" style="fill: #cc0000"/>
     <use xlink:href="#ma06f241bdc" x="341.934969" y="221.829589" style="fill: #cc0000"/>
     <use xlink:href="#ma06f241bdc" x="349.52022" y="222.153118" style="fill: #cc0000"/>
     <use xlink:href="#ma06f241bdc" x="357.105471" y="222.513868" style="fill: #cc0000"/>
     <use xlink:href="#ma06f241bdc" x="364.690722" y="222.769058" style="fill: #cc0000"/>
     <use xlink:href="#ma06f241bdc" x="372.275973" y="222.552867" style="fill: #cc0000"/>
     <use xlink:href="#ma06f241bdc" x="379.861224" y="222.815211" style="fill: #cc0000"/>
     <use xlink:href="#ma06f241bdc" x="387.446474" y="222.538481" style="fill: #cc0000"/>
     <use xlink:href="#ma06f241bdc" x="395.031725" y="222.115342" style="fill: #cc0000"/>
     <use xlink:href="#ma06f241bdc" x="402.616976" y="221.492802" style="fill: #cc0000"/>
     <use xlink:href="#ma06f241bdc" x="410.202227" y="220.375679" style="fill: #cc0000"/>
     <use xlink:href="#ma06f241bdc" x="417.787478" y="218.709677" style="fill: #cc0000"/>
    </g>
   </g>
   <g id="patch_3">
    <path d="M 27.147058 231.265354 
L 27.147058 2.834646 
" style="fill: none; stroke: #000000; stroke-linejoin: miter; stroke-linecap: square"/>
   </g>
   <g id="patch_4">
    <path d="M 429.165354 231.265354 
L 429.165354 2.834646 
" style="fill: none; stroke: #000000; stroke-linejoin: miter; stroke-linecap: square"/>
   </g>
   <g id="patch_5">
    <path d="M 27.147058 231.265354 
L 429.165354 231.265354 
" style="fill: none; stroke: #000000; stroke-linejoin: miter; stroke-linecap: square"/>
   </g>
   <g id="patch_6">
    <path d="M 27.147058 2.834646 
L 429.165354 2.834646 
" style="fill: none; stroke: #000000; stroke-linejoin: miter; stroke-linecap: square"/>
   </g>
   <g id="line2d_34">
    <path d="M 38.524934 214.916554 
L 46.110185 213.742036 
L 53.695436 212.221783 
L 61.280687 210.335652 
L 68.865938 208.042173 
L 76.451188 205.292761 
L 84.036439 202.017938 
L 91.62169 198.13182 
L 99.206941 193.548967 
L 106.792192 188.149957 
L 114.377443 181.778919 
L 121.962694 174.279021 
L 129.547945 165.487633 
L 137.133196 155.178183 
L 144.718446 143.084622 
L 152.303697 128.940329 
L 159.888948 112.47492 
L 167.474199 93.406637 
L 175.05945 71.75744 
L 182.644701 47.856214 
L 190.229952 24.368422 
L 197.815203 9.299666 
L 205.400453 26.515842 
L 212.985704 90.836285 
L 220.570955 158.014457 
L 228.156206 192.61439 
L 235.741457 206.820548 
L 243.326708 212.552813 
L 250.911959 215.178103 
L 258.49721 216.131737 
L 266.08246 216.357703 
L 273.667711 216.058071 
L 281.252962 215.354678 
L 288.838213 214.32028 
L 296.423464 212.941591 
L 304.008715 211.199396 
L 311.593966 209.074343 
L 319.179217 206.527669 
L 326.764467 203.482502 
L 334.349718 199.857664 
L 341.934969 195.572286 
L 349.52022 190.550564 
L 357.105471 184.63915 
L 364.690722 177.654081 
L 372.275973 169.411395 
L 379.861224 159.727127 
L 387.446474 148.407022 
L 395.031725 135.167968 
L 402.616976 119.717577 
L 410.202227 101.767407 
L 417.787478 81.194477 
" clip-path="url(#p15f4b336db)" style="fill: none; stroke: #00008b; stroke-width: 2"/>
   </g>
   <g id="line2d_35">
    <path d="M 38.524934 214.916554 
L 46.110185 218.011328 
L 53.695436 220.13645 
L 61.280687 221.60798 
L 68.865938 222.619746 
L 76.451188 223.327377 
L 84.036439 223.820841 
L 91.62169 224.160571 
L 99.206941 224.402286 
L 106.792192 224.571351 
L 114.377443 224.682162 
L 121.962694 224.74919 
L 129.547945 224.78842 
L 137.133196 224.800334 
L 144.718446 224.762754 
L 152.303697 224.652718 
L 159.888948 224.448459 
L 167.474199 224.076614 
L 175.05945 223.221655 
L 182.644701 221.357077 
L 190.229952 216.370697 
L 197.815203 202.682692 
L 205.400453 166.271027 
L 212.985704 108.749792 
L 220.570955 80.258177 
L 228.156206 96.002213 
L 235.741457 125.829826 
L 243.326708 153.543791 
L 250.911959 174.697321 
L 258.49721 190.099551 
L 266.08246 200.904547 
L 273.667711 208.372257 
L 281.252962 213.498128 
L 288.838213 217.089584 
L 296.423464 219.533949 
L 304.008715 221.158989 
L 311.593966 222.290165 
L 319.179217 223.110479 
L 326.764467 223.676135 
L 334.349718 224.057405 
L 341.934969 224.32442 
L 349.52022 224.522544 
L 357.105471 224.660354 
L 364.690722 224.74613 
L 372.275973 224.788153 
L 379.861224 224.794701 
L 387.446474 224.772232 
L 395.031725 224.703001 
L 402.616976 224.556308 
L 410.202227 224.278606 
L 417.787478 223.669025 
" clip-path="url(#p15f4b336db)" style="fill: none; stroke: #cc0000; stroke-width: 2"/>
   </g>
  </g>
 </g>
 <defs>
  <clipPath id="p15f4b336db">
   <rect x="27.147058" y="2.834646" width="402.018297" height="228.430709"/>
  </clipPath>
 </defs>
</svg>
