<?xml version="1.0" encoding="utf-8" standalone="no"?>
<!DOCTYPE svg PUBLIC "-//W3C//DTD SVG 1.1//EN"
  "http://www.w3.org/Graphics/SVG/1.1/DTD/svg11.dtd">
<svg xmlns:xlink="http://www.w3.org/1999/xlink" width="432pt" height="252pt" viewBox="0 0 432 252" xmlns="http://www.w3.org/2000/svg" version="1.1">
 <metadata>
  <rdf:RDF xmlns:dc="http://purl.org/dc/elements/1.1/" xmlns:cc="http://creativecommons.org/ns#" xmlns:rdf="http://www.w3.org/1999/02/22-rdf-syntax-ns#">
   <cc:Work>
    <dc:type rdf:resource="http://purl.org/dc/dcmitype/StillImage"/>
    <dc:date>2021-11-24T21:32:03.546114</dc:date>
    <dc:format>image/svg+xml</dc:format>
    <dc:creator>
     <cc:Agent>
      <dc:title>Matplotlib v3.5.0, https://matplotlib.org/</dc:title>
     </cc:Agent>
    </dc:creator>
   </cc:Work>
  </rdf:RDF>
 </metadata>
 <defs>
  <style type="text/css">*{stroke-linejoin: round; stroke-linecap: butt}</style>
 </defs>
 <g id="figure_1">
  <g id="patch_1">
   <path d="M 0 252 
L 432 252 
L 432 0 
L 0 0 
z
" style="fill: #ffffff"/>
  </g>
  <g id="axes_1">
   <g id="patch_2">
    <path d="M 14.659646 232.705354 
L 429.165354 232.705354 
L 429.165354 2.834646 
L 14.659646 2.834646 
z
" style="fill: #ffffff"/>
   </g>
   <g id="matplotlib.axis_1">
    <g id="xtick_1">
     <g id="line2d_1">
      <path d="M 26.390939 232.705354 
L 26.390939 2.834646 
" clip-path="url(#p53615753e5)" style="fill: none; stroke: #000000; stroke-opacity: 0.1; stroke-width: 0.5; stroke-linecap: square"/>
     </g>
     <g id="line2d_2">
      <defs>
       <path id="mac1e48453f" d="M 0 0 
L 0 -2.5 
" style="stroke: #000000; stroke-width: 0.5"/>
      </defs>
      <g>
       <use xlink:href="#mac1e48453f" x="26.390939" y="232.705354" style="stroke: #000000; stroke-width: 0.5"/>
      </g>
     </g>
     <g id="line2d_3">
      <defs>
       <path id="mf3e03946f8" d="M 0 0 
L 0 2.5 
" style="stroke: #000000; stroke-width: 0.5"/>
      </defs>
      <g>
       <use xlink:href="#mf3e03946f8" x="26.390939" y="2.834646" style="stroke: #000000; stroke-width: 0.5"/>
      </g>
     </g>
     <g id="text_1">
      <!-- $0$ -->
      <g transform="translate(22.550939 245.323479)scale(0.12 -0.12)">
       <defs>
        <path id="DejaVuSans-30" d="M 2034 4250 
Q 1547 4250 1301 3770 
Q 1056 3291 1056 2328 
Q 1056 1369 1301 889 
Q 1547 409 2034 409 
Q 2525 409 2770 889 
Q 3016 1369 3016 2328 
Q 3016 3291 2770 3770 
Q 2525 4250 2034 4250 
z
M 2034 4750 
Q 2819 4750 3233 4129 
Q 3647 3509 3647 2328 
Q 3647 1150 3233 529 
Q 2819 -91 2034 -91 
Q 1250 -91 836 529 
Q 422 1150 422 2328 
Q 422 3509 836 4129 
Q 1250 4750 2034 4750 
z
" transform="scale(0.015625)"/>
       </defs>
       <use xlink:href="#DejaVuSans-30" transform="translate(0 0.78125)"/>
      </g>
     </g>
    </g>
    <g id="xtick_2">
     <g id="line2d_4">
      <path d="M 104.599564 232.705354 
L 104.599564 2.834646 
" clip-path="url(#p53615753e5)" style="fill: none; stroke: #000000; stroke-opacity: 0.1; stroke-width: 0.5; stroke-linecap: square"/>
     </g>
     <g id="line2d_5">
      <g>
       <use xlink:href="#mac1e48453f" x="104.599564" y="232.705354" style="stroke: #000000; stroke-width: 0.5"/>
      </g>
     </g>
     <g id="line2d_6">
      <g>
       <use xlink:href="#mf3e03946f8" x="104.599564" y="2.834646" style="stroke: #000000; stroke-width: 0.5"/>
      </g>
     </g>
     <g id="text_2">
      <!-- $1$ -->
      <g transform="translate(100.759564 245.323479)scale(0.12 -0.12)">
       <defs>
        <path id="DejaVuSans-31" d="M 794 531 
L 1825 531 
L 1825 4091 
L 703 3866 
L 703 4441 
L 1819 4666 
L 2450 4666 
L 2450 531 
L 3481 531 
L 3481 0 
L 794 0 
L 794 531 
z
" transform="scale(0.015625)"/>
       </defs>
       <use xlink:href="#DejaVuSans-31" transform="translate(0 0.09375)"/>
      </g>
     </g>
    </g>
    <g id="xtick_3">
     <g id="line2d_7">
      <path d="M 182.808188 232.705354 
L 182.808188 2.834646 
" clip-path="url(#p53615753e5)" style="fill: none; stroke: #000000; stroke-opacity: 0.1; stroke-width: 0.5; stroke-linecap: square"/>
     </g>
     <g id="line2d_8">
      <g>
       <use xlink:href="#mac1e48453f" x="182.808188" y="232.705354" style="stroke: #000000; stroke-width: 0.5"/>
      </g>
     </g>
     <g id="line2d_9">
      <g>
       <use xlink:href="#mf3e03946f8" x="182.808188" y="2.834646" style="stroke: #000000; stroke-width: 0.5"/>
      </g>
     </g>
     <g id="text_3">
      <!-- $2$ -->
      <g transform="translate(178.968188 245.323479)scale(0.12 -0.12)">
       <defs>
        <path id="DejaVuSans-32" d="M 1228 531 
L 3431 531 
L 3431 0 
L 469 0 
L 469 531 
Q 828 903 1448 1529 
Q 2069 2156 2228 2338 
Q 2531 2678 2651 2914 
Q 2772 3150 2772 3378 
Q 2772 3750 2511 3984 
Q 2250 4219 1831 4219 
Q 1534 4219 1204 4116 
Q 875 4013 500 3803 
L 500 4441 
Q 881 4594 1212 4672 
Q 1544 4750 1819 4750 
Q 2544 4750 2975 4387 
Q 3406 4025 3406 3419 
Q 3406 3131 3298 2873 
Q 3191 2616 2906 2266 
Q 2828 2175 2409 1742 
Q 1991 1309 1228 531 
z
" transform="scale(0.015625)"/>
       </defs>
       <use xlink:href="#DejaVuSans-32" transform="translate(0 0.78125)"/>
      </g>
     </g>
    </g>
    <g id="xtick_4">
     <g id="line2d_10">
      <path d="M 261.016812 232.705354 
L 261.016812 2.834646 
" clip-path="url(#p53615753e5)" style="fill: none; stroke: #000000; stroke-opacity: 0.1; stroke-width: 0.5; stroke-linecap: square"/>
     </g>
     <g id="line2d_11">
      <g>
       <use xlink:href="#mac1e48453f" x="261.016812" y="232.705354" style="stroke: #000000; stroke-width: 0.5"/>
      </g>
     </g>
     <g id="line2d_12">
      <g>
       <use xlink:href="#mf3e03946f8" x="261.016812" y="2.834646" style="stroke: #000000; stroke-width: 0.5"/>
      </g>
     </g>
     <g id="text_4">
      <!-- $3$ -->
      <g transform="translate(257.176812 245.323479)scale(0.12 -0.12)">
       <defs>
        <path id="DejaVuSans-33" d="M 2597 2516 
Q 3050 2419 3304 2112 
Q 3559 1806 3559 1356 
Q 3559 666 3084 287 
Q 2609 -91 1734 -91 
Q 1441 -91 1130 -33 
Q 819 25 488 141 
L 488 750 
Q 750 597 1062 519 
Q 1375 441 1716 441 
Q 2309 441 2620 675 
Q 2931 909 2931 1356 
Q 2931 1769 2642 2001 
Q 2353 2234 1838 2234 
L 1294 2234 
L 1294 2753 
L 1863 2753 
Q 2328 2753 2575 2939 
Q 2822 3125 2822 3475 
Q 2822 3834 2567 4026 
Q 2313 4219 1838 4219 
Q 1578 4219 1281 4162 
Q 984 4106 628 3988 
L 628 4550 
Q 988 4650 1302 4700 
Q 1616 4750 1894 4750 
Q 2613 4750 3031 4423 
Q 3450 4097 3450 3541 
Q 3450 3153 3228 2886 
Q 3006 2619 2597 2516 
z
" transform="scale(0.015625)"/>
       </defs>
       <use xlink:href="#DejaVuSans-33" transform="translate(0 0.78125)"/>
      </g>
     </g>
    </g>
    <g id="xtick_5">
     <g id="line2d_13">
      <path d="M 339.225436 232.705354 
L 339.225436 2.834646 
" clip-path="url(#p53615753e5)" style="fill: none; stroke: #000000; stroke-opacity: 0.1; stroke-width: 0.5; stroke-linecap: square"/>
     </g>
     <g id="line2d_14">
      <g>
       <use xlink:href="#mac1e48453f" x="339.225436" y="232.705354" style="stroke: #000000; stroke-width: 0.5"/>
      </g>
     </g>
     <g id="line2d_15">
      <g>
       <use xlink:href="#mf3e03946f8" x="339.225436" y="2.834646" style="stroke: #000000; stroke-width: 0.5"/>
      </g>
     </g>
     <g id="text_5">
      <!-- $4$ -->
      <g transform="translate(335.385436 245.323479)scale(0.12 -0.12)">
       <defs>
        <path id="DejaVuSans-34" d="M 2419 4116 
L 825 1625 
L 2419 1625 
L 2419 4116 
z
M 2253 4666 
L 3047 4666 
L 3047 1625 
L 3713 1625 
L 3713 1100 
L 3047 1100 
L 3047 0 
L 2419 0 
L 2419 1100 
L 313 1100 
L 313 1709 
L 2253 4666 
z
" transform="scale(0.015625)"/>
       </defs>
       <use xlink:href="#DejaVuSans-34" transform="translate(0 0.09375)"/>
      </g>
     </g>
    </g>
    <g id="xtick_6">
     <g id="line2d_16">
      <path d="M 417.434061 232.705354 
L 417.434061 2.834646 
" clip-path="url(#p53615753e5)" style="fill: none; stroke: #000000; stroke-opacity: 0.1; stroke-width: 0.5; stroke-linecap: square"/>
     </g>
     <g id="line2d_17">
      <g>
       <use xlink:href="#mac1e48453f" x="417.434061" y="232.705354" style="stroke: #000000; stroke-width: 0.5"/>
      </g>
     </g>
     <g id="line2d_18">
      <g>
       <use xlink:href="#mf3e03946f8" x="417.434061" y="2.834646" style="stroke: #000000; stroke-width: 0.5"/>
      </g>
     </g>
     <g id="text_6">
      <!-- $5$ -->
      <g transform="translate(413.594061 245.323479)scale(0.12 -0.12)">
       <defs>
        <path id="DejaVuSans-35" d="M 691 4666 
L 3169 4666 
L 3169 4134 
L 1269 4134 
L 1269 2991 
Q 1406 3038 1543 3061 
Q 1681 3084 1819 3084 
Q 2600 3084 3056 2656 
Q 3513 2228 3513 1497 
Q 3513 744 3044 326 
Q 2575 -91 1722 -91 
Q 1428 -91 1123 -41 
Q 819 9 494 109 
L 494 744 
Q 775 591 1075 516 
Q 1375 441 1709 441 
Q 2250 441 2565 725 
Q 2881 1009 2881 1497 
Q 2881 1984 2565 2268 
Q 2250 2553 1709 2553 
Q 1456 2553 1204 2497 
Q 953 2441 691 2322 
L 691 4666 
z
" transform="scale(0.015625)"/>
       </defs>
       <use xlink:href="#DejaVuSans-35" transform="translate(0 0.09375)"/>
      </g>
     </g>
    </g>
   </g>
   <g id="matplotlib.axis_2">
    <g id="ytick_1">
     <g id="line2d_19">
      <path d="M 14.659646 228.647631 
L 429.165354 228.647631 
" clip-path="url(#p53615753e5)" style="fill: none; stroke: #000000; stroke-opacity: 0.1; stroke-width: 0.5; stroke-linecap: square"/>
     </g>
     <g id="line2d_20">
      <defs>
       <path id="m9e14234b73" d="M 0 0 
L 2.5 0 
" style="stroke: #000000; stroke-width: 0.5"/>
      </defs>
      <g>
       <use xlink:href="#m9e14234b73" x="14.659646" y="228.647631" style="stroke: #000000; stroke-width: 0.5"/>
      </g>
     </g>
     <g id="line2d_21">
      <defs>
       <path id="mee53a25dc9" d="M 0 0 
L -2.5 0 
" style="stroke: #000000; stroke-width: 0.5"/>
      </defs>
      <g>
       <use xlink:href="#mee53a25dc9" x="429.165354" y="228.647631" style="stroke: #000000; stroke-width: 0.5"/>
      </g>
     </g>
     <g id="text_7">
      <!-- $0$ -->
      <g transform="translate(3.479646 233.206693)scale(0.12 -0.12)">
       <use xlink:href="#DejaVuSans-30" transform="translate(0 0.78125)"/>
      </g>
     </g>
    </g>
    <g id="ytick_2">
     <g id="line2d_22">
      <path d="M 14.659646 183.095393 
L 429.165354 183.095393 
" clip-path="url(#p53615753e5)" style="fill: none; stroke: #000000; stroke-opacity: 0.1; stroke-width: 0.5; stroke-linecap: square"/>
     </g>
     <g id="line2d_23">
      <g>
       <use xlink:href="#m9e14234b73" x="14.659646" y="183.095393" style="stroke: #000000; stroke-width: 0.5"/>
      </g>
     </g>
     <g id="line2d_24">
      <g>
       <use xlink:href="#mee53a25dc9" x="429.165354" y="183.095393" style="stroke: #000000; stroke-width: 0.5"/>
      </g>
     </g>
     <g id="text_8">
      <!-- $2$ -->
      <g transform="translate(3.479646 187.654456)scale(0.12 -0.12)">
       <use xlink:href="#DejaVuSans-32" transform="translate(0 0.78125)"/>
      </g>
     </g>
    </g>
    <g id="ytick_3">
     <g id="line2d_25">
      <path d="M 14.659646 137.543155 
L 429.165354 137.543155 
" clip-path="url(#p53615753e5)" style="fill: none; stroke: #000000; stroke-opacity: 0.1; stroke-width: 0.5; stroke-linecap: square"/>
     </g>
     <g id="line2d_26">
      <g>
       <use xlink:href="#m9e14234b73" x="14.659646" y="137.543155" style="stroke: #000000; stroke-width: 0.5"/>
      </g>
     </g>
     <g id="line2d_27">
      <g>
       <use xlink:href="#mee53a25dc9" x="429.165354" y="137.543155" style="stroke: #000000; stroke-width: 0.5"/>
      </g>
     </g>
     <g id="text_9">
      <!-- $4$ -->
      <g transform="translate(3.479646 142.102218)scale(0.12 -0.12)">
       <use xlink:href="#DejaVuSans-34" transform="translate(0 0.09375)"/>
      </g>
     </g>
    </g>
    <g id="ytick_4">
     <g id="line2d_28">
      <path d="M 14.659646 91.990918 
L 429.165354 91.990918 
" clip-path="url(#p53615753e5)" style="fill: none; stroke: #000000; stroke-opacity: 0.1; stroke-width: 0.5; stroke-linecap: square"/>
     </g>
     <g id="line2d_29">
      <g>
       <use xlink:href="#m9e14234b73" x="14.659646" y="91.990918" style="stroke: #000000; stroke-width: 0.5"/>
      </g>
     </g>
     <g id="line2d_30">
      <g>
       <use xlink:href="#mee53a25dc9" x="429.165354" y="91.990918" style="stroke: #000000; stroke-width: 0.5"/>
      </g>
     </g>
     <g id="text_10">
      <!-- $6$ -->
      <g transform="translate(3.479646 96.54998)scale(0.12 -0.12)">
       <defs>
        <path id="DejaVuSans-36" d="M 2113 2584 
Q 1688 2584 1439 2293 
Q 1191 2003 1191 1497 
Q 1191 994 1439 701 
Q 1688 409 2113 409 
Q 2538 409 2786 701 
Q 3034 994 3034 1497 
Q 3034 2003 2786 2293 
Q 2538 2584 2113 2584 
z
M 3366 4563 
L 3366 3988 
Q 3128 4100 2886 4159 
Q 2644 4219 2406 4219 
Q 1781 4219 1451 3797 
Q 1122 3375 1075 2522 
Q 1259 2794 1537 2939 
Q 1816 3084 2150 3084 
Q 2853 3084 3261 2657 
Q 3669 2231 3669 1497 
Q 3669 778 3244 343 
Q 2819 -91 2113 -91 
Q 1303 -91 875 529 
Q 447 1150 447 2328 
Q 447 3434 972 4092 
Q 1497 4750 2381 4750 
Q 2619 4750 2861 4703 
Q 3103 4656 3366 4563 
z
" transform="scale(0.015625)"/>
       </defs>
       <use xlink:href="#DejaVuSans-36" transform="translate(0 0.78125)"/>
      </g>
     </g>
    </g>
    <g id="ytick_5">
     <g id="line2d_31">
      <path d="M 14.659646 46.43868 
L 429.165354 46.43868 
" clip-path="url(#p53615753e5)" style="fill: none; stroke: #000000; stroke-opacity: 0.1; stroke-width: 0.5; stroke-linecap: square"/>
     </g>
     <g id="line2d_32">
      <g>
       <use xlink:href="#m9e14234b73" x="14.659646" y="46.43868" style="stroke: #000000; stroke-width: 0.5"/>
      </g>
     </g>
     <g id="line2d_33">
      <g>
       <use xlink:href="#mee53a25dc9" x="429.165354" y="46.43868" style="stroke: #000000; stroke-width: 0.5"/>
      </g>
     </g>
     <g id="text_11">
      <!-- $8$ -->
      <g transform="translate(3.479646 50.997742)scale(0.12 -0.12)">
       <defs>
        <path id="DejaVuSans-38" d="M 2034 2216 
Q 1584 2216 1326 1975 
Q 1069 1734 1069 1313 
Q 1069 891 1326 650 
Q 1584 409 2034 409 
Q 2484 409 2743 651 
Q 3003 894 3003 1313 
Q 3003 1734 2745 1975 
Q 2488 2216 2034 2216 
z
M 1403 2484 
Q 997 2584 770 2862 
Q 544 3141 544 3541 
Q 544 4100 942 4425 
Q 1341 4750 2034 4750 
Q 2731 4750 3128 4425 
Q 3525 4100 3525 3541 
Q 3525 3141 3298 2862 
Q 3072 2584 2669 2484 
Q 3125 2378 3379 2068 
Q 3634 1759 3634 1313 
Q 3634 634 3220 271 
Q 2806 -91 2034 -91 
Q 1263 -91 848 271 
Q 434 634 434 1313 
Q 434 1759 690 2068 
Q 947 2378 1403 2484 
z
M 1172 3481 
Q 1172 3119 1398 2916 
Q 1625 2713 2034 2713 
Q 2441 2713 2670 2916 
Q 2900 3119 2900 3481 
Q 2900 3844 2670 4047 
Q 2441 4250 2034 4250 
Q 1625 4250 1398 4047 
Q 1172 3844 1172 3481 
z
" transform="scale(0.015625)"/>
       </defs>
       <use xlink:href="#DejaVuSans-38" transform="translate(0 0.78125)"/>
      </g>
     </g>
    </g>
   </g>
   <g id="PathCollection_1">
    <defs>
     <path id="mff89a6e24b" d="M 0 2 
C 0.530406 2 1.03916 1.789267 1.414214 1.414214 
C 1.789267 1.03916 2 0.530406 2 0 
C 2 -0.530406 1.789267 -1.03916 1.414214 -1.414214 
C 1.03916 -1.789267 0.530406 -2 0 -2 
C -0.530406 -2 -1.03916 -1.789267 -1.414214 -1.414214 
C -1.789267 -1.03916 -2 -0.530406 -2 0 
C -2 0.530406 -1.789267 1.03916 -1.414214 1.414214 
C -1.03916 1.789267 -0.530406 2 0 2 
z
"/>
    </defs>
    <g clip-path="url(#p53615753e5)">
     <use xlink:href="#mff89a6e24b" x="26.390939" y="205.880554" style="fill: #00008b"/>
     <use xlink:href="#mff89a6e24b" x="34.211802" y="204.552668" style="fill: #00008b"/>
     <use xlink:href="#mff89a6e24b" x="42.032664" y="202.649543" style="fill: #00008b"/>
     <use xlink:href="#mff89a6e24b" x="49.853527" y="200.18592" style="fill: #00008b"/>
     <use xlink:href="#mff89a6e24b" x="57.674389" y="197.351693" style="fill: #00008b"/>
     <use xlink:href="#mff89a6e24b" x="65.495251" y="193.858774" style="fill: #00008b"/>
     <use xlink:href="#mff89a6e24b" x="73.316114" y="189.605607" style="fill: #00008b"/>
     <use xlink:href="#mff89a6e24b" x="81.136976" y="184.916797" style="fill: #00008b"/>
     <use xlink:href="#mff89a6e24b" x="88.957839" y="179.355252" style="fill: #00008b"/>
     <use xlink:href="#mff89a6e24b" x="96.778701" y="172.897779" style="fill: #00008b"/>
     <use xlink:href="#mff89a6e24b" x="104.599564" y="165.478766" style="fill: #00008b"/>
     <use xlink:href="#mff89a6e24b" x="112.420426" y="157.17111" style="fill: #00008b"/>
     <use xlink:href="#mff89a6e24b" x="120.241288" y="147.780193" style="fill: #00008b"/>
     <use xlink:href="#mff89a6e24b" x="128.062151" y="137.227762" style="fill: #00008b"/>
     <use xlink:href="#mff89a6e24b" x="135.883013" y="125.504131" style="fill: #00008b"/>
     <use xlink:href="#mff89a6e24b" x="143.703876" y="113.059425" style="fill: #00008b"/>
     <use xlink:href="#mff89a6e24b" x="151.524738" y="100.220856" style="fill: #00008b"/>
     <use xlink:href="#mff89a6e24b" x="159.345601" y="87.65546" style="fill: #00008b"/>
     <use xlink:href="#mff89a6e24b" x="167.166463" y="77.479992" style="fill: #00008b"/>
     <use xlink:href="#mff89a6e24b" x="174.987325" y="71.909562" style="fill: #00008b"/>
     <use xlink:href="#mff89a6e24b" x="182.808188" y="74.503803" style="fill: #00008b"/>
     <use xlink:href="#mff89a6e24b" x="190.62905" y="88.22959" style="fill: #00008b"/>
     <use xlink:href="#mff89a6e24b" x="198.449913" y="111.452217" style="fill: #00008b"/>
     <use xlink:href="#mff89a6e24b" x="206.270775" y="138.109533" style="fill: #00008b"/>
     <use xlink:href="#mff89a6e24b" x="214.091638" y="161.550999" style="fill: #00008b"/>
     <use xlink:href="#mff89a6e24b" x="221.9125" y="178.846126" style="fill: #00008b"/>
     <use xlink:href="#mff89a6e24b" x="229.733362" y="190.462483" style="fill: #00008b"/>
     <use xlink:href="#mff89a6e24b" x="237.554225" y="197.894064" style="fill: #00008b"/>
     <use xlink:href="#mff89a6e24b" x="245.375087" y="202.397751" style="fill: #00008b"/>
     <use xlink:href="#mff89a6e24b" x="253.19595" y="205.150973" style="fill: #00008b"/>
     <use xlink:href="#mff89a6e24b" x="261.016812" y="206.601191" style="fill: #00008b"/>
     <use xlink:href="#mff89a6e24b" x="268.837675" y="207.108382" style="fill: #00008b"/>
     <use xlink:href="#mff89a6e24b" x="276.658537" y="206.87756" style="fill: #00008b"/>
     <use xlink:href="#mff89a6e24b" x="284.479399" y="206.099598" style="fill: #00008b"/>
     <use xlink:href="#mff89a6e24b" x="292.300262" y="204.880888" style="fill: #00008b"/>
     <use xlink:href="#mff89a6e24b" x="300.121124" y="203.095148" style="fill: #00008b"/>
     <use xlink:href="#mff89a6e24b" x="307.941987" y="200.797551" style="fill: #00008b"/>
     <use xlink:href="#mff89a6e24b" x="315.762849" y="197.872881" style="fill: #00008b"/>
     <use xlink:href="#mff89a6e24b" x="323.583712" y="194.543814" style="fill: #00008b"/>
     <use xlink:href="#mff89a6e24b" x="331.404574" y="190.552297" style="fill: #00008b"/>
     <use xlink:href="#mff89a6e24b" x="339.225436" y="185.939696" style="fill: #00008b"/>
     <use xlink:href="#mff89a6e24b" x="347.046299" y="180.386027" style="fill: #00008b"/>
     <use xlink:href="#mff89a6e24b" x="354.867161" y="174.183896" style="fill: #00008b"/>
     <use xlink:href="#mff89a6e24b" x="362.688024" y="167.068923" style="fill: #00008b"/>
     <use xlink:href="#mff89a6e24b" x="370.508886" y="158.945769" style="fill: #00008b"/>
     <use xlink:href="#mff89a6e24b" x="378.329749" y="149.69853" style="fill: #00008b"/>
     <use xlink:href="#mff89a6e24b" x="386.150611" y="139.338269" style="fill: #00008b"/>
     <use xlink:href="#mff89a6e24b" x="393.971473" y="127.813904" style="fill: #00008b"/>
     <use xlink:href="#mff89a6e24b" x="401.792336" y="115.544125" style="fill: #00008b"/>
     <use xlink:href="#mff89a6e24b" x="409.613198" y="102.657454" style="fill: #00008b"/>
     <use xlink:href="#mff89a6e24b" x="417.434061" y="89.989036" style="fill: #00008b"/>
    </g>
   </g>
   <g id="PathCollection_2">
    <defs>
     <path id="m26c5b0d8e2" d="M 0 2 
C 0.530406 2 1.03916 1.789267 1.414214 1.414214 
C 1.789267 1.03916 2 0.530406 2 0 
C 2 -0.530406 1.789267 -1.03916 1.414214 -1.414214 
C 1.03916 -1.789267 0.530406 -2 0 -2 
C -0.530406 -2 -1.03916 -1.789267 -1.414214 -1.414214 
C -1.789267 -1.03916 -2 -0.530406 -2 0 
C -2 0.530406 -1.789267 1.03916 -1.414214 1.414214 
C -1.03916 1.789267 -0.530406 2 0 2 
z
"/>
    </defs>
    <g clip-path="url(#p53615753e5)">
     <use xlink:href="#m26c5b0d8e2" x="26.390939" y="205.885187" style="fill: #cc0000"/>
     <use xlink:href="#m26c5b0d8e2" x="34.211802" y="209.98785" style="fill: #cc0000"/>
     <use xlink:href="#m26c5b0d8e2" x="42.032664" y="213.155695" style="fill: #cc0000"/>
     <use xlink:href="#m26c5b0d8e2" x="49.853527" y="215.704108" style="fill: #cc0000"/>
     <use xlink:href="#m26c5b0d8e2" x="57.674389" y="217.703622" style="fill: #cc0000"/>
     <use xlink:href="#m26c5b0d8e2" x="65.495251" y="219.315226" style="fill: #cc0000"/>
     <use xlink:href="#m26c5b0d8e2" x="73.316114" y="220.522163" style="fill: #cc0000"/>
     <use xlink:href="#m26c5b0d8e2" x="81.136976" y="221.368994" style="fill: #cc0000"/>
     <use xlink:href="#m26c5b0d8e2" x="88.957839" y="222.081432" style="fill: #cc0000"/>
     <use xlink:href="#m26c5b0d8e2" x="96.778701" y="222.554075" style="fill: #cc0000"/>
     <use xlink:href="#m26c5b0d8e2" x="104.599564" y="222.701719" style="fill: #cc0000"/>
     <use xlink:href="#m26c5b0d8e2" x="112.420426" y="222.745058" style="fill: #cc0000"/>
     <use xlink:href="#m26c5b0d8e2" x="120.241288" y="222.578148" style="fill: #cc0000"/>
     <use xlink:href="#m26c5b0d8e2" x="128.062151" y="222.110731" style="fill: #cc0000"/>
     <use xlink:href="#m26c5b0d8e2" x="135.883013" y="221.207209" style="fill: #cc0000"/>
     <use xlink:href="#m26c5b0d8e2" x="143.703876" y="219.740668" style="fill: #cc0000"/>
     <use xlink:href="#m26c5b0d8e2" x="151.524738" y="217.378246" style="fill: #cc0000"/>
     <use xlink:href="#m26c5b0d8e2" x="159.345601" y="213.626782" style="fill: #cc0000"/>
     <use xlink:href="#m26c5b0d8e2" x="167.166463" y="207.349202" style="fill: #cc0000"/>
     <use xlink:href="#m26c5b0d8e2" x="174.987325" y="197.646789" style="fill: #cc0000"/>
     <use xlink:href="#m26c5b0d8e2" x="182.808188" y="182.910161" style="fill: #cc0000"/>
     <use xlink:href="#m26c5b0d8e2" x="190.62905" y="163.587387" style="fill: #cc0000"/>
     <use xlink:href="#m26c5b0d8e2" x="198.449913" y="143.503292" style="fill: #cc0000"/>
     <use xlink:href="#m26c5b0d8e2" x="206.270775" y="129.106082" style="fill: #cc0000"/>
     <use xlink:href="#m26c5b0d8e2" x="214.091638" y="124.626117" style="fill: #cc0000"/>
     <use xlink:href="#m26c5b0d8e2" x="221.9125" y="129.146512" style="fill: #cc0000"/>
     <use xlink:href="#m26c5b0d8e2" x="229.733362" y="139.394068" style="fill: #cc0000"/>
     <use xlink:href="#m26c5b0d8e2" x="237.554225" y="151.772337" style="fill: #cc0000"/>
     <use xlink:href="#m26c5b0d8e2" x="245.375087" y="164.127774" style="fill: #cc0000"/>
     <use xlink:href="#m26c5b0d8e2" x="253.19595" y="175.390887" style="fill: #cc0000"/>
     <use xlink:href="#m26c5b0d8e2" x="261.016812" y="185.023906" style="fill: #cc0000"/>
     <use xlink:href="#m26c5b0d8e2" x="268.837675" y="193.069898" style="fill: #cc0000"/>
     <use xlink:href="#m26c5b0d8e2" x="276.658537" y="199.714958" style="fill: #cc0000"/>
     <use xlink:href="#m26c5b0d8e2" x="284.479399" y="205.030217" style="fill: #cc0000"/>
     <use xlink:href="#m26c5b0d8e2" x="292.300262" y="209.255162" style="fill: #cc0000"/>
     <use xlink:href="#m26c5b0d8e2" x="300.121124" y="212.624331" style="fill: #cc0000"/>
     <use xlink:href="#m26c5b0d8e2" x="307.941987" y="215.347732" style="fill: #cc0000"/>
     <use xlink:href="#m26c5b0d8e2" x="315.762849" y="217.445764" style="fill: #cc0000"/>
     <use xlink:href="#m26c5b0d8e2" x="323.583712" y="219.026966" style="fill: #cc0000"/>
     <use xlink:href="#m26c5b0d8e2" x="331.404574" y="220.376699" style="fill: #cc0000"/>
     <use xlink:href="#m26c5b0d8e2" x="339.225436" y="221.336932" style="fill: #cc0000"/>
     <use xlink:href="#m26c5b0d8e2" x="347.046299" y="222.03087" style="fill: #cc0000"/>
     <use xlink:href="#m26c5b0d8e2" x="354.867161" y="222.446829" style="fill: #cc0000"/>
     <use xlink:href="#m26c5b0d8e2" x="362.688024" y="222.789545" style="fill: #cc0000"/>
     <use xlink:href="#m26c5b0d8e2" x="370.508886" y="222.76673" style="fill: #cc0000"/>
     <use xlink:href="#m26c5b0d8e2" x="378.329749" y="222.696059" style="fill: #cc0000"/>
     <use xlink:href="#m26c5b0d8e2" x="386.150611" y="222.17471" style="fill: #cc0000"/>
     <use xlink:href="#m26c5b0d8e2" x="393.971473" y="221.466057" style="fill: #cc0000"/>
     <use xlink:href="#m26c5b0d8e2" x="401.792336" y="220.153388" style="fill: #cc0000"/>
     <use xlink:href="#m26c5b0d8e2" x="409.613198" y="217.998704" style="fill: #cc0000"/>
     <use xlink:href="#m26c5b0d8e2" x="417.434061" y="214.526585" style="fill: #cc0000"/>
    </g>
   </g>
   <g id="patch_3">
    <path d="M 14.659646 232.705354 
L 14.659646 2.834646 
" style="fill: none; stroke: #000000; stroke-linejoin: miter; stroke-linecap: square"/>
   </g>
   <g id="patch_4">
    <path d="M 429.165354 232.705354 
L 429.165354 2.834646 
" style="fill: none; stroke: #000000; stroke-linejoin: miter; stroke-linecap: square"/>
   </g>
   <g id="patch_5">
    <path d="M 14.659646 232.705354 
L 429.165354 232.705354 
" style="fill: none; stroke: #000000; stroke-linejoin: miter; stroke-linecap: square"/>
   </g>
   <g id="patch_6">
    <path d="M 14.659646 2.834646 
L 429.165354 2.834646 
" style="fill: none; stroke: #000000; stroke-linejoin: miter; stroke-linecap: square"/>
   </g>
   <g id="line2d_34">
    <path d="M 26.390939 205.871512 
L 34.211802 204.676727 
L 42.032664 203.126551 
L 49.853527 201.23036 
L 57.674389 198.985391 
L 65.495251 196.379956 
L 73.316114 193.393887 
L 81.136976 190.001932 
L 88.957839 186.177469 
L 96.778701 181.866905 
L 104.599564 177.054155 
L 112.420426 171.651538 
L 120.241288 165.6418 
L 128.062151 158.95083 
L 135.883013 151.52497 
L 143.703876 143.27284 
L 151.524738 134.153941 
L 159.345601 124.071319 
L 167.166463 112.989152 
L 174.987325 100.846772 
L 182.808188 87.640689 
L 190.62905 73.428495 
L 198.449913 58.368316 
L 206.270775 43.080208 
L 214.091638 28.311892 
L 221.9125 15.954419 
L 229.733362 9.34042 
L 237.554225 13.412071 
L 245.375087 32.986259 
L 253.19595 67.529359 
L 261.016812 107.96663 
L 268.837675 143.092404 
L 276.658537 168.100536 
L 284.479399 184.159493 
L 292.300262 194.038548 
L 300.121124 200.028487 
L 307.941987 203.675027 
L 315.762849 205.75295 
L 323.583712 206.803131 
L 331.404574 207.114574 
L 339.225436 206.870124 
L 347.046299 206.173018 
L 354.867161 205.082337 
L 362.688024 203.629541 
L 370.508886 201.828489 
L 378.329749 199.680525 
L 386.150611 197.175513 
L 393.971473 194.295254 
L 401.792336 191.020651 
L 409.613198 187.312029 
L 417.434061 183.142878 
" clip-path="url(#p53615753e5)" style="fill: none; stroke: #00008b; stroke-width: 2"/>
   </g>
   <g id="line2d_35">
    <path d="M 26.390939 205.871512 
L 34.211802 210.517689 
L 42.032664 214.144254 
L 49.853527 216.971253 
L 57.674389 219.176304 
L 65.495251 220.895805 
L 73.316114 222.239472 
L 81.136976 223.287116 
L 88.957839 224.097942 
L 96.778701 224.736021 
L 104.599564 225.217792 
L 112.420426 225.590474 
L 120.241288 225.862626 
L 128.062151 226.051152 
L 135.883013 226.162032 
L 143.703876 226.19958 
L 151.524738 226.159324 
L 159.345601 226.026695 
L 167.166463 225.778801 
L 174.987325 225.375818 
L 182.808188 224.726471 
L 190.62905 223.714823 
L 198.449913 222.132281 
L 206.270775 219.42374 
L 214.091638 214.944199 
L 221.9125 207.226806 
L 229.733362 193.874902 
L 237.554225 171.819309 
L 245.375087 139.608335 
L 253.19595 102.775884 
L 261.016812 74.187233 
L 268.837675 64.164376 
L 276.658537 71.840636 
L 284.479399 89.924848 
L 292.300262 111.585591 
L 300.121124 132.694309 
L 307.941987 151.32143 
L 315.762849 167.002575 
L 323.583712 179.800014 
L 331.404574 190.029031 
L 339.225436 198.114873 
L 347.046299 204.466325 
L 354.867161 209.437408 
L 362.688024 213.318826 
L 370.508886 216.335447 
L 378.329749 218.68375 
L 386.150611 220.51804 
L 393.971473 221.9508 
L 401.792336 223.060689 
L 409.613198 223.934049 
L 417.434061 224.608471 
" clip-path="url(#p53615753e5)" style="fill: none; stroke: #cc0000; stroke-width: 2"/>
   </g>
  </g>
 </g>
 <defs>
  <clipPath id="p53615753e5">
   <rect x="14.659646" y="2.834646" width="414.505709" height="229.870709"/>
  </clipPath>
 </defs>
</svg>
