<?xml version="1.0" encoding="utf-8" standalone="no"?>
<!DOCTYPE svg PUBLIC "-//W3C//DTD SVG 1.1//EN"
  "http://www.w3.org/Graphics/SVG/1.1/DTD/svg11.dtd">
<svg xmlns:xlink="http://www.w3.org/1999/xlink" width="432pt" height="288pt" viewBox="0 0 432 288" xmlns="http://www.w3.org/2000/svg" version="1.1">
 <metadata>
  <rdf:RDF xmlns:dc="http://purl.org/dc/elements/1.1/" xmlns:cc="http://creativecommons.org/ns#" xmlns:rdf="http://www.w3.org/1999/02/22-rdf-syntax-ns#">
   <cc:Work>
    <dc:type rdf:resource="http://purl.org/dc/dcmitype/StillImage"/>
    <dc:date>2021-12-15T21:58:55.087038</dc:date>
    <dc:format>image/svg+xml</dc:format>
    <dc:creator>
     <cc:Agent>
      <dc:title>Matplotlib v3.5.0, https://matplotlib.org/</dc:title>
     </cc:Agent>
    </dc:creator>
   </cc:Work>
  </rdf:RDF>
 </metadata>
 <defs>
  <style type="text/css">*{stroke-linejoin: round; stroke-linecap: butt}</style>
 </defs>
 <g id="figure_1">
  <g id="patch_1">
   <path d="M 0 288 
L 432 288 
L 432 0 
L 0 0 
z
" style="fill: #ffffff"/>
  </g>
  <g id="axes_1">
   <g id="patch_2">
    <path d="M 45.662361 242.385354 
L 429.165354 242.385354 
L 429.165354 30.434646 
L 45.662361 30.434646 
z
" style="fill: #ffffff"/>
   </g>
   <g id="matplotlib.axis_1">
    <g id="xtick_1">
     <g id="line2d_1">
      <path d="M 56.516219 242.385354 
L 56.516219 30.434646 
" clip-path="url(#pb3bdcdedfb)" style="fill: none; stroke: #000000; stroke-opacity: 0.1; stroke-width: 0.5; stroke-linecap: square"/>
     </g>
     <g id="line2d_2">
      <defs>
       <path id="m85b2d37958" d="M 0 0 
L 0 -2.5 
" style="stroke: #000000; stroke-width: 0.5"/>
      </defs>
      <g>
       <use xlink:href="#m85b2d37958" x="56.516219" y="242.385354" style="stroke: #000000; stroke-width: 0.5"/>
      </g>
     </g>
     <g id="text_1">
      <!-- $0$ -->
      <g transform="translate(51.396219 258.042854)scale(0.16 -0.16)">
       <defs>
        <path id="DejaVuSans-30" d="M 2034 4250 
Q 1547 4250 1301 3770 
Q 1056 3291 1056 2328 
Q 1056 1369 1301 889 
Q 1547 409 2034 409 
Q 2525 409 2770 889 
Q 3016 1369 3016 2328 
Q 3016 3291 2770 3770 
Q 2525 4250 2034 4250 
z
M 2034 4750 
Q 2819 4750 3233 4129 
Q 3647 3509 3647 2328 
Q 3647 1150 3233 529 
Q 2819 -91 2034 -91 
Q 1250 -91 836 529 
Q 422 1150 422 2328 
Q 422 3509 836 4129 
Q 1250 4750 2034 4750 
z
" transform="scale(0.015625)"/>
       </defs>
       <use xlink:href="#DejaVuSans-30" transform="translate(0 0.78125)"/>
      </g>
     </g>
    </g>
    <g id="xtick_2">
     <g id="line2d_3">
      <path d="M 128.875274 242.385354 
L 128.875274 30.434646 
" clip-path="url(#pb3bdcdedfb)" style="fill: none; stroke: #000000; stroke-opacity: 0.1; stroke-width: 0.5; stroke-linecap: square"/>
     </g>
     <g id="line2d_4">
      <g>
       <use xlink:href="#m85b2d37958" x="128.875274" y="242.385354" style="stroke: #000000; stroke-width: 0.5"/>
      </g>
     </g>
     <g id="text_2">
      <!-- $1$ -->
      <g transform="translate(123.755274 258.042854)scale(0.16 -0.16)">
       <defs>
        <path id="DejaVuSans-31" d="M 794 531 
L 1825 531 
L 1825 4091 
L 703 3866 
L 703 4441 
L 1819 4666 
L 2450 4666 
L 2450 531 
L 3481 531 
L 3481 0 
L 794 0 
L 794 531 
z
" transform="scale(0.015625)"/>
       </defs>
       <use xlink:href="#DejaVuSans-31" transform="translate(0 0.09375)"/>
      </g>
     </g>
    </g>
    <g id="xtick_3">
     <g id="line2d_5">
      <path d="M 201.23433 242.385354 
L 201.23433 30.434646 
" clip-path="url(#pb3bdcdedfb)" style="fill: none; stroke: #000000; stroke-opacity: 0.1; stroke-width: 0.5; stroke-linecap: square"/>
     </g>
     <g id="line2d_6">
      <g>
       <use xlink:href="#m85b2d37958" x="201.23433" y="242.385354" style="stroke: #000000; stroke-width: 0.5"/>
      </g>
     </g>
     <g id="text_3">
      <!-- $2$ -->
      <g transform="translate(196.11433 258.042854)scale(0.16 -0.16)">
       <defs>
        <path id="DejaVuSans-32" d="M 1228 531 
L 3431 531 
L 3431 0 
L 469 0 
L 469 531 
Q 828 903 1448 1529 
Q 2069 2156 2228 2338 
Q 2531 2678 2651 2914 
Q 2772 3150 2772 3378 
Q 2772 3750 2511 3984 
Q 2250 4219 1831 4219 
Q 1534 4219 1204 4116 
Q 875 4013 500 3803 
L 500 4441 
Q 881 4594 1212 4672 
Q 1544 4750 1819 4750 
Q 2544 4750 2975 4387 
Q 3406 4025 3406 3419 
Q 3406 3131 3298 2873 
Q 3191 2616 2906 2266 
Q 2828 2175 2409 1742 
Q 1991 1309 1228 531 
z
" transform="scale(0.015625)"/>
       </defs>
       <use xlink:href="#DejaVuSans-32" transform="translate(0 0.78125)"/>
      </g>
     </g>
    </g>
    <g id="xtick_4">
     <g id="line2d_7">
      <path d="M 273.593385 242.385354 
L 273.593385 30.434646 
" clip-path="url(#pb3bdcdedfb)" style="fill: none; stroke: #000000; stroke-opacity: 0.1; stroke-width: 0.5; stroke-linecap: square"/>
     </g>
     <g id="line2d_8">
      <g>
       <use xlink:href="#m85b2d37958" x="273.593385" y="242.385354" style="stroke: #000000; stroke-width: 0.5"/>
      </g>
     </g>
     <g id="text_4">
      <!-- $3$ -->
      <g transform="translate(268.473385 258.042854)scale(0.16 -0.16)">
       <defs>
        <path id="DejaVuSans-33" d="M 2597 2516 
Q 3050 2419 3304 2112 
Q 3559 1806 3559 1356 
Q 3559 666 3084 287 
Q 2609 -91 1734 -91 
Q 1441 -91 1130 -33 
Q 819 25 488 141 
L 488 750 
Q 750 597 1062 519 
Q 1375 441 1716 441 
Q 2309 441 2620 675 
Q 2931 909 2931 1356 
Q 2931 1769 2642 2001 
Q 2353 2234 1838 2234 
L 1294 2234 
L 1294 2753 
L 1863 2753 
Q 2328 2753 2575 2939 
Q 2822 3125 2822 3475 
Q 2822 3834 2567 4026 
Q 2313 4219 1838 4219 
Q 1578 4219 1281 4162 
Q 984 4106 628 3988 
L 628 4550 
Q 988 4650 1302 4700 
Q 1616 4750 1894 4750 
Q 2613 4750 3031 4423 
Q 3450 4097 3450 3541 
Q 3450 3153 3228 2886 
Q 3006 2619 2597 2516 
z
" transform="scale(0.015625)"/>
       </defs>
       <use xlink:href="#DejaVuSans-33" transform="translate(0 0.78125)"/>
      </g>
     </g>
    </g>
    <g id="xtick_5">
     <g id="line2d_9">
      <path d="M 345.952441 242.385354 
L 345.952441 30.434646 
" clip-path="url(#pb3bdcdedfb)" style="fill: none; stroke: #000000; stroke-opacity: 0.1; stroke-width: 0.5; stroke-linecap: square"/>
     </g>
     <g id="line2d_10">
      <g>
       <use xlink:href="#m85b2d37958" x="345.952441" y="242.385354" style="stroke: #000000; stroke-width: 0.5"/>
      </g>
     </g>
     <g id="text_5">
      <!-- $4$ -->
      <g transform="translate(340.832441 258.042854)scale(0.16 -0.16)">
       <defs>
        <path id="DejaVuSans-34" d="M 2419 4116 
L 825 1625 
L 2419 1625 
L 2419 4116 
z
M 2253 4666 
L 3047 4666 
L 3047 1625 
L 3713 1625 
L 3713 1100 
L 3047 1100 
L 3047 0 
L 2419 0 
L 2419 1100 
L 313 1100 
L 313 1709 
L 2253 4666 
z
" transform="scale(0.015625)"/>
       </defs>
       <use xlink:href="#DejaVuSans-34" transform="translate(0 0.09375)"/>
      </g>
     </g>
    </g>
    <g id="xtick_6">
     <g id="line2d_11">
      <path d="M 418.311496 242.385354 
L 418.311496 30.434646 
" clip-path="url(#pb3bdcdedfb)" style="fill: none; stroke: #000000; stroke-opacity: 0.1; stroke-width: 0.5; stroke-linecap: square"/>
     </g>
     <g id="line2d_12">
      <g>
       <use xlink:href="#m85b2d37958" x="418.311496" y="242.385354" style="stroke: #000000; stroke-width: 0.5"/>
      </g>
     </g>
     <g id="text_6">
      <!-- $5$ -->
      <g transform="translate(413.191496 258.042854)scale(0.16 -0.16)">
       <defs>
        <path id="DejaVuSans-35" d="M 691 4666 
L 3169 4666 
L 3169 4134 
L 1269 4134 
L 1269 2991 
Q 1406 3038 1543 3061 
Q 1681 3084 1819 3084 
Q 2600 3084 3056 2656 
Q 3513 2228 3513 1497 
Q 3513 744 3044 326 
Q 2575 -91 1722 -91 
Q 1428 -91 1123 -41 
Q 819 9 494 109 
L 494 744 
Q 775 591 1075 516 
Q 1375 441 1709 441 
Q 2250 441 2565 725 
Q 2881 1009 2881 1497 
Q 2881 1984 2565 2268 
Q 2250 2553 1709 2553 
Q 1456 2553 1204 2497 
Q 953 2441 691 2322 
L 691 4666 
z
" transform="scale(0.015625)"/>
       </defs>
       <use xlink:href="#DejaVuSans-35" transform="translate(0 0.09375)"/>
      </g>
     </g>
    </g>
    <g id="text_7">
     <!-- t [s] -->
     <g transform="translate(215.291826 282.086917)scale(0.22 -0.22)">
      <defs>
       <path id="DejaVuSans-74" d="M 1172 4494 
L 1172 3500 
L 2356 3500 
L 2356 3053 
L 1172 3053 
L 1172 1153 
Q 1172 725 1289 603 
Q 1406 481 1766 481 
L 2356 481 
L 2356 0 
L 1766 0 
Q 1100 0 847 248 
Q 594 497 594 1153 
L 594 3053 
L 172 3053 
L 172 3500 
L 594 3500 
L 594 4494 
L 1172 4494 
z
" transform="scale(0.015625)"/>
       <path id="DejaVuSans-20" transform="scale(0.015625)"/>
       <path id="DejaVuSans-5b" d="M 550 4863 
L 1875 4863 
L 1875 4416 
L 1125 4416 
L 1125 -397 
L 1875 -397 
L 1875 -844 
L 550 -844 
L 550 4863 
z
" transform="scale(0.015625)"/>
       <path id="DejaVuSans-73" d="M 2834 3397 
L 2834 2853 
Q 2591 2978 2328 3040 
Q 2066 3103 1784 3103 
Q 1356 3103 1142 2972 
Q 928 2841 928 2578 
Q 928 2378 1081 2264 
Q 1234 2150 1697 2047 
L 1894 2003 
Q 2506 1872 2764 1633 
Q 3022 1394 3022 966 
Q 3022 478 2636 193 
Q 2250 -91 1575 -91 
Q 1294 -91 989 -36 
Q 684 19 347 128 
L 347 722 
Q 666 556 975 473 
Q 1284 391 1588 391 
Q 1994 391 2212 530 
Q 2431 669 2431 922 
Q 2431 1156 2273 1281 
Q 2116 1406 1581 1522 
L 1381 1569 
Q 847 1681 609 1914 
Q 372 2147 372 2553 
Q 372 3047 722 3315 
Q 1072 3584 1716 3584 
Q 2034 3584 2315 3537 
Q 2597 3491 2834 3397 
z
" transform="scale(0.015625)"/>
       <path id="DejaVuSans-5d" d="M 1947 4863 
L 1947 -844 
L 622 -844 
L 622 -397 
L 1369 -397 
L 1369 4416 
L 622 4416 
L 622 4863 
L 1947 4863 
z
" transform="scale(0.015625)"/>
      </defs>
      <use xlink:href="#DejaVuSans-74"/>
      <use xlink:href="#DejaVuSans-20" x="39.208984"/>
      <use xlink:href="#DejaVuSans-5b" x="70.996094"/>
      <use xlink:href="#DejaVuSans-73" x="110.009766"/>
      <use xlink:href="#DejaVuSans-5d" x="162.109375"/>
     </g>
    </g>
   </g>
   <g id="matplotlib.axis_2">
    <g id="ytick_1">
     <g id="line2d_13">
      <path d="M 45.662361 240.319131 
L 429.165354 240.319131 
" clip-path="url(#pb3bdcdedfb)" style="fill: none; stroke: #000000; stroke-opacity: 0.1; stroke-width: 0.5; stroke-linecap: square"/>
     </g>
     <g id="line2d_14">
      <defs>
       <path id="me629b815e9" d="M 0 0 
L 2.5 0 
" style="stroke: #000000; stroke-width: 0.5"/>
      </defs>
      <g>
       <use xlink:href="#me629b815e9" x="45.662361" y="240.319131" style="stroke: #000000; stroke-width: 0.5"/>
      </g>
     </g>
     <g id="text_8">
      <!-- $-1.0$ -->
      <g transform="translate(3.282361 246.397881)scale(0.16 -0.16)">
       <defs>
        <path id="DejaVuSans-2212" d="M 678 2272 
L 4684 2272 
L 4684 1741 
L 678 1741 
L 678 2272 
z
" transform="scale(0.015625)"/>
        <path id="DejaVuSans-2e" d="M 684 794 
L 1344 794 
L 1344 0 
L 684 0 
L 684 794 
z
" transform="scale(0.015625)"/>
       </defs>
       <use xlink:href="#DejaVuSans-2212" transform="translate(0 0.78125)"/>
       <use xlink:href="#DejaVuSans-31" transform="translate(83.789062 0.78125)"/>
       <use xlink:href="#DejaVuSans-2e" transform="translate(147.412109 0.78125)"/>
       <use xlink:href="#DejaVuSans-30" transform="translate(179.199219 0.78125)"/>
      </g>
     </g>
    </g>
    <g id="ytick_2">
     <g id="line2d_15">
      <path d="M 45.662361 184.040355 
L 429.165354 184.040355 
" clip-path="url(#pb3bdcdedfb)" style="fill: none; stroke: #000000; stroke-opacity: 0.1; stroke-width: 0.5; stroke-linecap: square"/>
     </g>
     <g id="line2d_16">
      <g>
       <use xlink:href="#me629b815e9" x="45.662361" y="184.040355" style="stroke: #000000; stroke-width: 0.5"/>
      </g>
     </g>
     <g id="text_9">
      <!-- $-0.5$ -->
      <g transform="translate(3.282361 190.119105)scale(0.16 -0.16)">
       <use xlink:href="#DejaVuSans-2212" transform="translate(0 0.78125)"/>
       <use xlink:href="#DejaVuSans-30" transform="translate(83.789062 0.78125)"/>
       <use xlink:href="#DejaVuSans-2e" transform="translate(147.412109 0.78125)"/>
       <use xlink:href="#DejaVuSans-35" transform="translate(179.199219 0.78125)"/>
      </g>
     </g>
    </g>
    <g id="ytick_3">
     <g id="line2d_17">
      <path d="M 45.662361 127.76158 
L 429.165354 127.76158 
" clip-path="url(#pb3bdcdedfb)" style="fill: none; stroke: #000000; stroke-opacity: 0.1; stroke-width: 0.5; stroke-linecap: square"/>
     </g>
     <g id="line2d_18">
      <g>
       <use xlink:href="#me629b815e9" x="45.662361" y="127.76158" style="stroke: #000000; stroke-width: 0.5"/>
      </g>
     </g>
     <g id="text_10">
      <!-- $0.0$ -->
      <g transform="translate(16.562361 133.84033)scale(0.16 -0.16)">
       <use xlink:href="#DejaVuSans-30" transform="translate(0 0.78125)"/>
       <use xlink:href="#DejaVuSans-2e" transform="translate(63.623047 0.78125)"/>
       <use xlink:href="#DejaVuSans-30" transform="translate(95.410156 0.78125)"/>
      </g>
     </g>
    </g>
    <g id="ytick_4">
     <g id="line2d_19">
      <path d="M 45.662361 71.482804 
L 429.165354 71.482804 
" clip-path="url(#pb3bdcdedfb)" style="fill: none; stroke: #000000; stroke-opacity: 0.1; stroke-width: 0.5; stroke-linecap: square"/>
     </g>
     <g id="line2d_20">
      <g>
       <use xlink:href="#me629b815e9" x="45.662361" y="71.482804" style="stroke: #000000; stroke-width: 0.5"/>
      </g>
     </g>
     <g id="text_11">
      <!-- $0.5$ -->
      <g transform="translate(16.562361 77.561554)scale(0.16 -0.16)">
       <use xlink:href="#DejaVuSans-30" transform="translate(0 0.78125)"/>
       <use xlink:href="#DejaVuSans-2e" transform="translate(63.623047 0.78125)"/>
       <use xlink:href="#DejaVuSans-35" transform="translate(95.410156 0.78125)"/>
      </g>
     </g>
    </g>
   </g>
   <g id="line2d_21">
    <path d="M 418.311496 127.76158 
L 416.403461 127.703332 
L 411.07559 127.538985 
" clip-path="url(#pb3bdcdedfb)" style="fill: none; stroke: #009afa"/>
   </g>
   <g id="line2d_22">
    <path d="M 418.311496 127.76158 
L 416.403461 127.796401 
L 411.07559 127.881686 
" clip-path="url(#pb3bdcdedfb)" style="fill: none; stroke: #e36f47"/>
   </g>
   <g id="patch_3">
    <path d="M 45.662361 242.385354 
L 45.662361 30.434646 
" style="fill: none; stroke: #000000; stroke-linejoin: miter; stroke-linecap: square"/>
   </g>
   <g id="patch_4">
    <path d="M 45.662361 242.385354 
L 429.165354 242.385354 
" style="fill: none; stroke: #000000; stroke-linejoin: miter; stroke-linecap: square"/>
   </g>
   <g id="line2d_23">
    <path d="M 411.07559 127.538985 
L 408.939461 127.424157 
L 403.839685 127.148066 
" clip-path="url(#pb3bdcdedfb)" style="fill: none; stroke: #3ea44e"/>
   </g>
   <g id="text_12">
    <!-- Adjoint State -->
    <g transform="translate(146.98042 24.434646)scale(0.28 -0.28)">
     <defs>
      <path id="DejaVuSans-41" d="M 2188 4044 
L 1331 1722 
L 3047 1722 
L 2188 4044 
z
M 1831 4666 
L 2547 4666 
L 4325 0 
L 3669 0 
L 3244 1197 
L 1141 1197 
L 716 0 
L 50 0 
L 1831 4666 
z
" transform="scale(0.015625)"/>
      <path id="DejaVuSans-64" d="M 2906 2969 
L 2906 4863 
L 3481 4863 
L 3481 0 
L 2906 0 
L 2906 525 
Q 2725 213 2448 61 
Q 2172 -91 1784 -91 
Q 1150 -91 751 415 
Q 353 922 353 1747 
Q 353 2572 751 3078 
Q 1150 3584 1784 3584 
Q 2172 3584 2448 3432 
Q 2725 3281 2906 2969 
z
M 947 1747 
Q 947 1113 1208 752 
Q 1469 391 1925 391 
Q 2381 391 2643 752 
Q 2906 1113 2906 1747 
Q 2906 2381 2643 2742 
Q 2381 3103 1925 3103 
Q 1469 3103 1208 2742 
Q 947 2381 947 1747 
z
" transform="scale(0.015625)"/>
      <path id="DejaVuSans-6a" d="M 603 3500 
L 1178 3500 
L 1178 -63 
Q 1178 -731 923 -1031 
Q 669 -1331 103 -1331 
L -116 -1331 
L -116 -844 
L 38 -844 
Q 366 -844 484 -692 
Q 603 -541 603 -63 
L 603 3500 
z
M 603 4863 
L 1178 4863 
L 1178 4134 
L 603 4134 
L 603 4863 
z
" transform="scale(0.015625)"/>
      <path id="DejaVuSans-6f" d="M 1959 3097 
Q 1497 3097 1228 2736 
Q 959 2375 959 1747 
Q 959 1119 1226 758 
Q 1494 397 1959 397 
Q 2419 397 2687 759 
Q 2956 1122 2956 1747 
Q 2956 2369 2687 2733 
Q 2419 3097 1959 3097 
z
M 1959 3584 
Q 2709 3584 3137 3096 
Q 3566 2609 3566 1747 
Q 3566 888 3137 398 
Q 2709 -91 1959 -91 
Q 1206 -91 779 398 
Q 353 888 353 1747 
Q 353 2609 779 3096 
Q 1206 3584 1959 3584 
z
" transform="scale(0.015625)"/>
      <path id="DejaVuSans-69" d="M 603 3500 
L 1178 3500 
L 1178 0 
L 603 0 
L 603 3500 
z
M 603 4863 
L 1178 4863 
L 1178 4134 
L 603 4134 
L 603 4863 
z
" transform="scale(0.015625)"/>
      <path id="DejaVuSans-6e" d="M 3513 2113 
L 3513 0 
L 2938 0 
L 2938 2094 
Q 2938 2591 2744 2837 
Q 2550 3084 2163 3084 
Q 1697 3084 1428 2787 
Q 1159 2491 1159 1978 
L 1159 0 
L 581 0 
L 581 3500 
L 1159 3500 
L 1159 2956 
Q 1366 3272 1645 3428 
Q 1925 3584 2291 3584 
Q 2894 3584 3203 3211 
Q 3513 2838 3513 2113 
z
" transform="scale(0.015625)"/>
      <path id="DejaVuSans-53" d="M 3425 4513 
L 3425 3897 
Q 3066 4069 2747 4153 
Q 2428 4238 2131 4238 
Q 1616 4238 1336 4038 
Q 1056 3838 1056 3469 
Q 1056 3159 1242 3001 
Q 1428 2844 1947 2747 
L 2328 2669 
Q 3034 2534 3370 2195 
Q 3706 1856 3706 1288 
Q 3706 609 3251 259 
Q 2797 -91 1919 -91 
Q 1588 -91 1214 -16 
Q 841 59 441 206 
L 441 856 
Q 825 641 1194 531 
Q 1563 422 1919 422 
Q 2459 422 2753 634 
Q 3047 847 3047 1241 
Q 3047 1584 2836 1778 
Q 2625 1972 2144 2069 
L 1759 2144 
Q 1053 2284 737 2584 
Q 422 2884 422 3419 
Q 422 4038 858 4394 
Q 1294 4750 2059 4750 
Q 2388 4750 2728 4690 
Q 3069 4631 3425 4513 
z
" transform="scale(0.015625)"/>
      <path id="DejaVuSans-61" d="M 2194 1759 
Q 1497 1759 1228 1600 
Q 959 1441 959 1056 
Q 959 750 1161 570 
Q 1363 391 1709 391 
Q 2188 391 2477 730 
Q 2766 1069 2766 1631 
L 2766 1759 
L 2194 1759 
z
M 3341 1997 
L 3341 0 
L 2766 0 
L 2766 531 
Q 2569 213 2275 61 
Q 1981 -91 1556 -91 
Q 1019 -91 701 211 
Q 384 513 384 1019 
Q 384 1609 779 1909 
Q 1175 2209 1959 2209 
L 2766 2209 
L 2766 2266 
Q 2766 2663 2505 2880 
Q 2244 3097 1772 3097 
Q 1472 3097 1187 3025 
Q 903 2953 641 2809 
L 641 3341 
Q 956 3463 1253 3523 
Q 1550 3584 1831 3584 
Q 2591 3584 2966 3190 
Q 3341 2797 3341 1997 
z
" transform="scale(0.015625)"/>
      <path id="DejaVuSans-65" d="M 3597 1894 
L 3597 1613 
L 953 1613 
Q 991 1019 1311 708 
Q 1631 397 2203 397 
Q 2534 397 2845 478 
Q 3156 559 3463 722 
L 3463 178 
Q 3153 47 2828 -22 
Q 2503 -91 2169 -91 
Q 1331 -91 842 396 
Q 353 884 353 1716 
Q 353 2575 817 3079 
Q 1281 3584 2069 3584 
Q 2775 3584 3186 3129 
Q 3597 2675 3597 1894 
z
M 3022 2063 
Q 3016 2534 2758 2815 
Q 2500 3097 2075 3097 
Q 1594 3097 1305 2825 
Q 1016 2553 972 2059 
L 3022 2063 
z
" transform="scale(0.015625)"/>
     </defs>
     <use xlink:href="#DejaVuSans-41"/>
     <use xlink:href="#DejaVuSans-64" x="66.658203"/>
     <use xlink:href="#DejaVuSans-6a" x="130.134766"/>
     <use xlink:href="#DejaVuSans-6f" x="157.917969"/>
     <use xlink:href="#DejaVuSans-69" x="219.099609"/>
     <use xlink:href="#DejaVuSans-6e" x="246.882812"/>
     <use xlink:href="#DejaVuSans-74" x="310.261719"/>
     <use xlink:href="#DejaVuSans-20" x="349.470703"/>
     <use xlink:href="#DejaVuSans-53" x="381.257812"/>
     <use xlink:href="#DejaVuSans-74" x="444.734375"/>
     <use xlink:href="#DejaVuSans-61" x="483.943359"/>
     <use xlink:href="#DejaVuSans-74" x="545.222656"/>
     <use xlink:href="#DejaVuSans-65" x="584.431641"/>
    </g>
   </g>
   <g id="line2d_24">
    <path d="M 411.07559 127.881686 
L 408.939461 127.933671 
L 403.839685 128.045262 
" clip-path="url(#pb3bdcdedfb)" style="fill: none; stroke: #c371d2"/>
   </g>
   <g id="line2d_25">
    <path d="M 403.839685 127.148066 
L 401.288949 126.966744 
L 396.603779 126.631841 
" clip-path="url(#pb3bdcdedfb)" style="fill: none; stroke: #ac8e18"/>
   </g>
   <g id="line2d_26">
    <path d="M 403.839685 128.045262 
L 401.288949 128.111051 
L 396.603779 128.222533 
" clip-path="url(#pb3bdcdedfb)" style="fill: none; stroke: #00aaae"/>
   </g>
   <g id="line2d_27">
    <path d="M 396.603779 126.631841 
L 393.681892 126.386521 
L 389.367874 126.022591 
" clip-path="url(#pb3bdcdedfb)" style="fill: none; stroke: #ed5e93"/>
   </g>
   <g id="line2d_28">
    <path d="M 396.603779 128.222533 
L 393.681892 128.298126 
L 389.367874 128.403945 
" clip-path="url(#pb3bdcdedfb)" style="fill: none; stroke: #c68225"/>
   </g>
   <g id="line2d_29">
    <path d="M 389.367874 126.022591 
L 386.217256 125.727879 
L 382.131968 125.343917 
" clip-path="url(#pb3bdcdedfb)" style="fill: none; stroke: #00a98d"/>
   </g>
   <g id="line2d_30">
    <path d="M 389.367874 128.403945 
L 386.217256 128.48557 
L 382.131968 128.588165 
" clip-path="url(#pb3bdcdedfb)" style="fill: none; stroke: #8e971e"/>
   </g>
   <g id="line2d_31">
    <path d="M 382.131968 125.343917 
L 378.815208 125.009611 
L 374.896063 124.612655 
" clip-path="url(#pb3bdcdedfb)" style="fill: none; stroke: #00a9cc"/>
   </g>
   <g id="line2d_32">
    <path d="M 382.131968 128.588165 
L 378.815208 128.675276 
L 374.896063 128.77742 
" clip-path="url(#pb3bdcdedfb)" style="fill: none; stroke: #9b7fe9"/>
   </g>
   <g id="line2d_33">
    <path d="M 374.896063 124.612655 
L 371.420932 124.243003 
L 367.660157 123.840877 
" clip-path="url(#pb3bdcdedfb)" style="fill: none; stroke: #618df6"/>
   </g>
   <g id="line2d_34">
    <path d="M 374.896063 128.77742 
L 371.420932 128.872221 
L 367.660157 128.975908 
" clip-path="url(#pb3bdcdedfb)" style="fill: none; stroke: #f06073"/>
   </g>
   <g id="line2d_35">
    <path d="M 367.660157 123.840877 
L 364.018304 123.437366 
L 360.424252 123.036878 
" clip-path="url(#pb3bdcdedfb)" style="fill: none; stroke: #dd65b6"/>
   </g>
   <g id="line2d_36">
    <path d="M 367.660157 128.975908 
L 364.018304 129.081477 
L 360.424252 129.188672 
" clip-path="url(#pb3bdcdedfb)" style="fill: none; stroke: #6c9f33"/>
   </g>
   <g id="line2d_37">
    <path d="M 360.424252 123.036878 
L 356.627303 122.602299 
L 353.188346 122.206238 
" clip-path="url(#pb3bdcdedfb)" style="fill: none; stroke: #009afa"/>
   </g>
   <g id="line2d_38">
    <path d="M 360.424252 129.188672 
L 356.627303 129.308653 
L 353.188346 129.422143 
" clip-path="url(#pb3bdcdedfb)" style="fill: none; stroke: #e36f47"/>
   </g>
   <g id="line2d_39">
    <path d="M 353.188346 122.206238 
L 349.278382 121.746401 
L 345.952441 121.352578 
" clip-path="url(#pb3bdcdedfb)" style="fill: none; stroke: #3ea44e"/>
   </g>
   <g id="line2d_40">
    <path d="M 353.188346 129.422143 
L 349.278382 129.55997 
L 345.952441 129.684111 
" clip-path="url(#pb3bdcdedfb)" style="fill: none; stroke: #c371d2"/>
   </g>
   <g id="line2d_41">
    <path d="M 345.952441 121.352578 
L 341.993471 120.875654 
L 338.716535 120.477859 
" clip-path="url(#pb3bdcdedfb)" style="fill: none; stroke: #ac8e18"/>
   </g>
   <g id="line2d_42">
    <path d="M 345.952441 129.684111 
L 341.993471 129.843171 
L 338.716535 129.984178 
" clip-path="url(#pb3bdcdedfb)" style="fill: none; stroke: #00aaae"/>
   </g>
   <g id="line2d_43">
    <path d="M 338.716535 120.477859 
L 334.786499 119.993683 
L 331.480629 119.582993 
" clip-path="url(#pb3bdcdedfb)" style="fill: none; stroke: #ed5e93"/>
   </g>
   <g id="line2d_44">
    <path d="M 338.716535 129.984178 
L 334.786499 130.167601 
L 331.480629 130.334674 
" clip-path="url(#pb3bdcdedfb)" style="fill: none; stroke: #c68225"/>
   </g>
   <g id="line2d_45">
    <path d="M 331.480629 119.582993 
L 327.616328 119.096403 
L 324.244724 118.667769 
" clip-path="url(#pb3bdcdedfb)" style="fill: none; stroke: #00a98d"/>
   </g>
   <g id="line2d_46">
    <path d="M 331.480629 130.334674 
L 327.616328 130.547939 
L 324.244724 130.751134 
" clip-path="url(#pb3bdcdedfb)" style="fill: none; stroke: #8e971e"/>
   </g>
   <g id="line2d_47">
    <path d="M 324.244724 118.667769 
L 320.476208 118.182373 
L 317.008818 117.73099 
" clip-path="url(#pb3bdcdedfb)" style="fill: none; stroke: #00a9cc"/>
   </g>
   <g id="line2d_48">
    <path d="M 324.244724 130.751134 
L 320.476208 131.000815 
L 317.008818 131.253899 
" clip-path="url(#pb3bdcdedfb)" style="fill: none; stroke: #9b7fe9"/>
   </g>
   <g id="line2d_49">
    <path d="M 317.008818 117.73099 
L 313.342085 117.247298 
L 309.772913 116.770679 
" clip-path="url(#pb3bdcdedfb)" style="fill: none; stroke: #618df6"/>
   </g>
   <g id="line2d_50">
    <path d="M 317.008818 131.253899 
L 313.342085 131.549977 
L 309.772913 131.869594 
" clip-path="url(#pb3bdcdedfb)" style="fill: none; stroke: #f06073"/>
   </g>
   <g id="line2d_51">
    <path d="M 309.772913 116.770679 
L 306.207915 116.287822 
L 302.537007 115.78359 
" clip-path="url(#pb3bdcdedfb)" style="fill: none; stroke: #dd65b6"/>
   </g>
   <g id="line2d_52">
    <path d="M 309.772913 131.869594 
L 306.207915 132.224699 
L 302.537007 132.632844 
" clip-path="url(#pb3bdcdedfb)" style="fill: none; stroke: #6c9f33"/>
   </g>
   <g id="line2d_53">
    <path d="M 302.537007 115.78359 
L 299.080875 115.301415 
L 295.301102 114.765422 
" clip-path="url(#pb3bdcdedfb)" style="fill: none; stroke: #009afa"/>
   </g>
   <g id="line2d_54">
    <path d="M 302.537007 132.632844 
L 299.080875 133.062617 
L 295.301102 133.590429 
" clip-path="url(#pb3bdcdedfb)" style="fill: none; stroke: #e36f47"/>
   </g>
   <g id="line2d_55">
    <path d="M 295.301102 114.765422 
L 291.951452 114.28197 
L 288.065196 113.710266 
" clip-path="url(#pb3bdcdedfb)" style="fill: none; stroke: #3ea44e"/>
   </g>
   <g id="line2d_56">
    <path d="M 295.301102 133.590429 
L 291.951452 134.116111 
L 288.065196 134.80435 
" clip-path="url(#pb3bdcdedfb)" style="fill: none; stroke: #c371d2"/>
   </g>
   <g id="line2d_57">
    <path d="M 288.065196 113.710266 
L 284.820461 113.223139 
L 280.829291 112.610424 
" clip-path="url(#pb3bdcdedfb)" style="fill: none; stroke: #ac8e18"/>
   </g>
   <g id="line2d_58">
    <path d="M 288.065196 134.80435 
L 284.820461 135.452783 
L 280.829291 136.356733 
" clip-path="url(#pb3bdcdedfb)" style="fill: none; stroke: #00aaae"/>
   </g>
   <g id="line2d_59">
    <path d="M 280.829291 112.610424 
L 277.691175 112.117232 
L 273.593385 111.456147 
" clip-path="url(#pb3bdcdedfb)" style="fill: none; stroke: #ed5e93"/>
   </g>
   <g id="line2d_60">
    <path d="M 280.829291 136.356733 
L 277.691175 137.161631 
L 273.593385 138.357343 
" clip-path="url(#pb3bdcdedfb)" style="fill: none; stroke: #c68225"/>
   </g>
   <g id="line2d_61">
    <path d="M 273.593385 111.456147 
L 270.564589 110.953834 
L 266.35748 110.23399 
" clip-path="url(#pb3bdcdedfb)" style="fill: none; stroke: #00a98d"/>
   </g>
   <g id="line2d_62">
    <path d="M 273.593385 138.357343 
L 270.564589 139.361204 
L 266.35748 140.9522 
" clip-path="url(#pb3bdcdedfb)" style="fill: none; stroke: #8e971e"/>
   </g>
   <g id="line2d_63">
    <path d="M 266.35748 110.23399 
L 263.437658 109.717973 
L 259.121574 108.927388 
" clip-path="url(#pb3bdcdedfb)" style="fill: none; stroke: #00a9cc"/>
   </g>
   <g id="line2d_64">
    <path d="M 266.35748 140.9522 
L 263.437658 142.208183 
L 259.121574 144.326803 
" clip-path="url(#pb3bdcdedfb)" style="fill: none; stroke: #9b7fe9"/>
   </g>
   <g id="line2d_65">
    <path d="M 259.121574 108.927388 
L 256.31312 108.393885 
L 251.885669 107.518485 
" clip-path="url(#pb3bdcdedfb)" style="fill: none; stroke: #618df6"/>
   </g>
   <g id="line2d_66">
    <path d="M 259.121574 144.326803 
L 256.31312 145.892419 
L 251.885669 148.700073 
" clip-path="url(#pb3bdcdedfb)" style="fill: none; stroke: #f06073"/>
   </g>
   <g id="line2d_67">
    <path d="M 251.885669 107.518485 
L 249.19479 106.964179 
L 244.649763 105.985042 
" clip-path="url(#pb3bdcdedfb)" style="fill: none; stroke: #dd65b6"/>
   </g>
   <g id="line2d_68">
    <path d="M 251.885669 148.700073 
L 249.19479 150.628481 
L 244.649763 154.303882 
" clip-path="url(#pb3bdcdedfb)" style="fill: none; stroke: #6c9f33"/>
   </g>
   <g id="line2d_69">
    <path d="M 244.649763 105.985042 
L 242.078449 105.405007 
L 237.413857 104.301009 
" clip-path="url(#pb3bdcdedfb)" style="fill: none; stroke: #009afa"/>
   </g>
   <g id="line2d_70">
    <path d="M 244.649763 154.303882 
L 242.078449 156.629459 
L 237.413857 161.309787 
" clip-path="url(#pb3bdcdedfb)" style="fill: none; stroke: #e36f47"/>
   </g>
   <g id="line2d_71">
    <path d="M 237.413857 104.301009 
L 234.951248 103.686402 
L 230.177952 102.435241 
" clip-path="url(#pb3bdcdedfb)" style="fill: none; stroke: #3ea44e"/>
   </g>
   <g id="line2d_72">
    <path d="M 237.413857 161.309787 
L 234.951248 164.027451 
L 230.177952 169.698575 
" clip-path="url(#pb3bdcdedfb)" style="fill: none; stroke: #c371d2"/>
   </g>
   <g id="line2d_73">
    <path d="M 230.177952 102.435241 
L 227.798949 101.766784 
L 222.942046 100.341372 
" clip-path="url(#pb3bdcdedfb)" style="fill: none; stroke: #ac8e18"/>
   </g>
   <g id="line2d_74">
    <path d="M 230.177952 169.698575 
L 227.798949 172.74892 
L 222.942046 179.130853 
" clip-path="url(#pb3bdcdedfb)" style="fill: none; stroke: #00aaae"/>
   </g>
   <g id="line2d_75">
    <path d="M 222.942046 100.341372 
L 220.61776 99.58246 
L 215.706141 97.940582 
" clip-path="url(#pb3bdcdedfb)" style="fill: none; stroke: #ed5e93"/>
   </g>
   <g id="line2d_76">
    <path d="M 222.942046 179.130853 
L 220.61776 182.388601 
L 215.706141 188.931288 
" clip-path="url(#pb3bdcdedfb)" style="fill: none; stroke: #c68225"/>
   </g>
   <g id="line2d_77">
    <path d="M 215.706141 97.940582 
L 213.297823 97.019513 
L 208.470235 95.197653 
" clip-path="url(#pb3bdcdedfb)" style="fill: none; stroke: #00a98d"/>
   </g>
   <g id="line2d_78">
    <path d="M 215.706141 188.931288 
L 213.297823 192.245868 
L 208.470235 198.002664 
" clip-path="url(#pb3bdcdedfb)" style="fill: none; stroke: #8e971e"/>
   </g>
   <g id="line2d_79">
    <path d="M 208.470235 95.197653 
L 205.676605 94.017765 
L 201.23433 92.226811 
" clip-path="url(#pb3bdcdedfb)" style="fill: none; stroke: #00a9cc"/>
   </g>
   <g id="line2d_80">
    <path d="M 208.470235 198.002664 
L 205.676605 201.169261 
L 201.23433 205.212629 
" clip-path="url(#pb3bdcdedfb)" style="fill: none; stroke: #9b7fe9"/>
   </g>
   <g id="line2d_81">
    <path d="M 201.23433 92.226811 
L 197.967004 90.813368 
L 193.998424 89.200867 
" clip-path="url(#pb3bdcdedfb)" style="fill: none; stroke: #618df6"/>
   </g>
   <g id="line2d_82">
    <path d="M 201.23433 205.212629 
L 197.967004 207.822031 
L 193.998424 210.276512 
" clip-path="url(#pb3bdcdedfb)" style="fill: none; stroke: #f06073"/>
   </g>
   <g id="line2d_83">
    <path d="M 193.998424 89.200867 
L 190.763083 87.82691 
L 186.762519 86.231418 
" clip-path="url(#pb3bdcdedfb)" style="fill: none; stroke: #dd65b6"/>
   </g>
   <g id="line2d_84">
    <path d="M 193.998424 210.276512 
L 190.763083 211.998055 
L 186.762519 213.653116 
" clip-path="url(#pb3bdcdedfb)" style="fill: none; stroke: #6c9f33"/>
   </g>
   <g id="line2d_85">
    <path d="M 186.762519 86.231418 
L 183.568109 84.922458 
L 179.526613 83.352056 
" clip-path="url(#pb3bdcdedfb)" style="fill: none; stroke: #009afa"/>
   </g>
   <g id="line2d_86">
    <path d="M 186.762519 213.653116 
L 183.568109 214.783108 
L 179.526613 215.92279 
" clip-path="url(#pb3bdcdedfb)" style="fill: none; stroke: #e36f47"/>
   </g>
   <g id="line2d_87">
    <path d="M 179.526613 83.352056 
L 176.307688 82.079063 
L 172.290708 80.556854 
" clip-path="url(#pb3bdcdedfb)" style="fill: none; stroke: #3ea44e"/>
   </g>
   <g id="line2d_88">
    <path d="M 179.526613 215.92279 
L 176.307688 216.707704 
L 172.290708 217.520172 
" clip-path="url(#pb3bdcdedfb)" style="fill: none; stroke: #c371d2"/>
   </g>
   <g id="line2d_89">
    <path d="M 172.290708 80.556854 
L 169.012413 79.299918 
L 165.054802 77.829983 
" clip-path="url(#pb3bdcdedfb)" style="fill: none; stroke: #ac8e18"/>
   </g>
   <g id="line2d_90">
    <path d="M 172.290708 217.520172 
L 169.012413 218.107941 
L 165.054802 218.719189 
" clip-path="url(#pb3bdcdedfb)" style="fill: none; stroke: #00aaae"/>
   </g>
   <g id="line2d_91">
    <path d="M 165.054802 77.829983 
L 161.674607 76.56274 
L 157.818896 75.149256 
" clip-path="url(#pb3bdcdedfb)" style="fill: none; stroke: #ed5e93"/>
   </g>
   <g id="line2d_92">
    <path d="M 165.054802 218.719189 
L 161.674607 219.192843 
L 157.818896 219.675289 
" clip-path="url(#pb3bdcdedfb)" style="fill: none; stroke: #c68225"/>
   </g>
   <g id="line2d_93">
    <path d="M 157.818896 75.149256 
L 154.285901 73.844163 
L 150.582991 72.497153 
" clip-path="url(#pb3bdcdedfb)" style="fill: none; stroke: #00a98d"/>
   </g>
   <g id="line2d_94">
    <path d="M 157.818896 219.675289 
L 154.285901 220.087188 
L 150.582991 220.486611 
" clip-path="url(#pb3bdcdedfb)" style="fill: none; stroke: #8e971e"/>
   </g>
   <g id="line2d_95">
    <path d="M 150.582991 72.497153 
L 146.844632 71.128302 
L 143.347085 69.860007 
" clip-path="url(#pb3bdcdedfb)" style="fill: none; stroke: #00a9cc"/>
   </g>
   <g id="line2d_96">
    <path d="M 150.582991 220.486611 
L 146.844632 220.872031 
L 143.347085 221.215368 
" clip-path="url(#pb3bdcdedfb)" style="fill: none; stroke: #9b7fe9"/>
   </g>
   <g id="line2d_97">
    <path d="M 143.347085 69.860007 
L 139.351468 68.402188 
L 136.11118 67.226484 
" clip-path="url(#pb3bdcdedfb)" style="fill: none; stroke: #618df6"/>
   </g>
   <g id="line2d_98">
    <path d="M 143.347085 221.215368 
L 139.351468 221.59899 
L 136.11118 221.903384 
" clip-path="url(#pb3bdcdedfb)" style="fill: none; stroke: #f06073"/>
   </g>
   <g id="line2d_99">
    <path d="M 136.11118 67.226484 
L 131.847691 65.670302 
L 128.875274 64.587813 
" clip-path="url(#pb3bdcdedfb)" style="fill: none; stroke: #dd65b6"/>
   </g>
   <g id="line2d_100">
    <path d="M 136.11118 221.903384 
L 131.847691 222.303873 
L 128.875274 222.583269 
" clip-path="url(#pb3bdcdedfb)" style="fill: none; stroke: #6c9f33"/>
   </g>
   <g id="line2d_101">
    <path d="M 128.875274 64.587813 
L 124.457343 62.969224 
L 121.639369 61.936643 
" clip-path="url(#pb3bdcdedfb)" style="fill: none; stroke: #009afa"/>
   </g>
   <g id="line2d_102">
    <path d="M 128.875274 222.583269 
L 124.457343 223.0063 
L 121.639369 223.281642 
" clip-path="url(#pb3bdcdedfb)" style="fill: none; stroke: #e36f47"/>
   </g>
   <g id="line2d_103">
    <path d="M 121.639369 61.936643 
L 117.238616 60.314241 
L 114.403463 59.266754 
" clip-path="url(#pb3bdcdedfb)" style="fill: none; stroke: #3ea44e"/>
   </g>
   <g id="line2d_104">
    <path d="M 121.639369 223.281642 
L 117.238616 223.726745 
L 114.403463 224.024401 
" clip-path="url(#pb3bdcdedfb)" style="fill: none; stroke: #c371d2"/>
   </g>
   <g id="line2d_105">
    <path d="M 114.403463 59.266754 
L 110.095567 57.664901 
L 107.167558 56.571932 
" clip-path="url(#pb3bdcdedfb)" style="fill: none; stroke: #ac8e18"/>
   </g>
   <g id="line2d_106">
    <path d="M 114.403463 224.024401 
L 110.095567 224.499008 
L 107.167558 224.838748 
" clip-path="url(#pb3bdcdedfb)" style="fill: none; stroke: #00aaae"/>
   </g>
   <g id="line2d_107">
    <path d="M 107.167558 56.571932 
L 102.929573 54.979096 
L 99.931652 53.846406 
" clip-path="url(#pb3bdcdedfb)" style="fill: none; stroke: #ed5e93"/>
   </g>
   <g id="line2d_108">
    <path d="M 107.167558 224.838748 
L 102.929573 225.361304 
L 99.931652 225.755671 
" clip-path="url(#pb3bdcdedfb)" style="fill: none; stroke: #c68225"/>
   </g>
   <g id="line2d_109">
    <path d="M 99.931652 53.846406 
L 95.716132 52.241674 
L 92.695747 51.084198 
" clip-path="url(#pb3bdcdedfb)" style="fill: none; stroke: #00a98d"/>
   </g>
   <g id="line2d_110">
    <path d="M 99.931652 225.755671 
L 95.716132 226.351863 
L 92.695747 226.812698 
" clip-path="url(#pb3bdcdedfb)" style="fill: none; stroke: #8e971e"/>
   </g>
   <g id="line2d_111">
    <path d="M 92.695747 51.084198 
L 88.456417 49.445766 
L 85.459841 48.278191 
" clip-path="url(#pb3bdcdedfb)" style="fill: none; stroke: #00a9cc"/>
   </g>
   <g id="line2d_112">
    <path d="M 92.695747 226.812698 
L 88.456417 227.515257 
L 85.459841 228.056125 
" clip-path="url(#pb3bdcdedfb)" style="fill: none; stroke: #9b7fe9"/>
   </g>
   <g id="line2d_113">
    <path d="M 85.459841 48.278191 
L 81.150325 46.582817 
L 78.223935 45.420483 
" clip-path="url(#pb3bdcdedfb)" style="fill: none; stroke: #618df6"/>
   </g>
   <g id="line2d_114">
    <path d="M 85.459841 228.056125 
L 81.150325 228.909018 
L 78.223935 229.545262 
" clip-path="url(#pb3bdcdedfb)" style="fill: none; stroke: #f06073"/>
   </g>
   <g id="line2d_115">
    <path d="M 78.223935 45.420483 
L 73.812643 43.649009 
L 70.98803 42.501872 
" clip-path="url(#pb3bdcdedfb)" style="fill: none; stroke: #dd65b6"/>
   </g>
   <g id="line2d_116">
    <path d="M 78.223935 229.545262 
L 73.812643 230.605792 
L 70.98803 231.35736 
" clip-path="url(#pb3bdcdedfb)" style="fill: none; stroke: #6c9f33"/>
   </g>
   <g id="line2d_117">
    <path d="M 70.98803 42.501872 
L 66.478308 40.647075 
L 63.752124 39.510929 
" clip-path="url(#pb3bdcdedfb)" style="fill: none; stroke: #009afa"/>
   </g>
   <g id="line2d_118">
    <path d="M 70.98803 231.35736 
L 66.478308 232.693536 
L 63.752124 233.593343 
" clip-path="url(#pb3bdcdedfb)" style="fill: none; stroke: #e36f47"/>
   </g>
   <g id="line2d_119">
    <path d="M 63.752124 39.510929 
L 59.219906 37.594407 
L 56.516219 36.433251 
" clip-path="url(#pb3bdcdedfb)" style="fill: none; stroke: #3ea44e"/>
   </g>
   <g id="line2d_120">
    <path d="M 63.752124 233.593343 
L 59.219906 235.267665 
L 56.516219 236.386749 
" clip-path="url(#pb3bdcdedfb)" style="fill: none; stroke: #c371d2"/>
   </g>
  </g>
 </g>
 <defs>
  <clipPath id="pb3bdcdedfb">
   <rect x="45.662361" y="30.434646" width="383.502994" height="211.950709"/>
  </clipPath>
 </defs>
</svg>
