<?xml version="1.0" encoding="utf-8" standalone="no"?>
<!DOCTYPE svg PUBLIC "-//W3C//DTD SVG 1.1//EN"
  "http://www.w3.org/Graphics/SVG/1.1/DTD/svg11.dtd">
<svg xmlns:xlink="http://www.w3.org/1999/xlink" width="288pt" height="288pt" viewBox="0 0 288 288" xmlns="http://www.w3.org/2000/svg" version="1.1">
 <metadata>
  <rdf:RDF xmlns:dc="http://purl.org/dc/elements/1.1/" xmlns:cc="http://creativecommons.org/ns#" xmlns:rdf="http://www.w3.org/1999/02/22-rdf-syntax-ns#">
   <cc:Work>
    <dc:type rdf:resource="http://purl.org/dc/dcmitype/StillImage"/>
    <dc:date>2021-11-24T18:22:53.525594</dc:date>
    <dc:format>image/svg+xml</dc:format>
    <dc:creator>
     <cc:Agent>
      <dc:title>Matplotlib v3.5.0, https://matplotlib.org/</dc:title>
     </cc:Agent>
    </dc:creator>
   </cc:Work>
  </rdf:RDF>
 </metadata>
 <defs>
  <style type="text/css">*{stroke-linejoin: round; stroke-linecap: butt}</style>
 </defs>
 <g id="figure_1">
  <g id="patch_1">
   <path d="M 0 288 
L 288 288 
L 288 0 
L 0 0 
z
" style="fill: #ffffff"/>
  </g>
  <g id="axes_1">
   <g id="patch_2">
    <path d="M 53.221439 106.305354 
L 284.294475 106.305354 
L 284.294475 2.834646 
L 53.221439 2.834646 
z
" style="fill: #ffffff"/>
   </g>
   <g id="matplotlib.axis_1">
    <g id="xtick_1">
     <g id="line2d_1">
      <path d="M 57.581307 106.305354 
L 57.581307 2.834646 
" clip-path="url(#p52669dc522)" style="fill: none; stroke: #000000; stroke-opacity: 0.1; stroke-width: 0.5; stroke-linecap: square"/>
     </g>
     <g id="line2d_2">
      <defs>
       <path id="m9ef183071a" d="M 0 0 
L 0 -2.5 
" style="stroke: #000000; stroke-width: 0.5"/>
      </defs>
      <g>
       <use xlink:href="#m9ef183071a" x="57.581307" y="106.305354" style="stroke: #000000; stroke-width: 0.5"/>
      </g>
     </g>
     <g id="line2d_3">
      <defs>
       <path id="mc81d7b8c97" d="M 0 0 
L 0 2.5 
" style="stroke: #000000; stroke-width: 0.5"/>
      </defs>
      <g>
       <use xlink:href="#mc81d7b8c97" x="57.581307" y="2.834646" style="stroke: #000000; stroke-width: 0.5"/>
      </g>
     </g>
     <g id="text_1">
      <!-- $0$ -->
      <g transform="translate(53.741307 118.923479)scale(0.12 -0.12)">
       <defs>
        <path id="DejaVuSans-30" d="M 2034 4250 
Q 1547 4250 1301 3770 
Q 1056 3291 1056 2328 
Q 1056 1369 1301 889 
Q 1547 409 2034 409 
Q 2525 409 2770 889 
Q 3016 1369 3016 2328 
Q 3016 3291 2770 3770 
Q 2525 4250 2034 4250 
z
M 2034 4750 
Q 2819 4750 3233 4129 
Q 3647 3509 3647 2328 
Q 3647 1150 3233 529 
Q 2819 -91 2034 -91 
Q 1250 -91 836 529 
Q 422 1150 422 2328 
Q 422 3509 836 4129 
Q 1250 4750 2034 4750 
z
" transform="scale(0.015625)"/>
       </defs>
       <use xlink:href="#DejaVuSans-30" transform="translate(0 0.78125)"/>
      </g>
     </g>
    </g>
    <g id="xtick_2">
     <g id="line2d_4">
      <path d="M 112.079665 106.305354 
L 112.079665 2.834646 
" clip-path="url(#p52669dc522)" style="fill: none; stroke: #000000; stroke-opacity: 0.1; stroke-width: 0.5; stroke-linecap: square"/>
     </g>
     <g id="line2d_5">
      <g>
       <use xlink:href="#m9ef183071a" x="112.079665" y="106.305354" style="stroke: #000000; stroke-width: 0.5"/>
      </g>
     </g>
     <g id="line2d_6">
      <g>
       <use xlink:href="#mc81d7b8c97" x="112.079665" y="2.834646" style="stroke: #000000; stroke-width: 0.5"/>
      </g>
     </g>
     <g id="text_2">
      <!-- $25$ -->
      <g transform="translate(104.399665 118.923479)scale(0.12 -0.12)">
       <defs>
        <path id="DejaVuSans-32" d="M 1228 531 
L 3431 531 
L 3431 0 
L 469 0 
L 469 531 
Q 828 903 1448 1529 
Q 2069 2156 2228 2338 
Q 2531 2678 2651 2914 
Q 2772 3150 2772 3378 
Q 2772 3750 2511 3984 
Q 2250 4219 1831 4219 
Q 1534 4219 1204 4116 
Q 875 4013 500 3803 
L 500 4441 
Q 881 4594 1212 4672 
Q 1544 4750 1819 4750 
Q 2544 4750 2975 4387 
Q 3406 4025 3406 3419 
Q 3406 3131 3298 2873 
Q 3191 2616 2906 2266 
Q 2828 2175 2409 1742 
Q 1991 1309 1228 531 
z
" transform="scale(0.015625)"/>
        <path id="DejaVuSans-35" d="M 691 4666 
L 3169 4666 
L 3169 4134 
L 1269 4134 
L 1269 2991 
Q 1406 3038 1543 3061 
Q 1681 3084 1819 3084 
Q 2600 3084 3056 2656 
Q 3513 2228 3513 1497 
Q 3513 744 3044 326 
Q 2575 -91 1722 -91 
Q 1428 -91 1123 -41 
Q 819 9 494 109 
L 494 744 
Q 775 591 1075 516 
Q 1375 441 1709 441 
Q 2250 441 2565 725 
Q 2881 1009 2881 1497 
Q 2881 1984 2565 2268 
Q 2250 2553 1709 2553 
Q 1456 2553 1204 2497 
Q 953 2441 691 2322 
L 691 4666 
z
" transform="scale(0.015625)"/>
       </defs>
       <use xlink:href="#DejaVuSans-32" transform="translate(0 0.78125)"/>
       <use xlink:href="#DejaVuSans-35" transform="translate(63.623047 0.78125)"/>
      </g>
     </g>
    </g>
    <g id="xtick_3">
     <g id="line2d_7">
      <path d="M 166.578023 106.305354 
L 166.578023 2.834646 
" clip-path="url(#p52669dc522)" style="fill: none; stroke: #000000; stroke-opacity: 0.1; stroke-width: 0.5; stroke-linecap: square"/>
     </g>
     <g id="line2d_8">
      <g>
       <use xlink:href="#m9ef183071a" x="166.578023" y="106.305354" style="stroke: #000000; stroke-width: 0.5"/>
      </g>
     </g>
     <g id="line2d_9">
      <g>
       <use xlink:href="#mc81d7b8c97" x="166.578023" y="2.834646" style="stroke: #000000; stroke-width: 0.5"/>
      </g>
     </g>
     <g id="text_3">
      <!-- $50$ -->
      <g transform="translate(158.898023 118.923479)scale(0.12 -0.12)">
       <use xlink:href="#DejaVuSans-35" transform="translate(0 0.78125)"/>
       <use xlink:href="#DejaVuSans-30" transform="translate(63.623047 0.78125)"/>
      </g>
     </g>
    </g>
    <g id="xtick_4">
     <g id="line2d_10">
      <path d="M 221.07638 106.305354 
L 221.07638 2.834646 
" clip-path="url(#p52669dc522)" style="fill: none; stroke: #000000; stroke-opacity: 0.1; stroke-width: 0.5; stroke-linecap: square"/>
     </g>
     <g id="line2d_11">
      <g>
       <use xlink:href="#m9ef183071a" x="221.07638" y="106.305354" style="stroke: #000000; stroke-width: 0.5"/>
      </g>
     </g>
     <g id="line2d_12">
      <g>
       <use xlink:href="#mc81d7b8c97" x="221.07638" y="2.834646" style="stroke: #000000; stroke-width: 0.5"/>
      </g>
     </g>
     <g id="text_4">
      <!-- $75$ -->
      <g transform="translate(213.39638 118.923479)scale(0.12 -0.12)">
       <defs>
        <path id="DejaVuSans-37" d="M 525 4666 
L 3525 4666 
L 3525 4397 
L 1831 0 
L 1172 0 
L 2766 4134 
L 525 4134 
L 525 4666 
z
" transform="scale(0.015625)"/>
       </defs>
       <use xlink:href="#DejaVuSans-37" transform="translate(0 0.09375)"/>
       <use xlink:href="#DejaVuSans-35" transform="translate(63.623047 0.09375)"/>
      </g>
     </g>
    </g>
    <g id="xtick_5">
     <g id="line2d_13">
      <path d="M 275.574738 106.305354 
L 275.574738 2.834646 
" clip-path="url(#p52669dc522)" style="fill: none; stroke: #000000; stroke-opacity: 0.1; stroke-width: 0.5; stroke-linecap: square"/>
     </g>
     <g id="line2d_14">
      <g>
       <use xlink:href="#m9ef183071a" x="275.574738" y="106.305354" style="stroke: #000000; stroke-width: 0.5"/>
      </g>
     </g>
     <g id="line2d_15">
      <g>
       <use xlink:href="#mc81d7b8c97" x="275.574738" y="2.834646" style="stroke: #000000; stroke-width: 0.5"/>
      </g>
     </g>
     <g id="text_5">
      <!-- $100$ -->
      <g transform="translate(264.114738 118.923479)scale(0.12 -0.12)">
       <defs>
        <path id="DejaVuSans-31" d="M 794 531 
L 1825 531 
L 1825 4091 
L 703 3866 
L 703 4441 
L 1819 4666 
L 2450 4666 
L 2450 531 
L 3481 531 
L 3481 0 
L 794 0 
L 794 531 
z
" transform="scale(0.015625)"/>
       </defs>
       <use xlink:href="#DejaVuSans-31" transform="translate(0 0.78125)"/>
       <use xlink:href="#DejaVuSans-30" transform="translate(63.623047 0.78125)"/>
       <use xlink:href="#DejaVuSans-30" transform="translate(127.246094 0.78125)"/>
      </g>
     </g>
    </g>
    <g id="text_6">
     <!-- Epochs -->
     <g transform="translate(140.092957 137.576604)scale(0.16 -0.16)">
      <defs>
       <path id="DejaVuSans-45" d="M 628 4666 
L 3578 4666 
L 3578 4134 
L 1259 4134 
L 1259 2753 
L 3481 2753 
L 3481 2222 
L 1259 2222 
L 1259 531 
L 3634 531 
L 3634 0 
L 628 0 
L 628 4666 
z
" transform="scale(0.015625)"/>
       <path id="DejaVuSans-70" d="M 1159 525 
L 1159 -1331 
L 581 -1331 
L 581 3500 
L 1159 3500 
L 1159 2969 
Q 1341 3281 1617 3432 
Q 1894 3584 2278 3584 
Q 2916 3584 3314 3078 
Q 3713 2572 3713 1747 
Q 3713 922 3314 415 
Q 2916 -91 2278 -91 
Q 1894 -91 1617 61 
Q 1341 213 1159 525 
z
M 3116 1747 
Q 3116 2381 2855 2742 
Q 2594 3103 2138 3103 
Q 1681 3103 1420 2742 
Q 1159 2381 1159 1747 
Q 1159 1113 1420 752 
Q 1681 391 2138 391 
Q 2594 391 2855 752 
Q 3116 1113 3116 1747 
z
" transform="scale(0.015625)"/>
       <path id="DejaVuSans-6f" d="M 1959 3097 
Q 1497 3097 1228 2736 
Q 959 2375 959 1747 
Q 959 1119 1226 758 
Q 1494 397 1959 397 
Q 2419 397 2687 759 
Q 2956 1122 2956 1747 
Q 2956 2369 2687 2733 
Q 2419 3097 1959 3097 
z
M 1959 3584 
Q 2709 3584 3137 3096 
Q 3566 2609 3566 1747 
Q 3566 888 3137 398 
Q 2709 -91 1959 -91 
Q 1206 -91 779 398 
Q 353 888 353 1747 
Q 353 2609 779 3096 
Q 1206 3584 1959 3584 
z
" transform="scale(0.015625)"/>
       <path id="DejaVuSans-63" d="M 3122 3366 
L 3122 2828 
Q 2878 2963 2633 3030 
Q 2388 3097 2138 3097 
Q 1578 3097 1268 2742 
Q 959 2388 959 1747 
Q 959 1106 1268 751 
Q 1578 397 2138 397 
Q 2388 397 2633 464 
Q 2878 531 3122 666 
L 3122 134 
Q 2881 22 2623 -34 
Q 2366 -91 2075 -91 
Q 1284 -91 818 406 
Q 353 903 353 1747 
Q 353 2603 823 3093 
Q 1294 3584 2113 3584 
Q 2378 3584 2631 3529 
Q 2884 3475 3122 3366 
z
" transform="scale(0.015625)"/>
       <path id="DejaVuSans-68" d="M 3513 2113 
L 3513 0 
L 2938 0 
L 2938 2094 
Q 2938 2591 2744 2837 
Q 2550 3084 2163 3084 
Q 1697 3084 1428 2787 
Q 1159 2491 1159 1978 
L 1159 0 
L 581 0 
L 581 4863 
L 1159 4863 
L 1159 2956 
Q 1366 3272 1645 3428 
Q 1925 3584 2291 3584 
Q 2894 3584 3203 3211 
Q 3513 2838 3513 2113 
z
" transform="scale(0.015625)"/>
       <path id="DejaVuSans-73" d="M 2834 3397 
L 2834 2853 
Q 2591 2978 2328 3040 
Q 2066 3103 1784 3103 
Q 1356 3103 1142 2972 
Q 928 2841 928 2578 
Q 928 2378 1081 2264 
Q 1234 2150 1697 2047 
L 1894 2003 
Q 2506 1872 2764 1633 
Q 3022 1394 3022 966 
Q 3022 478 2636 193 
Q 2250 -91 1575 -91 
Q 1294 -91 989 -36 
Q 684 19 347 128 
L 347 722 
Q 666 556 975 473 
Q 1284 391 1588 391 
Q 1994 391 2212 530 
Q 2431 669 2431 922 
Q 2431 1156 2273 1281 
Q 2116 1406 1581 1522 
L 1381 1569 
Q 847 1681 609 1914 
Q 372 2147 372 2553 
Q 372 3047 722 3315 
Q 1072 3584 1716 3584 
Q 2034 3584 2315 3537 
Q 2597 3491 2834 3397 
z
" transform="scale(0.015625)"/>
      </defs>
      <use xlink:href="#DejaVuSans-45"/>
      <use xlink:href="#DejaVuSans-70" x="63.183594"/>
      <use xlink:href="#DejaVuSans-6f" x="126.660156"/>
      <use xlink:href="#DejaVuSans-63" x="187.841797"/>
      <use xlink:href="#DejaVuSans-68" x="242.822266"/>
      <use xlink:href="#DejaVuSans-73" x="306.201172"/>
     </g>
    </g>
   </g>
   <g id="matplotlib.axis_2">
    <g id="ytick_1">
     <g id="line2d_16">
      <path d="M 53.221439 100.240518 
L 284.294475 100.240518 
" clip-path="url(#p52669dc522)" style="fill: none; stroke: #000000; stroke-opacity: 0.1; stroke-width: 0.5; stroke-linecap: square"/>
     </g>
     <g id="line2d_17">
      <defs>
       <path id="m22289e017b" d="M 0 0 
L 2.5 0 
" style="stroke: #000000; stroke-width: 0.5"/>
      </defs>
      <g>
       <use xlink:href="#m22289e017b" x="53.221439" y="100.240518" style="stroke: #000000; stroke-width: 0.5"/>
      </g>
     </g>
     <g id="line2d_18">
      <defs>
       <path id="m3ef1b1985a" d="M 0 0 
L -2.5 0 
" style="stroke: #000000; stroke-width: 0.5"/>
      </defs>
      <g>
       <use xlink:href="#m3ef1b1985a" x="284.294475" y="100.240518" style="stroke: #000000; stroke-width: 0.5"/>
      </g>
     </g>
     <g id="text_7">
      <!-- $10^{-3}$ -->
      <g transform="translate(21.521439 104.79958)scale(0.12 -0.12)">
       <defs>
        <path id="DejaVuSans-2212" d="M 678 2272 
L 4684 2272 
L 4684 1741 
L 678 1741 
L 678 2272 
z
" transform="scale(0.015625)"/>
        <path id="DejaVuSans-33" d="M 2597 2516 
Q 3050 2419 3304 2112 
Q 3559 1806 3559 1356 
Q 3559 666 3084 287 
Q 2609 -91 1734 -91 
Q 1441 -91 1130 -33 
Q 819 25 488 141 
L 488 750 
Q 750 597 1062 519 
Q 1375 441 1716 441 
Q 2309 441 2620 675 
Q 2931 909 2931 1356 
Q 2931 1769 2642 2001 
Q 2353 2234 1838 2234 
L 1294 2234 
L 1294 2753 
L 1863 2753 
Q 2328 2753 2575 2939 
Q 2822 3125 2822 3475 
Q 2822 3834 2567 4026 
Q 2313 4219 1838 4219 
Q 1578 4219 1281 4162 
Q 984 4106 628 3988 
L 628 4550 
Q 988 4650 1302 4700 
Q 1616 4750 1894 4750 
Q 2613 4750 3031 4423 
Q 3450 4097 3450 3541 
Q 3450 3153 3228 2886 
Q 3006 2619 2597 2516 
z
" transform="scale(0.015625)"/>
       </defs>
       <use xlink:href="#DejaVuSans-31" transform="translate(0 0.765625)"/>
       <use xlink:href="#DejaVuSans-30" transform="translate(63.623047 0.765625)"/>
       <use xlink:href="#DejaVuSans-2212" transform="translate(128.203125 39.046875)scale(0.7)"/>
       <use xlink:href="#DejaVuSans-33" transform="translate(186.855469 39.046875)scale(0.7)"/>
      </g>
     </g>
    </g>
    <g id="ytick_2">
     <g id="line2d_19">
      <path d="M 53.221439 50.95348 
L 284.294475 50.95348 
" clip-path="url(#p52669dc522)" style="fill: none; stroke: #000000; stroke-opacity: 0.1; stroke-width: 0.5; stroke-linecap: square"/>
     </g>
     <g id="line2d_20">
      <g>
       <use xlink:href="#m22289e017b" x="53.221439" y="50.95348" style="stroke: #000000; stroke-width: 0.5"/>
      </g>
     </g>
     <g id="line2d_21">
      <g>
       <use xlink:href="#m3ef1b1985a" x="284.294475" y="50.95348" style="stroke: #000000; stroke-width: 0.5"/>
      </g>
     </g>
     <g id="text_8">
      <!-- $10^{-2}$ -->
      <g transform="translate(21.521439 55.512543)scale(0.12 -0.12)">
       <use xlink:href="#DejaVuSans-31" transform="translate(0 0.765625)"/>
       <use xlink:href="#DejaVuSans-30" transform="translate(63.623047 0.765625)"/>
       <use xlink:href="#DejaVuSans-2212" transform="translate(128.203125 39.046875)scale(0.7)"/>
       <use xlink:href="#DejaVuSans-32" transform="translate(186.855469 39.046875)scale(0.7)"/>
      </g>
     </g>
    </g>
    <g id="text_9">
     <!-- y loss -->
     <g transform="translate(14.193939 77.3)rotate(-90)scale(0.16 -0.16)">
      <defs>
       <path id="DejaVuSans-79" d="M 2059 -325 
Q 1816 -950 1584 -1140 
Q 1353 -1331 966 -1331 
L 506 -1331 
L 506 -850 
L 844 -850 
Q 1081 -850 1212 -737 
Q 1344 -625 1503 -206 
L 1606 56 
L 191 3500 
L 800 3500 
L 1894 763 
L 2988 3500 
L 3597 3500 
L 2059 -325 
z
" transform="scale(0.015625)"/>
       <path id="DejaVuSans-20" transform="scale(0.015625)"/>
       <path id="DejaVuSans-6c" d="M 603 4863 
L 1178 4863 
L 1178 0 
L 603 0 
L 603 4863 
z
" transform="scale(0.015625)"/>
      </defs>
      <use xlink:href="#DejaVuSans-79"/>
      <use xlink:href="#DejaVuSans-20" x="59.179688"/>
      <use xlink:href="#DejaVuSans-6c" x="90.966797"/>
      <use xlink:href="#DejaVuSans-6f" x="118.75"/>
      <use xlink:href="#DejaVuSans-73" x="179.931641"/>
      <use xlink:href="#DejaVuSans-73" x="232.03125"/>
     </g>
    </g>
   </g>
   <g id="line2d_22">
    <path d="M 59.761242 5.763062 
L 61.941176 22.565183 
L 64.12111 39.210235 
L 66.301044 47.904608 
L 68.480979 35.703778 
L 70.660913 30.370568 
L 72.840847 39.243042 
L 75.020782 59.332682 
L 77.200716 75.473189 
L 79.38065 61.819434 
L 81.560585 49.908334 
L 83.740519 45.278849 
L 85.920453 45.616909 
L 88.100388 49.385844 
L 90.280322 55.131434 
L 92.460256 60.786871 
L 94.64019 63.930149 
L 96.820125 63.28318 
L 99.000059 60.602346 
L 101.179993 58.572652 
L 103.359928 59.011428 
L 105.539862 62.574369 
L 107.719796 68.55542 
L 109.899731 73.233069 
L 112.079665 73.019508 
L 114.259599 70.200955 
L 116.439534 68.669632 
L 118.619468 69.712826 
L 120.799402 72.787629 
L 122.979336 76.253205 
L 125.159271 78.024628 
L 127.339205 77.495897 
L 129.519139 76.135953 
L 131.699074 75.685751 
L 133.879008 77.133643 
L 136.058942 80.526699 
L 138.238877 84.646244 
L 140.418811 86.919752 
L 142.598745 85.84314 
L 144.77868 83.420626 
L 146.958614 82.334726 
L 149.138548 83.562559 
L 151.318482 86.379388 
L 153.498417 88.813346 
L 155.678351 89.119372 
L 157.858285 87.835603 
L 160.03822 86.678371 
L 162.218154 86.829764 
L 164.398088 88.29519 
L 166.578023 90.215015 
L 168.757957 91.439488 
L 170.937891 91.642223 
L 173.117826 91.470042 
L 175.29776 91.801791 
L 177.477694 92.816984 
L 179.657628 93.926693 
L 181.837563 94.396937 
L 184.017497 94.24 
L 186.197431 94.112332 
L 188.377366 94.474859 
L 190.5573 95.184771 
L 192.737234 95.747654 
L 194.917169 95.855749 
L 197.097103 95.751057 
L 199.277037 95.910605 
L 201.456971 96.549393 
L 203.636906 97.413692 
L 205.81684 98.069358 
L 207.996774 98.31059 
L 210.176709 98.366215 
L 212.356643 98.590838 
L 214.536577 99.047953 
L 216.716512 99.500805 
L 218.896446 99.758609 
L 221.07638 99.816679 
L 223.256315 99.899425 
L 225.436249 100.125281 
L 227.616183 100.409999 
L 229.796117 100.611165 
L 231.976052 100.719474 
L 234.155986 100.855054 
L 236.33592 101.102395 
L 238.515855 101.412109 
L 240.695789 101.648602 
L 242.875723 101.771548 
L 245.055658 101.860265 
L 247.235592 102.002696 
L 249.415526 102.188393 
L 251.595461 102.341374 
L 253.775395 102.425084 
L 255.955329 102.482388 
L 258.135263 102.567388 
L 260.315198 102.682322 
L 262.495132 102.789813 
L 264.675066 102.870519 
L 266.855001 102.947411 
L 269.034935 103.047835 
L 271.214869 103.163792 
L 273.394804 103.261263 
L 275.574738 103.324016 
L 277.754672 103.376938 
" clip-path="url(#p52669dc522)" style="fill: none; stroke: #000000"/>
   </g>
   <g id="patch_3">
    <path d="M 53.221439 106.305354 
L 53.221439 2.834646 
" style="fill: none; stroke: #000000; stroke-linejoin: miter; stroke-linecap: square"/>
   </g>
   <g id="patch_4">
    <path d="M 284.294475 106.305354 
L 284.294475 2.834646 
" style="fill: none; stroke: #000000; stroke-linejoin: miter; stroke-linecap: square"/>
   </g>
   <g id="patch_5">
    <path d="M 53.221439 106.305354 
L 284.294475 106.305354 
" style="fill: none; stroke: #000000; stroke-linejoin: miter; stroke-linecap: square"/>
   </g>
   <g id="patch_6">
    <path d="M 53.221439 2.834646 
L 284.294475 2.834646 
" style="fill: none; stroke: #000000; stroke-linejoin: miter; stroke-linecap: square"/>
   </g>
  </g>
  <g id="axes_2">
   <g id="patch_7">
    <path d="M 53.221439 250.305354 
L 284.294475 250.305354 
L 284.294475 146.834646 
L 53.221439 146.834646 
z
" style="fill: #ffffff"/>
   </g>
   <g id="matplotlib.axis_3">
    <g id="xtick_6">
     <g id="line2d_23">
      <path d="M 57.581307 250.305354 
L 57.581307 146.834646 
" clip-path="url(#pb4f0c7bbbd)" style="fill: none; stroke: #000000; stroke-opacity: 0.1; stroke-width: 0.5; stroke-linecap: square"/>
     </g>
     <g id="line2d_24">
      <g>
       <use xlink:href="#m9ef183071a" x="57.581307" y="250.305354" style="stroke: #000000; stroke-width: 0.5"/>
      </g>
     </g>
     <g id="line2d_25">
      <g>
       <use xlink:href="#mc81d7b8c97" x="57.581307" y="146.834646" style="stroke: #000000; stroke-width: 0.5"/>
      </g>
     </g>
     <g id="text_10">
      <!-- $0$ -->
      <g transform="translate(53.741307 262.923479)scale(0.12 -0.12)">
       <use xlink:href="#DejaVuSans-30" transform="translate(0 0.78125)"/>
      </g>
     </g>
    </g>
    <g id="xtick_7">
     <g id="line2d_26">
      <path d="M 112.079665 250.305354 
L 112.079665 146.834646 
" clip-path="url(#pb4f0c7bbbd)" style="fill: none; stroke: #000000; stroke-opacity: 0.1; stroke-width: 0.5; stroke-linecap: square"/>
     </g>
     <g id="line2d_27">
      <g>
       <use xlink:href="#m9ef183071a" x="112.079665" y="250.305354" style="stroke: #000000; stroke-width: 0.5"/>
      </g>
     </g>
     <g id="line2d_28">
      <g>
       <use xlink:href="#mc81d7b8c97" x="112.079665" y="146.834646" style="stroke: #000000; stroke-width: 0.5"/>
      </g>
     </g>
     <g id="text_11">
      <!-- $25$ -->
      <g transform="translate(104.399665 262.923479)scale(0.12 -0.12)">
       <use xlink:href="#DejaVuSans-32" transform="translate(0 0.78125)"/>
       <use xlink:href="#DejaVuSans-35" transform="translate(63.623047 0.78125)"/>
      </g>
     </g>
    </g>
    <g id="xtick_8">
     <g id="line2d_29">
      <path d="M 166.578023 250.305354 
L 166.578023 146.834646 
" clip-path="url(#pb4f0c7bbbd)" style="fill: none; stroke: #000000; stroke-opacity: 0.1; stroke-width: 0.5; stroke-linecap: square"/>
     </g>
     <g id="line2d_30">
      <g>
       <use xlink:href="#m9ef183071a" x="166.578023" y="250.305354" style="stroke: #000000; stroke-width: 0.5"/>
      </g>
     </g>
     <g id="line2d_31">
      <g>
       <use xlink:href="#mc81d7b8c97" x="166.578023" y="146.834646" style="stroke: #000000; stroke-width: 0.5"/>
      </g>
     </g>
     <g id="text_12">
      <!-- $50$ -->
      <g transform="translate(158.898023 262.923479)scale(0.12 -0.12)">
       <use xlink:href="#DejaVuSans-35" transform="translate(0 0.78125)"/>
       <use xlink:href="#DejaVuSans-30" transform="translate(63.623047 0.78125)"/>
      </g>
     </g>
    </g>
    <g id="xtick_9">
     <g id="line2d_32">
      <path d="M 221.07638 250.305354 
L 221.07638 146.834646 
" clip-path="url(#pb4f0c7bbbd)" style="fill: none; stroke: #000000; stroke-opacity: 0.1; stroke-width: 0.5; stroke-linecap: square"/>
     </g>
     <g id="line2d_33">
      <g>
       <use xlink:href="#m9ef183071a" x="221.07638" y="250.305354" style="stroke: #000000; stroke-width: 0.5"/>
      </g>
     </g>
     <g id="line2d_34">
      <g>
       <use xlink:href="#mc81d7b8c97" x="221.07638" y="146.834646" style="stroke: #000000; stroke-width: 0.5"/>
      </g>
     </g>
     <g id="text_13">
      <!-- $75$ -->
      <g transform="translate(213.39638 262.923479)scale(0.12 -0.12)">
       <use xlink:href="#DejaVuSans-37" transform="translate(0 0.09375)"/>
       <use xlink:href="#DejaVuSans-35" transform="translate(63.623047 0.09375)"/>
      </g>
     </g>
    </g>
    <g id="xtick_10">
     <g id="line2d_35">
      <path d="M 275.574738 250.305354 
L 275.574738 146.834646 
" clip-path="url(#pb4f0c7bbbd)" style="fill: none; stroke: #000000; stroke-opacity: 0.1; stroke-width: 0.5; stroke-linecap: square"/>
     </g>
     <g id="line2d_36">
      <g>
       <use xlink:href="#m9ef183071a" x="275.574738" y="250.305354" style="stroke: #000000; stroke-width: 0.5"/>
      </g>
     </g>
     <g id="line2d_37">
      <g>
       <use xlink:href="#mc81d7b8c97" x="275.574738" y="146.834646" style="stroke: #000000; stroke-width: 0.5"/>
      </g>
     </g>
     <g id="text_14">
      <!-- $100$ -->
      <g transform="translate(264.114738 262.923479)scale(0.12 -0.12)">
       <use xlink:href="#DejaVuSans-31" transform="translate(0 0.78125)"/>
       <use xlink:href="#DejaVuSans-30" transform="translate(63.623047 0.78125)"/>
       <use xlink:href="#DejaVuSans-30" transform="translate(127.246094 0.78125)"/>
      </g>
     </g>
    </g>
    <g id="text_15">
     <!-- Epochs -->
     <g transform="translate(140.092957 281.576604)scale(0.16 -0.16)">
      <use xlink:href="#DejaVuSans-45"/>
      <use xlink:href="#DejaVuSans-70" x="63.183594"/>
      <use xlink:href="#DejaVuSans-6f" x="126.660156"/>
      <use xlink:href="#DejaVuSans-63" x="187.841797"/>
      <use xlink:href="#DejaVuSans-68" x="242.822266"/>
      <use xlink:href="#DejaVuSans-73" x="306.201172"/>
     </g>
    </g>
   </g>
   <g id="matplotlib.axis_4">
    <g id="ytick_3">
     <g id="line2d_38">
      <path d="M 53.221439 216.798716 
L 284.294475 216.798716 
" clip-path="url(#pb4f0c7bbbd)" style="fill: none; stroke: #000000; stroke-opacity: 0.1; stroke-width: 0.5; stroke-linecap: square"/>
     </g>
     <g id="line2d_39">
      <g>
       <use xlink:href="#m22289e017b" x="53.221439" y="216.798716" style="stroke: #000000; stroke-width: 0.5"/>
      </g>
     </g>
     <g id="line2d_40">
      <g>
       <use xlink:href="#m3ef1b1985a" x="284.294475" y="216.798716" style="stroke: #000000; stroke-width: 0.5"/>
      </g>
     </g>
     <g id="text_16">
      <!-- $10^{-1}$ -->
      <g transform="translate(21.521439 221.357778)scale(0.12 -0.12)">
       <use xlink:href="#DejaVuSans-31" transform="translate(0 0.684375)"/>
       <use xlink:href="#DejaVuSans-30" transform="translate(63.623047 0.684375)"/>
       <use xlink:href="#DejaVuSans-2212" transform="translate(128.203125 38.965625)scale(0.7)"/>
       <use xlink:href="#DejaVuSans-31" transform="translate(186.855469 38.965625)scale(0.7)"/>
      </g>
     </g>
    </g>
    <g id="ytick_4">
     <g id="line2d_41">
      <path d="M 53.221439 157.973775 
L 284.294475 157.973775 
" clip-path="url(#pb4f0c7bbbd)" style="fill: none; stroke: #000000; stroke-opacity: 0.1; stroke-width: 0.5; stroke-linecap: square"/>
     </g>
     <g id="line2d_42">
      <g>
       <use xlink:href="#m22289e017b" x="53.221439" y="157.973775" style="stroke: #000000; stroke-width: 0.5"/>
      </g>
     </g>
     <g id="line2d_43">
      <g>
       <use xlink:href="#m3ef1b1985a" x="284.294475" y="157.973775" style="stroke: #000000; stroke-width: 0.5"/>
      </g>
     </g>
     <g id="text_17">
      <!-- $10^{0}$ -->
      <g transform="translate(28.601439 162.532838)scale(0.12 -0.12)">
       <use xlink:href="#DejaVuSans-31" transform="translate(0 0.765625)"/>
       <use xlink:href="#DejaVuSans-30" transform="translate(63.623047 0.765625)"/>
       <use xlink:href="#DejaVuSans-30" transform="translate(128.203125 39.046875)scale(0.7)"/>
      </g>
     </g>
    </g>
    <g id="text_18">
     <!-- p loss -->
     <g transform="translate(14.193939 221.64375)rotate(-90)scale(0.16 -0.16)">
      <use xlink:href="#DejaVuSans-70"/>
      <use xlink:href="#DejaVuSans-20" x="63.476562"/>
      <use xlink:href="#DejaVuSans-6c" x="95.263672"/>
      <use xlink:href="#DejaVuSans-6f" x="123.046875"/>
      <use xlink:href="#DejaVuSans-73" x="184.228516"/>
      <use xlink:href="#DejaVuSans-73" x="236.328125"/>
     </g>
    </g>
   </g>
   <g id="line2d_44">
    <path d="M 59.761242 152.212934 
L 61.941176 149.763062 
L 64.12111 150.492876 
L 66.301044 152.096774 
L 68.480979 153.748491 
L 70.660913 155.884361 
L 72.840847 158.379595 
L 75.020782 160.879887 
L 77.200716 163.128129 
L 79.38065 164.827612 
L 81.560585 165.80008 
L 83.740519 166.092245 
L 85.920453 165.869036 
L 88.100388 165.316768 
L 90.280322 164.64245 
L 92.460256 164.074692 
L 94.64019 163.817849 
L 96.820125 164.000684 
L 99.000059 164.66221 
L 101.179993 165.778374 
L 103.359928 167.281186 
L 105.539862 169.051488 
L 107.719796 170.908943 
L 109.899731 172.617852 
L 112.079665 173.947259 
L 114.259599 174.748653 
L 116.439534 174.997229 
L 118.619468 174.773646 
L 120.799402 174.227402 
L 122.979336 173.554308 
L 125.159271 172.967053 
L 127.339205 172.652651 
L 129.519139 172.735147 
L 131.699074 173.260708 
L 133.879008 174.203918 
L 136.058942 175.479128 
L 138.238877 176.952377 
L 140.418811 178.459165 
L 142.598745 179.833211 
L 144.77868 180.944893 
L 146.958614 181.727351 
L 149.138548 182.185398 
L 151.318482 182.386393 
L 153.498417 182.445358 
L 155.678351 182.505433 
L 157.858285 182.710156 
L 160.03822 183.17268 
L 162.218154 183.957478 
L 164.398088 185.070953 
L 166.578023 186.465026 
L 168.757957 188.049461 
L 170.937891 189.712118 
L 173.117826 191.337432 
L 175.29776 192.829358 
L 177.477694 194.127273 
L 179.657628 195.217021 
L 181.837563 196.130568 
L 184.017497 196.934837 
L 186.197431 197.711385 
L 188.377366 198.529121 
L 190.5573 199.43035 
L 192.737234 200.426037 
L 194.917169 201.505695 
L 197.097103 202.646986 
L 199.277037 203.825183 
L 201.456971 205.019405 
L 203.636906 206.217469 
L 205.81684 207.414819 
L 207.996774 208.614392 
L 210.176709 209.820549 
L 212.356643 211.029885 
L 214.536577 212.226488 
L 216.716512 213.383882 
L 218.896446 214.480546 
L 221.07638 215.502704 
L 223.256315 216.458665 
L 225.436249 217.378126 
L 227.616183 218.306132 
L 229.796117 219.293803 
L 231.976052 220.386762 
L 234.155986 221.612709 
L 236.33592 222.971239 
L 238.515855 224.433345 
L 240.695789 225.945568 
L 242.875723 227.445707 
L 245.055658 228.880243 
L 247.235592 230.216361 
L 249.415526 231.447988 
L 251.595461 232.590795 
L 253.775395 233.684978 
L 255.955329 234.777776 
L 258.135263 235.908863 
L 260.315198 237.09935 
L 262.495132 238.34919 
L 264.675066 239.642684 
L 266.855001 240.957333 
L 269.034935 242.272216 
L 271.214869 243.573432 
L 273.394804 244.856122 
L 275.574738 246.122652 
L 277.754672 247.376938 
" clip-path="url(#pb4f0c7bbbd)" style="fill: none; stroke: #000000"/>
   </g>
   <g id="patch_8">
    <path d="M 53.221439 250.305354 
L 53.221439 146.834646 
" style="fill: none; stroke: #000000; stroke-linejoin: miter; stroke-linecap: square"/>
   </g>
   <g id="patch_9">
    <path d="M 284.294475 250.305354 
L 284.294475 146.834646 
" style="fill: none; stroke: #000000; stroke-linejoin: miter; stroke-linecap: square"/>
   </g>
   <g id="patch_10">
    <path d="M 53.221439 250.305354 
L 284.294475 250.305354 
" style="fill: none; stroke: #000000; stroke-linejoin: miter; stroke-linecap: square"/>
   </g>
   <g id="patch_11">
    <path d="M 53.221439 146.834646 
L 284.294475 146.834646 
" style="fill: none; stroke: #000000; stroke-linejoin: miter; stroke-linecap: square"/>
   </g>
  </g>
 </g>
 <defs>
  <clipPath id="p52669dc522">
   <rect x="53.221439" y="2.834646" width="231.073037" height="103.470709"/>
  </clipPath>
  <clipPath id="pb4f0c7bbbd">
   <rect x="53.221439" y="146.834646" width="231.073037" height="103.470709"/>
  </clipPath>
 </defs>
</svg>
