<?xml version="1.0" encoding="utf-8" standalone="no"?>
<!DOCTYPE svg PUBLIC "-//W3C//DTD SVG 1.1//EN"
  "http://www.w3.org/Graphics/SVG/1.1/DTD/svg11.dtd">
<svg xmlns:xlink="http://www.w3.org/1999/xlink" width="432pt" height="252pt" viewBox="0 0 432 252" xmlns="http://www.w3.org/2000/svg" version="1.1">
 <metadata>
  <rdf:RDF xmlns:dc="http://purl.org/dc/elements/1.1/" xmlns:cc="http://creativecommons.org/ns#" xmlns:rdf="http://www.w3.org/1999/02/22-rdf-syntax-ns#">
   <cc:Work>
    <dc:type rdf:resource="http://purl.org/dc/dcmitype/StillImage"/>
    <dc:date>2021-11-24T20:51:51.247910</dc:date>
    <dc:format>image/svg+xml</dc:format>
    <dc:creator>
     <cc:Agent>
      <dc:title>Matplotlib v3.5.0, https://matplotlib.org/</dc:title>
     </cc:Agent>
    </dc:creator>
   </cc:Work>
  </rdf:RDF>
 </metadata>
 <defs>
  <style type="text/css">*{stroke-linejoin: round; stroke-linecap: butt}</style>
 </defs>
 <g id="figure_1">
  <g id="patch_1">
   <path d="M 0 252 
L 432 252 
L 432 0 
L 0 0 
z
" style="fill: #ffffff"/>
  </g>
  <g id="axes_1">
   <g id="patch_2">
    <path d="M 14.659646 232.705354 
L 429.165354 232.705354 
L 429.165354 4.971206 
L 14.659646 4.971206 
z
" style="fill: #ffffff"/>
   </g>
   <g id="matplotlib.axis_1">
    <g id="xtick_1">
     <g id="line2d_1">
      <path d="M 26.390939 232.705354 
L 26.390939 4.971206 
" clip-path="url(#p40cecb4b7b)" style="fill: none; stroke: #000000; stroke-opacity: 0.1; stroke-width: 0.5; stroke-linecap: square"/>
     </g>
     <g id="line2d_2">
      <defs>
       <path id="ma086391c16" d="M 0 0 
L 0 -2.5 
" style="stroke: #000000; stroke-width: 0.5"/>
      </defs>
      <g>
       <use xlink:href="#ma086391c16" x="26.390939" y="232.705354" style="stroke: #000000; stroke-width: 0.5"/>
      </g>
     </g>
     <g id="line2d_3">
      <defs>
       <path id="mc44684f9de" d="M 0 0 
L 0 2.5 
" style="stroke: #000000; stroke-width: 0.5"/>
      </defs>
      <g>
       <use xlink:href="#mc44684f9de" x="26.390939" y="4.971206" style="stroke: #000000; stroke-width: 0.5"/>
      </g>
     </g>
     <g id="text_1">
      <!-- $0$ -->
      <g transform="translate(22.550939 245.323479)scale(0.12 -0.12)">
       <defs>
        <path id="DejaVuSans-30" d="M 2034 4250 
Q 1547 4250 1301 3770 
Q 1056 3291 1056 2328 
Q 1056 1369 1301 889 
Q 1547 409 2034 409 
Q 2525 409 2770 889 
Q 3016 1369 3016 2328 
Q 3016 3291 2770 3770 
Q 2525 4250 2034 4250 
z
M 2034 4750 
Q 2819 4750 3233 4129 
Q 3647 3509 3647 2328 
Q 3647 1150 3233 529 
Q 2819 -91 2034 -91 
Q 1250 -91 836 529 
Q 422 1150 422 2328 
Q 422 3509 836 4129 
Q 1250 4750 2034 4750 
z
" transform="scale(0.015625)"/>
       </defs>
       <use xlink:href="#DejaVuSans-30" transform="translate(0 0.78125)"/>
      </g>
     </g>
    </g>
    <g id="xtick_2">
     <g id="line2d_4">
      <path d="M 104.599564 232.705354 
L 104.599564 4.971206 
" clip-path="url(#p40cecb4b7b)" style="fill: none; stroke: #000000; stroke-opacity: 0.1; stroke-width: 0.5; stroke-linecap: square"/>
     </g>
     <g id="line2d_5">
      <g>
       <use xlink:href="#ma086391c16" x="104.599564" y="232.705354" style="stroke: #000000; stroke-width: 0.5"/>
      </g>
     </g>
     <g id="line2d_6">
      <g>
       <use xlink:href="#mc44684f9de" x="104.599564" y="4.971206" style="stroke: #000000; stroke-width: 0.5"/>
      </g>
     </g>
     <g id="text_2">
      <!-- $1$ -->
      <g transform="translate(100.759564 245.323479)scale(0.12 -0.12)">
       <defs>
        <path id="DejaVuSans-31" d="M 794 531 
L 1825 531 
L 1825 4091 
L 703 3866 
L 703 4441 
L 1819 4666 
L 2450 4666 
L 2450 531 
L 3481 531 
L 3481 0 
L 794 0 
L 794 531 
z
" transform="scale(0.015625)"/>
       </defs>
       <use xlink:href="#DejaVuSans-31" transform="translate(0 0.09375)"/>
      </g>
     </g>
    </g>
    <g id="xtick_3">
     <g id="line2d_7">
      <path d="M 182.808188 232.705354 
L 182.808188 4.971206 
" clip-path="url(#p40cecb4b7b)" style="fill: none; stroke: #000000; stroke-opacity: 0.1; stroke-width: 0.5; stroke-linecap: square"/>
     </g>
     <g id="line2d_8">
      <g>
       <use xlink:href="#ma086391c16" x="182.808188" y="232.705354" style="stroke: #000000; stroke-width: 0.5"/>
      </g>
     </g>
     <g id="line2d_9">
      <g>
       <use xlink:href="#mc44684f9de" x="182.808188" y="4.971206" style="stroke: #000000; stroke-width: 0.5"/>
      </g>
     </g>
     <g id="text_3">
      <!-- $2$ -->
      <g transform="translate(178.968188 245.323479)scale(0.12 -0.12)">
       <defs>
        <path id="DejaVuSans-32" d="M 1228 531 
L 3431 531 
L 3431 0 
L 469 0 
L 469 531 
Q 828 903 1448 1529 
Q 2069 2156 2228 2338 
Q 2531 2678 2651 2914 
Q 2772 3150 2772 3378 
Q 2772 3750 2511 3984 
Q 2250 4219 1831 4219 
Q 1534 4219 1204 4116 
Q 875 4013 500 3803 
L 500 4441 
Q 881 4594 1212 4672 
Q 1544 4750 1819 4750 
Q 2544 4750 2975 4387 
Q 3406 4025 3406 3419 
Q 3406 3131 3298 2873 
Q 3191 2616 2906 2266 
Q 2828 2175 2409 1742 
Q 1991 1309 1228 531 
z
" transform="scale(0.015625)"/>
       </defs>
       <use xlink:href="#DejaVuSans-32" transform="translate(0 0.78125)"/>
      </g>
     </g>
    </g>
    <g id="xtick_4">
     <g id="line2d_10">
      <path d="M 261.016812 232.705354 
L 261.016812 4.971206 
" clip-path="url(#p40cecb4b7b)" style="fill: none; stroke: #000000; stroke-opacity: 0.1; stroke-width: 0.5; stroke-linecap: square"/>
     </g>
     <g id="line2d_11">
      <g>
       <use xlink:href="#ma086391c16" x="261.016812" y="232.705354" style="stroke: #000000; stroke-width: 0.5"/>
      </g>
     </g>
     <g id="line2d_12">
      <g>
       <use xlink:href="#mc44684f9de" x="261.016812" y="4.971206" style="stroke: #000000; stroke-width: 0.5"/>
      </g>
     </g>
     <g id="text_4">
      <!-- $3$ -->
      <g transform="translate(257.176812 245.323479)scale(0.12 -0.12)">
       <defs>
        <path id="DejaVuSans-33" d="M 2597 2516 
Q 3050 2419 3304 2112 
Q 3559 1806 3559 1356 
Q 3559 666 3084 287 
Q 2609 -91 1734 -91 
Q 1441 -91 1130 -33 
Q 819 25 488 141 
L 488 750 
Q 750 597 1062 519 
Q 1375 441 1716 441 
Q 2309 441 2620 675 
Q 2931 909 2931 1356 
Q 2931 1769 2642 2001 
Q 2353 2234 1838 2234 
L 1294 2234 
L 1294 2753 
L 1863 2753 
Q 2328 2753 2575 2939 
Q 2822 3125 2822 3475 
Q 2822 3834 2567 4026 
Q 2313 4219 1838 4219 
Q 1578 4219 1281 4162 
Q 984 4106 628 3988 
L 628 4550 
Q 988 4650 1302 4700 
Q 1616 4750 1894 4750 
Q 2613 4750 3031 4423 
Q 3450 4097 3450 3541 
Q 3450 3153 3228 2886 
Q 3006 2619 2597 2516 
z
" transform="scale(0.015625)"/>
       </defs>
       <use xlink:href="#DejaVuSans-33" transform="translate(0 0.78125)"/>
      </g>
     </g>
    </g>
    <g id="xtick_5">
     <g id="line2d_13">
      <path d="M 339.225436 232.705354 
L 339.225436 4.971206 
" clip-path="url(#p40cecb4b7b)" style="fill: none; stroke: #000000; stroke-opacity: 0.1; stroke-width: 0.5; stroke-linecap: square"/>
     </g>
     <g id="line2d_14">
      <g>
       <use xlink:href="#ma086391c16" x="339.225436" y="232.705354" style="stroke: #000000; stroke-width: 0.5"/>
      </g>
     </g>
     <g id="line2d_15">
      <g>
       <use xlink:href="#mc44684f9de" x="339.225436" y="4.971206" style="stroke: #000000; stroke-width: 0.5"/>
      </g>
     </g>
     <g id="text_5">
      <!-- $4$ -->
      <g transform="translate(335.385436 245.323479)scale(0.12 -0.12)">
       <defs>
        <path id="DejaVuSans-34" d="M 2419 4116 
L 825 1625 
L 2419 1625 
L 2419 4116 
z
M 2253 4666 
L 3047 4666 
L 3047 1625 
L 3713 1625 
L 3713 1100 
L 3047 1100 
L 3047 0 
L 2419 0 
L 2419 1100 
L 313 1100 
L 313 1709 
L 2253 4666 
z
" transform="scale(0.015625)"/>
       </defs>
       <use xlink:href="#DejaVuSans-34" transform="translate(0 0.09375)"/>
      </g>
     </g>
    </g>
    <g id="xtick_6">
     <g id="line2d_16">
      <path d="M 417.434061 232.705354 
L 417.434061 4.971206 
" clip-path="url(#p40cecb4b7b)" style="fill: none; stroke: #000000; stroke-opacity: 0.1; stroke-width: 0.5; stroke-linecap: square"/>
     </g>
     <g id="line2d_17">
      <g>
       <use xlink:href="#ma086391c16" x="417.434061" y="232.705354" style="stroke: #000000; stroke-width: 0.5"/>
      </g>
     </g>
     <g id="line2d_18">
      <g>
       <use xlink:href="#mc44684f9de" x="417.434061" y="4.971206" style="stroke: #000000; stroke-width: 0.5"/>
      </g>
     </g>
     <g id="text_6">
      <!-- $5$ -->
      <g transform="translate(413.594061 245.323479)scale(0.12 -0.12)">
       <defs>
        <path id="DejaVuSans-35" d="M 691 4666 
L 3169 4666 
L 3169 4134 
L 1269 4134 
L 1269 2991 
Q 1406 3038 1543 3061 
Q 1681 3084 1819 3084 
Q 2600 3084 3056 2656 
Q 3513 2228 3513 1497 
Q 3513 744 3044 326 
Q 2575 -91 1722 -91 
Q 1428 -91 1123 -41 
Q 819 9 494 109 
L 494 744 
Q 775 591 1075 516 
Q 1375 441 1709 441 
Q 2250 441 2565 725 
Q 2881 1009 2881 1497 
Q 2881 1984 2565 2268 
Q 2250 2553 1709 2553 
Q 1456 2553 1204 2497 
Q 953 2441 691 2322 
L 691 4666 
z
" transform="scale(0.015625)"/>
       </defs>
       <use xlink:href="#DejaVuSans-35" transform="translate(0 0.09375)"/>
      </g>
     </g>
    </g>
   </g>
   <g id="matplotlib.axis_2">
    <g id="ytick_1">
     <g id="line2d_19">
      <path d="M 14.659646 201.388121 
L 429.165354 201.388121 
" clip-path="url(#p40cecb4b7b)" style="fill: none; stroke: #000000; stroke-opacity: 0.1; stroke-width: 0.5; stroke-linecap: square"/>
     </g>
     <g id="line2d_20">
      <defs>
       <path id="mc90f34320a" d="M 0 0 
L 2.5 0 
" style="stroke: #000000; stroke-width: 0.5"/>
      </defs>
      <g>
       <use xlink:href="#mc90f34320a" x="14.659646" y="201.388121" style="stroke: #000000; stroke-width: 0.5"/>
      </g>
     </g>
     <g id="line2d_21">
      <defs>
       <path id="mb83dd93ed6" d="M 0 0 
L -2.5 0 
" style="stroke: #000000; stroke-width: 0.5"/>
      </defs>
      <g>
       <use xlink:href="#mb83dd93ed6" x="429.165354" y="201.388121" style="stroke: #000000; stroke-width: 0.5"/>
      </g>
     </g>
     <g id="text_7">
      <!-- $1$ -->
      <g transform="translate(3.479646 205.947184)scale(0.12 -0.12)">
       <use xlink:href="#DejaVuSans-31" transform="translate(0 0.09375)"/>
      </g>
     </g>
    </g>
    <g id="ytick_2">
     <g id="line2d_22">
      <path d="M 14.659646 169.089279 
L 429.165354 169.089279 
" clip-path="url(#p40cecb4b7b)" style="fill: none; stroke: #000000; stroke-opacity: 0.1; stroke-width: 0.5; stroke-linecap: square"/>
     </g>
     <g id="line2d_23">
      <g>
       <use xlink:href="#mc90f34320a" x="14.659646" y="169.089279" style="stroke: #000000; stroke-width: 0.5"/>
      </g>
     </g>
     <g id="line2d_24">
      <g>
       <use xlink:href="#mb83dd93ed6" x="429.165354" y="169.089279" style="stroke: #000000; stroke-width: 0.5"/>
      </g>
     </g>
     <g id="text_8">
      <!-- $2$ -->
      <g transform="translate(3.479646 173.648341)scale(0.12 -0.12)">
       <use xlink:href="#DejaVuSans-32" transform="translate(0 0.78125)"/>
      </g>
     </g>
    </g>
    <g id="ytick_3">
     <g id="line2d_25">
      <path d="M 14.659646 136.790436 
L 429.165354 136.790436 
" clip-path="url(#p40cecb4b7b)" style="fill: none; stroke: #000000; stroke-opacity: 0.1; stroke-width: 0.5; stroke-linecap: square"/>
     </g>
     <g id="line2d_26">
      <g>
       <use xlink:href="#mc90f34320a" x="14.659646" y="136.790436" style="stroke: #000000; stroke-width: 0.5"/>
      </g>
     </g>
     <g id="line2d_27">
      <g>
       <use xlink:href="#mb83dd93ed6" x="429.165354" y="136.790436" style="stroke: #000000; stroke-width: 0.5"/>
      </g>
     </g>
     <g id="text_9">
      <!-- $3$ -->
      <g transform="translate(3.479646 141.349498)scale(0.12 -0.12)">
       <use xlink:href="#DejaVuSans-33" transform="translate(0 0.78125)"/>
      </g>
     </g>
    </g>
    <g id="ytick_4">
     <g id="line2d_28">
      <path d="M 14.659646 104.491593 
L 429.165354 104.491593 
" clip-path="url(#p40cecb4b7b)" style="fill: none; stroke: #000000; stroke-opacity: 0.1; stroke-width: 0.5; stroke-linecap: square"/>
     </g>
     <g id="line2d_29">
      <g>
       <use xlink:href="#mc90f34320a" x="14.659646" y="104.491593" style="stroke: #000000; stroke-width: 0.5"/>
      </g>
     </g>
     <g id="line2d_30">
      <g>
       <use xlink:href="#mb83dd93ed6" x="429.165354" y="104.491593" style="stroke: #000000; stroke-width: 0.5"/>
      </g>
     </g>
     <g id="text_10">
      <!-- $4$ -->
      <g transform="translate(3.479646 109.050656)scale(0.12 -0.12)">
       <use xlink:href="#DejaVuSans-34" transform="translate(0 0.09375)"/>
      </g>
     </g>
    </g>
    <g id="ytick_5">
     <g id="line2d_31">
      <path d="M 14.659646 72.19275 
L 429.165354 72.19275 
" clip-path="url(#p40cecb4b7b)" style="fill: none; stroke: #000000; stroke-opacity: 0.1; stroke-width: 0.5; stroke-linecap: square"/>
     </g>
     <g id="line2d_32">
      <g>
       <use xlink:href="#mc90f34320a" x="14.659646" y="72.19275" style="stroke: #000000; stroke-width: 0.5"/>
      </g>
     </g>
     <g id="line2d_33">
      <g>
       <use xlink:href="#mb83dd93ed6" x="429.165354" y="72.19275" style="stroke: #000000; stroke-width: 0.5"/>
      </g>
     </g>
     <g id="text_11">
      <!-- $5$ -->
      <g transform="translate(3.479646 76.751813)scale(0.12 -0.12)">
       <use xlink:href="#DejaVuSans-35" transform="translate(0 0.09375)"/>
      </g>
     </g>
    </g>
    <g id="ytick_6">
     <g id="line2d_34">
      <path d="M 14.659646 39.893907 
L 429.165354 39.893907 
" clip-path="url(#p40cecb4b7b)" style="fill: none; stroke: #000000; stroke-opacity: 0.1; stroke-width: 0.5; stroke-linecap: square"/>
     </g>
     <g id="line2d_35">
      <g>
       <use xlink:href="#mc90f34320a" x="14.659646" y="39.893907" style="stroke: #000000; stroke-width: 0.5"/>
      </g>
     </g>
     <g id="line2d_36">
      <g>
       <use xlink:href="#mb83dd93ed6" x="429.165354" y="39.893907" style="stroke: #000000; stroke-width: 0.5"/>
      </g>
     </g>
     <g id="text_12">
      <!-- $6$ -->
      <g transform="translate(3.479646 44.45297)scale(0.12 -0.12)">
       <defs>
        <path id="DejaVuSans-36" d="M 2113 2584 
Q 1688 2584 1439 2293 
Q 1191 2003 1191 1497 
Q 1191 994 1439 701 
Q 1688 409 2113 409 
Q 2538 409 2786 701 
Q 3034 994 3034 1497 
Q 3034 2003 2786 2293 
Q 2538 2584 2113 2584 
z
M 3366 4563 
L 3366 3988 
Q 3128 4100 2886 4159 
Q 2644 4219 2406 4219 
Q 1781 4219 1451 3797 
Q 1122 3375 1075 2522 
Q 1259 2794 1537 2939 
Q 1816 3084 2150 3084 
Q 2853 3084 3261 2657 
Q 3669 2231 3669 1497 
Q 3669 778 3244 343 
Q 2819 -91 2113 -91 
Q 1303 -91 875 529 
Q 447 1150 447 2328 
Q 447 3434 972 4092 
Q 1497 4750 2381 4750 
Q 2619 4750 2861 4703 
Q 3103 4656 3366 4563 
z
" transform="scale(0.015625)"/>
       </defs>
       <use xlink:href="#DejaVuSans-36" transform="translate(0 0.78125)"/>
      </g>
     </g>
    </g>
    <g id="ytick_7">
     <g id="line2d_37">
      <path d="M 14.659646 7.595065 
L 429.165354 7.595065 
" clip-path="url(#p40cecb4b7b)" style="fill: none; stroke: #000000; stroke-opacity: 0.1; stroke-width: 0.5; stroke-linecap: square"/>
     </g>
     <g id="line2d_38">
      <g>
       <use xlink:href="#mc90f34320a" x="14.659646" y="7.595065" style="stroke: #000000; stroke-width: 0.5"/>
      </g>
     </g>
     <g id="line2d_39">
      <g>
       <use xlink:href="#mb83dd93ed6" x="429.165354" y="7.595065" style="stroke: #000000; stroke-width: 0.5"/>
      </g>
     </g>
     <g id="text_13">
      <!-- $7$ -->
      <g transform="translate(3.479646 12.154127)scale(0.12 -0.12)">
       <defs>
        <path id="DejaVuSans-37" d="M 525 4666 
L 3525 4666 
L 3525 4397 
L 1831 0 
L 1172 0 
L 2766 4134 
L 525 4134 
L 525 4666 
z
" transform="scale(0.015625)"/>
       </defs>
       <use xlink:href="#DejaVuSans-37" transform="translate(0 0.09375)"/>
      </g>
     </g>
    </g>
   </g>
   <g id="PathCollection_1">
    <defs>
     <path id="m59994024a2" d="M 0 2 
C 0.530406 2 1.03916 1.789267 1.414214 1.414214 
C 1.789267 1.03916 2 0.530406 2 0 
C 2 -0.530406 1.789267 -1.03916 1.414214 -1.414214 
C 1.03916 -1.789267 0.530406 -2 0 -2 
C -0.530406 -2 -1.03916 -1.789267 -1.414214 -1.414214 
C -1.789267 -1.03916 -2 -0.530406 -2 0 
C -2 0.530406 -1.789267 1.03916 -1.414214 1.414214 
C -1.03916 1.789267 -0.530406 2 0 2 
z
"/>
    </defs>
    <g clip-path="url(#p40cecb4b7b)">
     <use xlink:href="#m59994024a2" x="26.390939" y="201.400944" style="fill: #00008b"/>
     <use xlink:href="#m59994024a2" x="34.211802" y="199.517867" style="fill: #00008b"/>
     <use xlink:href="#m59994024a2" x="42.032664" y="196.819043" style="fill: #00008b"/>
     <use xlink:href="#m59994024a2" x="49.853527" y="193.325376" style="fill: #00008b"/>
     <use xlink:href="#m59994024a2" x="57.674389" y="189.306155" style="fill: #00008b"/>
     <use xlink:href="#m59994024a2" x="65.495251" y="184.352842" style="fill: #00008b"/>
     <use xlink:href="#m59994024a2" x="73.316114" y="178.321422" style="fill: #00008b"/>
     <use xlink:href="#m59994024a2" x="81.136976" y="171.672214" style="fill: #00008b"/>
     <use xlink:href="#m59994024a2" x="88.957839" y="163.78538" style="fill: #00008b"/>
     <use xlink:href="#m59994024a2" x="96.778701" y="154.62803" style="fill: #00008b"/>
     <use xlink:href="#m59994024a2" x="104.599564" y="144.107117" style="fill: #00008b"/>
     <use xlink:href="#m59994024a2" x="112.420426" y="132.32602" style="fill: #00008b"/>
     <use xlink:href="#m59994024a2" x="120.241288" y="119.008749" style="fill: #00008b"/>
     <use xlink:href="#m59994024a2" x="128.062151" y="104.044334" style="fill: #00008b"/>
     <use xlink:href="#m59994024a2" x="135.883013" y="87.419037" style="fill: #00008b"/>
     <use xlink:href="#m59994024a2" x="143.703876" y="69.771184" style="fill: #00008b"/>
     <use xlink:href="#m59994024a2" x="151.524738" y="51.564793" style="fill: #00008b"/>
     <use xlink:href="#m59994024a2" x="159.345601" y="33.745789" style="fill: #00008b"/>
     <use xlink:href="#m59994024a2" x="167.166463" y="19.315945" style="fill: #00008b"/>
     <use xlink:href="#m59994024a2" x="174.987325" y="11.416512" style="fill: #00008b"/>
     <use xlink:href="#m59994024a2" x="182.808188" y="15.095408" style="fill: #00008b"/>
     <use xlink:href="#m59994024a2" x="190.62905" y="34.559964" style="fill: #00008b"/>
     <use xlink:href="#m59994024a2" x="198.449913" y="67.492001" style="fill: #00008b"/>
     <use xlink:href="#m59994024a2" x="206.270775" y="105.294774" style="fill: #00008b"/>
     <use xlink:href="#m59994024a2" x="214.091638" y="138.537147" style="fill: #00008b"/>
     <use xlink:href="#m59994024a2" x="221.9125" y="163.063388" style="fill: #00008b"/>
     <use xlink:href="#m59994024a2" x="229.733362" y="179.536558" style="fill: #00008b"/>
     <use xlink:href="#m59994024a2" x="237.554225" y="190.075293" style="fill: #00008b"/>
     <use xlink:href="#m59994024a2" x="245.375087" y="196.461977" style="fill: #00008b"/>
     <use xlink:href="#m59994024a2" x="253.19595" y="200.366325" style="fill: #00008b"/>
     <use xlink:href="#m59994024a2" x="261.016812" y="202.422881" style="fill: #00008b"/>
     <use xlink:href="#m59994024a2" x="268.837675" y="203.142129" style="fill: #00008b"/>
     <use xlink:href="#m59994024a2" x="276.658537" y="202.814799" style="fill: #00008b"/>
     <use xlink:href="#m59994024a2" x="284.479399" y="201.711571" style="fill: #00008b"/>
     <use xlink:href="#m59994024a2" x="292.300262" y="199.983317" style="fill: #00008b"/>
     <use xlink:href="#m59994024a2" x="300.121124" y="197.450957" style="fill: #00008b"/>
     <use xlink:href="#m59994024a2" x="307.941987" y="194.192732" style="fill: #00008b"/>
     <use xlink:href="#m59994024a2" x="315.762849" y="190.045253" style="fill: #00008b"/>
     <use xlink:href="#m59994024a2" x="323.583712" y="185.324299" style="fill: #00008b"/>
     <use xlink:href="#m59994024a2" x="331.404574" y="179.663923" style="fill: #00008b"/>
     <use xlink:href="#m59994024a2" x="339.225436" y="173.122789" style="fill: #00008b"/>
     <use xlink:href="#m59994024a2" x="347.046299" y="165.247123" style="fill: #00008b"/>
     <use xlink:href="#m59994024a2" x="354.867161" y="156.451873" style="fill: #00008b"/>
     <use xlink:href="#m59994024a2" x="362.688024" y="146.362122" style="fill: #00008b"/>
     <use xlink:href="#m59994024a2" x="370.508886" y="134.842666" style="fill: #00008b"/>
     <use xlink:href="#m59994024a2" x="378.329749" y="121.729145" style="fill: #00008b"/>
     <use xlink:href="#m59994024a2" x="386.150611" y="107.037246" style="fill: #00008b"/>
     <use xlink:href="#m59994024a2" x="393.971473" y="90.69453" style="fill: #00008b"/>
     <use xlink:href="#m59994024a2" x="401.792336" y="73.294741" style="fill: #00008b"/>
     <use xlink:href="#m59994024a2" x="409.613198" y="55.020137" style="fill: #00008b"/>
     <use xlink:href="#m59994024a2" x="417.434061" y="37.055036" style="fill: #00008b"/>
    </g>
   </g>
   <g id="PathCollection_2">
    <defs>
     <path id="m44b95fefe2" d="M 0 2 
C 0.530406 2 1.03916 1.789267 1.414214 1.414214 
C 1.789267 1.03916 2 0.530406 2 0 
C 2 -0.530406 1.789267 -1.03916 1.414214 -1.414214 
C 1.03916 -1.789267 0.530406 -2 0 -2 
C -0.530406 -2 -1.03916 -1.789267 -1.414214 -1.414214 
C -1.789267 -1.03916 -2 -0.530406 -2 0 
C -2 0.530406 -1.789267 1.03916 -1.414214 1.414214 
C -1.03916 1.789267 -0.530406 2 0 2 
z
"/>
    </defs>
    <g clip-path="url(#p40cecb4b7b)">
     <use xlink:href="#m44b95fefe2" x="26.390939" y="201.407514" style="fill: #cc0000"/>
     <use xlink:href="#m44b95fefe2" x="34.211802" y="207.225505" style="fill: #cc0000"/>
     <use xlink:href="#m44b95fefe2" x="42.032664" y="211.717831" style="fill: #cc0000"/>
     <use xlink:href="#m44b95fefe2" x="49.853527" y="215.331738" style="fill: #cc0000"/>
     <use xlink:href="#m44b95fefe2" x="57.674389" y="218.167251" style="fill: #cc0000"/>
     <use xlink:href="#m44b95fefe2" x="65.495251" y="220.452669" style="fill: #cc0000"/>
     <use xlink:href="#m44b95fefe2" x="73.316114" y="222.164228" style="fill: #cc0000"/>
     <use xlink:href="#m44b95fefe2" x="81.136976" y="223.365121" style="fill: #cc0000"/>
     <use xlink:href="#m44b95fefe2" x="88.957839" y="224.375429" style="fill: #cc0000"/>
     <use xlink:href="#m44b95fefe2" x="96.778701" y="225.045685" style="fill: #cc0000"/>
     <use xlink:href="#m44b95fefe2" x="104.599564" y="225.255059" style="fill: #cc0000"/>
     <use xlink:href="#m44b95fefe2" x="112.420426" y="225.316518" style="fill: #cc0000"/>
     <use xlink:href="#m44b95fefe2" x="120.241288" y="225.079824" style="fill: #cc0000"/>
     <use xlink:href="#m44b95fefe2" x="128.062151" y="224.416978" style="fill: #cc0000"/>
     <use xlink:href="#m44b95fefe2" x="135.883013" y="223.135693" style="fill: #cc0000"/>
     <use xlink:href="#m44b95fefe2" x="143.703876" y="221.05599" style="fill: #cc0000"/>
     <use xlink:href="#m44b95fefe2" x="151.524738" y="217.705836" style="fill: #cc0000"/>
     <use xlink:href="#m44b95fefe2" x="159.345601" y="212.38588" style="fill: #cc0000"/>
     <use xlink:href="#m44b95fefe2" x="167.166463" y="203.483636" style="fill: #cc0000"/>
     <use xlink:href="#m44b95fefe2" x="174.987325" y="189.724631" style="fill: #cc0000"/>
     <use xlink:href="#m44b95fefe2" x="182.808188" y="168.826601" style="fill: #cc0000"/>
     <use xlink:href="#m44b95fefe2" x="190.62905" y="141.42495" style="fill: #cc0000"/>
     <use xlink:href="#m44b95fefe2" x="198.449913" y="112.94367" style="fill: #cc0000"/>
     <use xlink:href="#m44b95fefe2" x="206.270775" y="92.526969" style="fill: #cc0000"/>
     <use xlink:href="#m44b95fefe2" x="214.091638" y="86.173925" style="fill: #cc0000"/>
     <use xlink:href="#m44b95fefe2" x="221.9125" y="92.584302" style="fill: #cc0000"/>
     <use xlink:href="#m44b95fefe2" x="229.733362" y="107.116375" style="fill: #cc0000"/>
     <use xlink:href="#m44b95fefe2" x="237.554225" y="124.670014" style="fill: #cc0000"/>
     <use xlink:href="#m44b95fefe2" x="245.375087" y="142.191274" style="fill: #cc0000"/>
     <use xlink:href="#m44b95fefe2" x="253.19595" y="158.163509" style="fill: #cc0000"/>
     <use xlink:href="#m44b95fefe2" x="261.016812" y="171.824105" style="fill: #cc0000"/>
     <use xlink:href="#m44b95fefe2" x="268.837675" y="183.234136" style="fill: #cc0000"/>
     <use xlink:href="#m44b95fefe2" x="276.658537" y="192.657505" style="fill: #cc0000"/>
     <use xlink:href="#m44b95fefe2" x="284.479399" y="200.19508" style="fill: #cc0000"/>
     <use xlink:href="#m44b95fefe2" x="292.300262" y="206.18648" style="fill: #cc0000"/>
     <use xlink:href="#m44b95fefe2" x="300.121124" y="210.964303" style="fill: #cc0000"/>
     <use xlink:href="#m44b95fefe2" x="307.941987" y="214.826361" style="fill: #cc0000"/>
     <use xlink:href="#m44b95fefe2" x="315.762849" y="217.801583" style="fill: #cc0000"/>
     <use xlink:href="#m44b95fefe2" x="323.583712" y="220.043888" style="fill: #cc0000"/>
     <use xlink:href="#m44b95fefe2" x="331.404574" y="221.957945" style="fill: #cc0000"/>
     <use xlink:href="#m44b95fefe2" x="339.225436" y="223.319654" style="fill: #cc0000"/>
     <use xlink:href="#m44b95fefe2" x="347.046299" y="224.303728" style="fill: #cc0000"/>
     <use xlink:href="#m44b95fefe2" x="354.867161" y="224.8936" style="fill: #cc0000"/>
     <use xlink:href="#m44b95fefe2" x="362.688024" y="225.379605" style="fill: #cc0000"/>
     <use xlink:href="#m44b95fefe2" x="370.508886" y="225.347252" style="fill: #cc0000"/>
     <use xlink:href="#m44b95fefe2" x="378.329749" y="225.247033" style="fill: #cc0000"/>
     <use xlink:href="#m44b95fefe2" x="386.150611" y="224.507707" style="fill: #cc0000"/>
     <use xlink:href="#m44b95fefe2" x="393.971473" y="223.502765" style="fill: #cc0000"/>
     <use xlink:href="#m44b95fefe2" x="401.792336" y="221.641268" style="fill: #cc0000"/>
     <use xlink:href="#m44b95fefe2" x="409.613198" y="218.585708" style="fill: #cc0000"/>
     <use xlink:href="#m44b95fefe2" x="417.434061" y="213.661891" style="fill: #cc0000"/>
    </g>
   </g>
   <g id="patch_3">
    <path d="M 14.659646 232.705354 
L 14.659646 4.971206 
" style="fill: none; stroke: #000000; stroke-linejoin: miter; stroke-linecap: square"/>
   </g>
   <g id="patch_4">
    <path d="M 429.165354 232.705354 
L 429.165354 4.971206 
" style="fill: none; stroke: #000000; stroke-linejoin: miter; stroke-linecap: square"/>
   </g>
   <g id="patch_5">
    <path d="M 14.659646 232.705354 
L 429.165354 232.705354 
" style="fill: none; stroke: #000000; stroke-linejoin: miter; stroke-linecap: square"/>
   </g>
   <g id="patch_6">
    <path d="M 14.659646 4.971206 
L 429.165354 4.971206 
" style="fill: none; stroke: #000000; stroke-linejoin: miter; stroke-linecap: square"/>
   </g>
   <g id="line2d_40">
    <path d="M 26.390939 201.388121 
L 34.211802 199.479204 
L 42.032664 196.85832 
L 49.853527 193.524478 
L 57.674389 189.448172 
L 65.495251 184.580581 
L 73.316114 178.853776 
L 81.136976 172.165374 
L 88.957839 164.441792 
L 96.778701 155.560928 
L 104.599564 145.398158 
L 112.420426 133.864972 
L 120.241288 120.837967 
L 128.062151 106.281684 
L 135.883013 90.201639 
L 143.703876 72.857076 
L 151.524738 54.744202 
L 159.345601 36.912451 
L 167.166463 21.730492 
L 174.987325 12.665547 
L 182.808188 15.021284 
L 190.62905 33.134902 
L 198.449913 66.002647 
L 206.270775 104.741024 
L 214.091638 138.889436 
L 221.9125 163.884886 
L 229.733362 180.357257 
L 237.554225 190.66519 
L 245.375087 196.959685 
L 253.19595 200.545316 
L 261.016812 202.361781 
L 268.837675 202.882129 
L 276.658537 202.426486 
L 284.479399 201.140512 
L 292.300262 199.110744 
L 300.121124 196.371165 
L 307.941987 192.909755 
L 315.762849 188.702616 
L 323.583712 183.696216 
L 331.404574 177.797608 
L 339.225436 170.939682 
L 347.046299 163.007656 
L 354.867161 153.913428 
L 362.688024 143.509873 
L 370.508886 131.7131 
L 378.329749 118.409758 
L 386.150611 103.56985 
L 393.971473 87.224199 
L 401.792336 69.62801 
L 409.613198 51.477605 
L 417.434061 33.885351 
" clip-path="url(#p40cecb4b7b)" style="fill: none; stroke: #00008b; stroke-width: 2"/>
   </g>
   <g id="line2d_41">
    <path d="M 26.390939 201.388121 
L 34.211802 207.530831 
L 42.032664 212.347919 
L 49.853527 216.103987 
L 57.674389 219.021303 
L 65.495251 221.267782 
L 73.316114 222.979743 
L 81.136976 224.272107 
L 88.957839 225.200084 
L 96.778701 225.826389 
L 104.599564 226.172669 
L 112.420426 226.243513 
L 120.241288 226.010687 
L 128.062151 225.395313 
L 135.883013 224.286132 
L 143.703876 222.390058 
L 151.524738 219.301376 
L 159.345601 214.292393 
L 167.166463 205.919749 
L 174.987325 192.263306 
L 182.808188 171.062003 
L 190.62905 142.180986 
L 198.449913 110.995533 
L 206.270775 88.063137 
L 214.091638 80.911217 
L 221.9125 88.398512 
L 229.733362 104.637527 
L 237.554225 123.975944 
L 245.375087 142.871516 
L 253.19595 159.789837 
L 261.016812 174.06206 
L 268.837675 185.764052 
L 276.658537 195.185269 
L 284.479399 202.668779 
L 292.300262 208.545287 
L 300.121124 213.143983 
L 307.941987 216.742182 
L 315.762849 219.515276 
L 323.583712 221.647396 
L 331.404574 223.280379 
L 339.225436 224.496721 
L 347.046299 225.370537 
L 354.867161 225.942513 
L 362.688024 226.24162 
L 370.508886 226.260048 
L 378.329749 225.976182 
L 386.150611 225.279189 
L 393.971473 224.064015 
L 401.792336 222.03176 
L 409.613198 218.64999 
L 417.434061 213.145022 
" clip-path="url(#p40cecb4b7b)" style="fill: none; stroke: #cc0000; stroke-width: 2"/>
   </g>
  </g>
 </g>
 <defs>
  <clipPath id="p40cecb4b7b">
   <rect x="14.659646" y="4.971206" width="414.505709" height="227.734148"/>
  </clipPath>
 </defs>
</svg>
