<?xml version="1.0" encoding="utf-8" standalone="no"?>
<!DOCTYPE svg PUBLIC "-//W3C//DTD SVG 1.1//EN"
  "http://www.w3.org/Graphics/SVG/1.1/DTD/svg11.dtd">
<svg xmlns:xlink="http://www.w3.org/1999/xlink" width="432pt" height="252pt" viewBox="0 0 432 252" xmlns="http://www.w3.org/2000/svg" version="1.1">
 <metadata>
  <rdf:RDF xmlns:dc="http://purl.org/dc/elements/1.1/" xmlns:cc="http://creativecommons.org/ns#" xmlns:rdf="http://www.w3.org/1999/02/22-rdf-syntax-ns#">
   <cc:Work>
    <dc:type rdf:resource="http://purl.org/dc/dcmitype/StillImage"/>
    <dc:date>2021-11-24T21:43:53.892217</dc:date>
    <dc:format>image/svg+xml</dc:format>
    <dc:creator>
     <cc:Agent>
      <dc:title>Matplotlib v3.5.0, https://matplotlib.org/</dc:title>
     </cc:Agent>
    </dc:creator>
   </cc:Work>
  </rdf:RDF>
 </metadata>
 <defs>
  <style type="text/css">*{stroke-linejoin: round; stroke-linecap: butt}</style>
 </defs>
 <g id="figure_1">
  <g id="patch_1">
   <path d="M 0 252 
L 432 252 
L 432 0 
L 0 0 
z
" style="fill: #ffffff"/>
  </g>
  <g id="axes_1">
   <g id="patch_2">
    <path d="M 22.196574 232.705354 
L 429.165354 232.705354 
L 429.165354 2.834646 
L 22.196574 2.834646 
z
" style="fill: #ffffff"/>
   </g>
   <g id="matplotlib.axis_1">
    <g id="xtick_1">
     <g id="line2d_1">
      <path d="M 33.714559 232.705354 
L 33.714559 2.834646 
" clip-path="url(#p7b51d05aa2)" style="fill: none; stroke: #000000; stroke-opacity: 0.1; stroke-width: 0.5; stroke-linecap: square"/>
     </g>
     <g id="line2d_2">
      <defs>
       <path id="ma4a7dae70d" d="M 0 0 
L 0 -2.5 
" style="stroke: #000000; stroke-width: 0.5"/>
      </defs>
      <g>
       <use xlink:href="#ma4a7dae70d" x="33.714559" y="232.705354" style="stroke: #000000; stroke-width: 0.5"/>
      </g>
     </g>
     <g id="line2d_3">
      <defs>
       <path id="m72467e367e" d="M 0 0 
L 0 2.5 
" style="stroke: #000000; stroke-width: 0.5"/>
      </defs>
      <g>
       <use xlink:href="#m72467e367e" x="33.714559" y="2.834646" style="stroke: #000000; stroke-width: 0.5"/>
      </g>
     </g>
     <g id="text_1">
      <!-- $0$ -->
      <g transform="translate(29.874559 245.323479)scale(0.12 -0.12)">
       <defs>
        <path id="DejaVuSans-30" d="M 2034 4250 
Q 1547 4250 1301 3770 
Q 1056 3291 1056 2328 
Q 1056 1369 1301 889 
Q 1547 409 2034 409 
Q 2525 409 2770 889 
Q 3016 1369 3016 2328 
Q 3016 3291 2770 3770 
Q 2525 4250 2034 4250 
z
M 2034 4750 
Q 2819 4750 3233 4129 
Q 3647 3509 3647 2328 
Q 3647 1150 3233 529 
Q 2819 -91 2034 -91 
Q 1250 -91 836 529 
Q 422 1150 422 2328 
Q 422 3509 836 4129 
Q 1250 4750 2034 4750 
z
" transform="scale(0.015625)"/>
       </defs>
       <use xlink:href="#DejaVuSans-30" transform="translate(0 0.78125)"/>
      </g>
     </g>
    </g>
    <g id="xtick_2">
     <g id="line2d_4">
      <path d="M 110.501121 232.705354 
L 110.501121 2.834646 
" clip-path="url(#p7b51d05aa2)" style="fill: none; stroke: #000000; stroke-opacity: 0.1; stroke-width: 0.5; stroke-linecap: square"/>
     </g>
     <g id="line2d_5">
      <g>
       <use xlink:href="#ma4a7dae70d" x="110.501121" y="232.705354" style="stroke: #000000; stroke-width: 0.5"/>
      </g>
     </g>
     <g id="line2d_6">
      <g>
       <use xlink:href="#m72467e367e" x="110.501121" y="2.834646" style="stroke: #000000; stroke-width: 0.5"/>
      </g>
     </g>
     <g id="text_2">
      <!-- $1$ -->
      <g transform="translate(106.661121 245.323479)scale(0.12 -0.12)">
       <defs>
        <path id="DejaVuSans-31" d="M 794 531 
L 1825 531 
L 1825 4091 
L 703 3866 
L 703 4441 
L 1819 4666 
L 2450 4666 
L 2450 531 
L 3481 531 
L 3481 0 
L 794 0 
L 794 531 
z
" transform="scale(0.015625)"/>
       </defs>
       <use xlink:href="#DejaVuSans-31" transform="translate(0 0.09375)"/>
      </g>
     </g>
    </g>
    <g id="xtick_3">
     <g id="line2d_7">
      <path d="M 187.287683 232.705354 
L 187.287683 2.834646 
" clip-path="url(#p7b51d05aa2)" style="fill: none; stroke: #000000; stroke-opacity: 0.1; stroke-width: 0.5; stroke-linecap: square"/>
     </g>
     <g id="line2d_8">
      <g>
       <use xlink:href="#ma4a7dae70d" x="187.287683" y="232.705354" style="stroke: #000000; stroke-width: 0.5"/>
      </g>
     </g>
     <g id="line2d_9">
      <g>
       <use xlink:href="#m72467e367e" x="187.287683" y="2.834646" style="stroke: #000000; stroke-width: 0.5"/>
      </g>
     </g>
     <g id="text_3">
      <!-- $2$ -->
      <g transform="translate(183.447683 245.323479)scale(0.12 -0.12)">
       <defs>
        <path id="DejaVuSans-32" d="M 1228 531 
L 3431 531 
L 3431 0 
L 469 0 
L 469 531 
Q 828 903 1448 1529 
Q 2069 2156 2228 2338 
Q 2531 2678 2651 2914 
Q 2772 3150 2772 3378 
Q 2772 3750 2511 3984 
Q 2250 4219 1831 4219 
Q 1534 4219 1204 4116 
Q 875 4013 500 3803 
L 500 4441 
Q 881 4594 1212 4672 
Q 1544 4750 1819 4750 
Q 2544 4750 2975 4387 
Q 3406 4025 3406 3419 
Q 3406 3131 3298 2873 
Q 3191 2616 2906 2266 
Q 2828 2175 2409 1742 
Q 1991 1309 1228 531 
z
" transform="scale(0.015625)"/>
       </defs>
       <use xlink:href="#DejaVuSans-32" transform="translate(0 0.78125)"/>
      </g>
     </g>
    </g>
    <g id="xtick_4">
     <g id="line2d_10">
      <path d="M 264.074245 232.705354 
L 264.074245 2.834646 
" clip-path="url(#p7b51d05aa2)" style="fill: none; stroke: #000000; stroke-opacity: 0.1; stroke-width: 0.5; stroke-linecap: square"/>
     </g>
     <g id="line2d_11">
      <g>
       <use xlink:href="#ma4a7dae70d" x="264.074245" y="232.705354" style="stroke: #000000; stroke-width: 0.5"/>
      </g>
     </g>
     <g id="line2d_12">
      <g>
       <use xlink:href="#m72467e367e" x="264.074245" y="2.834646" style="stroke: #000000; stroke-width: 0.5"/>
      </g>
     </g>
     <g id="text_4">
      <!-- $3$ -->
      <g transform="translate(260.234245 245.323479)scale(0.12 -0.12)">
       <defs>
        <path id="DejaVuSans-33" d="M 2597 2516 
Q 3050 2419 3304 2112 
Q 3559 1806 3559 1356 
Q 3559 666 3084 287 
Q 2609 -91 1734 -91 
Q 1441 -91 1130 -33 
Q 819 25 488 141 
L 488 750 
Q 750 597 1062 519 
Q 1375 441 1716 441 
Q 2309 441 2620 675 
Q 2931 909 2931 1356 
Q 2931 1769 2642 2001 
Q 2353 2234 1838 2234 
L 1294 2234 
L 1294 2753 
L 1863 2753 
Q 2328 2753 2575 2939 
Q 2822 3125 2822 3475 
Q 2822 3834 2567 4026 
Q 2313 4219 1838 4219 
Q 1578 4219 1281 4162 
Q 984 4106 628 3988 
L 628 4550 
Q 988 4650 1302 4700 
Q 1616 4750 1894 4750 
Q 2613 4750 3031 4423 
Q 3450 4097 3450 3541 
Q 3450 3153 3228 2886 
Q 3006 2619 2597 2516 
z
" transform="scale(0.015625)"/>
       </defs>
       <use xlink:href="#DejaVuSans-33" transform="translate(0 0.78125)"/>
      </g>
     </g>
    </g>
    <g id="xtick_5">
     <g id="line2d_13">
      <path d="M 340.860808 232.705354 
L 340.860808 2.834646 
" clip-path="url(#p7b51d05aa2)" style="fill: none; stroke: #000000; stroke-opacity: 0.1; stroke-width: 0.5; stroke-linecap: square"/>
     </g>
     <g id="line2d_14">
      <g>
       <use xlink:href="#ma4a7dae70d" x="340.860808" y="232.705354" style="stroke: #000000; stroke-width: 0.5"/>
      </g>
     </g>
     <g id="line2d_15">
      <g>
       <use xlink:href="#m72467e367e" x="340.860808" y="2.834646" style="stroke: #000000; stroke-width: 0.5"/>
      </g>
     </g>
     <g id="text_5">
      <!-- $4$ -->
      <g transform="translate(337.020808 245.323479)scale(0.12 -0.12)">
       <defs>
        <path id="DejaVuSans-34" d="M 2419 4116 
L 825 1625 
L 2419 1625 
L 2419 4116 
z
M 2253 4666 
L 3047 4666 
L 3047 1625 
L 3713 1625 
L 3713 1100 
L 3047 1100 
L 3047 0 
L 2419 0 
L 2419 1100 
L 313 1100 
L 313 1709 
L 2253 4666 
z
" transform="scale(0.015625)"/>
       </defs>
       <use xlink:href="#DejaVuSans-34" transform="translate(0 0.09375)"/>
      </g>
     </g>
    </g>
    <g id="xtick_6">
     <g id="line2d_16">
      <path d="M 417.64737 232.705354 
L 417.64737 2.834646 
" clip-path="url(#p7b51d05aa2)" style="fill: none; stroke: #000000; stroke-opacity: 0.1; stroke-width: 0.5; stroke-linecap: square"/>
     </g>
     <g id="line2d_17">
      <g>
       <use xlink:href="#ma4a7dae70d" x="417.64737" y="232.705354" style="stroke: #000000; stroke-width: 0.5"/>
      </g>
     </g>
     <g id="line2d_18">
      <g>
       <use xlink:href="#m72467e367e" x="417.64737" y="2.834646" style="stroke: #000000; stroke-width: 0.5"/>
      </g>
     </g>
     <g id="text_6">
      <!-- $5$ -->
      <g transform="translate(413.80737 245.323479)scale(0.12 -0.12)">
       <defs>
        <path id="DejaVuSans-35" d="M 691 4666 
L 3169 4666 
L 3169 4134 
L 1269 4134 
L 1269 2991 
Q 1406 3038 1543 3061 
Q 1681 3084 1819 3084 
Q 2600 3084 3056 2656 
Q 3513 2228 3513 1497 
Q 3513 744 3044 326 
Q 2575 -91 1722 -91 
Q 1428 -91 1123 -41 
Q 819 9 494 109 
L 494 744 
Q 775 591 1075 516 
Q 1375 441 1709 441 
Q 2250 441 2565 725 
Q 2881 1009 2881 1497 
Q 2881 1984 2565 2268 
Q 2250 2553 1709 2553 
Q 1456 2553 1204 2497 
Q 953 2441 691 2322 
L 691 4666 
z
" transform="scale(0.015625)"/>
       </defs>
       <use xlink:href="#DejaVuSans-35" transform="translate(0 0.09375)"/>
      </g>
     </g>
    </g>
   </g>
   <g id="matplotlib.axis_2">
    <g id="ytick_1">
     <g id="line2d_19">
      <path d="M 22.196574 226.722989 
L 429.165354 226.722989 
" clip-path="url(#p7b51d05aa2)" style="fill: none; stroke: #000000; stroke-opacity: 0.1; stroke-width: 0.5; stroke-linecap: square"/>
     </g>
     <g id="line2d_20">
      <defs>
       <path id="mc32183141a" d="M 0 0 
L 2.5 0 
" style="stroke: #000000; stroke-width: 0.5"/>
      </defs>
      <g>
       <use xlink:href="#mc32183141a" x="22.196574" y="226.722989" style="stroke: #000000; stroke-width: 0.5"/>
      </g>
     </g>
     <g id="line2d_21">
      <defs>
       <path id="m659e7d914c" d="M 0 0 
L -2.5 0 
" style="stroke: #000000; stroke-width: 0.5"/>
      </defs>
      <g>
       <use xlink:href="#m659e7d914c" x="429.165354" y="226.722989" style="stroke: #000000; stroke-width: 0.5"/>
      </g>
     </g>
     <g id="text_7">
      <!-- $0$ -->
      <g transform="translate(11.016574 231.282051)scale(0.12 -0.12)">
       <use xlink:href="#DejaVuSans-30" transform="translate(0 0.78125)"/>
      </g>
     </g>
    </g>
    <g id="ytick_2">
     <g id="line2d_22">
      <path d="M 22.196574 174.375508 
L 429.165354 174.375508 
" clip-path="url(#p7b51d05aa2)" style="fill: none; stroke: #000000; stroke-opacity: 0.1; stroke-width: 0.5; stroke-linecap: square"/>
     </g>
     <g id="line2d_23">
      <g>
       <use xlink:href="#mc32183141a" x="22.196574" y="174.375508" style="stroke: #000000; stroke-width: 0.5"/>
      </g>
     </g>
     <g id="line2d_24">
      <g>
       <use xlink:href="#m659e7d914c" x="429.165354" y="174.375508" style="stroke: #000000; stroke-width: 0.5"/>
      </g>
     </g>
     <g id="text_8">
      <!-- $5$ -->
      <g transform="translate(11.016574 178.93457)scale(0.12 -0.12)">
       <use xlink:href="#DejaVuSans-35" transform="translate(0 0.09375)"/>
      </g>
     </g>
    </g>
    <g id="ytick_3">
     <g id="line2d_25">
      <path d="M 22.196574 122.028027 
L 429.165354 122.028027 
" clip-path="url(#p7b51d05aa2)" style="fill: none; stroke: #000000; stroke-opacity: 0.1; stroke-width: 0.5; stroke-linecap: square"/>
     </g>
     <g id="line2d_26">
      <g>
       <use xlink:href="#mc32183141a" x="22.196574" y="122.028027" style="stroke: #000000; stroke-width: 0.5"/>
      </g>
     </g>
     <g id="line2d_27">
      <g>
       <use xlink:href="#m659e7d914c" x="429.165354" y="122.028027" style="stroke: #000000; stroke-width: 0.5"/>
      </g>
     </g>
     <g id="text_9">
      <!-- $10$ -->
      <g transform="translate(3.336574 126.58709)scale(0.12 -0.12)">
       <use xlink:href="#DejaVuSans-31" transform="translate(0 0.78125)"/>
       <use xlink:href="#DejaVuSans-30" transform="translate(63.623047 0.78125)"/>
      </g>
     </g>
    </g>
    <g id="ytick_4">
     <g id="line2d_28">
      <path d="M 22.196574 69.680546 
L 429.165354 69.680546 
" clip-path="url(#p7b51d05aa2)" style="fill: none; stroke: #000000; stroke-opacity: 0.1; stroke-width: 0.5; stroke-linecap: square"/>
     </g>
     <g id="line2d_29">
      <g>
       <use xlink:href="#mc32183141a" x="22.196574" y="69.680546" style="stroke: #000000; stroke-width: 0.5"/>
      </g>
     </g>
     <g id="line2d_30">
      <g>
       <use xlink:href="#m659e7d914c" x="429.165354" y="69.680546" style="stroke: #000000; stroke-width: 0.5"/>
      </g>
     </g>
     <g id="text_10">
      <!-- $15$ -->
      <g transform="translate(3.336574 74.239609)scale(0.12 -0.12)">
       <use xlink:href="#DejaVuSans-31" transform="translate(0 0.09375)"/>
       <use xlink:href="#DejaVuSans-35" transform="translate(63.623047 0.09375)"/>
      </g>
     </g>
    </g>
    <g id="ytick_5">
     <g id="line2d_31">
      <path d="M 22.196574 17.333065 
L 429.165354 17.333065 
" clip-path="url(#p7b51d05aa2)" style="fill: none; stroke: #000000; stroke-opacity: 0.1; stroke-width: 0.5; stroke-linecap: square"/>
     </g>
     <g id="line2d_32">
      <g>
       <use xlink:href="#mc32183141a" x="22.196574" y="17.333065" style="stroke: #000000; stroke-width: 0.5"/>
      </g>
     </g>
     <g id="line2d_33">
      <g>
       <use xlink:href="#m659e7d914c" x="429.165354" y="17.333065" style="stroke: #000000; stroke-width: 0.5"/>
      </g>
     </g>
     <g id="text_11">
      <!-- $20$ -->
      <g transform="translate(3.336574 21.892128)scale(0.12 -0.12)">
       <use xlink:href="#DejaVuSans-32" transform="translate(0 0.78125)"/>
       <use xlink:href="#DejaVuSans-30" transform="translate(63.623047 0.78125)"/>
      </g>
     </g>
    </g>
   </g>
   <g id="PathCollection_1">
    <defs>
     <path id="m5b2c6aa30e" d="M 0 2 
C 0.530406 2 1.03916 1.789267 1.414214 1.414214 
C 1.789267 1.03916 2 0.530406 2 0 
C 2 -0.530406 1.789267 -1.03916 1.414214 -1.414214 
C 1.03916 -1.789267 0.530406 -2 0 -2 
C -0.530406 -2 -1.03916 -1.789267 -1.414214 -1.414214 
C -1.789267 -1.03916 -2 -0.530406 -2 0 
C -2 0.530406 -1.789267 1.03916 -1.414214 1.414214 
C -1.03916 1.789267 -0.530406 2 0 2 
z
"/>
    </defs>
    <g clip-path="url(#p7b51d05aa2)">
     <use xlink:href="#m5b2c6aa30e" x="33.714559" y="216.073625" style="fill: #00008b"/>
     <use xlink:href="#m5b2c6aa30e" x="41.393215" y="215.445861" style="fill: #00008b"/>
     <use xlink:href="#m5b2c6aa30e" x="49.071871" y="214.871431" style="fill: #00008b"/>
     <use xlink:href="#m5b2c6aa30e" x="56.750527" y="213.589177" style="fill: #00008b"/>
     <use xlink:href="#m5b2c6aa30e" x="64.429184" y="212.379277" style="fill: #00008b"/>
     <use xlink:href="#m5b2c6aa30e" x="72.10784" y="210.397623" style="fill: #00008b"/>
     <use xlink:href="#m5b2c6aa30e" x="79.786496" y="208.484744" style="fill: #00008b"/>
     <use xlink:href="#m5b2c6aa30e" x="87.465152" y="206.842126" style="fill: #00008b"/>
     <use xlink:href="#m5b2c6aa30e" x="95.143809" y="203.78134" style="fill: #00008b"/>
     <use xlink:href="#m5b2c6aa30e" x="102.822465" y="201.012495" style="fill: #00008b"/>
     <use xlink:href="#m5b2c6aa30e" x="110.501121" y="197.573257" style="fill: #00008b"/>
     <use xlink:href="#m5b2c6aa30e" x="118.179777" y="193.598242" style="fill: #00008b"/>
     <use xlink:href="#m5b2c6aa30e" x="125.858433" y="189.543811" style="fill: #00008b"/>
     <use xlink:href="#m5b2c6aa30e" x="133.53709" y="184.632312" style="fill: #00008b"/>
     <use xlink:href="#m5b2c6aa30e" x="141.215746" y="179.678934" style="fill: #00008b"/>
     <use xlink:href="#m5b2c6aa30e" x="148.894402" y="173.420831" style="fill: #00008b"/>
     <use xlink:href="#m5b2c6aa30e" x="156.573058" y="168.003823" style="fill: #00008b"/>
     <use xlink:href="#m5b2c6aa30e" x="164.251715" y="161.61949" style="fill: #00008b"/>
     <use xlink:href="#m5b2c6aa30e" x="171.930371" y="157.257313" style="fill: #00008b"/>
     <use xlink:href="#m5b2c6aa30e" x="179.609027" y="154.469459" style="fill: #00008b"/>
     <use xlink:href="#m5b2c6aa30e" x="187.287683" y="156.25155" style="fill: #00008b"/>
     <use xlink:href="#m5b2c6aa30e" x="194.966339" y="162.082996" style="fill: #00008b"/>
     <use xlink:href="#m5b2c6aa30e" x="202.644996" y="172.512148" style="fill: #00008b"/>
     <use xlink:href="#m5b2c6aa30e" x="210.323652" y="184.991441" style="fill: #00008b"/>
     <use xlink:href="#m5b2c6aa30e" x="218.002308" y="196.204177" style="fill: #00008b"/>
     <use xlink:href="#m5b2c6aa30e" x="225.680964" y="203.927799" style="fill: #00008b"/>
     <use xlink:href="#m5b2c6aa30e" x="233.359621" y="209.334125" style="fill: #00008b"/>
     <use xlink:href="#m5b2c6aa30e" x="241.038277" y="212.477984" style="fill: #00008b"/>
     <use xlink:href="#m5b2c6aa30e" x="248.716933" y="214.660629" style="fill: #00008b"/>
     <use xlink:href="#m5b2c6aa30e" x="256.395589" y="216.192902" style="fill: #00008b"/>
     <use xlink:href="#m5b2c6aa30e" x="264.074245" y="216.45224" style="fill: #00008b"/>
     <use xlink:href="#m5b2c6aa30e" x="271.752902" y="216.500675" style="fill: #00008b"/>
     <use xlink:href="#m5b2c6aa30e" x="279.431558" y="216.653761" style="fill: #00008b"/>
     <use xlink:href="#m5b2c6aa30e" x="287.110214" y="216.211227" style="fill: #00008b"/>
     <use xlink:href="#m5b2c6aa30e" x="294.78887" y="215.767705" style="fill: #00008b"/>
     <use xlink:href="#m5b2c6aa30e" x="302.467527" y="215.262626" style="fill: #00008b"/>
     <use xlink:href="#m5b2c6aa30e" x="310.146183" y="213.650783" style="fill: #00008b"/>
     <use xlink:href="#m5b2c6aa30e" x="317.824839" y="212.607358" style="fill: #00008b"/>
     <use xlink:href="#m5b2c6aa30e" x="325.503495" y="210.79977" style="fill: #00008b"/>
     <use xlink:href="#m5b2c6aa30e" x="333.182152" y="209.031669" style="fill: #00008b"/>
     <use xlink:href="#m5b2c6aa30e" x="340.860808" y="206.728863" style="fill: #00008b"/>
     <use xlink:href="#m5b2c6aa30e" x="348.539464" y="204.325932" style="fill: #00008b"/>
     <use xlink:href="#m5b2c6aa30e" x="356.21812" y="202.035159" style="fill: #00008b"/>
     <use xlink:href="#m5b2c6aa30e" x="363.896776" y="198.754112" style="fill: #00008b"/>
     <use xlink:href="#m5b2c6aa30e" x="371.575433" y="194.686579" style="fill: #00008b"/>
     <use xlink:href="#m5b2c6aa30e" x="379.254089" y="190.116674" style="fill: #00008b"/>
     <use xlink:href="#m5b2c6aa30e" x="386.932745" y="185.852117" style="fill: #00008b"/>
     <use xlink:href="#m5b2c6aa30e" x="394.611401" y="180.041275" style="fill: #00008b"/>
     <use xlink:href="#m5b2c6aa30e" x="402.290058" y="174.484692" style="fill: #00008b"/>
     <use xlink:href="#m5b2c6aa30e" x="409.968714" y="168.43482" style="fill: #00008b"/>
     <use xlink:href="#m5b2c6aa30e" x="417.64737" y="163.308577" style="fill: #00008b"/>
    </g>
   </g>
   <g id="PathCollection_2">
    <defs>
     <path id="mdf89ed3256" d="M 0 2 
C 0.530406 2 1.03916 1.789267 1.414214 1.414214 
C 1.789267 1.03916 2 0.530406 2 0 
C 2 -0.530406 1.789267 -1.03916 1.414214 -1.414214 
C 1.03916 -1.789267 0.530406 -2 0 -2 
C -0.530406 -2 -1.03916 -1.789267 -1.414214 -1.414214 
C -1.789267 -1.03916 -2 -0.530406 -2 0 
C -2 0.530406 -1.789267 1.03916 -1.414214 1.414214 
C -1.03916 1.789267 -0.530406 2 0 2 
z
"/>
    </defs>
    <g clip-path="url(#p7b51d05aa2)">
     <use xlink:href="#mdf89ed3256" x="33.714559" y="216.180726" style="fill: #cc0000"/>
     <use xlink:href="#mdf89ed3256" x="41.393215" y="218.299649" style="fill: #cc0000"/>
     <use xlink:href="#mdf89ed3256" x="49.071871" y="219.498245" style="fill: #cc0000"/>
     <use xlink:href="#mdf89ed3256" x="56.750527" y="220.652452" style="fill: #cc0000"/>
     <use xlink:href="#mdf89ed3256" x="64.429184" y="221.498298" style="fill: #cc0000"/>
     <use xlink:href="#mdf89ed3256" x="72.10784" y="222.307056" style="fill: #cc0000"/>
     <use xlink:href="#mdf89ed3256" x="79.786496" y="222.946939" style="fill: #cc0000"/>
     <use xlink:href="#mdf89ed3256" x="87.465152" y="223.172004" style="fill: #cc0000"/>
     <use xlink:href="#mdf89ed3256" x="95.143809" y="223.734647" style="fill: #cc0000"/>
     <use xlink:href="#mdf89ed3256" x="102.822465" y="223.902042" style="fill: #cc0000"/>
     <use xlink:href="#mdf89ed3256" x="110.501121" y="223.94573" style="fill: #cc0000"/>
     <use xlink:href="#mdf89ed3256" x="118.179777" y="224.03049" style="fill: #cc0000"/>
     <use xlink:href="#mdf89ed3256" x="125.858433" y="223.929669" style="fill: #cc0000"/>
     <use xlink:href="#mdf89ed3256" x="133.53709" y="223.776001" style="fill: #cc0000"/>
     <use xlink:href="#mdf89ed3256" x="141.215746" y="223.283416" style="fill: #cc0000"/>
     <use xlink:href="#mdf89ed3256" x="148.894402" y="222.688972" style="fill: #cc0000"/>
     <use xlink:href="#mdf89ed3256" x="156.573058" y="221.694441" style="fill: #cc0000"/>
     <use xlink:href="#mdf89ed3256" x="164.251715" y="219.798477" style="fill: #cc0000"/>
     <use xlink:href="#mdf89ed3256" x="171.930371" y="217.088059" style="fill: #cc0000"/>
     <use xlink:href="#mdf89ed3256" x="179.609027" y="212.364884" style="fill: #cc0000"/>
     <use xlink:href="#mdf89ed3256" x="187.287683" y="205.928127" style="fill: #cc0000"/>
     <use xlink:href="#mdf89ed3256" x="194.966339" y="196.823228" style="fill: #cc0000"/>
     <use xlink:href="#mdf89ed3256" x="202.644996" y="187.365048" style="fill: #cc0000"/>
     <use xlink:href="#mdf89ed3256" x="210.323652" y="181.163881" style="fill: #cc0000"/>
     <use xlink:href="#mdf89ed3256" x="218.002308" y="178.782354" style="fill: #cc0000"/>
     <use xlink:href="#mdf89ed3256" x="225.680964" y="181.216854" style="fill: #cc0000"/>
     <use xlink:href="#mdf89ed3256" x="233.359621" y="185.487931" style="fill: #cc0000"/>
     <use xlink:href="#mdf89ed3256" x="241.038277" y="191.539886" style="fill: #cc0000"/>
     <use xlink:href="#mdf89ed3256" x="248.716933" y="197.273716" style="fill: #cc0000"/>
     <use xlink:href="#mdf89ed3256" x="256.395589" y="202.099111" style="fill: #cc0000"/>
     <use xlink:href="#mdf89ed3256" x="264.074245" y="206.868873" style="fill: #cc0000"/>
     <use xlink:href="#mdf89ed3256" x="271.752902" y="210.166497" style="fill: #cc0000"/>
     <use xlink:href="#mdf89ed3256" x="279.431558" y="213.636393" style="fill: #cc0000"/>
     <use xlink:href="#mdf89ed3256" x="287.110214" y="216.071013" style="fill: #cc0000"/>
     <use xlink:href="#mdf89ed3256" x="294.78887" y="217.972762" style="fill: #cc0000"/>
     <use xlink:href="#mdf89ed3256" x="302.467527" y="219.572113" style="fill: #cc0000"/>
     <use xlink:href="#mdf89ed3256" x="310.146183" y="220.680538" style="fill: #cc0000"/>
     <use xlink:href="#mdf89ed3256" x="317.824839" y="221.537384" style="fill: #cc0000"/>
     <use xlink:href="#mdf89ed3256" x="325.503495" y="222.529128" style="fill: #cc0000"/>
     <use xlink:href="#mdf89ed3256" x="333.182152" y="222.788704" style="fill: #cc0000"/>
     <use xlink:href="#mdf89ed3256" x="340.860808" y="223.210107" style="fill: #cc0000"/>
     <use xlink:href="#mdf89ed3256" x="348.539464" y="223.535676" style="fill: #cc0000"/>
     <use xlink:href="#mdf89ed3256" x="356.21812" y="223.898699" style="fill: #cc0000"/>
     <use xlink:href="#mdf89ed3256" x="363.896776" y="224.155499" style="fill: #cc0000"/>
     <use xlink:href="#mdf89ed3256" x="371.575433" y="223.937944" style="fill: #cc0000"/>
     <use xlink:href="#mdf89ed3256" x="379.254089" y="224.201942" style="fill: #cc0000"/>
     <use xlink:href="#mdf89ed3256" x="386.932745" y="223.923467" style="fill: #cc0000"/>
     <use xlink:href="#mdf89ed3256" x="394.611401" y="223.497662" style="fill: #cc0000"/>
     <use xlink:href="#mdf89ed3256" x="402.290058" y="222.871197" style="fill: #cc0000"/>
     <use xlink:href="#mdf89ed3256" x="409.968714" y="221.747031" style="fill: #cc0000"/>
     <use xlink:href="#mdf89ed3256" x="417.64737" y="220.070528" style="fill: #cc0000"/>
    </g>
   </g>
   <g id="patch_3">
    <path d="M 22.196574 232.705354 
L 22.196574 2.834646 
" style="fill: none; stroke: #000000; stroke-linejoin: miter; stroke-linecap: square"/>
   </g>
   <g id="patch_4">
    <path d="M 429.165354 232.705354 
L 429.165354 2.834646 
" style="fill: none; stroke: #000000; stroke-linejoin: miter; stroke-linecap: square"/>
   </g>
   <g id="patch_5">
    <path d="M 22.196574 232.705354 
L 429.165354 232.705354 
" style="fill: none; stroke: #000000; stroke-linejoin: miter; stroke-linecap: square"/>
   </g>
   <g id="patch_6">
    <path d="M 22.196574 2.834646 
L 429.165354 2.834646 
" style="fill: none; stroke: #000000; stroke-linejoin: miter; stroke-linecap: square"/>
   </g>
   <g id="line2d_34">
    <path d="M 33.714559 216.253493 
L 41.393215 215.071571 
L 49.071871 213.541735 
L 56.750527 211.643714 
L 64.429184 209.335777 
L 72.10784 206.569033 
L 79.786496 203.273566 
L 87.465152 199.36295 
L 95.143809 194.751208 
L 102.822465 189.318163 
L 110.501121 182.906963 
L 118.179777 175.359786 
L 125.858433 166.512978 
L 133.53709 156.138538 
L 141.215746 143.968741 
L 148.894402 129.735284 
L 156.573058 113.16608 
L 164.251715 93.977592 
L 171.930371 72.191921 
L 179.609027 48.140025 
L 187.287683 24.504168 
L 194.966339 9.34042 
L 202.644996 26.665125 
L 210.323652 91.391037 
L 218.002308 158.992692 
L 225.680964 193.810739 
L 233.359621 208.106451 
L 241.038277 213.874851 
L 248.716933 216.516691 
L 256.395589 217.476337 
L 264.074245 217.703726 
L 271.752902 217.402207 
L 279.431558 216.694378 
L 287.110214 215.653461 
L 294.78887 214.266081 
L 302.467527 212.512902 
L 310.146183 210.374453 
L 317.824839 207.811726 
L 325.503495 204.747362 
L 333.182152 201.099673 
L 340.860808 196.787281 
L 348.539464 191.733902 
L 356.21812 185.785224 
L 363.896776 178.756122 
L 371.575433 170.461475 
L 379.254089 160.716158 
L 386.932745 149.324693 
L 394.611401 136.002181 
L 402.290058 120.454393 
L 409.968714 102.391068 
L 417.64737 81.688448 
" clip-path="url(#p7b51d05aa2)" style="fill: none; stroke: #00008b; stroke-width: 2"/>
   </g>
   <g id="line2d_35">
    <path d="M 33.714559 216.253493 
L 41.393215 219.367776 
L 49.071871 221.506295 
L 56.750527 222.987101 
L 64.429184 224.005245 
L 72.10784 224.717337 
L 79.786496 225.213912 
L 87.465152 225.555784 
L 95.143809 225.799022 
L 102.822465 225.969153 
L 110.501121 226.080662 
L 118.179777 226.148113 
L 125.858433 226.18759 
L 133.53709 226.19958 
L 141.215746 226.161762 
L 148.894402 226.051033 
L 156.573058 225.845486 
L 164.251715 225.471297 
L 171.930371 224.610949 
L 179.609027 222.734616 
L 187.287683 217.716803 
L 194.966339 203.94251 
L 202.644996 167.30131 
L 210.323652 109.417468 
L 218.002308 80.746245 
L 225.680964 96.589531 
L 233.359621 126.605173 
L 241.038277 154.493843 
L 248.716933 175.780723 
L 256.395589 191.280047 
L 264.074245 202.153156 
L 271.752902 209.667942 
L 279.431558 214.826126 
L 287.110214 218.440221 
L 294.78887 220.899995 
L 302.467527 222.535279 
L 310.146183 223.673586 
L 317.824839 224.499071 
L 325.503495 225.068294 
L 333.182152 225.451967 
L 340.860808 225.720666 
L 348.539464 225.920038 
L 356.21812 226.058717 
L 363.896776 226.145034 
L 371.575433 226.187321 
L 379.254089 226.193911 
L 386.932745 226.1713 
L 394.611401 226.101633 
L 402.290058 225.954015 
L 409.968714 225.674562 
L 417.64737 225.061139 
" clip-path="url(#p7b51d05aa2)" style="fill: none; stroke: #cc0000; stroke-width: 2"/>
   </g>
  </g>
 </g>
 <defs>
  <clipPath id="p7b51d05aa2">
   <rect x="22.196574" y="2.834646" width="406.96878" height="229.870709"/>
  </clipPath>
 </defs>
</svg>
