<?xml version="1.0" encoding="utf-8" standalone="no"?>
<!DOCTYPE svg PUBLIC "-//W3C//DTD SVG 1.1//EN"
  "http://www.w3.org/Graphics/SVG/1.1/DTD/svg11.dtd">
<svg xmlns:xlink="http://www.w3.org/1999/xlink" width="432pt" height="288pt" viewBox="0 0 432 288" xmlns="http://www.w3.org/2000/svg" version="1.1">
 <metadata>
  <rdf:RDF xmlns:dc="http://purl.org/dc/elements/1.1/" xmlns:cc="http://creativecommons.org/ns#" xmlns:rdf="http://www.w3.org/1999/02/22-rdf-syntax-ns#">
   <cc:Work>
    <dc:type rdf:resource="http://purl.org/dc/dcmitype/StillImage"/>
    <dc:date>2021-11-24T21:44:30.587297</dc:date>
    <dc:format>image/svg+xml</dc:format>
    <dc:creator>
     <cc:Agent>
      <dc:title>Matplotlib v3.5.0, https://matplotlib.org/</dc:title>
     </cc:Agent>
    </dc:creator>
   </cc:Work>
  </rdf:RDF>
 </metadata>
 <defs>
  <style type="text/css">*{stroke-linejoin: round; stroke-linecap: butt}</style>
 </defs>
 <g id="figure_1">
  <g id="patch_1">
   <path d="M 0 288 
L 432 288 
L 432 0 
L 0 0 
z
" style="fill: #ffffff"/>
  </g>
  <g id="axes_1">
   <g id="patch_2">
    <path d="M 36.031042 250.305354 
L 429.165354 250.305354 
L 429.165354 24.674646 
L 36.031042 24.674646 
z
" style="fill: #ffffff"/>
   </g>
   <g id="matplotlib.axis_1">
    <g id="xtick_1">
     <g id="line2d_1">
      <path d="M 47.157485 250.305354 
L 47.157485 24.674646 
" clip-path="url(#p0c8b121523)" style="fill: none; stroke: #000000; stroke-opacity: 0.1; stroke-width: 0.5; stroke-linecap: square"/>
     </g>
     <g id="line2d_2">
      <defs>
       <path id="m56b6778efe" d="M 0 0 
L 0 -2.5 
" style="stroke: #000000; stroke-width: 0.5"/>
      </defs>
      <g>
       <use xlink:href="#m56b6778efe" x="47.157485" y="250.305354" style="stroke: #000000; stroke-width: 0.5"/>
      </g>
     </g>
     <g id="text_1">
      <!-- $0$ -->
      <g transform="translate(43.317485 262.923479)scale(0.12 -0.12)">
       <defs>
        <path id="DejaVuSans-30" d="M 2034 4250 
Q 1547 4250 1301 3770 
Q 1056 3291 1056 2328 
Q 1056 1369 1301 889 
Q 1547 409 2034 409 
Q 2525 409 2770 889 
Q 3016 1369 3016 2328 
Q 3016 3291 2770 3770 
Q 2525 4250 2034 4250 
z
M 2034 4750 
Q 2819 4750 3233 4129 
Q 3647 3509 3647 2328 
Q 3647 1150 3233 529 
Q 2819 -91 2034 -91 
Q 1250 -91 836 529 
Q 422 1150 422 2328 
Q 422 3509 836 4129 
Q 1250 4750 2034 4750 
z
" transform="scale(0.015625)"/>
       </defs>
       <use xlink:href="#DejaVuSans-30" transform="translate(0 0.78125)"/>
      </g>
     </g>
    </g>
    <g id="xtick_2">
     <g id="line2d_3">
      <path d="M 121.33377 250.305354 
L 121.33377 24.674646 
" clip-path="url(#p0c8b121523)" style="fill: none; stroke: #000000; stroke-opacity: 0.1; stroke-width: 0.5; stroke-linecap: square"/>
     </g>
     <g id="line2d_4">
      <g>
       <use xlink:href="#m56b6778efe" x="121.33377" y="250.305354" style="stroke: #000000; stroke-width: 0.5"/>
      </g>
     </g>
     <g id="text_2">
      <!-- $1$ -->
      <g transform="translate(117.49377 262.923479)scale(0.12 -0.12)">
       <defs>
        <path id="DejaVuSans-31" d="M 794 531 
L 1825 531 
L 1825 4091 
L 703 3866 
L 703 4441 
L 1819 4666 
L 2450 4666 
L 2450 531 
L 3481 531 
L 3481 0 
L 794 0 
L 794 531 
z
" transform="scale(0.015625)"/>
       </defs>
       <use xlink:href="#DejaVuSans-31" transform="translate(0 0.09375)"/>
      </g>
     </g>
    </g>
    <g id="xtick_3">
     <g id="line2d_5">
      <path d="M 195.510056 250.305354 
L 195.510056 24.674646 
" clip-path="url(#p0c8b121523)" style="fill: none; stroke: #000000; stroke-opacity: 0.1; stroke-width: 0.5; stroke-linecap: square"/>
     </g>
     <g id="line2d_6">
      <g>
       <use xlink:href="#m56b6778efe" x="195.510056" y="250.305354" style="stroke: #000000; stroke-width: 0.5"/>
      </g>
     </g>
     <g id="text_3">
      <!-- $2$ -->
      <g transform="translate(191.670056 262.923479)scale(0.12 -0.12)">
       <defs>
        <path id="DejaVuSans-32" d="M 1228 531 
L 3431 531 
L 3431 0 
L 469 0 
L 469 531 
Q 828 903 1448 1529 
Q 2069 2156 2228 2338 
Q 2531 2678 2651 2914 
Q 2772 3150 2772 3378 
Q 2772 3750 2511 3984 
Q 2250 4219 1831 4219 
Q 1534 4219 1204 4116 
Q 875 4013 500 3803 
L 500 4441 
Q 881 4594 1212 4672 
Q 1544 4750 1819 4750 
Q 2544 4750 2975 4387 
Q 3406 4025 3406 3419 
Q 3406 3131 3298 2873 
Q 3191 2616 2906 2266 
Q 2828 2175 2409 1742 
Q 1991 1309 1228 531 
z
" transform="scale(0.015625)"/>
       </defs>
       <use xlink:href="#DejaVuSans-32" transform="translate(0 0.78125)"/>
      </g>
     </g>
    </g>
    <g id="xtick_4">
     <g id="line2d_7">
      <path d="M 269.686341 250.305354 
L 269.686341 24.674646 
" clip-path="url(#p0c8b121523)" style="fill: none; stroke: #000000; stroke-opacity: 0.1; stroke-width: 0.5; stroke-linecap: square"/>
     </g>
     <g id="line2d_8">
      <g>
       <use xlink:href="#m56b6778efe" x="269.686341" y="250.305354" style="stroke: #000000; stroke-width: 0.5"/>
      </g>
     </g>
     <g id="text_4">
      <!-- $3$ -->
      <g transform="translate(265.846341 262.923479)scale(0.12 -0.12)">
       <defs>
        <path id="DejaVuSans-33" d="M 2597 2516 
Q 3050 2419 3304 2112 
Q 3559 1806 3559 1356 
Q 3559 666 3084 287 
Q 2609 -91 1734 -91 
Q 1441 -91 1130 -33 
Q 819 25 488 141 
L 488 750 
Q 750 597 1062 519 
Q 1375 441 1716 441 
Q 2309 441 2620 675 
Q 2931 909 2931 1356 
Q 2931 1769 2642 2001 
Q 2353 2234 1838 2234 
L 1294 2234 
L 1294 2753 
L 1863 2753 
Q 2328 2753 2575 2939 
Q 2822 3125 2822 3475 
Q 2822 3834 2567 4026 
Q 2313 4219 1838 4219 
Q 1578 4219 1281 4162 
Q 984 4106 628 3988 
L 628 4550 
Q 988 4650 1302 4700 
Q 1616 4750 1894 4750 
Q 2613 4750 3031 4423 
Q 3450 4097 3450 3541 
Q 3450 3153 3228 2886 
Q 3006 2619 2597 2516 
z
" transform="scale(0.015625)"/>
       </defs>
       <use xlink:href="#DejaVuSans-33" transform="translate(0 0.78125)"/>
      </g>
     </g>
    </g>
    <g id="xtick_5">
     <g id="line2d_9">
      <path d="M 343.862626 250.305354 
L 343.862626 24.674646 
" clip-path="url(#p0c8b121523)" style="fill: none; stroke: #000000; stroke-opacity: 0.1; stroke-width: 0.5; stroke-linecap: square"/>
     </g>
     <g id="line2d_10">
      <g>
       <use xlink:href="#m56b6778efe" x="343.862626" y="250.305354" style="stroke: #000000; stroke-width: 0.5"/>
      </g>
     </g>
     <g id="text_5">
      <!-- $4$ -->
      <g transform="translate(340.022626 262.923479)scale(0.12 -0.12)">
       <defs>
        <path id="DejaVuSans-34" d="M 2419 4116 
L 825 1625 
L 2419 1625 
L 2419 4116 
z
M 2253 4666 
L 3047 4666 
L 3047 1625 
L 3713 1625 
L 3713 1100 
L 3047 1100 
L 3047 0 
L 2419 0 
L 2419 1100 
L 313 1100 
L 313 1709 
L 2253 4666 
z
" transform="scale(0.015625)"/>
       </defs>
       <use xlink:href="#DejaVuSans-34" transform="translate(0 0.09375)"/>
      </g>
     </g>
    </g>
    <g id="xtick_6">
     <g id="line2d_11">
      <path d="M 418.038912 250.305354 
L 418.038912 24.674646 
" clip-path="url(#p0c8b121523)" style="fill: none; stroke: #000000; stroke-opacity: 0.1; stroke-width: 0.5; stroke-linecap: square"/>
     </g>
     <g id="line2d_12">
      <g>
       <use xlink:href="#m56b6778efe" x="418.038912" y="250.305354" style="stroke: #000000; stroke-width: 0.5"/>
      </g>
     </g>
     <g id="text_6">
      <!-- $5$ -->
      <g transform="translate(414.198912 262.923479)scale(0.12 -0.12)">
       <defs>
        <path id="DejaVuSans-35" d="M 691 4666 
L 3169 4666 
L 3169 4134 
L 1269 4134 
L 1269 2991 
Q 1406 3038 1543 3061 
Q 1681 3084 1819 3084 
Q 2600 3084 3056 2656 
Q 3513 2228 3513 1497 
Q 3513 744 3044 326 
Q 2575 -91 1722 -91 
Q 1428 -91 1123 -41 
Q 819 9 494 109 
L 494 744 
Q 775 591 1075 516 
Q 1375 441 1709 441 
Q 2250 441 2565 725 
Q 2881 1009 2881 1497 
Q 2881 1984 2565 2268 
Q 2250 2553 1709 2553 
Q 1456 2553 1204 2497 
Q 953 2441 691 2322 
L 691 4666 
z
" transform="scale(0.015625)"/>
       </defs>
       <use xlink:href="#DejaVuSans-35" transform="translate(0 0.09375)"/>
      </g>
     </g>
    </g>
    <g id="text_7">
     <!-- t [s] -->
     <g transform="translate(216.509448 281.576604)scale(0.16 -0.16)">
      <defs>
       <path id="DejaVuSans-74" d="M 1172 4494 
L 1172 3500 
L 2356 3500 
L 2356 3053 
L 1172 3053 
L 1172 1153 
Q 1172 725 1289 603 
Q 1406 481 1766 481 
L 2356 481 
L 2356 0 
L 1766 0 
Q 1100 0 847 248 
Q 594 497 594 1153 
L 594 3053 
L 172 3053 
L 172 3500 
L 594 3500 
L 594 4494 
L 1172 4494 
z
" transform="scale(0.015625)"/>
       <path id="DejaVuSans-20" transform="scale(0.015625)"/>
       <path id="DejaVuSans-5b" d="M 550 4863 
L 1875 4863 
L 1875 4416 
L 1125 4416 
L 1125 -397 
L 1875 -397 
L 1875 -844 
L 550 -844 
L 550 4863 
z
" transform="scale(0.015625)"/>
       <path id="DejaVuSans-73" d="M 2834 3397 
L 2834 2853 
Q 2591 2978 2328 3040 
Q 2066 3103 1784 3103 
Q 1356 3103 1142 2972 
Q 928 2841 928 2578 
Q 928 2378 1081 2264 
Q 1234 2150 1697 2047 
L 1894 2003 
Q 2506 1872 2764 1633 
Q 3022 1394 3022 966 
Q 3022 478 2636 193 
Q 2250 -91 1575 -91 
Q 1294 -91 989 -36 
Q 684 19 347 128 
L 347 722 
Q 666 556 975 473 
Q 1284 391 1588 391 
Q 1994 391 2212 530 
Q 2431 669 2431 922 
Q 2431 1156 2273 1281 
Q 2116 1406 1581 1522 
L 1381 1569 
Q 847 1681 609 1914 
Q 372 2147 372 2553 
Q 372 3047 722 3315 
Q 1072 3584 1716 3584 
Q 2034 3584 2315 3537 
Q 2597 3491 2834 3397 
z
" transform="scale(0.015625)"/>
       <path id="DejaVuSans-5d" d="M 1947 4863 
L 1947 -844 
L 622 -844 
L 622 -397 
L 1369 -397 
L 1369 4416 
L 622 4416 
L 622 4863 
L 1947 4863 
z
" transform="scale(0.015625)"/>
      </defs>
      <use xlink:href="#DejaVuSans-74"/>
      <use xlink:href="#DejaVuSans-20" x="39.208984"/>
      <use xlink:href="#DejaVuSans-5b" x="70.996094"/>
      <use xlink:href="#DejaVuSans-73" x="110.009766"/>
      <use xlink:href="#DejaVuSans-5d" x="162.109375"/>
     </g>
    </g>
   </g>
   <g id="matplotlib.axis_2">
    <g id="ytick_1">
     <g id="line2d_13">
      <path d="M 36.031042 248.10577 
L 429.165354 248.10577 
" clip-path="url(#p0c8b121523)" style="fill: none; stroke: #000000; stroke-opacity: 0.1; stroke-width: 0.5; stroke-linecap: square"/>
     </g>
     <g id="line2d_14">
      <defs>
       <path id="m2f15204d2a" d="M 0 0 
L 2.5 0 
" style="stroke: #000000; stroke-width: 0.5"/>
      </defs>
      <g>
       <use xlink:href="#m2f15204d2a" x="36.031042" y="248.10577" style="stroke: #000000; stroke-width: 0.5"/>
      </g>
     </g>
     <g id="text_8">
      <!-- $-1.0$ -->
      <g transform="translate(3.371042 252.664832)scale(0.12 -0.12)">
       <defs>
        <path id="DejaVuSans-2212" d="M 678 2272 
L 4684 2272 
L 4684 1741 
L 678 1741 
L 678 2272 
z
" transform="scale(0.015625)"/>
        <path id="DejaVuSans-2e" d="M 684 794 
L 1344 794 
L 1344 0 
L 684 0 
L 684 794 
z
" transform="scale(0.015625)"/>
       </defs>
       <use xlink:href="#DejaVuSans-2212" transform="translate(0 0.78125)"/>
       <use xlink:href="#DejaVuSans-31" transform="translate(83.789062 0.78125)"/>
       <use xlink:href="#DejaVuSans-2e" transform="translate(147.412109 0.78125)"/>
       <use xlink:href="#DejaVuSans-30" transform="translate(179.199219 0.78125)"/>
      </g>
     </g>
    </g>
    <g id="ytick_2">
     <g id="line2d_15">
      <path d="M 36.031042 188.194576 
L 429.165354 188.194576 
" clip-path="url(#p0c8b121523)" style="fill: none; stroke: #000000; stroke-opacity: 0.1; stroke-width: 0.5; stroke-linecap: square"/>
     </g>
     <g id="line2d_16">
      <g>
       <use xlink:href="#m2f15204d2a" x="36.031042" y="188.194576" style="stroke: #000000; stroke-width: 0.5"/>
      </g>
     </g>
     <g id="text_9">
      <!-- $-0.5$ -->
      <g transform="translate(3.371042 192.753639)scale(0.12 -0.12)">
       <use xlink:href="#DejaVuSans-2212" transform="translate(0 0.78125)"/>
       <use xlink:href="#DejaVuSans-30" transform="translate(83.789062 0.78125)"/>
       <use xlink:href="#DejaVuSans-2e" transform="translate(147.412109 0.78125)"/>
       <use xlink:href="#DejaVuSans-35" transform="translate(179.199219 0.78125)"/>
      </g>
     </g>
    </g>
    <g id="ytick_3">
     <g id="line2d_17">
      <path d="M 36.031042 128.283382 
L 429.165354 128.283382 
" clip-path="url(#p0c8b121523)" style="fill: none; stroke: #000000; stroke-opacity: 0.1; stroke-width: 0.5; stroke-linecap: square"/>
     </g>
     <g id="line2d_18">
      <g>
       <use xlink:href="#m2f15204d2a" x="36.031042" y="128.283382" style="stroke: #000000; stroke-width: 0.5"/>
      </g>
     </g>
     <g id="text_10">
      <!-- $0.0$ -->
      <g transform="translate(13.331042 132.842445)scale(0.12 -0.12)">
       <use xlink:href="#DejaVuSans-30" transform="translate(0 0.78125)"/>
       <use xlink:href="#DejaVuSans-2e" transform="translate(63.623047 0.78125)"/>
       <use xlink:href="#DejaVuSans-30" transform="translate(95.410156 0.78125)"/>
      </g>
     </g>
    </g>
    <g id="ytick_4">
     <g id="line2d_19">
      <path d="M 36.031042 68.372188 
L 429.165354 68.372188 
" clip-path="url(#p0c8b121523)" style="fill: none; stroke: #000000; stroke-opacity: 0.1; stroke-width: 0.5; stroke-linecap: square"/>
     </g>
     <g id="line2d_20">
      <g>
       <use xlink:href="#m2f15204d2a" x="36.031042" y="68.372188" style="stroke: #000000; stroke-width: 0.5"/>
      </g>
     </g>
     <g id="text_11">
      <!-- $0.5$ -->
      <g transform="translate(13.331042 72.931251)scale(0.12 -0.12)">
       <use xlink:href="#DejaVuSans-30" transform="translate(0 0.78125)"/>
       <use xlink:href="#DejaVuSans-2e" transform="translate(63.623047 0.78125)"/>
       <use xlink:href="#DejaVuSans-35" transform="translate(95.410156 0.78125)"/>
      </g>
     </g>
    </g>
   </g>
   <g id="line2d_21">
    <path d="M 418.038912 128.283382 
L 416.082958 128.221375 
L 410.621283 128.04642 
" clip-path="url(#p0c8b121523)" style="fill: none; stroke: #009afa"/>
   </g>
   <g id="line2d_22">
    <path d="M 418.038912 128.283382 
L 416.082958 128.320451 
L 410.621283 128.411241 
" clip-path="url(#p0c8b121523)" style="fill: none; stroke: #e36f47"/>
   </g>
   <g id="patch_3">
    <path d="M 36.031042 250.305354 
L 36.031042 24.674646 
" style="fill: none; stroke: #000000; stroke-linejoin: miter; stroke-linecap: square"/>
   </g>
   <g id="patch_4">
    <path d="M 36.031042 250.305354 
L 429.165354 250.305354 
" style="fill: none; stroke: #000000; stroke-linejoin: miter; stroke-linecap: square"/>
   </g>
   <g id="line2d_23">
    <path d="M 410.621283 128.04642 
L 408.431506 127.924181 
L 403.203654 127.63027 
" clip-path="url(#p0c8b121523)" style="fill: none; stroke: #3ea44e"/>
   </g>
   <g id="text_12">
    <!-- Adjoint State -->
    <g transform="translate(164.77312 18.674646)scale(0.21 -0.21)">
     <defs>
      <path id="DejaVuSans-41" d="M 2188 4044 
L 1331 1722 
L 3047 1722 
L 2188 4044 
z
M 1831 4666 
L 2547 4666 
L 4325 0 
L 3669 0 
L 3244 1197 
L 1141 1197 
L 716 0 
L 50 0 
L 1831 4666 
z
" transform="scale(0.015625)"/>
      <path id="DejaVuSans-64" d="M 2906 2969 
L 2906 4863 
L 3481 4863 
L 3481 0 
L 2906 0 
L 2906 525 
Q 2725 213 2448 61 
Q 2172 -91 1784 -91 
Q 1150 -91 751 415 
Q 353 922 353 1747 
Q 353 2572 751 3078 
Q 1150 3584 1784 3584 
Q 2172 3584 2448 3432 
Q 2725 3281 2906 2969 
z
M 947 1747 
Q 947 1113 1208 752 
Q 1469 391 1925 391 
Q 2381 391 2643 752 
Q 2906 1113 2906 1747 
Q 2906 2381 2643 2742 
Q 2381 3103 1925 3103 
Q 1469 3103 1208 2742 
Q 947 2381 947 1747 
z
" transform="scale(0.015625)"/>
      <path id="DejaVuSans-6a" d="M 603 3500 
L 1178 3500 
L 1178 -63 
Q 1178 -731 923 -1031 
Q 669 -1331 103 -1331 
L -116 -1331 
L -116 -844 
L 38 -844 
Q 366 -844 484 -692 
Q 603 -541 603 -63 
L 603 3500 
z
M 603 4863 
L 1178 4863 
L 1178 4134 
L 603 4134 
L 603 4863 
z
" transform="scale(0.015625)"/>
      <path id="DejaVuSans-6f" d="M 1959 3097 
Q 1497 3097 1228 2736 
Q 959 2375 959 1747 
Q 959 1119 1226 758 
Q 1494 397 1959 397 
Q 2419 397 2687 759 
Q 2956 1122 2956 1747 
Q 2956 2369 2687 2733 
Q 2419 3097 1959 3097 
z
M 1959 3584 
Q 2709 3584 3137 3096 
Q 3566 2609 3566 1747 
Q 3566 888 3137 398 
Q 2709 -91 1959 -91 
Q 1206 -91 779 398 
Q 353 888 353 1747 
Q 353 2609 779 3096 
Q 1206 3584 1959 3584 
z
" transform="scale(0.015625)"/>
      <path id="DejaVuSans-69" d="M 603 3500 
L 1178 3500 
L 1178 0 
L 603 0 
L 603 3500 
z
M 603 4863 
L 1178 4863 
L 1178 4134 
L 603 4134 
L 603 4863 
z
" transform="scale(0.015625)"/>
      <path id="DejaVuSans-6e" d="M 3513 2113 
L 3513 0 
L 2938 0 
L 2938 2094 
Q 2938 2591 2744 2837 
Q 2550 3084 2163 3084 
Q 1697 3084 1428 2787 
Q 1159 2491 1159 1978 
L 1159 0 
L 581 0 
L 581 3500 
L 1159 3500 
L 1159 2956 
Q 1366 3272 1645 3428 
Q 1925 3584 2291 3584 
Q 2894 3584 3203 3211 
Q 3513 2838 3513 2113 
z
" transform="scale(0.015625)"/>
      <path id="DejaVuSans-53" d="M 3425 4513 
L 3425 3897 
Q 3066 4069 2747 4153 
Q 2428 4238 2131 4238 
Q 1616 4238 1336 4038 
Q 1056 3838 1056 3469 
Q 1056 3159 1242 3001 
Q 1428 2844 1947 2747 
L 2328 2669 
Q 3034 2534 3370 2195 
Q 3706 1856 3706 1288 
Q 3706 609 3251 259 
Q 2797 -91 1919 -91 
Q 1588 -91 1214 -16 
Q 841 59 441 206 
L 441 856 
Q 825 641 1194 531 
Q 1563 422 1919 422 
Q 2459 422 2753 634 
Q 3047 847 3047 1241 
Q 3047 1584 2836 1778 
Q 2625 1972 2144 2069 
L 1759 2144 
Q 1053 2284 737 2584 
Q 422 2884 422 3419 
Q 422 4038 858 4394 
Q 1294 4750 2059 4750 
Q 2388 4750 2728 4690 
Q 3069 4631 3425 4513 
z
" transform="scale(0.015625)"/>
      <path id="DejaVuSans-61" d="M 2194 1759 
Q 1497 1759 1228 1600 
Q 959 1441 959 1056 
Q 959 750 1161 570 
Q 1363 391 1709 391 
Q 2188 391 2477 730 
Q 2766 1069 2766 1631 
L 2766 1759 
L 2194 1759 
z
M 3341 1997 
L 3341 0 
L 2766 0 
L 2766 531 
Q 2569 213 2275 61 
Q 1981 -91 1556 -91 
Q 1019 -91 701 211 
Q 384 513 384 1019 
Q 384 1609 779 1909 
Q 1175 2209 1959 2209 
L 2766 2209 
L 2766 2266 
Q 2766 2663 2505 2880 
Q 2244 3097 1772 3097 
Q 1472 3097 1187 3025 
Q 903 2953 641 2809 
L 641 3341 
Q 956 3463 1253 3523 
Q 1550 3584 1831 3584 
Q 2591 3584 2966 3190 
Q 3341 2797 3341 1997 
z
" transform="scale(0.015625)"/>
      <path id="DejaVuSans-65" d="M 3597 1894 
L 3597 1613 
L 953 1613 
Q 991 1019 1311 708 
Q 1631 397 2203 397 
Q 2534 397 2845 478 
Q 3156 559 3463 722 
L 3463 178 
Q 3153 47 2828 -22 
Q 2503 -91 2169 -91 
Q 1331 -91 842 396 
Q 353 884 353 1716 
Q 353 2575 817 3079 
Q 1281 3584 2069 3584 
Q 2775 3584 3186 3129 
Q 3597 2675 3597 1894 
z
M 3022 2063 
Q 3016 2534 2758 2815 
Q 2500 3097 2075 3097 
Q 1594 3097 1305 2825 
Q 1016 2553 972 2059 
L 3022 2063 
z
" transform="scale(0.015625)"/>
     </defs>
     <use xlink:href="#DejaVuSans-41"/>
     <use xlink:href="#DejaVuSans-64" x="66.658203"/>
     <use xlink:href="#DejaVuSans-6a" x="130.134766"/>
     <use xlink:href="#DejaVuSans-6f" x="157.917969"/>
     <use xlink:href="#DejaVuSans-69" x="219.099609"/>
     <use xlink:href="#DejaVuSans-6e" x="246.882812"/>
     <use xlink:href="#DejaVuSans-74" x="310.261719"/>
     <use xlink:href="#DejaVuSans-20" x="349.470703"/>
     <use xlink:href="#DejaVuSans-53" x="381.257812"/>
     <use xlink:href="#DejaVuSans-74" x="444.734375"/>
     <use xlink:href="#DejaVuSans-61" x="483.943359"/>
     <use xlink:href="#DejaVuSans-74" x="545.222656"/>
     <use xlink:href="#DejaVuSans-65" x="584.431641"/>
    </g>
   </g>
   <g id="line2d_24">
    <path d="M 410.621283 128.411241 
L 408.431506 128.46658 
L 403.203654 128.585374 
" clip-path="url(#p0c8b121523)" style="fill: none; stroke: #c371d2"/>
   </g>
   <g id="line2d_25">
    <path d="M 403.203654 127.63027 
L 400.588859 127.437245 
L 395.786026 127.080726 
" clip-path="url(#p0c8b121523)" style="fill: none; stroke: #ac8e18"/>
   </g>
   <g id="line2d_26">
    <path d="M 403.203654 128.585374 
L 400.588859 128.655409 
L 395.786026 128.774087 
" clip-path="url(#p0c8b121523)" style="fill: none; stroke: #00aaae"/>
   </g>
   <g id="line2d_27">
    <path d="M 395.786026 127.080726 
L 392.790758 126.819573 
L 388.368397 126.432154 
" clip-path="url(#p0c8b121523)" style="fill: none; stroke: #ed5e93"/>
   </g>
   <g id="line2d_28">
    <path d="M 395.786026 128.774087 
L 392.790758 128.854559 
L 388.368397 128.967208 
" clip-path="url(#p0c8b121523)" style="fill: none; stroke: #c68225"/>
   </g>
   <g id="line2d_29">
    <path d="M 388.368397 126.432154 
L 385.138654 126.11842 
L 380.950769 125.709676 
" clip-path="url(#p0c8b121523)" style="fill: none; stroke: #00a98d"/>
   </g>
   <g id="line2d_30">
    <path d="M 388.368397 128.967208 
L 385.138654 129.054101 
L 380.950769 129.163318 
" clip-path="url(#p0c8b121523)" style="fill: none; stroke: #8e971e"/>
   </g>
   <g id="line2d_31">
    <path d="M 380.950769 125.709676 
L 377.550712 125.353792 
L 373.53314 124.931215 
" clip-path="url(#p0c8b121523)" style="fill: none; stroke: #00a9cc"/>
   </g>
   <g id="line2d_32">
    <path d="M 380.950769 129.163318 
L 377.550712 129.256052 
L 373.53314 129.364788 
" clip-path="url(#p0c8b121523)" style="fill: none; stroke: #9b7fe9"/>
   </g>
   <g id="line2d_33">
    <path d="M 373.53314 124.931215 
L 369.970735 124.537704 
L 366.115512 124.109624 
" clip-path="url(#p0c8b121523)" style="fill: none; stroke: #618df6"/>
   </g>
   <g id="line2d_34">
    <path d="M 373.53314 129.364788 
L 369.970735 129.465708 
L 366.115512 129.576087 
" clip-path="url(#p0c8b121523)" style="fill: none; stroke: #f06073"/>
   </g>
   <g id="line2d_35">
    <path d="M 366.115512 124.109624 
L 362.382197 123.680069 
L 358.697883 123.253733 
" clip-path="url(#p0c8b121523)" style="fill: none; stroke: #dd65b6"/>
   </g>
   <g id="line2d_36">
    <path d="M 366.115512 129.576087 
L 362.382197 129.688469 
L 358.697883 129.802583 
" clip-path="url(#p0c8b121523)" style="fill: none; stroke: #6c9f33"/>
   </g>
   <g id="line2d_37">
    <path d="M 358.697883 123.253733 
L 354.805578 122.791104 
L 351.280255 122.36948 
" clip-path="url(#p0c8b121523)" style="fill: none; stroke: #009afa"/>
   </g>
   <g id="line2d_38">
    <path d="M 358.697883 129.802583 
L 354.805578 129.930309 
L 351.280255 130.051124 
" clip-path="url(#p0c8b121523)" style="fill: none; stroke: #e36f47"/>
   </g>
   <g id="line2d_39">
    <path d="M 351.280255 122.36948 
L 347.272095 121.879964 
L 343.862626 121.460722 
" clip-path="url(#p0c8b121523)" style="fill: none; stroke: #3ea44e"/>
   </g>
   <g id="line2d_40">
    <path d="M 351.280255 130.051124 
L 347.272095 130.197846 
L 343.862626 130.33 
" clip-path="url(#p0c8b121523)" style="fill: none; stroke: #c371d2"/>
   </g>
   <g id="line2d_41">
    <path d="M 343.862626 121.460722 
L 339.804231 120.953016 
L 336.444998 120.529546 
" clip-path="url(#p0c8b121523)" style="fill: none; stroke: #ac8e18"/>
   </g>
   <g id="line2d_42">
    <path d="M 343.862626 130.33 
L 339.804231 130.499326 
L 336.444998 130.649434 
" clip-path="url(#p0c8b121523)" style="fill: none; stroke: #00aaae"/>
   </g>
   <g id="line2d_43">
    <path d="M 336.444998 120.529546 
L 332.416262 120.014119 
L 329.027369 119.576922 
" clip-path="url(#p0c8b121523)" style="fill: none; stroke: #ed5e93"/>
   </g>
   <g id="line2d_44">
    <path d="M 336.444998 130.649434 
L 332.416262 130.844696 
L 329.027369 131.022553 
" clip-path="url(#p0c8b121523)" style="fill: none; stroke: #c68225"/>
   </g>
   <g id="line2d_45">
    <path d="M 329.027369 119.576922 
L 325.066019 119.058927 
L 321.609741 118.602627 
" clip-path="url(#p0c8b121523)" style="fill: none; stroke: #00a98d"/>
   </g>
   <g id="line2d_46">
    <path d="M 329.027369 131.022553 
L 325.066019 131.249582 
L 321.609741 131.465892 
" clip-path="url(#p0c8b121523)" style="fill: none; stroke: #8e971e"/>
   </g>
   <g id="line2d_47">
    <path d="M 321.609741 118.602627 
L 317.746582 118.085901 
L 314.192112 117.605385 
" clip-path="url(#p0c8b121523)" style="fill: none; stroke: #00a9cc"/>
   </g>
   <g id="line2d_48">
    <path d="M 321.609741 131.465892 
L 317.746582 131.731688 
L 314.192112 132.001107 
" clip-path="url(#p0c8b121523)" style="fill: none; stroke: #9b7fe9"/>
   </g>
   <g id="line2d_49">
    <path d="M 314.192112 117.605385 
L 310.433292 117.090474 
L 306.774484 116.583092 
" clip-path="url(#p0c8b121523)" style="fill: none; stroke: #618df6"/>
   </g>
   <g id="line2d_50">
    <path d="M 314.192112 132.001107 
L 310.433292 132.316295 
L 306.774484 132.656542 
" clip-path="url(#p0c8b121523)" style="fill: none; stroke: #f06073"/>
   </g>
   <g id="line2d_51">
    <path d="M 306.774484 116.583092 
L 303.119954 116.06907 
L 299.356855 115.532293 
" clip-path="url(#p0c8b121523)" style="fill: none; stroke: #dd65b6"/>
   </g>
   <g id="line2d_52">
    <path d="M 306.774484 132.656542 
L 303.119954 133.034566 
L 299.356855 133.469054 
" clip-path="url(#p0c8b121523)" style="fill: none; stroke: #6c9f33"/>
   </g>
   <g id="line2d_53">
    <path d="M 299.356855 115.532293 
L 295.813925 115.018997 
L 291.939226 114.448409 
" clip-path="url(#p0c8b121523)" style="fill: none; stroke: #009afa"/>
   </g>
   <g id="line2d_54">
    <path d="M 299.356855 133.469054 
L 295.813925 133.926566 
L 291.939226 134.488445 
" clip-path="url(#p0c8b121523)" style="fill: none; stroke: #e36f47"/>
   </g>
   <g id="line2d_55">
    <path d="M 291.939226 114.448409 
L 288.505454 113.933753 
L 284.521598 113.32515 
" clip-path="url(#p0c8b121523)" style="fill: none; stroke: #3ea44e"/>
   </g>
   <g id="line2d_56">
    <path d="M 291.939226 134.488445 
L 288.505454 135.048056 
L 284.521598 135.780716 
" clip-path="url(#p0c8b121523)" style="fill: none; stroke: #c371d2"/>
   </g>
   <g id="line2d_57">
    <path d="M 284.521598 113.32515 
L 281.195374 112.806583 
L 277.103969 112.154321 
" clip-path="url(#p0c8b121523)" style="fill: none; stroke: #ac8e18"/>
   </g>
   <g id="line2d_58">
    <path d="M 284.521598 135.780716 
L 281.195374 136.471001 
L 277.103969 137.433295 
" clip-path="url(#p0c8b121523)" style="fill: none; stroke: #00aaae"/>
   </g>
   <g id="line2d_59">
    <path d="M 277.103969 112.154321 
L 273.887043 111.629296 
L 269.686341 110.925543 
" clip-path="url(#p0c8b121523)" style="fill: none; stroke: #ed5e93"/>
   </g>
   <g id="line2d_60">
    <path d="M 277.103969 137.433295 
L 273.887043 138.290144 
L 269.686341 139.563031 
" clip-path="url(#p0c8b121523)" style="fill: none; stroke: #c68225"/>
   </g>
   <g id="line2d_61">
    <path d="M 269.686341 110.925543 
L 266.581479 110.390809 
L 262.268712 109.624504 
" clip-path="url(#p0c8b121523)" style="fill: none; stroke: #00a98d"/>
   </g>
   <g id="line2d_62">
    <path d="M 269.686341 139.563031 
L 266.581479 140.631684 
L 262.268712 142.325368 
" clip-path="url(#p0c8b121523)" style="fill: none; stroke: #8e971e"/>
   </g>
   <g id="line2d_63">
    <path d="M 262.268712 109.624504 
L 259.275562 109.075181 
L 254.851084 108.233569 
" clip-path="url(#p0c8b121523)" style="fill: none; stroke: #00a9cc"/>
   </g>
   <g id="line2d_64">
    <path d="M 262.268712 142.325368 
L 259.275562 143.662417 
L 254.851084 145.91778 
" clip-path="url(#p0c8b121523)" style="fill: none; stroke: #9b7fe9"/>
   </g>
   <g id="line2d_65">
    <path d="M 254.851084 108.233569 
L 251.972098 107.665633 
L 247.433455 106.733731 
" clip-path="url(#p0c8b121523)" style="fill: none; stroke: #618df6"/>
   </g>
   <g id="line2d_66">
    <path d="M 254.851084 145.91778 
L 251.972098 147.584446 
L 247.433455 150.573315 
" clip-path="url(#p0c8b121523)" style="fill: none; stroke: #f06073"/>
   </g>
   <g id="line2d_67">
    <path d="M 247.433455 106.733731 
L 244.674998 106.143648 
L 240.015827 105.101315 
" clip-path="url(#p0c8b121523)" style="fill: none; stroke: #dd65b6"/>
   </g>
   <g id="line2d_68">
    <path d="M 247.433455 150.573315 
L 244.674998 152.626189 
L 240.015827 156.538812 
" clip-path="url(#p0c8b121523)" style="fill: none; stroke: #6c9f33"/>
   </g>
   <g id="line2d_69">
    <path d="M 240.015827 105.101315 
L 237.379936 104.483842 
L 232.598198 103.308589 
" clip-path="url(#p0c8b121523)" style="fill: none; stroke: #009afa"/>
   </g>
   <g id="line2d_70">
    <path d="M 240.015827 156.538812 
L 237.379936 159.01449 
L 232.598198 163.996902 
" clip-path="url(#p0c8b121523)" style="fill: none; stroke: #e36f47"/>
   </g>
   <g id="line2d_71">
    <path d="M 232.598198 103.308589 
L 230.073743 102.654313 
L 225.18057 101.322398 
" clip-path="url(#p0c8b121523)" style="fill: none; stroke: #3ea44e"/>
   </g>
   <g id="line2d_72">
    <path d="M 232.598198 163.996902 
L 230.073743 166.889972 
L 225.18057 172.92713 
" clip-path="url(#p0c8b121523)" style="fill: none; stroke: #c371d2"/>
   </g>
   <g id="line2d_73">
    <path d="M 225.18057 101.322398 
L 222.74182 100.610796 
L 217.762941 99.093383 
" clip-path="url(#p0c8b121523)" style="fill: none; stroke: #ac8e18"/>
   </g>
   <g id="line2d_74">
    <path d="M 225.18057 172.92713 
L 222.74182 176.174354 
L 217.762941 182.968198 
" clip-path="url(#p0c8b121523)" style="fill: none; stroke: #00aaae"/>
   </g>
   <g id="line2d_75">
    <path d="M 217.762941 99.093383 
L 215.380283 98.285489 
L 210.345313 96.537638 
" clip-path="url(#p0c8b121523)" style="fill: none; stroke: #ed5e93"/>
   </g>
   <g id="line2d_76">
    <path d="M 217.762941 182.968198 
L 215.380283 186.436212 
L 210.345313 193.401186 
" clip-path="url(#p0c8b121523)" style="fill: none; stroke: #c68225"/>
   </g>
   <g id="line2d_77">
    <path d="M 210.345313 96.537638 
L 207.876512 95.557121 
L 202.927684 93.617672 
" clip-path="url(#p0c8b121523)" style="fill: none; stroke: #00a98d"/>
   </g>
   <g id="line2d_78">
    <path d="M 210.345313 193.401186 
L 207.876512 196.9297 
L 202.927684 203.058058 
" clip-path="url(#p0c8b121523)" style="fill: none; stroke: #8e971e"/>
   </g>
   <g id="line2d_79">
    <path d="M 202.927684 93.617672 
L 200.063894 92.36163 
L 195.510056 90.455082 
" clip-path="url(#p0c8b121523)" style="fill: none; stroke: #00a9cc"/>
   </g>
   <g id="line2d_80">
    <path d="M 202.927684 203.058058 
L 200.063894 206.429038 
L 195.510056 210.733378 
" clip-path="url(#p0c8b121523)" style="fill: none; stroke: #9b7fe9"/>
   </g>
   <g id="line2d_81">
    <path d="M 195.510056 90.455082 
L 192.160674 88.95041 
L 188.092427 87.233833 
" clip-path="url(#p0c8b121523)" style="fill: none; stroke: #618df6"/>
   </g>
   <g id="line2d_82">
    <path d="M 195.510056 210.733378 
L 192.160674 213.5112 
L 188.092427 216.124101 
" clip-path="url(#p0c8b121523)" style="fill: none; stroke: #f06073"/>
   </g>
   <g id="line2d_83">
    <path d="M 188.092427 87.233833 
L 184.775833 85.771197 
L 180.674799 84.072726 
" clip-path="url(#p0c8b121523)" style="fill: none; stroke: #dd65b6"/>
   </g>
   <g id="line2d_84">
    <path d="M 188.092427 216.124101 
L 184.775833 217.956758 
L 180.674799 219.718643 
" clip-path="url(#p0c8b121523)" style="fill: none; stroke: #6c9f33"/>
   </g>
   <g id="line2d_85">
    <path d="M 180.674799 84.072726 
L 177.400165 82.679282 
L 173.25717 81.007521 
" clip-path="url(#p0c8b121523)" style="fill: none; stroke: #009afa"/>
   </g>
   <g id="line2d_86">
    <path d="M 180.674799 219.718643 
L 177.400165 220.921568 
L 173.25717 222.134809 
" clip-path="url(#p0c8b121523)" style="fill: none; stroke: #e36f47"/>
   </g>
   <g id="line2d_87">
    <path d="M 173.25717 81.007521 
L 169.957405 79.652365 
L 165.839541 78.031907 
" clip-path="url(#p0c8b121523)" style="fill: none; stroke: #3ea44e"/>
   </g>
   <g id="line2d_88">
    <path d="M 173.25717 222.134809 
L 169.957405 222.970383 
L 165.839541 223.83529 
" clip-path="url(#p0c8b121523)" style="fill: none; stroke: #c371d2"/>
   </g>
   <g id="line2d_89">
    <path d="M 165.839541 78.031907 
L 162.478916 76.693844 
L 158.421913 75.129035 
" clip-path="url(#p0c8b121523)" style="fill: none; stroke: #ac8e18"/>
   </g>
   <g id="line2d_90">
    <path d="M 165.839541 223.83529 
L 162.478916 224.460997 
L 158.421913 225.111697 
" clip-path="url(#p0c8b121523)" style="fill: none; stroke: #00aaae"/>
   </g>
   <g id="line2d_91">
    <path d="M 158.421913 75.129035 
L 154.956828 73.78 
L 151.004284 72.275284 
" clip-path="url(#p0c8b121523)" style="fill: none; stroke: #ed5e93"/>
   </g>
   <g id="line2d_92">
    <path d="M 158.421913 225.111697 
L 154.956828 225.615922 
L 151.004284 226.129506 
" clip-path="url(#p0c8b121523)" style="fill: none; stroke: #c68225"/>
   </g>
   <g id="line2d_93">
    <path d="M 151.004284 72.275284 
L 147.382561 70.885956 
L 143.586656 69.452006 
" clip-path="url(#p0c8b121523)" style="fill: none; stroke: #00a98d"/>
   </g>
   <g id="line2d_94">
    <path d="M 151.004284 226.129506 
L 147.382561 226.567991 
L 143.586656 226.993194 
" clip-path="url(#p0c8b121523)" style="fill: none; stroke: #8e971e"/>
   </g>
   <g id="line2d_95">
    <path d="M 143.586656 69.452006 
L 139.754411 67.994805 
L 136.169027 66.64465 
" clip-path="url(#p0c8b121523)" style="fill: none; stroke: #00a9cc"/>
   </g>
   <g id="line2d_96">
    <path d="M 143.586656 226.993194 
L 139.754411 227.40349 
L 136.169027 227.768987 
" clip-path="url(#p0c8b121523)" style="fill: none; stroke: #9b7fe9"/>
   </g>
   <g id="line2d_97">
    <path d="M 136.169027 66.64465 
L 132.073064 65.092738 
L 128.751399 63.841151 
" clip-path="url(#p0c8b121523)" style="fill: none; stroke: #618df6"/>
   </g>
   <g id="line2d_98">
    <path d="M 136.169027 227.768987 
L 132.073064 228.17737 
L 128.751399 228.50141 
" clip-path="url(#p0c8b121523)" style="fill: none; stroke: #f06073"/>
   </g>
   <g id="line2d_99">
    <path d="M 128.751399 63.841151 
L 124.380836 62.184528 
L 121.33377 61.032171 
" clip-path="url(#p0c8b121523)" style="fill: none; stroke: #dd65b6"/>
   </g>
   <g id="line2d_100">
    <path d="M 128.751399 228.50141 
L 124.380836 228.927748 
L 121.33377 229.225177 
" clip-path="url(#p0c8b121523)" style="fill: none; stroke: #6c9f33"/>
   </g>
   <g id="line2d_101">
    <path d="M 121.33377 61.032171 
L 116.804886 59.309114 
L 113.916142 58.209886 
" clip-path="url(#p0c8b121523)" style="fill: none; stroke: #009afa"/>
   </g>
   <g id="line2d_102">
    <path d="M 121.33377 229.225177 
L 116.804886 229.675511 
L 113.916142 229.968625 
" clip-path="url(#p0c8b121523)" style="fill: none; stroke: #e36f47"/>
   </g>
   <g id="line2d_103">
    <path d="M 113.916142 58.209886 
L 109.404868 56.482769 
L 106.498513 55.367673 
" clip-path="url(#p0c8b121523)" style="fill: none; stroke: #3ea44e"/>
   </g>
   <g id="line2d_104">
    <path d="M 113.916142 229.968625 
L 109.404868 230.442456 
L 106.498513 230.759324 
" clip-path="url(#p0c8b121523)" style="fill: none; stroke: #c371d2"/>
   </g>
   <g id="line2d_105">
    <path d="M 106.498513 55.367673 
L 102.082428 53.662432 
L 99.080885 52.498919 
" clip-path="url(#p0c8b121523)" style="fill: none; stroke: #ac8e18"/>
   </g>
   <g id="line2d_106">
    <path d="M 106.498513 230.759324 
L 102.082428 231.264564 
L 99.080885 231.626232 
" clip-path="url(#p0c8b121523)" style="fill: none; stroke: #00aaae"/>
   </g>
   <g id="line2d_107">
    <path d="M 99.080885 52.498919 
L 94.736467 50.803276 
L 91.663256 49.597478 
" clip-path="url(#p0c8b121523)" style="fill: none; stroke: #ed5e93"/>
   </g>
   <g id="line2d_108">
    <path d="M 99.080885 231.626232 
L 94.736467 232.182516 
L 91.663256 232.602336 
" clip-path="url(#p0c8b121523)" style="fill: none; stroke: #c68225"/>
   </g>
   <g id="line2d_109">
    <path d="M 91.663256 49.597478 
L 87.341868 47.889171 
L 84.245628 46.656989 
" clip-path="url(#p0c8b121523)" style="fill: none; stroke: #00a98d"/>
   </g>
   <g id="line2d_110">
    <path d="M 91.663256 232.602336 
L 87.341868 233.237009 
L 84.245628 233.727588 
" clip-path="url(#p0c8b121523)" style="fill: none; stroke: #8e971e"/>
   </g>
   <g id="line2d_111">
    <path d="M 84.245628 46.656989 
L 79.899831 44.912807 
L 76.827999 43.669872 
" clip-path="url(#p0c8b121523)" style="fill: none; stroke: #00a9cc"/>
   </g>
   <g id="line2d_112">
    <path d="M 84.245628 233.727588 
L 79.899831 234.475492 
L 76.827999 235.051269 
" clip-path="url(#p0c8b121523)" style="fill: none; stroke: #9b7fe9"/>
   </g>
   <g id="line2d_113">
    <path d="M 76.827999 43.669872 
L 72.410253 41.865074 
L 69.410371 40.627718 
" clip-path="url(#p0c8b121523)" style="fill: none; stroke: #618df6"/>
   </g>
   <g id="line2d_114">
    <path d="M 76.827999 235.051269 
L 72.410253 235.959211 
L 69.410371 236.63652 
" clip-path="url(#p0c8b121523)" style="fill: none; stroke: #f06073"/>
   </g>
   <g id="line2d_115">
    <path d="M 69.410371 40.627718 
L 64.888292 38.741908 
L 61.992742 37.520731 
" clip-path="url(#p0c8b121523)" style="fill: none; stroke: #dd65b6"/>
   </g>
   <g id="line2d_116">
    <path d="M 69.410371 236.63652 
L 64.888292 237.7655 
L 61.992742 238.565577 
" clip-path="url(#p0c8b121523)" style="fill: none; stroke: #6c9f33"/>
   </g>
   <g id="line2d_117">
    <path d="M 61.992742 37.520731 
L 57.369762 35.546219 
L 54.575113 34.336743 
" clip-path="url(#p0c8b121523)" style="fill: none; stroke: #009afa"/>
   </g>
   <g id="line2d_118">
    <path d="M 61.992742 238.565577 
L 57.369762 239.987994 
L 54.575113 240.945878 
" clip-path="url(#p0c8b121523)" style="fill: none; stroke: #e36f47"/>
   </g>
   <g id="line2d_119">
    <path d="M 54.575113 34.336743 
L 49.929072 32.296522 
L 47.157485 31.06042 
" clip-path="url(#p0c8b121523)" style="fill: none; stroke: #3ea44e"/>
   </g>
   <g id="line2d_120">
    <path d="M 54.575113 240.945878 
L 49.929072 242.728266 
L 47.157485 243.91958 
" clip-path="url(#p0c8b121523)" style="fill: none; stroke: #c371d2"/>
   </g>
  </g>
 </g>
 <defs>
  <clipPath id="p0c8b121523">
   <rect x="36.031042" y="24.674646" width="393.134312" height="225.630709"/>
  </clipPath>
 </defs>
</svg>
