<?xml version="1.0" encoding="utf-8" standalone="no"?>
<!DOCTYPE svg PUBLIC "-//W3C//DTD SVG 1.1//EN"
  "http://www.w3.org/Graphics/SVG/1.1/DTD/svg11.dtd">
<svg xmlns:xlink="http://www.w3.org/1999/xlink" width="432pt" height="288pt" viewBox="0 0 432 288" xmlns="http://www.w3.org/2000/svg" version="1.1">
 <metadata>
  <rdf:RDF xmlns:dc="http://purl.org/dc/elements/1.1/" xmlns:cc="http://creativecommons.org/ns#" xmlns:rdf="http://www.w3.org/1999/02/22-rdf-syntax-ns#">
   <cc:Work>
    <dc:type rdf:resource="http://purl.org/dc/dcmitype/StillImage"/>
    <dc:date>2021-12-31T13:16:22.542959</dc:date>
    <dc:format>image/svg+xml</dc:format>
    <dc:creator>
     <cc:Agent>
      <dc:title>Matplotlib v3.5.0, https://matplotlib.org/</dc:title>
     </cc:Agent>
    </dc:creator>
   </cc:Work>
  </rdf:RDF>
 </metadata>
 <defs>
  <style type="text/css">*{stroke-linejoin: round; stroke-linecap: butt}</style>
 </defs>
 <g id="figure_1">
  <g id="patch_1">
   <path d="M 0 288 
L 432 288 
L 432 0 
L 0 0 
z
" style="fill: #ffffff"/>
  </g>
  <g id="axes_1">
   <g id="patch_2">
    <path d="M 26.350616 111.568537 
L 429.165354 111.568537 
L 429.165354 2.834646 
L 26.350616 2.834646 
z
" style="fill: #ffffff"/>
   </g>
   <g id="matplotlib.axis_1">
    <g id="xtick_1">
     <g id="line2d_1">
      <path d="M 37.751033 111.568537 
L 37.751033 2.834646 
" clip-path="url(#p042a9b4dd4)" style="fill: none; stroke: #000000; stroke-opacity: 0.1; stroke-width: 0.5; stroke-linecap: square"/>
     </g>
     <g id="line2d_2">
      <defs>
       <path id="m0a32bb9542" d="M 0 0 
L 0 -2.5 
" style="stroke: #000000; stroke-width: 0.5"/>
      </defs>
      <g>
       <use xlink:href="#m0a32bb9542" x="37.751033" y="111.568537" style="stroke: #000000; stroke-width: 0.5"/>
      </g>
     </g>
     <g id="text_1">
      <!-- $0$ -->
      <g transform="translate(34.544363 125.381755)rotate(-10)scale(0.12 -0.12)">
       <defs>
        <path id="DejaVuSans-30" d="M 2034 4250 
Q 1547 4250 1301 3770 
Q 1056 3291 1056 2328 
Q 1056 1369 1301 889 
Q 1547 409 2034 409 
Q 2525 409 2770 889 
Q 3016 1369 3016 2328 
Q 3016 3291 2770 3770 
Q 2525 4250 2034 4250 
z
M 2034 4750 
Q 2819 4750 3233 4129 
Q 3647 3509 3647 2328 
Q 3647 1150 3233 529 
Q 2819 -91 2034 -91 
Q 1250 -91 836 529 
Q 422 1150 422 2328 
Q 422 3509 836 4129 
Q 1250 4750 2034 4750 
z
" transform="scale(0.015625)"/>
       </defs>
       <use xlink:href="#DejaVuSans-30" transform="translate(0 0.78125)"/>
      </g>
     </g>
    </g>
    <g id="xtick_2">
     <g id="line2d_3">
      <path d="M 113.753814 111.568537 
L 113.753814 2.834646 
" clip-path="url(#p042a9b4dd4)" style="fill: none; stroke: #000000; stroke-opacity: 0.1; stroke-width: 0.5; stroke-linecap: square"/>
     </g>
     <g id="line2d_4">
      <g>
       <use xlink:href="#m0a32bb9542" x="113.753814" y="111.568537" style="stroke: #000000; stroke-width: 0.5"/>
      </g>
     </g>
     <g id="text_2">
      <!-- $1$ -->
      <g transform="translate(110.547144 125.381755)rotate(-10)scale(0.12 -0.12)">
       <defs>
        <path id="DejaVuSans-31" d="M 794 531 
L 1825 531 
L 1825 4091 
L 703 3866 
L 703 4441 
L 1819 4666 
L 2450 4666 
L 2450 531 
L 3481 531 
L 3481 0 
L 794 0 
L 794 531 
z
" transform="scale(0.015625)"/>
       </defs>
       <use xlink:href="#DejaVuSans-31" transform="translate(0 0.09375)"/>
      </g>
     </g>
    </g>
    <g id="xtick_3">
     <g id="line2d_5">
      <path d="M 189.756594 111.568537 
L 189.756594 2.834646 
" clip-path="url(#p042a9b4dd4)" style="fill: none; stroke: #000000; stroke-opacity: 0.1; stroke-width: 0.5; stroke-linecap: square"/>
     </g>
     <g id="line2d_6">
      <g>
       <use xlink:href="#m0a32bb9542" x="189.756594" y="111.568537" style="stroke: #000000; stroke-width: 0.5"/>
      </g>
     </g>
     <g id="text_3">
      <!-- $2$ -->
      <g transform="translate(186.549925 125.381755)rotate(-10)scale(0.12 -0.12)">
       <defs>
        <path id="DejaVuSans-32" d="M 1228 531 
L 3431 531 
L 3431 0 
L 469 0 
L 469 531 
Q 828 903 1448 1529 
Q 2069 2156 2228 2338 
Q 2531 2678 2651 2914 
Q 2772 3150 2772 3378 
Q 2772 3750 2511 3984 
Q 2250 4219 1831 4219 
Q 1534 4219 1204 4116 
Q 875 4013 500 3803 
L 500 4441 
Q 881 4594 1212 4672 
Q 1544 4750 1819 4750 
Q 2544 4750 2975 4387 
Q 3406 4025 3406 3419 
Q 3406 3131 3298 2873 
Q 3191 2616 2906 2266 
Q 2828 2175 2409 1742 
Q 1991 1309 1228 531 
z
" transform="scale(0.015625)"/>
       </defs>
       <use xlink:href="#DejaVuSans-32" transform="translate(0 0.78125)"/>
      </g>
     </g>
    </g>
    <g id="xtick_4">
     <g id="line2d_7">
      <path d="M 265.759375 111.568537 
L 265.759375 2.834646 
" clip-path="url(#p042a9b4dd4)" style="fill: none; stroke: #000000; stroke-opacity: 0.1; stroke-width: 0.5; stroke-linecap: square"/>
     </g>
     <g id="line2d_8">
      <g>
       <use xlink:href="#m0a32bb9542" x="265.759375" y="111.568537" style="stroke: #000000; stroke-width: 0.5"/>
      </g>
     </g>
     <g id="text_4">
      <!-- $3$ -->
      <g transform="translate(262.552706 125.381755)rotate(-10)scale(0.12 -0.12)">
       <defs>
        <path id="DejaVuSans-33" d="M 2597 2516 
Q 3050 2419 3304 2112 
Q 3559 1806 3559 1356 
Q 3559 666 3084 287 
Q 2609 -91 1734 -91 
Q 1441 -91 1130 -33 
Q 819 25 488 141 
L 488 750 
Q 750 597 1062 519 
Q 1375 441 1716 441 
Q 2309 441 2620 675 
Q 2931 909 2931 1356 
Q 2931 1769 2642 2001 
Q 2353 2234 1838 2234 
L 1294 2234 
L 1294 2753 
L 1863 2753 
Q 2328 2753 2575 2939 
Q 2822 3125 2822 3475 
Q 2822 3834 2567 4026 
Q 2313 4219 1838 4219 
Q 1578 4219 1281 4162 
Q 984 4106 628 3988 
L 628 4550 
Q 988 4650 1302 4700 
Q 1616 4750 1894 4750 
Q 2613 4750 3031 4423 
Q 3450 4097 3450 3541 
Q 3450 3153 3228 2886 
Q 3006 2619 2597 2516 
z
" transform="scale(0.015625)"/>
       </defs>
       <use xlink:href="#DejaVuSans-33" transform="translate(0 0.78125)"/>
      </g>
     </g>
    </g>
    <g id="xtick_5">
     <g id="line2d_9">
      <path d="M 341.762156 111.568537 
L 341.762156 2.834646 
" clip-path="url(#p042a9b4dd4)" style="fill: none; stroke: #000000; stroke-opacity: 0.1; stroke-width: 0.5; stroke-linecap: square"/>
     </g>
     <g id="line2d_10">
      <g>
       <use xlink:href="#m0a32bb9542" x="341.762156" y="111.568537" style="stroke: #000000; stroke-width: 0.5"/>
      </g>
     </g>
     <g id="text_5">
      <!-- $4$ -->
      <g transform="translate(338.555487 125.381755)rotate(-10)scale(0.12 -0.12)">
       <defs>
        <path id="DejaVuSans-34" d="M 2419 4116 
L 825 1625 
L 2419 1625 
L 2419 4116 
z
M 2253 4666 
L 3047 4666 
L 3047 1625 
L 3713 1625 
L 3713 1100 
L 3047 1100 
L 3047 0 
L 2419 0 
L 2419 1100 
L 313 1100 
L 313 1709 
L 2253 4666 
z
" transform="scale(0.015625)"/>
       </defs>
       <use xlink:href="#DejaVuSans-34" transform="translate(0 0.09375)"/>
      </g>
     </g>
    </g>
    <g id="xtick_6">
     <g id="line2d_11">
      <path d="M 417.764937 111.568537 
L 417.764937 2.834646 
" clip-path="url(#p042a9b4dd4)" style="fill: none; stroke: #000000; stroke-opacity: 0.1; stroke-width: 0.5; stroke-linecap: square"/>
     </g>
     <g id="line2d_12">
      <g>
       <use xlink:href="#m0a32bb9542" x="417.764937" y="111.568537" style="stroke: #000000; stroke-width: 0.5"/>
      </g>
     </g>
     <g id="text_6">
      <!-- $5$ -->
      <g transform="translate(414.558268 125.381755)rotate(-10)scale(0.12 -0.12)">
       <defs>
        <path id="DejaVuSans-35" d="M 691 4666 
L 3169 4666 
L 3169 4134 
L 1269 4134 
L 1269 2991 
Q 1406 3038 1543 3061 
Q 1681 3084 1819 3084 
Q 2600 3084 3056 2656 
Q 3513 2228 3513 1497 
Q 3513 744 3044 326 
Q 2575 -91 1722 -91 
Q 1428 -91 1123 -41 
Q 819 9 494 109 
L 494 744 
Q 775 591 1075 516 
Q 1375 441 1709 441 
Q 2250 441 2565 725 
Q 2881 1009 2881 1497 
Q 2881 1984 2565 2268 
Q 2250 2553 1709 2553 
Q 1456 2553 1204 2497 
Q 953 2441 691 2322 
L 691 4666 
z
" transform="scale(0.015625)"/>
       </defs>
       <use xlink:href="#DejaVuSans-35" transform="translate(0 0.09375)"/>
      </g>
     </g>
    </g>
   </g>
   <g id="matplotlib.axis_2">
    <g id="ytick_1">
     <g id="line2d_13">
      <path d="M 26.350616 92.422644 
L 429.165354 92.422644 
" clip-path="url(#p042a9b4dd4)" style="fill: none; stroke: #000000; stroke-opacity: 0.1; stroke-width: 0.5; stroke-linecap: square"/>
     </g>
     <g id="line2d_14">
      <defs>
       <path id="macf35a0c19" d="M 0 0 
L 2.5 0 
" style="stroke: #000000; stroke-width: 0.5"/>
      </defs>
      <g>
       <use xlink:href="#macf35a0c19" x="26.350616" y="92.422644" style="stroke: #000000; stroke-width: 0.5"/>
      </g>
     </g>
     <g id="text_7">
      <!-- $0$ -->
      <g transform="translate(14.853931 98.1768)rotate(-10)scale(0.12 -0.12)">
       <use xlink:href="#DejaVuSans-30" transform="translate(0 0.78125)"/>
      </g>
     </g>
    </g>
    <g id="ytick_2">
     <g id="line2d_15">
      <path d="M 26.350616 72.021792 
L 429.165354 72.021792 
" clip-path="url(#p042a9b4dd4)" style="fill: none; stroke: #000000; stroke-opacity: 0.1; stroke-width: 0.5; stroke-linecap: square"/>
     </g>
     <g id="line2d_16">
      <g>
       <use xlink:href="#macf35a0c19" x="26.350616" y="72.021792" style="stroke: #000000; stroke-width: 0.5"/>
      </g>
     </g>
     <g id="text_8">
      <!-- $2$ -->
      <g transform="translate(14.853931 77.775947)rotate(-10)scale(0.12 -0.12)">
       <use xlink:href="#DejaVuSans-32" transform="translate(0 0.78125)"/>
      </g>
     </g>
    </g>
    <g id="ytick_3">
     <g id="line2d_17">
      <path d="M 26.350616 51.620939 
L 429.165354 51.620939 
" clip-path="url(#p042a9b4dd4)" style="fill: none; stroke: #000000; stroke-opacity: 0.1; stroke-width: 0.5; stroke-linecap: square"/>
     </g>
     <g id="line2d_18">
      <g>
       <use xlink:href="#macf35a0c19" x="26.350616" y="51.620939" style="stroke: #000000; stroke-width: 0.5"/>
      </g>
     </g>
     <g id="text_9">
      <!-- $4$ -->
      <g transform="translate(14.853931 57.375095)rotate(-10)scale(0.12 -0.12)">
       <use xlink:href="#DejaVuSans-34" transform="translate(0 0.09375)"/>
      </g>
     </g>
    </g>
    <g id="ytick_4">
     <g id="line2d_19">
      <path d="M 26.350616 31.220086 
L 429.165354 31.220086 
" clip-path="url(#p042a9b4dd4)" style="fill: none; stroke: #000000; stroke-opacity: 0.1; stroke-width: 0.5; stroke-linecap: square"/>
     </g>
     <g id="line2d_20">
      <g>
       <use xlink:href="#macf35a0c19" x="26.350616" y="31.220086" style="stroke: #000000; stroke-width: 0.5"/>
      </g>
     </g>
     <g id="text_10">
      <!-- $6$ -->
      <g transform="translate(14.853931 36.974242)rotate(-10)scale(0.12 -0.12)">
       <defs>
        <path id="DejaVuSans-36" d="M 2113 2584 
Q 1688 2584 1439 2293 
Q 1191 2003 1191 1497 
Q 1191 994 1439 701 
Q 1688 409 2113 409 
Q 2538 409 2786 701 
Q 3034 994 3034 1497 
Q 3034 2003 2786 2293 
Q 2538 2584 2113 2584 
z
M 3366 4563 
L 3366 3988 
Q 3128 4100 2886 4159 
Q 2644 4219 2406 4219 
Q 1781 4219 1451 3797 
Q 1122 3375 1075 2522 
Q 1259 2794 1537 2939 
Q 1816 3084 2150 3084 
Q 2853 3084 3261 2657 
Q 3669 2231 3669 1497 
Q 3669 778 3244 343 
Q 2819 -91 2113 -91 
Q 1303 -91 875 529 
Q 447 1150 447 2328 
Q 447 3434 972 4092 
Q 1497 4750 2381 4750 
Q 2619 4750 2861 4703 
Q 3103 4656 3366 4563 
z
" transform="scale(0.015625)"/>
       </defs>
       <use xlink:href="#DejaVuSans-36" transform="translate(0 0.78125)"/>
      </g>
     </g>
    </g>
    <g id="ytick_5">
     <g id="line2d_21">
      <path d="M 26.350616 10.819234 
L 429.165354 10.819234 
" clip-path="url(#p042a9b4dd4)" style="fill: none; stroke: #000000; stroke-opacity: 0.1; stroke-width: 0.5; stroke-linecap: square"/>
     </g>
     <g id="line2d_22">
      <g>
       <use xlink:href="#macf35a0c19" x="26.350616" y="10.819234" style="stroke: #000000; stroke-width: 0.5"/>
      </g>
     </g>
     <g id="text_11">
      <!-- $8$ -->
      <g transform="translate(14.853931 16.573389)rotate(-10)scale(0.12 -0.12)">
       <defs>
        <path id="DejaVuSans-38" d="M 2034 2216 
Q 1584 2216 1326 1975 
Q 1069 1734 1069 1313 
Q 1069 891 1326 650 
Q 1584 409 2034 409 
Q 2484 409 2743 651 
Q 3003 894 3003 1313 
Q 3003 1734 2745 1975 
Q 2488 2216 2034 2216 
z
M 1403 2484 
Q 997 2584 770 2862 
Q 544 3141 544 3541 
Q 544 4100 942 4425 
Q 1341 4750 2034 4750 
Q 2731 4750 3128 4425 
Q 3525 4100 3525 3541 
Q 3525 3141 3298 2862 
Q 3072 2584 2669 2484 
Q 3125 2378 3379 2068 
Q 3634 1759 3634 1313 
Q 3634 634 3220 271 
Q 2806 -91 2034 -91 
Q 1263 -91 848 271 
Q 434 634 434 1313 
Q 434 1759 690 2068 
Q 947 2378 1403 2484 
z
M 1172 3481 
Q 1172 3119 1398 2916 
Q 1625 2713 2034 2713 
Q 2441 2713 2670 2916 
Q 2900 3119 2900 3481 
Q 2900 3844 2670 4047 
Q 2441 4250 2034 4250 
Q 1625 4250 1398 4047 
Q 1172 3844 1172 3481 
z
" transform="scale(0.015625)"/>
       </defs>
       <use xlink:href="#DejaVuSans-38" transform="translate(0 0.78125)"/>
      </g>
     </g>
    </g>
   </g>
   <g id="PathCollection_1">
    <defs>
     <path id="mb4549cc668" d="M -2 2 
L 2 2 
L 2 -2 
L -2 -2 
z
"/>
    </defs>
    <g clip-path="url(#p042a9b4dd4)">
     <use xlink:href="#mb4549cc668" x="37.751033" y="108.491163" style="fill: #00008b"/>
     <use xlink:href="#mb4549cc668" x="113.753814" y="57.795751" style="fill: #00008b"/>
     <use xlink:href="#mb4549cc668" x="189.756594" y="5.91202" style="fill: #00008b"/>
     <use xlink:href="#mb4549cc668" x="265.759375" y="63.992934" style="fill: #00008b"/>
     <use xlink:href="#mb4549cc668" x="341.762156" y="78.108852" style="fill: #00008b"/>
     <use xlink:href="#mb4549cc668" x="417.764937" y="29.371209" style="fill: #00008b"/>
    </g>
   </g>
   <g id="PathCollection_2">
    <defs>
     <path id="m663996a14b" d="M -2 2 
L 2 2 
L 2 -2 
L -2 -2 
z
"/>
    </defs>
    <g clip-path="url(#p042a9b4dd4)">
     <use xlink:href="#m663996a14b" x="37.751033" y="77.925142" style="fill: #cc0000"/>
     <use xlink:href="#m663996a14b" x="113.753814" y="99.387988" style="fill: #cc0000"/>
     <use xlink:href="#m663996a14b" x="189.756594" y="67.797776" style="fill: #cc0000"/>
     <use xlink:href="#m663996a14b" x="265.759375" y="77.856086" style="fill: #cc0000"/>
     <use xlink:href="#m663996a14b" x="341.762156" y="88.22929" style="fill: #cc0000"/>
     <use xlink:href="#m663996a14b" x="417.764937" y="76.499055" style="fill: #cc0000"/>
    </g>
   </g>
   <g id="patch_3">
    <path d="M 26.350616 111.568537 
L 26.350616 2.834646 
" style="fill: none; stroke: #000000; stroke-linejoin: miter; stroke-linecap: square"/>
   </g>
   <g id="patch_4">
    <path d="M 26.350616 111.568537 
L 429.165354 111.568537 
" style="fill: none; stroke: #000000; stroke-linejoin: miter; stroke-linecap: square"/>
   </g>
   <g id="line2d_23">
    <path d="M 417.764937 30.292559 
L 417.756817 30.298388 
L 417.675613 30.356725 
L 417.493609 30.487767 
L 417.221176 30.684648 
L 416.794775 30.994475 
L 416.251513 31.391979 
L 415.525383 31.927667 
L 414.655458 32.575208 
L 413.575379 33.386456 
L 412.313395 34.342239 
L 410.80658 35.491059 
L 409.069652 36.820591 
L 407.043479 38.371739 
L 404.728648 40.135235 
L 402.066917 42.140477 
L 399.044223 44.375383 
L 395.601441 46.851611 
L 391.714058 49.544098 
L 387.328079 52.436481 
L 382.422534 55.478608 
L 376.962924 58.620473 
L 370.946481 61.789021 
L 364.373017 64.912416 
L 357.292033 67.90529 
L 349.794338 70.686673 
L 342.038989 73.181918 
L 341.762156 73.264289 
" clip-path="url(#p042a9b4dd4)" style="fill: none; stroke: #00008b"/>
   </g>
   <g id="line2d_24">
    <path d="M 417.764937 86.078718 
L 417.756817 86.080812 
L 417.675613 86.101698 
L 417.493609 86.148121 
L 417.221176 86.216616 
L 416.794775 86.321473 
L 416.251513 86.451026 
L 415.525383 86.617368 
L 414.655458 86.806834 
L 413.575379 87.028011 
L 412.313395 87.26802 
L 410.80658 87.530651 
L 409.069652 87.804023 
L 407.043479 88.087379 
L 404.728648 88.369874 
L 402.066917 88.647665 
L 399.044223 88.911181 
L 395.601441 89.154952 
L 391.714058 89.370593 
L 387.328079 89.551824 
L 382.422534 89.690969 
L 376.962924 89.781003 
L 370.946481 89.813692 
L 364.373017 89.779404 
L 357.292033 89.666083 
L 349.794338 89.459232 
L 342.038989 89.143513 
L 341.762156 89.130135 
" clip-path="url(#p042a9b4dd4)" style="fill: none; stroke: #cc0000"/>
   </g>
   <g id="line2d_25">
    <path d="M 341.762156 73.268762 
L 341.574039 73.324454 
L 339.810208 73.836751 
L 338.046377 74.331485 
L 334.605665 75.247553 
L 331.164953 76.101256 
L 326.37098 77.191808 
L 321.577007 78.173324 
L 316.339383 79.127988 
L 311.101758 79.966181 
L 306.805466 80.57061 
L 300.160492 81.362116 
L 293.515518 81.983285 
L 285.310478 82.510959 
L 276.962313 82.756663 
L 267.81437 82.627194 
L 265.759375 82.529989 
" clip-path="url(#p042a9b4dd4)" style="fill: none; stroke: #00008b"/>
   </g>
   <g id="line2d_26">
    <path d="M 341.762156 89.126684 
L 341.574039 89.117493 
L 339.810208 89.02787 
L 338.046377 88.93182 
L 334.605665 88.724979 
L 331.164953 88.490466 
L 326.37098 88.112807 
L 321.577007 87.668486 
L 316.339383 87.095702 
L 311.101758 86.417584 
L 306.805466 85.77092 
L 300.160492 84.583239 
L 293.515518 83.127104 
L 285.310478 80.87834 
L 276.962313 77.969818 
L 267.81437 73.917407 
L 265.759375 72.87048 
" clip-path="url(#p042a9b4dd4)" style="fill: none; stroke: #cc0000"/>
   </g>
   <g id="line2d_27">
    <path d="M 265.759375 82.518343 
L 265.661913 82.513045 
L 264.687295 82.456361 
L 263.457414 82.374954 
L 261.358946 82.209028 
L 259.13463 81.992862 
L 256.550747 81.683921 
L 253.311818 81.19672 
L 249.221975 80.393495 
L 244.970836 79.285039 
L 240.443552 77.716041 
L 235.916269 75.63434 
L 231.388985 72.900045 
L 227.816528 70.178258 
L 223.616341 66.234324 
L 219.397831 61.38846 
L 215.028531 55.454257 
L 210.659232 48.793571 
L 206.264353 41.803002 
L 201.869475 35.150503 
L 197.474596 29.494794 
L 194.110593 26.158735 
L 190.74659 23.812018 
L 189.756594 23.314843 
" clip-path="url(#p042a9b4dd4)" style="fill: none; stroke: #00008b"/>
   </g>
   <g id="line2d_28">
    <path d="M 265.759375 72.892871 
L 265.661913 72.841996 
L 264.687295 72.326664 
L 263.457414 71.659217 
L 261.358946 70.475981 
L 259.13463 69.160791 
L 256.550747 67.555312 
L 253.311818 65.42977 
L 249.221975 62.584594 
L 244.970836 59.481195 
L 240.443552 56.103918 
L 235.916269 52.803829 
L 231.388985 49.806105 
L 227.816528 47.848246 
L 223.616341 46.268864 
L 219.397831 45.756755 
L 215.028531 46.63581 
L 210.659232 49.071594 
L 206.264353 52.957203 
L 201.869475 57.865986 
L 197.474596 63.207801 
L 194.110593 67.223924 
L 190.74659 70.95469 
L 189.756594 71.97851 
" clip-path="url(#p042a9b4dd4)" style="fill: none; stroke: #cc0000"/>
   </g>
   <g id="line2d_29">
    <path d="M 189.756594 23.412446 
L 189.695599 23.384443 
L 189.085648 23.122143 
L 188.394711 22.863655 
L 187.082242 22.482922 
L 185.719835 22.235478 
L 183.756374 22.127497 
L 181.792913 22.289958 
L 179.436776 22.801304 
L 177.080638 23.611001 
L 174.712031 24.676456 
L 172.343424 25.947915 
L 169.847578 27.464476 
L 167.001569 29.361286 
L 164.155561 31.385092 
L 161.309552 33.491021 
L 157.465149 36.402134 
L 153.348257 39.535126 
L 148.085041 43.471565 
L 142.277773 47.63676 
L 135.67602 52.069109 
L 128.91695 56.231742 
L 121.702835 60.243638 
L 114.481061 63.825261 
L 113.753814 64.162643 
" clip-path="url(#p042a9b4dd4)" style="fill: none; stroke: #00008b"/>
   </g>
   <g id="line2d_30">
    <path d="M 189.756594 71.934463 
L 189.695599 71.996306 
L 189.085648 72.606865 
L 188.394711 73.280931 
L 187.082242 74.508848 
L 185.719835 75.709474 
L 183.756374 77.306962 
L 181.792913 78.750739 
L 179.436776 80.290265 
L 177.080638 81.634657 
L 174.712031 82.808418 
L 172.343424 83.823716 
L 169.847578 84.743326 
L 167.001569 85.630128 
L 164.155561 86.371012 
L 161.309552 86.989972 
L 157.465149 87.667991 
L 153.348257 88.233696 
L 148.085041 88.773288 
L 142.277773 89.191607 
L 135.67602 89.504158 
L 128.91695 89.692459 
L 121.702835 89.78153 
L 114.481061 89.775934 
L 113.753814 89.770534 
" clip-path="url(#p042a9b4dd4)" style="fill: none; stroke: #cc0000"/>
   </g>
   <g id="line2d_31">
    <path d="M 113.753814 64.14831 
L 113.587139 64.225148 
L 112.085138 64.907841 
L 110.583138 65.573179 
L 107.682894 66.809862 
L 104.78265 67.984942 
L 100.865258 69.478109 
L 96.947865 70.86791 
L 93.030473 72.15947 
L 89.085707 73.365821 
L 84.431486 74.67413 
L 80.819781 75.608163 
L 75.800601 76.794918 
L 70.774624 77.860932 
L 64.658658 79.003116 
L 58.342731 80.014831 
L 51.0311 80.984431 
L 43.290245 81.783925 
L 37.751033 82.21433 
" clip-path="url(#p042a9b4dd4)" style="fill: none; stroke: #00008b"/>
   </g>
   <g id="line2d_32">
    <path d="M 113.753814 89.780349 
L 113.587139 89.779005 
L 112.085138 89.764904 
L 110.583138 89.747238 
L 107.682894 89.703121 
L 104.78265 89.645781 
L 100.865258 89.547075 
L 96.947865 89.423094 
L 93.030473 89.2725 
L 89.085707 89.092113 
L 84.431486 88.838981 
L 80.819781 88.609518 
L 75.800601 88.237322 
L 70.774624 87.794511 
L 64.658658 87.146029 
L 58.342731 86.327418 
L 51.0311 85.151641 
L 43.290245 83.580286 
L 37.751033 82.207601 
" clip-path="url(#p042a9b4dd4)" style="fill: none; stroke: #cc0000"/>
   </g>
   <g id="line2d_33">
    <path d="M 417.756817 30.298388 
L 417.764937 30.292559 
" clip-path="url(#p042a9b4dd4)" style="fill: none; stroke: #00008b"/>
   </g>
   <g id="line2d_34">
    <path d="M 417.756817 86.080812 
L 417.764937 86.078718 
" clip-path="url(#p042a9b4dd4)" style="fill: none; stroke: #cc0000"/>
   </g>
   <g id="patch_5">
    <path d="M 411.141305 31.354393 
Q 414.453121 30.823476 417.764937 30.292559 
Q 416.202581 33.260562 414.640225 36.228565 
z
" style="fill: #00008b; stroke: #00008b; stroke-linecap: round"/>
   </g>
   <g id="patch_6">
    <path d="M 411.205813 84.672342 
Q 414.485375 85.37553 417.764937 86.078718 
Q 415.23465 88.280454 412.704362 90.482191 
z
" style="fill: #cc0000; stroke: #cc0000; stroke-linecap: round"/>
   </g>
  </g>
  <g id="axes_2">
   <g id="patch_7">
    <path d="M 26.350616 243.680449 
L 429.165354 243.680449 
L 429.165354 134.946558 
L 26.350616 134.946558 
z
" style="fill: #ffffff"/>
   </g>
   <g id="matplotlib.axis_3">
    <g id="xtick_7">
     <g id="line2d_35">
      <path d="M 37.751033 243.680449 
L 37.751033 134.946558 
" clip-path="url(#p8cddb3c1d2)" style="fill: none; stroke: #000000; stroke-opacity: 0.1; stroke-width: 0.5; stroke-linecap: square"/>
     </g>
     <g id="line2d_36">
      <g>
       <use xlink:href="#m0a32bb9542" x="37.751033" y="243.680449" style="stroke: #000000; stroke-width: 0.5"/>
      </g>
     </g>
     <g id="text_12">
      <!-- $0$ -->
      <g transform="translate(34.544363 257.493667)rotate(-10)scale(0.12 -0.12)">
       <use xlink:href="#DejaVuSans-30" transform="translate(0 0.78125)"/>
      </g>
     </g>
    </g>
    <g id="xtick_8">
     <g id="line2d_37">
      <path d="M 113.753814 243.680449 
L 113.753814 134.946558 
" clip-path="url(#p8cddb3c1d2)" style="fill: none; stroke: #000000; stroke-opacity: 0.1; stroke-width: 0.5; stroke-linecap: square"/>
     </g>
     <g id="line2d_38">
      <g>
       <use xlink:href="#m0a32bb9542" x="113.753814" y="243.680449" style="stroke: #000000; stroke-width: 0.5"/>
      </g>
     </g>
     <g id="text_13">
      <!-- $1$ -->
      <g transform="translate(110.547144 257.493667)rotate(-10)scale(0.12 -0.12)">
       <use xlink:href="#DejaVuSans-31" transform="translate(0 0.09375)"/>
      </g>
     </g>
    </g>
    <g id="xtick_9">
     <g id="line2d_39">
      <path d="M 189.756594 243.680449 
L 189.756594 134.946558 
" clip-path="url(#p8cddb3c1d2)" style="fill: none; stroke: #000000; stroke-opacity: 0.1; stroke-width: 0.5; stroke-linecap: square"/>
     </g>
     <g id="line2d_40">
      <g>
       <use xlink:href="#m0a32bb9542" x="189.756594" y="243.680449" style="stroke: #000000; stroke-width: 0.5"/>
      </g>
     </g>
     <g id="text_14">
      <!-- $2$ -->
      <g transform="translate(186.549925 257.493667)rotate(-10)scale(0.12 -0.12)">
       <use xlink:href="#DejaVuSans-32" transform="translate(0 0.78125)"/>
      </g>
     </g>
    </g>
    <g id="xtick_10">
     <g id="line2d_41">
      <path d="M 265.759375 243.680449 
L 265.759375 134.946558 
" clip-path="url(#p8cddb3c1d2)" style="fill: none; stroke: #000000; stroke-opacity: 0.1; stroke-width: 0.5; stroke-linecap: square"/>
     </g>
     <g id="line2d_42">
      <g>
       <use xlink:href="#m0a32bb9542" x="265.759375" y="243.680449" style="stroke: #000000; stroke-width: 0.5"/>
      </g>
     </g>
     <g id="text_15">
      <!-- $3$ -->
      <g transform="translate(262.552706 257.493667)rotate(-10)scale(0.12 -0.12)">
       <use xlink:href="#DejaVuSans-33" transform="translate(0 0.78125)"/>
      </g>
     </g>
    </g>
    <g id="xtick_11">
     <g id="line2d_43">
      <path d="M 341.762156 243.680449 
L 341.762156 134.946558 
" clip-path="url(#p8cddb3c1d2)" style="fill: none; stroke: #000000; stroke-opacity: 0.1; stroke-width: 0.5; stroke-linecap: square"/>
     </g>
     <g id="line2d_44">
      <g>
       <use xlink:href="#m0a32bb9542" x="341.762156" y="243.680449" style="stroke: #000000; stroke-width: 0.5"/>
      </g>
     </g>
     <g id="text_16">
      <!-- $4$ -->
      <g transform="translate(338.555487 257.493667)rotate(-10)scale(0.12 -0.12)">
       <use xlink:href="#DejaVuSans-34" transform="translate(0 0.09375)"/>
      </g>
     </g>
    </g>
    <g id="xtick_12">
     <g id="line2d_45">
      <path d="M 417.764937 243.680449 
L 417.764937 134.946558 
" clip-path="url(#p8cddb3c1d2)" style="fill: none; stroke: #000000; stroke-opacity: 0.1; stroke-width: 0.5; stroke-linecap: square"/>
     </g>
     <g id="line2d_46">
      <g>
       <use xlink:href="#m0a32bb9542" x="417.764937" y="243.680449" style="stroke: #000000; stroke-width: 0.5"/>
      </g>
     </g>
     <g id="text_17">
      <!-- $5$ -->
      <g transform="translate(414.558268 257.493667)rotate(-10)scale(0.12 -0.12)">
       <use xlink:href="#DejaVuSans-35" transform="translate(0 0.09375)"/>
      </g>
     </g>
    </g>
    <g id="text_18">
     <!-- t [s] -->
     <g transform="translate(212.680316 281.511742)rotate(-10)scale(0.16 -0.16)">
      <defs>
       <path id="DejaVuSans-74" d="M 1172 4494 
L 1172 3500 
L 2356 3500 
L 2356 3053 
L 1172 3053 
L 1172 1153 
Q 1172 725 1289 603 
Q 1406 481 1766 481 
L 2356 481 
L 2356 0 
L 1766 0 
Q 1100 0 847 248 
Q 594 497 594 1153 
L 594 3053 
L 172 3053 
L 172 3500 
L 594 3500 
L 594 4494 
L 1172 4494 
z
" transform="scale(0.015625)"/>
       <path id="DejaVuSans-20" transform="scale(0.015625)"/>
       <path id="DejaVuSans-5b" d="M 550 4863 
L 1875 4863 
L 1875 4416 
L 1125 4416 
L 1125 -397 
L 1875 -397 
L 1875 -844 
L 550 -844 
L 550 4863 
z
" transform="scale(0.015625)"/>
       <path id="DejaVuSans-73" d="M 2834 3397 
L 2834 2853 
Q 2591 2978 2328 3040 
Q 2066 3103 1784 3103 
Q 1356 3103 1142 2972 
Q 928 2841 928 2578 
Q 928 2378 1081 2264 
Q 1234 2150 1697 2047 
L 1894 2003 
Q 2506 1872 2764 1633 
Q 3022 1394 3022 966 
Q 3022 478 2636 193 
Q 2250 -91 1575 -91 
Q 1294 -91 989 -36 
Q 684 19 347 128 
L 347 722 
Q 666 556 975 473 
Q 1284 391 1588 391 
Q 1994 391 2212 530 
Q 2431 669 2431 922 
Q 2431 1156 2273 1281 
Q 2116 1406 1581 1522 
L 1381 1569 
Q 847 1681 609 1914 
Q 372 2147 372 2553 
Q 372 3047 722 3315 
Q 1072 3584 1716 3584 
Q 2034 3584 2315 3537 
Q 2597 3491 2834 3397 
z
" transform="scale(0.015625)"/>
       <path id="DejaVuSans-5d" d="M 1947 4863 
L 1947 -844 
L 622 -844 
L 622 -397 
L 1369 -397 
L 1369 4416 
L 622 4416 
L 622 4863 
L 1947 4863 
z
" transform="scale(0.015625)"/>
      </defs>
      <use xlink:href="#DejaVuSans-74"/>
      <use xlink:href="#DejaVuSans-20" x="39.208984"/>
      <use xlink:href="#DejaVuSans-5b" x="70.996094"/>
      <use xlink:href="#DejaVuSans-73" x="110.009766"/>
      <use xlink:href="#DejaVuSans-5d" x="162.109375"/>
     </g>
    </g>
   </g>
   <g id="matplotlib.axis_4">
    <g id="ytick_6">
     <g id="line2d_47">
      <path d="M 26.350616 227.80069 
L 429.165354 227.80069 
" clip-path="url(#p8cddb3c1d2)" style="fill: none; stroke: #000000; stroke-opacity: 0.1; stroke-width: 0.5; stroke-linecap: square"/>
     </g>
     <g id="line2d_48">
      <g>
       <use xlink:href="#macf35a0c19" x="26.350616" y="227.80069" style="stroke: #000000; stroke-width: 0.5"/>
      </g>
     </g>
     <g id="text_19">
      <!-- $-2$ -->
      <g transform="translate(4.927069 235.305219)rotate(-10)scale(0.12 -0.12)">
       <defs>
        <path id="DejaVuSans-2212" d="M 678 2272 
L 4684 2272 
L 4684 1741 
L 678 1741 
L 678 2272 
z
" transform="scale(0.015625)"/>
       </defs>
       <use xlink:href="#DejaVuSans-2212" transform="translate(0 0.78125)"/>
       <use xlink:href="#DejaVuSans-32" transform="translate(83.789062 0.78125)"/>
      </g>
     </g>
    </g>
    <g id="ytick_7">
     <g id="line2d_49">
      <path d="M 26.350616 197.57339 
L 429.165354 197.57339 
" clip-path="url(#p8cddb3c1d2)" style="fill: none; stroke: #000000; stroke-opacity: 0.1; stroke-width: 0.5; stroke-linecap: square"/>
     </g>
     <g id="line2d_50">
      <g>
       <use xlink:href="#macf35a0c19" x="26.350616" y="197.57339" style="stroke: #000000; stroke-width: 0.5"/>
      </g>
     </g>
     <g id="text_20">
      <!-- $-1$ -->
      <g transform="translate(4.927069 205.077919)rotate(-10)scale(0.12 -0.12)">
       <use xlink:href="#DejaVuSans-2212" transform="translate(0 0.09375)"/>
       <use xlink:href="#DejaVuSans-31" transform="translate(83.789062 0.09375)"/>
      </g>
     </g>
    </g>
    <g id="ytick_8">
     <g id="line2d_51">
      <path d="M 26.350616 167.346089 
L 429.165354 167.346089 
" clip-path="url(#p8cddb3c1d2)" style="fill: none; stroke: #000000; stroke-opacity: 0.1; stroke-width: 0.5; stroke-linecap: square"/>
     </g>
     <g id="line2d_52">
      <g>
       <use xlink:href="#macf35a0c19" x="26.350616" y="167.346089" style="stroke: #000000; stroke-width: 0.5"/>
      </g>
     </g>
     <g id="text_21">
      <!-- $0$ -->
      <g transform="translate(14.853931 173.100245)rotate(-10)scale(0.12 -0.12)">
       <use xlink:href="#DejaVuSans-30" transform="translate(0 0.78125)"/>
      </g>
     </g>
    </g>
    <g id="ytick_9">
     <g id="line2d_53">
      <path d="M 26.350616 137.118788 
L 429.165354 137.118788 
" clip-path="url(#p8cddb3c1d2)" style="fill: none; stroke: #000000; stroke-opacity: 0.1; stroke-width: 0.5; stroke-linecap: square"/>
     </g>
     <g id="line2d_54">
      <g>
       <use xlink:href="#macf35a0c19" x="26.350616" y="137.118788" style="stroke: #000000; stroke-width: 0.5"/>
      </g>
     </g>
     <g id="text_22">
      <!-- $1$ -->
      <g transform="translate(14.853931 142.872944)rotate(-10)scale(0.12 -0.12)">
       <use xlink:href="#DejaVuSans-31" transform="translate(0 0.09375)"/>
      </g>
     </g>
    </g>
   </g>
   <g id="line2d_55">
    <path d="M 417.764937 167.46539 
L 417.756817 167.466337 
L 417.675613 167.475805 
L 417.493609 167.497059 
L 417.221176 167.528954 
L 416.794775 167.579072 
L 416.251513 167.643277 
L 415.525383 167.729713 
L 414.655458 167.834209 
L 413.575379 167.965399 
L 412.313395 168.120749 
L 410.80658 168.309216 
L 409.069652 168.530577 
L 407.043479 168.794524 
L 404.728648 169.103859 
L 402.066917 169.470189 
L 399.044223 169.900567 
L 395.601441 170.410224 
L 391.714058 171.011852 
L 387.328079 171.725713 
L 382.422534 172.570593 
L 376.962924 173.571695 
L 370.946481 174.752762 
L 364.373017 176.140166 
L 357.292033 177.750164 
L 349.794338 179.583282 
L 342.038989 181.607414 
L 341.762156 181.681723 
" clip-path="url(#p8cddb3c1d2)" style="fill: none; stroke: #00008b"/>
   </g>
   <g id="line2d_56">
    <path d="M 417.764937 181.419232 
L 417.756817 181.423802 
L 417.675613 181.469504 
L 417.493609 181.571948 
L 417.221176 181.72531 
L 416.794775 181.965339 
L 416.251513 182.271015 
L 415.525383 182.679042 
L 414.655458 183.166465 
L 413.575379 183.768387 
L 412.313395 184.465199 
L 410.80658 185.284774 
L 409.069652 186.207544 
L 407.043479 187.246117 
L 404.728648 188.370686 
L 402.066917 189.564681 
L 399.044223 190.768395 
L 395.601441 191.911983 
L 391.714058 192.877537 
L 387.328079 193.519298 
L 382.422534 193.656545 
L 376.962924 193.10498 
L 370.946481 191.714197 
L 364.373017 189.414836 
L 357.292033 186.273834 
L 349.794338 182.509466 
L 342.038989 178.466271 
L 341.762156 178.323259 
" clip-path="url(#p8cddb3c1d2)" style="fill: none; stroke: #cc0000"/>
   </g>
   <g id="patch_8">
    <path d="M 26.350616 243.680449 
L 26.350616 134.946558 
" style="fill: none; stroke: #000000; stroke-linejoin: miter; stroke-linecap: square"/>
   </g>
   <g id="patch_9">
    <path d="M 26.350616 243.680449 
L 429.165354 243.680449 
" style="fill: none; stroke: #000000; stroke-linejoin: miter; stroke-linecap: square"/>
   </g>
   <g id="line2d_57">
    <path d="M 342.038989 181.607414 
L 341.762156 181.681723 
" clip-path="url(#p8cddb3c1d2)" style="fill: none; stroke: #00008b"/>
   </g>
   <g id="line2d_58">
    <path d="M 342.038989 178.466271 
L 341.762156 178.323259 
" clip-path="url(#p8cddb3c1d2)" style="fill: none; stroke: #cc0000"/>
   </g>
   <g id="line2d_59">
    <path d="M 341.762156 181.055001 
L 341.574039 181.1048 
L 339.810208 181.574758 
L 338.046377 182.049863 
L 334.605665 182.98989 
L 331.164953 183.943769 
L 326.37098 185.28686 
L 321.577007 186.630533 
L 316.339383 188.07425 
L 311.101758 189.458529 
L 306.805466 190.519682 
L 300.160492 191.959651 
L 293.515518 193.044907 
L 285.310478 193.683537 
L 276.962313 193.264902 
L 267.81437 191.261553 
L 265.759375 190.57459 
" clip-path="url(#p8cddb3c1d2)" style="fill: none; stroke: #00008b"/>
   </g>
   <g id="line2d_60">
    <path d="M 341.762156 179.641588 
L 341.574039 179.543749 
L 339.810208 178.629777 
L 338.046377 177.724059 
L 334.605665 175.989479 
L 331.164953 174.311707 
L 326.37098 172.091305 
L 321.577007 170.031599 
L 316.339383 167.98295 
L 311.101758 166.154558 
L 306.805466 164.820315 
L 300.160492 163.037911 
L 293.515518 161.579761 
L 285.310478 160.179654 
L 276.962313 159.149988 
L 267.81437 158.402361 
L 265.759375 158.282708 
" clip-path="url(#p8cddb3c1d2)" style="fill: none; stroke: #cc0000"/>
   </g>
   <g id="line2d_61">
    <path d="M 267.81437 191.261553 
L 265.759375 190.57459 
" clip-path="url(#p8cddb3c1d2)" style="fill: none; stroke: #00008b"/>
   </g>
   <g id="line2d_62">
    <path d="M 267.81437 158.402361 
L 265.759375 158.282708 
" clip-path="url(#p8cddb3c1d2)" style="fill: none; stroke: #cc0000"/>
   </g>
   <g id="line2d_63">
    <path d="M 265.759375 192.973362 
L 265.661913 192.919476 
L 264.687295 192.368902 
L 263.457414 191.644263 
L 261.358946 190.333184 
L 259.13463 188.846789 
L 256.550747 187.006412 
L 253.311818 184.55184 
L 249.221975 181.278684 
L 244.970836 177.774379 
L 240.443552 174.070914 
L 235.916269 170.55716 
L 231.388985 167.385496 
L 227.816528 165.207903 
L 223.616341 163.073379 
L 219.397831 161.422052 
L 215.028531 160.224047 
L 210.659232 159.503091 
L 206.264353 159.190081 
L 201.869475 159.21195 
L 197.474596 159.493857 
L 194.110593 159.84277 
L 190.74659 160.284155 
L 189.756594 160.427712 
" clip-path="url(#p8cddb3c1d2)" style="fill: none; stroke: #00008b"/>
   </g>
   <g id="line2d_64">
    <path d="M 265.759375 150.991426 
L 265.661913 151.002076 
L 264.687295 151.109195 
L 263.457414 151.245957 
L 261.358946 151.483231 
L 259.13463 151.740086 
L 256.550747 152.04523 
L 253.311818 152.437952 
L 249.221975 152.950655 
L 244.970836 153.506765 
L 240.443552 154.129911 
L 235.916269 154.794231 
L 231.388985 155.512445 
L 227.816528 156.131918 
L 223.616341 156.930801 
L 219.397831 157.836747 
L 215.028531 158.919391 
L 210.659232 160.197038 
L 206.264353 161.739788 
L 201.869475 163.615198 
L 197.474596 165.908084 
L 194.110593 168.003112 
L 190.74659 170.433918 
L 189.756594 171.218607 
" clip-path="url(#p8cddb3c1d2)" style="fill: none; stroke: #cc0000"/>
   </g>
   <g id="line2d_65">
    <path d="M 190.74659 160.284155 
L 189.756594 160.427712 
" clip-path="url(#p8cddb3c1d2)" style="fill: none; stroke: #00008b"/>
   </g>
   <g id="line2d_66">
    <path d="M 190.74659 170.433918 
L 189.756594 171.218607 
" clip-path="url(#p8cddb3c1d2)" style="fill: none; stroke: #cc0000"/>
   </g>
   <g id="line2d_67">
    <path d="M 189.756594 162.693763 
L 189.695599 162.711705 
L 189.085648 162.891739 
L 188.394711 163.096928 
L 187.082242 163.490368 
L 185.719835 163.903355 
L 183.756374 164.506726 
L 181.792913 165.118788 
L 179.436776 165.864912 
L 177.080638 166.623268 
L 174.712031 167.398334 
L 172.343424 168.186716 
L 169.847578 169.032836 
L 167.001569 170.018462 
L 164.155561 171.027493 
L 161.309552 172.061782 
L 157.465149 173.503264 
L 153.348257 175.107258 
L 148.085041 177.258217 
L 142.277773 179.774305 
L 135.67602 182.835071 
L 128.91695 186.210353 
L 121.702835 190.10378 
L 114.481061 194.318985 
L 113.753814 194.761361 
" clip-path="url(#p8cddb3c1d2)" style="fill: none; stroke: #00008b"/>
   </g>
   <g id="line2d_68">
    <path d="M 189.756594 177.295668 
L 189.695599 177.351046 
L 189.085648 177.910437 
L 188.394711 178.556481 
L 187.082242 179.819895 
L 185.719835 181.181534 
L 183.756374 183.232458 
L 181.792913 185.384928 
L 179.436776 188.093979 
L 177.080638 190.927385 
L 174.712031 193.8824 
L 172.343424 196.920784 
L 169.847578 200.181763 
L 167.001569 203.927424 
L 164.155561 207.642578 
L 161.309552 211.261071 
L 157.465149 215.874572 
L 153.348257 220.292666 
L 148.085041 224.8635 
L 142.277773 228.158563 
L 135.67602 229.364052 
L 128.91695 227.727968 
L 121.702835 223.04244 
L 114.481061 215.898309 
L 113.753814 215.074983 
" clip-path="url(#p8cddb3c1d2)" style="fill: none; stroke: #cc0000"/>
   </g>
   <g id="line2d_69">
    <path d="M 114.481061 194.318985 
L 113.753814 194.761361 
" clip-path="url(#p8cddb3c1d2)" style="fill: none; stroke: #00008b"/>
   </g>
   <g id="line2d_70">
    <path d="M 114.481061 215.898309 
L 113.753814 215.074983 
" clip-path="url(#p8cddb3c1d2)" style="fill: none; stroke: #cc0000"/>
   </g>
   <g id="line2d_71">
    <path d="M 113.753814 195.583925 
L 113.587139 195.679946 
L 112.085138 196.552268 
L 110.583138 197.437195 
L 107.682894 199.181444 
L 104.78265 200.971769 
L 100.865258 203.461192 
L 96.947865 206.028095 
L 93.030473 208.665968 
L 89.085707 211.384911 
L 84.431486 214.657281 
L 80.819781 217.228463 
L 75.800601 220.817235 
L 70.774624 224.380021 
L 64.658658 228.576816 
L 58.342731 232.596127 
L 51.0311 236.570515 
L 43.290245 239.548947 
L 37.751033 240.603075 
" clip-path="url(#p8cddb3c1d2)" style="fill: none; stroke: #00008b"/>
   </g>
   <g id="line2d_72">
    <path d="M 113.753814 200.960741 
L 113.587139 200.771986 
L 112.085138 199.04613 
L 110.583138 197.280618 
L 107.682894 193.781567 
L 104.78265 190.203476 
L 100.865258 185.317124 
L 96.947865 180.457737 
L 93.030473 175.707058 
L 89.085707 171.10192 
L 84.431486 165.971672 
L 80.819781 162.261131 
L 75.800601 157.532122 
L 70.774624 153.327694 
L 64.658658 148.934256 
L 58.342731 145.210854 
L 51.0311 141.856526 
L 43.290245 139.302208 
L 37.751033 138.023932 
" clip-path="url(#p8cddb3c1d2)" style="fill: none; stroke: #cc0000"/>
   </g>
   <g id="line2d_73">
    <path d="M 43.290245 239.548947 
L 37.751033 240.603075 
" clip-path="url(#p8cddb3c1d2)" style="fill: none; stroke: #00008b"/>
   </g>
   <g id="line2d_74">
    <path d="M 43.290245 139.302208 
L 37.751033 138.023932 
" clip-path="url(#p8cddb3c1d2)" style="fill: none; stroke: #cc0000"/>
   </g>
   <g id="patch_10">
    <path d="M 348.334762 183.023683 
Q 345.048459 182.352703 341.762156 181.681723 
Q 344.270722 179.455269 346.779288 177.228815 
z
" style="fill: #00008b; stroke: #00008b; stroke-linecap: round"/>
   </g>
   <g id="patch_11">
    <path d="M 345.715946 183.742443 
Q 343.739051 181.032851 341.762156 178.323259 
Q 345.115966 178.367498 348.469777 178.411738 
z
" style="fill: #cc0000; stroke: #cc0000; stroke-linecap: round"/>
   </g>
   <g id="patch_12">
    <path d="M 270.498709 195.322085 
Q 268.129042 192.948338 265.759375 190.57459 
Q 269.080174 190.103105 272.400972 189.63162 
z
" style="fill: #00008b; stroke: #00008b; stroke-linecap: round"/>
   </g>
   <g id="patch_13">
    <path d="M 271.574851 161.626396 
Q 268.667113 159.954552 265.759375 158.282708 
Q 268.841493 156.959625 271.923611 155.636541 
z
" style="fill: #cc0000; stroke: #cc0000; stroke-linecap: round"/>
   </g>
   <g id="patch_14">
    <path d="M 196.125011 162.53562 
Q 192.940803 161.481666 189.756594 160.427712 
Q 192.510283 158.512718 195.263971 156.597724 
z
" style="fill: #00008b; stroke: #00008b; stroke-linecap: round"/>
   </g>
   <g id="patch_15">
    <path d="M 196.322175 169.842687 
Q 193.039385 170.530647 189.756594 171.218607 
Q 191.1759 168.179599 192.595206 165.140591 
z
" style="fill: #cc0000; stroke: #cc0000; stroke-linecap: round"/>
   </g>
   <g id="patch_16">
    <path d="M 120.439011 194.206262 
Q 117.096412 194.483811 113.753814 194.761361 
Q 115.537333 191.920752 117.320853 189.080143 
z
" style="fill: #00008b; stroke: #00008b; stroke-linecap: round"/>
   </g>
   <g id="patch_17">
    <path d="M 115.477494 221.557955 
Q 114.615654 218.316469 113.753814 215.074983 
Q 116.864107 216.330403 119.9744 217.585822 
z
" style="fill: #cc0000; stroke: #cc0000; stroke-linecap: round"/>
   </g>
   <g id="patch_18">
    <path d="M 44.206095 242.428498 
Q 40.978564 241.515786 37.751033 240.603075 
Q 40.417721 238.568677 43.084409 236.534278 
z
" style="fill: #00008b; stroke: #00008b; stroke-linecap: round"/>
   </g>
   <g id="patch_19">
    <path d="M 42.922804 142.296259 
Q 40.336918 140.160096 37.751033 138.023932 
Q 41.011495 137.236922 44.271957 136.449911 
z
" style="fill: #cc0000; stroke: #cc0000; stroke-linecap: round"/>
   </g>
  </g>
 </g>
 <defs>
  <clipPath id="p042a9b4dd4">
   <rect x="26.350616" y="2.834646" width="402.814739" height="108.733891"/>
  </clipPath>
  <clipPath id="p8cddb3c1d2">
   <rect x="26.350616" y="134.946558" width="402.814739" height="108.733891"/>
  </clipPath>
 </defs>
</svg>
