<?xml version="1.0" encoding="utf-8" standalone="no"?>
<!DOCTYPE svg PUBLIC "-//W3C//DTD SVG 1.1//EN"
  "http://www.w3.org/Graphics/SVG/1.1/DTD/svg11.dtd">
<svg xmlns:xlink="http://www.w3.org/1999/xlink" width="432pt" height="252pt" viewBox="0 0 432 252" xmlns="http://www.w3.org/2000/svg" version="1.1">
 <metadata>
  <rdf:RDF xmlns:dc="http://purl.org/dc/elements/1.1/" xmlns:cc="http://creativecommons.org/ns#" xmlns:rdf="http://www.w3.org/1999/02/22-rdf-syntax-ns#">
   <cc:Work>
    <dc:type rdf:resource="http://purl.org/dc/dcmitype/StillImage"/>
    <dc:date>2021-11-24T21:32:51.402910</dc:date>
    <dc:format>image/svg+xml</dc:format>
    <dc:creator>
     <cc:Agent>
      <dc:title>Matplotlib v3.5.0, https://matplotlib.org/</dc:title>
     </cc:Agent>
    </dc:creator>
   </cc:Work>
  </rdf:RDF>
 </metadata>
 <defs>
  <style type="text/css">*{stroke-linejoin: round; stroke-linecap: butt}</style>
 </defs>
 <g id="figure_1">
  <g id="patch_1">
   <path d="M 0 252 
L 432 252 
L 432 0 
L 0 0 
z
" style="fill: #ffffff"/>
  </g>
  <g id="axes_1">
   <g id="patch_2">
    <path d="M 14.659646 232.705354 
L 429.165354 232.705354 
L 429.165354 4.981602 
L 14.659646 4.981602 
z
" style="fill: #ffffff"/>
   </g>
   <g id="matplotlib.axis_1">
    <g id="xtick_1">
     <g id="line2d_1">
      <path d="M 26.390939 232.705354 
L 26.390939 4.981602 
" clip-path="url(#p39f7fb3ef2)" style="fill: none; stroke: #000000; stroke-opacity: 0.1; stroke-width: 0.5; stroke-linecap: square"/>
     </g>
     <g id="line2d_2">
      <defs>
       <path id="mdb66778607" d="M 0 0 
L 0 -2.5 
" style="stroke: #000000; stroke-width: 0.5"/>
      </defs>
      <g>
       <use xlink:href="#mdb66778607" x="26.390939" y="232.705354" style="stroke: #000000; stroke-width: 0.5"/>
      </g>
     </g>
     <g id="line2d_3">
      <defs>
       <path id="m432d89f902" d="M 0 0 
L 0 2.5 
" style="stroke: #000000; stroke-width: 0.5"/>
      </defs>
      <g>
       <use xlink:href="#m432d89f902" x="26.390939" y="4.981602" style="stroke: #000000; stroke-width: 0.5"/>
      </g>
     </g>
     <g id="text_1">
      <!-- $0$ -->
      <g transform="translate(22.550939 245.323479)scale(0.12 -0.12)">
       <defs>
        <path id="DejaVuSans-30" d="M 2034 4250 
Q 1547 4250 1301 3770 
Q 1056 3291 1056 2328 
Q 1056 1369 1301 889 
Q 1547 409 2034 409 
Q 2525 409 2770 889 
Q 3016 1369 3016 2328 
Q 3016 3291 2770 3770 
Q 2525 4250 2034 4250 
z
M 2034 4750 
Q 2819 4750 3233 4129 
Q 3647 3509 3647 2328 
Q 3647 1150 3233 529 
Q 2819 -91 2034 -91 
Q 1250 -91 836 529 
Q 422 1150 422 2328 
Q 422 3509 836 4129 
Q 1250 4750 2034 4750 
z
" transform="scale(0.015625)"/>
       </defs>
       <use xlink:href="#DejaVuSans-30" transform="translate(0 0.78125)"/>
      </g>
     </g>
    </g>
    <g id="xtick_2">
     <g id="line2d_4">
      <path d="M 104.599564 232.705354 
L 104.599564 4.981602 
" clip-path="url(#p39f7fb3ef2)" style="fill: none; stroke: #000000; stroke-opacity: 0.1; stroke-width: 0.5; stroke-linecap: square"/>
     </g>
     <g id="line2d_5">
      <g>
       <use xlink:href="#mdb66778607" x="104.599564" y="232.705354" style="stroke: #000000; stroke-width: 0.5"/>
      </g>
     </g>
     <g id="line2d_6">
      <g>
       <use xlink:href="#m432d89f902" x="104.599564" y="4.981602" style="stroke: #000000; stroke-width: 0.5"/>
      </g>
     </g>
     <g id="text_2">
      <!-- $1$ -->
      <g transform="translate(100.759564 245.323479)scale(0.12 -0.12)">
       <defs>
        <path id="DejaVuSans-31" d="M 794 531 
L 1825 531 
L 1825 4091 
L 703 3866 
L 703 4441 
L 1819 4666 
L 2450 4666 
L 2450 531 
L 3481 531 
L 3481 0 
L 794 0 
L 794 531 
z
" transform="scale(0.015625)"/>
       </defs>
       <use xlink:href="#DejaVuSans-31" transform="translate(0 0.09375)"/>
      </g>
     </g>
    </g>
    <g id="xtick_3">
     <g id="line2d_7">
      <path d="M 182.808188 232.705354 
L 182.808188 4.981602 
" clip-path="url(#p39f7fb3ef2)" style="fill: none; stroke: #000000; stroke-opacity: 0.1; stroke-width: 0.5; stroke-linecap: square"/>
     </g>
     <g id="line2d_8">
      <g>
       <use xlink:href="#mdb66778607" x="182.808188" y="232.705354" style="stroke: #000000; stroke-width: 0.5"/>
      </g>
     </g>
     <g id="line2d_9">
      <g>
       <use xlink:href="#m432d89f902" x="182.808188" y="4.981602" style="stroke: #000000; stroke-width: 0.5"/>
      </g>
     </g>
     <g id="text_3">
      <!-- $2$ -->
      <g transform="translate(178.968188 245.323479)scale(0.12 -0.12)">
       <defs>
        <path id="DejaVuSans-32" d="M 1228 531 
L 3431 531 
L 3431 0 
L 469 0 
L 469 531 
Q 828 903 1448 1529 
Q 2069 2156 2228 2338 
Q 2531 2678 2651 2914 
Q 2772 3150 2772 3378 
Q 2772 3750 2511 3984 
Q 2250 4219 1831 4219 
Q 1534 4219 1204 4116 
Q 875 4013 500 3803 
L 500 4441 
Q 881 4594 1212 4672 
Q 1544 4750 1819 4750 
Q 2544 4750 2975 4387 
Q 3406 4025 3406 3419 
Q 3406 3131 3298 2873 
Q 3191 2616 2906 2266 
Q 2828 2175 2409 1742 
Q 1991 1309 1228 531 
z
" transform="scale(0.015625)"/>
       </defs>
       <use xlink:href="#DejaVuSans-32" transform="translate(0 0.78125)"/>
      </g>
     </g>
    </g>
    <g id="xtick_4">
     <g id="line2d_10">
      <path d="M 261.016812 232.705354 
L 261.016812 4.981602 
" clip-path="url(#p39f7fb3ef2)" style="fill: none; stroke: #000000; stroke-opacity: 0.1; stroke-width: 0.5; stroke-linecap: square"/>
     </g>
     <g id="line2d_11">
      <g>
       <use xlink:href="#mdb66778607" x="261.016812" y="232.705354" style="stroke: #000000; stroke-width: 0.5"/>
      </g>
     </g>
     <g id="line2d_12">
      <g>
       <use xlink:href="#m432d89f902" x="261.016812" y="4.981602" style="stroke: #000000; stroke-width: 0.5"/>
      </g>
     </g>
     <g id="text_4">
      <!-- $3$ -->
      <g transform="translate(257.176812 245.323479)scale(0.12 -0.12)">
       <defs>
        <path id="DejaVuSans-33" d="M 2597 2516 
Q 3050 2419 3304 2112 
Q 3559 1806 3559 1356 
Q 3559 666 3084 287 
Q 2609 -91 1734 -91 
Q 1441 -91 1130 -33 
Q 819 25 488 141 
L 488 750 
Q 750 597 1062 519 
Q 1375 441 1716 441 
Q 2309 441 2620 675 
Q 2931 909 2931 1356 
Q 2931 1769 2642 2001 
Q 2353 2234 1838 2234 
L 1294 2234 
L 1294 2753 
L 1863 2753 
Q 2328 2753 2575 2939 
Q 2822 3125 2822 3475 
Q 2822 3834 2567 4026 
Q 2313 4219 1838 4219 
Q 1578 4219 1281 4162 
Q 984 4106 628 3988 
L 628 4550 
Q 988 4650 1302 4700 
Q 1616 4750 1894 4750 
Q 2613 4750 3031 4423 
Q 3450 4097 3450 3541 
Q 3450 3153 3228 2886 
Q 3006 2619 2597 2516 
z
" transform="scale(0.015625)"/>
       </defs>
       <use xlink:href="#DejaVuSans-33" transform="translate(0 0.78125)"/>
      </g>
     </g>
    </g>
    <g id="xtick_5">
     <g id="line2d_13">
      <path d="M 339.225436 232.705354 
L 339.225436 4.981602 
" clip-path="url(#p39f7fb3ef2)" style="fill: none; stroke: #000000; stroke-opacity: 0.1; stroke-width: 0.5; stroke-linecap: square"/>
     </g>
     <g id="line2d_14">
      <g>
       <use xlink:href="#mdb66778607" x="339.225436" y="232.705354" style="stroke: #000000; stroke-width: 0.5"/>
      </g>
     </g>
     <g id="line2d_15">
      <g>
       <use xlink:href="#m432d89f902" x="339.225436" y="4.981602" style="stroke: #000000; stroke-width: 0.5"/>
      </g>
     </g>
     <g id="text_5">
      <!-- $4$ -->
      <g transform="translate(335.385436 245.323479)scale(0.12 -0.12)">
       <defs>
        <path id="DejaVuSans-34" d="M 2419 4116 
L 825 1625 
L 2419 1625 
L 2419 4116 
z
M 2253 4666 
L 3047 4666 
L 3047 1625 
L 3713 1625 
L 3713 1100 
L 3047 1100 
L 3047 0 
L 2419 0 
L 2419 1100 
L 313 1100 
L 313 1709 
L 2253 4666 
z
" transform="scale(0.015625)"/>
       </defs>
       <use xlink:href="#DejaVuSans-34" transform="translate(0 0.09375)"/>
      </g>
     </g>
    </g>
    <g id="xtick_6">
     <g id="line2d_16">
      <path d="M 417.434061 232.705354 
L 417.434061 4.981602 
" clip-path="url(#p39f7fb3ef2)" style="fill: none; stroke: #000000; stroke-opacity: 0.1; stroke-width: 0.5; stroke-linecap: square"/>
     </g>
     <g id="line2d_17">
      <g>
       <use xlink:href="#mdb66778607" x="417.434061" y="232.705354" style="stroke: #000000; stroke-width: 0.5"/>
      </g>
     </g>
     <g id="line2d_18">
      <g>
       <use xlink:href="#m432d89f902" x="417.434061" y="4.981602" style="stroke: #000000; stroke-width: 0.5"/>
      </g>
     </g>
     <g id="text_6">
      <!-- $5$ -->
      <g transform="translate(413.594061 245.323479)scale(0.12 -0.12)">
       <defs>
        <path id="DejaVuSans-35" d="M 691 4666 
L 3169 4666 
L 3169 4134 
L 1269 4134 
L 1269 2991 
Q 1406 3038 1543 3061 
Q 1681 3084 1819 3084 
Q 2600 3084 3056 2656 
Q 3513 2228 3513 1497 
Q 3513 744 3044 326 
Q 2575 -91 1722 -91 
Q 1428 -91 1123 -41 
Q 819 9 494 109 
L 494 744 
Q 775 591 1075 516 
Q 1375 441 1709 441 
Q 2250 441 2565 725 
Q 2881 1009 2881 1497 
Q 2881 1984 2565 2268 
Q 2250 2553 1709 2553 
Q 1456 2553 1204 2497 
Q 953 2441 691 2322 
L 691 4666 
z
" transform="scale(0.015625)"/>
       </defs>
       <use xlink:href="#DejaVuSans-35" transform="translate(0 0.09375)"/>
      </g>
     </g>
    </g>
   </g>
   <g id="matplotlib.axis_2">
    <g id="ytick_1">
     <g id="line2d_19">
      <path d="M 14.659646 201.856555 
L 429.165354 201.856555 
" clip-path="url(#p39f7fb3ef2)" style="fill: none; stroke: #000000; stroke-opacity: 0.1; stroke-width: 0.5; stroke-linecap: square"/>
     </g>
     <g id="line2d_20">
      <defs>
       <path id="m2176109748" d="M 0 0 
L 2.5 0 
" style="stroke: #000000; stroke-width: 0.5"/>
      </defs>
      <g>
       <use xlink:href="#m2176109748" x="14.659646" y="201.856555" style="stroke: #000000; stroke-width: 0.5"/>
      </g>
     </g>
     <g id="line2d_21">
      <defs>
       <path id="m5911a622c4" d="M 0 0 
L -2.5 0 
" style="stroke: #000000; stroke-width: 0.5"/>
      </defs>
      <g>
       <use xlink:href="#m5911a622c4" x="429.165354" y="201.856555" style="stroke: #000000; stroke-width: 0.5"/>
      </g>
     </g>
     <g id="text_7">
      <!-- $1$ -->
      <g transform="translate(3.479646 206.415618)scale(0.12 -0.12)">
       <use xlink:href="#DejaVuSans-31" transform="translate(0 0.09375)"/>
      </g>
     </g>
    </g>
    <g id="ytick_2">
     <g id="line2d_22">
      <path d="M 14.659646 169.479787 
L 429.165354 169.479787 
" clip-path="url(#p39f7fb3ef2)" style="fill: none; stroke: #000000; stroke-opacity: 0.1; stroke-width: 0.5; stroke-linecap: square"/>
     </g>
     <g id="line2d_23">
      <g>
       <use xlink:href="#m2176109748" x="14.659646" y="169.479787" style="stroke: #000000; stroke-width: 0.5"/>
      </g>
     </g>
     <g id="line2d_24">
      <g>
       <use xlink:href="#m5911a622c4" x="429.165354" y="169.479787" style="stroke: #000000; stroke-width: 0.5"/>
      </g>
     </g>
     <g id="text_8">
      <!-- $2$ -->
      <g transform="translate(3.479646 174.038849)scale(0.12 -0.12)">
       <use xlink:href="#DejaVuSans-32" transform="translate(0 0.78125)"/>
      </g>
     </g>
    </g>
    <g id="ytick_3">
     <g id="line2d_25">
      <path d="M 14.659646 137.103019 
L 429.165354 137.103019 
" clip-path="url(#p39f7fb3ef2)" style="fill: none; stroke: #000000; stroke-opacity: 0.1; stroke-width: 0.5; stroke-linecap: square"/>
     </g>
     <g id="line2d_26">
      <g>
       <use xlink:href="#m2176109748" x="14.659646" y="137.103019" style="stroke: #000000; stroke-width: 0.5"/>
      </g>
     </g>
     <g id="line2d_27">
      <g>
       <use xlink:href="#m5911a622c4" x="429.165354" y="137.103019" style="stroke: #000000; stroke-width: 0.5"/>
      </g>
     </g>
     <g id="text_9">
      <!-- $3$ -->
      <g transform="translate(3.479646 141.662081)scale(0.12 -0.12)">
       <use xlink:href="#DejaVuSans-33" transform="translate(0 0.78125)"/>
      </g>
     </g>
    </g>
    <g id="ytick_4">
     <g id="line2d_28">
      <path d="M 14.659646 104.726251 
L 429.165354 104.726251 
" clip-path="url(#p39f7fb3ef2)" style="fill: none; stroke: #000000; stroke-opacity: 0.1; stroke-width: 0.5; stroke-linecap: square"/>
     </g>
     <g id="line2d_29">
      <g>
       <use xlink:href="#m2176109748" x="14.659646" y="104.726251" style="stroke: #000000; stroke-width: 0.5"/>
      </g>
     </g>
     <g id="line2d_30">
      <g>
       <use xlink:href="#m5911a622c4" x="429.165354" y="104.726251" style="stroke: #000000; stroke-width: 0.5"/>
      </g>
     </g>
     <g id="text_10">
      <!-- $4$ -->
      <g transform="translate(3.479646 109.285313)scale(0.12 -0.12)">
       <use xlink:href="#DejaVuSans-34" transform="translate(0 0.09375)"/>
      </g>
     </g>
    </g>
    <g id="ytick_5">
     <g id="line2d_31">
      <path d="M 14.659646 72.349483 
L 429.165354 72.349483 
" clip-path="url(#p39f7fb3ef2)" style="fill: none; stroke: #000000; stroke-opacity: 0.1; stroke-width: 0.5; stroke-linecap: square"/>
     </g>
     <g id="line2d_32">
      <g>
       <use xlink:href="#m2176109748" x="14.659646" y="72.349483" style="stroke: #000000; stroke-width: 0.5"/>
      </g>
     </g>
     <g id="line2d_33">
      <g>
       <use xlink:href="#m5911a622c4" x="429.165354" y="72.349483" style="stroke: #000000; stroke-width: 0.5"/>
      </g>
     </g>
     <g id="text_11">
      <!-- $5$ -->
      <g transform="translate(3.479646 76.908545)scale(0.12 -0.12)">
       <use xlink:href="#DejaVuSans-35" transform="translate(0 0.09375)"/>
      </g>
     </g>
    </g>
    <g id="ytick_6">
     <g id="line2d_34">
      <path d="M 14.659646 39.972714 
L 429.165354 39.972714 
" clip-path="url(#p39f7fb3ef2)" style="fill: none; stroke: #000000; stroke-opacity: 0.1; stroke-width: 0.5; stroke-linecap: square"/>
     </g>
     <g id="line2d_35">
      <g>
       <use xlink:href="#m2176109748" x="14.659646" y="39.972714" style="stroke: #000000; stroke-width: 0.5"/>
      </g>
     </g>
     <g id="line2d_36">
      <g>
       <use xlink:href="#m5911a622c4" x="429.165354" y="39.972714" style="stroke: #000000; stroke-width: 0.5"/>
      </g>
     </g>
     <g id="text_12">
      <!-- $6$ -->
      <g transform="translate(3.479646 44.531777)scale(0.12 -0.12)">
       <defs>
        <path id="DejaVuSans-36" d="M 2113 2584 
Q 1688 2584 1439 2293 
Q 1191 2003 1191 1497 
Q 1191 994 1439 701 
Q 1688 409 2113 409 
Q 2538 409 2786 701 
Q 3034 994 3034 1497 
Q 3034 2003 2786 2293 
Q 2538 2584 2113 2584 
z
M 3366 4563 
L 3366 3988 
Q 3128 4100 2886 4159 
Q 2644 4219 2406 4219 
Q 1781 4219 1451 3797 
Q 1122 3375 1075 2522 
Q 1259 2794 1537 2939 
Q 1816 3084 2150 3084 
Q 2853 3084 3261 2657 
Q 3669 2231 3669 1497 
Q 3669 778 3244 343 
Q 2819 -91 2113 -91 
Q 1303 -91 875 529 
Q 447 1150 447 2328 
Q 447 3434 972 4092 
Q 1497 4750 2381 4750 
Q 2619 4750 2861 4703 
Q 3103 4656 3366 4563 
z
" transform="scale(0.015625)"/>
       </defs>
       <use xlink:href="#DejaVuSans-36" transform="translate(0 0.78125)"/>
      </g>
     </g>
    </g>
    <g id="ytick_7">
     <g id="line2d_37">
      <path d="M 14.659646 7.595946 
L 429.165354 7.595946 
" clip-path="url(#p39f7fb3ef2)" style="fill: none; stroke: #000000; stroke-opacity: 0.1; stroke-width: 0.5; stroke-linecap: square"/>
     </g>
     <g id="line2d_38">
      <g>
       <use xlink:href="#m2176109748" x="14.659646" y="7.595946" style="stroke: #000000; stroke-width: 0.5"/>
      </g>
     </g>
     <g id="line2d_39">
      <g>
       <use xlink:href="#m5911a622c4" x="429.165354" y="7.595946" style="stroke: #000000; stroke-width: 0.5"/>
      </g>
     </g>
     <g id="text_13">
      <!-- $7$ -->
      <g transform="translate(3.479646 12.155009)scale(0.12 -0.12)">
       <defs>
        <path id="DejaVuSans-37" d="M 525 4666 
L 3525 4666 
L 3525 4397 
L 1831 0 
L 1172 0 
L 2766 4134 
L 525 4134 
L 525 4666 
z
" transform="scale(0.015625)"/>
       </defs>
       <use xlink:href="#DejaVuSans-37" transform="translate(0 0.09375)"/>
      </g>
     </g>
    </g>
   </g>
   <g id="PathCollection_1">
    <defs>
     <path id="mf87b4e7de3" d="M 0 2 
C 0.530406 2 1.03916 1.789267 1.414214 1.414214 
C 1.789267 1.03916 2 0.530406 2 0 
C 2 -0.530406 1.789267 -1.03916 1.414214 -1.414214 
C 1.03916 -1.789267 0.530406 -2 0 -2 
C -0.530406 -2 -1.03916 -1.789267 -1.414214 -1.414214 
C -1.789267 -1.03916 -2 -0.530406 -2 0 
C -2 0.530406 -1.789267 1.03916 -1.414214 1.414214 
C -1.03916 1.789267 -0.530406 2 0 2 
z
"/>
    </defs>
    <g clip-path="url(#p39f7fb3ef2)">
     <use xlink:href="#mf87b4e7de3" x="26.390939" y="201.869408" style="fill: #00008b"/>
     <use xlink:href="#mf87b4e7de3" x="34.211802" y="199.981788" style="fill: #00008b"/>
     <use xlink:href="#mf87b4e7de3" x="42.032664" y="197.276453" style="fill: #00008b"/>
     <use xlink:href="#mf87b4e7de3" x="49.853527" y="193.774357" style="fill: #00008b"/>
     <use xlink:href="#mf87b4e7de3" x="57.674389" y="189.745439" style="fill: #00008b"/>
     <use xlink:href="#mf87b4e7de3" x="65.495251" y="184.780176" style="fill: #00008b"/>
     <use xlink:href="#mf87b4e7de3" x="73.316114" y="178.734204" style="fill: #00008b"/>
     <use xlink:href="#mf87b4e7de3" x="81.136976" y="172.068954" style="fill: #00008b"/>
     <use xlink:href="#mf87b4e7de3" x="88.957839" y="164.163092" style="fill: #00008b"/>
     <use xlink:href="#mf87b4e7de3" x="96.778701" y="154.983648" style="fill: #00008b"/>
     <use xlink:href="#mf87b4e7de3" x="104.599564" y="144.437353" style="fill: #00008b"/>
     <use xlink:href="#mf87b4e7de3" x="112.420426" y="132.627832" style="fill: #00008b"/>
     <use xlink:href="#mf87b4e7de3" x="120.241288" y="119.278431" style="fill: #00008b"/>
     <use xlink:href="#mf87b4e7de3" x="128.062151" y="104.277913" style="fill: #00008b"/>
     <use xlink:href="#mf87b4e7de3" x="135.883013" y="87.612505" style="fill: #00008b"/>
     <use xlink:href="#mf87b4e7de3" x="143.703876" y="69.922074" style="fill: #00008b"/>
     <use xlink:href="#mf87b4e7de3" x="151.524738" y="51.671758" style="fill: #00008b"/>
     <use xlink:href="#mf87b4e7de3" x="159.345601" y="33.809763" style="fill: #00008b"/>
     <use xlink:href="#mf87b4e7de3" x="167.166463" y="19.345105" style="fill: #00008b"/>
     <use xlink:href="#mf87b4e7de3" x="174.987325" y="11.426614" style="fill: #00008b"/>
     <use xlink:href="#mf87b4e7de3" x="182.808188" y="15.114385" style="fill: #00008b"/>
     <use xlink:href="#mf87b4e7de3" x="190.62905" y="34.625902" style="fill: #00008b"/>
     <use xlink:href="#mf87b4e7de3" x="198.449913" y="67.637392" style="fill: #00008b"/>
     <use xlink:href="#mf87b4e7de3" x="206.270775" y="105.53137" style="fill: #00008b"/>
     <use xlink:href="#mf87b4e7de3" x="214.091638" y="138.853944" style="fill: #00008b"/>
     <use xlink:href="#mf87b4e7de3" x="221.9125" y="163.439358" style="fill: #00008b"/>
     <use xlink:href="#mf87b4e7de3" x="229.733362" y="179.952271" style="fill: #00008b"/>
     <use xlink:href="#mf87b4e7de3" x="237.554225" y="190.516433" style="fill: #00008b"/>
     <use xlink:href="#mf87b4e7de3" x="245.375087" y="196.918525" style="fill: #00008b"/>
     <use xlink:href="#mf87b4e7de3" x="253.19595" y="200.832293" style="fill: #00008b"/>
     <use xlink:href="#mf87b4e7de3" x="261.016812" y="202.893811" style="fill: #00008b"/>
     <use xlink:href="#mf87b4e7de3" x="268.837675" y="203.614794" style="fill: #00008b"/>
     <use xlink:href="#mf87b4e7de3" x="276.658537" y="203.286675" style="fill: #00008b"/>
     <use xlink:href="#mf87b4e7de3" x="284.479399" y="202.180785" style="fill: #00008b"/>
     <use xlink:href="#mf87b4e7de3" x="292.300262" y="200.448361" style="fill: #00008b"/>
     <use xlink:href="#mf87b4e7de3" x="300.121124" y="197.909891" style="fill: #00008b"/>
     <use xlink:href="#mf87b4e7de3" x="307.941987" y="194.643805" style="fill: #00008b"/>
     <use xlink:href="#mf87b4e7de3" x="315.762849" y="190.486321" style="fill: #00008b"/>
     <use xlink:href="#mf87b4e7de3" x="323.583712" y="185.753977" style="fill: #00008b"/>
     <use xlink:href="#mf87b4e7de3" x="331.404574" y="180.079944" style="fill: #00008b"/>
     <use xlink:href="#mf87b4e7de3" x="339.225436" y="173.523028" style="fill: #00008b"/>
     <use xlink:href="#mf87b4e7de3" x="347.046299" y="165.628362" style="fill: #00008b"/>
     <use xlink:href="#mf87b4e7de3" x="354.867161" y="156.811892" style="fill: #00008b"/>
     <use xlink:href="#mf87b4e7de3" x="362.688024" y="146.697798" style="fill: #00008b"/>
     <use xlink:href="#mf87b4e7de3" x="370.508886" y="135.15055" style="fill: #00008b"/>
     <use xlink:href="#mf87b4e7de3" x="378.329749" y="122.00539" style="fill: #00008b"/>
     <use xlink:href="#mf87b4e7de3" x="386.150611" y="107.278045" style="fill: #00008b"/>
     <use xlink:href="#mf87b4e7de3" x="393.971473" y="90.8959" style="fill: #00008b"/>
     <use xlink:href="#mf87b4e7de3" x="401.792336" y="73.454132" style="fill: #00008b"/>
     <use xlink:href="#mf87b4e7de3" x="409.613198" y="55.135438" style="fill: #00008b"/>
     <use xlink:href="#mf87b4e7de3" x="417.434061" y="37.126994" style="fill: #00008b"/>
    </g>
   </g>
   <g id="PathCollection_2">
    <defs>
     <path id="m5057e74386" d="M 0 2 
C 0.530406 2 1.03916 1.789267 1.414214 1.414214 
C 1.789267 1.03916 2 0.530406 2 0 
C 2 -0.530406 1.789267 -1.03916 1.414214 -1.414214 
C 1.03916 -1.789267 0.530406 -2 0 -2 
C -0.530406 -2 -1.03916 -1.789267 -1.414214 -1.414214 
C -1.789267 -1.03916 -2 -0.530406 -2 0 
C -2 0.530406 -1.789267 1.03916 -1.414214 1.414214 
C -1.03916 1.789267 -0.530406 2 0 2 
z
"/>
    </defs>
    <g clip-path="url(#p39f7fb3ef2)">
     <use xlink:href="#m5057e74386" x="26.390939" y="201.875994" style="fill: #cc0000"/>
     <use xlink:href="#m5057e74386" x="34.211802" y="207.708022" style="fill: #cc0000"/>
     <use xlink:href="#m5057e74386" x="42.032664" y="212.211187" style="fill: #cc0000"/>
     <use xlink:href="#m5057e74386" x="49.853527" y="215.833813" style="fill: #cc0000"/>
     <use xlink:href="#m5057e74386" x="57.674389" y="218.676167" style="fill: #cc0000"/>
     <use xlink:href="#m5057e74386" x="65.495251" y="220.967098" style="fill: #cc0000"/>
     <use xlink:href="#m5057e74386" x="73.316114" y="222.682786" style="fill: #cc0000"/>
     <use xlink:href="#m5057e74386" x="81.136976" y="223.886577" style="fill: #cc0000"/>
     <use xlink:href="#m5057e74386" x="88.957839" y="224.899323" style="fill: #cc0000"/>
     <use xlink:href="#m5057e74386" x="96.778701" y="225.571196" style="fill: #cc0000"/>
     <use xlink:href="#m5057e74386" x="104.599564" y="225.781075" style="fill: #cc0000"/>
     <use xlink:href="#m5057e74386" x="112.420426" y="225.842682" style="fill: #cc0000"/>
     <use xlink:href="#m5057e74386" x="120.241288" y="225.605417" style="fill: #cc0000"/>
     <use xlink:href="#m5057e74386" x="128.062151" y="224.940972" style="fill: #cc0000"/>
     <use xlink:href="#m5057e74386" x="135.883013" y="223.656595" style="fill: #cc0000"/>
     <use xlink:href="#m5057e74386" x="143.703876" y="221.571875" style="fill: #cc0000"/>
     <use xlink:href="#m5057e74386" x="151.524738" y="218.213638" style="fill: #cc0000"/>
     <use xlink:href="#m5057e74386" x="159.345601" y="212.880847" style="fill: #cc0000"/>
     <use xlink:href="#m5057e74386" x="167.166463" y="203.957125" style="fill: #cc0000"/>
     <use xlink:href="#m5057e74386" x="174.987325" y="190.164925" style="fill: #cc0000"/>
     <use xlink:href="#m5057e74386" x="182.808188" y="169.216475" style="fill: #cc0000"/>
     <use xlink:href="#m5057e74386" x="190.62905" y="141.748715" style="fill: #cc0000"/>
     <use xlink:href="#m5057e74386" x="198.449913" y="113.19872" style="fill: #cc0000"/>
     <use xlink:href="#m5057e74386" x="206.270775" y="92.732761" style="fill: #cc0000"/>
     <use xlink:href="#m5057e74386" x="214.091638" y="86.364389" style="fill: #cc0000"/>
     <use xlink:href="#m5057e74386" x="221.9125" y="92.790232" style="fill: #cc0000"/>
     <use xlink:href="#m5057e74386" x="229.733362" y="107.357365" style="fill: #cc0000"/>
     <use xlink:href="#m5057e74386" x="237.554225" y="124.953355" style="fill: #cc0000"/>
     <use xlink:href="#m5057e74386" x="245.375087" y="142.516887" style="fill: #cc0000"/>
     <use xlink:href="#m5057e74386" x="253.19595" y="158.527657" style="fill: #cc0000"/>
     <use xlink:href="#m5057e74386" x="261.016812" y="172.221211" style="fill: #cc0000"/>
     <use xlink:href="#m5057e74386" x="268.837675" y="183.658771" style="fill: #cc0000"/>
     <use xlink:href="#m5057e74386" x="276.658537" y="193.104874" style="fill: #cc0000"/>
     <use xlink:href="#m5057e74386" x="284.479399" y="200.660635" style="fill: #cc0000"/>
     <use xlink:href="#m5057e74386" x="292.300262" y="206.66649" style="fill: #cc0000"/>
     <use xlink:href="#m5057e74386" x="300.121124" y="211.45584" style="fill: #cc0000"/>
     <use xlink:href="#m5057e74386" x="307.941987" y="215.327216" style="fill: #cc0000"/>
     <use xlink:href="#m5057e74386" x="315.762849" y="218.309616" style="fill: #cc0000"/>
     <use xlink:href="#m5057e74386" x="323.583712" y="220.557331" style="fill: #cc0000"/>
     <use xlink:href="#m5057e74386" x="331.404574" y="222.476006" style="fill: #cc0000"/>
     <use xlink:href="#m5057e74386" x="339.225436" y="223.841" style="fill: #cc0000"/>
     <use xlink:href="#m5057e74386" x="347.046299" y="224.827448" style="fill: #cc0000"/>
     <use xlink:href="#m5057e74386" x="354.867161" y="225.418744" style="fill: #cc0000"/>
     <use xlink:href="#m5057e74386" x="362.688024" y="225.905921" style="fill: #cc0000"/>
     <use xlink:href="#m5057e74386" x="370.508886" y="225.87349" style="fill: #cc0000"/>
     <use xlink:href="#m5057e74386" x="378.329749" y="225.77303" style="fill: #cc0000"/>
     <use xlink:href="#m5057e74386" x="386.150611" y="225.031919" style="fill: #cc0000"/>
     <use xlink:href="#m5057e74386" x="393.971473" y="224.024553" style="fill: #cc0000"/>
     <use xlink:href="#m5057e74386" x="401.792336" y="222.158565" style="fill: #cc0000"/>
     <use xlink:href="#m5057e74386" x="409.613198" y="219.095633" style="fill: #cc0000"/>
     <use xlink:href="#m5057e74386" x="417.434061" y="214.159937" style="fill: #cc0000"/>
    </g>
   </g>
   <g id="patch_3">
    <path d="M 14.659646 232.705354 
L 14.659646 4.981602 
" style="fill: none; stroke: #000000; stroke-linejoin: miter; stroke-linecap: square"/>
   </g>
   <g id="patch_4">
    <path d="M 429.165354 232.705354 
L 429.165354 4.981602 
" style="fill: none; stroke: #000000; stroke-linejoin: miter; stroke-linecap: square"/>
   </g>
   <g id="patch_5">
    <path d="M 14.659646 232.705354 
L 429.165354 232.705354 
" style="fill: none; stroke: #000000; stroke-linejoin: miter; stroke-linecap: square"/>
   </g>
   <g id="patch_6">
    <path d="M 14.659646 4.981602 
L 429.165354 4.981602 
" style="fill: none; stroke: #000000; stroke-linejoin: miter; stroke-linecap: square"/>
   </g>
   <g id="line2d_40">
    <path d="M 26.390939 201.856555 
L 34.211802 199.924038 
L 42.032664 197.282543 
L 49.853527 193.925665 
L 57.674389 189.82082 
L 65.495251 184.915727 
L 73.316114 179.133029 
L 81.136976 172.376302 
L 88.957839 164.563286 
L 96.778701 155.568618 
L 104.599564 145.27011 
L 112.420426 133.573936 
L 120.241288 120.362516 
L 128.062151 105.608384 
L 135.883013 89.326953 
L 143.703876 71.841421 
L 151.524738 53.653396 
L 159.345601 35.914335 
L 167.166463 21.297941 
L 174.987325 12.966498 
L 182.808188 16.218347 
L 190.62905 35.042872 
L 198.449913 67.751564 
L 206.270775 105.696599 
L 214.091638 139.102267 
L 221.9125 163.799768 
L 229.733362 180.245129 
L 237.554225 190.674761 
L 245.375087 197.056876 
L 253.19595 200.786644 
L 261.016812 202.759458 
L 268.837675 203.420878 
L 276.658537 203.088059 
L 284.479399 201.922896 
L 292.300262 200.016708 
L 300.121124 197.398897 
L 307.941987 194.063341 
L 315.762849 189.985726 
L 323.583712 185.093518 
L 331.404574 179.344736 
L 339.225436 172.606775 
L 347.046299 164.821039 
L 354.867161 155.858491 
L 362.688024 145.58804 
L 370.508886 133.92485 
L 378.329749 120.744498 
L 386.150611 106.020613 
L 393.971473 89.770121 
L 401.792336 72.29088 
L 409.613198 54.084474 
L 417.434061 36.373332 
" clip-path="url(#p39f7fb3ef2)" style="fill: none; stroke: #00008b; stroke-width: 2"/>
   </g>
   <g id="line2d_41">
    <path d="M 26.390939 201.856555 
L 34.211802 207.78143 
L 42.032664 212.466196 
L 49.853527 216.149543 
L 57.674389 219.029399 
L 65.495251 221.261043 
L 73.316114 222.977052 
L 81.136976 224.272497 
L 88.957839 225.206377 
L 96.778701 225.834014 
L 104.599564 226.173969 
L 112.420426 226.226887 
L 120.241288 225.967702 
L 128.062151 225.29527 
L 135.883013 224.112814 
L 143.703876 222.096906 
L 151.524738 218.866525 
L 159.345601 213.675189 
L 167.166463 205.037107 
L 174.987325 191.309156 
L 182.808188 170.468035 
L 190.62905 142.736522 
L 198.449913 113.539015 
L 206.270775 92.302656 
L 214.091638 85.619089 
L 221.9125 92.355694 
L 229.733362 107.341756 
L 237.554225 125.409473 
L 245.375087 143.37322 
L 253.19595 159.579012 
L 261.016812 173.424818 
L 268.837675 184.917237 
L 276.658537 194.268146 
L 284.479399 201.756049 
L 292.300262 207.707941 
L 300.121124 212.42105 
L 307.941987 216.124607 
L 315.762849 219.006017 
L 323.583712 221.262187 
L 331.404574 222.972525 
L 339.225436 224.279009 
L 347.046299 225.218402 
L 354.867161 225.851692 
L 362.688024 226.19778 
L 370.508886 226.260342 
L 378.329749 226.000851 
L 386.150611 225.353647 
L 393.971473 224.187291 
L 401.792336 222.20433 
L 409.613198 219.021054 
L 417.434061 213.832309 
" clip-path="url(#p39f7fb3ef2)" style="fill: none; stroke: #cc0000; stroke-width: 2"/>
   </g>
  </g>
 </g>
 <defs>
  <clipPath id="p39f7fb3ef2">
   <rect x="14.659646" y="4.981602" width="414.505709" height="227.723752"/>
  </clipPath>
 </defs>
</svg>
