<?xml version="1.0" encoding="utf-8" standalone="no"?>
<!DOCTYPE svg PUBLIC "-//W3C//DTD SVG 1.1//EN"
  "http://www.w3.org/Graphics/SVG/1.1/DTD/svg11.dtd">
<svg xmlns:xlink="http://www.w3.org/1999/xlink" width="432pt" height="288pt" viewBox="0 0 432 288" xmlns="http://www.w3.org/2000/svg" version="1.1">
 <metadata>
  <rdf:RDF xmlns:dc="http://purl.org/dc/elements/1.1/" xmlns:cc="http://creativecommons.org/ns#" xmlns:rdf="http://www.w3.org/1999/02/22-rdf-syntax-ns#">
   <cc:Work>
    <dc:type rdf:resource="http://purl.org/dc/dcmitype/StillImage"/>
    <dc:date>2021-12-16T21:55:56.833461</dc:date>
    <dc:format>image/svg+xml</dc:format>
    <dc:creator>
     <cc:Agent>
      <dc:title>Matplotlib v3.5.0, https://matplotlib.org/</dc:title>
     </cc:Agent>
    </dc:creator>
   </cc:Work>
  </rdf:RDF>
 </metadata>
 <defs>
  <style type="text/css">*{stroke-linejoin: round; stroke-linecap: butt}</style>
 </defs>
 <g id="figure_1">
  <g id="patch_1">
   <path d="M 0 288 
L 432 288 
L 432 0 
L 0 0 
z
" style="fill: #ffffff"/>
  </g>
  <g id="axes_1">
   <g id="patch_2">
    <path d="M 39.841804 248.793354 
L 429.165354 248.793354 
L 429.165354 24.674646 
L 39.841804 24.674646 
z
" style="fill: #ffffff"/>
   </g>
   <g id="matplotlib.axis_1">
    <g id="xtick_1">
     <g id="line2d_1">
      <path d="M 173.289184 248.793354 
L 173.289184 24.674646 
" clip-path="url(#pe7abbee798)" style="fill: none; stroke: #000000; stroke-opacity: 0.1; stroke-width: 0.5; stroke-linecap: square"/>
     </g>
     <g id="line2d_2">
      <defs>
       <path id="mf2d89d36e4" d="M 0 0 
L 0 -2.5 
" style="stroke: #000000; stroke-width: 0.5"/>
      </defs>
      <g>
       <use xlink:href="#mf2d89d36e4" x="173.289184" y="248.793354" style="stroke: #000000; stroke-width: 0.5"/>
      </g>
     </g>
     <g id="text_1">
      <!-- $10^{0}$ -->
      <g transform="translate(162.729184 261.411479)scale(0.12 -0.12)">
       <defs>
        <path id="DejaVuSans-31" d="M 794 531 
L 1825 531 
L 1825 4091 
L 703 3866 
L 703 4441 
L 1819 4666 
L 2450 4666 
L 2450 531 
L 3481 531 
L 3481 0 
L 794 0 
L 794 531 
z
" transform="scale(0.015625)"/>
        <path id="DejaVuSans-30" d="M 2034 4250 
Q 1547 4250 1301 3770 
Q 1056 3291 1056 2328 
Q 1056 1369 1301 889 
Q 1547 409 2034 409 
Q 2525 409 2770 889 
Q 3016 1369 3016 2328 
Q 3016 3291 2770 3770 
Q 2525 4250 2034 4250 
z
M 2034 4750 
Q 2819 4750 3233 4129 
Q 3647 3509 3647 2328 
Q 3647 1150 3233 529 
Q 2819 -91 2034 -91 
Q 1250 -91 836 529 
Q 422 1150 422 2328 
Q 422 3509 836 4129 
Q 1250 4750 2034 4750 
z
" transform="scale(0.015625)"/>
       </defs>
       <use xlink:href="#DejaVuSans-31" transform="translate(0 0.765625)"/>
       <use xlink:href="#DejaVuSans-30" transform="translate(63.623047 0.765625)"/>
       <use xlink:href="#DejaVuSans-30" transform="translate(128.203125 39.046875)scale(0.7)"/>
      </g>
     </g>
    </g>
    <g id="xtick_2">
     <g id="line2d_3">
      <path d="M 326.325171 248.793354 
L 326.325171 24.674646 
" clip-path="url(#pe7abbee798)" style="fill: none; stroke: #000000; stroke-opacity: 0.1; stroke-width: 0.5; stroke-linecap: square"/>
     </g>
     <g id="line2d_4">
      <g>
       <use xlink:href="#mf2d89d36e4" x="326.325171" y="248.793354" style="stroke: #000000; stroke-width: 0.5"/>
      </g>
     </g>
     <g id="text_2">
      <!-- $10^{5}$ -->
      <g transform="translate(315.765171 261.411479)scale(0.12 -0.12)">
       <defs>
        <path id="DejaVuSans-35" d="M 691 4666 
L 3169 4666 
L 3169 4134 
L 1269 4134 
L 1269 2991 
Q 1406 3038 1543 3061 
Q 1681 3084 1819 3084 
Q 2600 3084 3056 2656 
Q 3513 2228 3513 1497 
Q 3513 744 3044 326 
Q 2575 -91 1722 -91 
Q 1428 -91 1123 -41 
Q 819 9 494 109 
L 494 744 
Q 775 591 1075 516 
Q 1375 441 1709 441 
Q 2250 441 2565 725 
Q 2881 1009 2881 1497 
Q 2881 1984 2565 2268 
Q 2250 2553 1709 2553 
Q 1456 2553 1204 2497 
Q 953 2441 691 2322 
L 691 4666 
z
" transform="scale(0.015625)"/>
       </defs>
       <use xlink:href="#DejaVuSans-31" transform="translate(0 0.684375)"/>
       <use xlink:href="#DejaVuSans-30" transform="translate(63.623047 0.684375)"/>
       <use xlink:href="#DejaVuSans-35" transform="translate(128.203125 38.965625)scale(0.7)"/>
      </g>
     </g>
    </g>
    <g id="xtick_3">
     <g id="line2d_5">
      <defs>
       <path id="m80ba61cd55" d="M 0 0 
L 0 2 
" style="stroke: #000000; stroke-width: 0.6"/>
      </defs>
      <g>
       <use xlink:href="#m80ba61cd55" x="50.860395" y="248.793354" style="stroke: #000000; stroke-width: 0.6"/>
      </g>
     </g>
    </g>
    <g id="xtick_4">
     <g id="line2d_6">
      <g>
       <use xlink:href="#m80ba61cd55" x="81.467592" y="248.793354" style="stroke: #000000; stroke-width: 0.6"/>
      </g>
     </g>
    </g>
    <g id="xtick_5">
     <g id="line2d_7">
      <g>
       <use xlink:href="#m80ba61cd55" x="112.07479" y="248.793354" style="stroke: #000000; stroke-width: 0.6"/>
      </g>
     </g>
    </g>
    <g id="xtick_6">
     <g id="line2d_8">
      <g>
       <use xlink:href="#m80ba61cd55" x="142.681987" y="248.793354" style="stroke: #000000; stroke-width: 0.6"/>
      </g>
     </g>
    </g>
    <g id="xtick_7">
     <g id="line2d_9">
      <g>
       <use xlink:href="#m80ba61cd55" x="203.896382" y="248.793354" style="stroke: #000000; stroke-width: 0.6"/>
      </g>
     </g>
    </g>
    <g id="xtick_8">
     <g id="line2d_10">
      <g>
       <use xlink:href="#m80ba61cd55" x="234.503579" y="248.793354" style="stroke: #000000; stroke-width: 0.6"/>
      </g>
     </g>
    </g>
    <g id="xtick_9">
     <g id="line2d_11">
      <g>
       <use xlink:href="#m80ba61cd55" x="265.110776" y="248.793354" style="stroke: #000000; stroke-width: 0.6"/>
      </g>
     </g>
    </g>
    <g id="xtick_10">
     <g id="line2d_12">
      <g>
       <use xlink:href="#m80ba61cd55" x="295.717974" y="248.793354" style="stroke: #000000; stroke-width: 0.6"/>
      </g>
     </g>
    </g>
    <g id="xtick_11">
     <g id="line2d_13">
      <g>
       <use xlink:href="#m80ba61cd55" x="356.932369" y="248.793354" style="stroke: #000000; stroke-width: 0.6"/>
      </g>
     </g>
    </g>
    <g id="xtick_12">
     <g id="line2d_14">
      <g>
       <use xlink:href="#m80ba61cd55" x="387.539566" y="248.793354" style="stroke: #000000; stroke-width: 0.6"/>
      </g>
     </g>
    </g>
    <g id="xtick_13">
     <g id="line2d_15">
      <g>
       <use xlink:href="#m80ba61cd55" x="418.146763" y="248.793354" style="stroke: #000000; stroke-width: 0.6"/>
      </g>
     </g>
    </g>
    <g id="text_3">
     <!-- t [s] -->
     <g transform="translate(218.414829 280.064604)scale(0.16 -0.16)">
      <defs>
       <path id="DejaVuSans-74" d="M 1172 4494 
L 1172 3500 
L 2356 3500 
L 2356 3053 
L 1172 3053 
L 1172 1153 
Q 1172 725 1289 603 
Q 1406 481 1766 481 
L 2356 481 
L 2356 0 
L 1766 0 
Q 1100 0 847 248 
Q 594 497 594 1153 
L 594 3053 
L 172 3053 
L 172 3500 
L 594 3500 
L 594 4494 
L 1172 4494 
z
" transform="scale(0.015625)"/>
       <path id="DejaVuSans-20" transform="scale(0.015625)"/>
       <path id="DejaVuSans-5b" d="M 550 4863 
L 1875 4863 
L 1875 4416 
L 1125 4416 
L 1125 -397 
L 1875 -397 
L 1875 -844 
L 550 -844 
L 550 4863 
z
" transform="scale(0.015625)"/>
       <path id="DejaVuSans-73" d="M 2834 3397 
L 2834 2853 
Q 2591 2978 2328 3040 
Q 2066 3103 1784 3103 
Q 1356 3103 1142 2972 
Q 928 2841 928 2578 
Q 928 2378 1081 2264 
Q 1234 2150 1697 2047 
L 1894 2003 
Q 2506 1872 2764 1633 
Q 3022 1394 3022 966 
Q 3022 478 2636 193 
Q 2250 -91 1575 -91 
Q 1294 -91 989 -36 
Q 684 19 347 128 
L 347 722 
Q 666 556 975 473 
Q 1284 391 1588 391 
Q 1994 391 2212 530 
Q 2431 669 2431 922 
Q 2431 1156 2273 1281 
Q 2116 1406 1581 1522 
L 1381 1569 
Q 847 1681 609 1914 
Q 372 2147 372 2553 
Q 372 3047 722 3315 
Q 1072 3584 1716 3584 
Q 2034 3584 2315 3537 
Q 2597 3491 2834 3397 
z
" transform="scale(0.015625)"/>
       <path id="DejaVuSans-5d" d="M 1947 4863 
L 1947 -844 
L 622 -844 
L 622 -397 
L 1369 -397 
L 1369 4416 
L 622 4416 
L 622 4863 
L 1947 4863 
z
" transform="scale(0.015625)"/>
      </defs>
      <use xlink:href="#DejaVuSans-74"/>
      <use xlink:href="#DejaVuSans-20" x="39.208984"/>
      <use xlink:href="#DejaVuSans-5b" x="70.996094"/>
      <use xlink:href="#DejaVuSans-73" x="110.009766"/>
      <use xlink:href="#DejaVuSans-5d" x="162.109375"/>
     </g>
    </g>
   </g>
   <g id="matplotlib.axis_2">
    <g id="ytick_1">
     <g id="line2d_16">
      <path d="M 39.841804 237.974188 
L 429.165354 237.974188 
" clip-path="url(#pe7abbee798)" style="fill: none; stroke: #000000; stroke-opacity: 0.1; stroke-width: 0.5; stroke-linecap: square"/>
     </g>
     <g id="line2d_17">
      <defs>
       <path id="mac3ac392d7" d="M 0 0 
L 2.5 0 
" style="stroke: #000000; stroke-width: 0.5"/>
      </defs>
      <g>
       <use xlink:href="#mac3ac392d7" x="39.841804" y="237.974188" style="stroke: #000000; stroke-width: 0.5"/>
      </g>
     </g>
     <g id="text_4">
      <!-- $-600$ -->
      <g transform="translate(3.341804 242.53325)scale(0.12 -0.12)">
       <defs>
        <path id="DejaVuSans-2212" d="M 678 2272 
L 4684 2272 
L 4684 1741 
L 678 1741 
L 678 2272 
z
" transform="scale(0.015625)"/>
        <path id="DejaVuSans-36" d="M 2113 2584 
Q 1688 2584 1439 2293 
Q 1191 2003 1191 1497 
Q 1191 994 1439 701 
Q 1688 409 2113 409 
Q 2538 409 2786 701 
Q 3034 994 3034 1497 
Q 3034 2003 2786 2293 
Q 2538 2584 2113 2584 
z
M 3366 4563 
L 3366 3988 
Q 3128 4100 2886 4159 
Q 2644 4219 2406 4219 
Q 1781 4219 1451 3797 
Q 1122 3375 1075 2522 
Q 1259 2794 1537 2939 
Q 1816 3084 2150 3084 
Q 2853 3084 3261 2657 
Q 3669 2231 3669 1497 
Q 3669 778 3244 343 
Q 2819 -91 2113 -91 
Q 1303 -91 875 529 
Q 447 1150 447 2328 
Q 447 3434 972 4092 
Q 1497 4750 2381 4750 
Q 2619 4750 2861 4703 
Q 3103 4656 3366 4563 
z
" transform="scale(0.015625)"/>
       </defs>
       <use xlink:href="#DejaVuSans-2212" transform="translate(0 0.78125)"/>
       <use xlink:href="#DejaVuSans-36" transform="translate(83.789062 0.78125)"/>
       <use xlink:href="#DejaVuSans-30" transform="translate(147.412109 0.78125)"/>
       <use xlink:href="#DejaVuSans-30" transform="translate(211.035156 0.78125)"/>
      </g>
     </g>
    </g>
    <g id="ytick_2">
     <g id="line2d_18">
      <path d="M 39.841804 180.751654 
L 429.165354 180.751654 
" clip-path="url(#pe7abbee798)" style="fill: none; stroke: #000000; stroke-opacity: 0.1; stroke-width: 0.5; stroke-linecap: square"/>
     </g>
     <g id="line2d_19">
      <g>
       <use xlink:href="#mac3ac392d7" x="39.841804" y="180.751654" style="stroke: #000000; stroke-width: 0.5"/>
      </g>
     </g>
     <g id="text_5">
      <!-- $-400$ -->
      <g transform="translate(3.341804 185.310716)scale(0.12 -0.12)">
       <defs>
        <path id="DejaVuSans-34" d="M 2419 4116 
L 825 1625 
L 2419 1625 
L 2419 4116 
z
M 2253 4666 
L 3047 4666 
L 3047 1625 
L 3713 1625 
L 3713 1100 
L 3047 1100 
L 3047 0 
L 2419 0 
L 2419 1100 
L 313 1100 
L 313 1709 
L 2253 4666 
z
" transform="scale(0.015625)"/>
       </defs>
       <use xlink:href="#DejaVuSans-2212" transform="translate(0 0.78125)"/>
       <use xlink:href="#DejaVuSans-34" transform="translate(83.789062 0.78125)"/>
       <use xlink:href="#DejaVuSans-30" transform="translate(147.412109 0.78125)"/>
       <use xlink:href="#DejaVuSans-30" transform="translate(211.035156 0.78125)"/>
      </g>
     </g>
    </g>
    <g id="ytick_3">
     <g id="line2d_20">
      <path d="M 39.841804 123.529119 
L 429.165354 123.529119 
" clip-path="url(#pe7abbee798)" style="fill: none; stroke: #000000; stroke-opacity: 0.1; stroke-width: 0.5; stroke-linecap: square"/>
     </g>
     <g id="line2d_21">
      <g>
       <use xlink:href="#mac3ac392d7" x="39.841804" y="123.529119" style="stroke: #000000; stroke-width: 0.5"/>
      </g>
     </g>
     <g id="text_6">
      <!-- $-200$ -->
      <g transform="translate(3.341804 128.088182)scale(0.12 -0.12)">
       <defs>
        <path id="DejaVuSans-32" d="M 1228 531 
L 3431 531 
L 3431 0 
L 469 0 
L 469 531 
Q 828 903 1448 1529 
Q 2069 2156 2228 2338 
Q 2531 2678 2651 2914 
Q 2772 3150 2772 3378 
Q 2772 3750 2511 3984 
Q 2250 4219 1831 4219 
Q 1534 4219 1204 4116 
Q 875 4013 500 3803 
L 500 4441 
Q 881 4594 1212 4672 
Q 1544 4750 1819 4750 
Q 2544 4750 2975 4387 
Q 3406 4025 3406 3419 
Q 3406 3131 3298 2873 
Q 3191 2616 2906 2266 
Q 2828 2175 2409 1742 
Q 1991 1309 1228 531 
z
" transform="scale(0.015625)"/>
       </defs>
       <use xlink:href="#DejaVuSans-2212" transform="translate(0 0.78125)"/>
       <use xlink:href="#DejaVuSans-32" transform="translate(83.789062 0.78125)"/>
       <use xlink:href="#DejaVuSans-30" transform="translate(147.412109 0.78125)"/>
       <use xlink:href="#DejaVuSans-30" transform="translate(211.035156 0.78125)"/>
      </g>
     </g>
    </g>
    <g id="ytick_4">
     <g id="line2d_22">
      <path d="M 39.841804 66.306585 
L 429.165354 66.306585 
" clip-path="url(#pe7abbee798)" style="fill: none; stroke: #000000; stroke-opacity: 0.1; stroke-width: 0.5; stroke-linecap: square"/>
     </g>
     <g id="line2d_23">
      <g>
       <use xlink:href="#mac3ac392d7" x="39.841804" y="66.306585" style="stroke: #000000; stroke-width: 0.5"/>
      </g>
     </g>
     <g id="text_7">
      <!-- $0$ -->
      <g transform="translate(28.661804 70.865648)scale(0.12 -0.12)">
       <use xlink:href="#DejaVuSans-30" transform="translate(0 0.78125)"/>
      </g>
     </g>
    </g>
   </g>
   <g id="line2d_24">
    <path d="M 418.146763 66.308221 
L 418.146763 66.308152 
L 418.146763 66.30814 
L 418.146763 66.308139 
L 418.146763 66.308139 
L 418.146763 66.308139 
L 418.146763 66.308139 
L 418.146763 66.308139 
L 418.146763 66.308139 
L 418.146763 66.308139 
L 418.146763 66.308139 
L 418.146763 66.308139 
L 418.146763 66.308139 
L 418.14676 66.308139 
L 418.146732 66.308139 
L 418.146449 66.308139 
L 418.143625 66.308139 
L 418.117998 66.308138 
L 417.977382 66.308135 
L 417.782016 66.308131 
L 417.584474 66.308126 
L 417.29234 66.30812 
L 417.053359 66.308116 
L 416.679619 66.308109 
L 416.295066 66.308103 
L 415.949251 66.308098 
L 415.475002 66.308091 
L 414.983204 66.308085 
L 414.619263 66.30808 
L 414.050161 66.308074 
L 413.455599 66.308069 
L 412.989888 66.308065 
L 412.296827 66.308059 
L 411.565633 66.308054 
L 410.958049 66.30805 
L 410.09144 66.308045 
L 409.164367 66.308041 
L 408.348271 66.308037 
L 407.21567 66.308033 
L 405.977501 66.308029 
L 404.809728 66.308026 
L 403.796506 66.308024 
L 402.239742 66.308021 
L 400.476168 66.308018 
L 398.900455 66.308016 
L 396.370062 66.308014 
L 393.241975 66.308011 
L 389.942888 66.308009 
L 383.864203 66.308007 
L 381.418126 66.308006 
" clip-path="url(#pe7abbee798)" style="fill: none; stroke: #009afa"/>
   </g>
   <g id="line2d_25">
    <path d="M 418.146763 31.017628 
L 418.146763 60.612508 
L 418.146763 65.938138 
L 418.146763 66.263818 
L 418.146763 66.301226 
L 418.146763 66.306956 
L 418.146763 66.307942 
L 418.146763 66.30811 
L 418.146763 66.308136 
L 418.146763 66.308139 
L 418.146763 66.308139 
L 418.146763 66.308139 
L 418.146763 66.308139 
L 418.14676 66.308139 
L 418.146732 66.308139 
L 418.146449 66.308139 
L 418.143625 66.308139 
L 418.117998 66.308138 
L 417.977382 66.308135 
L 417.782016 66.308131 
L 417.584474 66.308126 
L 417.29234 66.30812 
L 417.053359 66.308116 
L 416.679619 66.308109 
L 416.295066 66.308103 
L 415.949251 66.308098 
L 415.475002 66.308091 
L 414.983204 66.308085 
L 414.619263 66.30808 
L 414.050161 66.308074 
L 413.455599 66.308069 
L 412.989888 66.308065 
L 412.296827 66.308059 
L 411.565633 66.308054 
L 410.958049 66.30805 
L 410.09144 66.308045 
L 409.164367 66.308041 
L 408.348271 66.308037 
L 407.21567 66.308033 
L 405.977501 66.308029 
L 404.809728 66.308026 
L 403.796506 66.308024 
L 402.239742 66.308021 
L 400.476168 66.308018 
L 398.900455 66.308016 
L 396.370062 66.308014 
L 393.241975 66.308011 
L 389.942888 66.308009 
L 383.864203 66.308007 
L 381.418126 66.308006 
" clip-path="url(#pe7abbee798)" style="fill: none; stroke: #e36f47"/>
   </g>
   <g id="patch_3">
    <path d="M 39.841804 248.793354 
L 39.841804 24.674646 
" style="fill: none; stroke: #000000; stroke-linejoin: miter; stroke-linecap: square"/>
   </g>
   <g id="patch_4">
    <path d="M 39.841804 248.793354 
L 429.165354 248.793354 
" style="fill: none; stroke: #000000; stroke-linejoin: miter; stroke-linecap: square"/>
   </g>
   <g id="line2d_26">
    <path d="M 418.146763 66.307982 
L 418.146763 66.307982 
L 418.146763 66.307982 
L 418.146763 66.307982 
L 418.146763 66.307982 
L 418.146763 66.307982 
L 418.146763 66.307982 
L 418.146763 66.307982 
L 418.146763 66.307982 
L 418.146763 66.307982 
L 418.146763 66.307982 
L 418.146763 66.307982 
L 418.146763 66.307982 
L 418.14676 66.307982 
L 418.146732 66.307982 
L 418.146449 66.307982 
L 418.143625 66.307982 
L 418.117998 66.307982 
L 417.977382 66.307982 
L 417.782016 66.307982 
L 417.584474 66.307982 
L 417.29234 66.307982 
L 417.053359 66.307982 
L 416.679619 66.307982 
L 416.295066 66.307982 
L 415.949251 66.307982 
L 415.475002 66.307982 
L 414.983204 66.307982 
L 414.619263 66.307982 
L 414.050161 66.307982 
L 413.455599 66.307982 
L 412.989888 66.307982 
L 412.296827 66.307982 
L 411.565633 66.307982 
L 410.958049 66.307982 
L 410.09144 66.307982 
L 409.164367 66.307982 
L 408.348271 66.307982 
L 407.21567 66.307982 
L 405.977501 66.307982 
L 404.809728 66.307982 
L 403.796506 66.307982 
L 402.239742 66.307982 
L 400.476168 66.307982 
L 398.900455 66.307982 
L 396.370062 66.307982 
L 393.241975 66.307982 
L 389.942888 66.307982 
L 383.864203 66.307982 
L 381.418126 66.307982 
" clip-path="url(#pe7abbee798)" style="fill: none; stroke: #3ea44e"/>
   </g>
   <g id="text_8">
    <!-- Adjoint State -->
    <g transform="translate(166.678501 18.674646)scale(0.21 -0.21)">
     <defs>
      <path id="DejaVuSans-41" d="M 2188 4044 
L 1331 1722 
L 3047 1722 
L 2188 4044 
z
M 1831 4666 
L 2547 4666 
L 4325 0 
L 3669 0 
L 3244 1197 
L 1141 1197 
L 716 0 
L 50 0 
L 1831 4666 
z
" transform="scale(0.015625)"/>
      <path id="DejaVuSans-64" d="M 2906 2969 
L 2906 4863 
L 3481 4863 
L 3481 0 
L 2906 0 
L 2906 525 
Q 2725 213 2448 61 
Q 2172 -91 1784 -91 
Q 1150 -91 751 415 
Q 353 922 353 1747 
Q 353 2572 751 3078 
Q 1150 3584 1784 3584 
Q 2172 3584 2448 3432 
Q 2725 3281 2906 2969 
z
M 947 1747 
Q 947 1113 1208 752 
Q 1469 391 1925 391 
Q 2381 391 2643 752 
Q 2906 1113 2906 1747 
Q 2906 2381 2643 2742 
Q 2381 3103 1925 3103 
Q 1469 3103 1208 2742 
Q 947 2381 947 1747 
z
" transform="scale(0.015625)"/>
      <path id="DejaVuSans-6a" d="M 603 3500 
L 1178 3500 
L 1178 -63 
Q 1178 -731 923 -1031 
Q 669 -1331 103 -1331 
L -116 -1331 
L -116 -844 
L 38 -844 
Q 366 -844 484 -692 
Q 603 -541 603 -63 
L 603 3500 
z
M 603 4863 
L 1178 4863 
L 1178 4134 
L 603 4134 
L 603 4863 
z
" transform="scale(0.015625)"/>
      <path id="DejaVuSans-6f" d="M 1959 3097 
Q 1497 3097 1228 2736 
Q 959 2375 959 1747 
Q 959 1119 1226 758 
Q 1494 397 1959 397 
Q 2419 397 2687 759 
Q 2956 1122 2956 1747 
Q 2956 2369 2687 2733 
Q 2419 3097 1959 3097 
z
M 1959 3584 
Q 2709 3584 3137 3096 
Q 3566 2609 3566 1747 
Q 3566 888 3137 398 
Q 2709 -91 1959 -91 
Q 1206 -91 779 398 
Q 353 888 353 1747 
Q 353 2609 779 3096 
Q 1206 3584 1959 3584 
z
" transform="scale(0.015625)"/>
      <path id="DejaVuSans-69" d="M 603 3500 
L 1178 3500 
L 1178 0 
L 603 0 
L 603 3500 
z
M 603 4863 
L 1178 4863 
L 1178 4134 
L 603 4134 
L 603 4863 
z
" transform="scale(0.015625)"/>
      <path id="DejaVuSans-6e" d="M 3513 2113 
L 3513 0 
L 2938 0 
L 2938 2094 
Q 2938 2591 2744 2837 
Q 2550 3084 2163 3084 
Q 1697 3084 1428 2787 
Q 1159 2491 1159 1978 
L 1159 0 
L 581 0 
L 581 3500 
L 1159 3500 
L 1159 2956 
Q 1366 3272 1645 3428 
Q 1925 3584 2291 3584 
Q 2894 3584 3203 3211 
Q 3513 2838 3513 2113 
z
" transform="scale(0.015625)"/>
      <path id="DejaVuSans-53" d="M 3425 4513 
L 3425 3897 
Q 3066 4069 2747 4153 
Q 2428 4238 2131 4238 
Q 1616 4238 1336 4038 
Q 1056 3838 1056 3469 
Q 1056 3159 1242 3001 
Q 1428 2844 1947 2747 
L 2328 2669 
Q 3034 2534 3370 2195 
Q 3706 1856 3706 1288 
Q 3706 609 3251 259 
Q 2797 -91 1919 -91 
Q 1588 -91 1214 -16 
Q 841 59 441 206 
L 441 856 
Q 825 641 1194 531 
Q 1563 422 1919 422 
Q 2459 422 2753 634 
Q 3047 847 3047 1241 
Q 3047 1584 2836 1778 
Q 2625 1972 2144 2069 
L 1759 2144 
Q 1053 2284 737 2584 
Q 422 2884 422 3419 
Q 422 4038 858 4394 
Q 1294 4750 2059 4750 
Q 2388 4750 2728 4690 
Q 3069 4631 3425 4513 
z
" transform="scale(0.015625)"/>
      <path id="DejaVuSans-61" d="M 2194 1759 
Q 1497 1759 1228 1600 
Q 959 1441 959 1056 
Q 959 750 1161 570 
Q 1363 391 1709 391 
Q 2188 391 2477 730 
Q 2766 1069 2766 1631 
L 2766 1759 
L 2194 1759 
z
M 3341 1997 
L 3341 0 
L 2766 0 
L 2766 531 
Q 2569 213 2275 61 
Q 1981 -91 1556 -91 
Q 1019 -91 701 211 
Q 384 513 384 1019 
Q 384 1609 779 1909 
Q 1175 2209 1959 2209 
L 2766 2209 
L 2766 2266 
Q 2766 2663 2505 2880 
Q 2244 3097 1772 3097 
Q 1472 3097 1187 3025 
Q 903 2953 641 2809 
L 641 3341 
Q 956 3463 1253 3523 
Q 1550 3584 1831 3584 
Q 2591 3584 2966 3190 
Q 3341 2797 3341 1997 
z
" transform="scale(0.015625)"/>
      <path id="DejaVuSans-65" d="M 3597 1894 
L 3597 1613 
L 953 1613 
Q 991 1019 1311 708 
Q 1631 397 2203 397 
Q 2534 397 2845 478 
Q 3156 559 3463 722 
L 3463 178 
Q 3153 47 2828 -22 
Q 2503 -91 2169 -91 
Q 1331 -91 842 396 
Q 353 884 353 1716 
Q 353 2575 817 3079 
Q 1281 3584 2069 3584 
Q 2775 3584 3186 3129 
Q 3597 2675 3597 1894 
z
M 3022 2063 
Q 3016 2534 2758 2815 
Q 2500 3097 2075 3097 
Q 1594 3097 1305 2825 
Q 1016 2553 972 2059 
L 3022 2063 
z
" transform="scale(0.015625)"/>
     </defs>
     <use xlink:href="#DejaVuSans-41"/>
     <use xlink:href="#DejaVuSans-64" x="66.658203"/>
     <use xlink:href="#DejaVuSans-6a" x="130.134766"/>
     <use xlink:href="#DejaVuSans-6f" x="157.917969"/>
     <use xlink:href="#DejaVuSans-69" x="219.099609"/>
     <use xlink:href="#DejaVuSans-6e" x="246.882812"/>
     <use xlink:href="#DejaVuSans-74" x="310.261719"/>
     <use xlink:href="#DejaVuSans-20" x="349.470703"/>
     <use xlink:href="#DejaVuSans-53" x="381.257812"/>
     <use xlink:href="#DejaVuSans-74" x="444.734375"/>
     <use xlink:href="#DejaVuSans-61" x="483.943359"/>
     <use xlink:href="#DejaVuSans-74" x="545.222656"/>
     <use xlink:href="#DejaVuSans-65" x="584.431641"/>
    </g>
   </g>
   <g id="line2d_27">
    <path d="M 381.418126 66.306442 
L 381.418126 66.306421 
L 381.418126 66.306416 
L 381.418126 66.306416 
L 381.418126 66.306416 
L 381.418126 66.306416 
L 381.418126 66.306416 
L 381.418126 66.306416 
L 381.418126 66.306416 
L 381.418126 66.306416 
L 381.418126 66.306416 
L 381.418126 66.306416 
L 381.418123 66.306416 
L 381.418088 66.306416 
L 381.417745 66.306416 
L 381.414312 66.306416 
L 381.37993 66.306418 
L 381.197825 66.306427 
L 380.969639 66.306438 
L 380.807992 66.306446 
L 380.609097 66.306455 
L 380.378675 66.306465 
L 380.144188 66.306474 
L 379.901416 66.306484 
L 379.616524 66.306495 
L 379.230273 66.306508 
L 378.719598 66.306524 
L 378.188518 66.306539 
L 377.566871 66.306555 
L 376.914719 66.30657 
L 376.228913 66.306584 
L 375.502239 66.306597 
L 374.73353 66.306609 
L 373.905434 66.30662 
L 373.022302 66.30663 
L 372.076294 66.30664 
L 371.051286 66.306649 
L 369.940584 66.306658 
L 368.722546 66.306666 
L 367.381531 66.306673 
L 365.87645 66.30668 
L 364.178932 66.306687 
L 362.227841 66.306693 
L 359.93413 66.306698 
L 357.152767 66.306703 
L 353.616104 66.306708 
L 348.783176 66.306713 
L 344.68949 66.306715 
" clip-path="url(#pe7abbee798)" style="fill: none; stroke: #c371d2"/>
   </g>
   <g id="line2d_28">
    <path d="M 381.418126 55.221658 
L 381.418126 63.943745 
L 381.418126 66.163624 
L 381.418126 66.289895 
L 381.418126 66.303885 
L 381.418126 66.305984 
L 381.418126 66.306344 
L 381.418126 66.306406 
L 381.418126 66.306415 
L 381.418126 66.306416 
L 381.418126 66.306416 
L 381.418126 66.306416 
L 381.418123 66.306416 
L 381.418088 66.306416 
L 381.417745 66.306416 
L 381.414312 66.306416 
L 381.37993 66.306418 
L 381.197825 66.306427 
L 380.969639 66.306438 
L 380.807992 66.306446 
L 380.609097 66.306455 
L 380.378675 66.306465 
L 380.144188 66.306474 
L 379.901416 66.306484 
L 379.616524 66.306495 
L 379.230273 66.306508 
L 378.719598 66.306524 
L 378.188518 66.306539 
L 377.566871 66.306555 
L 376.914719 66.30657 
L 376.228913 66.306584 
L 375.502239 66.306597 
L 374.73353 66.306609 
L 373.905434 66.30662 
L 373.022302 66.30663 
L 372.076294 66.30664 
L 371.051286 66.306649 
L 369.940584 66.306658 
L 368.722546 66.306666 
L 367.381531 66.306673 
L 365.87645 66.30668 
L 364.178932 66.306687 
L 362.227841 66.306693 
L 359.93413 66.306698 
L 357.152767 66.306703 
L 353.616104 66.306708 
L 348.783176 66.306713 
L 344.68949 66.306715 
" clip-path="url(#pe7abbee798)" style="fill: none; stroke: #ac8e18"/>
   </g>
   <g id="line2d_29">
    <path d="M 381.418126 66.306771 
L 381.418126 66.306771 
L 381.418126 66.306771 
L 381.418126 66.306771 
L 381.418126 66.306771 
L 381.418126 66.306771 
L 381.418126 66.306771 
L 381.418126 66.306771 
L 381.418126 66.306771 
L 381.418126 66.306771 
L 381.418126 66.306771 
L 381.418126 66.306771 
L 381.418123 66.306771 
L 381.418088 66.306771 
L 381.417745 66.306771 
L 381.414312 66.306771 
L 381.37993 66.306771 
L 381.197825 66.306771 
L 380.969639 66.306771 
L 380.807992 66.306771 
L 380.609097 66.306771 
L 380.378675 66.306771 
L 380.144188 66.306771 
L 379.901416 66.306771 
L 379.616524 66.306771 
L 379.230273 66.306771 
L 378.719598 66.306771 
L 378.188518 66.306771 
L 377.566871 66.306771 
L 376.914719 66.306771 
L 376.228913 66.306771 
L 375.502239 66.306771 
L 374.73353 66.306771 
L 373.905434 66.306771 
L 373.022302 66.306771 
L 372.076294 66.306771 
L 371.051286 66.306771 
L 369.940584 66.306771 
L 368.722546 66.306771 
L 367.381531 66.306771 
L 365.87645 66.306771 
L 364.178932 66.306771 
L 362.227841 66.306771 
L 359.93413 66.306771 
L 357.152767 66.306771 
L 353.616104 66.306771 
L 348.783176 66.306771 
L 344.68949 66.306771 
" clip-path="url(#pe7abbee798)" style="fill: none; stroke: #00aaae"/>
   </g>
   <g id="line2d_30">
    <path d="M 344.68949 66.307487 
L 344.68949 66.30747 
L 344.68949 66.307467 
L 344.68949 66.307467 
L 344.68949 66.307467 
L 344.689489 66.307467 
L 344.689489 66.307467 
L 344.689489 66.307467 
L 344.689489 66.307467 
L 344.689488 66.307467 
L 344.689486 66.307467 
L 344.68947 66.307467 
L 344.689314 66.307467 
L 344.687754 66.307466 
L 344.672145 66.307463 
L 344.515029 66.307435 
L 344.160884 66.307373 
L 343.757124 66.307308 
L 343.28428 66.307239 
L 342.620471 66.307153 
L 341.884809 66.307069 
L 341.022483 66.306984 
L 340.076223 66.306906 
L 339.057403 66.306835 
L 337.914368 66.306768 
L 336.628628 66.306706 
L 335.058875 66.306645 
L 333.24692 66.30659 
L 331.148392 66.306541 
L 328.592502 66.306496 
L 325.139553 66.306454 
L 320.462341 66.306416 
L 312.986432 66.306382 
L 307.960853 66.30637 
" clip-path="url(#pe7abbee798)" style="fill: none; stroke: #ed5e93"/>
   </g>
   <g id="line2d_31">
    <path d="M 344.68949 57.45056 
L 344.68949 65.001354 
L 344.68949 66.220724 
L 344.68949 66.296991 
L 344.68949 66.305826 
L 344.689489 66.307186 
L 344.689489 66.307419 
L 344.689489 66.30746 
L 344.689489 66.307466 
L 344.689488 66.307466 
L 344.689486 66.307466 
L 344.68947 66.307466 
L 344.689314 66.307466 
L 344.687754 66.307466 
L 344.672145 66.307463 
L 344.515029 66.307434 
L 344.160884 66.307373 
L 343.757124 66.307308 
L 343.28428 66.307239 
L 342.620471 66.307152 
L 341.884809 66.307069 
L 341.022483 66.306984 
L 340.076223 66.306906 
L 339.057403 66.306835 
L 337.914368 66.306768 
L 336.628628 66.306706 
L 335.058875 66.306645 
L 333.24692 66.30659 
L 331.148392 66.306541 
L 328.592502 66.306496 
L 325.139553 66.306454 
L 320.462341 66.306416 
L 312.986432 66.306382 
L 307.960853 66.30637 
" clip-path="url(#pe7abbee798)" style="fill: none; stroke: #c68225"/>
   </g>
   <g id="line2d_32">
    <path d="M 344.68949 66.306127 
L 344.68949 66.306128 
L 344.68949 66.306128 
L 344.68949 66.306128 
L 344.68949 66.306128 
L 344.689489 66.306128 
L 344.689489 66.306128 
L 344.689489 66.306128 
L 344.689489 66.306128 
L 344.689488 66.306128 
L 344.689486 66.306128 
L 344.68947 66.306128 
L 344.689314 66.306128 
L 344.687754 66.306128 
L 344.672145 66.306128 
L 344.515029 66.306128 
L 344.160884 66.306129 
L 343.757124 66.306129 
L 343.28428 66.30613 
L 342.620471 66.306131 
L 341.884809 66.306132 
L 341.022483 66.306132 
L 340.076223 66.306133 
L 339.057403 66.306134 
L 337.914368 66.306135 
L 336.628628 66.306135 
L 335.058875 66.306136 
L 333.24692 66.306136 
L 331.148392 66.306137 
L 328.592502 66.306137 
L 325.139553 66.306138 
L 320.462341 66.306138 
L 312.986432 66.306138 
L 307.960853 66.306138 
" clip-path="url(#pe7abbee798)" style="fill: none; stroke: #00a98d"/>
   </g>
   <g id="line2d_33">
    <path d="M 307.960853 66.304359 
L 307.960853 66.304435 
L 307.960852 66.304448 
L 307.960852 66.304449 
L 307.960851 66.304449 
L 307.960851 66.304449 
L 307.960849 66.304449 
L 307.960848 66.304449 
L 307.960844 66.304449 
L 307.960835 66.304449 
L 307.960807 66.304449 
L 307.960657 66.304449 
L 307.959157 66.304449 
L 307.944146 66.304452 
L 307.793098 66.304484 
L 307.116455 66.304618 
L 306.2436 66.304768 
L 305.154285 66.304926 
L 303.596068 66.305108 
L 301.591943 66.305286 
L 298.993923 66.305452 
L 295.434392 66.305605 
L 289.978391 66.305745 
L 279.255118 66.305869 
L 271.232216 66.305908 
" clip-path="url(#pe7abbee798)" style="fill: none; stroke: #8e971e"/>
   </g>
   <g id="line2d_34">
    <path d="M 307.960853 101.134328 
L 307.960853 71.465311 
L 307.960852 66.63999 
L 307.960852 66.343991 
L 307.960851 66.310564 
L 307.960851 66.305496 
L 307.960849 66.304628 
L 307.960848 66.304478 
L 307.960844 66.304455 
L 307.960835 66.304453 
L 307.960807 66.304453 
L 307.960657 66.304453 
L 307.959157 66.304453 
L 307.944146 66.304456 
L 307.793098 66.304488 
L 307.116455 66.304622 
L 306.2436 66.304771 
L 305.154285 66.304929 
L 303.596068 66.305111 
L 301.591943 66.305288 
L 298.993923 66.305454 
L 295.434392 66.305607 
L 289.978391 66.305746 
L 279.255118 66.30587 
L 271.232216 66.305909 
" clip-path="url(#pe7abbee798)" style="fill: none; stroke: #00a9cc"/>
   </g>
   <g id="line2d_35">
    <path d="M 307.960853 66.306607 
L 307.960853 66.306599 
L 307.960852 66.306598 
L 307.960852 66.306597 
L 307.960851 66.306597 
L 307.960851 66.306597 
L 307.960849 66.306597 
L 307.960848 66.306597 
L 307.960844 66.306597 
L 307.960835 66.306597 
L 307.960807 66.306597 
L 307.960657 66.306597 
L 307.959157 66.306597 
L 307.944146 66.306597 
L 307.793098 66.306594 
L 307.116455 66.30658 
L 306.2436 66.306565 
L 305.154285 66.306548 
L 303.596068 66.306529 
L 301.591943 66.306511 
L 298.993923 66.306494 
L 295.434392 66.306478 
L 289.978391 66.306464 
L 279.255118 66.306451 
L 271.232216 66.306447 
" clip-path="url(#pe7abbee798)" style="fill: none; stroke: #9b7fe9"/>
   </g>
   <g id="line2d_36">
    <path d="M 271.232216 66.304339 
L 271.232214 66.304383 
L 271.232208 66.304388 
L 271.2322 66.304389 
L 271.232187 66.304389 
L 271.232171 66.304389 
L 271.232146 66.304389 
L 271.232098 66.304389 
L 271.231998 66.304389 
L 271.23174 66.304389 
L 271.23073 66.304389 
L 271.223743 66.30439 
L 271.153672 66.304401 
L 270.431869 66.304507 
L 268.728775 66.304718 
L 266.477903 66.304929 
L 262.662208 66.305173 
L 256.452498 66.305399 
L 240.045081 66.305615 
L 234.503579 66.305641 
" clip-path="url(#pe7abbee798)" style="fill: none; stroke: #618df6"/>
   </g>
   <g id="line2d_37">
    <path d="M 271.232216 79.838093 
L 271.232214 67.963201 
L 271.232208 66.40944 
L 271.2322 66.315891 
L 271.232187 66.306128 
L 271.232171 66.304719 
L 271.232146 66.304483 
L 271.232098 66.304442 
L 271.231998 66.304436 
L 271.23174 66.304436 
L 271.23073 66.304436 
L 271.223743 66.304437 
L 271.153672 66.304447 
L 270.431869 66.304551 
L 268.728775 66.304757 
L 266.477903 66.304963 
L 262.662208 66.305202 
L 256.452498 66.305422 
L 240.045081 66.305633 
L 234.503579 66.305659 
" clip-path="url(#pe7abbee798)" style="fill: none; stroke: #f06073"/>
   </g>
   <g id="line2d_38">
    <path d="M 271.232216 66.307579 
L 271.232214 66.307555 
L 271.232208 66.307551 
L 271.2322 66.307551 
L 271.232187 66.307551 
L 271.232171 66.307551 
L 271.232146 66.307551 
L 271.232098 66.307551 
L 271.231998 66.307551 
L 271.23174 66.307551 
L 271.23073 66.307551 
L 271.223743 66.30755 
L 271.153672 66.307544 
L 270.431869 66.307483 
L 268.728775 66.307362 
L 266.477903 66.307241 
L 262.662208 66.307101 
L 256.452498 66.306972 
L 240.045081 66.306848 
L 234.503579 66.306833 
" clip-path="url(#pe7abbee798)" style="fill: none; stroke: #dd65b6"/>
   </g>
   <g id="line2d_39">
    <path d="M 234.503579 66.303858 
L 234.503506 66.303741 
L 234.503355 66.303728 
L 234.503142 66.303727 
L 234.502839 66.303727 
L 234.502409 66.303727 
L 234.501733 66.303727 
L 234.50051 66.303727 
L 234.497999 66.303727 
L 234.491892 66.303728 
L 234.469909 66.30373 
L 234.334216 66.303742 
L 232.895183 66.30386 
L 228.768446 66.304098 
L 221.597307 66.304318 
L 197.774942 66.304517 
" clip-path="url(#pe7abbee798)" style="fill: none; stroke: #6c9f33"/>
   </g>
   <g id="line2d_40">
    <path d="M 234.503579 46.765403 
L 234.503506 64.223612 
L 234.503355 66.184069 
L 234.503142 66.293278 
L 234.502839 66.302727 
L 234.502409 66.30393 
L 234.501733 66.304123 
L 234.50051 66.304157 
L 234.497999 66.304162 
L 234.491892 66.304163 
L 234.469909 66.304164 
L 234.334216 66.304173 
L 232.895183 66.304255 
L 228.768446 66.304421 
L 221.597307 66.304574 
L 197.774942 66.304713 
" clip-path="url(#pe7abbee798)" style="fill: none; stroke: #009afa"/>
   </g>
   <g id="line2d_41">
    <path d="M 234.503579 66.307861 
L 234.503506 66.308103 
L 234.503355 66.308131 
L 234.503142 66.308132 
L 234.502839 66.308132 
L 234.502409 66.308132 
L 234.501733 66.308132 
L 234.50051 66.308132 
L 234.497999 66.308131 
L 234.491892 66.30813 
L 234.469909 66.308126 
L 234.334216 66.3081 
L 232.895183 66.307857 
L 228.768446 66.307364 
L 221.597307 66.306909 
L 197.774942 66.306496 
" clip-path="url(#pe7abbee798)" style="fill: none; stroke: #e36f47"/>
   </g>
   <g id="line2d_42">
    <path d="M 197.774942 66.30371 
L 197.774439 66.303875 
L 197.772284 66.30407 
L 197.76849 66.304089 
L 197.763322 66.304091 
L 197.75615 66.304091 
L 197.747087 66.304091 
L 197.731835 66.304091 
L 197.702686 66.304091 
L 197.641933 66.304091 
L 197.490441 66.304091 
L 196.934191 66.304093 
L 193.023245 66.304101 
L 161.046305 66.304119 
" clip-path="url(#pe7abbee798)" style="fill: none; stroke: #3ea44e"/>
   </g>
   <g id="line2d_43">
    <path d="M 197.774942 98.502283 
L 197.774439 84.536672 
L 197.772284 68.05941 
L 197.76849 66.397753 
L 197.763322 66.311285 
L 197.75615 66.3051 
L 197.747087 66.304425 
L 197.731835 66.304334 
L 197.702686 66.304318 
L 197.641933 66.304315 
L 197.490441 66.304314 
L 196.934191 66.304309 
L 193.023245 66.304286 
L 161.046305 66.304239 
" clip-path="url(#pe7abbee798)" style="fill: none; stroke: #c371d2"/>
   </g>
   <g id="line2d_44">
    <path d="M 197.774942 66.306882 
L 197.774439 66.305859 
L 197.772284 66.304652 
L 197.76849 66.30453 
L 197.763322 66.304524 
L 197.75615 66.304523 
L 197.747087 66.304523 
L 197.731835 66.304523 
L 197.702686 66.304522 
L 197.641933 66.304521 
L 197.490441 66.304518 
L 196.934191 66.304509 
L 193.023245 66.304456 
L 161.046305 66.304351 
" clip-path="url(#pe7abbee798)" style="fill: none; stroke: #ac8e18"/>
   </g>
   <g id="line2d_45">
    <path d="M 161.046305 66.304745 
L 161.04252 66.305135 
L 161.013261 66.306311 
L 160.95858 66.306509 
L 160.879998 66.306518 
L 160.769617 66.306517 
L 160.630007 66.306515 
L 160.383655 66.306511 
L 159.892046 66.306504 
L 158.798329 66.306489 
L 155.549266 66.306452 
L 124.317669 66.306335 
" clip-path="url(#pe7abbee798)" style="fill: none; stroke: #00aaae"/>
   </g>
   <g id="line2d_46">
    <path d="M 161.046305 204.23548 
L 161.04252 173.931152 
L 161.013261 82.579004 
L 160.95858 67.1647 
L 160.879998 66.342632 
L 160.769617 66.293157 
L 160.630007 66.288525 
L 160.383655 66.288014 
L 159.892046 66.28799 
L 158.798329 66.288119 
L 155.549266 66.288477 
L 124.317669 66.2896 
" clip-path="url(#pe7abbee798)" style="fill: none; stroke: #ed5e93"/>
   </g>
   <g id="line2d_47">
    <path d="M 161.046305 66.30495 
L 161.04252 66.300933 
L 161.013261 66.288825 
L 160.95858 66.28679 
L 160.879998 66.286694 
L 160.769617 66.286705 
L 160.630007 66.286726 
L 160.383655 66.286765 
L 159.892046 66.286839 
L 158.798329 66.286993 
L 155.549266 66.287377 
L 124.317669 66.288576 
" clip-path="url(#pe7abbee798)" style="fill: none; stroke: #c68225"/>
   </g>
   <g id="line2d_48">
    <path d="M 124.317669 66.305193 
L 124.102897 66.306519 
L 123.410193 66.307382 
L 122.241389 66.307448 
L 120.379012 66.307448 
L 117.42415 66.307444 
L 111.32114 66.307437 
L 87.589032 66.307428 
" clip-path="url(#pe7abbee798)" style="fill: none; stroke: #00a98d"/>
   </g>
   <g id="line2d_49">
    <path d="M 124.317669 242.450372 
L 124.102897 139.138993 
L 123.410193 71.82712 
L 122.241389 66.563353 
L 120.379012 66.289405 
L 117.42415 66.268243 
L 111.32114 66.266014 
L 87.589032 66.265767 
" clip-path="url(#pe7abbee798)" style="fill: none; stroke: #8e971e"/>
   </g>
   <g id="line2d_50">
    <path d="M 124.317669 66.289943 
L 124.102897 66.275464 
L 123.410193 66.266044 
L 122.241389 66.265331 
L 120.379012 66.265329 
L 117.42415 66.265374 
L 111.32114 66.265445 
L 87.589032 66.265546 
" clip-path="url(#pe7abbee798)" style="fill: none; stroke: #00a9cc"/>
   </g>
   <g id="line2d_51">
    <path d="M 87.589032 66.308576 
L 80.201155 66.310313 
L 50.860395 66.310744 
" clip-path="url(#pe7abbee798)" style="fill: none; stroke: #9b7fe9"/>
   </g>
   <g id="line2d_52">
    <path d="M 87.589032 240.612185 
L 80.201155 106.711196 
L 50.860395 73.345181 
" clip-path="url(#pe7abbee798)" style="fill: none; stroke: #618df6"/>
   </g>
   <g id="line2d_53">
    <path d="M 87.589032 66.265177 
L 80.201155 66.24635 
L 50.860395 66.241673 
" clip-path="url(#pe7abbee798)" style="fill: none; stroke: #f06073"/>
   </g>
  </g>
 </g>
 <defs>
  <clipPath id="pe7abbee798">
   <rect x="39.841804" y="24.674646" width="389.32355" height="224.118709"/>
  </clipPath>
 </defs>
</svg>
