<?xml version="1.0" encoding="utf-8"?>
<svg xmlns="http://www.w3.org/2000/svg" xmlns:xlink="http://www.w3.org/1999/xlink" width="400" height="400" viewBox="0 0 1600 1600">
<defs>
  <clipPath id="clip150">
    <rect x="0" y="0" width="1600" height="1600"/>
  </clipPath>
</defs>
<path clip-path="url(#clip150)" d="
M0 1600 L1600 1600 L1600 0 L0 0  Z
  " fill="#ffffff" fill-rule="evenodd" fill-opacity="1"/>
<defs>
  <clipPath id="clip151">
    <rect x="320" y="160" width="1121" height="1121"/>
  </clipPath>
</defs>
<path clip-path="url(#clip150)" d="
M352.176 523.82 L1552.76 523.82 L1552.76 47.2441 L352.176 47.2441  Z
  " fill="#ffffff" fill-rule="evenodd" fill-opacity="1"/>
<defs>
  <clipPath id="clip152">
    <rect x="352" y="47" width="1202" height="478"/>
  </clipPath>
</defs>
<polyline clip-path="url(#clip152)" style="stroke:#000000; stroke-linecap:butt; stroke-linejoin:round; stroke-width:2; stroke-opacity:0.1; fill:none" points="
  382.379,523.82 382.379,47.2441 
  "/>
<polyline clip-path="url(#clip152)" style="stroke:#000000; stroke-linecap:butt; stroke-linejoin:round; stroke-width:2; stroke-opacity:0.1; fill:none" points="
  759.92,523.82 759.92,47.2441 
  "/>
<polyline clip-path="url(#clip152)" style="stroke:#000000; stroke-linecap:butt; stroke-linejoin:round; stroke-width:2; stroke-opacity:0.1; fill:none" points="
  1137.46,523.82 1137.46,47.2441 
  "/>
<polyline clip-path="url(#clip152)" style="stroke:#000000; stroke-linecap:butt; stroke-linejoin:round; stroke-width:2; stroke-opacity:0.1; fill:none" points="
  1515,523.82 1515,47.2441 
  "/>
<polyline clip-path="url(#clip150)" style="stroke:#000000; stroke-linecap:butt; stroke-linejoin:round; stroke-width:4; stroke-opacity:1; fill:none" points="
  352.176,523.82 1552.76,523.82 
  "/>
<polyline clip-path="url(#clip150)" style="stroke:#000000; stroke-linecap:butt; stroke-linejoin:round; stroke-width:4; stroke-opacity:1; fill:none" points="
  352.176,47.2441 1552.76,47.2441 
  "/>
<polyline clip-path="url(#clip150)" style="stroke:#000000; stroke-linecap:butt; stroke-linejoin:round; stroke-width:4; stroke-opacity:1; fill:none" points="
  382.379,523.82 382.379,504.922 
  "/>
<polyline clip-path="url(#clip150)" style="stroke:#000000; stroke-linecap:butt; stroke-linejoin:round; stroke-width:4; stroke-opacity:1; fill:none" points="
  759.92,523.82 759.92,504.922 
  "/>
<polyline clip-path="url(#clip150)" style="stroke:#000000; stroke-linecap:butt; stroke-linejoin:round; stroke-width:4; stroke-opacity:1; fill:none" points="
  1137.46,523.82 1137.46,504.922 
  "/>
<polyline clip-path="url(#clip150)" style="stroke:#000000; stroke-linecap:butt; stroke-linejoin:round; stroke-width:4; stroke-opacity:1; fill:none" points="
  1515,523.82 1515,504.922 
  "/>
<path clip-path="url(#clip150)" d="M382.379 554.198 Q376.962 554.198 374.219 559.545 Q371.511 564.858 371.511 575.552 Q371.511 586.212 374.219 591.559 Q376.962 596.871 382.379 596.871 Q387.83 596.871 390.539 591.559 Q393.282 586.212 393.282 575.552 Q393.282 564.858 390.539 559.545 Q387.83 554.198 382.379 554.198 M382.379 548.642 Q391.094 548.642 395.678 555.552 Q400.296 562.427 400.296 575.552 Q400.296 588.642 395.678 595.552 Q391.094 602.427 382.379 602.427 Q373.664 602.427 369.046 595.552 Q364.463 588.642 364.463 575.552 Q364.463 562.427 369.046 555.552 Q373.664 548.642 382.379 548.642 Z" fill="#000000" fill-rule="evenodd" fill-opacity="1" /><path clip-path="url(#clip150)" d="M699.33 595.517 L710.788 595.517 L710.788 555.969 L698.323 558.469 L698.323 552.08 L710.719 549.58 L717.733 549.58 L717.733 595.517 L729.191 595.517 L729.191 601.42 L699.33 601.42 L699.33 595.517 Z" fill="#000000" fill-rule="evenodd" fill-opacity="1" /><path clip-path="url(#clip150)" d="M758.358 554.198 Q752.941 554.198 750.198 559.545 Q747.49 564.858 747.49 575.552 Q747.49 586.212 750.198 591.559 Q752.941 596.871 758.358 596.871 Q763.809 596.871 766.517 591.559 Q769.26 586.212 769.26 575.552 Q769.26 564.858 766.517 559.545 Q763.809 554.198 758.358 554.198 M758.358 548.642 Q767.073 548.642 771.656 555.552 Q776.274 562.427 776.274 575.552 Q776.274 588.642 771.656 595.552 Q767.073 602.427 758.358 602.427 Q749.642 602.427 745.024 595.552 Q740.441 588.642 740.441 575.552 Q740.441 562.427 745.024 555.552 Q749.642 548.642 758.358 548.642 Z" fill="#000000" fill-rule="evenodd" fill-opacity="1" /><path clip-path="url(#clip150)" d="M803.6 554.198 Q798.184 554.198 795.441 559.545 Q792.732 564.858 792.732 575.552 Q792.732 586.212 795.441 591.559 Q798.184 596.871 803.6 596.871 Q809.052 596.871 811.76 591.559 Q814.503 586.212 814.503 575.552 Q814.503 564.858 811.76 559.545 Q809.052 554.198 803.6 554.198 M803.6 548.642 Q812.316 548.642 816.899 555.552 Q821.517 562.427 821.517 575.552 Q821.517 588.642 816.899 595.552 Q812.316 602.427 803.6 602.427 Q794.885 602.427 790.267 595.552 Q785.684 588.642 785.684 575.552 Q785.684 562.427 790.267 555.552 Q794.885 548.642 803.6 548.642 Z" fill="#000000" fill-rule="evenodd" fill-opacity="1" /><path clip-path="url(#clip150)" d="M1083 595.517 L1107.48 595.517 L1107.48 601.42 L1074.56 601.42 L1074.56 595.517 Q1078.55 591.385 1085.43 584.441 Q1092.34 577.462 1094.11 575.448 Q1097.48 571.663 1098.8 569.059 Q1100.15 566.42 1100.15 563.885 Q1100.15 559.753 1097.24 557.149 Q1094.35 554.545 1089.7 554.545 Q1086.4 554.545 1082.72 555.691 Q1079.08 556.837 1074.91 559.163 L1074.91 552.08 Q1079.15 550.378 1082.83 549.51 Q1086.51 548.642 1089.56 548.642 Q1097.62 548.642 1102.41 552.67 Q1107.2 556.698 1107.2 563.434 Q1107.2 566.628 1105.99 569.51 Q1104.8 572.357 1101.65 576.246 Q1100.78 577.253 1096.12 582.08 Q1091.47 586.871 1083 595.517 Z" fill="#000000" fill-rule="evenodd" fill-opacity="1" /><path clip-path="url(#clip150)" d="M1137.2 554.198 Q1131.78 554.198 1129.04 559.545 Q1126.33 564.858 1126.33 575.552 Q1126.33 586.212 1129.04 591.559 Q1131.78 596.871 1137.2 596.871 Q1142.65 596.871 1145.36 591.559 Q1148.1 586.212 1148.1 575.552 Q1148.1 564.858 1145.36 559.545 Q1142.65 554.198 1137.2 554.198 M1137.2 548.642 Q1145.92 548.642 1150.5 555.552 Q1155.12 562.427 1155.12 575.552 Q1155.12 588.642 1150.5 595.552 Q1145.92 602.427 1137.2 602.427 Q1128.49 602.427 1123.87 595.552 Q1119.28 588.642 1119.28 575.552 Q1119.28 562.427 1123.87 555.552 Q1128.49 548.642 1137.2 548.642 Z" fill="#000000" fill-rule="evenodd" fill-opacity="1" /><path clip-path="url(#clip150)" d="M1182.44 554.198 Q1177.03 554.198 1174.28 559.545 Q1171.58 564.858 1171.58 575.552 Q1171.58 586.212 1174.28 591.559 Q1177.03 596.871 1182.44 596.871 Q1187.89 596.871 1190.6 591.559 Q1193.35 586.212 1193.35 575.552 Q1193.35 564.858 1190.6 559.545 Q1187.89 554.198 1182.44 554.198 M1182.44 548.642 Q1191.16 548.642 1195.74 555.552 Q1200.36 562.427 1200.36 575.552 Q1200.36 588.642 1195.74 595.552 Q1191.16 602.427 1182.44 602.427 Q1173.73 602.427 1169.11 595.552 Q1164.53 588.642 1164.53 575.552 Q1164.53 562.427 1169.11 555.552 Q1173.73 548.642 1182.44 548.642 Z" fill="#000000" fill-rule="evenodd" fill-opacity="1" /><path clip-path="url(#clip150)" d="M1475.64 573.469 Q1480.68 574.545 1483.49 577.948 Q1486.34 581.351 1486.34 586.35 Q1486.34 594.024 1481.06 598.225 Q1475.78 602.427 1466.06 602.427 Q1462.8 602.427 1459.33 601.767 Q1455.89 601.142 1452.21 599.857 L1452.21 593.087 Q1455.12 594.788 1458.6 595.656 Q1462.07 596.524 1465.85 596.524 Q1472.45 596.524 1475.89 593.92 Q1479.36 591.316 1479.36 586.35 Q1479.36 581.767 1476.13 579.198 Q1472.94 576.594 1467.21 576.594 L1461.17 576.594 L1461.17 570.83 L1467.48 570.83 Q1472.66 570.83 1475.4 568.781 Q1478.14 566.698 1478.14 562.809 Q1478.14 558.816 1475.3 556.698 Q1472.48 554.545 1467.21 554.545 Q1464.33 554.545 1461.03 555.17 Q1457.73 555.795 1453.77 557.115 L1453.77 550.865 Q1457.76 549.753 1461.23 549.198 Q1464.74 548.642 1467.83 548.642 Q1475.82 548.642 1480.47 552.288 Q1485.12 555.899 1485.12 562.08 Q1485.12 566.385 1482.66 569.371 Q1480.19 572.323 1475.64 573.469 Z" fill="#000000" fill-rule="evenodd" fill-opacity="1" /><path clip-path="url(#clip150)" d="M1514.64 554.198 Q1509.22 554.198 1506.48 559.545 Q1503.77 564.858 1503.77 575.552 Q1503.77 586.212 1506.48 591.559 Q1509.22 596.871 1514.64 596.871 Q1520.09 596.871 1522.8 591.559 Q1525.54 586.212 1525.54 575.552 Q1525.54 564.858 1522.8 559.545 Q1520.09 554.198 1514.64 554.198 M1514.64 548.642 Q1523.35 548.642 1527.94 555.552 Q1532.55 562.427 1532.55 575.552 Q1532.55 588.642 1527.94 595.552 Q1523.35 602.427 1514.64 602.427 Q1505.92 602.427 1501.3 595.552 Q1496.72 588.642 1496.72 575.552 Q1496.72 562.427 1501.3 555.552 Q1505.92 548.642 1514.64 548.642 Z" fill="#000000" fill-rule="evenodd" fill-opacity="1" /><path clip-path="url(#clip150)" d="M1559.88 554.198 Q1554.46 554.198 1551.72 559.545 Q1549.01 564.858 1549.01 575.552 Q1549.01 586.212 1551.72 591.559 Q1554.46 596.871 1559.88 596.871 Q1565.33 596.871 1568.04 591.559 Q1570.78 586.212 1570.78 575.552 Q1570.78 564.858 1568.04 559.545 Q1565.33 554.198 1559.88 554.198 M1559.88 548.642 Q1568.6 548.642 1573.18 555.552 Q1577.8 562.427 1577.8 575.552 Q1577.8 588.642 1573.18 595.552 Q1568.6 602.427 1559.88 602.427 Q1551.16 602.427 1546.55 595.552 Q1541.96 588.642 1541.96 575.552 Q1541.96 562.427 1546.55 555.552 Q1551.16 548.642 1559.88 548.642 Z" fill="#000000" fill-rule="evenodd" fill-opacity="1" /><path clip-path="url(#clip150)" d="M789.573 639.404 L833.277 639.404 L833.277 647.274 L798.925 647.274 L798.925 667.737 L831.842 667.737 L831.842 675.607 L798.925 675.607 L798.925 700.654 L834.11 700.654 L834.11 708.524 L789.573 708.524 L789.573 639.404 Z" fill="#000000" fill-rule="evenodd" fill-opacity="1" /><path clip-path="url(#clip150)" d="M857.351 700.746 L857.351 728.246 L848.786 728.246 L848.786 656.672 L857.351 656.672 L857.351 664.543 Q860.036 659.913 864.11 657.691 Q868.23 655.422 873.925 655.422 Q883.369 655.422 889.249 662.922 Q895.175 670.422 895.175 682.644 Q895.175 694.867 889.249 702.366 Q883.369 709.866 873.925 709.866 Q868.23 709.866 864.11 707.644 Q860.036 705.376 857.351 700.746 M886.332 682.644 Q886.332 673.246 882.443 667.922 Q878.601 662.552 871.841 662.552 Q865.082 662.552 861.193 667.922 Q857.351 673.246 857.351 682.644 Q857.351 692.042 861.193 697.413 Q865.082 702.737 871.841 702.737 Q878.601 702.737 882.443 697.413 Q886.332 692.042 886.332 682.644 Z" fill="#000000" fill-rule="evenodd" fill-opacity="1" /><path clip-path="url(#clip150)" d="M929.387 662.644 Q922.535 662.644 918.554 668.015 Q914.573 673.339 914.573 682.644 Q914.573 691.95 918.508 697.32 Q922.489 702.644 929.387 702.644 Q936.193 702.644 940.174 697.274 Q944.156 691.904 944.156 682.644 Q944.156 673.431 940.174 668.061 Q936.193 662.644 929.387 662.644 M929.387 655.422 Q940.498 655.422 946.841 662.644 Q953.183 669.867 953.183 682.644 Q953.183 695.376 946.841 702.644 Q940.498 709.866 929.387 709.866 Q918.23 709.866 911.887 702.644 Q905.591 695.376 905.591 682.644 Q905.591 669.867 911.887 662.644 Q918.23 655.422 929.387 655.422 Z" fill="#000000" fill-rule="evenodd" fill-opacity="1" /><path clip-path="url(#clip150)" d="M1004.62 658.663 L1004.62 666.626 Q1001.01 664.635 997.35 663.663 Q993.739 662.644 990.035 662.644 Q981.748 662.644 977.165 667.922 Q972.582 673.154 972.582 682.644 Q972.582 692.135 977.165 697.413 Q981.748 702.644 990.035 702.644 Q993.739 702.644 997.35 701.672 Q1001.01 700.654 1004.62 698.663 L1004.62 706.533 Q1001.05 708.2 997.211 709.033 Q993.415 709.866 989.109 709.866 Q977.396 709.866 970.498 702.505 Q963.6 695.144 963.6 682.644 Q963.6 669.959 970.544 662.691 Q977.535 655.422 989.665 655.422 Q993.6 655.422 997.35 656.256 Q1001.1 657.043 1004.62 658.663 Z" fill="#000000" fill-rule="evenodd" fill-opacity="1" /><path clip-path="url(#clip150)" d="M1062.53 677.228 L1062.53 708.524 L1054.02 708.524 L1054.02 677.505 Q1054.02 670.144 1051.15 666.487 Q1048.28 662.83 1042.53 662.83 Q1035.64 662.83 1031.66 667.228 Q1027.67 671.626 1027.67 679.218 L1027.67 708.524 L1019.11 708.524 L1019.11 636.487 L1027.67 636.487 L1027.67 664.728 Q1030.73 660.052 1034.85 657.737 Q1039.02 655.422 1044.43 655.422 Q1053.37 655.422 1057.95 660.978 Q1062.53 666.487 1062.53 677.228 Z" fill="#000000" fill-rule="evenodd" fill-opacity="1" /><path clip-path="url(#clip150)" d="M1112.58 658.2 L1112.58 666.256 Q1108.97 664.404 1105.08 663.478 Q1101.19 662.552 1097.03 662.552 Q1090.68 662.552 1087.49 664.496 Q1084.34 666.441 1084.34 670.33 Q1084.34 673.293 1086.61 675.006 Q1088.88 676.672 1095.73 678.2 L1098.65 678.848 Q1107.72 680.793 1111.52 684.357 Q1115.36 687.876 1115.36 694.218 Q1115.36 701.441 1109.62 705.653 Q1103.92 709.866 1093.92 709.866 Q1089.76 709.866 1085.22 709.033 Q1080.73 708.246 1075.73 706.626 L1075.73 697.829 Q1080.45 700.283 1085.03 701.533 Q1089.62 702.737 1094.11 702.737 Q1100.13 702.737 1103.37 700.7 Q1106.61 698.616 1106.61 694.867 Q1106.61 691.394 1104.25 689.542 Q1101.93 687.691 1094.02 685.978 L1091.05 685.283 Q1083.14 683.617 1079.62 680.191 Q1076.1 676.718 1076.1 670.7 Q1076.1 663.385 1081.28 659.404 Q1086.47 655.422 1096.01 655.422 Q1100.73 655.422 1104.9 656.117 Q1109.06 656.811 1112.58 658.2 Z" fill="#000000" fill-rule="evenodd" fill-opacity="1" /><polyline clip-path="url(#clip152)" style="stroke:#000000; stroke-linecap:butt; stroke-linejoin:round; stroke-width:2; stroke-opacity:0.1; fill:none" points="
  352.176,389.023 1552.76,389.023 
  "/>
<polyline clip-path="url(#clip152)" style="stroke:#000000; stroke-linecap:butt; stroke-linejoin:round; stroke-width:2; stroke-opacity:0.1; fill:none" points="
  352.176,252.534 1552.76,252.534 
  "/>
<polyline clip-path="url(#clip152)" style="stroke:#000000; stroke-linecap:butt; stroke-linejoin:round; stroke-width:2; stroke-opacity:0.1; fill:none" points="
  352.176,116.045 1552.76,116.045 
  "/>
<polyline clip-path="url(#clip150)" style="stroke:#000000; stroke-linecap:butt; stroke-linejoin:round; stroke-width:4; stroke-opacity:1; fill:none" points="
  352.176,523.82 352.176,47.2441 
  "/>
<polyline clip-path="url(#clip150)" style="stroke:#000000; stroke-linecap:butt; stroke-linejoin:round; stroke-width:4; stroke-opacity:1; fill:none" points="
  1552.76,523.82 1552.76,47.2441 
  "/>
<polyline clip-path="url(#clip150)" style="stroke:#000000; stroke-linecap:butt; stroke-linejoin:round; stroke-width:4; stroke-opacity:1; fill:none" points="
  352.176,389.023 371.073,389.023 
  "/>
<polyline clip-path="url(#clip150)" style="stroke:#000000; stroke-linecap:butt; stroke-linejoin:round; stroke-width:4; stroke-opacity:1; fill:none" points="
  352.176,252.534 371.073,252.534 
  "/>
<polyline clip-path="url(#clip150)" style="stroke:#000000; stroke-linecap:butt; stroke-linejoin:round; stroke-width:4; stroke-opacity:1; fill:none" points="
  352.176,116.045 371.073,116.045 
  "/>
<path clip-path="url(#clip150)" d="M175.427 418.712 L186.885 418.712 L186.885 379.163 L174.42 381.663 L174.42 375.274 L186.816 372.774 L193.83 372.774 L193.83 418.712 L205.288 418.712 L205.288 424.614 L175.427 424.614 L175.427 418.712 Z" fill="#000000" fill-rule="evenodd" fill-opacity="1" /><path clip-path="url(#clip150)" d="M234.455 377.392 Q229.038 377.392 226.295 382.74 Q223.587 388.052 223.587 398.746 Q223.587 409.406 226.295 414.753 Q229.038 420.066 234.455 420.066 Q239.906 420.066 242.614 414.753 Q245.357 409.406 245.357 398.746 Q245.357 388.052 242.614 382.74 Q239.906 377.392 234.455 377.392 M234.455 371.837 Q243.17 371.837 247.753 378.746 Q252.371 385.621 252.371 398.746 Q252.371 411.837 247.753 418.746 Q243.17 425.621 234.455 425.621 Q225.739 425.621 221.121 418.746 Q216.538 411.837 216.538 398.746 Q216.538 385.621 221.121 378.746 Q225.739 371.837 234.455 371.837 Z" fill="#000000" fill-rule="evenodd" fill-opacity="1" /><path clip-path="url(#clip150)" d="M252.371 362.989 L288.538 362.989 L288.538 367.785 L252.371 367.785 L252.371 362.989 Z" fill="#000000" fill-rule="evenodd" fill-opacity="1" /><path clip-path="url(#clip150)" d="M316.496 346.344 L302.108 368.829 L316.496 368.829 L316.496 346.344 M315.001 341.379 L322.167 341.379 L322.167 368.829 L328.176 368.829 L328.176 373.568 L322.167 373.568 L322.167 383.499 L316.496 383.499 L316.496 373.568 L297.482 373.568 L297.482 368.067 L315.001 341.379 Z" fill="#000000" fill-rule="evenodd" fill-opacity="1" /><path clip-path="url(#clip150)" d="M176.809 282.223 L188.268 282.223 L188.268 242.674 L175.803 245.174 L175.803 238.785 L188.198 236.285 L195.212 236.285 L195.212 282.223 L206.67 282.223 L206.67 288.125 L176.809 288.125 L176.809 282.223 Z" fill="#000000" fill-rule="evenodd" fill-opacity="1" /><path clip-path="url(#clip150)" d="M235.837 240.903 Q230.42 240.903 227.677 246.251 Q224.969 251.563 224.969 262.258 Q224.969 272.917 227.677 278.264 Q230.42 283.577 235.837 283.577 Q241.288 283.577 243.997 278.264 Q246.74 272.917 246.74 262.258 Q246.74 251.563 243.997 246.251 Q241.288 240.903 235.837 240.903 M235.837 235.348 Q244.552 235.348 249.135 242.258 Q253.753 249.133 253.753 262.258 Q253.753 275.348 249.135 282.257 Q244.552 289.132 235.837 289.132 Q227.122 289.132 222.504 282.257 Q217.92 275.348 217.92 262.258 Q217.92 249.133 222.504 242.258 Q227.122 235.348 235.837 235.348 Z" fill="#000000" fill-rule="evenodd" fill-opacity="1" /><path clip-path="url(#clip150)" d="M253.753 226.5 L289.921 226.5 L289.921 231.296 L253.753 231.296 L253.753 226.5 Z" fill="#000000" fill-rule="evenodd" fill-opacity="1" /><path clip-path="url(#clip150)" d="M319.487 224.299 Q323.577 225.174 325.862 227.939 Q328.176 230.704 328.176 234.766 Q328.176 241.001 323.888 244.414 Q319.6 247.828 311.7 247.828 Q309.048 247.828 306.227 247.292 Q303.434 246.784 300.444 245.74 L300.444 240.239 Q302.814 241.621 305.635 242.327 Q308.456 243.032 311.531 243.032 Q316.891 243.032 319.684 240.916 Q322.505 238.8 322.505 234.766 Q322.505 231.042 319.882 228.954 Q317.286 226.839 312.631 226.839 L307.722 226.839 L307.722 222.155 L312.857 222.155 Q317.06 222.155 319.289 220.491 Q321.518 218.798 321.518 215.639 Q321.518 212.394 319.205 210.673 Q316.919 208.924 312.631 208.924 Q310.29 208.924 307.61 209.432 Q304.929 209.94 301.713 211.012 L301.713 205.934 Q304.958 205.031 307.779 204.58 Q310.628 204.128 313.139 204.128 Q319.628 204.128 323.408 207.09 Q327.188 210.024 327.188 215.046 Q327.188 218.544 325.185 220.971 Q323.182 223.368 319.487 224.299 Z" fill="#000000" fill-rule="evenodd" fill-opacity="1" /><path clip-path="url(#clip150)" d="M177.966 145.734 L189.424 145.734 L189.424 106.185 L176.959 108.685 L176.959 102.297 L189.355 99.7966 L196.369 99.7966 L196.369 145.734 L207.827 145.734 L207.827 151.637 L177.966 151.637 L177.966 145.734 Z" fill="#000000" fill-rule="evenodd" fill-opacity="1" /><path clip-path="url(#clip150)" d="M236.994 104.415 Q231.577 104.415 228.834 109.762 Q226.126 115.074 226.126 125.769 Q226.126 136.428 228.834 141.776 Q231.577 147.088 236.994 147.088 Q242.445 147.088 245.153 141.776 Q247.896 136.428 247.896 125.769 Q247.896 115.074 245.153 109.762 Q242.445 104.415 236.994 104.415 M236.994 98.8591 Q245.709 98.8591 250.292 105.769 Q254.91 112.644 254.91 125.769 Q254.91 138.859 250.292 145.769 Q245.709 152.644 236.994 152.644 Q228.278 152.644 223.66 145.769 Q219.077 138.859 219.077 125.769 Q219.077 112.644 223.66 105.769 Q228.278 98.8591 236.994 98.8591 Z" fill="#000000" fill-rule="evenodd" fill-opacity="1" /><path clip-path="url(#clip150)" d="M254.91 90.0112 L291.078 90.0112 L291.078 94.8072 L254.91 94.8072 L254.91 90.0112 Z" fill="#000000" fill-rule="evenodd" fill-opacity="1" /><path clip-path="url(#clip150)" d="M308.287 105.725 L328.176 105.725 L328.176 110.521 L301.431 110.521 L301.431 105.725 Q304.676 102.368 310.261 96.7255 Q315.876 91.055 317.314 89.4187 Q320.051 86.3437 321.123 84.2278 Q322.223 82.0837 322.223 80.0242 Q322.223 76.6671 319.853 74.5512 Q317.512 72.4353 313.731 72.4353 Q311.051 72.4353 308.061 73.3663 Q305.099 74.2973 301.713 76.1875 L301.713 70.4323 Q305.155 69.0499 308.146 68.3446 Q311.136 67.6393 313.619 67.6393 Q320.164 67.6393 324.057 70.9119 Q327.95 74.1844 327.95 79.6575 Q327.95 82.253 326.963 84.5945 Q326.004 86.9079 323.436 90.0676 Q322.731 90.8857 318.951 94.8072 Q315.17 98.7004 308.287 105.725 Z" fill="#000000" fill-rule="evenodd" fill-opacity="1" /><path clip-path="url(#clip150)" d="M134.499 388.818 Q143.758 392.43 146.582 395.855 Q149.406 399.281 149.406 405.022 L149.406 411.828 L142.277 411.828 L142.277 406.828 Q142.277 403.309 140.61 401.365 Q138.943 399.42 132.74 397.059 L128.851 395.531 L77.8326 416.503 L77.8326 407.476 L118.388 391.272 L77.8326 375.069 L77.8326 366.041 L134.499 388.818 Z" fill="#000000" fill-rule="evenodd" fill-opacity="1" /><path clip-path="url(#clip150)" d="M57.6475 324.143 L57.6475 315.624 L129.684 315.624 L129.684 324.143 L57.6475 324.143 Z" fill="#000000" fill-rule="evenodd" fill-opacity="1" /><path clip-path="url(#clip150)" d="M83.8048 277.708 Q83.8048 284.56 89.1751 288.541 Q94.4992 292.523 103.805 292.523 Q113.11 292.523 118.481 288.588 Q123.805 284.606 123.805 277.708 Q123.805 270.902 118.434 266.921 Q113.064 262.939 103.805 262.939 Q94.5918 262.939 89.2214 266.921 Q83.8048 270.902 83.8048 277.708 M76.5826 277.708 Q76.5826 266.597 83.8048 260.254 Q91.027 253.912 103.805 253.912 Q116.536 253.912 123.805 260.254 Q131.027 266.597 131.027 277.708 Q131.027 288.865 123.805 295.208 Q116.536 301.504 103.805 301.504 Q91.027 301.504 83.8048 295.208 Q76.5826 288.865 76.5826 277.708 Z" fill="#000000" fill-rule="evenodd" fill-opacity="1" /><path clip-path="url(#clip150)" d="M79.3604 206.736 L87.4159 206.736 Q85.564 210.347 84.6381 214.236 Q83.7122 218.125 83.7122 222.292 Q83.7122 228.634 85.6566 231.829 Q87.601 234.977 91.4899 234.977 Q94.4529 234.977 96.1658 232.708 Q97.8325 230.44 99.3602 223.588 L100.008 220.671 Q101.953 211.597 105.518 207.801 Q109.036 203.958 115.379 203.958 Q122.601 203.958 126.814 209.699 Q131.027 215.393 131.027 225.393 Q131.027 229.56 130.193 234.097 Q129.406 238.588 127.786 243.588 L118.99 243.588 Q121.443 238.866 122.693 234.282 Q123.897 229.699 123.897 225.208 Q123.897 219.19 121.86 215.949 Q119.777 212.708 116.027 212.708 Q112.555 212.708 110.703 215.069 Q108.851 217.384 107.138 225.301 L106.444 228.264 Q104.777 236.18 101.351 239.699 Q97.8788 243.217 91.8603 243.217 Q84.5455 243.217 80.5641 238.032 Q76.5826 232.847 76.5826 223.31 Q76.5826 218.588 77.277 214.421 Q77.9715 210.255 79.3604 206.736 Z" fill="#000000" fill-rule="evenodd" fill-opacity="1" /><path clip-path="url(#clip150)" d="M79.3604 157.338 L87.4159 157.338 Q85.564 160.949 84.6381 164.838 Q83.7122 168.727 83.7122 172.894 Q83.7122 179.236 85.6566 182.431 Q87.601 185.579 91.4899 185.579 Q94.4529 185.579 96.1658 183.31 Q97.8325 181.042 99.3602 174.19 L100.008 171.273 Q101.953 162.199 105.518 158.403 Q109.036 154.56 115.379 154.56 Q122.601 154.56 126.814 160.301 Q131.027 165.996 131.027 175.996 Q131.027 180.162 130.193 184.699 Q129.406 189.19 127.786 194.19 L118.99 194.19 Q121.443 189.468 122.693 184.884 Q123.897 180.301 123.897 175.81 Q123.897 169.792 121.86 166.551 Q119.777 163.31 116.027 163.31 Q112.555 163.31 110.703 165.671 Q108.851 167.986 107.138 175.903 L106.444 178.866 Q104.777 186.782 101.351 190.301 Q97.8788 193.819 91.8603 193.819 Q84.5455 193.819 80.5641 188.634 Q76.5826 183.449 76.5826 173.912 Q76.5826 169.19 77.277 165.023 Q77.9715 160.857 79.3604 157.338 Z" fill="#000000" fill-rule="evenodd" fill-opacity="1" /><polyline clip-path="url(#clip152)" style="stroke:#000000; stroke-linecap:butt; stroke-linejoin:round; stroke-width:4; stroke-opacity:1; fill:none" points="
  386.155,60.7321 389.93,116.69 393.705,173.719 397.481,212.475 401.256,212.618 405.032,200.444 408.807,194.836 412.582,197.14 416.358,203.975 420.133,209.825 
  423.909,209.873 427.684,206.167 431.459,204.971 435.235,209.1 439.01,218.441 442.786,232.36 446.561,250.513 450.336,272.926 454.112,300.11 457.887,333.203 
  461.663,374.23 465.438,425.381 469.214,477.085 472.989,476.986 476.764,437.433 480.54,403.272 484.315,378.7 488.091,361.202 491.866,348.783 495.641,340.183 
  499.417,334.6 503.192,331.49 506.968,330.493 510.743,331.351 514.518,333.882 518.294,337.947 522.069,343.436 525.845,350.234 529.62,358.221 533.395,367.222 
  537.171,376.965 540.946,387.05 544.722,396.894 548.497,405.706 552.273,412.669 556.048,417.12 559.823,418.858 563.599,418.254 567.374,416.037 571.15,413.061 
  574.925,410.066 578.7,407.565 582.476,405.879 586.251,405.183 590.027,405.544 593.802,406.952 597.577,409.344 601.353,412.618 605.128,416.634 608.904,421.219 
  612.679,426.169 616.454,431.25 620.23,436.208 624.005,440.792 627.781,444.79 631.556,448.059 635.332,450.555 639.107,452.343 642.882,453.581 646.658,454.485 
  650.433,455.288 654.209,456.202 657.984,457.395 661.759,458.977 665.535,461.002 669.31,463.463 673.086,466.306 676.861,469.431 680.636,472.556 684.412,475.727 
  688.187,478.799 691.963,481.642 695.738,484.162 699.513,486.309 703.289,488.078 707.064,489.512 710.84,490.7 714.615,491.737 718.391,492.714 722.166,493.707 
  725.941,494.771 729.717,495.929 733.492,497.183 737.268,498.505 741.043,499.855 744.818,501.183 748.594,502.434 752.369,503.563 756.145,504.539 759.92,505.346 
  763.695,505.99 767.471,506.49 771.246,506.878 775.022,507.19 778.797,507.461 782.572,507.717 786.348,507.978 790.123,508.252 793.899,508.538 797.674,508.829 
  801.45,509.111 805.225,509.371 809,509.598 812.776,509.783 816.551,509.924 820.327,510.022 824.102,510.084 827.877,510.119 831.653,510.135 835.428,510.143 
  839.204,510.15 842.979,510.16 846.754,510.178 850.53,510.201 854.305,510.229 858.081,510.259 861.856,510.286 865.631,510.307 869.407,510.322 873.182,510.329 
  876.958,510.329 880.733,510.323 884.509,510.315 888.284,510.305 892.059,510.296 895.835,510.29 899.61,510.286 903.386,510.286 907.161,510.288 910.936,510.292 
  914.712,510.297 918.487,510.301 922.263,510.304 926.038,510.306 929.813,510.307 933.589,510.306 937.364,510.305 941.14,510.304 944.915,510.304 948.69,510.304 
  952.466,510.304 956.241,510.306 960.017,510.308 963.792,510.311 967.568,510.313 971.343,510.316 975.118,510.318 978.894,510.319 982.669,510.321 986.445,510.321 
  990.22,510.322 993.995,510.323 997.771,510.323 1001.55,510.324 1005.32,510.325 1009.1,510.326 1012.87,510.326 1016.65,510.327 1020.42,510.328 1024.2,510.329 
  1027.97,510.33 1031.75,510.33 1035.52,510.33 1039.3,510.33 1043.08,510.331 1046.85,510.331 1050.63,510.331 1054.4,510.331 1058.18,510.331 1061.95,510.331 
  1065.73,510.331 1069.5,510.332 1073.28,510.332 1077.05,510.332 1080.83,510.332 1084.61,510.332 1088.38,510.332 1092.16,510.332 1095.93,510.332 1099.71,510.332 
  1103.48,510.332 1107.26,510.332 1111.03,510.332 1114.81,510.332 1118.58,510.332 1122.36,510.332 1126.13,510.332 1129.91,510.332 1133.69,510.332 1137.46,510.332 
  1141.24,510.332 1145.01,510.332 1148.79,510.332 1152.56,510.332 1156.34,510.332 1160.11,510.332 1163.89,510.332 1167.66,510.332 1171.44,510.332 1175.22,510.332 
  1178.99,510.332 1182.77,510.332 1186.54,510.332 1190.32,510.332 1194.09,510.332 1197.87,510.332 1201.64,510.332 1205.42,510.332 1209.19,510.332 1212.97,510.332 
  1216.74,510.332 1220.52,510.332 1224.3,510.332 1228.07,510.332 1231.85,510.332 1235.62,510.332 1239.4,510.332 1243.17,510.332 1246.95,510.332 1250.72,510.332 
  1254.5,510.332 1258.27,510.332 1262.05,510.332 1265.82,510.332 1269.6,510.332 1273.38,510.332 1277.15,510.332 1280.93,510.332 1284.7,510.332 1288.48,510.332 
  1292.25,510.332 1296.03,510.332 1299.8,510.332 1303.58,510.332 1307.35,510.332 1311.13,510.332 1314.91,510.332 1318.68,510.332 1322.46,510.332 1326.23,510.332 
  1330.01,510.332 1333.78,510.332 1337.56,510.332 1341.33,510.332 1345.11,510.332 1348.88,510.332 1352.66,510.332 1356.43,510.332 1360.21,510.332 1363.99,510.332 
  1367.76,510.332 1371.54,510.332 1375.31,510.332 1379.09,510.332 1382.86,510.332 1386.64,510.332 1390.41,510.332 1394.19,510.332 1397.96,510.332 1401.74,510.332 
  1405.51,510.332 1409.29,510.332 1413.07,510.332 1416.84,510.332 1420.62,510.332 1424.39,510.332 1428.17,510.332 1431.94,510.332 1435.72,510.332 1439.49,510.332 
  1443.27,510.332 1447.04,510.332 1450.82,510.332 1454.6,510.332 1458.37,510.332 1462.15,510.332 1465.92,510.332 1469.7,510.332 1473.47,510.332 1477.25,510.332 
  1481.02,510.332 1484.8,510.332 1488.57,510.332 1492.35,510.332 1496.12,510.332 1499.9,510.332 1503.68,510.332 1507.45,510.332 1511.23,510.332 1515,510.332 
  1518.78,510.33 
  "/>
<path clip-path="url(#clip150)" d="
M352.176 1323.82 L1552.76 1323.82 L1552.76 847.244 L352.176 847.244  Z
  " fill="#ffffff" fill-rule="evenodd" fill-opacity="1"/>
<defs>
  <clipPath id="clip153">
    <rect x="352" y="847" width="1202" height="478"/>
  </clipPath>
</defs>
<polyline clip-path="url(#clip153)" style="stroke:#000000; stroke-linecap:butt; stroke-linejoin:round; stroke-width:2; stroke-opacity:0.1; fill:none" points="
  382.379,1323.82 382.379,847.244 
  "/>
<polyline clip-path="url(#clip153)" style="stroke:#000000; stroke-linecap:butt; stroke-linejoin:round; stroke-width:2; stroke-opacity:0.1; fill:none" points="
  759.92,1323.82 759.92,847.244 
  "/>
<polyline clip-path="url(#clip153)" style="stroke:#000000; stroke-linecap:butt; stroke-linejoin:round; stroke-width:2; stroke-opacity:0.1; fill:none" points="
  1137.46,1323.82 1137.46,847.244 
  "/>
<polyline clip-path="url(#clip153)" style="stroke:#000000; stroke-linecap:butt; stroke-linejoin:round; stroke-width:2; stroke-opacity:0.1; fill:none" points="
  1515,1323.82 1515,847.244 
  "/>
<polyline clip-path="url(#clip150)" style="stroke:#000000; stroke-linecap:butt; stroke-linejoin:round; stroke-width:4; stroke-opacity:1; fill:none" points="
  352.176,1323.82 1552.76,1323.82 
  "/>
<polyline clip-path="url(#clip150)" style="stroke:#000000; stroke-linecap:butt; stroke-linejoin:round; stroke-width:4; stroke-opacity:1; fill:none" points="
  352.176,847.244 1552.76,847.244 
  "/>
<polyline clip-path="url(#clip150)" style="stroke:#000000; stroke-linecap:butt; stroke-linejoin:round; stroke-width:4; stroke-opacity:1; fill:none" points="
  382.379,1323.82 382.379,1304.92 
  "/>
<polyline clip-path="url(#clip150)" style="stroke:#000000; stroke-linecap:butt; stroke-linejoin:round; stroke-width:4; stroke-opacity:1; fill:none" points="
  759.92,1323.82 759.92,1304.92 
  "/>
<polyline clip-path="url(#clip150)" style="stroke:#000000; stroke-linecap:butt; stroke-linejoin:round; stroke-width:4; stroke-opacity:1; fill:none" points="
  1137.46,1323.82 1137.46,1304.92 
  "/>
<polyline clip-path="url(#clip150)" style="stroke:#000000; stroke-linecap:butt; stroke-linejoin:round; stroke-width:4; stroke-opacity:1; fill:none" points="
  1515,1323.82 1515,1304.92 
  "/>
<path clip-path="url(#clip150)" d="M382.379 1354.2 Q376.962 1354.2 374.219 1359.55 Q371.511 1364.86 371.511 1375.55 Q371.511 1386.21 374.219 1391.56 Q376.962 1396.87 382.379 1396.87 Q387.83 1396.87 390.539 1391.56 Q393.282 1386.21 393.282 1375.55 Q393.282 1364.86 390.539 1359.55 Q387.83 1354.2 382.379 1354.2 M382.379 1348.64 Q391.094 1348.64 395.678 1355.55 Q400.296 1362.43 400.296 1375.55 Q400.296 1388.64 395.678 1395.55 Q391.094 1402.43 382.379 1402.43 Q373.664 1402.43 369.046 1395.55 Q364.463 1388.64 364.463 1375.55 Q364.463 1362.43 369.046 1355.55 Q373.664 1348.64 382.379 1348.64 Z" fill="#000000" fill-rule="evenodd" fill-opacity="1" /><path clip-path="url(#clip150)" d="M699.33 1395.52 L710.788 1395.52 L710.788 1355.97 L698.323 1358.47 L698.323 1352.08 L710.719 1349.58 L717.733 1349.58 L717.733 1395.52 L729.191 1395.52 L729.191 1401.42 L699.33 1401.42 L699.33 1395.52 Z" fill="#000000" fill-rule="evenodd" fill-opacity="1" /><path clip-path="url(#clip150)" d="M758.358 1354.2 Q752.941 1354.2 750.198 1359.55 Q747.49 1364.86 747.49 1375.55 Q747.49 1386.21 750.198 1391.56 Q752.941 1396.87 758.358 1396.87 Q763.809 1396.87 766.517 1391.56 Q769.26 1386.21 769.26 1375.55 Q769.26 1364.86 766.517 1359.55 Q763.809 1354.2 758.358 1354.2 M758.358 1348.64 Q767.073 1348.64 771.656 1355.55 Q776.274 1362.43 776.274 1375.55 Q776.274 1388.64 771.656 1395.55 Q767.073 1402.43 758.358 1402.43 Q749.642 1402.43 745.024 1395.55 Q740.441 1388.64 740.441 1375.55 Q740.441 1362.43 745.024 1355.55 Q749.642 1348.64 758.358 1348.64 Z" fill="#000000" fill-rule="evenodd" fill-opacity="1" /><path clip-path="url(#clip150)" d="M803.6 1354.2 Q798.184 1354.2 795.441 1359.55 Q792.732 1364.86 792.732 1375.55 Q792.732 1386.21 795.441 1391.56 Q798.184 1396.87 803.6 1396.87 Q809.052 1396.87 811.76 1391.56 Q814.503 1386.21 814.503 1375.55 Q814.503 1364.86 811.76 1359.55 Q809.052 1354.2 803.6 1354.2 M803.6 1348.64 Q812.316 1348.64 816.899 1355.55 Q821.517 1362.43 821.517 1375.55 Q821.517 1388.64 816.899 1395.55 Q812.316 1402.43 803.6 1402.43 Q794.885 1402.43 790.267 1395.55 Q785.684 1388.64 785.684 1375.55 Q785.684 1362.43 790.267 1355.55 Q794.885 1348.64 803.6 1348.64 Z" fill="#000000" fill-rule="evenodd" fill-opacity="1" /><path clip-path="url(#clip150)" d="M1083 1395.52 L1107.48 1395.52 L1107.48 1401.42 L1074.56 1401.42 L1074.56 1395.52 Q1078.55 1391.39 1085.43 1384.44 Q1092.34 1377.46 1094.11 1375.45 Q1097.48 1371.66 1098.8 1369.06 Q1100.15 1366.42 1100.15 1363.89 Q1100.15 1359.75 1097.24 1357.15 Q1094.35 1354.55 1089.7 1354.55 Q1086.4 1354.55 1082.72 1355.69 Q1079.08 1356.84 1074.91 1359.16 L1074.91 1352.08 Q1079.15 1350.38 1082.83 1349.51 Q1086.51 1348.64 1089.56 1348.64 Q1097.62 1348.64 1102.41 1352.67 Q1107.2 1356.7 1107.2 1363.43 Q1107.2 1366.63 1105.99 1369.51 Q1104.8 1372.36 1101.65 1376.25 Q1100.78 1377.25 1096.12 1382.08 Q1091.47 1386.87 1083 1395.52 Z" fill="#000000" fill-rule="evenodd" fill-opacity="1" /><path clip-path="url(#clip150)" d="M1137.2 1354.2 Q1131.78 1354.2 1129.04 1359.55 Q1126.33 1364.86 1126.33 1375.55 Q1126.33 1386.21 1129.04 1391.56 Q1131.78 1396.87 1137.2 1396.87 Q1142.65 1396.87 1145.36 1391.56 Q1148.1 1386.21 1148.1 1375.55 Q1148.1 1364.86 1145.36 1359.55 Q1142.65 1354.2 1137.2 1354.2 M1137.2 1348.64 Q1145.92 1348.64 1150.5 1355.55 Q1155.12 1362.43 1155.12 1375.55 Q1155.12 1388.64 1150.5 1395.55 Q1145.92 1402.43 1137.2 1402.43 Q1128.49 1402.43 1123.87 1395.55 Q1119.28 1388.64 1119.28 1375.55 Q1119.28 1362.43 1123.87 1355.55 Q1128.49 1348.64 1137.2 1348.64 Z" fill="#000000" fill-rule="evenodd" fill-opacity="1" /><path clip-path="url(#clip150)" d="M1182.44 1354.2 Q1177.03 1354.2 1174.28 1359.55 Q1171.58 1364.86 1171.58 1375.55 Q1171.58 1386.21 1174.28 1391.56 Q1177.03 1396.87 1182.44 1396.87 Q1187.89 1396.87 1190.6 1391.56 Q1193.35 1386.21 1193.35 1375.55 Q1193.35 1364.86 1190.6 1359.55 Q1187.89 1354.2 1182.44 1354.2 M1182.44 1348.64 Q1191.16 1348.64 1195.74 1355.55 Q1200.36 1362.43 1200.36 1375.55 Q1200.36 1388.64 1195.74 1395.55 Q1191.16 1402.43 1182.44 1402.43 Q1173.73 1402.43 1169.11 1395.55 Q1164.53 1388.64 1164.53 1375.55 Q1164.53 1362.43 1169.11 1355.55 Q1173.73 1348.64 1182.44 1348.64 Z" fill="#000000" fill-rule="evenodd" fill-opacity="1" /><path clip-path="url(#clip150)" d="M1475.64 1373.47 Q1480.68 1374.54 1483.49 1377.95 Q1486.34 1381.35 1486.34 1386.35 Q1486.34 1394.02 1481.06 1398.23 Q1475.78 1402.43 1466.06 1402.43 Q1462.8 1402.43 1459.33 1401.77 Q1455.89 1401.14 1452.21 1399.86 L1452.21 1393.09 Q1455.12 1394.79 1458.6 1395.66 Q1462.07 1396.52 1465.85 1396.52 Q1472.45 1396.52 1475.89 1393.92 Q1479.36 1391.32 1479.36 1386.35 Q1479.36 1381.77 1476.13 1379.2 Q1472.94 1376.59 1467.21 1376.59 L1461.17 1376.59 L1461.17 1370.83 L1467.48 1370.83 Q1472.66 1370.83 1475.4 1368.78 Q1478.14 1366.7 1478.14 1362.81 Q1478.14 1358.82 1475.3 1356.7 Q1472.48 1354.55 1467.21 1354.55 Q1464.33 1354.55 1461.03 1355.17 Q1457.73 1355.8 1453.77 1357.11 L1453.77 1350.86 Q1457.76 1349.75 1461.23 1349.2 Q1464.74 1348.64 1467.83 1348.64 Q1475.82 1348.64 1480.47 1352.29 Q1485.12 1355.9 1485.12 1362.08 Q1485.12 1366.39 1482.66 1369.37 Q1480.19 1372.32 1475.64 1373.47 Z" fill="#000000" fill-rule="evenodd" fill-opacity="1" /><path clip-path="url(#clip150)" d="M1514.64 1354.2 Q1509.22 1354.2 1506.48 1359.55 Q1503.77 1364.86 1503.77 1375.55 Q1503.77 1386.21 1506.48 1391.56 Q1509.22 1396.87 1514.64 1396.87 Q1520.09 1396.87 1522.8 1391.56 Q1525.54 1386.21 1525.54 1375.55 Q1525.54 1364.86 1522.8 1359.55 Q1520.09 1354.2 1514.64 1354.2 M1514.64 1348.64 Q1523.35 1348.64 1527.94 1355.55 Q1532.55 1362.43 1532.55 1375.55 Q1532.55 1388.64 1527.94 1395.55 Q1523.35 1402.43 1514.64 1402.43 Q1505.92 1402.43 1501.3 1395.55 Q1496.72 1388.64 1496.72 1375.55 Q1496.72 1362.43 1501.3 1355.55 Q1505.92 1348.64 1514.64 1348.64 Z" fill="#000000" fill-rule="evenodd" fill-opacity="1" /><path clip-path="url(#clip150)" d="M1559.88 1354.2 Q1554.46 1354.2 1551.72 1359.55 Q1549.01 1364.86 1549.01 1375.55 Q1549.01 1386.21 1551.72 1391.56 Q1554.46 1396.87 1559.88 1396.87 Q1565.33 1396.87 1568.04 1391.56 Q1570.78 1386.21 1570.78 1375.55 Q1570.78 1364.86 1568.04 1359.55 Q1565.33 1354.2 1559.88 1354.2 M1559.88 1348.64 Q1568.6 1348.64 1573.18 1355.55 Q1577.8 1362.43 1577.8 1375.55 Q1577.8 1388.64 1573.18 1395.55 Q1568.6 1402.43 1559.88 1402.43 Q1551.16 1402.43 1546.55 1395.55 Q1541.96 1388.64 1541.96 1375.55 Q1541.96 1362.43 1546.55 1355.55 Q1551.16 1348.64 1559.88 1348.64 Z" fill="#000000" fill-rule="evenodd" fill-opacity="1" /><path clip-path="url(#clip150)" d="M789.573 1439.4 L833.277 1439.4 L833.277 1447.27 L798.925 1447.27 L798.925 1467.74 L831.842 1467.74 L831.842 1475.61 L798.925 1475.61 L798.925 1500.65 L834.11 1500.65 L834.11 1508.52 L789.573 1508.52 L789.573 1439.4 Z" fill="#000000" fill-rule="evenodd" fill-opacity="1" /><path clip-path="url(#clip150)" d="M857.351 1500.75 L857.351 1528.25 L848.786 1528.25 L848.786 1456.67 L857.351 1456.67 L857.351 1464.54 Q860.036 1459.91 864.11 1457.69 Q868.23 1455.42 873.925 1455.42 Q883.369 1455.42 889.249 1462.92 Q895.175 1470.42 895.175 1482.64 Q895.175 1494.87 889.249 1502.37 Q883.369 1509.87 873.925 1509.87 Q868.23 1509.87 864.11 1507.64 Q860.036 1505.38 857.351 1500.75 M886.332 1482.64 Q886.332 1473.25 882.443 1467.92 Q878.601 1462.55 871.841 1462.55 Q865.082 1462.55 861.193 1467.92 Q857.351 1473.25 857.351 1482.64 Q857.351 1492.04 861.193 1497.41 Q865.082 1502.74 871.841 1502.74 Q878.601 1502.74 882.443 1497.41 Q886.332 1492.04 886.332 1482.64 Z" fill="#000000" fill-rule="evenodd" fill-opacity="1" /><path clip-path="url(#clip150)" d="M929.387 1462.64 Q922.535 1462.64 918.554 1468.01 Q914.573 1473.34 914.573 1482.64 Q914.573 1491.95 918.508 1497.32 Q922.489 1502.64 929.387 1502.64 Q936.193 1502.64 940.174 1497.27 Q944.156 1491.9 944.156 1482.64 Q944.156 1473.43 940.174 1468.06 Q936.193 1462.64 929.387 1462.64 M929.387 1455.42 Q940.498 1455.42 946.841 1462.64 Q953.183 1469.87 953.183 1482.64 Q953.183 1495.38 946.841 1502.64 Q940.498 1509.87 929.387 1509.87 Q918.23 1509.87 911.887 1502.64 Q905.591 1495.38 905.591 1482.64 Q905.591 1469.87 911.887 1462.64 Q918.23 1455.42 929.387 1455.42 Z" fill="#000000" fill-rule="evenodd" fill-opacity="1" /><path clip-path="url(#clip150)" d="M1004.62 1458.66 L1004.62 1466.63 Q1001.01 1464.64 997.35 1463.66 Q993.739 1462.64 990.035 1462.64 Q981.748 1462.64 977.165 1467.92 Q972.582 1473.15 972.582 1482.64 Q972.582 1492.14 977.165 1497.41 Q981.748 1502.64 990.035 1502.64 Q993.739 1502.64 997.35 1501.67 Q1001.01 1500.65 1004.62 1498.66 L1004.62 1506.53 Q1001.05 1508.2 997.211 1509.03 Q993.415 1509.87 989.109 1509.87 Q977.396 1509.87 970.498 1502.51 Q963.6 1495.14 963.6 1482.64 Q963.6 1469.96 970.544 1462.69 Q977.535 1455.42 989.665 1455.42 Q993.6 1455.42 997.35 1456.26 Q1001.1 1457.04 1004.62 1458.66 Z" fill="#000000" fill-rule="evenodd" fill-opacity="1" /><path clip-path="url(#clip150)" d="M1062.53 1477.23 L1062.53 1508.52 L1054.02 1508.52 L1054.02 1477.51 Q1054.02 1470.14 1051.15 1466.49 Q1048.28 1462.83 1042.53 1462.83 Q1035.64 1462.83 1031.66 1467.23 Q1027.67 1471.63 1027.67 1479.22 L1027.67 1508.52 L1019.11 1508.52 L1019.11 1436.49 L1027.67 1436.49 L1027.67 1464.73 Q1030.73 1460.05 1034.85 1457.74 Q1039.02 1455.42 1044.43 1455.42 Q1053.37 1455.42 1057.95 1460.98 Q1062.53 1466.49 1062.53 1477.23 Z" fill="#000000" fill-rule="evenodd" fill-opacity="1" /><path clip-path="url(#clip150)" d="M1112.58 1458.2 L1112.58 1466.26 Q1108.97 1464.4 1105.08 1463.48 Q1101.19 1462.55 1097.03 1462.55 Q1090.68 1462.55 1087.49 1464.5 Q1084.34 1466.44 1084.34 1470.33 Q1084.34 1473.29 1086.61 1475.01 Q1088.88 1476.67 1095.73 1478.2 L1098.65 1478.85 Q1107.72 1480.79 1111.52 1484.36 Q1115.36 1487.88 1115.36 1494.22 Q1115.36 1501.44 1109.62 1505.65 Q1103.92 1509.87 1093.92 1509.87 Q1089.76 1509.87 1085.22 1509.03 Q1080.73 1508.25 1075.73 1506.63 L1075.73 1497.83 Q1080.45 1500.28 1085.03 1501.53 Q1089.62 1502.74 1094.11 1502.74 Q1100.13 1502.74 1103.37 1500.7 Q1106.61 1498.62 1106.61 1494.87 Q1106.61 1491.39 1104.25 1489.54 Q1101.93 1487.69 1094.02 1485.98 L1091.05 1485.28 Q1083.14 1483.62 1079.62 1480.19 Q1076.1 1476.72 1076.1 1470.7 Q1076.1 1463.39 1081.28 1459.4 Q1086.47 1455.42 1096.01 1455.42 Q1100.73 1455.42 1104.9 1456.12 Q1109.06 1456.81 1112.58 1458.2 Z" fill="#000000" fill-rule="evenodd" fill-opacity="1" /><polyline clip-path="url(#clip153)" style="stroke:#000000; stroke-linecap:butt; stroke-linejoin:round; stroke-width:2; stroke-opacity:0.1; fill:none" points="
  352.176,1205.57 1552.76,1205.57 
  "/>
<polyline clip-path="url(#clip153)" style="stroke:#000000; stroke-linecap:butt; stroke-linejoin:round; stroke-width:2; stroke-opacity:0.1; fill:none" points="
  352.176,1069.61 1552.76,1069.61 
  "/>
<polyline clip-path="url(#clip153)" style="stroke:#000000; stroke-linecap:butt; stroke-linejoin:round; stroke-width:2; stroke-opacity:0.1; fill:none" points="
  352.176,933.654 1552.76,933.654 
  "/>
<polyline clip-path="url(#clip150)" style="stroke:#000000; stroke-linecap:butt; stroke-linejoin:round; stroke-width:4; stroke-opacity:1; fill:none" points="
  352.176,1323.82 352.176,847.244 
  "/>
<polyline clip-path="url(#clip150)" style="stroke:#000000; stroke-linecap:butt; stroke-linejoin:round; stroke-width:4; stroke-opacity:1; fill:none" points="
  1552.76,1323.82 1552.76,847.244 
  "/>
<polyline clip-path="url(#clip150)" style="stroke:#000000; stroke-linecap:butt; stroke-linejoin:round; stroke-width:4; stroke-opacity:1; fill:none" points="
  352.176,1205.57 371.073,1205.57 
  "/>
<polyline clip-path="url(#clip150)" style="stroke:#000000; stroke-linecap:butt; stroke-linejoin:round; stroke-width:4; stroke-opacity:1; fill:none" points="
  352.176,1069.61 371.073,1069.61 
  "/>
<polyline clip-path="url(#clip150)" style="stroke:#000000; stroke-linecap:butt; stroke-linejoin:round; stroke-width:4; stroke-opacity:1; fill:none" points="
  352.176,933.654 371.073,933.654 
  "/>
<path clip-path="url(#clip150)" d="M176.809 1235.26 L188.268 1235.26 L188.268 1195.71 L175.803 1198.21 L175.803 1191.83 L188.198 1189.33 L195.212 1189.33 L195.212 1235.26 L206.67 1235.26 L206.67 1241.17 L176.809 1241.17 L176.809 1235.26 Z" fill="#000000" fill-rule="evenodd" fill-opacity="1" /><path clip-path="url(#clip150)" d="M235.837 1193.94 Q230.42 1193.94 227.677 1199.29 Q224.969 1204.6 224.969 1215.3 Q224.969 1225.96 227.677 1231.3 Q230.42 1236.62 235.837 1236.62 Q241.288 1236.62 243.997 1231.3 Q246.74 1225.96 246.74 1215.3 Q246.74 1204.6 243.997 1199.29 Q241.288 1193.94 235.837 1193.94 M235.837 1188.39 Q244.552 1188.39 249.135 1195.3 Q253.753 1202.17 253.753 1215.3 Q253.753 1228.39 249.135 1235.3 Q244.552 1242.17 235.837 1242.17 Q227.122 1242.17 222.504 1235.3 Q217.92 1228.39 217.92 1215.3 Q217.92 1202.17 222.504 1195.3 Q227.122 1188.39 235.837 1188.39 Z" fill="#000000" fill-rule="evenodd" fill-opacity="1" /><path clip-path="url(#clip150)" d="M253.753 1179.54 L289.921 1179.54 L289.921 1184.34 L253.753 1184.34 L253.753 1179.54 Z" fill="#000000" fill-rule="evenodd" fill-opacity="1" /><path clip-path="url(#clip150)" d="M319.487 1177.34 Q323.577 1178.21 325.862 1180.98 Q328.176 1183.74 328.176 1187.81 Q328.176 1194.04 323.888 1197.45 Q319.6 1200.87 311.7 1200.87 Q309.048 1200.87 306.227 1200.33 Q303.434 1199.82 300.444 1198.78 L300.444 1193.28 Q302.814 1194.66 305.635 1195.37 Q308.456 1196.07 311.531 1196.07 Q316.891 1196.07 319.684 1193.96 Q322.505 1191.84 322.505 1187.81 Q322.505 1184.08 319.882 1181.99 Q317.286 1179.88 312.631 1179.88 L307.722 1179.88 L307.722 1175.2 L312.857 1175.2 Q317.06 1175.2 319.289 1173.53 Q321.518 1171.84 321.518 1168.68 Q321.518 1165.43 319.205 1163.71 Q316.919 1161.96 312.631 1161.96 Q310.29 1161.96 307.61 1162.47 Q304.929 1162.98 301.713 1164.05 L301.713 1158.97 Q304.958 1158.07 307.779 1157.62 Q310.628 1157.17 313.139 1157.17 Q319.628 1157.17 323.408 1160.13 Q327.188 1163.06 327.188 1168.09 Q327.188 1171.58 325.185 1174.01 Q323.182 1176.41 319.487 1177.34 Z" fill="#000000" fill-rule="evenodd" fill-opacity="1" /><path clip-path="url(#clip150)" d="M177.966 1099.3 L189.424 1099.3 L189.424 1059.75 L176.959 1062.25 L176.959 1055.87 L189.355 1053.37 L196.369 1053.37 L196.369 1099.3 L207.827 1099.3 L207.827 1105.21 L177.966 1105.21 L177.966 1099.3 Z" fill="#000000" fill-rule="evenodd" fill-opacity="1" /><path clip-path="url(#clip150)" d="M236.994 1057.98 Q231.577 1057.98 228.834 1063.33 Q226.126 1068.64 226.126 1079.34 Q226.126 1090 228.834 1095.34 Q231.577 1100.66 236.994 1100.66 Q242.445 1100.66 245.153 1095.34 Q247.896 1090 247.896 1079.34 Q247.896 1068.64 245.153 1063.33 Q242.445 1057.98 236.994 1057.98 M236.994 1052.43 Q245.709 1052.43 250.292 1059.34 Q254.91 1066.21 254.91 1079.34 Q254.91 1092.43 250.292 1099.34 Q245.709 1106.21 236.994 1106.21 Q228.278 1106.21 223.66 1099.34 Q219.077 1092.43 219.077 1079.34 Q219.077 1066.21 223.66 1059.34 Q228.278 1052.43 236.994 1052.43 Z" fill="#000000" fill-rule="evenodd" fill-opacity="1" /><path clip-path="url(#clip150)" d="M254.91 1043.58 L291.078 1043.58 L291.078 1048.38 L254.91 1048.38 L254.91 1043.58 Z" fill="#000000" fill-rule="evenodd" fill-opacity="1" /><path clip-path="url(#clip150)" d="M308.287 1059.29 L328.176 1059.29 L328.176 1064.09 L301.431 1064.09 L301.431 1059.29 Q304.676 1055.94 310.261 1050.29 Q315.876 1044.62 317.314 1042.99 Q320.051 1039.91 321.123 1037.8 Q322.223 1035.65 322.223 1033.59 Q322.223 1030.24 319.853 1028.12 Q317.512 1026 313.731 1026 Q311.051 1026 308.061 1026.94 Q305.099 1027.87 301.713 1029.76 L301.713 1024 Q305.155 1022.62 308.146 1021.91 Q311.136 1021.21 313.619 1021.21 Q320.164 1021.21 324.057 1024.48 Q327.95 1027.75 327.95 1033.23 Q327.95 1035.82 326.963 1038.16 Q326.004 1040.48 323.436 1043.64 Q322.731 1044.45 318.951 1048.38 Q315.17 1052.27 308.287 1059.29 Z" fill="#000000" fill-rule="evenodd" fill-opacity="1" /><path clip-path="url(#clip150)" d="M177.515 963.343 L188.973 963.343 L188.973 923.794 L176.508 926.294 L176.508 919.906 L188.904 917.406 L195.917 917.406 L195.917 963.343 L207.376 963.343 L207.376 969.246 L177.515 969.246 L177.515 963.343 Z" fill="#000000" fill-rule="evenodd" fill-opacity="1" /><path clip-path="url(#clip150)" d="M236.542 922.024 Q231.126 922.024 228.383 927.371 Q225.674 932.683 225.674 943.378 Q225.674 954.037 228.383 959.384 Q231.126 964.697 236.542 964.697 Q241.994 964.697 244.702 959.384 Q247.445 954.037 247.445 943.378 Q247.445 932.683 244.702 927.371 Q241.994 922.024 236.542 922.024 M236.542 916.468 Q245.257 916.468 249.841 923.378 Q254.459 930.253 254.459 943.378 Q254.459 956.468 249.841 963.378 Q245.257 970.252 236.542 970.252 Q227.827 970.252 223.209 963.378 Q218.626 956.468 218.626 943.378 Q218.626 930.253 223.209 923.378 Q227.827 916.468 236.542 916.468 Z" fill="#000000" fill-rule="evenodd" fill-opacity="1" /><path clip-path="url(#clip150)" d="M254.459 907.62 L290.626 907.62 L290.626 912.416 L254.459 912.416 L254.459 907.62 Z" fill="#000000" fill-rule="evenodd" fill-opacity="1" /><path clip-path="url(#clip150)" d="M303.914 923.334 L313.224 923.334 L313.224 891.201 L303.096 893.232 L303.096 888.041 L313.167 886.01 L318.866 886.01 L318.866 923.334 L328.176 923.334 L328.176 928.13 L303.914 928.13 L303.914 923.334 Z" fill="#000000" fill-rule="evenodd" fill-opacity="1" /><path clip-path="url(#clip150)" d="M123.289 1207.08 L150.789 1207.08 L150.789 1215.65 L79.215 1215.65 L79.215 1207.08 L87.0853 1207.08 Q82.4557 1204.4 80.2335 1200.32 Q77.965 1196.2 77.965 1190.51 Q77.965 1181.06 85.4649 1175.18 Q92.9649 1169.26 105.187 1169.26 Q117.409 1169.26 124.909 1175.18 Q132.409 1181.06 132.409 1190.51 Q132.409 1196.2 130.187 1200.32 Q127.918 1204.4 123.289 1207.08 M105.187 1178.1 Q95.7889 1178.1 90.4649 1181.99 Q85.0946 1185.83 85.0946 1192.59 Q85.0946 1199.35 90.4649 1203.24 Q95.7889 1207.08 105.187 1207.08 Q114.585 1207.08 119.955 1203.24 Q125.28 1199.35 125.28 1192.59 Q125.28 1185.83 119.955 1181.99 Q114.585 1178.1 105.187 1178.1 Z" fill="#000000" fill-rule="evenodd" fill-opacity="1" /><path clip-path="url(#clip150)" d="M59.0299 1125 L59.0299 1116.48 L131.067 1116.48 L131.067 1125 L59.0299 1125 Z" fill="#000000" fill-rule="evenodd" fill-opacity="1" /><path clip-path="url(#clip150)" d="M85.1871 1078.56 Q85.1871 1085.42 90.5575 1089.4 Q95.8815 1093.38 105.187 1093.38 Q114.493 1093.38 119.863 1089.44 Q125.187 1085.46 125.187 1078.56 Q125.187 1071.76 119.817 1067.78 Q114.446 1063.8 105.187 1063.8 Q95.9741 1063.8 90.6038 1067.78 Q85.1871 1071.76 85.1871 1078.56 M77.965 1078.56 Q77.965 1067.45 85.1871 1061.11 Q92.4093 1054.77 105.187 1054.77 Q117.918 1054.77 125.187 1061.11 Q132.409 1067.45 132.409 1078.56 Q132.409 1089.72 125.187 1096.06 Q117.918 1102.36 105.187 1102.36 Q92.4093 1102.36 85.1871 1096.06 Q77.965 1089.72 77.965 1078.56 Z" fill="#000000" fill-rule="evenodd" fill-opacity="1" /><path clip-path="url(#clip150)" d="M80.7427 1007.59 L88.7982 1007.59 Q86.9464 1011.2 86.0205 1015.09 Q85.0946 1018.98 85.0946 1023.15 Q85.0946 1029.49 87.039 1032.69 Q88.9834 1035.83 92.8723 1035.83 Q95.8352 1035.83 97.5482 1033.56 Q99.2148 1031.3 100.743 1024.44 L101.391 1021.53 Q103.335 1012.45 106.9 1008.66 Q110.418 1004.81 116.761 1004.81 Q123.983 1004.81 128.196 1010.56 Q132.409 1016.25 132.409 1026.25 Q132.409 1030.42 131.576 1034.95 Q130.789 1039.44 129.168 1044.44 L120.372 1044.44 Q122.826 1039.72 124.076 1035.14 Q125.28 1030.56 125.28 1026.06 Q125.28 1020.05 123.242 1016.81 Q121.159 1013.56 117.409 1013.56 Q113.937 1013.56 112.085 1015.93 Q110.233 1018.24 108.52 1026.16 L107.826 1029.12 Q106.159 1037.04 102.733 1040.56 Q99.2611 1044.07 93.2427 1044.07 Q85.9279 1044.07 81.9464 1038.89 Q77.965 1033.7 77.965 1024.17 Q77.965 1019.44 78.6594 1015.28 Q79.3538 1011.11 80.7427 1007.59 Z" fill="#000000" fill-rule="evenodd" fill-opacity="1" /><path clip-path="url(#clip150)" d="M80.7427 958.195 L88.7982 958.195 Q86.9464 961.806 86.0205 965.695 Q85.0946 969.584 85.0946 973.75 Q85.0946 980.093 87.039 983.287 Q88.9834 986.435 92.8723 986.435 Q95.8352 986.435 97.5482 984.167 Q99.2148 981.898 100.743 975.046 L101.391 972.13 Q103.335 963.056 106.9 959.259 Q110.418 955.417 116.761 955.417 Q123.983 955.417 128.196 961.158 Q132.409 966.852 132.409 976.852 Q132.409 981.019 131.576 985.556 Q130.789 990.046 129.168 995.046 L120.372 995.046 Q122.826 990.324 124.076 985.741 Q125.28 981.158 125.28 976.667 Q125.28 970.648 123.242 967.408 Q121.159 964.167 117.409 964.167 Q113.937 964.167 112.085 966.528 Q110.233 968.843 108.52 976.759 L107.826 979.722 Q106.159 987.639 102.733 991.157 Q99.2611 994.676 93.2427 994.676 Q85.9279 994.676 81.9464 989.491 Q77.965 984.306 77.965 974.769 Q77.965 970.046 78.6594 965.88 Q79.3538 961.713 80.7427 958.195 Z" fill="#000000" fill-rule="evenodd" fill-opacity="1" /><polyline clip-path="url(#clip153)" style="stroke:#000000; stroke-linecap:butt; stroke-linejoin:round; stroke-width:4; stroke-opacity:1; fill:none" points="
  386.155,860.732 389.93,884.739 393.705,902.373 397.481,913.745 401.256,918.788 405.032,918.724 408.807,915.22 412.582,908.829 416.358,899.848 420.133,889.485 
  423.909,880.161 427.684,874.823 431.459,875.006 435.235,880.341 439.01,890.118 442.786,904.064 446.561,922.413 450.336,945.961 454.112,976.339 457.887,1016.77 
  461.663,1073.73 465.438,1149.81 469.214,1139.07 472.989,1073.24 476.764,1028.88 480.54,998.928 484.315,977.632 488.091,962.032 491.866,950.485 495.641,942 
  499.417,935.933 503.192,931.847 506.968,929.43 510.743,928.451 514.518,928.734 518.294,930.14 522.069,932.552 525.845,935.869 529.62,939.996 533.395,944.841 
  537.171,950.303 540.946,956.273 544.722,962.626 548.497,969.224 552.273,975.913 556.048,982.531 559.823,988.919 563.599,994.936 567.374,1000.47 571.15,1005.46 
  574.925,1009.88 578.7,1013.75 582.476,1017.11 586.251,1020.03 590.027,1022.54 593.802,1024.68 597.577,1026.48 601.353,1027.93 605.128,1029.05 608.904,1029.83 
  612.679,1030.32 616.454,1030.55 620.23,1030.6 624.005,1030.53 627.781,1030.45 631.556,1030.45 635.332,1030.61 639.107,1031.01 642.882,1031.73 646.658,1032.83 
  650.433,1034.35 654.209,1036.33 657.984,1038.81 661.759,1041.79 665.535,1045.29 669.31,1049.3 673.086,1053.84 676.861,1058.87 680.636,1064.21 684.412,1070 
  688.187,1076.17 691.963,1082.66 695.738,1089.42 699.513,1096.36 703.289,1103.4 707.064,1110.47 710.84,1117.48 714.615,1124.35 718.391,1131 722.166,1137.38 
  725.941,1143.42 729.717,1149.09 733.492,1154.35 737.268,1159.19 741.043,1163.6 744.818,1167.59 748.594,1171.19 752.369,1174.44 756.145,1177.42 759.92,1180.21 
  763.695,1182.9 767.471,1185.61 771.246,1188.43 775.022,1191.47 778.797,1194.8 782.572,1198.51 786.348,1202.65 790.123,1207.24 793.899,1212.29 797.674,1217.8 
  801.45,1223.73 805.225,1230.02 809,1236.61 812.776,1243.4 816.551,1250.27 820.327,1257.11 824.102,1263.79 827.877,1270.16 831.653,1276.12 835.428,1281.53 
  839.204,1286.3 842.979,1290.36 846.754,1293.67 850.53,1296.24 854.305,1298.11 858.081,1299.32 861.856,1300 865.631,1300.23 869.407,1300.16 873.182,1299.89 
  876.958,1299.53 880.733,1299.18 884.509,1298.93 888.284,1298.82 892.059,1298.9 895.835,1299.2 899.61,1299.72 903.386,1300.44 907.161,1301.35 910.936,1302.4 
  914.712,1303.55 918.487,1304.75 922.263,1305.94 926.038,1307.08 929.813,1308.1 933.589,1308.97 937.364,1309.64 941.14,1310.1 944.915,1310.33 948.69,1310.33 
  952.466,1310.11 956.241,1309.68 960.017,1309.08 963.792,1308.34 967.568,1307.5 971.343,1306.59 975.118,1305.65 978.894,1304.71 982.669,1303.81 986.445,1302.98 
  990.22,1302.22 993.995,1301.55 997.771,1300.98 1001.55,1300.51 1005.32,1300.13 1009.1,1299.84 1012.87,1299.63 1016.65,1299.47 1020.42,1299.36 1024.2,1299.28 
  1027.97,1299.21 1031.75,1299.15 1035.52,1299.07 1039.3,1298.97 1043.08,1298.85 1046.85,1298.69 1050.63,1298.51 1054.4,1298.29 1058.18,1298.04 1061.95,1297.77 
  1065.73,1297.48 1069.5,1297.19 1073.28,1296.89 1077.05,1296.61 1080.83,1296.34 1084.61,1296.09 1088.38,1295.87 1092.16,1295.69 1095.93,1295.53 1099.71,1295.41 
  1103.48,1295.32 1107.26,1295.26 1111.03,1295.23 1114.81,1295.23 1118.58,1295.24 1122.36,1295.26 1126.13,1295.3 1129.91,1295.33 1133.69,1295.37 1137.46,1295.4 
  1141.24,1295.43 1145.01,1295.45 1148.79,1295.46 1152.56,1295.46 1156.34,1295.45 1160.11,1295.43 1163.89,1295.41 1167.66,1295.39 1171.44,1295.37 1175.22,1295.35 
  1178.99,1295.33 1182.77,1295.32 1186.54,1295.32 1190.32,1295.32 1194.09,1295.33 1197.87,1295.35 1201.64,1295.37 1205.42,1295.4 1209.19,1295.43 1212.97,1295.47 
  1216.74,1295.51 1220.52,1295.55 1224.3,1295.59 1228.07,1295.62 1231.85,1295.66 1235.62,1295.69 1239.4,1295.71 1243.17,1295.73 1246.95,1295.75 1250.72,1295.76 
  1254.5,1295.77 1258.27,1295.78 1262.05,1295.78 1265.82,1295.79 1269.6,1295.79 1273.38,1295.79 1277.15,1295.79 1280.93,1295.8 1284.7,1295.8 1288.48,1295.81 
  1292.25,1295.82 1296.03,1295.83 1299.8,1295.83 1303.58,1295.84 1307.35,1295.85 1311.13,1295.86 1314.91,1295.87 1318.68,1295.88 1322.46,1295.89 1326.23,1295.89 
  1330.01,1295.9 1333.78,1295.9 1337.56,1295.9 1341.33,1295.9 1345.11,1295.9 1348.88,1295.89 1352.66,1295.89 1356.43,1295.89 1360.21,1295.88 1363.99,1295.88 
  1367.76,1295.88 1371.54,1295.87 1375.31,1295.87 1379.09,1295.87 1382.86,1295.87 1386.64,1295.87 1390.41,1295.87 1394.19,1295.87 1397.96,1295.87 1401.74,1295.87 
  1405.51,1295.87 1409.29,1295.87 1413.07,1295.87 1416.84,1295.87 1420.62,1295.87 1424.39,1295.87 1428.17,1295.87 1431.94,1295.86 1435.72,1295.86 1439.49,1295.86 
  1443.27,1295.86 1447.04,1295.86 1450.82,1295.86 1454.6,1295.85 1458.37,1295.85 1462.15,1295.85 1465.92,1295.85 1469.7,1295.85 1473.47,1295.85 1477.25,1295.85 
  1481.02,1295.85 1484.8,1295.85 1488.57,1295.85 1492.35,1295.85 1496.12,1295.85 1499.9,1295.85 1503.68,1295.85 1507.45,1295.84 1511.23,1295.84 1515,1295.84 
  1518.78,1295.22 
  "/>
</svg>
