<?xml version="1.0" encoding="utf-8" standalone="no"?>
<!DOCTYPE svg PUBLIC "-//W3C//DTD SVG 1.1//EN"
  "http://www.w3.org/Graphics/SVG/1.1/DTD/svg11.dtd">
<svg xmlns:xlink="http://www.w3.org/1999/xlink" width="288pt" height="288pt" viewBox="0 0 288 288" xmlns="http://www.w3.org/2000/svg" version="1.1">
 <metadata>
  <rdf:RDF xmlns:dc="http://purl.org/dc/elements/1.1/" xmlns:cc="http://creativecommons.org/ns#" xmlns:rdf="http://www.w3.org/1999/02/22-rdf-syntax-ns#">
   <cc:Work>
    <dc:type rdf:resource="http://purl.org/dc/dcmitype/StillImage"/>
    <dc:date>2022-01-04T17:23:36.756276</dc:date>
    <dc:format>image/svg+xml</dc:format>
    <dc:creator>
     <cc:Agent>
      <dc:title>Matplotlib v3.5.0, https://matplotlib.org/</dc:title>
     </cc:Agent>
    </dc:creator>
   </cc:Work>
  </rdf:RDF>
 </metadata>
 <defs>
  <style type="text/css">*{stroke-linejoin: round; stroke-linecap: butt}</style>
 </defs>
 <g id="figure_1">
  <g id="patch_1">
   <path d="M 0 288 
L 288 288 
L 288 0 
L 0 0 
z
" style="fill: #ffffff"/>
  </g>
  <g id="axes_1">
   <g id="patch_2">
    <path d="M 53.367689 104.793354 
L 285.165354 104.793354 
L 285.165354 2.834646 
L 53.367689 2.834646 
z
" style="fill: #ffffff"/>
   </g>
   <g id="matplotlib.axis_1">
    <g id="xtick_1">
     <g id="line2d_1">
      <path d="M 56.008724 104.793354 
L 56.008724 2.834646 
" clip-path="url(#pa44101ebdb)" style="fill: none; stroke: #000000; stroke-opacity: 0.1; stroke-width: 0.5; stroke-linecap: square"/>
     </g>
     <g id="line2d_2">
      <defs>
       <path id="mbaed6d7c83" d="M 0 0 
L 0 -2.5 
" style="stroke: #000000; stroke-width: 0.5"/>
      </defs>
      <g>
       <use xlink:href="#mbaed6d7c83" x="56.008724" y="104.793354" style="stroke: #000000; stroke-width: 0.5"/>
      </g>
     </g>
     <g id="line2d_3">
      <defs>
       <path id="mf327afb418" d="M 0 0 
L 0 2.5 
" style="stroke: #000000; stroke-width: 0.5"/>
      </defs>
      <g>
       <use xlink:href="#mf327afb418" x="56.008724" y="2.834646" style="stroke: #000000; stroke-width: 0.5"/>
      </g>
     </g>
     <g id="text_1">
      <!-- $10^{-3}$ -->
      <g transform="translate(41.908724 117.411479)scale(0.12 -0.12)">
       <defs>
        <path id="DejaVuSans-31" d="M 794 531 
L 1825 531 
L 1825 4091 
L 703 3866 
L 703 4441 
L 1819 4666 
L 2450 4666 
L 2450 531 
L 3481 531 
L 3481 0 
L 794 0 
L 794 531 
z
" transform="scale(0.015625)"/>
        <path id="DejaVuSans-30" d="M 2034 4250 
Q 1547 4250 1301 3770 
Q 1056 3291 1056 2328 
Q 1056 1369 1301 889 
Q 1547 409 2034 409 
Q 2525 409 2770 889 
Q 3016 1369 3016 2328 
Q 3016 3291 2770 3770 
Q 2525 4250 2034 4250 
z
M 2034 4750 
Q 2819 4750 3233 4129 
Q 3647 3509 3647 2328 
Q 3647 1150 3233 529 
Q 2819 -91 2034 -91 
Q 1250 -91 836 529 
Q 422 1150 422 2328 
Q 422 3509 836 4129 
Q 1250 4750 2034 4750 
z
" transform="scale(0.015625)"/>
        <path id="DejaVuSans-2212" d="M 678 2272 
L 4684 2272 
L 4684 1741 
L 678 1741 
L 678 2272 
z
" transform="scale(0.015625)"/>
        <path id="DejaVuSans-33" d="M 2597 2516 
Q 3050 2419 3304 2112 
Q 3559 1806 3559 1356 
Q 3559 666 3084 287 
Q 2609 -91 1734 -91 
Q 1441 -91 1130 -33 
Q 819 25 488 141 
L 488 750 
Q 750 597 1062 519 
Q 1375 441 1716 441 
Q 2309 441 2620 675 
Q 2931 909 2931 1356 
Q 2931 1769 2642 2001 
Q 2353 2234 1838 2234 
L 1294 2234 
L 1294 2753 
L 1863 2753 
Q 2328 2753 2575 2939 
Q 2822 3125 2822 3475 
Q 2822 3834 2567 4026 
Q 2313 4219 1838 4219 
Q 1578 4219 1281 4162 
Q 984 4106 628 3988 
L 628 4550 
Q 988 4650 1302 4700 
Q 1616 4750 1894 4750 
Q 2613 4750 3031 4423 
Q 3450 4097 3450 3541 
Q 3450 3153 3228 2886 
Q 3006 2619 2597 2516 
z
" transform="scale(0.015625)"/>
       </defs>
       <use xlink:href="#DejaVuSans-31" transform="translate(0 0.765625)"/>
       <use xlink:href="#DejaVuSans-30" transform="translate(63.623047 0.765625)"/>
       <use xlink:href="#DejaVuSans-2212" transform="translate(128.203125 39.046875)scale(0.7)"/>
       <use xlink:href="#DejaVuSans-33" transform="translate(186.855469 39.046875)scale(0.7)"/>
      </g>
     </g>
    </g>
    <g id="xtick_2">
     <g id="line2d_4">
      <path d="M 154.412333 104.793354 
L 154.412333 2.834646 
" clip-path="url(#pa44101ebdb)" style="fill: none; stroke: #000000; stroke-opacity: 0.1; stroke-width: 0.5; stroke-linecap: square"/>
     </g>
     <g id="line2d_5">
      <g>
       <use xlink:href="#mbaed6d7c83" x="154.412333" y="104.793354" style="stroke: #000000; stroke-width: 0.5"/>
      </g>
     </g>
     <g id="line2d_6">
      <g>
       <use xlink:href="#mf327afb418" x="154.412333" y="2.834646" style="stroke: #000000; stroke-width: 0.5"/>
      </g>
     </g>
     <g id="text_2">
      <!-- $10^{-2}$ -->
      <g transform="translate(140.312333 117.411479)scale(0.12 -0.12)">
       <defs>
        <path id="DejaVuSans-32" d="M 1228 531 
L 3431 531 
L 3431 0 
L 469 0 
L 469 531 
Q 828 903 1448 1529 
Q 2069 2156 2228 2338 
Q 2531 2678 2651 2914 
Q 2772 3150 2772 3378 
Q 2772 3750 2511 3984 
Q 2250 4219 1831 4219 
Q 1534 4219 1204 4116 
Q 875 4013 500 3803 
L 500 4441 
Q 881 4594 1212 4672 
Q 1544 4750 1819 4750 
Q 2544 4750 2975 4387 
Q 3406 4025 3406 3419 
Q 3406 3131 3298 2873 
Q 3191 2616 2906 2266 
Q 2828 2175 2409 1742 
Q 1991 1309 1228 531 
z
" transform="scale(0.015625)"/>
       </defs>
       <use xlink:href="#DejaVuSans-31" transform="translate(0 0.765625)"/>
       <use xlink:href="#DejaVuSans-30" transform="translate(63.623047 0.765625)"/>
       <use xlink:href="#DejaVuSans-2212" transform="translate(128.203125 39.046875)scale(0.7)"/>
       <use xlink:href="#DejaVuSans-32" transform="translate(186.855469 39.046875)scale(0.7)"/>
      </g>
     </g>
    </g>
    <g id="xtick_3">
     <g id="line2d_7">
      <path d="M 252.815943 104.793354 
L 252.815943 2.834646 
" clip-path="url(#pa44101ebdb)" style="fill: none; stroke: #000000; stroke-opacity: 0.1; stroke-width: 0.5; stroke-linecap: square"/>
     </g>
     <g id="line2d_8">
      <g>
       <use xlink:href="#mbaed6d7c83" x="252.815943" y="104.793354" style="stroke: #000000; stroke-width: 0.5"/>
      </g>
     </g>
     <g id="line2d_9">
      <g>
       <use xlink:href="#mf327afb418" x="252.815943" y="2.834646" style="stroke: #000000; stroke-width: 0.5"/>
      </g>
     </g>
     <g id="text_3">
      <!-- $10^{-1}$ -->
      <g transform="translate(238.715943 117.411479)scale(0.12 -0.12)">
       <use xlink:href="#DejaVuSans-31" transform="translate(0 0.684375)"/>
       <use xlink:href="#DejaVuSans-30" transform="translate(63.623047 0.684375)"/>
       <use xlink:href="#DejaVuSans-2212" transform="translate(128.203125 38.965625)scale(0.7)"/>
       <use xlink:href="#DejaVuSans-31" transform="translate(186.855469 38.965625)scale(0.7)"/>
      </g>
     </g>
    </g>
    <g id="text_4">
     <!-- Noise -->
     <g transform="translate(147.074021 136.064604)scale(0.16 -0.16)">
      <defs>
       <path id="DejaVuSans-4e" d="M 628 4666 
L 1478 4666 
L 3547 763 
L 3547 4666 
L 4159 4666 
L 4159 0 
L 3309 0 
L 1241 3903 
L 1241 0 
L 628 0 
L 628 4666 
z
" transform="scale(0.015625)"/>
       <path id="DejaVuSans-6f" d="M 1959 3097 
Q 1497 3097 1228 2736 
Q 959 2375 959 1747 
Q 959 1119 1226 758 
Q 1494 397 1959 397 
Q 2419 397 2687 759 
Q 2956 1122 2956 1747 
Q 2956 2369 2687 2733 
Q 2419 3097 1959 3097 
z
M 1959 3584 
Q 2709 3584 3137 3096 
Q 3566 2609 3566 1747 
Q 3566 888 3137 398 
Q 2709 -91 1959 -91 
Q 1206 -91 779 398 
Q 353 888 353 1747 
Q 353 2609 779 3096 
Q 1206 3584 1959 3584 
z
" transform="scale(0.015625)"/>
       <path id="DejaVuSans-69" d="M 603 3500 
L 1178 3500 
L 1178 0 
L 603 0 
L 603 3500 
z
M 603 4863 
L 1178 4863 
L 1178 4134 
L 603 4134 
L 603 4863 
z
" transform="scale(0.015625)"/>
       <path id="DejaVuSans-73" d="M 2834 3397 
L 2834 2853 
Q 2591 2978 2328 3040 
Q 2066 3103 1784 3103 
Q 1356 3103 1142 2972 
Q 928 2841 928 2578 
Q 928 2378 1081 2264 
Q 1234 2150 1697 2047 
L 1894 2003 
Q 2506 1872 2764 1633 
Q 3022 1394 3022 966 
Q 3022 478 2636 193 
Q 2250 -91 1575 -91 
Q 1294 -91 989 -36 
Q 684 19 347 128 
L 347 722 
Q 666 556 975 473 
Q 1284 391 1588 391 
Q 1994 391 2212 530 
Q 2431 669 2431 922 
Q 2431 1156 2273 1281 
Q 2116 1406 1581 1522 
L 1381 1569 
Q 847 1681 609 1914 
Q 372 2147 372 2553 
Q 372 3047 722 3315 
Q 1072 3584 1716 3584 
Q 2034 3584 2315 3537 
Q 2597 3491 2834 3397 
z
" transform="scale(0.015625)"/>
       <path id="DejaVuSans-65" d="M 3597 1894 
L 3597 1613 
L 953 1613 
Q 991 1019 1311 708 
Q 1631 397 2203 397 
Q 2534 397 2845 478 
Q 3156 559 3463 722 
L 3463 178 
Q 3153 47 2828 -22 
Q 2503 -91 2169 -91 
Q 1331 -91 842 396 
Q 353 884 353 1716 
Q 353 2575 817 3079 
Q 1281 3584 2069 3584 
Q 2775 3584 3186 3129 
Q 3597 2675 3597 1894 
z
M 3022 2063 
Q 3016 2534 2758 2815 
Q 2500 3097 2075 3097 
Q 1594 3097 1305 2825 
Q 1016 2553 972 2059 
L 3022 2063 
z
" transform="scale(0.015625)"/>
      </defs>
      <use xlink:href="#DejaVuSans-4e"/>
      <use xlink:href="#DejaVuSans-6f" x="74.804688"/>
      <use xlink:href="#DejaVuSans-69" x="135.986328"/>
      <use xlink:href="#DejaVuSans-73" x="163.769531"/>
      <use xlink:href="#DejaVuSans-65" x="215.869141"/>
     </g>
    </g>
   </g>
   <g id="matplotlib.axis_2">
    <g id="ytick_1">
     <g id="line2d_10">
      <path d="M 53.367689 76.097899 
L 285.165354 76.097899 
" clip-path="url(#pa44101ebdb)" style="fill: none; stroke: #000000; stroke-opacity: 0.1; stroke-width: 0.5; stroke-linecap: square"/>
     </g>
     <g id="line2d_11">
      <defs>
       <path id="me84eae8fcb" d="M 0 0 
L 2.5 0 
" style="stroke: #000000; stroke-width: 0.5"/>
      </defs>
      <g>
       <use xlink:href="#me84eae8fcb" x="53.367689" y="76.097899" style="stroke: #000000; stroke-width: 0.5"/>
      </g>
     </g>
     <g id="line2d_12">
      <defs>
       <path id="m91a72d10c0" d="M 0 0 
L -2.5 0 
" style="stroke: #000000; stroke-width: 0.5"/>
      </defs>
      <g>
       <use xlink:href="#m91a72d10c0" x="285.165354" y="76.097899" style="stroke: #000000; stroke-width: 0.5"/>
      </g>
     </g>
     <g id="text_5">
      <!-- $10^{-4}$ -->
      <g transform="translate(21.667689 80.656962)scale(0.12 -0.12)">
       <defs>
        <path id="DejaVuSans-34" d="M 2419 4116 
L 825 1625 
L 2419 1625 
L 2419 4116 
z
M 2253 4666 
L 3047 4666 
L 3047 1625 
L 3713 1625 
L 3713 1100 
L 3047 1100 
L 3047 0 
L 2419 0 
L 2419 1100 
L 313 1100 
L 313 1709 
L 2253 4666 
z
" transform="scale(0.015625)"/>
       </defs>
       <use xlink:href="#DejaVuSans-31" transform="translate(0 0.684375)"/>
       <use xlink:href="#DejaVuSans-30" transform="translate(63.623047 0.684375)"/>
       <use xlink:href="#DejaVuSans-2212" transform="translate(128.203125 38.965625)scale(0.7)"/>
       <use xlink:href="#DejaVuSans-34" transform="translate(186.855469 38.965625)scale(0.7)"/>
      </g>
     </g>
    </g>
    <g id="ytick_2">
     <g id="line2d_13">
      <path d="M 53.367689 31.321092 
L 285.165354 31.321092 
" clip-path="url(#pa44101ebdb)" style="fill: none; stroke: #000000; stroke-opacity: 0.1; stroke-width: 0.5; stroke-linecap: square"/>
     </g>
     <g id="line2d_14">
      <g>
       <use xlink:href="#me84eae8fcb" x="53.367689" y="31.321092" style="stroke: #000000; stroke-width: 0.5"/>
      </g>
     </g>
     <g id="line2d_15">
      <g>
       <use xlink:href="#m91a72d10c0" x="285.165354" y="31.321092" style="stroke: #000000; stroke-width: 0.5"/>
      </g>
     </g>
     <g id="text_6">
      <!-- $10^{-3}$ -->
      <g transform="translate(21.667689 35.880154)scale(0.12 -0.12)">
       <use xlink:href="#DejaVuSans-31" transform="translate(0 0.765625)"/>
       <use xlink:href="#DejaVuSans-30" transform="translate(63.623047 0.765625)"/>
       <use xlink:href="#DejaVuSans-2212" transform="translate(128.203125 39.046875)scale(0.7)"/>
       <use xlink:href="#DejaVuSans-33" transform="translate(186.855469 39.046875)scale(0.7)"/>
      </g>
     </g>
    </g>
    <g id="text_7">
     <!-- Final y loss -->
     <g transform="translate(14.340189 97.52525)rotate(-90)scale(0.16 -0.16)">
      <defs>
       <path id="DejaVuSans-46" d="M 628 4666 
L 3309 4666 
L 3309 4134 
L 1259 4134 
L 1259 2759 
L 3109 2759 
L 3109 2228 
L 1259 2228 
L 1259 0 
L 628 0 
L 628 4666 
z
" transform="scale(0.015625)"/>
       <path id="DejaVuSans-6e" d="M 3513 2113 
L 3513 0 
L 2938 0 
L 2938 2094 
Q 2938 2591 2744 2837 
Q 2550 3084 2163 3084 
Q 1697 3084 1428 2787 
Q 1159 2491 1159 1978 
L 1159 0 
L 581 0 
L 581 3500 
L 1159 3500 
L 1159 2956 
Q 1366 3272 1645 3428 
Q 1925 3584 2291 3584 
Q 2894 3584 3203 3211 
Q 3513 2838 3513 2113 
z
" transform="scale(0.015625)"/>
       <path id="DejaVuSans-61" d="M 2194 1759 
Q 1497 1759 1228 1600 
Q 959 1441 959 1056 
Q 959 750 1161 570 
Q 1363 391 1709 391 
Q 2188 391 2477 730 
Q 2766 1069 2766 1631 
L 2766 1759 
L 2194 1759 
z
M 3341 1997 
L 3341 0 
L 2766 0 
L 2766 531 
Q 2569 213 2275 61 
Q 1981 -91 1556 -91 
Q 1019 -91 701 211 
Q 384 513 384 1019 
Q 384 1609 779 1909 
Q 1175 2209 1959 2209 
L 2766 2209 
L 2766 2266 
Q 2766 2663 2505 2880 
Q 2244 3097 1772 3097 
Q 1472 3097 1187 3025 
Q 903 2953 641 2809 
L 641 3341 
Q 956 3463 1253 3523 
Q 1550 3584 1831 3584 
Q 2591 3584 2966 3190 
Q 3341 2797 3341 1997 
z
" transform="scale(0.015625)"/>
       <path id="DejaVuSans-6c" d="M 603 4863 
L 1178 4863 
L 1178 0 
L 603 0 
L 603 4863 
z
" transform="scale(0.015625)"/>
       <path id="DejaVuSans-20" transform="scale(0.015625)"/>
       <path id="DejaVuSans-79" d="M 2059 -325 
Q 1816 -950 1584 -1140 
Q 1353 -1331 966 -1331 
L 506 -1331 
L 506 -850 
L 844 -850 
Q 1081 -850 1212 -737 
Q 1344 -625 1503 -206 
L 1606 56 
L 191 3500 
L 800 3500 
L 1894 763 
L 2988 3500 
L 3597 3500 
L 2059 -325 
z
" transform="scale(0.015625)"/>
      </defs>
      <use xlink:href="#DejaVuSans-46"/>
      <use xlink:href="#DejaVuSans-69" x="50.269531"/>
      <use xlink:href="#DejaVuSans-6e" x="78.052734"/>
      <use xlink:href="#DejaVuSans-61" x="141.431641"/>
      <use xlink:href="#DejaVuSans-6c" x="202.710938"/>
      <use xlink:href="#DejaVuSans-20" x="230.494141"/>
      <use xlink:href="#DejaVuSans-79" x="262.28125"/>
      <use xlink:href="#DejaVuSans-20" x="321.460938"/>
      <use xlink:href="#DejaVuSans-6c" x="353.248047"/>
      <use xlink:href="#DejaVuSans-6f" x="381.03125"/>
      <use xlink:href="#DejaVuSans-73" x="442.212891"/>
      <use xlink:href="#DejaVuSans-73" x="494.3125"/>
     </g>
    </g>
   </g>
   <g id="PathCollection_1">
    <defs>
     <path id="m0c0a6fa760" d="M 0 2 
C 0.530406 2 1.03916 1.789267 1.414214 1.414214 
C 1.789267 1.03916 2 0.530406 2 0 
C 2 -0.530406 1.789267 -1.03916 1.414214 -1.414214 
C 1.03916 -1.789267 0.530406 -2 0 -2 
C -0.530406 -2 -1.03916 -1.789267 -1.414214 -1.414214 
C -1.789267 -1.03916 -2 -0.530406 -2 0 
C -2 0.530406 -1.789267 1.03916 -1.414214 1.414214 
C -1.03916 1.789267 -0.530406 2 0 2 
z
" style="stroke: #000000"/>
    </defs>
    <g clip-path="url(#pa44101ebdb)">
     <use xlink:href="#m0c0a6fa760" x="84.719998" y="92.991272" style="stroke: #000000"/>
     <use xlink:href="#m0c0a6fa760" x="78.646943" y="93.989505" style="stroke: #000000"/>
     <use xlink:href="#m0c0a6fa760" x="166.061833" y="53.622067" style="stroke: #000000"/>
     <use xlink:href="#m0c0a6fa760" x="197.213108" y="40.400866" style="stroke: #000000"/>
     <use xlink:href="#m0c0a6fa760" x="196.106104" y="41.075681" style="stroke: #000000"/>
     <use xlink:href="#m0c0a6fa760" x="234.049123" y="23.182299" style="stroke: #000000"/>
     <use xlink:href="#m0c0a6fa760" x="188.25444" y="43.263007" style="stroke: #000000"/>
     <use xlink:href="#m0c0a6fa760" x="237.3978" y="21.620495" style="stroke: #000000"/>
     <use xlink:href="#m0c0a6fa760" x="105.784395" y="82.341847" style="stroke: #000000"/>
     <use xlink:href="#m0c0a6fa760" x="85.774825" y="91.664703" style="stroke: #000000"/>
     <use xlink:href="#m0c0a6fa760" x="251.883109" y="16.100152" style="stroke: #000000"/>
     <use xlink:href="#m0c0a6fa760" x="234.655719" y="22.394157" style="stroke: #000000"/>
     <use xlink:href="#m0c0a6fa760" x="265.978186" y="9.8236" style="stroke: #000000"/>
     <use xlink:href="#m0c0a6fa760" x="129.962034" y="70.617861" style="stroke: #000000"/>
     <use xlink:href="#m0c0a6fa760" x="187.480625" y="44.164921" style="stroke: #000000"/>
     <use xlink:href="#m0c0a6fa760" x="196.294973" y="40.064911" style="stroke: #000000"/>
     <use xlink:href="#m0c0a6fa760" x="83.436601" y="91.404592" style="stroke: #000000"/>
     <use xlink:href="#m0c0a6fa760" x="150.928753" y="61.000632" style="stroke: #000000"/>
     <use xlink:href="#m0c0a6fa760" x="82.409328" y="92.036973" style="stroke: #000000"/>
     <use xlink:href="#m0c0a6fa760" x="214.491504" y="32.25791" style="stroke: #000000"/>
     <use xlink:href="#m0c0a6fa760" x="232.083159" y="24.214909" style="stroke: #000000"/>
     <use xlink:href="#m0c0a6fa760" x="259.269659" y="13.997363" style="stroke: #000000"/>
     <use xlink:href="#m0c0a6fa760" x="95.93646" y="85.962302" style="stroke: #000000"/>
     <use xlink:href="#m0c0a6fa760" x="203.93524" y="35.421603" style="stroke: #000000"/>
     <use xlink:href="#m0c0a6fa760" x="252.607183" y="15.29817" style="stroke: #000000"/>
     <use xlink:href="#m0c0a6fa760" x="235.894846" y="23.302069" style="stroke: #000000"/>
     <use xlink:href="#m0c0a6fa760" x="142.499421" y="64.969252" style="stroke: #000000"/>
     <use xlink:href="#m0c0a6fa760" x="223.903958" y="28.2077" style="stroke: #000000"/>
     <use xlink:href="#m0c0a6fa760" x="230.590818" y="26.863272" style="stroke: #000000"/>
     <use xlink:href="#m0c0a6fa760" x="252.356621" y="14.477888" style="stroke: #000000"/>
     <use xlink:href="#m0c0a6fa760" x="250.67133" y="15.871209" style="stroke: #000000"/>
     <use xlink:href="#m0c0a6fa760" x="96.64965" y="86.368131" style="stroke: #000000"/>
     <use xlink:href="#m0c0a6fa760" x="249.312594" y="16.848685" style="stroke: #000000"/>
     <use xlink:href="#m0c0a6fa760" x="223.730508" y="29.151081" style="stroke: #000000"/>
     <use xlink:href="#m0c0a6fa760" x="194.966644" y="41.585291" style="stroke: #000000"/>
     <use xlink:href="#m0c0a6fa760" x="193.936873" y="42.379606" style="stroke: #000000"/>
     <use xlink:href="#m0c0a6fa760" x="159.800738" y="57.041556" style="stroke: #000000"/>
     <use xlink:href="#m0c0a6fa760" x="270.485077" y="6.353019" style="stroke: #000000"/>
     <use xlink:href="#m0c0a6fa760" x="98.481887" y="85.62616" style="stroke: #000000"/>
     <use xlink:href="#m0c0a6fa760" x="248.872304" y="15.820543" style="stroke: #000000"/>
     <use xlink:href="#m0c0a6fa760" x="80.332467" y="92.29926" style="stroke: #000000"/>
     <use xlink:href="#m0c0a6fa760" x="227.761464" y="27.471318" style="stroke: #000000"/>
     <use xlink:href="#m0c0a6fa760" x="202.678454" y="37.686744" style="stroke: #000000"/>
     <use xlink:href="#m0c0a6fa760" x="220.160611" y="29.678635" style="stroke: #000000"/>
     <use xlink:href="#m0c0a6fa760" x="203.467875" y="36.675563" style="stroke: #000000"/>
     <use xlink:href="#m0c0a6fa760" x="59.928" y="101.907731" style="stroke: #000000"/>
     <use xlink:href="#m0c0a6fa760" x="155.816464" y="59.174253" style="stroke: #000000"/>
     <use xlink:href="#m0c0a6fa760" x="151.821759" y="61.080885" style="stroke: #000000"/>
     <use xlink:href="#m0c0a6fa760" x="97.982836" y="85.885209" style="stroke: #000000"/>
     <use xlink:href="#m0c0a6fa760" x="113.334186" y="78.383105" style="stroke: #000000"/>
     <use xlink:href="#m0c0a6fa760" x="162.14453" y="56.638139" style="stroke: #000000"/>
     <use xlink:href="#m0c0a6fa760" x="190.476211" y="42.866836" style="stroke: #000000"/>
     <use xlink:href="#m0c0a6fa760" x="135.984076" y="68.348541" style="stroke: #000000"/>
     <use xlink:href="#m0c0a6fa760" x="252.790264" y="14.769699" style="stroke: #000000"/>
     <use xlink:href="#m0c0a6fa760" x="65.444469" y="100.084208" style="stroke: #000000"/>
     <use xlink:href="#m0c0a6fa760" x="267.481466" y="6.867281" style="stroke: #000000"/>
     <use xlink:href="#m0c0a6fa760" x="156.919342" y="58.192235" style="stroke: #000000"/>
     <use xlink:href="#m0c0a6fa760" x="116.707729" y="76.356243" style="stroke: #000000"/>
     <use xlink:href="#m0c0a6fa760" x="83.367734" y="90.929449" style="stroke: #000000"/>
     <use xlink:href="#m0c0a6fa760" x="120.276986" y="73.732175" style="stroke: #000000"/>
     <use xlink:href="#m0c0a6fa760" x="72.433597" y="98.15613" style="stroke: #000000"/>
     <use xlink:href="#m0c0a6fa760" x="66.997026" y="98.877661" style="stroke: #000000"/>
     <use xlink:href="#m0c0a6fa760" x="157.970039" y="57.9761" style="stroke: #000000"/>
     <use xlink:href="#m0c0a6fa760" x="107.721457" y="81.430164" style="stroke: #000000"/>
     <use xlink:href="#m0c0a6fa760" x="168.447007" y="52.877687" style="stroke: #000000"/>
     <use xlink:href="#m0c0a6fa760" x="177.292961" y="47.668818" style="stroke: #000000"/>
     <use xlink:href="#m0c0a6fa760" x="186.341832" y="44.491526" style="stroke: #000000"/>
     <use xlink:href="#m0c0a6fa760" x="139.125831" y="65.74849" style="stroke: #000000"/>
     <use xlink:href="#m0c0a6fa760" x="140.295864" y="65.593018" style="stroke: #000000"/>
     <use xlink:href="#m0c0a6fa760" x="89.820121" y="89.825155" style="stroke: #000000"/>
     <use xlink:href="#m0c0a6fa760" x="250.765665" y="15.735127" style="stroke: #000000"/>
     <use xlink:href="#m0c0a6fa760" x="91.997974" y="87.221493" style="stroke: #000000"/>
     <use xlink:href="#m0c0a6fa760" x="115.691447" y="77.769633" style="stroke: #000000"/>
     <use xlink:href="#m0c0a6fa760" x="190.750116" y="43.236731" style="stroke: #000000"/>
     <use xlink:href="#m0c0a6fa760" x="196.806283" y="40.297515" style="stroke: #000000"/>
     <use xlink:href="#m0c0a6fa760" x="118.89687" y="73.498347" style="stroke: #000000"/>
     <use xlink:href="#m0c0a6fa760" x="85.296262" y="90.634378" style="stroke: #000000"/>
     <use xlink:href="#m0c0a6fa760" x="205.909047" y="36.951268" style="stroke: #000000"/>
     <use xlink:href="#m0c0a6fa760" x="114.802515" y="77.877305" style="stroke: #000000"/>
     <use xlink:href="#m0c0a6fa760" x="125.881205" y="72.551063" style="stroke: #000000"/>
     <use xlink:href="#m0c0a6fa760" x="278.605043" y="5.720269" style="stroke: #000000"/>
     <use xlink:href="#m0c0a6fa760" x="76.329094" y="96.245333" style="stroke: #000000"/>
     <use xlink:href="#m0c0a6fa760" x="65.029741" y="91.982577" style="stroke: #000000"/>
     <use xlink:href="#m0c0a6fa760" x="167.460917" y="53.781652" style="stroke: #000000"/>
     <use xlink:href="#m0c0a6fa760" x="80.660896" y="92.139982" style="stroke: #000000"/>
     <use xlink:href="#m0c0a6fa760" x="180.663975" y="47.988049" style="stroke: #000000"/>
     <use xlink:href="#m0c0a6fa760" x="125.009273" y="74.208613" style="stroke: #000000"/>
     <use xlink:href="#m0c0a6fa760" x="92.832217" y="88.620663" style="stroke: #000000"/>
     <use xlink:href="#m0c0a6fa760" x="90.129685" y="88.34951" style="stroke: #000000"/>
     <use xlink:href="#m0c0a6fa760" x="187.074942" y="44.857711" style="stroke: #000000"/>
     <use xlink:href="#m0c0a6fa760" x="93.958502" y="88.338785" style="stroke: #000000"/>
     <use xlink:href="#m0c0a6fa760" x="114.630661" y="79.023559" style="stroke: #000000"/>
     <use xlink:href="#m0c0a6fa760" x="85.260657" y="91.536343" style="stroke: #000000"/>
     <use xlink:href="#m0c0a6fa760" x="198.818047" y="39.413684" style="stroke: #000000"/>
     <use xlink:href="#m0c0a6fa760" x="209.777249" y="36.381976" style="stroke: #000000"/>
     <use xlink:href="#m0c0a6fa760" x="102.215948" y="84.122052" style="stroke: #000000"/>
     <use xlink:href="#m0c0a6fa760" x="271.151712" y="6.124273" style="stroke: #000000"/>
     <use xlink:href="#m0c0a6fa760" x="86.040595" y="91.246613" style="stroke: #000000"/>
     <use xlink:href="#m0c0a6fa760" x="140.802688" y="65.010585" style="stroke: #000000"/>
     <use xlink:href="#m0c0a6fa760" x="181.376357" y="47.799167" style="stroke: #000000"/>
    </g>
   </g>
   <g id="patch_3">
    <path d="M 53.367689 104.793354 
L 53.367689 2.834646 
" style="fill: none; stroke: #000000; stroke-linejoin: miter; stroke-linecap: square"/>
   </g>
   <g id="patch_4">
    <path d="M 285.165354 104.793354 
L 285.165354 2.834646 
" style="fill: none; stroke: #000000; stroke-linejoin: miter; stroke-linecap: square"/>
   </g>
   <g id="patch_5">
    <path d="M 53.367689 104.793354 
L 285.165354 104.793354 
" style="fill: none; stroke: #000000; stroke-linejoin: miter; stroke-linecap: square"/>
   </g>
   <g id="patch_6">
    <path d="M 53.367689 2.834646 
L 285.165354 2.834646 
" style="fill: none; stroke: #000000; stroke-linejoin: miter; stroke-linecap: square"/>
   </g>
  </g>
  <g id="axes_2">
   <g id="patch_7">
    <path d="M 53.367689 248.793354 
L 285.165354 248.793354 
L 285.165354 146.834646 
L 53.367689 146.834646 
z
" style="fill: #ffffff"/>
   </g>
   <g id="matplotlib.axis_3">
    <g id="xtick_4">
     <g id="line2d_16">
      <path d="M 56.008724 248.793354 
L 56.008724 146.834646 
" clip-path="url(#p7caca7defc)" style="fill: none; stroke: #000000; stroke-opacity: 0.1; stroke-width: 0.5; stroke-linecap: square"/>
     </g>
     <g id="line2d_17">
      <g>
       <use xlink:href="#mbaed6d7c83" x="56.008724" y="248.793354" style="stroke: #000000; stroke-width: 0.5"/>
      </g>
     </g>
     <g id="line2d_18">
      <g>
       <use xlink:href="#mf327afb418" x="56.008724" y="146.834646" style="stroke: #000000; stroke-width: 0.5"/>
      </g>
     </g>
     <g id="text_8">
      <!-- $10^{-3}$ -->
      <g transform="translate(41.908724 261.411479)scale(0.12 -0.12)">
       <use xlink:href="#DejaVuSans-31" transform="translate(0 0.765625)"/>
       <use xlink:href="#DejaVuSans-30" transform="translate(63.623047 0.765625)"/>
       <use xlink:href="#DejaVuSans-2212" transform="translate(128.203125 39.046875)scale(0.7)"/>
       <use xlink:href="#DejaVuSans-33" transform="translate(186.855469 39.046875)scale(0.7)"/>
      </g>
     </g>
    </g>
    <g id="xtick_5">
     <g id="line2d_19">
      <path d="M 154.412333 248.793354 
L 154.412333 146.834646 
" clip-path="url(#p7caca7defc)" style="fill: none; stroke: #000000; stroke-opacity: 0.1; stroke-width: 0.5; stroke-linecap: square"/>
     </g>
     <g id="line2d_20">
      <g>
       <use xlink:href="#mbaed6d7c83" x="154.412333" y="248.793354" style="stroke: #000000; stroke-width: 0.5"/>
      </g>
     </g>
     <g id="line2d_21">
      <g>
       <use xlink:href="#mf327afb418" x="154.412333" y="146.834646" style="stroke: #000000; stroke-width: 0.5"/>
      </g>
     </g>
     <g id="text_9">
      <!-- $10^{-2}$ -->
      <g transform="translate(140.312333 261.411479)scale(0.12 -0.12)">
       <use xlink:href="#DejaVuSans-31" transform="translate(0 0.765625)"/>
       <use xlink:href="#DejaVuSans-30" transform="translate(63.623047 0.765625)"/>
       <use xlink:href="#DejaVuSans-2212" transform="translate(128.203125 39.046875)scale(0.7)"/>
       <use xlink:href="#DejaVuSans-32" transform="translate(186.855469 39.046875)scale(0.7)"/>
      </g>
     </g>
    </g>
    <g id="xtick_6">
     <g id="line2d_22">
      <path d="M 252.815943 248.793354 
L 252.815943 146.834646 
" clip-path="url(#p7caca7defc)" style="fill: none; stroke: #000000; stroke-opacity: 0.1; stroke-width: 0.5; stroke-linecap: square"/>
     </g>
     <g id="line2d_23">
      <g>
       <use xlink:href="#mbaed6d7c83" x="252.815943" y="248.793354" style="stroke: #000000; stroke-width: 0.5"/>
      </g>
     </g>
     <g id="line2d_24">
      <g>
       <use xlink:href="#mf327afb418" x="252.815943" y="146.834646" style="stroke: #000000; stroke-width: 0.5"/>
      </g>
     </g>
     <g id="text_10">
      <!-- $10^{-1}$ -->
      <g transform="translate(238.715943 261.411479)scale(0.12 -0.12)">
       <use xlink:href="#DejaVuSans-31" transform="translate(0 0.684375)"/>
       <use xlink:href="#DejaVuSans-30" transform="translate(63.623047 0.684375)"/>
       <use xlink:href="#DejaVuSans-2212" transform="translate(128.203125 38.965625)scale(0.7)"/>
       <use xlink:href="#DejaVuSans-31" transform="translate(186.855469 38.965625)scale(0.7)"/>
      </g>
     </g>
    </g>
    <g id="text_11">
     <!-- Noise -->
     <g transform="translate(147.074021 280.064604)scale(0.16 -0.16)">
      <use xlink:href="#DejaVuSans-4e"/>
      <use xlink:href="#DejaVuSans-6f" x="74.804688"/>
      <use xlink:href="#DejaVuSans-69" x="135.986328"/>
      <use xlink:href="#DejaVuSans-73" x="163.769531"/>
      <use xlink:href="#DejaVuSans-65" x="215.869141"/>
     </g>
    </g>
   </g>
   <g id="matplotlib.axis_4">
    <g id="ytick_3">
     <g id="line2d_25">
      <path d="M 53.367689 245.922885 
L 285.165354 245.922885 
" clip-path="url(#p7caca7defc)" style="fill: none; stroke: #000000; stroke-opacity: 0.1; stroke-width: 0.5; stroke-linecap: square"/>
     </g>
     <g id="line2d_26">
      <g>
       <use xlink:href="#me84eae8fcb" x="53.367689" y="245.922885" style="stroke: #000000; stroke-width: 0.5"/>
      </g>
     </g>
     <g id="line2d_27">
      <g>
       <use xlink:href="#m91a72d10c0" x="285.165354" y="245.922885" style="stroke: #000000; stroke-width: 0.5"/>
      </g>
     </g>
     <g id="text_12">
      <!-- $10^{-4}$ -->
      <g transform="translate(21.667689 250.481947)scale(0.12 -0.12)">
       <use xlink:href="#DejaVuSans-31" transform="translate(0 0.684375)"/>
       <use xlink:href="#DejaVuSans-30" transform="translate(63.623047 0.684375)"/>
       <use xlink:href="#DejaVuSans-2212" transform="translate(128.203125 38.965625)scale(0.7)"/>
       <use xlink:href="#DejaVuSans-34" transform="translate(186.855469 38.965625)scale(0.7)"/>
      </g>
     </g>
    </g>
    <g id="ytick_4">
     <g id="line2d_28">
      <path d="M 53.367689 212.231132 
L 285.165354 212.231132 
" clip-path="url(#p7caca7defc)" style="fill: none; stroke: #000000; stroke-opacity: 0.1; stroke-width: 0.5; stroke-linecap: square"/>
     </g>
     <g id="line2d_29">
      <g>
       <use xlink:href="#me84eae8fcb" x="53.367689" y="212.231132" style="stroke: #000000; stroke-width: 0.5"/>
      </g>
     </g>
     <g id="line2d_30">
      <g>
       <use xlink:href="#m91a72d10c0" x="285.165354" y="212.231132" style="stroke: #000000; stroke-width: 0.5"/>
      </g>
     </g>
     <g id="text_13">
      <!-- $10^{-3}$ -->
      <g transform="translate(21.667689 216.790194)scale(0.12 -0.12)">
       <use xlink:href="#DejaVuSans-31" transform="translate(0 0.765625)"/>
       <use xlink:href="#DejaVuSans-30" transform="translate(63.623047 0.765625)"/>
       <use xlink:href="#DejaVuSans-2212" transform="translate(128.203125 39.046875)scale(0.7)"/>
       <use xlink:href="#DejaVuSans-33" transform="translate(186.855469 39.046875)scale(0.7)"/>
      </g>
     </g>
    </g>
    <g id="ytick_5">
     <g id="line2d_31">
      <path d="M 53.367689 178.539378 
L 285.165354 178.539378 
" clip-path="url(#p7caca7defc)" style="fill: none; stroke: #000000; stroke-opacity: 0.1; stroke-width: 0.5; stroke-linecap: square"/>
     </g>
     <g id="line2d_32">
      <g>
       <use xlink:href="#me84eae8fcb" x="53.367689" y="178.539378" style="stroke: #000000; stroke-width: 0.5"/>
      </g>
     </g>
     <g id="line2d_33">
      <g>
       <use xlink:href="#m91a72d10c0" x="285.165354" y="178.539378" style="stroke: #000000; stroke-width: 0.5"/>
      </g>
     </g>
     <g id="text_14">
      <!-- $10^{-2}$ -->
      <g transform="translate(21.667689 183.098441)scale(0.12 -0.12)">
       <use xlink:href="#DejaVuSans-31" transform="translate(0 0.765625)"/>
       <use xlink:href="#DejaVuSans-30" transform="translate(63.623047 0.765625)"/>
       <use xlink:href="#DejaVuSans-2212" transform="translate(128.203125 39.046875)scale(0.7)"/>
       <use xlink:href="#DejaVuSans-32" transform="translate(186.855469 39.046875)scale(0.7)"/>
      </g>
     </g>
    </g>
    <g id="text_15">
     <!-- Final p loss -->
     <g transform="translate(14.340189 241.869)rotate(-90)scale(0.16 -0.16)">
      <defs>
       <path id="DejaVuSans-70" d="M 1159 525 
L 1159 -1331 
L 581 -1331 
L 581 3500 
L 1159 3500 
L 1159 2969 
Q 1341 3281 1617 3432 
Q 1894 3584 2278 3584 
Q 2916 3584 3314 3078 
Q 3713 2572 3713 1747 
Q 3713 922 3314 415 
Q 2916 -91 2278 -91 
Q 1894 -91 1617 61 
Q 1341 213 1159 525 
z
M 3116 1747 
Q 3116 2381 2855 2742 
Q 2594 3103 2138 3103 
Q 1681 3103 1420 2742 
Q 1159 2381 1159 1747 
Q 1159 1113 1420 752 
Q 1681 391 2138 391 
Q 2594 391 2855 752 
Q 3116 1113 3116 1747 
z
" transform="scale(0.015625)"/>
      </defs>
      <use xlink:href="#DejaVuSans-46"/>
      <use xlink:href="#DejaVuSans-69" x="50.269531"/>
      <use xlink:href="#DejaVuSans-6e" x="78.052734"/>
      <use xlink:href="#DejaVuSans-61" x="141.431641"/>
      <use xlink:href="#DejaVuSans-6c" x="202.710938"/>
      <use xlink:href="#DejaVuSans-20" x="230.494141"/>
      <use xlink:href="#DejaVuSans-70" x="262.28125"/>
      <use xlink:href="#DejaVuSans-20" x="325.757812"/>
      <use xlink:href="#DejaVuSans-6c" x="357.544922"/>
      <use xlink:href="#DejaVuSans-6f" x="385.328125"/>
      <use xlink:href="#DejaVuSans-73" x="446.509766"/>
      <use xlink:href="#DejaVuSans-73" x="498.609375"/>
     </g>
    </g>
   </g>
   <g id="PathCollection_2">
    <g clip-path="url(#p7caca7defc)">
     <use xlink:href="#m0c0a6fa760" x="84.719998" y="203.947564" style="stroke: #000000"/>
     <use xlink:href="#m0c0a6fa760" x="78.646943" y="232.394588" style="stroke: #000000"/>
     <use xlink:href="#m0c0a6fa760" x="166.061833" y="206.05258" style="stroke: #000000"/>
     <use xlink:href="#m0c0a6fa760" x="197.213108" y="175.721098" style="stroke: #000000"/>
     <use xlink:href="#m0c0a6fa760" x="196.106104" y="197.61622" style="stroke: #000000"/>
     <use xlink:href="#m0c0a6fa760" x="234.049123" y="175.543673" style="stroke: #000000"/>
     <use xlink:href="#m0c0a6fa760" x="188.25444" y="172.460144" style="stroke: #000000"/>
     <use xlink:href="#m0c0a6fa760" x="237.3978" y="168.098473" style="stroke: #000000"/>
     <use xlink:href="#m0c0a6fa760" x="105.784395" y="209.826768" style="stroke: #000000"/>
     <use xlink:href="#m0c0a6fa760" x="85.774825" y="231.2429" style="stroke: #000000"/>
     <use xlink:href="#m0c0a6fa760" x="251.883109" y="171.938931" style="stroke: #000000"/>
     <use xlink:href="#m0c0a6fa760" x="234.655719" y="169.890041" style="stroke: #000000"/>
     <use xlink:href="#m0c0a6fa760" x="265.978186" y="153.503316" style="stroke: #000000"/>
     <use xlink:href="#m0c0a6fa760" x="129.962034" y="198.129802" style="stroke: #000000"/>
     <use xlink:href="#m0c0a6fa760" x="187.480625" y="223.922163" style="stroke: #000000"/>
     <use xlink:href="#m0c0a6fa760" x="196.294973" y="189.80358" style="stroke: #000000"/>
     <use xlink:href="#m0c0a6fa760" x="83.436601" y="242.206316" style="stroke: #000000"/>
     <use xlink:href="#m0c0a6fa760" x="150.928753" y="208.069251" style="stroke: #000000"/>
     <use xlink:href="#m0c0a6fa760" x="82.409328" y="215.673155" style="stroke: #000000"/>
     <use xlink:href="#m0c0a6fa760" x="214.491504" y="171.195895" style="stroke: #000000"/>
     <use xlink:href="#m0c0a6fa760" x="232.083159" y="174.592206" style="stroke: #000000"/>
     <use xlink:href="#m0c0a6fa760" x="259.269659" y="149.720269" style="stroke: #000000"/>
     <use xlink:href="#m0c0a6fa760" x="95.93646" y="218.872121" style="stroke: #000000"/>
     <use xlink:href="#m0c0a6fa760" x="203.93524" y="178.323329" style="stroke: #000000"/>
     <use xlink:href="#m0c0a6fa760" x="252.607183" y="172.174171" style="stroke: #000000"/>
     <use xlink:href="#m0c0a6fa760" x="235.894846" y="164.833552" style="stroke: #000000"/>
     <use xlink:href="#m0c0a6fa760" x="142.499421" y="208.470821" style="stroke: #000000"/>
     <use xlink:href="#m0c0a6fa760" x="223.903958" y="167.846743" style="stroke: #000000"/>
     <use xlink:href="#m0c0a6fa760" x="230.590818" y="172.150076" style="stroke: #000000"/>
     <use xlink:href="#m0c0a6fa760" x="252.356621" y="156.400138" style="stroke: #000000"/>
     <use xlink:href="#m0c0a6fa760" x="250.67133" y="160.446026" style="stroke: #000000"/>
     <use xlink:href="#m0c0a6fa760" x="96.64965" y="224.288691" style="stroke: #000000"/>
     <use xlink:href="#m0c0a6fa760" x="249.312594" y="156.919417" style="stroke: #000000"/>
     <use xlink:href="#m0c0a6fa760" x="223.730508" y="177.074599" style="stroke: #000000"/>
     <use xlink:href="#m0c0a6fa760" x="194.966644" y="208.080111" style="stroke: #000000"/>
     <use xlink:href="#m0c0a6fa760" x="193.936873" y="181.454197" style="stroke: #000000"/>
     <use xlink:href="#m0c0a6fa760" x="159.800738" y="195.348774" style="stroke: #000000"/>
     <use xlink:href="#m0c0a6fa760" x="270.485077" y="158.783592" style="stroke: #000000"/>
     <use xlink:href="#m0c0a6fa760" x="98.481887" y="209.767766" style="stroke: #000000"/>
     <use xlink:href="#m0c0a6fa760" x="248.872304" y="170.121073" style="stroke: #000000"/>
     <use xlink:href="#m0c0a6fa760" x="80.332467" y="226.178408" style="stroke: #000000"/>
     <use xlink:href="#m0c0a6fa760" x="227.761464" y="166.567283" style="stroke: #000000"/>
     <use xlink:href="#m0c0a6fa760" x="202.678454" y="175.397227" style="stroke: #000000"/>
     <use xlink:href="#m0c0a6fa760" x="220.160611" y="179.514942" style="stroke: #000000"/>
     <use xlink:href="#m0c0a6fa760" x="203.467875" y="189.710695" style="stroke: #000000"/>
     <use xlink:href="#m0c0a6fa760" x="59.928" y="233.119561" style="stroke: #000000"/>
     <use xlink:href="#m0c0a6fa760" x="155.816464" y="189.783784" style="stroke: #000000"/>
     <use xlink:href="#m0c0a6fa760" x="151.821759" y="191.62357" style="stroke: #000000"/>
     <use xlink:href="#m0c0a6fa760" x="97.982836" y="219.492938" style="stroke: #000000"/>
     <use xlink:href="#m0c0a6fa760" x="113.334186" y="215.211478" style="stroke: #000000"/>
     <use xlink:href="#m0c0a6fa760" x="162.14453" y="201.37494" style="stroke: #000000"/>
     <use xlink:href="#m0c0a6fa760" x="190.476211" y="185.606068" style="stroke: #000000"/>
     <use xlink:href="#m0c0a6fa760" x="135.984076" y="199.023638" style="stroke: #000000"/>
     <use xlink:href="#m0c0a6fa760" x="252.790264" y="152.303398" style="stroke: #000000"/>
     <use xlink:href="#m0c0a6fa760" x="65.444469" y="241.513141" style="stroke: #000000"/>
     <use xlink:href="#m0c0a6fa760" x="267.481466" y="189.202211" style="stroke: #000000"/>
     <use xlink:href="#m0c0a6fa760" x="156.919342" y="206.509968" style="stroke: #000000"/>
     <use xlink:href="#m0c0a6fa760" x="116.707729" y="196.373125" style="stroke: #000000"/>
     <use xlink:href="#m0c0a6fa760" x="83.367734" y="223.812279" style="stroke: #000000"/>
     <use xlink:href="#m0c0a6fa760" x="120.276986" y="224.024643" style="stroke: #000000"/>
     <use xlink:href="#m0c0a6fa760" x="72.433597" y="242.33858" style="stroke: #000000"/>
     <use xlink:href="#m0c0a6fa760" x="66.997026" y="245.907731" style="stroke: #000000"/>
     <use xlink:href="#m0c0a6fa760" x="157.970039" y="201.19582" style="stroke: #000000"/>
     <use xlink:href="#m0c0a6fa760" x="107.721457" y="211.880298" style="stroke: #000000"/>
     <use xlink:href="#m0c0a6fa760" x="168.447007" y="188.240917" style="stroke: #000000"/>
     <use xlink:href="#m0c0a6fa760" x="177.292961" y="206.98505" style="stroke: #000000"/>
     <use xlink:href="#m0c0a6fa760" x="186.341832" y="192.986238" style="stroke: #000000"/>
     <use xlink:href="#m0c0a6fa760" x="139.125831" y="196.405359" style="stroke: #000000"/>
     <use xlink:href="#m0c0a6fa760" x="140.295864" y="200.653487" style="stroke: #000000"/>
     <use xlink:href="#m0c0a6fa760" x="89.820121" y="211.942307" style="stroke: #000000"/>
     <use xlink:href="#m0c0a6fa760" x="250.765665" y="151.484592" style="stroke: #000000"/>
     <use xlink:href="#m0c0a6fa760" x="91.997974" y="225.585272" style="stroke: #000000"/>
     <use xlink:href="#m0c0a6fa760" x="115.691447" y="218.211264" style="stroke: #000000"/>
     <use xlink:href="#m0c0a6fa760" x="190.750116" y="190.899116" style="stroke: #000000"/>
     <use xlink:href="#m0c0a6fa760" x="196.806283" y="185.903366" style="stroke: #000000"/>
     <use xlink:href="#m0c0a6fa760" x="118.89687" y="200.874064" style="stroke: #000000"/>
     <use xlink:href="#m0c0a6fa760" x="85.296262" y="213.831678" style="stroke: #000000"/>
     <use xlink:href="#m0c0a6fa760" x="205.909047" y="181.073439" style="stroke: #000000"/>
     <use xlink:href="#m0c0a6fa760" x="114.802515" y="226.907823" style="stroke: #000000"/>
     <use xlink:href="#m0c0a6fa760" x="125.881205" y="221.917989" style="stroke: #000000"/>
     <use xlink:href="#m0c0a6fa760" x="278.605043" y="162.74378" style="stroke: #000000"/>
     <use xlink:href="#m0c0a6fa760" x="76.329094" y="223.22025" style="stroke: #000000"/>
     <use xlink:href="#m0c0a6fa760" x="65.029741" y="187.256008" style="stroke: #000000"/>
     <use xlink:href="#m0c0a6fa760" x="167.460917" y="196.208921" style="stroke: #000000"/>
     <use xlink:href="#m0c0a6fa760" x="80.660896" y="207.006997" style="stroke: #000000"/>
     <use xlink:href="#m0c0a6fa760" x="180.663975" y="186.628032" style="stroke: #000000"/>
     <use xlink:href="#m0c0a6fa760" x="125.009273" y="189.629713" style="stroke: #000000"/>
     <use xlink:href="#m0c0a6fa760" x="92.832217" y="220.437553" style="stroke: #000000"/>
     <use xlink:href="#m0c0a6fa760" x="90.129685" y="217.833382" style="stroke: #000000"/>
     <use xlink:href="#m0c0a6fa760" x="187.074942" y="196.143525" style="stroke: #000000"/>
     <use xlink:href="#m0c0a6fa760" x="93.958502" y="233.68778" style="stroke: #000000"/>
     <use xlink:href="#m0c0a6fa760" x="114.630661" y="216.025271" style="stroke: #000000"/>
     <use xlink:href="#m0c0a6fa760" x="85.260657" y="233.159717" style="stroke: #000000"/>
     <use xlink:href="#m0c0a6fa760" x="198.818047" y="166.396482" style="stroke: #000000"/>
     <use xlink:href="#m0c0a6fa760" x="209.777249" y="170.164397" style="stroke: #000000"/>
     <use xlink:href="#m0c0a6fa760" x="102.215948" y="221.232056" style="stroke: #000000"/>
     <use xlink:href="#m0c0a6fa760" x="271.151712" y="161.081535" style="stroke: #000000"/>
     <use xlink:href="#m0c0a6fa760" x="86.040595" y="228.265891" style="stroke: #000000"/>
     <use xlink:href="#m0c0a6fa760" x="140.802688" y="215.952513" style="stroke: #000000"/>
     <use xlink:href="#m0c0a6fa760" x="181.376357" y="198.180379" style="stroke: #000000"/>
    </g>
   </g>
   <g id="patch_8">
    <path d="M 53.367689 248.793354 
L 53.367689 146.834646 
" style="fill: none; stroke: #000000; stroke-linejoin: miter; stroke-linecap: square"/>
   </g>
   <g id="patch_9">
    <path d="M 285.165354 248.793354 
L 285.165354 146.834646 
" style="fill: none; stroke: #000000; stroke-linejoin: miter; stroke-linecap: square"/>
   </g>
   <g id="patch_10">
    <path d="M 53.367689 248.793354 
L 285.165354 248.793354 
" style="fill: none; stroke: #000000; stroke-linejoin: miter; stroke-linecap: square"/>
   </g>
   <g id="patch_11">
    <path d="M 53.367689 146.834646 
L 285.165354 146.834646 
" style="fill: none; stroke: #000000; stroke-linejoin: miter; stroke-linecap: square"/>
   </g>
  </g>
 </g>
 <defs>
  <clipPath id="pa44101ebdb">
   <rect x="53.367689" y="2.834646" width="231.797666" height="101.958709"/>
  </clipPath>
  <clipPath id="p7caca7defc">
   <rect x="53.367689" y="146.834646" width="231.797666" height="101.958709"/>
  </clipPath>
 </defs>
</svg>
