<?xml version="1.0" encoding="utf-8" standalone="no"?>
<!DOCTYPE svg PUBLIC "-//W3C//DTD SVG 1.1//EN"
  "http://www.w3.org/Graphics/SVG/1.1/DTD/svg11.dtd">
<svg xmlns:xlink="http://www.w3.org/1999/xlink" width="288pt" height="288pt" viewBox="0 0 288 288" xmlns="http://www.w3.org/2000/svg" version="1.1">
 <metadata>
  <rdf:RDF xmlns:dc="http://purl.org/dc/elements/1.1/" xmlns:cc="http://creativecommons.org/ns#" xmlns:rdf="http://www.w3.org/1999/02/22-rdf-syntax-ns#">
   <cc:Work>
    <dc:type rdf:resource="http://purl.org/dc/dcmitype/StillImage"/>
    <dc:date>2021-12-20T01:49:34.289945</dc:date>
    <dc:format>image/svg+xml</dc:format>
    <dc:creator>
     <cc:Agent>
      <dc:title>Matplotlib v3.5.0, https://matplotlib.org/</dc:title>
     </cc:Agent>
    </dc:creator>
   </cc:Work>
  </rdf:RDF>
 </metadata>
 <defs>
  <style type="text/css">*{stroke-linejoin: round; stroke-linecap: butt}</style>
 </defs>
 <g id="figure_1">
  <g id="patch_1">
   <path d="M 0 288 
L 288 288 
L 288 0 
L 0 0 
z
" style="fill: #ffffff"/>
  </g>
  <g id="axes_1">
   <g id="patch_2">
    <path d="M 36 90 
L 259.2 90 
L 259.2 34.56 
L 36 34.56 
z
" style="fill: #ffffff"/>
   </g>
   <g id="matplotlib.axis_1">
    <g id="xtick_1">
     <g id="line2d_1">
      <defs>
       <path id="m1b848874fe" d="M 0 0 
L 0 3.5 
" style="stroke: #000000; stroke-width: 0.8"/>
      </defs>
      <g>
       <use xlink:href="#m1b848874fe" x="63.054545" y="90" style="stroke: #000000; stroke-width: 0.8"/>
      </g>
     </g>
     <g id="text_1">
      <!-- $\mathdefault{10^{-3}}$ -->
      <g transform="translate(51.304545 104.598437)scale(0.1 -0.1)">
       <defs>
        <path id="DejaVuSans-31" d="M 794 531 
L 1825 531 
L 1825 4091 
L 703 3866 
L 703 4441 
L 1819 4666 
L 2450 4666 
L 2450 531 
L 3481 531 
L 3481 0 
L 794 0 
L 794 531 
z
" transform="scale(0.015625)"/>
        <path id="DejaVuSans-30" d="M 2034 4250 
Q 1547 4250 1301 3770 
Q 1056 3291 1056 2328 
Q 1056 1369 1301 889 
Q 1547 409 2034 409 
Q 2525 409 2770 889 
Q 3016 1369 3016 2328 
Q 3016 3291 2770 3770 
Q 2525 4250 2034 4250 
z
M 2034 4750 
Q 2819 4750 3233 4129 
Q 3647 3509 3647 2328 
Q 3647 1150 3233 529 
Q 2819 -91 2034 -91 
Q 1250 -91 836 529 
Q 422 1150 422 2328 
Q 422 3509 836 4129 
Q 1250 4750 2034 4750 
z
" transform="scale(0.015625)"/>
        <path id="DejaVuSans-2212" d="M 678 2272 
L 4684 2272 
L 4684 1741 
L 678 1741 
L 678 2272 
z
" transform="scale(0.015625)"/>
        <path id="DejaVuSans-33" d="M 2597 2516 
Q 3050 2419 3304 2112 
Q 3559 1806 3559 1356 
Q 3559 666 3084 287 
Q 2609 -91 1734 -91 
Q 1441 -91 1130 -33 
Q 819 25 488 141 
L 488 750 
Q 750 597 1062 519 
Q 1375 441 1716 441 
Q 2309 441 2620 675 
Q 2931 909 2931 1356 
Q 2931 1769 2642 2001 
Q 2353 2234 1838 2234 
L 1294 2234 
L 1294 2753 
L 1863 2753 
Q 2328 2753 2575 2939 
Q 2822 3125 2822 3475 
Q 2822 3834 2567 4026 
Q 2313 4219 1838 4219 
Q 1578 4219 1281 4162 
Q 984 4106 628 3988 
L 628 4550 
Q 988 4650 1302 4700 
Q 1616 4750 1894 4750 
Q 2613 4750 3031 4423 
Q 3450 4097 3450 3541 
Q 3450 3153 3228 2886 
Q 3006 2619 2597 2516 
z
" transform="scale(0.015625)"/>
       </defs>
       <use xlink:href="#DejaVuSans-31" transform="translate(0 0.765625)"/>
       <use xlink:href="#DejaVuSans-30" transform="translate(63.623047 0.765625)"/>
       <use xlink:href="#DejaVuSans-2212" transform="translate(128.203125 39.046875)scale(0.7)"/>
       <use xlink:href="#DejaVuSans-33" transform="translate(186.855469 39.046875)scale(0.7)"/>
      </g>
     </g>
    </g>
    <g id="xtick_2">
     <g id="line2d_2">
      <g>
       <use xlink:href="#m1b848874fe" x="96.872727" y="90" style="stroke: #000000; stroke-width: 0.8"/>
      </g>
     </g>
     <g id="text_2">
      <!-- $\mathdefault{10^{-1}}$ -->
      <g transform="translate(85.122727 104.598437)scale(0.1 -0.1)">
       <use xlink:href="#DejaVuSans-31" transform="translate(0 0.684375)"/>
       <use xlink:href="#DejaVuSans-30" transform="translate(63.623047 0.684375)"/>
       <use xlink:href="#DejaVuSans-2212" transform="translate(128.203125 38.965625)scale(0.7)"/>
       <use xlink:href="#DejaVuSans-31" transform="translate(186.855469 38.965625)scale(0.7)"/>
      </g>
     </g>
    </g>
    <g id="xtick_3">
     <g id="line2d_3">
      <g>
       <use xlink:href="#m1b848874fe" x="130.690909" y="90" style="stroke: #000000; stroke-width: 0.8"/>
      </g>
     </g>
     <g id="text_3">
      <!-- $\mathdefault{10^{1}}$ -->
      <g transform="translate(121.890909 104.598437)scale(0.1 -0.1)">
       <use xlink:href="#DejaVuSans-31" transform="translate(0 0.684375)"/>
       <use xlink:href="#DejaVuSans-30" transform="translate(63.623047 0.684375)"/>
       <use xlink:href="#DejaVuSans-31" transform="translate(128.203125 38.965625)scale(0.7)"/>
      </g>
     </g>
    </g>
    <g id="xtick_4">
     <g id="line2d_4">
      <g>
       <use xlink:href="#m1b848874fe" x="164.509091" y="90" style="stroke: #000000; stroke-width: 0.8"/>
      </g>
     </g>
     <g id="text_4">
      <!-- $\mathdefault{10^{3}}$ -->
      <g transform="translate(155.709091 104.598437)scale(0.1 -0.1)">
       <use xlink:href="#DejaVuSans-31" transform="translate(0 0.765625)"/>
       <use xlink:href="#DejaVuSans-30" transform="translate(63.623047 0.765625)"/>
       <use xlink:href="#DejaVuSans-33" transform="translate(128.203125 39.046875)scale(0.7)"/>
      </g>
     </g>
    </g>
    <g id="xtick_5">
     <g id="line2d_5">
      <g>
       <use xlink:href="#m1b848874fe" x="198.327273" y="90" style="stroke: #000000; stroke-width: 0.8"/>
      </g>
     </g>
     <g id="text_5">
      <!-- $\mathdefault{10^{5}}$ -->
      <g transform="translate(189.527273 104.598437)scale(0.1 -0.1)">
       <defs>
        <path id="DejaVuSans-35" d="M 691 4666 
L 3169 4666 
L 3169 4134 
L 1269 4134 
L 1269 2991 
Q 1406 3038 1543 3061 
Q 1681 3084 1819 3084 
Q 2600 3084 3056 2656 
Q 3513 2228 3513 1497 
Q 3513 744 3044 326 
Q 2575 -91 1722 -91 
Q 1428 -91 1123 -41 
Q 819 9 494 109 
L 494 744 
Q 775 591 1075 516 
Q 1375 441 1709 441 
Q 2250 441 2565 725 
Q 2881 1009 2881 1497 
Q 2881 1984 2565 2268 
Q 2250 2553 1709 2553 
Q 1456 2553 1204 2497 
Q 953 2441 691 2322 
L 691 4666 
z
" transform="scale(0.015625)"/>
       </defs>
       <use xlink:href="#DejaVuSans-31" transform="translate(0 0.684375)"/>
       <use xlink:href="#DejaVuSans-30" transform="translate(63.623047 0.684375)"/>
       <use xlink:href="#DejaVuSans-35" transform="translate(128.203125 38.965625)scale(0.7)"/>
      </g>
     </g>
    </g>
    <g id="xtick_6">
     <g id="line2d_6">
      <g>
       <use xlink:href="#m1b848874fe" x="232.145455" y="90" style="stroke: #000000; stroke-width: 0.8"/>
      </g>
     </g>
     <g id="text_6">
      <!-- $\mathdefault{10^{7}}$ -->
      <g transform="translate(223.345455 104.598437)scale(0.1 -0.1)">
       <defs>
        <path id="DejaVuSans-37" d="M 525 4666 
L 3525 4666 
L 3525 4397 
L 1831 0 
L 1172 0 
L 2766 4134 
L 525 4134 
L 525 4666 
z
" transform="scale(0.015625)"/>
       </defs>
       <use xlink:href="#DejaVuSans-31" transform="translate(0 0.684375)"/>
       <use xlink:href="#DejaVuSans-30" transform="translate(63.623047 0.684375)"/>
       <use xlink:href="#DejaVuSans-37" transform="translate(128.203125 38.965625)scale(0.7)"/>
      </g>
     </g>
    </g>
   </g>
   <g id="matplotlib.axis_2">
    <g id="ytick_1">
     <g id="line2d_7">
      <defs>
       <path id="m65baa735c7" d="M 0 0 
L -3.5 0 
" style="stroke: #000000; stroke-width: 0.8"/>
      </defs>
      <g>
       <use xlink:href="#m65baa735c7" x="36" y="83.306969" style="stroke: #000000; stroke-width: 0.8"/>
      </g>
     </g>
     <g id="text_7">
      <!-- 0 -->
      <g transform="translate(22.6375 87.106187)scale(0.1 -0.1)">
       <use xlink:href="#DejaVuSans-30"/>
      </g>
     </g>
    </g>
    <g id="ytick_2">
     <g id="line2d_8">
      <g>
       <use xlink:href="#m65baa735c7" x="36" y="40.991272" style="stroke: #000000; stroke-width: 0.8"/>
      </g>
     </g>
     <g id="text_8">
      <!-- 1 -->
      <g transform="translate(22.6375 44.79049)scale(0.1 -0.1)">
       <use xlink:href="#DejaVuSans-31"/>
      </g>
     </g>
    </g>
    <g id="text_9">
     <!-- y1 -->
     <g transform="translate(16.557812 68.420625)rotate(-90)scale(0.1 -0.1)">
      <defs>
       <path id="DejaVuSans-79" d="M 2059 -325 
Q 1816 -950 1584 -1140 
Q 1353 -1331 966 -1331 
L 506 -1331 
L 506 -850 
L 844 -850 
Q 1081 -850 1212 -737 
Q 1344 -625 1503 -206 
L 1606 56 
L 191 3500 
L 800 3500 
L 1894 763 
L 2988 3500 
L 3597 3500 
L 2059 -325 
z
" transform="scale(0.015625)"/>
      </defs>
      <use xlink:href="#DejaVuSans-79"/>
      <use xlink:href="#DejaVuSans-31" x="59.179688"/>
     </g>
    </g>
   </g>
   <g id="line2d_9">
    <defs>
     <path id="m0c15ef86d7" d="M 0 1.5 
C 0.397805 1.5 0.77937 1.341951 1.06066 1.06066 
C 1.341951 0.77937 1.5 0.397805 1.5 0 
C 1.5 -0.397805 1.341951 -0.77937 1.06066 -1.06066 
C 0.77937 -1.341951 0.397805 -1.5 0 -1.5 
C -0.397805 -1.5 -0.77937 -1.341951 -1.06066 -1.06066 
C -1.341951 -0.77937 -1.5 -0.397805 -1.5 0 
C -1.5 0.397805 -1.341951 0.77937 -1.06066 1.06066 
C -0.77937 1.341951 -0.397805 1.5 0 1.5 
z
" style="stroke: #000000"/>
    </defs>
    <g clip-path="url(#p93513d6dff)">
     <use xlink:href="#m0c15ef86d7" x="46.145455" y="43.956697" style="stroke: #000000"/>
     <use xlink:href="#m0c15ef86d7" x="50.286456" y="44.69209" style="stroke: #000000"/>
     <use xlink:href="#m0c15ef86d7" x="54.427458" y="38.188335" style="stroke: #000000"/>
     <use xlink:href="#m0c15ef86d7" x="58.56846" y="43.766954" style="stroke: #000000"/>
     <use xlink:href="#m0c15ef86d7" x="62.709462" y="39.285354" style="stroke: #000000"/>
     <use xlink:href="#m0c15ef86d7" x="66.850464" y="41.721439" style="stroke: #000000"/>
     <use xlink:href="#m0c15ef86d7" x="70.991466" y="42.442673" style="stroke: #000000"/>
     <use xlink:href="#m0c15ef86d7" x="75.132468" y="41.270981" style="stroke: #000000"/>
     <use xlink:href="#m0c15ef86d7" x="79.273469" y="44.327361" style="stroke: #000000"/>
     <use xlink:href="#m0c15ef86d7" x="83.414471" y="38.931041" style="stroke: #000000"/>
     <use xlink:href="#m0c15ef86d7" x="87.555473" y="44.842736" style="stroke: #000000"/>
     <use xlink:href="#m0c15ef86d7" x="91.696475" y="37.08" style="stroke: #000000"/>
     <use xlink:href="#m0c15ef86d7" x="95.837477" y="43.192293" style="stroke: #000000"/>
     <use xlink:href="#m0c15ef86d7" x="99.978479" y="43.434521" style="stroke: #000000"/>
     <use xlink:href="#m0c15ef86d7" x="104.119481" y="40.622459" style="stroke: #000000"/>
     <use xlink:href="#m0c15ef86d7" x="108.260482" y="40.953499" style="stroke: #000000"/>
     <use xlink:href="#m0c15ef86d7" x="112.401484" y="42.969228" style="stroke: #000000"/>
     <use xlink:href="#m0c15ef86d7" x="116.542486" y="42.319735" style="stroke: #000000"/>
     <use xlink:href="#m0c15ef86d7" x="120.683488" y="39.956658" style="stroke: #000000"/>
     <use xlink:href="#m0c15ef86d7" x="124.82449" y="41.836374" style="stroke: #000000"/>
     <use xlink:href="#m0c15ef86d7" x="128.965492" y="49.934562" style="stroke: #000000"/>
     <use xlink:href="#m0c15ef86d7" x="133.106494" y="52.097753" style="stroke: #000000"/>
     <use xlink:href="#m0c15ef86d7" x="137.247495" y="50.03474" style="stroke: #000000"/>
     <use xlink:href="#m0c15ef86d7" x="141.388497" y="52.67228" style="stroke: #000000"/>
     <use xlink:href="#m0c15ef86d7" x="145.529499" y="55.832852" style="stroke: #000000"/>
     <use xlink:href="#m0c15ef86d7" x="149.670501" y="58.074087" style="stroke: #000000"/>
     <use xlink:href="#m0c15ef86d7" x="153.811503" y="60.421651" style="stroke: #000000"/>
     <use xlink:href="#m0c15ef86d7" x="157.952505" y="60.768491" style="stroke: #000000"/>
     <use xlink:href="#m0c15ef86d7" x="162.093506" y="67.389103" style="stroke: #000000"/>
     <use xlink:href="#m0c15ef86d7" x="166.234508" y="72.965378" style="stroke: #000000"/>
     <use xlink:href="#m0c15ef86d7" x="170.37551" y="73.859451" style="stroke: #000000"/>
     <use xlink:href="#m0c15ef86d7" x="174.516512" y="76.553089" style="stroke: #000000"/>
     <use xlink:href="#m0c15ef86d7" x="178.657514" y="78.765529" style="stroke: #000000"/>
     <use xlink:href="#m0c15ef86d7" x="182.798516" y="79.357259" style="stroke: #000000"/>
     <use xlink:href="#m0c15ef86d7" x="186.939518" y="79.553873" style="stroke: #000000"/>
     <use xlink:href="#m0c15ef86d7" x="191.080519" y="79.701159" style="stroke: #000000"/>
     <use xlink:href="#m0c15ef86d7" x="195.221521" y="78.976462" style="stroke: #000000"/>
     <use xlink:href="#m0c15ef86d7" x="199.362523" y="82.654734" style="stroke: #000000"/>
     <use xlink:href="#m0c15ef86d7" x="203.503525" y="81.419927" style="stroke: #000000"/>
     <use xlink:href="#m0c15ef86d7" x="207.644527" y="85.512436" style="stroke: #000000"/>
     <use xlink:href="#m0c15ef86d7" x="211.785529" y="85.259433" style="stroke: #000000"/>
     <use xlink:href="#m0c15ef86d7" x="215.926531" y="85.741688" style="stroke: #000000"/>
     <use xlink:href="#m0c15ef86d7" x="220.067532" y="87.48" style="stroke: #000000"/>
     <use xlink:href="#m0c15ef86d7" x="224.208534" y="86.240861" style="stroke: #000000"/>
     <use xlink:href="#m0c15ef86d7" x="228.349536" y="82.633438" style="stroke: #000000"/>
     <use xlink:href="#m0c15ef86d7" x="232.490538" y="81.456127" style="stroke: #000000"/>
     <use xlink:href="#m0c15ef86d7" x="236.63154" y="82.391271" style="stroke: #000000"/>
     <use xlink:href="#m0c15ef86d7" x="240.772542" y="81.846883" style="stroke: #000000"/>
     <use xlink:href="#m0c15ef86d7" x="244.913544" y="79.224397" style="stroke: #000000"/>
     <use xlink:href="#m0c15ef86d7" x="249.054545" y="79.563939" style="stroke: #000000"/>
    </g>
   </g>
   <g id="line2d_10">
    <path d="M 46.145455 40.991391 
L 50.286456 40.991481 
L 54.427458 40.99164 
L 58.56846 40.991919 
L 62.709462 40.992409 
L 66.850464 40.993271 
L 70.991466 40.994785 
L 75.132468 40.997445 
L 79.273469 41.002117 
L 83.414471 41.010318 
L 87.555473 41.0247 
L 91.696475 41.049883 
L 95.837477 41.093847 
L 99.978479 41.170244 
L 104.119481 41.301869 
L 108.260482 41.525491 
L 112.401484 41.896709 
L 116.542486 42.490775 
L 120.683488 43.391714 
L 124.82449 44.667901 
L 128.965492 46.336973 
L 133.106494 48.368558 
L 137.247495 50.692848 
L 141.388497 53.254241 
L 145.529499 56.009518 
L 149.670501 58.92408 
L 153.811503 61.951023 
L 157.952505 65.024334 
L 162.093506 68.074438 
L 166.234508 71.00793 
L 170.37551 73.722746 
L 174.516512 76.123438 
L 178.657514 78.136169 
L 182.798516 79.739621 
L 186.939518 80.941111 
L 191.080519 81.793821 
L 195.221521 82.368785 
L 199.362523 82.739396 
L 203.503525 82.970129 
L 207.644527 83.109913 
L 211.785529 83.19275 
L 215.926531 83.241189 
L 220.067532 83.269266 
L 224.208534 83.285418 
L 228.349536 83.294674 
L 232.490538 83.299971 
L 236.63154 83.302984 
L 240.772542 83.304701 
L 244.913544 83.305681 
L 249.054545 83.306238 
" clip-path="url(#p93513d6dff)" style="fill: none; stroke-dasharray: 5.55,2.4; stroke-dashoffset: 0; stroke: #0000ff; stroke-width: 1.5"/>
   </g>
   <g id="line2d_11">
    <path d="M 46.145455 40.991451 
L 50.286456 40.991587 
L 54.427458 40.991826 
L 58.56846 40.992245 
L 62.709462 40.992983 
L 66.850464 40.994278 
L 70.991466 40.996555 
L 75.132468 41.000553 
L 79.273469 41.00757 
L 83.414471 41.019876 
L 87.555473 41.041416 
L 91.696475 41.079007 
L 95.837477 41.144279 
L 99.978479 41.256605 
L 104.119481 41.447077 
L 108.260482 41.762224 
L 112.401484 42.264306 
L 116.542486 43.021268 
L 120.683488 44.087572 
L 124.82449 45.476354 
L 128.965492 47.168263 
L 133.106494 49.120112 
L 137.247495 51.297597 
L 141.388497 53.680348 
L 145.529499 56.254245 
L 149.670501 59.004846 
L 153.811503 61.887444 
L 157.952505 64.850309 
L 162.093506 67.825263 
L 166.234508 70.717615 
L 170.37551 73.422485 
L 174.516512 75.841609 
L 178.657514 77.895297 
L 182.798516 79.54409 
L 186.939518 80.794297 
L 191.080519 81.690521 
L 195.221521 82.299876 
L 199.362523 82.695725 
L 203.503525 82.943331 
L 207.644527 83.09364 
L 211.785529 83.18319 
L 215.926531 83.235663 
L 220.067532 83.266065 
L 224.208534 83.283582 
L 228.349536 83.293629 
L 232.490538 83.29936 
L 236.63154 83.302642 
L 240.772542 83.30451 
L 244.913544 83.305571 
L 249.054545 83.306174 
" clip-path="url(#p93513d6dff)" style="fill: none; stroke: #ff0000; stroke-width: 1.5; stroke-linecap: square"/>
   </g>
   <g id="patch_3">
    <path d="M 36 90 
L 36 34.56 
" style="fill: none; stroke: #000000; stroke-width: 0.8; stroke-linejoin: miter; stroke-linecap: square"/>
   </g>
   <g id="patch_4">
    <path d="M 259.2 90 
L 259.2 34.56 
" style="fill: none; stroke: #000000; stroke-width: 0.8; stroke-linejoin: miter; stroke-linecap: square"/>
   </g>
   <g id="patch_5">
    <path d="M 36 90 
L 259.2 90 
" style="fill: none; stroke: #000000; stroke-width: 0.8; stroke-linejoin: miter; stroke-linecap: square"/>
   </g>
   <g id="patch_6">
    <path d="M 36 34.56 
L 259.2 34.56 
" style="fill: none; stroke: #000000; stroke-width: 0.8; stroke-linejoin: miter; stroke-linecap: square"/>
   </g>
  </g>
  <g id="axes_2">
   <g id="patch_7">
    <path d="M 36 173.16 
L 259.2 173.16 
L 259.2 117.72 
L 36 117.72 
z
" style="fill: #ffffff"/>
   </g>
   <g id="matplotlib.axis_3">
    <g id="xtick_7">
     <g id="line2d_12">
      <g>
       <use xlink:href="#m1b848874fe" x="63.054545" y="173.16" style="stroke: #000000; stroke-width: 0.8"/>
      </g>
     </g>
     <g id="text_10">
      <!-- $\mathdefault{10^{-3}}$ -->
      <g transform="translate(51.304545 187.758438)scale(0.1 -0.1)">
       <use xlink:href="#DejaVuSans-31" transform="translate(0 0.765625)"/>
       <use xlink:href="#DejaVuSans-30" transform="translate(63.623047 0.765625)"/>
       <use xlink:href="#DejaVuSans-2212" transform="translate(128.203125 39.046875)scale(0.7)"/>
       <use xlink:href="#DejaVuSans-33" transform="translate(186.855469 39.046875)scale(0.7)"/>
      </g>
     </g>
    </g>
    <g id="xtick_8">
     <g id="line2d_13">
      <g>
       <use xlink:href="#m1b848874fe" x="96.872727" y="173.16" style="stroke: #000000; stroke-width: 0.8"/>
      </g>
     </g>
     <g id="text_11">
      <!-- $\mathdefault{10^{-1}}$ -->
      <g transform="translate(85.122727 187.758438)scale(0.1 -0.1)">
       <use xlink:href="#DejaVuSans-31" transform="translate(0 0.684375)"/>
       <use xlink:href="#DejaVuSans-30" transform="translate(63.623047 0.684375)"/>
       <use xlink:href="#DejaVuSans-2212" transform="translate(128.203125 38.965625)scale(0.7)"/>
       <use xlink:href="#DejaVuSans-31" transform="translate(186.855469 38.965625)scale(0.7)"/>
      </g>
     </g>
    </g>
    <g id="xtick_9">
     <g id="line2d_14">
      <g>
       <use xlink:href="#m1b848874fe" x="130.690909" y="173.16" style="stroke: #000000; stroke-width: 0.8"/>
      </g>
     </g>
     <g id="text_12">
      <!-- $\mathdefault{10^{1}}$ -->
      <g transform="translate(121.890909 187.758438)scale(0.1 -0.1)">
       <use xlink:href="#DejaVuSans-31" transform="translate(0 0.684375)"/>
       <use xlink:href="#DejaVuSans-30" transform="translate(63.623047 0.684375)"/>
       <use xlink:href="#DejaVuSans-31" transform="translate(128.203125 38.965625)scale(0.7)"/>
      </g>
     </g>
    </g>
    <g id="xtick_10">
     <g id="line2d_15">
      <g>
       <use xlink:href="#m1b848874fe" x="164.509091" y="173.16" style="stroke: #000000; stroke-width: 0.8"/>
      </g>
     </g>
     <g id="text_13">
      <!-- $\mathdefault{10^{3}}$ -->
      <g transform="translate(155.709091 187.758438)scale(0.1 -0.1)">
       <use xlink:href="#DejaVuSans-31" transform="translate(0 0.765625)"/>
       <use xlink:href="#DejaVuSans-30" transform="translate(63.623047 0.765625)"/>
       <use xlink:href="#DejaVuSans-33" transform="translate(128.203125 39.046875)scale(0.7)"/>
      </g>
     </g>
    </g>
    <g id="xtick_11">
     <g id="line2d_16">
      <g>
       <use xlink:href="#m1b848874fe" x="198.327273" y="173.16" style="stroke: #000000; stroke-width: 0.8"/>
      </g>
     </g>
     <g id="text_14">
      <!-- $\mathdefault{10^{5}}$ -->
      <g transform="translate(189.527273 187.758438)scale(0.1 -0.1)">
       <use xlink:href="#DejaVuSans-31" transform="translate(0 0.684375)"/>
       <use xlink:href="#DejaVuSans-30" transform="translate(63.623047 0.684375)"/>
       <use xlink:href="#DejaVuSans-35" transform="translate(128.203125 38.965625)scale(0.7)"/>
      </g>
     </g>
    </g>
    <g id="xtick_12">
     <g id="line2d_17">
      <g>
       <use xlink:href="#m1b848874fe" x="232.145455" y="173.16" style="stroke: #000000; stroke-width: 0.8"/>
      </g>
     </g>
     <g id="text_15">
      <!-- $\mathdefault{10^{7}}$ -->
      <g transform="translate(223.345455 187.758438)scale(0.1 -0.1)">
       <use xlink:href="#DejaVuSans-31" transform="translate(0 0.684375)"/>
       <use xlink:href="#DejaVuSans-30" transform="translate(63.623047 0.684375)"/>
       <use xlink:href="#DejaVuSans-37" transform="translate(128.203125 38.965625)scale(0.7)"/>
      </g>
     </g>
    </g>
   </g>
   <g id="matplotlib.axis_4">
    <g id="ytick_3">
     <g id="line2d_18">
      <g>
       <use xlink:href="#m65baa735c7" x="36" y="166.421039" style="stroke: #000000; stroke-width: 0.8"/>
      </g>
     </g>
     <g id="text_16">
      <!-- 0.0 -->
      <g transform="translate(13.096875 170.220258)scale(0.1 -0.1)">
       <defs>
        <path id="DejaVuSans-2e" d="M 684 794 
L 1344 794 
L 1344 0 
L 684 0 
L 684 794 
z
" transform="scale(0.015625)"/>
       </defs>
       <use xlink:href="#DejaVuSans-30"/>
       <use xlink:href="#DejaVuSans-2e" x="63.623047"/>
       <use xlink:href="#DejaVuSans-30" x="95.410156"/>
      </g>
     </g>
    </g>
    <g id="ytick_4">
     <g id="line2d_19">
      <g>
       <use xlink:href="#m65baa735c7" x="36" y="136.820738" style="stroke: #000000; stroke-width: 0.8"/>
      </g>
     </g>
     <g id="text_17">
      <!-- 2.5 -->
      <g transform="translate(13.096875 140.619957)scale(0.1 -0.1)">
       <defs>
        <path id="DejaVuSans-32" d="M 1228 531 
L 3431 531 
L 3431 0 
L 469 0 
L 469 531 
Q 828 903 1448 1529 
Q 2069 2156 2228 2338 
Q 2531 2678 2651 2914 
Q 2772 3150 2772 3378 
Q 2772 3750 2511 3984 
Q 2250 4219 1831 4219 
Q 1534 4219 1204 4116 
Q 875 4013 500 3803 
L 500 4441 
Q 881 4594 1212 4672 
Q 1544 4750 1819 4750 
Q 2544 4750 2975 4387 
Q 3406 4025 3406 3419 
Q 3406 3131 3298 2873 
Q 3191 2616 2906 2266 
Q 2828 2175 2409 1742 
Q 1991 1309 1228 531 
z
" transform="scale(0.015625)"/>
       </defs>
       <use xlink:href="#DejaVuSans-32"/>
       <use xlink:href="#DejaVuSans-2e" x="63.623047"/>
       <use xlink:href="#DejaVuSans-35" x="95.410156"/>
      </g>
     </g>
    </g>
    <g id="text_18">
     <!-- y2 -->
     <g transform="translate(7.017187 151.580625)rotate(-90)scale(0.1 -0.1)">
      <use xlink:href="#DejaVuSans-79"/>
      <use xlink:href="#DejaVuSans-32" x="59.179688"/>
     </g>
    </g>
    <g id="text_19">
     <!-- 1e−5 -->
     <g transform="translate(36 114.72)scale(0.1 -0.1)">
      <defs>
       <path id="DejaVuSans-65" d="M 3597 1894 
L 3597 1613 
L 953 1613 
Q 991 1019 1311 708 
Q 1631 397 2203 397 
Q 2534 397 2845 478 
Q 3156 559 3463 722 
L 3463 178 
Q 3153 47 2828 -22 
Q 2503 -91 2169 -91 
Q 1331 -91 842 396 
Q 353 884 353 1716 
Q 353 2575 817 3079 
Q 1281 3584 2069 3584 
Q 2775 3584 3186 3129 
Q 3597 2675 3597 1894 
z
M 3022 2063 
Q 3016 2534 2758 2815 
Q 2500 3097 2075 3097 
Q 1594 3097 1305 2825 
Q 1016 2553 972 2059 
L 3022 2063 
z
" transform="scale(0.015625)"/>
      </defs>
      <use xlink:href="#DejaVuSans-31"/>
      <use xlink:href="#DejaVuSans-65" x="63.623047"/>
      <use xlink:href="#DejaVuSans-2212" x="125.146484"/>
      <use xlink:href="#DejaVuSans-35" x="208.935547"/>
     </g>
    </g>
   </g>
   <g id="line2d_20">
    <g clip-path="url(#pe07860a68c)">
     <use xlink:href="#m0c15ef86d7" x="46.145455" y="158.607489" style="stroke: #000000"/>
     <use xlink:href="#m0c15ef86d7" x="50.286456" y="153.995244" style="stroke: #000000"/>
     <use xlink:href="#m0c15ef86d7" x="54.427458" y="149.067382" style="stroke: #000000"/>
     <use xlink:href="#m0c15ef86d7" x="58.56846" y="140.239516" style="stroke: #000000"/>
     <use xlink:href="#m0c15ef86d7" x="62.709462" y="131.550374" style="stroke: #000000"/>
     <use xlink:href="#m0c15ef86d7" x="66.850464" y="126.190054" style="stroke: #000000"/>
     <use xlink:href="#m0c15ef86d7" x="70.991466" y="127.194873" style="stroke: #000000"/>
     <use xlink:href="#m0c15ef86d7" x="75.132468" y="121.39066" style="stroke: #000000"/>
     <use xlink:href="#m0c15ef86d7" x="79.273469" y="120.24" style="stroke: #000000"/>
     <use xlink:href="#m0c15ef86d7" x="83.414471" y="123.571313" style="stroke: #000000"/>
     <use xlink:href="#m0c15ef86d7" x="87.555473" y="124.317811" style="stroke: #000000"/>
     <use xlink:href="#m0c15ef86d7" x="91.696475" y="126.548261" style="stroke: #000000"/>
     <use xlink:href="#m0c15ef86d7" x="95.837477" y="124.797246" style="stroke: #000000"/>
     <use xlink:href="#m0c15ef86d7" x="99.978479" y="124.673749" style="stroke: #000000"/>
     <use xlink:href="#m0c15ef86d7" x="104.119481" y="129.717632" style="stroke: #000000"/>
     <use xlink:href="#m0c15ef86d7" x="108.260482" y="129.388095" style="stroke: #000000"/>
     <use xlink:href="#m0c15ef86d7" x="112.401484" y="125.039521" style="stroke: #000000"/>
     <use xlink:href="#m0c15ef86d7" x="116.542486" y="131.990666" style="stroke: #000000"/>
     <use xlink:href="#m0c15ef86d7" x="120.683488" y="131.899323" style="stroke: #000000"/>
     <use xlink:href="#m0c15ef86d7" x="124.82449" y="144.388419" style="stroke: #000000"/>
     <use xlink:href="#m0c15ef86d7" x="128.965492" y="147.618387" style="stroke: #000000"/>
     <use xlink:href="#m0c15ef86d7" x="133.106494" y="145.37294" style="stroke: #000000"/>
     <use xlink:href="#m0c15ef86d7" x="137.247495" y="153.484157" style="stroke: #000000"/>
     <use xlink:href="#m0c15ef86d7" x="141.388497" y="156.202506" style="stroke: #000000"/>
     <use xlink:href="#m0c15ef86d7" x="145.529499" y="156.383697" style="stroke: #000000"/>
     <use xlink:href="#m0c15ef86d7" x="149.670501" y="156.871591" style="stroke: #000000"/>
     <use xlink:href="#m0c15ef86d7" x="153.811503" y="162.404231" style="stroke: #000000"/>
     <use xlink:href="#m0c15ef86d7" x="157.952505" y="162.507211" style="stroke: #000000"/>
     <use xlink:href="#m0c15ef86d7" x="162.093506" y="163.623913" style="stroke: #000000"/>
     <use xlink:href="#m0c15ef86d7" x="166.234508" y="167.487144" style="stroke: #000000"/>
     <use xlink:href="#m0c15ef86d7" x="170.37551" y="164.874587" style="stroke: #000000"/>
     <use xlink:href="#m0c15ef86d7" x="174.516512" y="164.153655" style="stroke: #000000"/>
     <use xlink:href="#m0c15ef86d7" x="178.657514" y="161.363803" style="stroke: #000000"/>
     <use xlink:href="#m0c15ef86d7" x="182.798516" y="162.891598" style="stroke: #000000"/>
     <use xlink:href="#m0c15ef86d7" x="186.939518" y="168.121439" style="stroke: #000000"/>
     <use xlink:href="#m0c15ef86d7" x="191.080519" y="169.365972" style="stroke: #000000"/>
     <use xlink:href="#m0c15ef86d7" x="195.221521" y="168.129723" style="stroke: #000000"/>
     <use xlink:href="#m0c15ef86d7" x="199.362523" y="169.968667" style="stroke: #000000"/>
     <use xlink:href="#m0c15ef86d7" x="203.503525" y="166.757329" style="stroke: #000000"/>
     <use xlink:href="#m0c15ef86d7" x="207.644527" y="170.64" style="stroke: #000000"/>
     <use xlink:href="#m0c15ef86d7" x="211.785529" y="167.904771" style="stroke: #000000"/>
     <use xlink:href="#m0c15ef86d7" x="215.926531" y="169.35649" style="stroke: #000000"/>
     <use xlink:href="#m0c15ef86d7" x="220.067532" y="168.643619" style="stroke: #000000"/>
     <use xlink:href="#m0c15ef86d7" x="224.208534" y="164.992593" style="stroke: #000000"/>
     <use xlink:href="#m0c15ef86d7" x="228.349536" y="169.170148" style="stroke: #000000"/>
     <use xlink:href="#m0c15ef86d7" x="232.490538" y="170.401876" style="stroke: #000000"/>
     <use xlink:href="#m0c15ef86d7" x="236.63154" y="162.625028" style="stroke: #000000"/>
     <use xlink:href="#m0c15ef86d7" x="240.772542" y="168.925885" style="stroke: #000000"/>
     <use xlink:href="#m0c15ef86d7" x="244.913544" y="162.864901" style="stroke: #000000"/>
     <use xlink:href="#m0c15ef86d7" x="249.054545" y="164.345614" style="stroke: #000000"/>
    </g>
   </g>
   <g id="line2d_21">
    <path d="M 46.145455 163.087309 
L 50.286456 160.594744 
L 54.427458 156.33412 
L 58.56846 149.441034 
L 62.709462 140.031115 
L 66.850464 131.318123 
L 70.991466 127.580735 
L 75.132468 127.140335 
L 79.273469 127.163354 
L 83.414471 127.190578 
L 87.555473 127.244548 
L 91.696475 127.338321 
L 95.837477 127.501293 
L 99.978479 127.783808 
L 104.119481 128.265144 
L 108.260482 129.072774 
L 112.401484 130.387443 
L 116.542486 132.405362 
L 120.683488 135.296259 
L 124.82449 139.021774 
L 128.965492 143.216088 
L 133.106494 147.432579 
L 137.247495 151.284725 
L 141.388497 154.526991 
L 145.529499 157.15651 
L 149.670501 159.255026 
L 153.811503 160.946055 
L 157.952505 162.286508 
L 162.093506 163.335964 
L 166.234508 164.158577 
L 170.37551 164.796641 
L 174.516512 165.281974 
L 178.657514 165.644448 
L 182.798516 165.906399 
L 186.939518 166.089845 
L 191.080519 166.213515 
L 195.221521 166.294098 
L 199.362523 166.344906 
L 203.503525 166.3761 
L 207.644527 166.394834 
L 211.785529 166.405878 
L 215.926531 166.412318 
L 220.067532 166.416043 
L 224.208534 166.418185 
L 228.349536 166.419411 
L 232.490538 166.420112 
L 236.63154 166.420511 
L 240.772542 166.420739 
L 244.913544 166.420868 
L 249.054545 166.420942 
" clip-path="url(#pe07860a68c)" style="fill: none; stroke-dasharray: 5.55,2.4; stroke-dashoffset: 0; stroke: #0000ff; stroke-width: 1.5"/>
   </g>
   <g id="line2d_22">
    <path d="M 46.145455 161.420447 
L 50.286456 157.712689 
L 54.427458 151.517528 
L 58.56846 142.258845 
L 62.709462 131.677555 
L 66.850464 125.055789 
L 70.991466 123.569856 
L 75.132468 123.533113 
L 79.273469 123.567387 
L 83.414471 123.629476 
L 87.555473 123.73855 
L 91.696475 123.92757 
L 95.837477 124.255378 
L 99.978479 124.81211 
L 104.119481 125.74231 
L 108.260482 127.249529 
L 112.401484 129.539944 
L 116.542486 132.780372 
L 120.683488 136.883845 
L 124.82449 141.435788 
L 128.965492 145.91636 
L 133.106494 149.984386 
L 137.247495 153.416563 
L 141.388497 156.203852 
L 145.529499 158.429621 
L 149.670501 160.201476 
L 153.811503 161.653625 
L 157.952505 162.795366 
L 162.093506 163.698307 
L 166.234508 164.413078 
L 170.37551 164.971962 
L 174.516512 165.400498 
L 178.657514 165.720607 
L 182.798516 165.954757 
L 186.939518 166.119211 
L 191.080519 166.231046 
L 195.221521 166.304381 
L 199.362523 166.350893 
L 203.503525 166.379547 
L 207.644527 166.396784 
L 211.785529 166.406995 
L 215.926531 166.412958 
L 220.067532 166.416407 
L 224.208534 166.418391 
L 228.349536 166.419529 
L 232.490538 166.420178 
L 236.63154 166.420549 
L 240.772542 166.420761 
L 244.913544 166.420881 
L 249.054545 166.420949 
" clip-path="url(#pe07860a68c)" style="fill: none; stroke: #ff0000; stroke-width: 1.5; stroke-linecap: square"/>
   </g>
   <g id="patch_8">
    <path d="M 36 173.16 
L 36 117.72 
" style="fill: none; stroke: #000000; stroke-width: 0.8; stroke-linejoin: miter; stroke-linecap: square"/>
   </g>
   <g id="patch_9">
    <path d="M 259.2 173.16 
L 259.2 117.72 
" style="fill: none; stroke: #000000; stroke-width: 0.8; stroke-linejoin: miter; stroke-linecap: square"/>
   </g>
   <g id="patch_10">
    <path d="M 36 173.16 
L 259.2 173.16 
" style="fill: none; stroke: #000000; stroke-width: 0.8; stroke-linejoin: miter; stroke-linecap: square"/>
   </g>
   <g id="patch_11">
    <path d="M 36 117.72 
L 259.2 117.72 
" style="fill: none; stroke: #000000; stroke-width: 0.8; stroke-linejoin: miter; stroke-linecap: square"/>
   </g>
   <g id="legend_1">
    <g id="line2d_23">
     <g>
      <use xlink:href="#m0c15ef86d7" x="181.0125" y="130.02125" style="stroke: #000000"/>
     </g>
    </g>
    <g id="text_20">
     <!-- Data -->
     <g transform="translate(199.0125 133.52125)scale(0.1 -0.1)">
      <defs>
       <path id="DejaVuSans-44" d="M 1259 4147 
L 1259 519 
L 2022 519 
Q 2988 519 3436 956 
Q 3884 1394 3884 2338 
Q 3884 3275 3436 3711 
Q 2988 4147 2022 4147 
L 1259 4147 
z
M 628 4666 
L 1925 4666 
Q 3281 4666 3915 4102 
Q 4550 3538 4550 2338 
Q 4550 1131 3912 565 
Q 3275 0 1925 0 
L 628 0 
L 628 4666 
z
" transform="scale(0.015625)"/>
       <path id="DejaVuSans-61" d="M 2194 1759 
Q 1497 1759 1228 1600 
Q 959 1441 959 1056 
Q 959 750 1161 570 
Q 1363 391 1709 391 
Q 2188 391 2477 730 
Q 2766 1069 2766 1631 
L 2766 1759 
L 2194 1759 
z
M 3341 1997 
L 3341 0 
L 2766 0 
L 2766 531 
Q 2569 213 2275 61 
Q 1981 -91 1556 -91 
Q 1019 -91 701 211 
Q 384 513 384 1019 
Q 384 1609 779 1909 
Q 1175 2209 1959 2209 
L 2766 2209 
L 2766 2266 
Q 2766 2663 2505 2880 
Q 2244 3097 1772 3097 
Q 1472 3097 1187 3025 
Q 903 2953 641 2809 
L 641 3341 
Q 956 3463 1253 3523 
Q 1550 3584 1831 3584 
Q 2591 3584 2966 3190 
Q 3341 2797 3341 1997 
z
" transform="scale(0.015625)"/>
       <path id="DejaVuSans-74" d="M 1172 4494 
L 1172 3500 
L 2356 3500 
L 2356 3053 
L 1172 3053 
L 1172 1153 
Q 1172 725 1289 603 
Q 1406 481 1766 481 
L 2356 481 
L 2356 0 
L 1766 0 
Q 1100 0 847 248 
Q 594 497 594 1153 
L 594 3053 
L 172 3053 
L 172 3500 
L 594 3500 
L 594 4494 
L 1172 4494 
z
" transform="scale(0.015625)"/>
      </defs>
      <use xlink:href="#DejaVuSans-44"/>
      <use xlink:href="#DejaVuSans-61" x="77.001953"/>
      <use xlink:href="#DejaVuSans-74" x="138.28125"/>
      <use xlink:href="#DejaVuSans-61" x="177.490234"/>
     </g>
    </g>
    <g id="line2d_24">
     <path d="M 171.0125 144.699375 
L 181.0125 144.699375 
L 191.0125 144.699375 
" style="fill: none; stroke-dasharray: 5.55,2.4; stroke-dashoffset: 0; stroke: #0000ff; stroke-width: 1.5"/>
    </g>
    <g id="text_21">
     <!-- Initial -->
     <g transform="translate(199.0125 148.199375)scale(0.1 -0.1)">
      <defs>
       <path id="DejaVuSans-49" d="M 628 4666 
L 1259 4666 
L 1259 0 
L 628 0 
L 628 4666 
z
" transform="scale(0.015625)"/>
       <path id="DejaVuSans-6e" d="M 3513 2113 
L 3513 0 
L 2938 0 
L 2938 2094 
Q 2938 2591 2744 2837 
Q 2550 3084 2163 3084 
Q 1697 3084 1428 2787 
Q 1159 2491 1159 1978 
L 1159 0 
L 581 0 
L 581 3500 
L 1159 3500 
L 1159 2956 
Q 1366 3272 1645 3428 
Q 1925 3584 2291 3584 
Q 2894 3584 3203 3211 
Q 3513 2838 3513 2113 
z
" transform="scale(0.015625)"/>
       <path id="DejaVuSans-69" d="M 603 3500 
L 1178 3500 
L 1178 0 
L 603 0 
L 603 3500 
z
M 603 4863 
L 1178 4863 
L 1178 4134 
L 603 4134 
L 603 4863 
z
" transform="scale(0.015625)"/>
       <path id="DejaVuSans-6c" d="M 603 4863 
L 1178 4863 
L 1178 0 
L 603 0 
L 603 4863 
z
" transform="scale(0.015625)"/>
      </defs>
      <use xlink:href="#DejaVuSans-49"/>
      <use xlink:href="#DejaVuSans-6e" x="29.492188"/>
      <use xlink:href="#DejaVuSans-69" x="92.871094"/>
      <use xlink:href="#DejaVuSans-74" x="120.654297"/>
      <use xlink:href="#DejaVuSans-69" x="159.863281"/>
      <use xlink:href="#DejaVuSans-61" x="187.646484"/>
      <use xlink:href="#DejaVuSans-6c" x="248.925781"/>
     </g>
    </g>
    <g id="line2d_25">
     <path d="M 171.0125 159.3775 
L 181.0125 159.3775 
L 191.0125 159.3775 
" style="fill: none; stroke: #ff0000; stroke-width: 1.5; stroke-linecap: square"/>
    </g>
    <g id="text_22">
     <!-- Optimized -->
     <g transform="translate(199.0125 162.8775)scale(0.1 -0.1)">
      <defs>
       <path id="DejaVuSans-4f" d="M 2522 4238 
Q 1834 4238 1429 3725 
Q 1025 3213 1025 2328 
Q 1025 1447 1429 934 
Q 1834 422 2522 422 
Q 3209 422 3611 934 
Q 4013 1447 4013 2328 
Q 4013 3213 3611 3725 
Q 3209 4238 2522 4238 
z
M 2522 4750 
Q 3503 4750 4090 4092 
Q 4678 3434 4678 2328 
Q 4678 1225 4090 567 
Q 3503 -91 2522 -91 
Q 1538 -91 948 565 
Q 359 1222 359 2328 
Q 359 3434 948 4092 
Q 1538 4750 2522 4750 
z
" transform="scale(0.015625)"/>
       <path id="DejaVuSans-70" d="M 1159 525 
L 1159 -1331 
L 581 -1331 
L 581 3500 
L 1159 3500 
L 1159 2969 
Q 1341 3281 1617 3432 
Q 1894 3584 2278 3584 
Q 2916 3584 3314 3078 
Q 3713 2572 3713 1747 
Q 3713 922 3314 415 
Q 2916 -91 2278 -91 
Q 1894 -91 1617 61 
Q 1341 213 1159 525 
z
M 3116 1747 
Q 3116 2381 2855 2742 
Q 2594 3103 2138 3103 
Q 1681 3103 1420 2742 
Q 1159 2381 1159 1747 
Q 1159 1113 1420 752 
Q 1681 391 2138 391 
Q 2594 391 2855 752 
Q 3116 1113 3116 1747 
z
" transform="scale(0.015625)"/>
       <path id="DejaVuSans-6d" d="M 3328 2828 
Q 3544 3216 3844 3400 
Q 4144 3584 4550 3584 
Q 5097 3584 5394 3201 
Q 5691 2819 5691 2113 
L 5691 0 
L 5113 0 
L 5113 2094 
Q 5113 2597 4934 2840 
Q 4756 3084 4391 3084 
Q 3944 3084 3684 2787 
Q 3425 2491 3425 1978 
L 3425 0 
L 2847 0 
L 2847 2094 
Q 2847 2600 2669 2842 
Q 2491 3084 2119 3084 
Q 1678 3084 1418 2786 
Q 1159 2488 1159 1978 
L 1159 0 
L 581 0 
L 581 3500 
L 1159 3500 
L 1159 2956 
Q 1356 3278 1631 3431 
Q 1906 3584 2284 3584 
Q 2666 3584 2933 3390 
Q 3200 3197 3328 2828 
z
" transform="scale(0.015625)"/>
       <path id="DejaVuSans-7a" d="M 353 3500 
L 3084 3500 
L 3084 2975 
L 922 459 
L 3084 459 
L 3084 0 
L 275 0 
L 275 525 
L 2438 3041 
L 353 3041 
L 353 3500 
z
" transform="scale(0.015625)"/>
       <path id="DejaVuSans-64" d="M 2906 2969 
L 2906 4863 
L 3481 4863 
L 3481 0 
L 2906 0 
L 2906 525 
Q 2725 213 2448 61 
Q 2172 -91 1784 -91 
Q 1150 -91 751 415 
Q 353 922 353 1747 
Q 353 2572 751 3078 
Q 1150 3584 1784 3584 
Q 2172 3584 2448 3432 
Q 2725 3281 2906 2969 
z
M 947 1747 
Q 947 1113 1208 752 
Q 1469 391 1925 391 
Q 2381 391 2643 752 
Q 2906 1113 2906 1747 
Q 2906 2381 2643 2742 
Q 2381 3103 1925 3103 
Q 1469 3103 1208 2742 
Q 947 2381 947 1747 
z
" transform="scale(0.015625)"/>
      </defs>
      <use xlink:href="#DejaVuSans-4f"/>
      <use xlink:href="#DejaVuSans-70" x="78.710938"/>
      <use xlink:href="#DejaVuSans-74" x="142.1875"/>
      <use xlink:href="#DejaVuSans-69" x="181.396484"/>
      <use xlink:href="#DejaVuSans-6d" x="209.179688"/>
      <use xlink:href="#DejaVuSans-69" x="306.591797"/>
      <use xlink:href="#DejaVuSans-7a" x="334.375"/>
      <use xlink:href="#DejaVuSans-65" x="386.865234"/>
      <use xlink:href="#DejaVuSans-64" x="448.388672"/>
     </g>
    </g>
   </g>
  </g>
  <g id="axes_3">
   <g id="patch_12">
    <path d="M 36 256.32 
L 259.2 256.32 
L 259.2 200.88 
L 36 200.88 
z
" style="fill: #ffffff"/>
   </g>
   <g id="matplotlib.axis_5">
    <g id="xtick_13">
     <g id="line2d_26">
      <g>
       <use xlink:href="#m1b848874fe" x="63.054545" y="256.32" style="stroke: #000000; stroke-width: 0.8"/>
      </g>
     </g>
     <g id="text_23">
      <!-- $\mathdefault{10^{-3}}$ -->
      <g transform="translate(51.304545 270.918437)scale(0.1 -0.1)">
       <use xlink:href="#DejaVuSans-31" transform="translate(0 0.765625)"/>
       <use xlink:href="#DejaVuSans-30" transform="translate(63.623047 0.765625)"/>
       <use xlink:href="#DejaVuSans-2212" transform="translate(128.203125 39.046875)scale(0.7)"/>
       <use xlink:href="#DejaVuSans-33" transform="translate(186.855469 39.046875)scale(0.7)"/>
      </g>
     </g>
    </g>
    <g id="xtick_14">
     <g id="line2d_27">
      <g>
       <use xlink:href="#m1b848874fe" x="96.872727" y="256.32" style="stroke: #000000; stroke-width: 0.8"/>
      </g>
     </g>
     <g id="text_24">
      <!-- $\mathdefault{10^{-1}}$ -->
      <g transform="translate(85.122727 270.918437)scale(0.1 -0.1)">
       <use xlink:href="#DejaVuSans-31" transform="translate(0 0.684375)"/>
       <use xlink:href="#DejaVuSans-30" transform="translate(63.623047 0.684375)"/>
       <use xlink:href="#DejaVuSans-2212" transform="translate(128.203125 38.965625)scale(0.7)"/>
       <use xlink:href="#DejaVuSans-31" transform="translate(186.855469 38.965625)scale(0.7)"/>
      </g>
     </g>
    </g>
    <g id="xtick_15">
     <g id="line2d_28">
      <g>
       <use xlink:href="#m1b848874fe" x="130.690909" y="256.32" style="stroke: #000000; stroke-width: 0.8"/>
      </g>
     </g>
     <g id="text_25">
      <!-- $\mathdefault{10^{1}}$ -->
      <g transform="translate(121.890909 270.918437)scale(0.1 -0.1)">
       <use xlink:href="#DejaVuSans-31" transform="translate(0 0.684375)"/>
       <use xlink:href="#DejaVuSans-30" transform="translate(63.623047 0.684375)"/>
       <use xlink:href="#DejaVuSans-31" transform="translate(128.203125 38.965625)scale(0.7)"/>
      </g>
     </g>
    </g>
    <g id="xtick_16">
     <g id="line2d_29">
      <g>
       <use xlink:href="#m1b848874fe" x="164.509091" y="256.32" style="stroke: #000000; stroke-width: 0.8"/>
      </g>
     </g>
     <g id="text_26">
      <!-- $\mathdefault{10^{3}}$ -->
      <g transform="translate(155.709091 270.918437)scale(0.1 -0.1)">
       <use xlink:href="#DejaVuSans-31" transform="translate(0 0.765625)"/>
       <use xlink:href="#DejaVuSans-30" transform="translate(63.623047 0.765625)"/>
       <use xlink:href="#DejaVuSans-33" transform="translate(128.203125 39.046875)scale(0.7)"/>
      </g>
     </g>
    </g>
    <g id="xtick_17">
     <g id="line2d_30">
      <g>
       <use xlink:href="#m1b848874fe" x="198.327273" y="256.32" style="stroke: #000000; stroke-width: 0.8"/>
      </g>
     </g>
     <g id="text_27">
      <!-- $\mathdefault{10^{5}}$ -->
      <g transform="translate(189.527273 270.918437)scale(0.1 -0.1)">
       <use xlink:href="#DejaVuSans-31" transform="translate(0 0.684375)"/>
       <use xlink:href="#DejaVuSans-30" transform="translate(63.623047 0.684375)"/>
       <use xlink:href="#DejaVuSans-35" transform="translate(128.203125 38.965625)scale(0.7)"/>
      </g>
     </g>
    </g>
    <g id="xtick_18">
     <g id="line2d_31">
      <g>
       <use xlink:href="#m1b848874fe" x="232.145455" y="256.32" style="stroke: #000000; stroke-width: 0.8"/>
      </g>
     </g>
     <g id="text_28">
      <!-- $\mathdefault{10^{7}}$ -->
      <g transform="translate(223.345455 270.918437)scale(0.1 -0.1)">
       <use xlink:href="#DejaVuSans-31" transform="translate(0 0.684375)"/>
       <use xlink:href="#DejaVuSans-30" transform="translate(63.623047 0.684375)"/>
       <use xlink:href="#DejaVuSans-37" transform="translate(128.203125 38.965625)scale(0.7)"/>
      </g>
     </g>
    </g>
    <g id="text_29">
     <!-- Time [s] -->
     <g transform="translate(127.271094 284.596563)scale(0.1 -0.1)">
      <defs>
       <path id="DejaVuSans-54" d="M -19 4666 
L 3928 4666 
L 3928 4134 
L 2272 4134 
L 2272 0 
L 1638 0 
L 1638 4134 
L -19 4134 
L -19 4666 
z
" transform="scale(0.015625)"/>
       <path id="DejaVuSans-20" transform="scale(0.015625)"/>
       <path id="DejaVuSans-5b" d="M 550 4863 
L 1875 4863 
L 1875 4416 
L 1125 4416 
L 1125 -397 
L 1875 -397 
L 1875 -844 
L 550 -844 
L 550 4863 
z
" transform="scale(0.015625)"/>
       <path id="DejaVuSans-73" d="M 2834 3397 
L 2834 2853 
Q 2591 2978 2328 3040 
Q 2066 3103 1784 3103 
Q 1356 3103 1142 2972 
Q 928 2841 928 2578 
Q 928 2378 1081 2264 
Q 1234 2150 1697 2047 
L 1894 2003 
Q 2506 1872 2764 1633 
Q 3022 1394 3022 966 
Q 3022 478 2636 193 
Q 2250 -91 1575 -91 
Q 1294 -91 989 -36 
Q 684 19 347 128 
L 347 722 
Q 666 556 975 473 
Q 1284 391 1588 391 
Q 1994 391 2212 530 
Q 2431 669 2431 922 
Q 2431 1156 2273 1281 
Q 2116 1406 1581 1522 
L 1381 1569 
Q 847 1681 609 1914 
Q 372 2147 372 2553 
Q 372 3047 722 3315 
Q 1072 3584 1716 3584 
Q 2034 3584 2315 3537 
Q 2597 3491 2834 3397 
z
" transform="scale(0.015625)"/>
       <path id="DejaVuSans-5d" d="M 1947 4863 
L 1947 -844 
L 622 -844 
L 622 -397 
L 1369 -397 
L 1369 4416 
L 622 4416 
L 622 4863 
L 1947 4863 
z
" transform="scale(0.015625)"/>
      </defs>
      <use xlink:href="#DejaVuSans-54"/>
      <use xlink:href="#DejaVuSans-69" x="57.958984"/>
      <use xlink:href="#DejaVuSans-6d" x="85.742188"/>
      <use xlink:href="#DejaVuSans-65" x="183.154297"/>
      <use xlink:href="#DejaVuSans-20" x="244.677734"/>
      <use xlink:href="#DejaVuSans-5b" x="276.464844"/>
      <use xlink:href="#DejaVuSans-73" x="315.478516"/>
      <use xlink:href="#DejaVuSans-5d" x="367.578125"/>
     </g>
    </g>
   </g>
   <g id="matplotlib.axis_6">
    <g id="ytick_5">
     <g id="line2d_32">
      <g>
       <use xlink:href="#m65baa735c7" x="36" y="250.684807" style="stroke: #000000; stroke-width: 0.8"/>
      </g>
     </g>
     <g id="text_30">
      <!-- 0 -->
      <g transform="translate(22.6375 254.484026)scale(0.1 -0.1)">
       <use xlink:href="#DejaVuSans-30"/>
      </g>
     </g>
    </g>
    <g id="ytick_6">
     <g id="line2d_33">
      <g>
       <use xlink:href="#m65baa735c7" x="36" y="205.612446" style="stroke: #000000; stroke-width: 0.8"/>
      </g>
     </g>
     <g id="text_31">
      <!-- 1 -->
      <g transform="translate(22.6375 209.411665)scale(0.1 -0.1)">
       <use xlink:href="#DejaVuSans-31"/>
      </g>
     </g>
    </g>
    <g id="text_32">
     <!-- y3 -->
     <g transform="translate(16.557812 234.740625)rotate(-90)scale(0.1 -0.1)">
      <use xlink:href="#DejaVuSans-79"/>
      <use xlink:href="#DejaVuSans-33" x="59.179688"/>
     </g>
    </g>
   </g>
   <g id="line2d_34">
    <g clip-path="url(#p0600fca21f)">
     <use xlink:href="#m0c15ef86d7" x="46.145455" y="249.011551" style="stroke: #000000"/>
     <use xlink:href="#m0c15ef86d7" x="50.286456" y="250.800248" style="stroke: #000000"/>
     <use xlink:href="#m0c15ef86d7" x="54.427458" y="251.644486" style="stroke: #000000"/>
     <use xlink:href="#m0c15ef86d7" x="58.56846" y="247.143084" style="stroke: #000000"/>
     <use xlink:href="#m0c15ef86d7" x="62.709462" y="249.317095" style="stroke: #000000"/>
     <use xlink:href="#m0c15ef86d7" x="66.850464" y="251.006404" style="stroke: #000000"/>
     <use xlink:href="#m0c15ef86d7" x="70.991466" y="251.103819" style="stroke: #000000"/>
     <use xlink:href="#m0c15ef86d7" x="75.132468" y="251.522339" style="stroke: #000000"/>
     <use xlink:href="#m0c15ef86d7" x="79.273469" y="251.142442" style="stroke: #000000"/>
     <use xlink:href="#m0c15ef86d7" x="83.414471" y="252.545874" style="stroke: #000000"/>
     <use xlink:href="#m0c15ef86d7" x="87.555473" y="253.8" style="stroke: #000000"/>
     <use xlink:href="#m0c15ef86d7" x="91.696475" y="246.96754" style="stroke: #000000"/>
     <use xlink:href="#m0c15ef86d7" x="95.837477" y="253.465146" style="stroke: #000000"/>
     <use xlink:href="#m0c15ef86d7" x="99.978479" y="247.553304" style="stroke: #000000"/>
     <use xlink:href="#m0c15ef86d7" x="104.119481" y="246.229737" style="stroke: #000000"/>
     <use xlink:href="#m0c15ef86d7" x="108.260482" y="251.070783" style="stroke: #000000"/>
     <use xlink:href="#m0c15ef86d7" x="112.401484" y="252.413034" style="stroke: #000000"/>
     <use xlink:href="#m0c15ef86d7" x="116.542486" y="252.550833" style="stroke: #000000"/>
     <use xlink:href="#m0c15ef86d7" x="120.683488" y="245.238294" style="stroke: #000000"/>
     <use xlink:href="#m0c15ef86d7" x="124.82449" y="242.909957" style="stroke: #000000"/>
     <use xlink:href="#m0c15ef86d7" x="128.965492" y="245.954168" style="stroke: #000000"/>
     <use xlink:href="#m0c15ef86d7" x="133.106494" y="246.271803" style="stroke: #000000"/>
     <use xlink:href="#m0c15ef86d7" x="137.247495" y="242.846077" style="stroke: #000000"/>
     <use xlink:href="#m0c15ef86d7" x="141.388497" y="241.926749" style="stroke: #000000"/>
     <use xlink:href="#m0c15ef86d7" x="145.529499" y="233.870529" style="stroke: #000000"/>
     <use xlink:href="#m0c15ef86d7" x="149.670501" y="232.194175" style="stroke: #000000"/>
     <use xlink:href="#m0c15ef86d7" x="153.811503" y="231.074458" style="stroke: #000000"/>
     <use xlink:href="#m0c15ef86d7" x="157.952505" y="225.587669" style="stroke: #000000"/>
     <use xlink:href="#m0c15ef86d7" x="162.093506" y="219.124364" style="stroke: #000000"/>
     <use xlink:href="#m0c15ef86d7" x="166.234508" y="218.17116" style="stroke: #000000"/>
     <use xlink:href="#m0c15ef86d7" x="170.37551" y="212.449603" style="stroke: #000000"/>
     <use xlink:href="#m0c15ef86d7" x="174.516512" y="213.768572" style="stroke: #000000"/>
     <use xlink:href="#m0c15ef86d7" x="178.657514" y="208.409923" style="stroke: #000000"/>
     <use xlink:href="#m0c15ef86d7" x="182.798516" y="205.953585" style="stroke: #000000"/>
     <use xlink:href="#m0c15ef86d7" x="186.939518" y="210.141909" style="stroke: #000000"/>
     <use xlink:href="#m0c15ef86d7" x="191.080519" y="203.60099" style="stroke: #000000"/>
     <use xlink:href="#m0c15ef86d7" x="195.221521" y="208.053654" style="stroke: #000000"/>
     <use xlink:href="#m0c15ef86d7" x="199.362523" y="207.164748" style="stroke: #000000"/>
     <use xlink:href="#m0c15ef86d7" x="203.503525" y="210.347836" style="stroke: #000000"/>
     <use xlink:href="#m0c15ef86d7" x="207.644527" y="203.644775" style="stroke: #000000"/>
     <use xlink:href="#m0c15ef86d7" x="211.785529" y="207.379821" style="stroke: #000000"/>
     <use xlink:href="#m0c15ef86d7" x="215.926531" y="206.663707" style="stroke: #000000"/>
     <use xlink:href="#m0c15ef86d7" x="220.067532" y="203.4" style="stroke: #000000"/>
     <use xlink:href="#m0c15ef86d7" x="224.208534" y="209.884962" style="stroke: #000000"/>
     <use xlink:href="#m0c15ef86d7" x="228.349536" y="209.85435" style="stroke: #000000"/>
     <use xlink:href="#m0c15ef86d7" x="232.490538" y="208.899271" style="stroke: #000000"/>
     <use xlink:href="#m0c15ef86d7" x="236.63154" y="208.549798" style="stroke: #000000"/>
     <use xlink:href="#m0c15ef86d7" x="240.772542" y="209.466991" style="stroke: #000000"/>
     <use xlink:href="#m0c15ef86d7" x="244.913544" y="205.904131" style="stroke: #000000"/>
     <use xlink:href="#m0c15ef86d7" x="249.054545" y="205.936271" style="stroke: #000000"/>
    </g>
   </g>
   <g id="line2d_35">
    <path d="M 46.145455 250.684807 
L 50.286456 250.684806 
L 54.427458 250.684799 
L 58.56846 250.684764 
L 62.709462 250.6846 
L 66.850464 250.684014 
L 70.991466 250.682543 
L 75.132468 250.679727 
L 79.273469 250.674749 
L 83.414471 250.666013 
L 87.555473 250.650692 
L 91.696475 250.623866 
L 95.837477 250.577031 
L 99.978479 250.495647 
L 104.119481 250.355428 
L 108.260482 250.117208 
L 112.401484 249.721757 
L 116.542486 249.088913 
L 120.683488 248.129172 
L 124.82449 246.769706 
L 128.965492 244.991743 
L 133.106494 242.827649 
L 137.247495 240.351795 
L 141.388497 237.623417 
L 145.529499 234.688547 
L 149.670501 231.584035 
L 153.811503 228.359837 
L 157.952505 225.086264 
L 162.093506 221.83742 
L 166.234508 218.712794 
L 170.37551 215.821096 
L 174.516512 213.263993 
L 178.657514 211.120128 
L 182.798516 209.412209 
L 186.939518 208.132441 
L 191.080519 207.224176 
L 195.221521 206.611753 
L 199.362523 206.216996 
L 203.503525 205.971231 
L 207.644527 205.82234 
L 211.785529 205.734107 
L 215.926531 205.682512 
L 220.067532 205.652605 
L 224.208534 205.635401 
L 228.349536 205.625542 
L 232.490538 205.6199 
L 236.63154 205.61669 
L 240.772542 205.614862 
L 244.913544 205.613817 
L 249.054545 205.613225 
" clip-path="url(#p0600fca21f)" style="fill: none; stroke-dasharray: 5.55,2.4; stroke-dashoffset: 0; stroke: #0000ff; stroke-width: 1.5"/>
   </g>
   <g id="line2d_36">
    <path d="M 46.145455 250.684806 
L 50.286456 250.684803 
L 54.427458 250.684784 
L 58.56846 250.68469 
L 62.709462 250.684307 
L 66.850464 250.683179 
L 70.991466 250.680811 
L 75.132468 250.676554 
L 79.273469 250.669078 
L 83.414471 250.655969 
L 87.555473 250.633021 
L 91.696475 250.592974 
L 95.837477 250.523437 
L 99.978479 250.403773 
L 104.119481 250.200856 
L 108.260482 249.865122 
L 112.401484 249.330245 
L 116.542486 248.523847 
L 120.683488 247.387922 
L 124.82449 245.908494 
L 128.965492 244.106195 
L 133.106494 242.027037 
L 137.247495 239.707569 
L 141.388497 237.169487 
L 145.529499 234.427828 
L 149.670501 231.497972 
L 153.811503 228.427531 
L 157.952505 225.271606 
L 162.093506 222.102814 
L 166.234508 219.022012 
L 170.37551 216.140911 
L 174.516512 213.564177 
L 178.657514 211.376689 
L 182.798516 209.620476 
L 186.939518 208.288818 
L 191.080519 207.334205 
L 195.221521 206.685151 
L 199.362523 206.263512 
L 203.503525 205.999775 
L 207.644527 205.839674 
L 211.785529 205.744289 
L 215.926531 205.688398 
L 220.067532 205.656015 
L 224.208534 205.637357 
L 228.349536 205.626655 
L 232.490538 205.620551 
L 236.63154 205.617054 
L 240.772542 205.615065 
L 244.913544 205.613935 
L 249.054545 205.613293 
" clip-path="url(#p0600fca21f)" style="fill: none; stroke: #ff0000; stroke-width: 1.5; stroke-linecap: square"/>
   </g>
   <g id="patch_13">
    <path d="M 36 256.32 
L 36 200.88 
" style="fill: none; stroke: #000000; stroke-width: 0.8; stroke-linejoin: miter; stroke-linecap: square"/>
   </g>
   <g id="patch_14">
    <path d="M 259.2 256.32 
L 259.2 200.88 
" style="fill: none; stroke: #000000; stroke-width: 0.8; stroke-linejoin: miter; stroke-linecap: square"/>
   </g>
   <g id="patch_15">
    <path d="M 36 256.32 
L 259.2 256.32 
" style="fill: none; stroke: #000000; stroke-width: 0.8; stroke-linejoin: miter; stroke-linecap: square"/>
   </g>
   <g id="patch_16">
    <path d="M 36 200.88 
L 259.2 200.88 
" style="fill: none; stroke: #000000; stroke-width: 0.8; stroke-linejoin: miter; stroke-linecap: square"/>
   </g>
  </g>
 </g>
 <defs>
  <clipPath id="p93513d6dff">
   <rect x="36" y="34.56" width="223.2" height="55.44"/>
  </clipPath>
  <clipPath id="pe07860a68c">
   <rect x="36" y="117.72" width="223.2" height="55.44"/>
  </clipPath>
  <clipPath id="p0600fca21f">
   <rect x="36" y="200.88" width="223.2" height="55.44"/>
  </clipPath>
 </defs>
</svg>
