<?xml version="1.0" encoding="utf-8"?>
<svg xmlns="http://www.w3.org/2000/svg" xmlns:xlink="http://www.w3.org/1999/xlink" width="400" height="400" viewBox="0 0 1600 1600">
<defs>
  <clipPath id="clip990">
    <rect x="0" y="0" width="1600" height="1600"/>
  </clipPath>
</defs>
<path clip-path="url(#clip990)" d="
M0 1600 L1600 1600 L1600 0 L0 0  Z
  " fill="#ffffff" fill-rule="evenodd" fill-opacity="1"/>
<defs>
  <clipPath id="clip991">
    <rect x="320" y="160" width="1121" height="1121"/>
  </clipPath>
</defs>
<path clip-path="url(#clip990)" d="
M351.781 523.82 L1552.76 523.82 L1552.76 47.2441 L351.781 47.2441  Z
  " fill="#ffffff" fill-rule="evenodd" fill-opacity="1"/>
<defs>
  <clipPath id="clip992">
    <rect x="351" y="47" width="1202" height="478"/>
  </clipPath>
</defs>
<polyline clip-path="url(#clip992)" style="stroke:#000000; stroke-linecap:butt; stroke-linejoin:round; stroke-width:2; stroke-opacity:0.1; fill:none" points="
  381.994,523.82 381.994,47.2441 
  "/>
<polyline clip-path="url(#clip992)" style="stroke:#000000; stroke-linecap:butt; stroke-linejoin:round; stroke-width:2; stroke-opacity:0.1; fill:none" points="
  759.659,523.82 759.659,47.2441 
  "/>
<polyline clip-path="url(#clip992)" style="stroke:#000000; stroke-linecap:butt; stroke-linejoin:round; stroke-width:2; stroke-opacity:0.1; fill:none" points="
  1137.32,523.82 1137.32,47.2441 
  "/>
<polyline clip-path="url(#clip992)" style="stroke:#000000; stroke-linecap:butt; stroke-linejoin:round; stroke-width:2; stroke-opacity:0.1; fill:none" points="
  1514.99,523.82 1514.99,47.2441 
  "/>
<polyline clip-path="url(#clip990)" style="stroke:#000000; stroke-linecap:butt; stroke-linejoin:round; stroke-width:4; stroke-opacity:1; fill:none" points="
  351.781,523.82 1552.76,523.82 
  "/>
<polyline clip-path="url(#clip990)" style="stroke:#000000; stroke-linecap:butt; stroke-linejoin:round; stroke-width:4; stroke-opacity:1; fill:none" points="
  351.781,47.2441 1552.76,47.2441 
  "/>
<polyline clip-path="url(#clip990)" style="stroke:#000000; stroke-linecap:butt; stroke-linejoin:round; stroke-width:4; stroke-opacity:1; fill:none" points="
  381.994,523.82 381.994,504.922 
  "/>
<polyline clip-path="url(#clip990)" style="stroke:#000000; stroke-linecap:butt; stroke-linejoin:round; stroke-width:4; stroke-opacity:1; fill:none" points="
  759.659,523.82 759.659,504.922 
  "/>
<polyline clip-path="url(#clip990)" style="stroke:#000000; stroke-linecap:butt; stroke-linejoin:round; stroke-width:4; stroke-opacity:1; fill:none" points="
  1137.32,523.82 1137.32,504.922 
  "/>
<polyline clip-path="url(#clip990)" style="stroke:#000000; stroke-linecap:butt; stroke-linejoin:round; stroke-width:4; stroke-opacity:1; fill:none" points="
  1514.99,523.82 1514.99,504.922 
  "/>
<path clip-path="url(#clip990)" d="M381.994 554.198 Q376.577 554.198 373.834 559.545 Q371.126 564.858 371.126 575.552 Q371.126 586.212 373.834 591.559 Q376.577 596.871 381.994 596.871 Q387.445 596.871 390.154 591.559 Q392.897 586.212 392.897 575.552 Q392.897 564.858 390.154 559.545 Q387.445 554.198 381.994 554.198 M381.994 548.642 Q390.709 548.642 395.293 555.552 Q399.911 562.427 399.911 575.552 Q399.911 588.642 395.293 595.552 Q390.709 602.427 381.994 602.427 Q373.279 602.427 368.661 595.552 Q364.078 588.642 364.078 575.552 Q364.078 562.427 368.661 555.552 Q373.279 548.642 381.994 548.642 Z" fill="#000000" fill-rule="evenodd" fill-opacity="1" /><path clip-path="url(#clip990)" d="M699.069 595.517 L710.528 595.517 L710.528 555.969 L698.062 558.469 L698.062 552.08 L710.458 549.58 L717.472 549.58 L717.472 595.517 L728.93 595.517 L728.93 601.42 L699.069 601.42 L699.069 595.517 Z" fill="#000000" fill-rule="evenodd" fill-opacity="1" /><path clip-path="url(#clip990)" d="M758.097 554.198 Q752.68 554.198 749.937 559.545 Q747.229 564.858 747.229 575.552 Q747.229 586.212 749.937 591.559 Q752.68 596.871 758.097 596.871 Q763.548 596.871 766.256 591.559 Q768.999 586.212 768.999 575.552 Q768.999 564.858 766.256 559.545 Q763.548 554.198 758.097 554.198 M758.097 548.642 Q766.812 548.642 771.395 555.552 Q776.013 562.427 776.013 575.552 Q776.013 588.642 771.395 595.552 Q766.812 602.427 758.097 602.427 Q749.381 602.427 744.763 595.552 Q740.18 588.642 740.18 575.552 Q740.18 562.427 744.763 555.552 Q749.381 548.642 758.097 548.642 Z" fill="#000000" fill-rule="evenodd" fill-opacity="1" /><path clip-path="url(#clip990)" d="M803.34 554.198 Q797.923 554.198 795.18 559.545 Q792.472 564.858 792.472 575.552 Q792.472 586.212 795.18 591.559 Q797.923 596.871 803.34 596.871 Q808.791 596.871 811.499 591.559 Q814.242 586.212 814.242 575.552 Q814.242 564.858 811.499 559.545 Q808.791 554.198 803.34 554.198 M803.34 548.642 Q812.055 548.642 816.638 555.552 Q821.256 562.427 821.256 575.552 Q821.256 588.642 816.638 595.552 Q812.055 602.427 803.34 602.427 Q794.624 602.427 790.006 595.552 Q785.423 588.642 785.423 575.552 Q785.423 562.427 790.006 555.552 Q794.624 548.642 803.34 548.642 Z" fill="#000000" fill-rule="evenodd" fill-opacity="1" /><path clip-path="url(#clip990)" d="M1082.86 595.517 L1107.34 595.517 L1107.34 601.42 L1074.43 601.42 L1074.43 595.517 Q1078.42 591.385 1085.29 584.441 Q1092.2 577.462 1093.97 575.448 Q1097.34 571.663 1098.66 569.059 Q1100.02 566.42 1100.02 563.885 Q1100.02 559.753 1097.1 557.149 Q1094.22 554.545 1089.56 554.545 Q1086.27 554.545 1082.59 555.691 Q1078.94 556.837 1074.77 559.163 L1074.77 552.08 Q1079.01 550.378 1082.69 549.51 Q1086.37 548.642 1089.43 548.642 Q1097.48 548.642 1102.27 552.67 Q1107.06 556.698 1107.06 563.434 Q1107.06 566.628 1105.85 569.51 Q1104.67 572.357 1101.51 576.246 Q1100.64 577.253 1095.99 582.08 Q1091.33 586.871 1082.86 595.517 Z" fill="#000000" fill-rule="evenodd" fill-opacity="1" /><path clip-path="url(#clip990)" d="M1137.06 554.198 Q1131.65 554.198 1128.9 559.545 Q1126.2 564.858 1126.2 575.552 Q1126.2 586.212 1128.9 591.559 Q1131.65 596.871 1137.06 596.871 Q1142.52 596.871 1145.22 591.559 Q1147.97 586.212 1147.97 575.552 Q1147.97 564.858 1145.22 559.545 Q1142.52 554.198 1137.06 554.198 M1137.06 548.642 Q1145.78 548.642 1150.36 555.552 Q1154.98 562.427 1154.98 575.552 Q1154.98 588.642 1150.36 595.552 Q1145.78 602.427 1137.06 602.427 Q1128.35 602.427 1123.73 595.552 Q1119.15 588.642 1119.15 575.552 Q1119.15 562.427 1123.73 555.552 Q1128.35 548.642 1137.06 548.642 Z" fill="#000000" fill-rule="evenodd" fill-opacity="1" /><path clip-path="url(#clip990)" d="M1182.31 554.198 Q1176.89 554.198 1174.15 559.545 Q1171.44 564.858 1171.44 575.552 Q1171.44 586.212 1174.15 591.559 Q1176.89 596.871 1182.31 596.871 Q1187.76 596.871 1190.47 591.559 Q1193.21 586.212 1193.21 575.552 Q1193.21 564.858 1190.47 559.545 Q1187.76 554.198 1182.31 554.198 M1182.31 548.642 Q1191.02 548.642 1195.61 555.552 Q1200.22 562.427 1200.22 575.552 Q1200.22 588.642 1195.61 595.552 Q1191.02 602.427 1182.31 602.427 Q1173.59 602.427 1168.97 595.552 Q1164.39 588.642 1164.39 575.552 Q1164.39 562.427 1168.97 555.552 Q1173.59 548.642 1182.31 548.642 Z" fill="#000000" fill-rule="evenodd" fill-opacity="1" /><path clip-path="url(#clip990)" d="M1475.63 573.469 Q1480.67 574.545 1483.48 577.948 Q1486.33 581.351 1486.33 586.35 Q1486.33 594.024 1481.05 598.225 Q1475.77 602.427 1466.05 602.427 Q1462.78 602.427 1459.31 601.767 Q1455.88 601.142 1452.19 599.857 L1452.19 593.087 Q1455.11 594.788 1458.58 595.656 Q1462.06 596.524 1465.84 596.524 Q1472.44 596.524 1475.88 593.92 Q1479.35 591.316 1479.35 586.35 Q1479.35 581.767 1476.12 579.198 Q1472.92 576.594 1467.19 576.594 L1461.15 576.594 L1461.15 570.83 L1467.47 570.83 Q1472.65 570.83 1475.39 568.781 Q1478.13 566.698 1478.13 562.809 Q1478.13 558.816 1475.28 556.698 Q1472.47 554.545 1467.19 554.545 Q1464.31 554.545 1461.01 555.17 Q1457.72 555.795 1453.76 557.115 L1453.76 550.865 Q1457.75 549.753 1461.22 549.198 Q1464.73 548.642 1467.82 548.642 Q1475.81 548.642 1480.46 552.288 Q1485.11 555.899 1485.11 562.08 Q1485.11 566.385 1482.65 569.371 Q1480.18 572.323 1475.63 573.469 Z" fill="#000000" fill-rule="evenodd" fill-opacity="1" /><path clip-path="url(#clip990)" d="M1514.62 554.198 Q1509.21 554.198 1506.47 559.545 Q1503.76 564.858 1503.76 575.552 Q1503.76 586.212 1506.47 591.559 Q1509.21 596.871 1514.62 596.871 Q1520.08 596.871 1522.78 591.559 Q1525.53 586.212 1525.53 575.552 Q1525.53 564.858 1522.78 559.545 Q1520.08 554.198 1514.62 554.198 M1514.62 548.642 Q1523.34 548.642 1527.92 555.552 Q1532.54 562.427 1532.54 575.552 Q1532.54 588.642 1527.92 595.552 Q1523.34 602.427 1514.62 602.427 Q1505.91 602.427 1501.29 595.552 Q1496.71 588.642 1496.71 575.552 Q1496.71 562.427 1501.29 555.552 Q1505.91 548.642 1514.62 548.642 Z" fill="#000000" fill-rule="evenodd" fill-opacity="1" /><path clip-path="url(#clip990)" d="M1559.87 554.198 Q1554.45 554.198 1551.71 559.545 Q1549 564.858 1549 575.552 Q1549 586.212 1551.71 591.559 Q1554.45 596.871 1559.87 596.871 Q1565.32 596.871 1568.03 591.559 Q1570.77 586.212 1570.77 575.552 Q1570.77 564.858 1568.03 559.545 Q1565.32 554.198 1559.87 554.198 M1559.87 548.642 Q1568.58 548.642 1573.17 555.552 Q1577.78 562.427 1577.78 575.552 Q1577.78 588.642 1573.17 595.552 Q1568.58 602.427 1559.87 602.427 Q1551.15 602.427 1546.53 595.552 Q1541.95 588.642 1541.95 575.552 Q1541.95 562.427 1546.53 555.552 Q1551.15 548.642 1559.87 548.642 Z" fill="#000000" fill-rule="evenodd" fill-opacity="1" /><path clip-path="url(#clip990)" d="M789.376 639.404 L833.079 639.404 L833.079 647.274 L798.728 647.274 L798.728 667.737 L831.644 667.737 L831.644 675.607 L798.728 675.607 L798.728 700.654 L833.913 700.654 L833.913 708.524 L789.376 708.524 L789.376 639.404 Z" fill="#000000" fill-rule="evenodd" fill-opacity="1" /><path clip-path="url(#clip990)" d="M857.153 700.746 L857.153 728.246 L848.588 728.246 L848.588 656.672 L857.153 656.672 L857.153 664.543 Q859.838 659.913 863.912 657.691 Q868.033 655.422 873.727 655.422 Q883.172 655.422 889.051 662.922 Q894.977 670.422 894.977 682.644 Q894.977 694.867 889.051 702.366 Q883.172 709.866 873.727 709.866 Q868.033 709.866 863.912 707.644 Q859.838 705.376 857.153 700.746 M886.134 682.644 Q886.134 673.246 882.246 667.922 Q878.403 662.552 871.644 662.552 Q864.885 662.552 860.996 667.922 Q857.153 673.246 857.153 682.644 Q857.153 692.042 860.996 697.413 Q864.885 702.737 871.644 702.737 Q878.403 702.737 882.246 697.413 Q886.134 692.042 886.134 682.644 Z" fill="#000000" fill-rule="evenodd" fill-opacity="1" /><path clip-path="url(#clip990)" d="M929.19 662.644 Q922.338 662.644 918.357 668.015 Q914.375 673.339 914.375 682.644 Q914.375 691.95 918.31 697.32 Q922.292 702.644 929.19 702.644 Q935.995 702.644 939.977 697.274 Q943.958 691.904 943.958 682.644 Q943.958 673.431 939.977 668.061 Q935.995 662.644 929.19 662.644 M929.19 655.422 Q940.301 655.422 946.643 662.644 Q952.986 669.867 952.986 682.644 Q952.986 695.376 946.643 702.644 Q940.301 709.866 929.19 709.866 Q918.032 709.866 911.69 702.644 Q905.394 695.376 905.394 682.644 Q905.394 669.867 911.69 662.644 Q918.032 655.422 929.19 655.422 Z" fill="#000000" fill-rule="evenodd" fill-opacity="1" /><path clip-path="url(#clip990)" d="M1004.42 658.663 L1004.42 666.626 Q1000.81 664.635 997.152 663.663 Q993.541 662.644 989.838 662.644 Q981.551 662.644 976.967 667.922 Q972.384 673.154 972.384 682.644 Q972.384 692.135 976.967 697.413 Q981.551 702.644 989.838 702.644 Q993.541 702.644 997.152 701.672 Q1000.81 700.654 1004.42 698.663 L1004.42 706.533 Q1000.86 708.2 997.014 709.033 Q993.217 709.866 988.912 709.866 Q977.199 709.866 970.301 702.505 Q963.403 695.144 963.403 682.644 Q963.403 669.959 970.347 662.691 Q977.338 655.422 989.467 655.422 Q993.402 655.422 997.152 656.256 Q1000.9 657.043 1004.42 658.663 Z" fill="#000000" fill-rule="evenodd" fill-opacity="1" /><path clip-path="url(#clip990)" d="M1062.34 677.228 L1062.34 708.524 L1053.82 708.524 L1053.82 677.505 Q1053.82 670.144 1050.95 666.487 Q1048.08 662.83 1042.34 662.83 Q1035.44 662.83 1031.46 667.228 Q1027.48 671.626 1027.48 679.218 L1027.48 708.524 L1018.91 708.524 L1018.91 636.487 L1027.48 636.487 L1027.48 664.728 Q1030.53 660.052 1034.65 657.737 Q1038.82 655.422 1044.24 655.422 Q1053.17 655.422 1057.75 660.978 Q1062.34 666.487 1062.34 677.228 Z" fill="#000000" fill-rule="evenodd" fill-opacity="1" /><path clip-path="url(#clip990)" d="M1112.38 658.2 L1112.38 666.256 Q1108.77 664.404 1104.88 663.478 Q1100.99 662.552 1096.83 662.552 Q1090.49 662.552 1087.29 664.496 Q1084.14 666.441 1084.14 670.33 Q1084.14 673.293 1086.41 675.006 Q1088.68 676.672 1095.53 678.2 L1098.45 678.848 Q1107.52 680.793 1111.32 684.357 Q1115.16 687.876 1115.16 694.218 Q1115.16 701.441 1109.42 705.653 Q1103.73 709.866 1093.73 709.866 Q1089.56 709.866 1085.02 709.033 Q1080.53 708.246 1075.53 706.626 L1075.53 697.829 Q1080.25 700.283 1084.84 701.533 Q1089.42 702.737 1093.91 702.737 Q1099.93 702.737 1103.17 700.7 Q1106.41 698.616 1106.41 694.867 Q1106.41 691.394 1104.05 689.542 Q1101.74 687.691 1093.82 685.978 L1090.86 685.283 Q1082.94 683.617 1079.42 680.191 Q1075.9 676.718 1075.9 670.7 Q1075.9 663.385 1081.09 659.404 Q1086.27 655.422 1095.81 655.422 Q1100.53 655.422 1104.7 656.117 Q1108.86 656.811 1112.38 658.2 Z" fill="#000000" fill-rule="evenodd" fill-opacity="1" /><polyline clip-path="url(#clip992)" style="stroke:#000000; stroke-linecap:butt; stroke-linejoin:round; stroke-width:2; stroke-opacity:0.1; fill:none" points="
  351.781,422.052 1552.76,422.052 
  "/>
<polyline clip-path="url(#clip992)" style="stroke:#000000; stroke-linecap:butt; stroke-linejoin:round; stroke-width:2; stroke-opacity:0.1; fill:none" points="
  351.781,176.365 1552.76,176.365 
  "/>
<polyline clip-path="url(#clip990)" style="stroke:#000000; stroke-linecap:butt; stroke-linejoin:round; stroke-width:4; stroke-opacity:1; fill:none" points="
  351.781,523.82 351.781,47.2441 
  "/>
<polyline clip-path="url(#clip990)" style="stroke:#000000; stroke-linecap:butt; stroke-linejoin:round; stroke-width:4; stroke-opacity:1; fill:none" points="
  1552.76,523.82 1552.76,47.2441 
  "/>
<polyline clip-path="url(#clip990)" style="stroke:#000000; stroke-linecap:butt; stroke-linejoin:round; stroke-width:4; stroke-opacity:1; fill:none" points="
  351.781,422.052 370.679,422.052 
  "/>
<polyline clip-path="url(#clip990)" style="stroke:#000000; stroke-linecap:butt; stroke-linejoin:round; stroke-width:4; stroke-opacity:1; fill:none" points="
  351.781,176.365 370.679,176.365 
  "/>
<path clip-path="url(#clip990)" d="M175.427 451.741 L186.885 451.741 L186.885 412.192 L174.42 414.692 L174.42 408.304 L186.816 405.804 L193.83 405.804 L193.83 451.741 L205.288 451.741 L205.288 457.644 L175.427 457.644 L175.427 451.741 Z" fill="#000000" fill-rule="evenodd" fill-opacity="1" /><path clip-path="url(#clip990)" d="M234.455 410.422 Q229.038 410.422 226.295 415.769 Q223.587 421.081 223.587 431.776 Q223.587 442.435 226.295 447.783 Q229.038 453.095 234.455 453.095 Q239.906 453.095 242.614 447.783 Q245.357 442.435 245.357 431.776 Q245.357 421.081 242.614 415.769 Q239.906 410.422 234.455 410.422 M234.455 404.866 Q243.17 404.866 247.753 411.776 Q252.371 418.651 252.371 431.776 Q252.371 444.866 247.753 451.776 Q243.17 458.651 234.455 458.651 Q225.739 458.651 221.121 451.776 Q216.538 444.866 216.538 431.776 Q216.538 418.651 221.121 411.776 Q225.739 404.866 234.455 404.866 Z" fill="#000000" fill-rule="evenodd" fill-opacity="1" /><path clip-path="url(#clip990)" d="M252.371 396.018 L288.538 396.018 L288.538 400.814 L252.371 400.814 L252.371 396.018 Z" fill="#000000" fill-rule="evenodd" fill-opacity="1" /><path clip-path="url(#clip990)" d="M313.731 393.197 Q309.895 393.197 307.638 395.821 Q305.409 398.444 305.409 403.015 Q305.409 407.557 307.638 410.209 Q309.895 412.832 313.731 412.832 Q317.568 412.832 319.797 410.209 Q322.054 407.557 322.054 403.015 Q322.054 398.444 319.797 395.821 Q317.568 393.197 313.731 393.197 M325.044 375.339 L325.044 380.53 Q322.9 379.514 320.7 378.978 Q318.527 378.442 316.383 378.442 Q310.741 378.442 307.751 382.251 Q304.788 386.059 304.365 393.761 Q306.03 391.307 308.541 390.009 Q311.051 388.683 314.07 388.683 Q320.418 388.683 324.085 392.548 Q327.781 396.385 327.781 403.015 Q327.781 409.503 323.944 413.425 Q320.107 417.346 313.731 417.346 Q306.425 417.346 302.56 411.76 Q298.695 406.146 298.695 395.51 Q298.695 385.523 303.434 379.599 Q308.174 373.646 316.158 373.646 Q318.302 373.646 320.474 374.069 Q322.675 374.493 325.044 375.339 Z" fill="#000000" fill-rule="evenodd" fill-opacity="1" /><path clip-path="url(#clip990)" d="M176.415 206.054 L187.873 206.054 L187.873 166.506 L175.408 169.006 L175.408 162.617 L187.803 160.117 L194.817 160.117 L194.817 206.054 L206.275 206.054 L206.275 211.957 L176.415 211.957 L176.415 206.054 Z" fill="#000000" fill-rule="evenodd" fill-opacity="1" /><path clip-path="url(#clip990)" d="M235.442 164.735 Q230.025 164.735 227.282 170.082 Q224.574 175.395 224.574 186.089 Q224.574 196.749 227.282 202.096 Q230.025 207.408 235.442 207.408 Q240.893 207.408 243.602 202.096 Q246.345 196.749 246.345 186.089 Q246.345 175.395 243.602 170.082 Q240.893 164.735 235.442 164.735 M235.442 159.179 Q244.157 159.179 248.741 166.089 Q253.359 172.964 253.359 186.089 Q253.359 199.179 248.741 206.089 Q244.157 212.964 235.442 212.964 Q226.727 212.964 222.109 206.089 Q217.525 199.179 217.525 186.089 Q217.525 172.964 222.109 166.089 Q226.727 159.179 235.442 159.179 Z" fill="#000000" fill-rule="evenodd" fill-opacity="1" /><path clip-path="url(#clip990)" d="M253.359 150.331 L289.526 150.331 L289.526 155.127 L253.359 155.127 L253.359 150.331 Z" fill="#000000" fill-rule="evenodd" fill-opacity="1" /><path clip-path="url(#clip990)" d="M319.092 148.131 Q323.182 149.005 325.468 151.77 Q327.781 154.535 327.781 158.597 Q327.781 164.832 323.493 168.246 Q319.205 171.659 311.305 171.659 Q308.653 171.659 305.832 171.123 Q303.039 170.616 300.049 169.572 L300.049 164.07 Q302.419 165.453 305.24 166.158 Q308.061 166.863 311.136 166.863 Q316.496 166.863 319.289 164.748 Q322.11 162.632 322.11 158.597 Q322.11 154.873 319.487 152.786 Q316.891 150.67 312.236 150.67 L307.327 150.67 L307.327 145.987 L312.462 145.987 Q316.665 145.987 318.894 144.322 Q321.123 142.63 321.123 139.47 Q321.123 136.226 318.81 134.505 Q316.524 132.756 312.236 132.756 Q309.895 132.756 307.215 133.263 Q304.534 133.771 301.318 134.843 L301.318 129.765 Q304.563 128.862 307.384 128.411 Q310.233 127.96 312.744 127.96 Q319.233 127.96 323.013 130.922 Q326.793 133.856 326.793 138.877 Q326.793 142.376 324.79 144.802 Q322.787 147.2 319.092 148.131 Z" fill="#000000" fill-rule="evenodd" fill-opacity="1" /><path clip-path="url(#clip990)" d="M134.499 388.818 Q143.758 392.43 146.582 395.855 Q149.406 399.281 149.406 405.022 L149.406 411.828 L142.277 411.828 L142.277 406.828 Q142.277 403.309 140.61 401.365 Q138.943 399.42 132.74 397.059 L128.851 395.531 L77.8326 416.503 L77.8326 407.476 L118.388 391.272 L77.8326 375.069 L77.8326 366.041 L134.499 388.818 Z" fill="#000000" fill-rule="evenodd" fill-opacity="1" /><path clip-path="url(#clip990)" d="M57.6475 324.143 L57.6475 315.624 L129.684 315.624 L129.684 324.143 L57.6475 324.143 Z" fill="#000000" fill-rule="evenodd" fill-opacity="1" /><path clip-path="url(#clip990)" d="M83.8048 277.708 Q83.8048 284.56 89.1751 288.541 Q94.4992 292.523 103.805 292.523 Q113.11 292.523 118.481 288.588 Q123.805 284.606 123.805 277.708 Q123.805 270.902 118.434 266.921 Q113.064 262.939 103.805 262.939 Q94.5918 262.939 89.2214 266.921 Q83.8048 270.902 83.8048 277.708 M76.5826 277.708 Q76.5826 266.597 83.8048 260.254 Q91.027 253.912 103.805 253.912 Q116.536 253.912 123.805 260.254 Q131.027 266.597 131.027 277.708 Q131.027 288.865 123.805 295.208 Q116.536 301.504 103.805 301.504 Q91.027 301.504 83.8048 295.208 Q76.5826 288.865 76.5826 277.708 Z" fill="#000000" fill-rule="evenodd" fill-opacity="1" /><path clip-path="url(#clip990)" d="M79.3604 206.736 L87.4159 206.736 Q85.564 210.347 84.6381 214.236 Q83.7122 218.125 83.7122 222.292 Q83.7122 228.634 85.6566 231.829 Q87.601 234.977 91.4899 234.977 Q94.4529 234.977 96.1658 232.708 Q97.8325 230.44 99.3602 223.588 L100.008 220.671 Q101.953 211.597 105.518 207.801 Q109.036 203.958 115.379 203.958 Q122.601 203.958 126.814 209.699 Q131.027 215.393 131.027 225.393 Q131.027 229.56 130.193 234.097 Q129.406 238.588 127.786 243.588 L118.99 243.588 Q121.443 238.866 122.693 234.282 Q123.897 229.699 123.897 225.208 Q123.897 219.19 121.86 215.949 Q119.777 212.708 116.027 212.708 Q112.555 212.708 110.703 215.069 Q108.851 217.384 107.138 225.301 L106.444 228.264 Q104.777 236.18 101.351 239.699 Q97.8788 243.217 91.8603 243.217 Q84.5455 243.217 80.5641 238.032 Q76.5826 232.847 76.5826 223.31 Q76.5826 218.588 77.277 214.421 Q77.9715 210.255 79.3604 206.736 Z" fill="#000000" fill-rule="evenodd" fill-opacity="1" /><path clip-path="url(#clip990)" d="M79.3604 157.338 L87.4159 157.338 Q85.564 160.949 84.6381 164.838 Q83.7122 168.727 83.7122 172.894 Q83.7122 179.236 85.6566 182.431 Q87.601 185.579 91.4899 185.579 Q94.4529 185.579 96.1658 183.31 Q97.8325 181.042 99.3602 174.19 L100.008 171.273 Q101.953 162.199 105.518 158.403 Q109.036 154.56 115.379 154.56 Q122.601 154.56 126.814 160.301 Q131.027 165.996 131.027 175.996 Q131.027 180.162 130.193 184.699 Q129.406 189.19 127.786 194.19 L118.99 194.19 Q121.443 189.468 122.693 184.884 Q123.897 180.301 123.897 175.81 Q123.897 169.792 121.86 166.551 Q119.777 163.31 116.027 163.31 Q112.555 163.31 110.703 165.671 Q108.851 167.986 107.138 175.903 L106.444 178.866 Q104.777 186.782 101.351 190.301 Q97.8788 193.819 91.8603 193.819 Q84.5455 193.819 80.5641 188.634 Q76.5826 183.449 76.5826 173.912 Q76.5826 169.19 77.277 165.023 Q77.9715 160.857 79.3604 157.338 Z" fill="#000000" fill-rule="evenodd" fill-opacity="1" /><polyline clip-path="url(#clip992)" style="stroke:#000000; stroke-linecap:butt; stroke-linejoin:round; stroke-width:4; stroke-opacity:1; fill:none" points="
  385.771,60.7321 389.547,93.9669 393.324,127.938 397.101,151.691 400.877,152.514 404.654,145.208 408.431,141.644 412.207,142.902 415.984,147.046 419.761,150.79 
  423.537,151.03 427.314,148.62 431.091,147.674 434.867,149.945 438.644,155.404 442.421,163.675 446.197,174.437 449.974,187.938 453.75,204.337 457.527,224.563 
  461.304,250.114 465.08,285.092 468.857,330.22 472.634,334.211 476.41,298.447 480.187,272.602 483.964,255.605 487.74,244.018 491.517,235.938 495.294,230.37 
  499.07,226.728 502.847,224.631 506.624,223.854 510.4,224.22 514.177,225.616 517.954,227.966 521.73,231.199 525.507,235.29 529.283,240.251 533.06,245.767 
  536.837,251.841 540.613,258.272 544.39,264.738 548.167,270.781 551.943,275.838 555.72,279.375 559.497,281.105 563.273,281.145 567.05,279.94 570.827,278.087 
  574.603,276.117 578.38,274.419 582.157,273.241 585.933,272.716 589.71,272.904 593.487,273.812 597.263,275.415 601.04,277.936 604.816,280.847 608.593,284.145 
  612.37,287.801 616.146,291.493 619.923,295.402 623.7,299.37 627.476,302.842 631.253,305.853 635.03,308.299 638.806,310.178 642.583,311.522 646.36,312.594 
  650.136,313.503 653.913,314.619 657.69,315.825 661.466,317.416 665.243,319.418 669.02,321.936 672.796,324.947 676.573,328.183 680.35,332.25 684.126,336.558 
  687.903,341.017 691.679,345.443 695.456,349.178 699.233,353.002 703.009,356.444 706.786,359.502 710.563,362.216 714.339,364.647 718.116,367.44 721.893,369.958 
  725.669,372.707 729.446,375.813 733.223,377.484 736.999,382.972 740.776,387.678 744.553,391.452 748.329,398.388 752.106,404.247 755.883,408.386 759.659,413.066 
  763.436,419.429 767.212,422.969 770.989,425.804 774.766,432.048 778.542,434.889 782.319,437.794 786.096,441.019 789.872,444.792 793.649,449.157 797.426,455.159 
  801.202,461.239 804.979,467.964 808.756,475.054 812.532,482.054 816.309,488.352 820.086,493.314 823.862,496.547 827.639,498.102 831.416,498.448 835.192,498.217 
  838.969,497.931 842.746,498.05 846.522,498.728 850.299,499.997 854.075,501.758 857.852,503.812 861.629,505.886 865.405,507.685 869.182,508.95 872.959,509.546 
  876.735,509.482 880.512,508.907 884.289,508.041 888.065,507.115 891.842,506.302 895.619,505.725 899.395,505.435 903.172,505.426 906.949,505.65 910.725,506.034 
  914.502,506.488 918.279,506.931 922.055,507.295 925.832,507.543 929.608,507.667 933.385,507.689 937.162,507.647 940.938,507.591 944.715,507.555 948.492,507.579 
  952.268,507.675 956.045,507.843 959.822,508.067 963.598,508.324 967.375,508.589 971.152,508.836 974.928,509.05 978.705,509.215 982.482,509.337 986.258,509.426 
  990.035,509.489 993.812,509.541 997.588,509.594 1001.36,509.653 1005.14,509.724 1008.92,509.805 1012.69,509.891 1016.47,509.976 1020.25,510.056 1024.02,510.122 
  1027.8,510.174 1031.58,510.21 1035.35,510.233 1039.13,510.248 1042.91,510.256 1046.68,510.258 1050.46,510.264 1054.24,510.273 1058.01,510.281 1061.79,510.293 
  1065.57,510.305 1069.34,510.318 1073.12,510.325 1076.9,510.331 1080.67,510.332 1084.45,510.332 1088.23,510.329 1092,510.324 1095.78,510.324 1099.56,510.317 
  1103.33,510.315 1107.11,510.314 1110.89,510.315 1114.66,510.315 1118.44,510.316 1122.22,510.317 1125.99,510.318 1129.77,510.317 1133.55,510.317 1137.32,510.316 
  1141.1,510.317 1144.88,510.316 1148.65,510.313 1152.43,510.313 1156.21,510.314 1159.98,510.316 1163.76,510.317 1167.54,510.319 1171.31,510.318 1175.09,510.319 
  1178.87,510.32 1182.64,510.32 1186.42,510.321 1190.2,510.321 1193.97,510.322 1197.75,510.323 1201.53,510.323 1205.3,510.324 1209.08,510.325 1212.86,510.324 
  1216.63,510.325 1220.41,510.326 1224.19,510.327 1227.96,510.327 1231.74,510.327 1235.52,510.328 1239.29,510.328 1243.07,510.328 1246.85,510.329 1250.62,510.33 
  1254.4,510.329 1258.18,510.33 1261.95,510.331 1265.73,510.33 1269.51,510.33 1273.28,510.329 1277.06,510.331 1280.84,510.33 1284.61,510.33 1288.39,510.33 
  1292.17,510.33 1295.94,510.33 1299.72,510.331 1303.5,510.331 1307.27,510.33 1311.05,510.331 1314.83,510.33 1318.6,510.33 1322.38,510.33 1326.16,510.331 
  1329.93,510.331 1333.71,510.33 1337.49,510.331 1341.26,510.331 1345.04,510.331 1348.82,510.331 1352.59,510.332 1356.37,510.331 1360.15,510.331 1363.92,510.33 
  1367.7,510.33 1371.48,510.331 1375.25,510.331 1379.03,510.331 1382.81,510.331 1386.58,510.331 1390.36,510.331 1394.14,510.33 1397.91,510.33 1401.69,510.33 
  1405.47,510.332 1409.24,510.33 1413.02,510.33 1416.8,510.33 1420.57,510.33 1424.35,510.33 1428.13,510.331 1431.9,510.33 1435.68,510.33 1439.46,510.33 
  1443.23,510.33 1447.01,510.33 1450.79,510.33 1454.56,510.33 1458.34,510.33 1462.12,510.33 1465.89,510.33 1469.67,510.33 1473.45,510.33 1477.22,510.33 
  1481,510.33 1484.78,510.33 1488.55,510.33 1492.33,510.33 1496.11,510.33 1499.88,510.33 1503.66,510.33 1507.44,510.33 1511.21,510.33 1514.99,510.33 
  1518.77,510.33 
  "/>
<path clip-path="url(#clip990)" d="
M351.781 1323.82 L1552.76 1323.82 L1552.76 847.244 L351.781 847.244  Z
  " fill="#ffffff" fill-rule="evenodd" fill-opacity="1"/>
<defs>
  <clipPath id="clip993">
    <rect x="351" y="847" width="1202" height="478"/>
  </clipPath>
</defs>
<polyline clip-path="url(#clip993)" style="stroke:#000000; stroke-linecap:butt; stroke-linejoin:round; stroke-width:2; stroke-opacity:0.1; fill:none" points="
  381.994,1323.82 381.994,847.244 
  "/>
<polyline clip-path="url(#clip993)" style="stroke:#000000; stroke-linecap:butt; stroke-linejoin:round; stroke-width:2; stroke-opacity:0.1; fill:none" points="
  759.659,1323.82 759.659,847.244 
  "/>
<polyline clip-path="url(#clip993)" style="stroke:#000000; stroke-linecap:butt; stroke-linejoin:round; stroke-width:2; stroke-opacity:0.1; fill:none" points="
  1137.32,1323.82 1137.32,847.244 
  "/>
<polyline clip-path="url(#clip993)" style="stroke:#000000; stroke-linecap:butt; stroke-linejoin:round; stroke-width:2; stroke-opacity:0.1; fill:none" points="
  1514.99,1323.82 1514.99,847.244 
  "/>
<polyline clip-path="url(#clip990)" style="stroke:#000000; stroke-linecap:butt; stroke-linejoin:round; stroke-width:4; stroke-opacity:1; fill:none" points="
  351.781,1323.82 1552.76,1323.82 
  "/>
<polyline clip-path="url(#clip990)" style="stroke:#000000; stroke-linecap:butt; stroke-linejoin:round; stroke-width:4; stroke-opacity:1; fill:none" points="
  351.781,847.244 1552.76,847.244 
  "/>
<polyline clip-path="url(#clip990)" style="stroke:#000000; stroke-linecap:butt; stroke-linejoin:round; stroke-width:4; stroke-opacity:1; fill:none" points="
  381.994,1323.82 381.994,1304.92 
  "/>
<polyline clip-path="url(#clip990)" style="stroke:#000000; stroke-linecap:butt; stroke-linejoin:round; stroke-width:4; stroke-opacity:1; fill:none" points="
  759.659,1323.82 759.659,1304.92 
  "/>
<polyline clip-path="url(#clip990)" style="stroke:#000000; stroke-linecap:butt; stroke-linejoin:round; stroke-width:4; stroke-opacity:1; fill:none" points="
  1137.32,1323.82 1137.32,1304.92 
  "/>
<polyline clip-path="url(#clip990)" style="stroke:#000000; stroke-linecap:butt; stroke-linejoin:round; stroke-width:4; stroke-opacity:1; fill:none" points="
  1514.99,1323.82 1514.99,1304.92 
  "/>
<path clip-path="url(#clip990)" d="M381.994 1354.2 Q376.577 1354.2 373.834 1359.55 Q371.126 1364.86 371.126 1375.55 Q371.126 1386.21 373.834 1391.56 Q376.577 1396.87 381.994 1396.87 Q387.445 1396.87 390.154 1391.56 Q392.897 1386.21 392.897 1375.55 Q392.897 1364.86 390.154 1359.55 Q387.445 1354.2 381.994 1354.2 M381.994 1348.64 Q390.709 1348.64 395.293 1355.55 Q399.911 1362.43 399.911 1375.55 Q399.911 1388.64 395.293 1395.55 Q390.709 1402.43 381.994 1402.43 Q373.279 1402.43 368.661 1395.55 Q364.078 1388.64 364.078 1375.55 Q364.078 1362.43 368.661 1355.55 Q373.279 1348.64 381.994 1348.64 Z" fill="#000000" fill-rule="evenodd" fill-opacity="1" /><path clip-path="url(#clip990)" d="M699.069 1395.52 L710.528 1395.52 L710.528 1355.97 L698.062 1358.47 L698.062 1352.08 L710.458 1349.58 L717.472 1349.58 L717.472 1395.52 L728.93 1395.52 L728.93 1401.42 L699.069 1401.42 L699.069 1395.52 Z" fill="#000000" fill-rule="evenodd" fill-opacity="1" /><path clip-path="url(#clip990)" d="M758.097 1354.2 Q752.68 1354.2 749.937 1359.55 Q747.229 1364.86 747.229 1375.55 Q747.229 1386.21 749.937 1391.56 Q752.68 1396.87 758.097 1396.87 Q763.548 1396.87 766.256 1391.56 Q768.999 1386.21 768.999 1375.55 Q768.999 1364.86 766.256 1359.55 Q763.548 1354.2 758.097 1354.2 M758.097 1348.64 Q766.812 1348.64 771.395 1355.55 Q776.013 1362.43 776.013 1375.55 Q776.013 1388.64 771.395 1395.55 Q766.812 1402.43 758.097 1402.43 Q749.381 1402.43 744.763 1395.55 Q740.18 1388.64 740.18 1375.55 Q740.18 1362.43 744.763 1355.55 Q749.381 1348.64 758.097 1348.64 Z" fill="#000000" fill-rule="evenodd" fill-opacity="1" /><path clip-path="url(#clip990)" d="M803.34 1354.2 Q797.923 1354.2 795.18 1359.55 Q792.472 1364.86 792.472 1375.55 Q792.472 1386.21 795.18 1391.56 Q797.923 1396.87 803.34 1396.87 Q808.791 1396.87 811.499 1391.56 Q814.242 1386.21 814.242 1375.55 Q814.242 1364.86 811.499 1359.55 Q808.791 1354.2 803.34 1354.2 M803.34 1348.64 Q812.055 1348.64 816.638 1355.55 Q821.256 1362.43 821.256 1375.55 Q821.256 1388.64 816.638 1395.55 Q812.055 1402.43 803.34 1402.43 Q794.624 1402.43 790.006 1395.55 Q785.423 1388.64 785.423 1375.55 Q785.423 1362.43 790.006 1355.55 Q794.624 1348.64 803.34 1348.64 Z" fill="#000000" fill-rule="evenodd" fill-opacity="1" /><path clip-path="url(#clip990)" d="M1082.86 1395.52 L1107.34 1395.52 L1107.34 1401.42 L1074.43 1401.42 L1074.43 1395.52 Q1078.42 1391.39 1085.29 1384.44 Q1092.2 1377.46 1093.97 1375.45 Q1097.34 1371.66 1098.66 1369.06 Q1100.02 1366.42 1100.02 1363.89 Q1100.02 1359.75 1097.1 1357.15 Q1094.22 1354.55 1089.56 1354.55 Q1086.27 1354.55 1082.59 1355.69 Q1078.94 1356.84 1074.77 1359.16 L1074.77 1352.08 Q1079.01 1350.38 1082.69 1349.51 Q1086.37 1348.64 1089.43 1348.64 Q1097.48 1348.64 1102.27 1352.67 Q1107.06 1356.7 1107.06 1363.43 Q1107.06 1366.63 1105.85 1369.51 Q1104.67 1372.36 1101.51 1376.25 Q1100.64 1377.25 1095.99 1382.08 Q1091.33 1386.87 1082.86 1395.52 Z" fill="#000000" fill-rule="evenodd" fill-opacity="1" /><path clip-path="url(#clip990)" d="M1137.06 1354.2 Q1131.65 1354.2 1128.9 1359.55 Q1126.2 1364.86 1126.2 1375.55 Q1126.2 1386.21 1128.9 1391.56 Q1131.65 1396.87 1137.06 1396.87 Q1142.52 1396.87 1145.22 1391.56 Q1147.97 1386.21 1147.97 1375.55 Q1147.97 1364.86 1145.22 1359.55 Q1142.52 1354.2 1137.06 1354.2 M1137.06 1348.64 Q1145.78 1348.64 1150.36 1355.55 Q1154.98 1362.43 1154.98 1375.55 Q1154.98 1388.64 1150.36 1395.55 Q1145.78 1402.43 1137.06 1402.43 Q1128.35 1402.43 1123.73 1395.55 Q1119.15 1388.64 1119.15 1375.55 Q1119.15 1362.43 1123.73 1355.55 Q1128.35 1348.64 1137.06 1348.64 Z" fill="#000000" fill-rule="evenodd" fill-opacity="1" /><path clip-path="url(#clip990)" d="M1182.31 1354.2 Q1176.89 1354.2 1174.15 1359.55 Q1171.44 1364.86 1171.44 1375.55 Q1171.44 1386.21 1174.15 1391.56 Q1176.89 1396.87 1182.31 1396.87 Q1187.76 1396.87 1190.47 1391.56 Q1193.21 1386.21 1193.21 1375.55 Q1193.21 1364.86 1190.47 1359.55 Q1187.76 1354.2 1182.31 1354.2 M1182.31 1348.64 Q1191.02 1348.64 1195.61 1355.55 Q1200.22 1362.43 1200.22 1375.55 Q1200.22 1388.64 1195.61 1395.55 Q1191.02 1402.43 1182.31 1402.43 Q1173.59 1402.43 1168.97 1395.55 Q1164.39 1388.64 1164.39 1375.55 Q1164.39 1362.43 1168.97 1355.55 Q1173.59 1348.64 1182.31 1348.64 Z" fill="#000000" fill-rule="evenodd" fill-opacity="1" /><path clip-path="url(#clip990)" d="M1475.63 1373.47 Q1480.67 1374.54 1483.48 1377.95 Q1486.33 1381.35 1486.33 1386.35 Q1486.33 1394.02 1481.05 1398.23 Q1475.77 1402.43 1466.05 1402.43 Q1462.78 1402.43 1459.31 1401.77 Q1455.88 1401.14 1452.19 1399.86 L1452.19 1393.09 Q1455.11 1394.79 1458.58 1395.66 Q1462.06 1396.52 1465.84 1396.52 Q1472.44 1396.52 1475.88 1393.92 Q1479.35 1391.32 1479.35 1386.35 Q1479.35 1381.77 1476.12 1379.2 Q1472.92 1376.59 1467.19 1376.59 L1461.15 1376.59 L1461.15 1370.83 L1467.47 1370.83 Q1472.65 1370.83 1475.39 1368.78 Q1478.13 1366.7 1478.13 1362.81 Q1478.13 1358.82 1475.28 1356.7 Q1472.47 1354.55 1467.19 1354.55 Q1464.31 1354.55 1461.01 1355.17 Q1457.72 1355.8 1453.76 1357.11 L1453.76 1350.86 Q1457.75 1349.75 1461.22 1349.2 Q1464.73 1348.64 1467.82 1348.64 Q1475.81 1348.64 1480.46 1352.29 Q1485.11 1355.9 1485.11 1362.08 Q1485.11 1366.39 1482.65 1369.37 Q1480.18 1372.32 1475.63 1373.47 Z" fill="#000000" fill-rule="evenodd" fill-opacity="1" /><path clip-path="url(#clip990)" d="M1514.62 1354.2 Q1509.21 1354.2 1506.47 1359.55 Q1503.76 1364.86 1503.76 1375.55 Q1503.76 1386.21 1506.47 1391.56 Q1509.21 1396.87 1514.62 1396.87 Q1520.08 1396.87 1522.78 1391.56 Q1525.53 1386.21 1525.53 1375.55 Q1525.53 1364.86 1522.78 1359.55 Q1520.08 1354.2 1514.62 1354.2 M1514.62 1348.64 Q1523.34 1348.64 1527.92 1355.55 Q1532.54 1362.43 1532.54 1375.55 Q1532.54 1388.64 1527.92 1395.55 Q1523.34 1402.43 1514.62 1402.43 Q1505.91 1402.43 1501.29 1395.55 Q1496.71 1388.64 1496.71 1375.55 Q1496.71 1362.43 1501.29 1355.55 Q1505.91 1348.64 1514.62 1348.64 Z" fill="#000000" fill-rule="evenodd" fill-opacity="1" /><path clip-path="url(#clip990)" d="M1559.87 1354.2 Q1554.45 1354.2 1551.71 1359.55 Q1549 1364.86 1549 1375.55 Q1549 1386.21 1551.71 1391.56 Q1554.45 1396.87 1559.87 1396.87 Q1565.32 1396.87 1568.03 1391.56 Q1570.77 1386.21 1570.77 1375.55 Q1570.77 1364.86 1568.03 1359.55 Q1565.32 1354.2 1559.87 1354.2 M1559.87 1348.64 Q1568.58 1348.64 1573.17 1355.55 Q1577.78 1362.43 1577.78 1375.55 Q1577.78 1388.64 1573.17 1395.55 Q1568.58 1402.43 1559.87 1402.43 Q1551.15 1402.43 1546.53 1395.55 Q1541.95 1388.64 1541.95 1375.55 Q1541.95 1362.43 1546.53 1355.55 Q1551.15 1348.64 1559.87 1348.64 Z" fill="#000000" fill-rule="evenodd" fill-opacity="1" /><path clip-path="url(#clip990)" d="M789.376 1439.4 L833.079 1439.4 L833.079 1447.27 L798.728 1447.27 L798.728 1467.74 L831.644 1467.74 L831.644 1475.61 L798.728 1475.61 L798.728 1500.65 L833.913 1500.65 L833.913 1508.52 L789.376 1508.52 L789.376 1439.4 Z" fill="#000000" fill-rule="evenodd" fill-opacity="1" /><path clip-path="url(#clip990)" d="M857.153 1500.75 L857.153 1528.25 L848.588 1528.25 L848.588 1456.67 L857.153 1456.67 L857.153 1464.54 Q859.838 1459.91 863.912 1457.69 Q868.033 1455.42 873.727 1455.42 Q883.172 1455.42 889.051 1462.92 Q894.977 1470.42 894.977 1482.64 Q894.977 1494.87 889.051 1502.37 Q883.172 1509.87 873.727 1509.87 Q868.033 1509.87 863.912 1507.64 Q859.838 1505.38 857.153 1500.75 M886.134 1482.64 Q886.134 1473.25 882.246 1467.92 Q878.403 1462.55 871.644 1462.55 Q864.885 1462.55 860.996 1467.92 Q857.153 1473.25 857.153 1482.64 Q857.153 1492.04 860.996 1497.41 Q864.885 1502.74 871.644 1502.74 Q878.403 1502.74 882.246 1497.41 Q886.134 1492.04 886.134 1482.64 Z" fill="#000000" fill-rule="evenodd" fill-opacity="1" /><path clip-path="url(#clip990)" d="M929.19 1462.64 Q922.338 1462.64 918.357 1468.01 Q914.375 1473.34 914.375 1482.64 Q914.375 1491.95 918.31 1497.32 Q922.292 1502.64 929.19 1502.64 Q935.995 1502.64 939.977 1497.27 Q943.958 1491.9 943.958 1482.64 Q943.958 1473.43 939.977 1468.06 Q935.995 1462.64 929.19 1462.64 M929.19 1455.42 Q940.301 1455.42 946.643 1462.64 Q952.986 1469.87 952.986 1482.64 Q952.986 1495.38 946.643 1502.64 Q940.301 1509.87 929.19 1509.87 Q918.032 1509.87 911.69 1502.64 Q905.394 1495.38 905.394 1482.64 Q905.394 1469.87 911.69 1462.64 Q918.032 1455.42 929.19 1455.42 Z" fill="#000000" fill-rule="evenodd" fill-opacity="1" /><path clip-path="url(#clip990)" d="M1004.42 1458.66 L1004.42 1466.63 Q1000.81 1464.64 997.152 1463.66 Q993.541 1462.64 989.838 1462.64 Q981.551 1462.64 976.967 1467.92 Q972.384 1473.15 972.384 1482.64 Q972.384 1492.14 976.967 1497.41 Q981.551 1502.64 989.838 1502.64 Q993.541 1502.64 997.152 1501.67 Q1000.81 1500.65 1004.42 1498.66 L1004.42 1506.53 Q1000.86 1508.2 997.014 1509.03 Q993.217 1509.87 988.912 1509.87 Q977.199 1509.87 970.301 1502.51 Q963.403 1495.14 963.403 1482.64 Q963.403 1469.96 970.347 1462.69 Q977.338 1455.42 989.467 1455.42 Q993.402 1455.42 997.152 1456.26 Q1000.9 1457.04 1004.42 1458.66 Z" fill="#000000" fill-rule="evenodd" fill-opacity="1" /><path clip-path="url(#clip990)" d="M1062.34 1477.23 L1062.34 1508.52 L1053.82 1508.52 L1053.82 1477.51 Q1053.82 1470.14 1050.95 1466.49 Q1048.08 1462.83 1042.34 1462.83 Q1035.44 1462.83 1031.46 1467.23 Q1027.48 1471.63 1027.48 1479.22 L1027.48 1508.52 L1018.91 1508.52 L1018.91 1436.49 L1027.48 1436.49 L1027.48 1464.73 Q1030.53 1460.05 1034.65 1457.74 Q1038.82 1455.42 1044.24 1455.42 Q1053.17 1455.42 1057.75 1460.98 Q1062.34 1466.49 1062.34 1477.23 Z" fill="#000000" fill-rule="evenodd" fill-opacity="1" /><path clip-path="url(#clip990)" d="M1112.38 1458.2 L1112.38 1466.26 Q1108.77 1464.4 1104.88 1463.48 Q1100.99 1462.55 1096.83 1462.55 Q1090.49 1462.55 1087.29 1464.5 Q1084.14 1466.44 1084.14 1470.33 Q1084.14 1473.29 1086.41 1475.01 Q1088.68 1476.67 1095.53 1478.2 L1098.45 1478.85 Q1107.52 1480.79 1111.32 1484.36 Q1115.16 1487.88 1115.16 1494.22 Q1115.16 1501.44 1109.42 1505.65 Q1103.73 1509.87 1093.73 1509.87 Q1089.56 1509.87 1085.02 1509.03 Q1080.53 1508.25 1075.53 1506.63 L1075.53 1497.83 Q1080.25 1500.28 1084.84 1501.53 Q1089.42 1502.74 1093.91 1502.74 Q1099.93 1502.74 1103.17 1500.7 Q1106.41 1498.62 1106.41 1494.87 Q1106.41 1491.39 1104.05 1489.54 Q1101.74 1487.69 1093.82 1485.98 L1090.86 1485.28 Q1082.94 1483.62 1079.42 1480.19 Q1075.9 1476.72 1075.9 1470.7 Q1075.9 1463.39 1081.09 1459.4 Q1086.27 1455.42 1095.81 1455.42 Q1100.53 1455.42 1104.7 1456.12 Q1108.86 1456.81 1112.38 1458.2 Z" fill="#000000" fill-rule="evenodd" fill-opacity="1" /><polyline clip-path="url(#clip993)" style="stroke:#000000; stroke-linecap:butt; stroke-linejoin:round; stroke-width:2; stroke-opacity:0.1; fill:none" points="
  351.781,1168.21 1552.76,1168.21 
  "/>
<polyline clip-path="url(#clip993)" style="stroke:#000000; stroke-linecap:butt; stroke-linejoin:round; stroke-width:2; stroke-opacity:0.1; fill:none" points="
  351.781,1001.6 1552.76,1001.6 
  "/>
<polyline clip-path="url(#clip990)" style="stroke:#000000; stroke-linecap:butt; stroke-linejoin:round; stroke-width:4; stroke-opacity:1; fill:none" points="
  351.781,1323.82 351.781,847.244 
  "/>
<polyline clip-path="url(#clip990)" style="stroke:#000000; stroke-linecap:butt; stroke-linejoin:round; stroke-width:4; stroke-opacity:1; fill:none" points="
  1552.76,1323.82 1552.76,847.244 
  "/>
<polyline clip-path="url(#clip990)" style="stroke:#000000; stroke-linecap:butt; stroke-linejoin:round; stroke-width:4; stroke-opacity:1; fill:none" points="
  351.781,1168.21 370.679,1168.21 
  "/>
<polyline clip-path="url(#clip990)" style="stroke:#000000; stroke-linecap:butt; stroke-linejoin:round; stroke-width:4; stroke-opacity:1; fill:none" points="
  351.781,1001.6 370.679,1001.6 
  "/>
<path clip-path="url(#clip990)" d="M175.427 1197.9 L186.885 1197.9 L186.885 1158.35 L174.42 1160.85 L174.42 1154.46 L186.816 1151.96 L193.83 1151.96 L193.83 1197.9 L205.288 1197.9 L205.288 1203.8 L175.427 1203.8 L175.427 1197.9 Z" fill="#000000" fill-rule="evenodd" fill-opacity="1" /><path clip-path="url(#clip990)" d="M234.455 1156.58 Q229.038 1156.58 226.295 1161.93 Q223.587 1167.24 223.587 1177.94 Q223.587 1188.6 226.295 1193.94 Q229.038 1199.26 234.455 1199.26 Q239.906 1199.26 242.614 1193.94 Q245.357 1188.6 245.357 1177.94 Q245.357 1167.24 242.614 1161.93 Q239.906 1156.58 234.455 1156.58 M234.455 1151.03 Q243.17 1151.03 247.753 1157.94 Q252.371 1164.81 252.371 1177.94 Q252.371 1191.03 247.753 1197.94 Q243.17 1204.81 234.455 1204.81 Q225.739 1204.81 221.121 1197.94 Q216.538 1191.03 216.538 1177.94 Q216.538 1164.81 221.121 1157.94 Q225.739 1151.03 234.455 1151.03 Z" fill="#000000" fill-rule="evenodd" fill-opacity="1" /><path clip-path="url(#clip990)" d="M252.371 1142.18 L288.538 1142.18 L288.538 1146.97 L252.371 1146.97 L252.371 1142.18 Z" fill="#000000" fill-rule="evenodd" fill-opacity="1" /><path clip-path="url(#clip990)" d="M313.731 1139.36 Q309.895 1139.36 307.638 1141.98 Q305.409 1144.6 305.409 1149.18 Q305.409 1153.72 307.638 1156.37 Q309.895 1158.99 313.731 1158.99 Q317.568 1158.99 319.797 1156.37 Q322.054 1153.72 322.054 1149.18 Q322.054 1144.6 319.797 1141.98 Q317.568 1139.36 313.731 1139.36 M325.044 1121.5 L325.044 1126.69 Q322.9 1125.67 320.7 1125.14 Q318.527 1124.6 316.383 1124.6 Q310.741 1124.6 307.751 1128.41 Q304.788 1132.22 304.365 1139.92 Q306.03 1137.47 308.541 1136.17 Q311.051 1134.84 314.07 1134.84 Q320.418 1134.84 324.085 1138.71 Q327.781 1142.55 327.781 1149.18 Q327.781 1155.66 323.944 1159.59 Q320.107 1163.51 313.731 1163.51 Q306.425 1163.51 302.56 1157.92 Q298.695 1152.31 298.695 1141.67 Q298.695 1131.68 303.434 1125.76 Q308.174 1119.81 316.158 1119.81 Q318.302 1119.81 320.474 1120.23 Q322.675 1120.65 325.044 1121.5 Z" fill="#000000" fill-rule="evenodd" fill-opacity="1" /><path clip-path="url(#clip990)" d="M176.415 1031.29 L187.873 1031.29 L187.873 991.737 L175.408 994.237 L175.408 987.849 L187.803 985.349 L194.817 985.349 L194.817 1031.29 L206.275 1031.29 L206.275 1037.19 L176.415 1037.19 L176.415 1031.29 Z" fill="#000000" fill-rule="evenodd" fill-opacity="1" /><path clip-path="url(#clip990)" d="M235.442 989.967 Q230.025 989.967 227.282 995.314 Q224.574 1000.63 224.574 1011.32 Q224.574 1021.98 227.282 1027.33 Q230.025 1032.64 235.442 1032.64 Q240.893 1032.64 243.602 1027.33 Q246.345 1021.98 246.345 1011.32 Q246.345 1000.63 243.602 995.314 Q240.893 989.967 235.442 989.967 M235.442 984.411 Q244.157 984.411 248.741 991.321 Q253.359 998.196 253.359 1011.32 Q253.359 1024.41 248.741 1031.32 Q244.157 1038.2 235.442 1038.2 Q226.727 1038.2 222.109 1031.32 Q217.525 1024.41 217.525 1011.32 Q217.525 998.196 222.109 991.321 Q226.727 984.411 235.442 984.411 Z" fill="#000000" fill-rule="evenodd" fill-opacity="1" /><path clip-path="url(#clip990)" d="M253.359 975.563 L289.526 975.563 L289.526 980.359 L253.359 980.359 L253.359 975.563 Z" fill="#000000" fill-rule="evenodd" fill-opacity="1" /><path clip-path="url(#clip990)" d="M319.092 973.363 Q323.182 974.237 325.468 977.002 Q327.781 979.767 327.781 983.829 Q327.781 990.064 323.493 993.478 Q319.205 996.891 311.305 996.891 Q308.653 996.891 305.832 996.355 Q303.039 995.847 300.049 994.803 L300.049 989.302 Q302.419 990.685 305.24 991.39 Q308.061 992.095 311.136 992.095 Q316.496 992.095 319.289 989.979 Q322.11 987.863 322.11 983.829 Q322.11 980.105 319.487 978.018 Q316.891 975.902 312.236 975.902 L307.327 975.902 L307.327 971.219 L312.462 971.219 Q316.665 971.219 318.894 969.554 Q321.123 967.861 321.123 964.702 Q321.123 961.457 318.81 959.736 Q316.524 957.987 312.236 957.987 Q309.895 957.987 307.215 958.495 Q304.534 959.003 301.318 960.075 L301.318 954.997 Q304.563 954.094 307.384 953.643 Q310.233 953.191 312.744 953.191 Q319.233 953.191 323.013 956.154 Q326.793 959.088 326.793 964.109 Q326.793 967.607 324.79 970.034 Q322.787 972.432 319.092 973.363 Z" fill="#000000" fill-rule="evenodd" fill-opacity="1" /><path clip-path="url(#clip990)" d="M121.906 1207.08 L149.406 1207.08 L149.406 1215.65 L77.8326 1215.65 L77.8326 1207.08 L85.7029 1207.08 Q81.0733 1204.4 78.8511 1200.32 Q76.5826 1196.2 76.5826 1190.51 Q76.5826 1181.06 84.0825 1175.18 Q91.5825 1169.26 103.805 1169.26 Q116.027 1169.26 123.527 1175.18 Q131.027 1181.06 131.027 1190.51 Q131.027 1196.2 128.805 1200.32 Q126.536 1204.4 121.906 1207.08 M103.805 1178.1 Q94.4066 1178.1 89.0825 1181.99 Q83.7122 1185.83 83.7122 1192.59 Q83.7122 1199.35 89.0825 1203.24 Q94.4066 1207.08 103.805 1207.08 Q113.203 1207.08 118.573 1203.24 Q123.897 1199.35 123.897 1192.59 Q123.897 1185.83 118.573 1181.99 Q113.203 1178.1 103.805 1178.1 Z" fill="#000000" fill-rule="evenodd" fill-opacity="1" /><path clip-path="url(#clip990)" d="M57.6475 1125 L57.6475 1116.48 L129.684 1116.48 L129.684 1125 L57.6475 1125 Z" fill="#000000" fill-rule="evenodd" fill-opacity="1" /><path clip-path="url(#clip990)" d="M83.8048 1078.56 Q83.8048 1085.42 89.1751 1089.4 Q94.4992 1093.38 103.805 1093.38 Q113.11 1093.38 118.481 1089.44 Q123.805 1085.46 123.805 1078.56 Q123.805 1071.76 118.434 1067.78 Q113.064 1063.8 103.805 1063.8 Q94.5918 1063.8 89.2214 1067.78 Q83.8048 1071.76 83.8048 1078.56 M76.5826 1078.56 Q76.5826 1067.45 83.8048 1061.11 Q91.027 1054.77 103.805 1054.77 Q116.536 1054.77 123.805 1061.11 Q131.027 1067.45 131.027 1078.56 Q131.027 1089.72 123.805 1096.06 Q116.536 1102.36 103.805 1102.36 Q91.027 1102.36 83.8048 1096.06 Q76.5826 1089.72 76.5826 1078.56 Z" fill="#000000" fill-rule="evenodd" fill-opacity="1" /><path clip-path="url(#clip990)" d="M79.3604 1007.59 L87.4159 1007.59 Q85.564 1011.2 84.6381 1015.09 Q83.7122 1018.98 83.7122 1023.15 Q83.7122 1029.49 85.6566 1032.69 Q87.601 1035.83 91.4899 1035.83 Q94.4529 1035.83 96.1658 1033.56 Q97.8325 1031.3 99.3602 1024.44 L100.008 1021.53 Q101.953 1012.45 105.518 1008.66 Q109.036 1004.81 115.379 1004.81 Q122.601 1004.81 126.814 1010.56 Q131.027 1016.25 131.027 1026.25 Q131.027 1030.42 130.193 1034.95 Q129.406 1039.44 127.786 1044.44 L118.99 1044.44 Q121.443 1039.72 122.693 1035.14 Q123.897 1030.56 123.897 1026.06 Q123.897 1020.05 121.86 1016.81 Q119.777 1013.56 116.027 1013.56 Q112.555 1013.56 110.703 1015.93 Q108.851 1018.24 107.138 1026.16 L106.444 1029.12 Q104.777 1037.04 101.351 1040.56 Q97.8788 1044.07 91.8603 1044.07 Q84.5455 1044.07 80.5641 1038.89 Q76.5826 1033.7 76.5826 1024.17 Q76.5826 1019.44 77.277 1015.28 Q77.9715 1011.11 79.3604 1007.59 Z" fill="#000000" fill-rule="evenodd" fill-opacity="1" /><path clip-path="url(#clip990)" d="M79.3604 958.195 L87.4159 958.195 Q85.564 961.806 84.6381 965.695 Q83.7122 969.584 83.7122 973.75 Q83.7122 980.093 85.6566 983.287 Q87.601 986.435 91.4899 986.435 Q94.4529 986.435 96.1658 984.167 Q97.8325 981.898 99.3602 975.046 L100.008 972.13 Q101.953 963.056 105.518 959.259 Q109.036 955.417 115.379 955.417 Q122.601 955.417 126.814 961.158 Q131.027 966.852 131.027 976.852 Q131.027 981.019 130.193 985.556 Q129.406 990.046 127.786 995.046 L118.99 995.046 Q121.443 990.324 122.693 985.741 Q123.897 981.158 123.897 976.667 Q123.897 970.648 121.86 967.408 Q119.777 964.167 116.027 964.167 Q112.555 964.167 110.703 966.528 Q108.851 968.843 107.138 976.759 L106.444 979.722 Q104.777 987.639 101.351 991.157 Q97.8788 994.676 91.8603 994.676 Q84.5455 994.676 80.5641 989.491 Q76.5826 984.306 76.5826 974.769 Q76.5826 970.046 77.277 965.88 Q77.9715 961.713 79.3604 958.195 Z" fill="#000000" fill-rule="evenodd" fill-opacity="1" /><polyline clip-path="url(#clip993)" style="stroke:#000000; stroke-linecap:butt; stroke-linejoin:round; stroke-width:4; stroke-opacity:1; fill:none" points="
  385.771,860.732 389.547,870.539 393.324,877.737 397.101,882.346 400.877,884.309 404.654,884.138 408.431,882.579 412.207,879.904 415.984,876.233 419.761,872.01 
  423.537,868.162 427.314,865.867 431.091,865.794 434.867,867.821 438.644,871.648 442.421,877.143 446.197,884.374 449.974,893.619 453.75,905.452 457.527,920.976 
  461.304,942.286 465.08,970.755 468.857,975.816 472.634,950.792 476.41,931.983 480.187,919.193 483.964,910.114 487.74,903.474 491.517,898.562 495.294,894.948 
  499.07,892.356 502.847,890.597 506.624,889.538 510.4,889.083 514.177,889.158 517.954,889.704 521.73,890.673 525.507,892.024 529.283,893.719 533.06,895.721 
  536.837,897.988 540.613,900.476 544.39,903.136 548.167,905.907 551.943,908.726 555.72,911.523 559.497,914.227 563.273,916.776 567.05,919.12 570.827,921.23 
  574.603,923.098 578.38,924.737 582.157,926.171 585.933,927.43 589.71,928.541 593.487,929.523 597.263,930.386 601.04,931.132 604.816,931.761 608.593,932.271 
  612.37,932.666 616.146,932.957 619.923,933.165 623.7,933.319 627.476,933.453 631.253,933.605 635.03,933.812 638.806,934.11 642.583,934.53 646.36,935.101 
  650.136,935.845 653.913,936.782 657.69,937.925 661.466,939.284 665.243,940.868 669.02,942.679 672.796,944.719 676.573,946.984 680.35,949.47 684.126,952.165 
  687.903,955.053 691.679,958.115 695.456,961.323 699.233,964.654 703.009,968.074 706.786,971.548 710.563,975.037 714.339,978.507 718.116,981.925 721.893,985.263 
  725.669,988.502 729.446,991.632 733.223,994.644 736.999,997.525 740.776,1000.27 744.553,1002.89 748.329,1005.36 752.106,1007.71 755.883,1009.92 759.659,1012.05 
  763.436,1014.12 767.212,1016.2 770.989,1018.35 774.766,1020.66 778.542,1023.17 782.319,1025.98 786.096,1029.15 789.872,1032.75 793.649,1036.84 797.426,1041.49 
  801.202,1046.75 804.979,1052.68 808.756,1059.34 812.532,1066.78 816.309,1075.07 820.086,1084.22 823.862,1094.25 827.639,1105.02 831.416,1116.22 835.192,1127.16 
  838.969,1136.71 842.746,1143.82 846.522,1148.27 850.299,1150.94 854.075,1152.96 857.852,1155.05 861.629,1157.42 865.405,1159.83 869.182,1161.78 872.959,1162.71 
  876.735,1162.28 880.512,1160.64 884.289,1158.22 888.065,1155.52 891.842,1152.88 895.619,1150.49 899.395,1148.36 903.172,1146.45 906.949,1144.65 910.725,1142.87 
  914.502,1141.06 918.279,1139.19 922.055,1137.32 925.832,1135.53 929.608,1133.93 933.385,1132.63 937.162,1131.69 940.938,1131.21 944.715,1131.22 948.492,1131.76 
  952.268,1132.85 956.045,1134.47 959.822,1136.62 963.598,1139.28 967.375,1142.4 971.152,1145.93 974.928,1149.81 978.705,1153.96 982.482,1158.29 986.258,1162.73 
  990.035,1167.19 993.812,1171.61 997.588,1175.93 1001.36,1180.12 1005.14,1184.16 1008.92,1188.05 1012.69,1191.75 1016.47,1195.26 1020.25,1198.54 1024.02,1201.58 
  1027.8,1204.4 1031.58,1207.05 1035.35,1209.62 1039.13,1212.25 1042.91,1215.1 1046.68,1218.34 1050.46,1222.15 1054.24,1226.71 1058.01,1232.23 1061.79,1238.94 
  1065.57,1247.12 1069.34,1257.15 1073.12,1269.48 1076.9,1284.45 1080.67,1300.73 1084.45,1310.33 1088.23,1304.85 1092,1293.44 1095.78,1283.53 1099.56,1276.19 
  1103.33,1271.01 1107.11,1267.51 1110.89,1265.25 1114.66,1263.89 1118.44,1263.16 1122.22,1262.8 1125.99,1262.66 1129.77,1262.59 1133.55,1262.56 1137.32,1262.53 
  1141.1,1262.55 1144.88,1262.62 1148.65,1262.78 1152.43,1263.05 1156.21,1263.42 1159.98,1263.87 1163.76,1264.39 1167.54,1264.95 1171.31,1265.56 1175.09,1266.21 
  1178.87,1266.92 1182.64,1267.71 1186.42,1268.61 1190.2,1269.65 1193.97,1270.83 1197.75,1272.16 1201.53,1273.63 1205.3,1275.22 1209.08,1276.87 1212.86,1278.55 
  1216.63,1280.21 1220.41,1281.78 1224.19,1283.24 1227.96,1284.58 1231.74,1285.78 1235.52,1286.88 1239.29,1287.91 1243.07,1288.9 1246.85,1289.88 1250.62,1290.87 
  1254.4,1291.9 1258.18,1292.94 1261.95,1294 1265.73,1295.05 1269.51,1296.07 1273.28,1297.03 1277.06,1297.92 1280.84,1298.72 1284.61,1299.4 1288.39,1299.97 
  1292.17,1300.42 1295.94,1300.74 1299.72,1300.95 1303.5,1301.05 1307.27,1301.06 1311.05,1301.01 1314.83,1300.91 1318.6,1300.79 1322.38,1300.67 1326.16,1300.57 
  1329.93,1300.5 1333.71,1300.47 1337.49,1300.47 1341.26,1300.51 1345.04,1300.58 1348.82,1300.66 1352.59,1300.76 1356.37,1300.85 1360.15,1300.94 1363.92,1301 
  1367.7,1301.03 1371.48,1301.04 1375.25,1301.01 1379.03,1300.94 1382.81,1300.85 1386.58,1300.72 1390.36,1300.58 1394.14,1300.42 1397.91,1300.24 1401.69,1300.07 
  1405.47,1299.89 1409.24,1299.73 1413.02,1299.58 1416.8,1299.44 1420.57,1299.33 1424.35,1299.23 1428.13,1299.15 1431.9,1299.09 1435.68,1299.04 1439.46,1299 
  1443.23,1298.97 1447.01,1298.95 1450.79,1298.92 1454.56,1298.89 1458.34,1298.86 1462.12,1298.83 1465.89,1298.79 1469.67,1298.75 1473.45,1298.71 1477.22,1298.66 
  1481,1298.62 1484.78,1298.58 1488.55,1298.54 1492.33,1298.5 1496.11,1298.47 1499.88,1298.45 1503.66,1298.42 1507.44,1298.41 1511.21,1298.4 1514.99,1298.4 
  1518.77,1298.4 
  "/>
</svg>
