<?xml version="1.0" encoding="utf-8" standalone="no"?>
<!DOCTYPE svg PUBLIC "-//W3C//DTD SVG 1.1//EN"
  "http://www.w3.org/Graphics/SVG/1.1/DTD/svg11.dtd">
<svg xmlns:xlink="http://www.w3.org/1999/xlink" width="288pt" height="288pt" viewBox="0 0 288 288" xmlns="http://www.w3.org/2000/svg" version="1.1">
 <metadata>
  <rdf:RDF xmlns:dc="http://purl.org/dc/elements/1.1/" xmlns:cc="http://creativecommons.org/ns#" xmlns:rdf="http://www.w3.org/1999/02/22-rdf-syntax-ns#">
   <cc:Work>
    <dc:type rdf:resource="http://purl.org/dc/dcmitype/StillImage"/>
    <dc:date>2021-11-24T20:08:04.461359</dc:date>
    <dc:format>image/svg+xml</dc:format>
    <dc:creator>
     <cc:Agent>
      <dc:title>Matplotlib v3.5.0, https://matplotlib.org/</dc:title>
     </cc:Agent>
    </dc:creator>
   </cc:Work>
  </rdf:RDF>
 </metadata>
 <defs>
  <style type="text/css">*{stroke-linejoin: round; stroke-linecap: butt}</style>
 </defs>
 <g id="figure_1">
  <g id="patch_1">
   <path d="M 0 288 
L 288 288 
L 288 0 
L 0 0 
z
" style="fill: #ffffff"/>
  </g>
  <g id="axes_1">
   <g id="patch_2">
    <path d="M 53.367689 106.305354 
L 282.483154 106.305354 
L 282.483154 2.834646 
L 53.367689 2.834646 
z
" style="fill: #ffffff"/>
   </g>
   <g id="matplotlib.axis_1">
    <g id="xtick_1">
     <g id="line2d_1">
      <path d="M 59.1316 106.305354 
L 59.1316 2.834646 
" clip-path="url(#p4f5b212dba)" style="fill: none; stroke: #000000; stroke-opacity: 0.1; stroke-width: 0.5; stroke-linecap: square"/>
     </g>
     <g id="line2d_2">
      <defs>
       <path id="m3ddd12949e" d="M 0 0 
L 0 -2.5 
" style="stroke: #000000; stroke-width: 0.5"/>
      </defs>
      <g>
       <use xlink:href="#m3ddd12949e" x="59.1316" y="106.305354" style="stroke: #000000; stroke-width: 0.5"/>
      </g>
     </g>
     <g id="line2d_3">
      <defs>
       <path id="m783fd5feac" d="M 0 0 
L 0 2.5 
" style="stroke: #000000; stroke-width: 0.5"/>
      </defs>
      <g>
       <use xlink:href="#m783fd5feac" x="59.1316" y="2.834646" style="stroke: #000000; stroke-width: 0.5"/>
      </g>
     </g>
     <g id="text_1">
      <!-- $0$ -->
      <g transform="translate(55.2916 118.923479)scale(0.12 -0.12)">
       <defs>
        <path id="DejaVuSans-30" d="M 2034 4250 
Q 1547 4250 1301 3770 
Q 1056 3291 1056 2328 
Q 1056 1369 1301 889 
Q 1547 409 2034 409 
Q 2525 409 2770 889 
Q 3016 1369 3016 2328 
Q 3016 3291 2770 3770 
Q 2525 4250 2034 4250 
z
M 2034 4750 
Q 2819 4750 3233 4129 
Q 3647 3509 3647 2328 
Q 3647 1150 3233 529 
Q 2819 -91 2034 -91 
Q 1250 -91 836 529 
Q 422 1150 422 2328 
Q 422 3509 836 4129 
Q 1250 4750 2034 4750 
z
" transform="scale(0.015625)"/>
       </defs>
       <use xlink:href="#DejaVuSans-30" transform="translate(0 0.78125)"/>
      </g>
     </g>
    </g>
    <g id="xtick_2">
     <g id="line2d_4">
      <path d="M 131.180488 106.305354 
L 131.180488 2.834646 
" clip-path="url(#p4f5b212dba)" style="fill: none; stroke: #000000; stroke-opacity: 0.1; stroke-width: 0.5; stroke-linecap: square"/>
     </g>
     <g id="line2d_5">
      <g>
       <use xlink:href="#m3ddd12949e" x="131.180488" y="106.305354" style="stroke: #000000; stroke-width: 0.5"/>
      </g>
     </g>
     <g id="line2d_6">
      <g>
       <use xlink:href="#m783fd5feac" x="131.180488" y="2.834646" style="stroke: #000000; stroke-width: 0.5"/>
      </g>
     </g>
     <g id="text_2">
      <!-- $100$ -->
      <g transform="translate(119.720488 118.923479)scale(0.12 -0.12)">
       <defs>
        <path id="DejaVuSans-31" d="M 794 531 
L 1825 531 
L 1825 4091 
L 703 3866 
L 703 4441 
L 1819 4666 
L 2450 4666 
L 2450 531 
L 3481 531 
L 3481 0 
L 794 0 
L 794 531 
z
" transform="scale(0.015625)"/>
       </defs>
       <use xlink:href="#DejaVuSans-31" transform="translate(0 0.78125)"/>
       <use xlink:href="#DejaVuSans-30" transform="translate(63.623047 0.78125)"/>
       <use xlink:href="#DejaVuSans-30" transform="translate(127.246094 0.78125)"/>
      </g>
     </g>
    </g>
    <g id="xtick_3">
     <g id="line2d_7">
      <path d="M 203.229377 106.305354 
L 203.229377 2.834646 
" clip-path="url(#p4f5b212dba)" style="fill: none; stroke: #000000; stroke-opacity: 0.1; stroke-width: 0.5; stroke-linecap: square"/>
     </g>
     <g id="line2d_8">
      <g>
       <use xlink:href="#m3ddd12949e" x="203.229377" y="106.305354" style="stroke: #000000; stroke-width: 0.5"/>
      </g>
     </g>
     <g id="line2d_9">
      <g>
       <use xlink:href="#m783fd5feac" x="203.229377" y="2.834646" style="stroke: #000000; stroke-width: 0.5"/>
      </g>
     </g>
     <g id="text_3">
      <!-- $200$ -->
      <g transform="translate(191.769377 118.923479)scale(0.12 -0.12)">
       <defs>
        <path id="DejaVuSans-32" d="M 1228 531 
L 3431 531 
L 3431 0 
L 469 0 
L 469 531 
Q 828 903 1448 1529 
Q 2069 2156 2228 2338 
Q 2531 2678 2651 2914 
Q 2772 3150 2772 3378 
Q 2772 3750 2511 3984 
Q 2250 4219 1831 4219 
Q 1534 4219 1204 4116 
Q 875 4013 500 3803 
L 500 4441 
Q 881 4594 1212 4672 
Q 1544 4750 1819 4750 
Q 2544 4750 2975 4387 
Q 3406 4025 3406 3419 
Q 3406 3131 3298 2873 
Q 3191 2616 2906 2266 
Q 2828 2175 2409 1742 
Q 1991 1309 1228 531 
z
" transform="scale(0.015625)"/>
       </defs>
       <use xlink:href="#DejaVuSans-32" transform="translate(0 0.78125)"/>
       <use xlink:href="#DejaVuSans-30" transform="translate(63.623047 0.78125)"/>
       <use xlink:href="#DejaVuSans-30" transform="translate(127.246094 0.78125)"/>
      </g>
     </g>
    </g>
    <g id="xtick_4">
     <g id="line2d_10">
      <path d="M 275.278266 106.305354 
L 275.278266 2.834646 
" clip-path="url(#p4f5b212dba)" style="fill: none; stroke: #000000; stroke-opacity: 0.1; stroke-width: 0.5; stroke-linecap: square"/>
     </g>
     <g id="line2d_11">
      <g>
       <use xlink:href="#m3ddd12949e" x="275.278266" y="106.305354" style="stroke: #000000; stroke-width: 0.5"/>
      </g>
     </g>
     <g id="line2d_12">
      <g>
       <use xlink:href="#m783fd5feac" x="275.278266" y="2.834646" style="stroke: #000000; stroke-width: 0.5"/>
      </g>
     </g>
     <g id="text_4">
      <!-- $300$ -->
      <g transform="translate(263.818266 118.923479)scale(0.12 -0.12)">
       <defs>
        <path id="DejaVuSans-33" d="M 2597 2516 
Q 3050 2419 3304 2112 
Q 3559 1806 3559 1356 
Q 3559 666 3084 287 
Q 2609 -91 1734 -91 
Q 1441 -91 1130 -33 
Q 819 25 488 141 
L 488 750 
Q 750 597 1062 519 
Q 1375 441 1716 441 
Q 2309 441 2620 675 
Q 2931 909 2931 1356 
Q 2931 1769 2642 2001 
Q 2353 2234 1838 2234 
L 1294 2234 
L 1294 2753 
L 1863 2753 
Q 2328 2753 2575 2939 
Q 2822 3125 2822 3475 
Q 2822 3834 2567 4026 
Q 2313 4219 1838 4219 
Q 1578 4219 1281 4162 
Q 984 4106 628 3988 
L 628 4550 
Q 988 4650 1302 4700 
Q 1616 4750 1894 4750 
Q 2613 4750 3031 4423 
Q 3450 4097 3450 3541 
Q 3450 3153 3228 2886 
Q 3006 2619 2597 2516 
z
" transform="scale(0.015625)"/>
       </defs>
       <use xlink:href="#DejaVuSans-33" transform="translate(0 0.78125)"/>
       <use xlink:href="#DejaVuSans-30" transform="translate(63.623047 0.78125)"/>
       <use xlink:href="#DejaVuSans-30" transform="translate(127.246094 0.78125)"/>
      </g>
     </g>
    </g>
    <g id="text_5">
     <!-- Epochs -->
     <g transform="translate(139.260422 137.576604)scale(0.16 -0.16)">
      <defs>
       <path id="DejaVuSans-45" d="M 628 4666 
L 3578 4666 
L 3578 4134 
L 1259 4134 
L 1259 2753 
L 3481 2753 
L 3481 2222 
L 1259 2222 
L 1259 531 
L 3634 531 
L 3634 0 
L 628 0 
L 628 4666 
z
" transform="scale(0.015625)"/>
       <path id="DejaVuSans-70" d="M 1159 525 
L 1159 -1331 
L 581 -1331 
L 581 3500 
L 1159 3500 
L 1159 2969 
Q 1341 3281 1617 3432 
Q 1894 3584 2278 3584 
Q 2916 3584 3314 3078 
Q 3713 2572 3713 1747 
Q 3713 922 3314 415 
Q 2916 -91 2278 -91 
Q 1894 -91 1617 61 
Q 1341 213 1159 525 
z
M 3116 1747 
Q 3116 2381 2855 2742 
Q 2594 3103 2138 3103 
Q 1681 3103 1420 2742 
Q 1159 2381 1159 1747 
Q 1159 1113 1420 752 
Q 1681 391 2138 391 
Q 2594 391 2855 752 
Q 3116 1113 3116 1747 
z
" transform="scale(0.015625)"/>
       <path id="DejaVuSans-6f" d="M 1959 3097 
Q 1497 3097 1228 2736 
Q 959 2375 959 1747 
Q 959 1119 1226 758 
Q 1494 397 1959 397 
Q 2419 397 2687 759 
Q 2956 1122 2956 1747 
Q 2956 2369 2687 2733 
Q 2419 3097 1959 3097 
z
M 1959 3584 
Q 2709 3584 3137 3096 
Q 3566 2609 3566 1747 
Q 3566 888 3137 398 
Q 2709 -91 1959 -91 
Q 1206 -91 779 398 
Q 353 888 353 1747 
Q 353 2609 779 3096 
Q 1206 3584 1959 3584 
z
" transform="scale(0.015625)"/>
       <path id="DejaVuSans-63" d="M 3122 3366 
L 3122 2828 
Q 2878 2963 2633 3030 
Q 2388 3097 2138 3097 
Q 1578 3097 1268 2742 
Q 959 2388 959 1747 
Q 959 1106 1268 751 
Q 1578 397 2138 397 
Q 2388 397 2633 464 
Q 2878 531 3122 666 
L 3122 134 
Q 2881 22 2623 -34 
Q 2366 -91 2075 -91 
Q 1284 -91 818 406 
Q 353 903 353 1747 
Q 353 2603 823 3093 
Q 1294 3584 2113 3584 
Q 2378 3584 2631 3529 
Q 2884 3475 3122 3366 
z
" transform="scale(0.015625)"/>
       <path id="DejaVuSans-68" d="M 3513 2113 
L 3513 0 
L 2938 0 
L 2938 2094 
Q 2938 2591 2744 2837 
Q 2550 3084 2163 3084 
Q 1697 3084 1428 2787 
Q 1159 2491 1159 1978 
L 1159 0 
L 581 0 
L 581 4863 
L 1159 4863 
L 1159 2956 
Q 1366 3272 1645 3428 
Q 1925 3584 2291 3584 
Q 2894 3584 3203 3211 
Q 3513 2838 3513 2113 
z
" transform="scale(0.015625)"/>
       <path id="DejaVuSans-73" d="M 2834 3397 
L 2834 2853 
Q 2591 2978 2328 3040 
Q 2066 3103 1784 3103 
Q 1356 3103 1142 2972 
Q 928 2841 928 2578 
Q 928 2378 1081 2264 
Q 1234 2150 1697 2047 
L 1894 2003 
Q 2506 1872 2764 1633 
Q 3022 1394 3022 966 
Q 3022 478 2636 193 
Q 2250 -91 1575 -91 
Q 1294 -91 989 -36 
Q 684 19 347 128 
L 347 722 
Q 666 556 975 473 
Q 1284 391 1588 391 
Q 1994 391 2212 530 
Q 2431 669 2431 922 
Q 2431 1156 2273 1281 
Q 2116 1406 1581 1522 
L 1381 1569 
Q 847 1681 609 1914 
Q 372 2147 372 2553 
Q 372 3047 722 3315 
Q 1072 3584 1716 3584 
Q 2034 3584 2315 3537 
Q 2597 3491 2834 3397 
z
" transform="scale(0.015625)"/>
      </defs>
      <use xlink:href="#DejaVuSans-45"/>
      <use xlink:href="#DejaVuSans-70" x="63.183594"/>
      <use xlink:href="#DejaVuSans-6f" x="126.660156"/>
      <use xlink:href="#DejaVuSans-63" x="187.841797"/>
      <use xlink:href="#DejaVuSans-68" x="242.822266"/>
      <use xlink:href="#DejaVuSans-73" x="306.201172"/>
     </g>
    </g>
   </g>
   <g id="matplotlib.axis_2">
    <g id="ytick_1">
     <g id="line2d_13">
      <path d="M 53.367689 80.256331 
L 282.483154 80.256331 
" clip-path="url(#p4f5b212dba)" style="fill: none; stroke: #000000; stroke-opacity: 0.1; stroke-width: 0.5; stroke-linecap: square"/>
     </g>
     <g id="line2d_14">
      <defs>
       <path id="m176d2ab535" d="M 0 0 
L 2.5 0 
" style="stroke: #000000; stroke-width: 0.5"/>
      </defs>
      <g>
       <use xlink:href="#m176d2ab535" x="53.367689" y="80.256331" style="stroke: #000000; stroke-width: 0.5"/>
      </g>
     </g>
     <g id="line2d_15">
      <defs>
       <path id="m2c07aeb4e1" d="M 0 0 
L -2.5 0 
" style="stroke: #000000; stroke-width: 0.5"/>
      </defs>
      <g>
       <use xlink:href="#m2c07aeb4e1" x="282.483154" y="80.256331" style="stroke: #000000; stroke-width: 0.5"/>
      </g>
     </g>
     <g id="text_6">
      <!-- $10^{-6}$ -->
      <g transform="translate(21.667689 84.815393)scale(0.12 -0.12)">
       <defs>
        <path id="DejaVuSans-2212" d="M 678 2272 
L 4684 2272 
L 4684 1741 
L 678 1741 
L 678 2272 
z
" transform="scale(0.015625)"/>
        <path id="DejaVuSans-36" d="M 2113 2584 
Q 1688 2584 1439 2293 
Q 1191 2003 1191 1497 
Q 1191 994 1439 701 
Q 1688 409 2113 409 
Q 2538 409 2786 701 
Q 3034 994 3034 1497 
Q 3034 2003 2786 2293 
Q 2538 2584 2113 2584 
z
M 3366 4563 
L 3366 3988 
Q 3128 4100 2886 4159 
Q 2644 4219 2406 4219 
Q 1781 4219 1451 3797 
Q 1122 3375 1075 2522 
Q 1259 2794 1537 2939 
Q 1816 3084 2150 3084 
Q 2853 3084 3261 2657 
Q 3669 2231 3669 1497 
Q 3669 778 3244 343 
Q 2819 -91 2113 -91 
Q 1303 -91 875 529 
Q 447 1150 447 2328 
Q 447 3434 972 4092 
Q 1497 4750 2381 4750 
Q 2619 4750 2861 4703 
Q 3103 4656 3366 4563 
z
" transform="scale(0.015625)"/>
       </defs>
       <use xlink:href="#DejaVuSans-31" transform="translate(0 0.765625)"/>
       <use xlink:href="#DejaVuSans-30" transform="translate(63.623047 0.765625)"/>
       <use xlink:href="#DejaVuSans-2212" transform="translate(128.203125 39.046875)scale(0.7)"/>
       <use xlink:href="#DejaVuSans-36" transform="translate(186.855469 39.046875)scale(0.7)"/>
      </g>
     </g>
    </g>
    <g id="ytick_2">
     <g id="line2d_16">
      <path d="M 53.367689 37.439152 
L 282.483154 37.439152 
" clip-path="url(#p4f5b212dba)" style="fill: none; stroke: #000000; stroke-opacity: 0.1; stroke-width: 0.5; stroke-linecap: square"/>
     </g>
     <g id="line2d_17">
      <g>
       <use xlink:href="#m176d2ab535" x="53.367689" y="37.439152" style="stroke: #000000; stroke-width: 0.5"/>
      </g>
     </g>
     <g id="line2d_18">
      <g>
       <use xlink:href="#m2c07aeb4e1" x="282.483154" y="37.439152" style="stroke: #000000; stroke-width: 0.5"/>
      </g>
     </g>
     <g id="text_7">
      <!-- $10^{-4}$ -->
      <g transform="translate(21.667689 41.998215)scale(0.12 -0.12)">
       <defs>
        <path id="DejaVuSans-34" d="M 2419 4116 
L 825 1625 
L 2419 1625 
L 2419 4116 
z
M 2253 4666 
L 3047 4666 
L 3047 1625 
L 3713 1625 
L 3713 1100 
L 3047 1100 
L 3047 0 
L 2419 0 
L 2419 1100 
L 313 1100 
L 313 1709 
L 2253 4666 
z
" transform="scale(0.015625)"/>
       </defs>
       <use xlink:href="#DejaVuSans-31" transform="translate(0 0.684375)"/>
       <use xlink:href="#DejaVuSans-30" transform="translate(63.623047 0.684375)"/>
       <use xlink:href="#DejaVuSans-2212" transform="translate(128.203125 38.965625)scale(0.7)"/>
       <use xlink:href="#DejaVuSans-34" transform="translate(186.855469 38.965625)scale(0.7)"/>
      </g>
     </g>
    </g>
    <g id="ytick_3">
     <g id="line2d_19">
      <defs>
       <path id="md8a2632475" d="M 0 0 
L -2 0 
" style="stroke: #000000; stroke-width: 0.6"/>
      </defs>
      <g>
       <use xlink:href="#md8a2632475" x="53.367689" y="101.66492" style="stroke: #000000; stroke-width: 0.6"/>
      </g>
     </g>
    </g>
    <g id="ytick_4">
     <g id="line2d_20">
      <g>
       <use xlink:href="#md8a2632475" x="53.367689" y="58.847742" style="stroke: #000000; stroke-width: 0.6"/>
      </g>
     </g>
    </g>
    <g id="ytick_5">
     <g id="line2d_21">
      <g>
       <use xlink:href="#md8a2632475" x="53.367689" y="16.030563" style="stroke: #000000; stroke-width: 0.6"/>
      </g>
     </g>
    </g>
    <g id="text_8">
     <!-- y loss -->
     <g transform="translate(14.340189 77.3)rotate(-90)scale(0.16 -0.16)">
      <defs>
       <path id="DejaVuSans-79" d="M 2059 -325 
Q 1816 -950 1584 -1140 
Q 1353 -1331 966 -1331 
L 506 -1331 
L 506 -850 
L 844 -850 
Q 1081 -850 1212 -737 
Q 1344 -625 1503 -206 
L 1606 56 
L 191 3500 
L 800 3500 
L 1894 763 
L 2988 3500 
L 3597 3500 
L 2059 -325 
z
" transform="scale(0.015625)"/>
       <path id="DejaVuSans-20" transform="scale(0.015625)"/>
       <path id="DejaVuSans-6c" d="M 603 4863 
L 1178 4863 
L 1178 0 
L 603 0 
L 603 4863 
z
" transform="scale(0.015625)"/>
      </defs>
      <use xlink:href="#DejaVuSans-79"/>
      <use xlink:href="#DejaVuSans-20" x="59.179688"/>
      <use xlink:href="#DejaVuSans-6c" x="90.966797"/>
      <use xlink:href="#DejaVuSans-6f" x="118.75"/>
      <use xlink:href="#DejaVuSans-73" x="179.931641"/>
      <use xlink:href="#DejaVuSans-73" x="232.03125"/>
     </g>
    </g>
   </g>
   <g id="line2d_22">
    <path d="M 59.852089 5.763062 
L 60.572577 16.474558 
L 61.293066 30.180691 
L 62.013555 32.79686 
L 62.734044 24.669186 
L 63.454533 20.191313 
L 64.175022 18.874582 
L 64.895511 20.019513 
L 65.616 23.385613 
L 66.336489 29.013731 
L 67.056977 36.962677 
L 67.777466 46.548794 
L 68.497955 51.245952 
L 69.938933 37.106988 
L 70.659422 32.68676 
L 71.379911 31.120211 
L 72.1004 31.864197 
L 72.820889 34.273397 
L 73.541377 37.935273 
L 74.261866 43.0391 
L 74.982355 50.561062 
L 75.702844 59.634632 
L 76.423333 55.861632 
L 77.143822 47.931043 
L 77.864311 43.38213 
L 78.5848 41.237791 
L 79.305289 40.673097 
L 80.025777 41.309669 
L 80.746266 43.207623 
L 81.466755 46.709161 
L 82.187244 52.125545 
L 82.907733 58.724053 
L 83.628222 61.646085 
L 84.348711 58.415317 
L 85.0692 54.273837 
L 85.789689 51.34186 
L 86.510177 50.041198 
L 87.230666 50.595401 
L 87.951155 53.09473 
L 88.671644 57.598569 
L 89.392133 64.603227 
L 90.112622 75.317333 
L 90.833111 79.28023 
L 91.5536 69.050917 
L 92.274088 62.7493 
L 92.994577 60.109285 
L 93.715066 59.839759 
L 94.435555 61.421174 
L 95.156044 65.259855 
L 95.876533 72.879926 
L 96.597022 87.125027 
L 97.317511 87.814642 
L 98.038 76.214644 
L 98.758488 70.257031 
L 99.478977 67.285626 
L 100.199466 66.692703 
L 100.919955 68.641298 
L 101.640444 73.117927 
L 103.081422 85.638943 
L 103.801911 84.830784 
L 104.5224 79.086208 
L 105.242888 75.206882 
L 105.963377 74.229611 
L 106.683866 75.600087 
L 107.404355 78.938696 
L 108.124844 84.853439 
L 108.845333 93.866369 
L 109.565822 95.713922 
L 110.286311 88.726164 
L 111.0068 84.421593 
L 111.727288 82.696927 
L 112.447777 83.099574 
L 113.168266 86.122467 
L 113.888755 92.172482 
L 114.609244 99.593622 
L 115.329733 100.982294 
L 116.770711 90.777162 
L 117.491199 88.54205 
L 118.211688 88.939429 
L 118.932177 91.314225 
L 120.373155 99.344883 
L 121.093644 100.234699 
L 121.814133 97.145713 
L 122.534622 94.587001 
L 123.255111 93.692985 
L 123.975599 94.269448 
L 124.696088 96.461515 
L 125.416577 99.779153 
L 126.137066 101.977828 
L 126.857555 101.637307 
L 128.298533 98.401945 
L 129.019022 97.995664 
L 129.739511 99.040296 
L 131.180488 102.603938 
L 131.900977 103.325131 
L 132.621466 102.465841 
L 133.341955 101.149744 
L 134.062444 100.517747 
L 134.782933 100.653885 
L 135.503422 101.41534 
L 136.223911 102.469919 
L 136.944399 103.027699 
L 137.664888 102.822366 
L 139.105866 101.864884 
L 139.826355 101.801509 
L 140.546844 102.20968 
L 141.267333 102.755548 
L 141.987822 103.129227 
L 142.708311 103.199875 
L 144.149288 102.690883 
L 144.869777 102.64796 
L 145.590266 102.809729 
L 147.031244 103.331654 
L 147.751733 103.356915 
L 149.913199 103.018564 
L 153.515644 103.289366 
L 154.956622 103.191574 
L 158.559066 103.327061 
L 160.720533 103.314154 
L 163.602488 103.354743 
L 167.204933 103.372471 
L 185.217155 103.376048 
L 275.998754 103.37679 
L 275.998754 103.37679 
" clip-path="url(#p4f5b212dba)" style="fill: none; stroke: #000000"/>
   </g>
   <g id="patch_3">
    <path d="M 53.367689 106.305354 
L 53.367689 2.834646 
" style="fill: none; stroke: #000000; stroke-linejoin: miter; stroke-linecap: square"/>
   </g>
   <g id="patch_4">
    <path d="M 282.483154 106.305354 
L 282.483154 2.834646 
" style="fill: none; stroke: #000000; stroke-linejoin: miter; stroke-linecap: square"/>
   </g>
   <g id="patch_5">
    <path d="M 53.367689 106.305354 
L 282.483154 106.305354 
" style="fill: none; stroke: #000000; stroke-linejoin: miter; stroke-linecap: square"/>
   </g>
   <g id="patch_6">
    <path d="M 53.367689 2.834646 
L 282.483154 2.834646 
" style="fill: none; stroke: #000000; stroke-linejoin: miter; stroke-linecap: square"/>
   </g>
  </g>
  <g id="axes_2">
   <g id="patch_7">
    <path d="M 53.367689 250.305354 
L 282.483154 250.305354 
L 282.483154 146.834646 
L 53.367689 146.834646 
z
" style="fill: #ffffff"/>
   </g>
   <g id="matplotlib.axis_3">
    <g id="xtick_5">
     <g id="line2d_23">
      <path d="M 59.1316 250.305354 
L 59.1316 146.834646 
" clip-path="url(#p4f03860fa4)" style="fill: none; stroke: #000000; stroke-opacity: 0.1; stroke-width: 0.5; stroke-linecap: square"/>
     </g>
     <g id="line2d_24">
      <g>
       <use xlink:href="#m3ddd12949e" x="59.1316" y="250.305354" style="stroke: #000000; stroke-width: 0.5"/>
      </g>
     </g>
     <g id="line2d_25">
      <g>
       <use xlink:href="#m783fd5feac" x="59.1316" y="146.834646" style="stroke: #000000; stroke-width: 0.5"/>
      </g>
     </g>
     <g id="text_9">
      <!-- $0$ -->
      <g transform="translate(55.2916 262.923479)scale(0.12 -0.12)">
       <use xlink:href="#DejaVuSans-30" transform="translate(0 0.78125)"/>
      </g>
     </g>
    </g>
    <g id="xtick_6">
     <g id="line2d_26">
      <path d="M 131.180488 250.305354 
L 131.180488 146.834646 
" clip-path="url(#p4f03860fa4)" style="fill: none; stroke: #000000; stroke-opacity: 0.1; stroke-width: 0.5; stroke-linecap: square"/>
     </g>
     <g id="line2d_27">
      <g>
       <use xlink:href="#m3ddd12949e" x="131.180488" y="250.305354" style="stroke: #000000; stroke-width: 0.5"/>
      </g>
     </g>
     <g id="line2d_28">
      <g>
       <use xlink:href="#m783fd5feac" x="131.180488" y="146.834646" style="stroke: #000000; stroke-width: 0.5"/>
      </g>
     </g>
     <g id="text_10">
      <!-- $100$ -->
      <g transform="translate(119.720488 262.923479)scale(0.12 -0.12)">
       <use xlink:href="#DejaVuSans-31" transform="translate(0 0.78125)"/>
       <use xlink:href="#DejaVuSans-30" transform="translate(63.623047 0.78125)"/>
       <use xlink:href="#DejaVuSans-30" transform="translate(127.246094 0.78125)"/>
      </g>
     </g>
    </g>
    <g id="xtick_7">
     <g id="line2d_29">
      <path d="M 203.229377 250.305354 
L 203.229377 146.834646 
" clip-path="url(#p4f03860fa4)" style="fill: none; stroke: #000000; stroke-opacity: 0.1; stroke-width: 0.5; stroke-linecap: square"/>
     </g>
     <g id="line2d_30">
      <g>
       <use xlink:href="#m3ddd12949e" x="203.229377" y="250.305354" style="stroke: #000000; stroke-width: 0.5"/>
      </g>
     </g>
     <g id="line2d_31">
      <g>
       <use xlink:href="#m783fd5feac" x="203.229377" y="146.834646" style="stroke: #000000; stroke-width: 0.5"/>
      </g>
     </g>
     <g id="text_11">
      <!-- $200$ -->
      <g transform="translate(191.769377 262.923479)scale(0.12 -0.12)">
       <use xlink:href="#DejaVuSans-32" transform="translate(0 0.78125)"/>
       <use xlink:href="#DejaVuSans-30" transform="translate(63.623047 0.78125)"/>
       <use xlink:href="#DejaVuSans-30" transform="translate(127.246094 0.78125)"/>
      </g>
     </g>
    </g>
    <g id="xtick_8">
     <g id="line2d_32">
      <path d="M 275.278266 250.305354 
L 275.278266 146.834646 
" clip-path="url(#p4f03860fa4)" style="fill: none; stroke: #000000; stroke-opacity: 0.1; stroke-width: 0.5; stroke-linecap: square"/>
     </g>
     <g id="line2d_33">
      <g>
       <use xlink:href="#m3ddd12949e" x="275.278266" y="250.305354" style="stroke: #000000; stroke-width: 0.5"/>
      </g>
     </g>
     <g id="line2d_34">
      <g>
       <use xlink:href="#m783fd5feac" x="275.278266" y="146.834646" style="stroke: #000000; stroke-width: 0.5"/>
      </g>
     </g>
     <g id="text_12">
      <!-- $300$ -->
      <g transform="translate(263.818266 262.923479)scale(0.12 -0.12)">
       <use xlink:href="#DejaVuSans-33" transform="translate(0 0.78125)"/>
       <use xlink:href="#DejaVuSans-30" transform="translate(63.623047 0.78125)"/>
       <use xlink:href="#DejaVuSans-30" transform="translate(127.246094 0.78125)"/>
      </g>
     </g>
    </g>
    <g id="text_13">
     <!-- Epochs -->
     <g transform="translate(139.260422 281.576604)scale(0.16 -0.16)">
      <use xlink:href="#DejaVuSans-45"/>
      <use xlink:href="#DejaVuSans-70" x="63.183594"/>
      <use xlink:href="#DejaVuSans-6f" x="126.660156"/>
      <use xlink:href="#DejaVuSans-63" x="187.841797"/>
      <use xlink:href="#DejaVuSans-68" x="242.822266"/>
      <use xlink:href="#DejaVuSans-73" x="306.201172"/>
     </g>
    </g>
   </g>
   <g id="matplotlib.axis_4">
    <g id="ytick_6">
     <g id="line2d_35">
      <path d="M 53.367689 234.930227 
L 282.483154 234.930227 
" clip-path="url(#p4f03860fa4)" style="fill: none; stroke: #000000; stroke-opacity: 0.1; stroke-width: 0.5; stroke-linecap: square"/>
     </g>
     <g id="line2d_36">
      <g>
       <use xlink:href="#m176d2ab535" x="53.367689" y="234.930227" style="stroke: #000000; stroke-width: 0.5"/>
      </g>
     </g>
     <g id="line2d_37">
      <g>
       <use xlink:href="#m2c07aeb4e1" x="282.483154" y="234.930227" style="stroke: #000000; stroke-width: 0.5"/>
      </g>
     </g>
     <g id="text_14">
      <!-- $10^{-8}$ -->
      <g transform="translate(21.667689 239.48929)scale(0.12 -0.12)">
       <defs>
        <path id="DejaVuSans-38" d="M 2034 2216 
Q 1584 2216 1326 1975 
Q 1069 1734 1069 1313 
Q 1069 891 1326 650 
Q 1584 409 2034 409 
Q 2484 409 2743 651 
Q 3003 894 3003 1313 
Q 3003 1734 2745 1975 
Q 2488 2216 2034 2216 
z
M 1403 2484 
Q 997 2584 770 2862 
Q 544 3141 544 3541 
Q 544 4100 942 4425 
Q 1341 4750 2034 4750 
Q 2731 4750 3128 4425 
Q 3525 4100 3525 3541 
Q 3525 3141 3298 2862 
Q 3072 2584 2669 2484 
Q 3125 2378 3379 2068 
Q 3634 1759 3634 1313 
Q 3634 634 3220 271 
Q 2806 -91 2034 -91 
Q 1263 -91 848 271 
Q 434 634 434 1313 
Q 434 1759 690 2068 
Q 947 2378 1403 2484 
z
M 1172 3481 
Q 1172 3119 1398 2916 
Q 1625 2713 2034 2713 
Q 2441 2713 2670 2916 
Q 2900 3119 2900 3481 
Q 2900 3844 2670 4047 
Q 2441 4250 2034 4250 
Q 1625 4250 1398 4047 
Q 1172 3844 1172 3481 
z
" transform="scale(0.015625)"/>
       </defs>
       <use xlink:href="#DejaVuSans-31" transform="translate(0 0.765625)"/>
       <use xlink:href="#DejaVuSans-30" transform="translate(63.623047 0.765625)"/>
       <use xlink:href="#DejaVuSans-2212" transform="translate(128.203125 39.046875)scale(0.7)"/>
       <use xlink:href="#DejaVuSans-38" transform="translate(186.855469 39.046875)scale(0.7)"/>
      </g>
     </g>
    </g>
    <g id="ytick_7">
     <g id="line2d_38">
      <path d="M 53.367689 211.660454 
L 282.483154 211.660454 
" clip-path="url(#p4f03860fa4)" style="fill: none; stroke: #000000; stroke-opacity: 0.1; stroke-width: 0.5; stroke-linecap: square"/>
     </g>
     <g id="line2d_39">
      <g>
       <use xlink:href="#m176d2ab535" x="53.367689" y="211.660454" style="stroke: #000000; stroke-width: 0.5"/>
      </g>
     </g>
     <g id="line2d_40">
      <g>
       <use xlink:href="#m2c07aeb4e1" x="282.483154" y="211.660454" style="stroke: #000000; stroke-width: 0.5"/>
      </g>
     </g>
     <g id="text_15">
      <!-- $10^{-6}$ -->
      <g transform="translate(21.667689 216.219517)scale(0.12 -0.12)">
       <use xlink:href="#DejaVuSans-31" transform="translate(0 0.765625)"/>
       <use xlink:href="#DejaVuSans-30" transform="translate(63.623047 0.765625)"/>
       <use xlink:href="#DejaVuSans-2212" transform="translate(128.203125 39.046875)scale(0.7)"/>
       <use xlink:href="#DejaVuSans-36" transform="translate(186.855469 39.046875)scale(0.7)"/>
      </g>
     </g>
    </g>
    <g id="ytick_8">
     <g id="line2d_41">
      <path d="M 53.367689 188.390681 
L 282.483154 188.390681 
" clip-path="url(#p4f03860fa4)" style="fill: none; stroke: #000000; stroke-opacity: 0.1; stroke-width: 0.5; stroke-linecap: square"/>
     </g>
     <g id="line2d_42">
      <g>
       <use xlink:href="#m176d2ab535" x="53.367689" y="188.390681" style="stroke: #000000; stroke-width: 0.5"/>
      </g>
     </g>
     <g id="line2d_43">
      <g>
       <use xlink:href="#m2c07aeb4e1" x="282.483154" y="188.390681" style="stroke: #000000; stroke-width: 0.5"/>
      </g>
     </g>
     <g id="text_16">
      <!-- $10^{-4}$ -->
      <g transform="translate(21.667689 192.949744)scale(0.12 -0.12)">
       <use xlink:href="#DejaVuSans-31" transform="translate(0 0.684375)"/>
       <use xlink:href="#DejaVuSans-30" transform="translate(63.623047 0.684375)"/>
       <use xlink:href="#DejaVuSans-2212" transform="translate(128.203125 38.965625)scale(0.7)"/>
       <use xlink:href="#DejaVuSans-34" transform="translate(186.855469 38.965625)scale(0.7)"/>
      </g>
     </g>
    </g>
    <g id="ytick_9">
     <g id="line2d_44">
      <path d="M 53.367689 165.120908 
L 282.483154 165.120908 
" clip-path="url(#p4f03860fa4)" style="fill: none; stroke: #000000; stroke-opacity: 0.1; stroke-width: 0.5; stroke-linecap: square"/>
     </g>
     <g id="line2d_45">
      <g>
       <use xlink:href="#m176d2ab535" x="53.367689" y="165.120908" style="stroke: #000000; stroke-width: 0.5"/>
      </g>
     </g>
     <g id="line2d_46">
      <g>
       <use xlink:href="#m2c07aeb4e1" x="282.483154" y="165.120908" style="stroke: #000000; stroke-width: 0.5"/>
      </g>
     </g>
     <g id="text_17">
      <!-- $10^{-2}$ -->
      <g transform="translate(21.667689 169.679971)scale(0.12 -0.12)">
       <use xlink:href="#DejaVuSans-31" transform="translate(0 0.765625)"/>
       <use xlink:href="#DejaVuSans-30" transform="translate(63.623047 0.765625)"/>
       <use xlink:href="#DejaVuSans-2212" transform="translate(128.203125 39.046875)scale(0.7)"/>
       <use xlink:href="#DejaVuSans-32" transform="translate(186.855469 39.046875)scale(0.7)"/>
      </g>
     </g>
    </g>
    <g id="ytick_10">
     <g id="line2d_47">
      <g>
       <use xlink:href="#md8a2632475" x="53.367689" y="246.565114" style="stroke: #000000; stroke-width: 0.6"/>
      </g>
     </g>
    </g>
    <g id="ytick_11">
     <g id="line2d_48">
      <g>
       <use xlink:href="#md8a2632475" x="53.367689" y="223.295341" style="stroke: #000000; stroke-width: 0.6"/>
      </g>
     </g>
    </g>
    <g id="ytick_12">
     <g id="line2d_49">
      <g>
       <use xlink:href="#md8a2632475" x="53.367689" y="200.025568" style="stroke: #000000; stroke-width: 0.6"/>
      </g>
     </g>
    </g>
    <g id="ytick_13">
     <g id="line2d_50">
      <g>
       <use xlink:href="#md8a2632475" x="53.367689" y="176.755795" style="stroke: #000000; stroke-width: 0.6"/>
      </g>
     </g>
    </g>
    <g id="ytick_14">
     <g id="line2d_51">
      <g>
       <use xlink:href="#md8a2632475" x="53.367689" y="153.486022" style="stroke: #000000; stroke-width: 0.6"/>
      </g>
     </g>
    </g>
    <g id="text_18">
     <!-- p loss -->
     <g transform="translate(14.340189 221.64375)rotate(-90)scale(0.16 -0.16)">
      <use xlink:href="#DejaVuSans-70"/>
      <use xlink:href="#DejaVuSans-20" x="63.476562"/>
      <use xlink:href="#DejaVuSans-6c" x="95.263672"/>
      <use xlink:href="#DejaVuSans-6f" x="123.046875"/>
      <use xlink:href="#DejaVuSans-73" x="184.228516"/>
      <use xlink:href="#DejaVuSans-73" x="236.328125"/>
     </g>
    </g>
   </g>
   <g id="line2d_52">
    <path d="M 59.852089 149.763062 
L 60.572577 153.382613 
L 61.293066 156.182577 
L 62.013555 156.273791 
L 62.734044 155.229875 
L 63.454533 154.578397 
L 64.175022 154.673641 
L 64.895511 155.559047 
L 65.616 157.259792 
L 66.336489 159.871969 
L 67.056977 163.654211 
L 68.497955 175.503394 
L 69.938933 166.395041 
L 70.659422 163.783465 
L 71.379911 162.694071 
L 72.1004 162.66676 
L 72.820889 163.373784 
L 73.541377 164.546791 
L 74.982355 167.291905 
L 75.702844 168.07278 
L 76.423333 167.887303 
L 78.5848 165.379232 
L 79.305289 165.059337 
L 80.025777 165.137208 
L 80.746266 165.622165 
L 81.466755 166.473071 
L 82.907733 168.425194 
L 83.628222 168.848414 
L 84.348711 168.781494 
L 85.0692 168.524248 
L 85.789689 168.395571 
L 86.510177 168.610389 
L 87.230666 169.30658 
L 87.951155 170.575404 
L 88.671644 172.488318 
L 89.392133 175.109182 
L 90.112622 178.313192 
L 90.833111 180.915983 
L 91.5536 180.911013 
L 92.274088 179.542099 
L 92.994577 178.688462 
L 93.715066 178.751827 
L 94.435555 179.726648 
L 95.156044 181.688012 
L 96.597022 188.349463 
L 97.317511 188.361608 
L 98.038 185.207863 
L 98.758488 182.562134 
L 99.478977 181.016236 
L 100.199466 180.52907 
L 100.919955 180.999406 
L 102.360933 183.335485 
L 103.081422 183.811054 
L 103.801911 183.396972 
L 104.5224 182.659499 
L 105.242888 182.204923 
L 105.963377 182.343516 
L 106.683866 183.168608 
L 107.404355 184.71816 
L 108.124844 187.04123 
L 108.845333 189.919683 
L 109.565822 192.104357 
L 110.286311 192.305263 
L 111.0068 191.710984 
L 111.727288 191.577344 
L 112.447777 192.324368 
L 113.168266 194.30507 
L 113.888755 198.102791 
L 114.609244 204.518726 
L 115.329733 205.595082 
L 116.050222 199.256582 
L 116.770711 195.590606 
L 117.491199 194.029102 
L 118.211688 193.96096 
L 118.932177 194.886548 
L 119.652666 196.157864 
L 120.373155 196.857898 
L 121.093644 196.413546 
L 121.814133 195.437382 
L 122.534622 194.767975 
L 123.255111 194.729792 
L 123.975599 195.418172 
L 124.696088 196.923839 
L 126.137066 201.646695 
L 126.857555 203.215753 
L 127.578044 203.456221 
L 128.298533 203.186616 
L 129.019022 203.436209 
L 129.739511 204.841691 
L 130.459999 207.962859 
L 131.180488 214.470518 
L 131.900977 224.615185 
L 132.621466 212.932356 
L 133.341955 208.282791 
L 134.062444 206.711678 
L 134.782933 206.734355 
L 136.223911 208.498606 
L 136.944399 208.374692 
L 138.385377 206.314274 
L 139.105866 205.764664 
L 139.826355 205.94519 
L 140.546844 206.948845 
L 141.267333 208.652301 
L 142.708311 212.709073 
L 143.428799 213.648871 
L 144.149288 213.783779 
L 144.869777 214.207753 
L 145.590266 215.744199 
L 146.310755 219.401046 
L 147.031244 227.620392 
L 147.751733 229.938905 
L 148.472222 222.068881 
L 149.19271 218.997457 
L 149.913199 218.173718 
L 150.633688 218.885568 
L 152.074666 222.470229 
L 152.795155 222.553318 
L 154.236133 219.475383 
L 154.956622 219.217436 
L 155.67711 220.149749 
L 156.397599 222.176333 
L 157.118088 224.963516 
L 157.838577 226.612431 
L 158.559066 225.700339 
L 159.279555 224.409238 
L 160.000044 224.237814 
L 160.720533 225.795021 
L 161.441022 229.548633 
L 162.16151 235.855973 
L 162.881999 238.842449 
L 163.602488 233.77792 
L 164.322977 230.580675 
L 165.043466 229.160783 
L 165.763955 228.611159 
L 166.484444 228.283581 
L 167.204933 227.455254 
L 168.64591 224.861768 
L 169.366399 224.297035 
L 170.086888 224.471073 
L 170.807377 225.367785 
L 172.248355 228.211458 
L 172.968844 229.209549 
L 173.689333 229.809016 
L 174.409821 230.653659 
L 175.850799 233.330903 
L 176.571288 233.731384 
L 178.012266 232.479444 
L 178.732755 232.346087 
L 179.453244 232.965934 
L 180.173733 234.499567 
L 180.894221 236.957154 
L 183.055688 246.753495 
L 183.776177 247.376938 
L 184.496666 245.936759 
L 186.658133 238.492515 
L 187.378621 236.737306 
L 188.09911 235.771146 
L 188.819599 235.51129 
L 189.540088 235.831568 
L 190.981066 236.961033 
L 191.701555 237.007586 
L 193.142533 236.244947 
L 193.863021 235.759454 
L 196.024488 233.754123 
L 196.744977 233.374253 
L 197.465466 233.278164 
L 198.185955 233.406444 
L 199.626933 234.034825 
L 201.06791 234.825268 
L 201.788399 235.095018 
L 202.508888 235.197908 
L 206.111332 235.060335 
L 206.831821 235.209604 
L 208.272799 235.867005 
L 209.713777 236.456588 
L 211.154755 236.611053 
L 212.595732 236.366487 
L 214.03671 235.934907 
L 215.477688 235.771668 
L 219.800621 235.811512 
L 223.403066 235.272508 
L 224.844044 235.282636 
L 228.446488 235.541378 
L 234.210399 235.643144 
L 237.092355 235.759192 
L 243.576755 235.67407 
L 275.998754 235.619947 
L 275.998754 235.619947 
" clip-path="url(#p4f03860fa4)" style="fill: none; stroke: #000000"/>
   </g>
   <g id="patch_8">
    <path d="M 53.367689 250.305354 
L 53.367689 146.834646 
" style="fill: none; stroke: #000000; stroke-linejoin: miter; stroke-linecap: square"/>
   </g>
   <g id="patch_9">
    <path d="M 282.483154 250.305354 
L 282.483154 146.834646 
" style="fill: none; stroke: #000000; stroke-linejoin: miter; stroke-linecap: square"/>
   </g>
   <g id="patch_10">
    <path d="M 53.367689 250.305354 
L 282.483154 250.305354 
" style="fill: none; stroke: #000000; stroke-linejoin: miter; stroke-linecap: square"/>
   </g>
   <g id="patch_11">
    <path d="M 53.367689 146.834646 
L 282.483154 146.834646 
" style="fill: none; stroke: #000000; stroke-linejoin: miter; stroke-linecap: square"/>
   </g>
  </g>
 </g>
 <defs>
  <clipPath id="p4f5b212dba">
   <rect x="53.367689" y="2.834646" width="229.115466" height="103.470709"/>
  </clipPath>
  <clipPath id="p4f03860fa4">
   <rect x="53.367689" y="146.834646" width="229.115466" height="103.470709"/>
  </clipPath>
 </defs>
</svg>
