<?xml version="1.0" encoding="utf-8" standalone="no"?>
<!DOCTYPE svg PUBLIC "-//W3C//DTD SVG 1.1//EN"
  "http://www.w3.org/Graphics/SVG/1.1/DTD/svg11.dtd">
<svg xmlns:xlink="http://www.w3.org/1999/xlink" width="288pt" height="288pt" viewBox="0 0 288 288" xmlns="http://www.w3.org/2000/svg" version="1.1">
 <metadata>
  <rdf:RDF xmlns:dc="http://purl.org/dc/elements/1.1/" xmlns:cc="http://creativecommons.org/ns#" xmlns:rdf="http://www.w3.org/1999/02/22-rdf-syntax-ns#">
   <cc:Work>
    <dc:type rdf:resource="http://purl.org/dc/dcmitype/StillImage"/>
    <dc:date>2021-11-24T22:03:18.113561</dc:date>
    <dc:format>image/svg+xml</dc:format>
    <dc:creator>
     <cc:Agent>
      <dc:title>Matplotlib v3.5.0, https://matplotlib.org/</dc:title>
     </cc:Agent>
    </dc:creator>
   </cc:Work>
  </rdf:RDF>
 </metadata>
 <defs>
  <style type="text/css">*{stroke-linejoin: round; stroke-linecap: butt}</style>
 </defs>
 <g id="figure_1">
  <g id="patch_1">
   <path d="M 0 288 
L 288 288 
L 288 0 
L 0 0 
z
" style="fill: #ffffff"/>
  </g>
  <g id="axes_1">
   <g id="patch_2">
    <path d="M 53.367689 104.793354 
L 285.165354 104.793354 
L 285.165354 2.834646 
L 53.367689 2.834646 
z
" style="fill: #ffffff"/>
   </g>
   <g id="matplotlib.axis_1">
    <g id="xtick_1">
     <g id="line2d_1">
      <path d="M 56.008724 104.793354 
L 56.008724 2.834646 
" clip-path="url(#p367df96a0f)" style="fill: none; stroke: #000000; stroke-opacity: 0.1; stroke-width: 0.5; stroke-linecap: square"/>
     </g>
     <g id="line2d_2">
      <defs>
       <path id="m2ed4e5b18e" d="M 0 0 
L 0 -2.5 
" style="stroke: #000000; stroke-width: 0.5"/>
      </defs>
      <g>
       <use xlink:href="#m2ed4e5b18e" x="56.008724" y="104.793354" style="stroke: #000000; stroke-width: 0.5"/>
      </g>
     </g>
     <g id="line2d_3">
      <defs>
       <path id="mdca40bcf86" d="M 0 0 
L 0 2.5 
" style="stroke: #000000; stroke-width: 0.5"/>
      </defs>
      <g>
       <use xlink:href="#mdca40bcf86" x="56.008724" y="2.834646" style="stroke: #000000; stroke-width: 0.5"/>
      </g>
     </g>
     <g id="text_1">
      <!-- $10^{-3}$ -->
      <g transform="translate(41.908724 117.411479)scale(0.12 -0.12)">
       <defs>
        <path id="DejaVuSans-31" d="M 794 531 
L 1825 531 
L 1825 4091 
L 703 3866 
L 703 4441 
L 1819 4666 
L 2450 4666 
L 2450 531 
L 3481 531 
L 3481 0 
L 794 0 
L 794 531 
z
" transform="scale(0.015625)"/>
        <path id="DejaVuSans-30" d="M 2034 4250 
Q 1547 4250 1301 3770 
Q 1056 3291 1056 2328 
Q 1056 1369 1301 889 
Q 1547 409 2034 409 
Q 2525 409 2770 889 
Q 3016 1369 3016 2328 
Q 3016 3291 2770 3770 
Q 2525 4250 2034 4250 
z
M 2034 4750 
Q 2819 4750 3233 4129 
Q 3647 3509 3647 2328 
Q 3647 1150 3233 529 
Q 2819 -91 2034 -91 
Q 1250 -91 836 529 
Q 422 1150 422 2328 
Q 422 3509 836 4129 
Q 1250 4750 2034 4750 
z
" transform="scale(0.015625)"/>
        <path id="DejaVuSans-2212" d="M 678 2272 
L 4684 2272 
L 4684 1741 
L 678 1741 
L 678 2272 
z
" transform="scale(0.015625)"/>
        <path id="DejaVuSans-33" d="M 2597 2516 
Q 3050 2419 3304 2112 
Q 3559 1806 3559 1356 
Q 3559 666 3084 287 
Q 2609 -91 1734 -91 
Q 1441 -91 1130 -33 
Q 819 25 488 141 
L 488 750 
Q 750 597 1062 519 
Q 1375 441 1716 441 
Q 2309 441 2620 675 
Q 2931 909 2931 1356 
Q 2931 1769 2642 2001 
Q 2353 2234 1838 2234 
L 1294 2234 
L 1294 2753 
L 1863 2753 
Q 2328 2753 2575 2939 
Q 2822 3125 2822 3475 
Q 2822 3834 2567 4026 
Q 2313 4219 1838 4219 
Q 1578 4219 1281 4162 
Q 984 4106 628 3988 
L 628 4550 
Q 988 4650 1302 4700 
Q 1616 4750 1894 4750 
Q 2613 4750 3031 4423 
Q 3450 4097 3450 3541 
Q 3450 3153 3228 2886 
Q 3006 2619 2597 2516 
z
" transform="scale(0.015625)"/>
       </defs>
       <use xlink:href="#DejaVuSans-31" transform="translate(0 0.765625)"/>
       <use xlink:href="#DejaVuSans-30" transform="translate(63.623047 0.765625)"/>
       <use xlink:href="#DejaVuSans-2212" transform="translate(128.203125 39.046875)scale(0.7)"/>
       <use xlink:href="#DejaVuSans-33" transform="translate(186.855469 39.046875)scale(0.7)"/>
      </g>
     </g>
    </g>
    <g id="xtick_2">
     <g id="line2d_4">
      <path d="M 154.412333 104.793354 
L 154.412333 2.834646 
" clip-path="url(#p367df96a0f)" style="fill: none; stroke: #000000; stroke-opacity: 0.1; stroke-width: 0.5; stroke-linecap: square"/>
     </g>
     <g id="line2d_5">
      <g>
       <use xlink:href="#m2ed4e5b18e" x="154.412333" y="104.793354" style="stroke: #000000; stroke-width: 0.5"/>
      </g>
     </g>
     <g id="line2d_6">
      <g>
       <use xlink:href="#mdca40bcf86" x="154.412333" y="2.834646" style="stroke: #000000; stroke-width: 0.5"/>
      </g>
     </g>
     <g id="text_2">
      <!-- $10^{-2}$ -->
      <g transform="translate(140.312333 117.411479)scale(0.12 -0.12)">
       <defs>
        <path id="DejaVuSans-32" d="M 1228 531 
L 3431 531 
L 3431 0 
L 469 0 
L 469 531 
Q 828 903 1448 1529 
Q 2069 2156 2228 2338 
Q 2531 2678 2651 2914 
Q 2772 3150 2772 3378 
Q 2772 3750 2511 3984 
Q 2250 4219 1831 4219 
Q 1534 4219 1204 4116 
Q 875 4013 500 3803 
L 500 4441 
Q 881 4594 1212 4672 
Q 1544 4750 1819 4750 
Q 2544 4750 2975 4387 
Q 3406 4025 3406 3419 
Q 3406 3131 3298 2873 
Q 3191 2616 2906 2266 
Q 2828 2175 2409 1742 
Q 1991 1309 1228 531 
z
" transform="scale(0.015625)"/>
       </defs>
       <use xlink:href="#DejaVuSans-31" transform="translate(0 0.765625)"/>
       <use xlink:href="#DejaVuSans-30" transform="translate(63.623047 0.765625)"/>
       <use xlink:href="#DejaVuSans-2212" transform="translate(128.203125 39.046875)scale(0.7)"/>
       <use xlink:href="#DejaVuSans-32" transform="translate(186.855469 39.046875)scale(0.7)"/>
      </g>
     </g>
    </g>
    <g id="xtick_3">
     <g id="line2d_7">
      <path d="M 252.815943 104.793354 
L 252.815943 2.834646 
" clip-path="url(#p367df96a0f)" style="fill: none; stroke: #000000; stroke-opacity: 0.1; stroke-width: 0.5; stroke-linecap: square"/>
     </g>
     <g id="line2d_8">
      <g>
       <use xlink:href="#m2ed4e5b18e" x="252.815943" y="104.793354" style="stroke: #000000; stroke-width: 0.5"/>
      </g>
     </g>
     <g id="line2d_9">
      <g>
       <use xlink:href="#mdca40bcf86" x="252.815943" y="2.834646" style="stroke: #000000; stroke-width: 0.5"/>
      </g>
     </g>
     <g id="text_3">
      <!-- $10^{-1}$ -->
      <g transform="translate(238.715943 117.411479)scale(0.12 -0.12)">
       <use xlink:href="#DejaVuSans-31" transform="translate(0 0.684375)"/>
       <use xlink:href="#DejaVuSans-30" transform="translate(63.623047 0.684375)"/>
       <use xlink:href="#DejaVuSans-2212" transform="translate(128.203125 38.965625)scale(0.7)"/>
       <use xlink:href="#DejaVuSans-31" transform="translate(186.855469 38.965625)scale(0.7)"/>
      </g>
     </g>
    </g>
    <g id="text_4">
     <!-- Noise -->
     <g transform="translate(147.074021 136.064604)scale(0.16 -0.16)">
      <defs>
       <path id="DejaVuSans-4e" d="M 628 4666 
L 1478 4666 
L 3547 763 
L 3547 4666 
L 4159 4666 
L 4159 0 
L 3309 0 
L 1241 3903 
L 1241 0 
L 628 0 
L 628 4666 
z
" transform="scale(0.015625)"/>
       <path id="DejaVuSans-6f" d="M 1959 3097 
Q 1497 3097 1228 2736 
Q 959 2375 959 1747 
Q 959 1119 1226 758 
Q 1494 397 1959 397 
Q 2419 397 2687 759 
Q 2956 1122 2956 1747 
Q 2956 2369 2687 2733 
Q 2419 3097 1959 3097 
z
M 1959 3584 
Q 2709 3584 3137 3096 
Q 3566 2609 3566 1747 
Q 3566 888 3137 398 
Q 2709 -91 1959 -91 
Q 1206 -91 779 398 
Q 353 888 353 1747 
Q 353 2609 779 3096 
Q 1206 3584 1959 3584 
z
" transform="scale(0.015625)"/>
       <path id="DejaVuSans-69" d="M 603 3500 
L 1178 3500 
L 1178 0 
L 603 0 
L 603 3500 
z
M 603 4863 
L 1178 4863 
L 1178 4134 
L 603 4134 
L 603 4863 
z
" transform="scale(0.015625)"/>
       <path id="DejaVuSans-73" d="M 2834 3397 
L 2834 2853 
Q 2591 2978 2328 3040 
Q 2066 3103 1784 3103 
Q 1356 3103 1142 2972 
Q 928 2841 928 2578 
Q 928 2378 1081 2264 
Q 1234 2150 1697 2047 
L 1894 2003 
Q 2506 1872 2764 1633 
Q 3022 1394 3022 966 
Q 3022 478 2636 193 
Q 2250 -91 1575 -91 
Q 1294 -91 989 -36 
Q 684 19 347 128 
L 347 722 
Q 666 556 975 473 
Q 1284 391 1588 391 
Q 1994 391 2212 530 
Q 2431 669 2431 922 
Q 2431 1156 2273 1281 
Q 2116 1406 1581 1522 
L 1381 1569 
Q 847 1681 609 1914 
Q 372 2147 372 2553 
Q 372 3047 722 3315 
Q 1072 3584 1716 3584 
Q 2034 3584 2315 3537 
Q 2597 3491 2834 3397 
z
" transform="scale(0.015625)"/>
       <path id="DejaVuSans-65" d="M 3597 1894 
L 3597 1613 
L 953 1613 
Q 991 1019 1311 708 
Q 1631 397 2203 397 
Q 2534 397 2845 478 
Q 3156 559 3463 722 
L 3463 178 
Q 3153 47 2828 -22 
Q 2503 -91 2169 -91 
Q 1331 -91 842 396 
Q 353 884 353 1716 
Q 353 2575 817 3079 
Q 1281 3584 2069 3584 
Q 2775 3584 3186 3129 
Q 3597 2675 3597 1894 
z
M 3022 2063 
Q 3016 2534 2758 2815 
Q 2500 3097 2075 3097 
Q 1594 3097 1305 2825 
Q 1016 2553 972 2059 
L 3022 2063 
z
" transform="scale(0.015625)"/>
      </defs>
      <use xlink:href="#DejaVuSans-4e"/>
      <use xlink:href="#DejaVuSans-6f" x="74.804688"/>
      <use xlink:href="#DejaVuSans-69" x="135.986328"/>
      <use xlink:href="#DejaVuSans-73" x="163.769531"/>
      <use xlink:href="#DejaVuSans-65" x="215.869141"/>
     </g>
    </g>
   </g>
   <g id="matplotlib.axis_2">
    <g id="ytick_1">
     <g id="line2d_10">
      <path d="M 53.367689 69.795161 
L 285.165354 69.795161 
" clip-path="url(#p367df96a0f)" style="fill: none; stroke: #000000; stroke-opacity: 0.1; stroke-width: 0.5; stroke-linecap: square"/>
     </g>
     <g id="line2d_11">
      <defs>
       <path id="m742c48e771" d="M 0 0 
L 2.5 0 
" style="stroke: #000000; stroke-width: 0.5"/>
      </defs>
      <g>
       <use xlink:href="#m742c48e771" x="53.367689" y="69.795161" style="stroke: #000000; stroke-width: 0.5"/>
      </g>
     </g>
     <g id="line2d_12">
      <defs>
       <path id="mca088e7237" d="M 0 0 
L -2.5 0 
" style="stroke: #000000; stroke-width: 0.5"/>
      </defs>
      <g>
       <use xlink:href="#mca088e7237" x="285.165354" y="69.795161" style="stroke: #000000; stroke-width: 0.5"/>
      </g>
     </g>
     <g id="text_5">
      <!-- $10^{-4}$ -->
      <g transform="translate(21.667689 74.354223)scale(0.12 -0.12)">
       <defs>
        <path id="DejaVuSans-34" d="M 2419 4116 
L 825 1625 
L 2419 1625 
L 2419 4116 
z
M 2253 4666 
L 3047 4666 
L 3047 1625 
L 3713 1625 
L 3713 1100 
L 3047 1100 
L 3047 0 
L 2419 0 
L 2419 1100 
L 313 1100 
L 313 1709 
L 2253 4666 
z
" transform="scale(0.015625)"/>
       </defs>
       <use xlink:href="#DejaVuSans-31" transform="translate(0 0.684375)"/>
       <use xlink:href="#DejaVuSans-30" transform="translate(63.623047 0.684375)"/>
       <use xlink:href="#DejaVuSans-2212" transform="translate(128.203125 38.965625)scale(0.7)"/>
       <use xlink:href="#DejaVuSans-34" transform="translate(186.855469 38.965625)scale(0.7)"/>
      </g>
     </g>
    </g>
    <g id="ytick_2">
     <g id="line2d_13">
      <path d="M 53.367689 25.61081 
L 285.165354 25.61081 
" clip-path="url(#p367df96a0f)" style="fill: none; stroke: #000000; stroke-opacity: 0.1; stroke-width: 0.5; stroke-linecap: square"/>
     </g>
     <g id="line2d_14">
      <g>
       <use xlink:href="#m742c48e771" x="53.367689" y="25.61081" style="stroke: #000000; stroke-width: 0.5"/>
      </g>
     </g>
     <g id="line2d_15">
      <g>
       <use xlink:href="#mca088e7237" x="285.165354" y="25.61081" style="stroke: #000000; stroke-width: 0.5"/>
      </g>
     </g>
     <g id="text_6">
      <!-- $10^{-3}$ -->
      <g transform="translate(21.667689 30.169873)scale(0.12 -0.12)">
       <use xlink:href="#DejaVuSans-31" transform="translate(0 0.765625)"/>
       <use xlink:href="#DejaVuSans-30" transform="translate(63.623047 0.765625)"/>
       <use xlink:href="#DejaVuSans-2212" transform="translate(128.203125 39.046875)scale(0.7)"/>
       <use xlink:href="#DejaVuSans-33" transform="translate(186.855469 39.046875)scale(0.7)"/>
      </g>
     </g>
    </g>
    <g id="text_7">
     <!-- Final y loss -->
     <g transform="translate(14.340189 97.52525)rotate(-90)scale(0.16 -0.16)">
      <defs>
       <path id="DejaVuSans-46" d="M 628 4666 
L 3309 4666 
L 3309 4134 
L 1259 4134 
L 1259 2759 
L 3109 2759 
L 3109 2228 
L 1259 2228 
L 1259 0 
L 628 0 
L 628 4666 
z
" transform="scale(0.015625)"/>
       <path id="DejaVuSans-6e" d="M 3513 2113 
L 3513 0 
L 2938 0 
L 2938 2094 
Q 2938 2591 2744 2837 
Q 2550 3084 2163 3084 
Q 1697 3084 1428 2787 
Q 1159 2491 1159 1978 
L 1159 0 
L 581 0 
L 581 3500 
L 1159 3500 
L 1159 2956 
Q 1366 3272 1645 3428 
Q 1925 3584 2291 3584 
Q 2894 3584 3203 3211 
Q 3513 2838 3513 2113 
z
" transform="scale(0.015625)"/>
       <path id="DejaVuSans-61" d="M 2194 1759 
Q 1497 1759 1228 1600 
Q 959 1441 959 1056 
Q 959 750 1161 570 
Q 1363 391 1709 391 
Q 2188 391 2477 730 
Q 2766 1069 2766 1631 
L 2766 1759 
L 2194 1759 
z
M 3341 1997 
L 3341 0 
L 2766 0 
L 2766 531 
Q 2569 213 2275 61 
Q 1981 -91 1556 -91 
Q 1019 -91 701 211 
Q 384 513 384 1019 
Q 384 1609 779 1909 
Q 1175 2209 1959 2209 
L 2766 2209 
L 2766 2266 
Q 2766 2663 2505 2880 
Q 2244 3097 1772 3097 
Q 1472 3097 1187 3025 
Q 903 2953 641 2809 
L 641 3341 
Q 956 3463 1253 3523 
Q 1550 3584 1831 3584 
Q 2591 3584 2966 3190 
Q 3341 2797 3341 1997 
z
" transform="scale(0.015625)"/>
       <path id="DejaVuSans-6c" d="M 603 4863 
L 1178 4863 
L 1178 0 
L 603 0 
L 603 4863 
z
" transform="scale(0.015625)"/>
       <path id="DejaVuSans-20" transform="scale(0.015625)"/>
       <path id="DejaVuSans-79" d="M 2059 -325 
Q 1816 -950 1584 -1140 
Q 1353 -1331 966 -1331 
L 506 -1331 
L 506 -850 
L 844 -850 
Q 1081 -850 1212 -737 
Q 1344 -625 1503 -206 
L 1606 56 
L 191 3500 
L 800 3500 
L 1894 763 
L 2988 3500 
L 3597 3500 
L 2059 -325 
z
" transform="scale(0.015625)"/>
      </defs>
      <use xlink:href="#DejaVuSans-46"/>
      <use xlink:href="#DejaVuSans-69" x="50.269531"/>
      <use xlink:href="#DejaVuSans-6e" x="78.052734"/>
      <use xlink:href="#DejaVuSans-61" x="141.431641"/>
      <use xlink:href="#DejaVuSans-6c" x="202.710938"/>
      <use xlink:href="#DejaVuSans-20" x="230.494141"/>
      <use xlink:href="#DejaVuSans-79" x="262.28125"/>
      <use xlink:href="#DejaVuSans-20" x="321.460938"/>
      <use xlink:href="#DejaVuSans-6c" x="353.248047"/>
      <use xlink:href="#DejaVuSans-6f" x="381.03125"/>
      <use xlink:href="#DejaVuSans-73" x="442.212891"/>
      <use xlink:href="#DejaVuSans-73" x="494.3125"/>
     </g>
    </g>
   </g>
   <g id="PathCollection_1">
    <defs>
     <path id="me500a8d0a1" d="M 0 2 
C 0.530406 2 1.03916 1.789267 1.414214 1.414214 
C 1.789267 1.03916 2 0.530406 2 0 
C 2 -0.530406 1.789267 -1.03916 1.414214 -1.414214 
C 1.03916 -1.789267 0.530406 -2 0 -2 
C -0.530406 -2 -1.03916 -1.789267 -1.414214 -1.414214 
C -1.789267 -1.03916 -2 -0.530406 -2 0 
C -2 0.530406 -1.789267 1.03916 -1.414214 1.414214 
C -1.03916 1.789267 -0.530406 2 0 2 
z
" style="stroke: #000000"/>
    </defs>
    <g clip-path="url(#p367df96a0f)">
     <use xlink:href="#me500a8d0a1" x="84.719998" y="91.495501" style="stroke: #000000"/>
     <use xlink:href="#me500a8d0a1" x="78.646943" y="94.494319" style="stroke: #000000"/>
     <use xlink:href="#me500a8d0a1" x="166.061833" y="54.018206" style="stroke: #000000"/>
     <use xlink:href="#me500a8d0a1" x="197.213108" y="40.638588" style="stroke: #000000"/>
     <use xlink:href="#me500a8d0a1" x="196.106104" y="41.875797" style="stroke: #000000"/>
     <use xlink:href="#me500a8d0a1" x="234.049123" y="24.798959" style="stroke: #000000"/>
     <use xlink:href="#me500a8d0a1" x="188.25444" y="44.455918" style="stroke: #000000"/>
     <use xlink:href="#me500a8d0a1" x="237.3978" y="22.845205" style="stroke: #000000"/>
     <use xlink:href="#me500a8d0a1" x="105.784395" y="82.274619" style="stroke: #000000"/>
     <use xlink:href="#me500a8d0a1" x="85.774825" y="90.805469" style="stroke: #000000"/>
     <use xlink:href="#me500a8d0a1" x="251.883109" y="17.029865" style="stroke: #000000"/>
     <use xlink:href="#me500a8d0a1" x="234.655719" y="23.949001" style="stroke: #000000"/>
     <use xlink:href="#me500a8d0a1" x="265.978186" y="9.978487" style="stroke: #000000"/>
     <use xlink:href="#me500a8d0a1" x="129.962034" y="71.258085" style="stroke: #000000"/>
     <use xlink:href="#me500a8d0a1" x="187.480625" y="44.958763" style="stroke: #000000"/>
     <use xlink:href="#me500a8d0a1" x="196.294973" y="40.689298" style="stroke: #000000"/>
     <use xlink:href="#me500a8d0a1" x="83.436601" y="91.394862" style="stroke: #000000"/>
     <use xlink:href="#me500a8d0a1" x="150.928753" y="61.035955" style="stroke: #000000"/>
     <use xlink:href="#me500a8d0a1" x="82.409328" y="92.074523" style="stroke: #000000"/>
     <use xlink:href="#me500a8d0a1" x="214.491504" y="34.139629" style="stroke: #000000"/>
     <use xlink:href="#me500a8d0a1" x="232.083159" y="24.978466" style="stroke: #000000"/>
     <use xlink:href="#me500a8d0a1" x="259.269659" y="13.838314" style="stroke: #000000"/>
     <use xlink:href="#me500a8d0a1" x="95.93646" y="87.070912" style="stroke: #000000"/>
     <use xlink:href="#me500a8d0a1" x="203.93524" y="36.567986" style="stroke: #000000"/>
     <use xlink:href="#me500a8d0a1" x="252.607183" y="16.453729" style="stroke: #000000"/>
     <use xlink:href="#me500a8d0a1" x="235.894846" y="23.811015" style="stroke: #000000"/>
     <use xlink:href="#me500a8d0a1" x="142.499421" y="65.587704" style="stroke: #000000"/>
     <use xlink:href="#me500a8d0a1" x="223.903958" y="29.068784" style="stroke: #000000"/>
     <use xlink:href="#me500a8d0a1" x="230.590818" y="26.794854" style="stroke: #000000"/>
     <use xlink:href="#me500a8d0a1" x="252.356621" y="15.390439" style="stroke: #000000"/>
     <use xlink:href="#me500a8d0a1" x="250.67133" y="16.704236" style="stroke: #000000"/>
     <use xlink:href="#me500a8d0a1" x="96.64965" y="86.687923" style="stroke: #000000"/>
     <use xlink:href="#me500a8d0a1" x="249.312594" y="18.027654" style="stroke: #000000"/>
     <use xlink:href="#me500a8d0a1" x="223.730508" y="29.287064" style="stroke: #000000"/>
     <use xlink:href="#me500a8d0a1" x="194.966644" y="41.89102" style="stroke: #000000"/>
     <use xlink:href="#me500a8d0a1" x="193.936873" y="42.995443" style="stroke: #000000"/>
     <use xlink:href="#me500a8d0a1" x="159.800738" y="57.896734" style="stroke: #000000"/>
     <use xlink:href="#me500a8d0a1" x="270.485077" y="7.373343" style="stroke: #000000"/>
     <use xlink:href="#me500a8d0a1" x="98.481887" y="85.530337" style="stroke: #000000"/>
     <use xlink:href="#me500a8d0a1" x="248.872304" y="17.17019" style="stroke: #000000"/>
     <use xlink:href="#me500a8d0a1" x="80.332467" y="92.631211" style="stroke: #000000"/>
     <use xlink:href="#me500a8d0a1" x="227.761464" y="27.767858" style="stroke: #000000"/>
     <use xlink:href="#me500a8d0a1" x="202.678454" y="38.330746" style="stroke: #000000"/>
     <use xlink:href="#me500a8d0a1" x="220.160611" y="30.323777" style="stroke: #000000"/>
     <use xlink:href="#me500a8d0a1" x="203.467875" y="37.636247" style="stroke: #000000"/>
     <use xlink:href="#me500a8d0a1" x="59.928" y="101.907731" style="stroke: #000000"/>
     <use xlink:href="#me500a8d0a1" x="155.816464" y="59.501225" style="stroke: #000000"/>
     <use xlink:href="#me500a8d0a1" x="151.821759" y="61.745954" style="stroke: #000000"/>
     <use xlink:href="#me500a8d0a1" x="97.982836" y="85.48162" style="stroke: #000000"/>
     <use xlink:href="#me500a8d0a1" x="113.334186" y="78.415394" style="stroke: #000000"/>
     <use xlink:href="#me500a8d0a1" x="162.14453" y="56.917995" style="stroke: #000000"/>
     <use xlink:href="#me500a8d0a1" x="190.476211" y="43.822304" style="stroke: #000000"/>
     <use xlink:href="#me500a8d0a1" x="135.984076" y="68.711093" style="stroke: #000000"/>
     <use xlink:href="#me500a8d0a1" x="252.790264" y="15.218909" style="stroke: #000000"/>
     <use xlink:href="#me500a8d0a1" x="65.444469" y="99.797303" style="stroke: #000000"/>
     <use xlink:href="#me500a8d0a1" x="267.481466" y="8.035811" style="stroke: #000000"/>
     <use xlink:href="#me500a8d0a1" x="156.919342" y="58.382797" style="stroke: #000000"/>
     <use xlink:href="#me500a8d0a1" x="116.707729" y="76.574989" style="stroke: #000000"/>
     <use xlink:href="#me500a8d0a1" x="83.367734" y="91.511165" style="stroke: #000000"/>
     <use xlink:href="#me500a8d0a1" x="120.276986" y="75.242563" style="stroke: #000000"/>
     <use xlink:href="#me500a8d0a1" x="72.433597" y="96.433867" style="stroke: #000000"/>
     <use xlink:href="#me500a8d0a1" x="66.997026" y="99.393148" style="stroke: #000000"/>
     <use xlink:href="#me500a8d0a1" x="157.970039" y="58.253518" style="stroke: #000000"/>
     <use xlink:href="#me500a8d0a1" x="107.721457" y="81.638312" style="stroke: #000000"/>
     <use xlink:href="#me500a8d0a1" x="168.447007" y="53.504108" style="stroke: #000000"/>
     <use xlink:href="#me500a8d0a1" x="177.292961" y="49.294104" style="stroke: #000000"/>
     <use xlink:href="#me500a8d0a1" x="186.341832" y="45.927558" style="stroke: #000000"/>
     <use xlink:href="#me500a8d0a1" x="139.125831" y="66.669505" style="stroke: #000000"/>
     <use xlink:href="#me500a8d0a1" x="140.295864" y="66.569802" style="stroke: #000000"/>
     <use xlink:href="#me500a8d0a1" x="89.820121" y="89.23796" style="stroke: #000000"/>
     <use xlink:href="#me500a8d0a1" x="250.765665" y="16.816013" style="stroke: #000000"/>
     <use xlink:href="#me500a8d0a1" x="91.997974" y="87.66717" style="stroke: #000000"/>
     <use xlink:href="#me500a8d0a1" x="115.691447" y="77.83218" style="stroke: #000000"/>
     <use xlink:href="#me500a8d0a1" x="190.750116" y="43.473893" style="stroke: #000000"/>
     <use xlink:href="#me500a8d0a1" x="196.806283" y="40.796566" style="stroke: #000000"/>
     <use xlink:href="#me500a8d0a1" x="118.89687" y="74.546493" style="stroke: #000000"/>
     <use xlink:href="#me500a8d0a1" x="85.296262" y="90.893282" style="stroke: #000000"/>
     <use xlink:href="#me500a8d0a1" x="205.909047" y="37.444151" style="stroke: #000000"/>
     <use xlink:href="#me500a8d0a1" x="114.802515" y="78.210231" style="stroke: #000000"/>
     <use xlink:href="#me500a8d0a1" x="125.881205" y="72.917791" style="stroke: #000000"/>
     <use xlink:href="#me500a8d0a1" x="278.605043" y="5.720269" style="stroke: #000000"/>
     <use xlink:href="#me500a8d0a1" x="76.329094" y="95.790045" style="stroke: #000000"/>
     <use xlink:href="#me500a8d0a1" x="65.029741" y="91.883618" style="stroke: #000000"/>
     <use xlink:href="#me500a8d0a1" x="167.460917" y="54.607694" style="stroke: #000000"/>
     <use xlink:href="#me500a8d0a1" x="80.660896" y="91.355625" style="stroke: #000000"/>
     <use xlink:href="#me500a8d0a1" x="180.663975" y="48.030567" style="stroke: #000000"/>
     <use xlink:href="#me500a8d0a1" x="125.009273" y="73.971007" style="stroke: #000000"/>
     <use xlink:href="#me500a8d0a1" x="92.832217" y="87.709552" style="stroke: #000000"/>
     <use xlink:href="#me500a8d0a1" x="90.129685" y="88.512194" style="stroke: #000000"/>
     <use xlink:href="#me500a8d0a1" x="187.074942" y="45.826276" style="stroke: #000000"/>
     <use xlink:href="#me500a8d0a1" x="93.958502" y="87.729804" style="stroke: #000000"/>
     <use xlink:href="#me500a8d0a1" x="114.630661" y="78.276506" style="stroke: #000000"/>
     <use xlink:href="#me500a8d0a1" x="85.260657" y="91.579355" style="stroke: #000000"/>
     <use xlink:href="#me500a8d0a1" x="198.818047" y="40.085832" style="stroke: #000000"/>
     <use xlink:href="#me500a8d0a1" x="209.777249" y="36.200195" style="stroke: #000000"/>
     <use xlink:href="#me500a8d0a1" x="102.215948" y="83.641496" style="stroke: #000000"/>
     <use xlink:href="#me500a8d0a1" x="271.151712" y="7.190169" style="stroke: #000000"/>
     <use xlink:href="#me500a8d0a1" x="86.040595" y="91.373171" style="stroke: #000000"/>
     <use xlink:href="#me500a8d0a1" x="140.802688" y="65.847833" style="stroke: #000000"/>
     <use xlink:href="#me500a8d0a1" x="181.376357" y="47.841971" style="stroke: #000000"/>
    </g>
   </g>
   <g id="patch_3">
    <path d="M 53.367689 104.793354 
L 53.367689 2.834646 
" style="fill: none; stroke: #000000; stroke-linejoin: miter; stroke-linecap: square"/>
   </g>
   <g id="patch_4">
    <path d="M 285.165354 104.793354 
L 285.165354 2.834646 
" style="fill: none; stroke: #000000; stroke-linejoin: miter; stroke-linecap: square"/>
   </g>
   <g id="patch_5">
    <path d="M 53.367689 104.793354 
L 285.165354 104.793354 
" style="fill: none; stroke: #000000; stroke-linejoin: miter; stroke-linecap: square"/>
   </g>
   <g id="patch_6">
    <path d="M 53.367689 2.834646 
L 285.165354 2.834646 
" style="fill: none; stroke: #000000; stroke-linejoin: miter; stroke-linecap: square"/>
   </g>
  </g>
  <g id="axes_2">
   <g id="patch_7">
    <path d="M 53.367689 248.793354 
L 285.165354 248.793354 
L 285.165354 146.834646 
L 53.367689 146.834646 
z
" style="fill: #ffffff"/>
   </g>
   <g id="matplotlib.axis_3">
    <g id="xtick_4">
     <g id="line2d_16">
      <path d="M 56.008724 248.793354 
L 56.008724 146.834646 
" clip-path="url(#pd15c3d4500)" style="fill: none; stroke: #000000; stroke-opacity: 0.1; stroke-width: 0.5; stroke-linecap: square"/>
     </g>
     <g id="line2d_17">
      <g>
       <use xlink:href="#m2ed4e5b18e" x="56.008724" y="248.793354" style="stroke: #000000; stroke-width: 0.5"/>
      </g>
     </g>
     <g id="line2d_18">
      <g>
       <use xlink:href="#mdca40bcf86" x="56.008724" y="146.834646" style="stroke: #000000; stroke-width: 0.5"/>
      </g>
     </g>
     <g id="text_8">
      <!-- $10^{-3}$ -->
      <g transform="translate(41.908724 261.411479)scale(0.12 -0.12)">
       <use xlink:href="#DejaVuSans-31" transform="translate(0 0.765625)"/>
       <use xlink:href="#DejaVuSans-30" transform="translate(63.623047 0.765625)"/>
       <use xlink:href="#DejaVuSans-2212" transform="translate(128.203125 39.046875)scale(0.7)"/>
       <use xlink:href="#DejaVuSans-33" transform="translate(186.855469 39.046875)scale(0.7)"/>
      </g>
     </g>
    </g>
    <g id="xtick_5">
     <g id="line2d_19">
      <path d="M 154.412333 248.793354 
L 154.412333 146.834646 
" clip-path="url(#pd15c3d4500)" style="fill: none; stroke: #000000; stroke-opacity: 0.1; stroke-width: 0.5; stroke-linecap: square"/>
     </g>
     <g id="line2d_20">
      <g>
       <use xlink:href="#m2ed4e5b18e" x="154.412333" y="248.793354" style="stroke: #000000; stroke-width: 0.5"/>
      </g>
     </g>
     <g id="line2d_21">
      <g>
       <use xlink:href="#mdca40bcf86" x="154.412333" y="146.834646" style="stroke: #000000; stroke-width: 0.5"/>
      </g>
     </g>
     <g id="text_9">
      <!-- $10^{-2}$ -->
      <g transform="translate(140.312333 261.411479)scale(0.12 -0.12)">
       <use xlink:href="#DejaVuSans-31" transform="translate(0 0.765625)"/>
       <use xlink:href="#DejaVuSans-30" transform="translate(63.623047 0.765625)"/>
       <use xlink:href="#DejaVuSans-2212" transform="translate(128.203125 39.046875)scale(0.7)"/>
       <use xlink:href="#DejaVuSans-32" transform="translate(186.855469 39.046875)scale(0.7)"/>
      </g>
     </g>
    </g>
    <g id="xtick_6">
     <g id="line2d_22">
      <path d="M 252.815943 248.793354 
L 252.815943 146.834646 
" clip-path="url(#pd15c3d4500)" style="fill: none; stroke: #000000; stroke-opacity: 0.1; stroke-width: 0.5; stroke-linecap: square"/>
     </g>
     <g id="line2d_23">
      <g>
       <use xlink:href="#m2ed4e5b18e" x="252.815943" y="248.793354" style="stroke: #000000; stroke-width: 0.5"/>
      </g>
     </g>
     <g id="line2d_24">
      <g>
       <use xlink:href="#mdca40bcf86" x="252.815943" y="146.834646" style="stroke: #000000; stroke-width: 0.5"/>
      </g>
     </g>
     <g id="text_10">
      <!-- $10^{-1}$ -->
      <g transform="translate(238.715943 261.411479)scale(0.12 -0.12)">
       <use xlink:href="#DejaVuSans-31" transform="translate(0 0.684375)"/>
       <use xlink:href="#DejaVuSans-30" transform="translate(63.623047 0.684375)"/>
       <use xlink:href="#DejaVuSans-2212" transform="translate(128.203125 38.965625)scale(0.7)"/>
       <use xlink:href="#DejaVuSans-31" transform="translate(186.855469 38.965625)scale(0.7)"/>
      </g>
     </g>
    </g>
    <g id="text_11">
     <!-- Noise -->
     <g transform="translate(147.074021 280.064604)scale(0.16 -0.16)">
      <use xlink:href="#DejaVuSans-4e"/>
      <use xlink:href="#DejaVuSans-6f" x="74.804688"/>
      <use xlink:href="#DejaVuSans-69" x="135.986328"/>
      <use xlink:href="#DejaVuSans-73" x="163.769531"/>
      <use xlink:href="#DejaVuSans-65" x="215.869141"/>
     </g>
    </g>
   </g>
   <g id="matplotlib.axis_4">
    <g id="ytick_3">
     <g id="line2d_25">
      <path d="M 53.367689 229.680586 
L 285.165354 229.680586 
" clip-path="url(#pd15c3d4500)" style="fill: none; stroke: #000000; stroke-opacity: 0.1; stroke-width: 0.5; stroke-linecap: square"/>
     </g>
     <g id="line2d_26">
      <g>
       <use xlink:href="#m742c48e771" x="53.367689" y="229.680586" style="stroke: #000000; stroke-width: 0.5"/>
      </g>
     </g>
     <g id="line2d_27">
      <g>
       <use xlink:href="#mca088e7237" x="285.165354" y="229.680586" style="stroke: #000000; stroke-width: 0.5"/>
      </g>
     </g>
     <g id="text_12">
      <!-- $10^{-4}$ -->
      <g transform="translate(21.667689 234.239649)scale(0.12 -0.12)">
       <use xlink:href="#DejaVuSans-31" transform="translate(0 0.684375)"/>
       <use xlink:href="#DejaVuSans-30" transform="translate(63.623047 0.684375)"/>
       <use xlink:href="#DejaVuSans-2212" transform="translate(128.203125 38.965625)scale(0.7)"/>
       <use xlink:href="#DejaVuSans-34" transform="translate(186.855469 38.965625)scale(0.7)"/>
      </g>
     </g>
    </g>
    <g id="ytick_4">
     <g id="line2d_28">
      <path d="M 53.367689 202.011886 
L 285.165354 202.011886 
" clip-path="url(#pd15c3d4500)" style="fill: none; stroke: #000000; stroke-opacity: 0.1; stroke-width: 0.5; stroke-linecap: square"/>
     </g>
     <g id="line2d_29">
      <g>
       <use xlink:href="#m742c48e771" x="53.367689" y="202.011886" style="stroke: #000000; stroke-width: 0.5"/>
      </g>
     </g>
     <g id="line2d_30">
      <g>
       <use xlink:href="#mca088e7237" x="285.165354" y="202.011886" style="stroke: #000000; stroke-width: 0.5"/>
      </g>
     </g>
     <g id="text_13">
      <!-- $10^{-3}$ -->
      <g transform="translate(21.667689 206.570949)scale(0.12 -0.12)">
       <use xlink:href="#DejaVuSans-31" transform="translate(0 0.765625)"/>
       <use xlink:href="#DejaVuSans-30" transform="translate(63.623047 0.765625)"/>
       <use xlink:href="#DejaVuSans-2212" transform="translate(128.203125 39.046875)scale(0.7)"/>
       <use xlink:href="#DejaVuSans-33" transform="translate(186.855469 39.046875)scale(0.7)"/>
      </g>
     </g>
    </g>
    <g id="ytick_5">
     <g id="line2d_31">
      <path d="M 53.367689 174.343187 
L 285.165354 174.343187 
" clip-path="url(#pd15c3d4500)" style="fill: none; stroke: #000000; stroke-opacity: 0.1; stroke-width: 0.5; stroke-linecap: square"/>
     </g>
     <g id="line2d_32">
      <g>
       <use xlink:href="#m742c48e771" x="53.367689" y="174.343187" style="stroke: #000000; stroke-width: 0.5"/>
      </g>
     </g>
     <g id="line2d_33">
      <g>
       <use xlink:href="#mca088e7237" x="285.165354" y="174.343187" style="stroke: #000000; stroke-width: 0.5"/>
      </g>
     </g>
     <g id="text_14">
      <!-- $10^{-2}$ -->
      <g transform="translate(21.667689 178.902249)scale(0.12 -0.12)">
       <use xlink:href="#DejaVuSans-31" transform="translate(0 0.765625)"/>
       <use xlink:href="#DejaVuSans-30" transform="translate(63.623047 0.765625)"/>
       <use xlink:href="#DejaVuSans-2212" transform="translate(128.203125 39.046875)scale(0.7)"/>
       <use xlink:href="#DejaVuSans-32" transform="translate(186.855469 39.046875)scale(0.7)"/>
      </g>
     </g>
    </g>
    <g id="text_15">
     <!-- Final p loss -->
     <g transform="translate(14.340189 241.869)rotate(-90)scale(0.16 -0.16)">
      <defs>
       <path id="DejaVuSans-70" d="M 1159 525 
L 1159 -1331 
L 581 -1331 
L 581 3500 
L 1159 3500 
L 1159 2969 
Q 1341 3281 1617 3432 
Q 1894 3584 2278 3584 
Q 2916 3584 3314 3078 
Q 3713 2572 3713 1747 
Q 3713 922 3314 415 
Q 2916 -91 2278 -91 
Q 1894 -91 1617 61 
Q 1341 213 1159 525 
z
M 3116 1747 
Q 3116 2381 2855 2742 
Q 2594 3103 2138 3103 
Q 1681 3103 1420 2742 
Q 1159 2381 1159 1747 
Q 1159 1113 1420 752 
Q 1681 391 2138 391 
Q 2594 391 2855 752 
Q 3116 1113 3116 1747 
z
" transform="scale(0.015625)"/>
      </defs>
      <use xlink:href="#DejaVuSans-46"/>
      <use xlink:href="#DejaVuSans-69" x="50.269531"/>
      <use xlink:href="#DejaVuSans-6e" x="78.052734"/>
      <use xlink:href="#DejaVuSans-61" x="141.431641"/>
      <use xlink:href="#DejaVuSans-6c" x="202.710938"/>
      <use xlink:href="#DejaVuSans-20" x="230.494141"/>
      <use xlink:href="#DejaVuSans-70" x="262.28125"/>
      <use xlink:href="#DejaVuSans-20" x="325.757812"/>
      <use xlink:href="#DejaVuSans-6c" x="357.544922"/>
      <use xlink:href="#DejaVuSans-6f" x="385.328125"/>
      <use xlink:href="#DejaVuSans-73" x="446.509766"/>
      <use xlink:href="#DejaVuSans-73" x="498.609375"/>
     </g>
    </g>
   </g>
   <g id="PathCollection_2">
    <g clip-path="url(#pd15c3d4500)">
     <use xlink:href="#me500a8d0a1" x="84.719998" y="221.524017" style="stroke: #000000"/>
     <use xlink:href="#me500a8d0a1" x="78.646943" y="207.973609" style="stroke: #000000"/>
     <use xlink:href="#me500a8d0a1" x="166.061833" y="189.606276" style="stroke: #000000"/>
     <use xlink:href="#me500a8d0a1" x="197.213108" y="177.909757" style="stroke: #000000"/>
     <use xlink:href="#me500a8d0a1" x="196.106104" y="186.831148" style="stroke: #000000"/>
     <use xlink:href="#me500a8d0a1" x="234.049123" y="162.848013" style="stroke: #000000"/>
     <use xlink:href="#me500a8d0a1" x="188.25444" y="181.002744" style="stroke: #000000"/>
     <use xlink:href="#me500a8d0a1" x="237.3978" y="162.153745" style="stroke: #000000"/>
     <use xlink:href="#me500a8d0a1" x="105.784395" y="211.894601" style="stroke: #000000"/>
     <use xlink:href="#me500a8d0a1" x="85.774825" y="208.796826" style="stroke: #000000"/>
     <use xlink:href="#me500a8d0a1" x="251.883109" y="163.688385" style="stroke: #000000"/>
     <use xlink:href="#me500a8d0a1" x="234.655719" y="167.078608" style="stroke: #000000"/>
     <use xlink:href="#me500a8d0a1" x="265.978186" y="182.005285" style="stroke: #000000"/>
     <use xlink:href="#me500a8d0a1" x="129.962034" y="208.902597" style="stroke: #000000"/>
     <use xlink:href="#me500a8d0a1" x="187.480625" y="177.584106" style="stroke: #000000"/>
     <use xlink:href="#me500a8d0a1" x="196.294973" y="187.903993" style="stroke: #000000"/>
     <use xlink:href="#me500a8d0a1" x="83.436601" y="227.466646" style="stroke: #000000"/>
     <use xlink:href="#me500a8d0a1" x="150.928753" y="193.877269" style="stroke: #000000"/>
     <use xlink:href="#me500a8d0a1" x="82.409328" y="201.251145" style="stroke: #000000"/>
     <use xlink:href="#me500a8d0a1" x="214.491504" y="175.402978" style="stroke: #000000"/>
     <use xlink:href="#me500a8d0a1" x="232.083159" y="163.046183" style="stroke: #000000"/>
     <use xlink:href="#me500a8d0a1" x="259.269659" y="175.711703" style="stroke: #000000"/>
     <use xlink:href="#me500a8d0a1" x="95.93646" y="245.907731" style="stroke: #000000"/>
     <use xlink:href="#me500a8d0a1" x="203.93524" y="176.78485" style="stroke: #000000"/>
     <use xlink:href="#me500a8d0a1" x="252.607183" y="170.559595" style="stroke: #000000"/>
     <use xlink:href="#me500a8d0a1" x="235.894846" y="168.286473" style="stroke: #000000"/>
     <use xlink:href="#me500a8d0a1" x="142.499421" y="198.637823" style="stroke: #000000"/>
     <use xlink:href="#me500a8d0a1" x="223.903958" y="168.536417" style="stroke: #000000"/>
     <use xlink:href="#me500a8d0a1" x="230.590818" y="170.572872" style="stroke: #000000"/>
     <use xlink:href="#me500a8d0a1" x="252.356621" y="161.692224" style="stroke: #000000"/>
     <use xlink:href="#me500a8d0a1" x="250.67133" y="156.484912" style="stroke: #000000"/>
     <use xlink:href="#me500a8d0a1" x="96.64965" y="213.619024" style="stroke: #000000"/>
     <use xlink:href="#me500a8d0a1" x="249.312594" y="163.846599" style="stroke: #000000"/>
     <use xlink:href="#me500a8d0a1" x="223.730508" y="169.02097" style="stroke: #000000"/>
     <use xlink:href="#me500a8d0a1" x="194.966644" y="187.821255" style="stroke: #000000"/>
     <use xlink:href="#me500a8d0a1" x="193.936873" y="178.108145" style="stroke: #000000"/>
     <use xlink:href="#me500a8d0a1" x="159.800738" y="179.963824" style="stroke: #000000"/>
     <use xlink:href="#me500a8d0a1" x="270.485077" y="166.427267" style="stroke: #000000"/>
     <use xlink:href="#me500a8d0a1" x="98.481887" y="218.883985" style="stroke: #000000"/>
     <use xlink:href="#me500a8d0a1" x="248.872304" y="176.201469" style="stroke: #000000"/>
     <use xlink:href="#me500a8d0a1" x="80.332467" y="219.483758" style="stroke: #000000"/>
     <use xlink:href="#me500a8d0a1" x="227.761464" y="167.307418" style="stroke: #000000"/>
     <use xlink:href="#me500a8d0a1" x="202.678454" y="188.92077" style="stroke: #000000"/>
     <use xlink:href="#me500a8d0a1" x="220.160611" y="169.16194" style="stroke: #000000"/>
     <use xlink:href="#me500a8d0a1" x="203.467875" y="173.406947" style="stroke: #000000"/>
     <use xlink:href="#me500a8d0a1" x="59.928" y="231.096349" style="stroke: #000000"/>
     <use xlink:href="#me500a8d0a1" x="155.816464" y="194.141144" style="stroke: #000000"/>
     <use xlink:href="#me500a8d0a1" x="151.821759" y="188.793289" style="stroke: #000000"/>
     <use xlink:href="#me500a8d0a1" x="97.982836" y="211.315476" style="stroke: #000000"/>
     <use xlink:href="#me500a8d0a1" x="113.334186" y="191.842111" style="stroke: #000000"/>
     <use xlink:href="#me500a8d0a1" x="162.14453" y="192.397474" style="stroke: #000000"/>
     <use xlink:href="#me500a8d0a1" x="190.476211" y="180.188306" style="stroke: #000000"/>
     <use xlink:href="#me500a8d0a1" x="135.984076" y="209.265751" style="stroke: #000000"/>
     <use xlink:href="#me500a8d0a1" x="252.790264" y="166.576832" style="stroke: #000000"/>
     <use xlink:href="#me500a8d0a1" x="65.444469" y="218.501999" style="stroke: #000000"/>
     <use xlink:href="#me500a8d0a1" x="267.481466" y="149.720269" style="stroke: #000000"/>
     <use xlink:href="#me500a8d0a1" x="156.919342" y="193.223918" style="stroke: #000000"/>
     <use xlink:href="#me500a8d0a1" x="116.707729" y="199.836311" style="stroke: #000000"/>
     <use xlink:href="#me500a8d0a1" x="83.367734" y="209.554513" style="stroke: #000000"/>
     <use xlink:href="#me500a8d0a1" x="120.276986" y="195.114484" style="stroke: #000000"/>
     <use xlink:href="#me500a8d0a1" x="72.433597" y="214.823967" style="stroke: #000000"/>
     <use xlink:href="#me500a8d0a1" x="66.997026" y="207.897076" style="stroke: #000000"/>
     <use xlink:href="#me500a8d0a1" x="157.970039" y="202.156869" style="stroke: #000000"/>
     <use xlink:href="#me500a8d0a1" x="107.721457" y="214.297379" style="stroke: #000000"/>
     <use xlink:href="#me500a8d0a1" x="168.447007" y="212.680455" style="stroke: #000000"/>
     <use xlink:href="#me500a8d0a1" x="177.292961" y="192.180827" style="stroke: #000000"/>
     <use xlink:href="#me500a8d0a1" x="186.341832" y="179.732137" style="stroke: #000000"/>
     <use xlink:href="#me500a8d0a1" x="139.125831" y="189.267789" style="stroke: #000000"/>
     <use xlink:href="#me500a8d0a1" x="140.295864" y="205.483591" style="stroke: #000000"/>
     <use xlink:href="#me500a8d0a1" x="89.820121" y="209.380533" style="stroke: #000000"/>
     <use xlink:href="#me500a8d0a1" x="250.765665" y="153.358488" style="stroke: #000000"/>
     <use xlink:href="#me500a8d0a1" x="91.997974" y="209.568761" style="stroke: #000000"/>
     <use xlink:href="#me500a8d0a1" x="115.691447" y="202.158447" style="stroke: #000000"/>
     <use xlink:href="#me500a8d0a1" x="190.750116" y="187.751195" style="stroke: #000000"/>
     <use xlink:href="#me500a8d0a1" x="196.806283" y="180.118787" style="stroke: #000000"/>
     <use xlink:href="#me500a8d0a1" x="118.89687" y="201.285883" style="stroke: #000000"/>
     <use xlink:href="#me500a8d0a1" x="85.296262" y="220.619098" style="stroke: #000000"/>
     <use xlink:href="#me500a8d0a1" x="205.909047" y="173.785358" style="stroke: #000000"/>
     <use xlink:href="#me500a8d0a1" x="114.802515" y="207.970432" style="stroke: #000000"/>
     <use xlink:href="#me500a8d0a1" x="125.881205" y="197.447628" style="stroke: #000000"/>
     <use xlink:href="#me500a8d0a1" x="278.605043" y="154.921103" style="stroke: #000000"/>
     <use xlink:href="#me500a8d0a1" x="76.329094" y="208.881028" style="stroke: #000000"/>
     <use xlink:href="#me500a8d0a1" x="65.029741" y="180.855195" style="stroke: #000000"/>
     <use xlink:href="#me500a8d0a1" x="167.460917" y="189.458409" style="stroke: #000000"/>
     <use xlink:href="#me500a8d0a1" x="80.660896" y="219.514684" style="stroke: #000000"/>
     <use xlink:href="#me500a8d0a1" x="180.663975" y="184.039767" style="stroke: #000000"/>
     <use xlink:href="#me500a8d0a1" x="125.009273" y="194.003247" style="stroke: #000000"/>
     <use xlink:href="#me500a8d0a1" x="92.832217" y="221.640963" style="stroke: #000000"/>
     <use xlink:href="#me500a8d0a1" x="90.129685" y="202.8723" style="stroke: #000000"/>
     <use xlink:href="#me500a8d0a1" x="187.074942" y="177.62615" style="stroke: #000000"/>
     <use xlink:href="#me500a8d0a1" x="93.958502" y="228.398991" style="stroke: #000000"/>
     <use xlink:href="#me500a8d0a1" x="114.630661" y="207.632231" style="stroke: #000000"/>
     <use xlink:href="#me500a8d0a1" x="85.260657" y="211.446711" style="stroke: #000000"/>
     <use xlink:href="#me500a8d0a1" x="198.818047" y="178.943912" style="stroke: #000000"/>
     <use xlink:href="#me500a8d0a1" x="209.777249" y="175.624728" style="stroke: #000000"/>
     <use xlink:href="#me500a8d0a1" x="102.215948" y="204.297786" style="stroke: #000000"/>
     <use xlink:href="#me500a8d0a1" x="271.151712" y="171.36053" style="stroke: #000000"/>
     <use xlink:href="#me500a8d0a1" x="86.040595" y="224.588471" style="stroke: #000000"/>
     <use xlink:href="#me500a8d0a1" x="140.802688" y="200.959271" style="stroke: #000000"/>
     <use xlink:href="#me500a8d0a1" x="181.376357" y="186.527598" style="stroke: #000000"/>
    </g>
   </g>
   <g id="patch_8">
    <path d="M 53.367689 248.793354 
L 53.367689 146.834646 
" style="fill: none; stroke: #000000; stroke-linejoin: miter; stroke-linecap: square"/>
   </g>
   <g id="patch_9">
    <path d="M 285.165354 248.793354 
L 285.165354 146.834646 
" style="fill: none; stroke: #000000; stroke-linejoin: miter; stroke-linecap: square"/>
   </g>
   <g id="patch_10">
    <path d="M 53.367689 248.793354 
L 285.165354 248.793354 
" style="fill: none; stroke: #000000; stroke-linejoin: miter; stroke-linecap: square"/>
   </g>
   <g id="patch_11">
    <path d="M 53.367689 146.834646 
L 285.165354 146.834646 
" style="fill: none; stroke: #000000; stroke-linejoin: miter; stroke-linecap: square"/>
   </g>
  </g>
 </g>
 <defs>
  <clipPath id="p367df96a0f">
   <rect x="53.367689" y="2.834646" width="231.797666" height="101.958709"/>
  </clipPath>
  <clipPath id="pd15c3d4500">
   <rect x="53.367689" y="146.834646" width="231.797666" height="101.958709"/>
  </clipPath>
 </defs>
</svg>
