<?xml version="1.0" encoding="utf-8" standalone="no"?>
<!DOCTYPE svg PUBLIC "-//W3C//DTD SVG 1.1//EN"
  "http://www.w3.org/Graphics/SVG/1.1/DTD/svg11.dtd">
<svg xmlns:xlink="http://www.w3.org/1999/xlink" width="432pt" height="288pt" viewBox="0 0 432 288" xmlns="http://www.w3.org/2000/svg" version="1.1">
 <metadata>
  <rdf:RDF xmlns:dc="http://purl.org/dc/elements/1.1/" xmlns:cc="http://creativecommons.org/ns#" xmlns:rdf="http://www.w3.org/1999/02/22-rdf-syntax-ns#">
   <cc:Work>
    <dc:type rdf:resource="http://purl.org/dc/dcmitype/StillImage"/>
    <dc:date>2021-12-20T00:28:40.543623</dc:date>
    <dc:format>image/svg+xml</dc:format>
    <dc:creator>
     <cc:Agent>
      <dc:title>Matplotlib v3.5.0, https://matplotlib.org/</dc:title>
     </cc:Agent>
    </dc:creator>
   </cc:Work>
  </rdf:RDF>
 </metadata>
 <defs>
  <style type="text/css">*{stroke-linejoin: round; stroke-linecap: butt}</style>
 </defs>
 <g id="figure_1">
  <g id="patch_1">
   <path d="M 0 288 
L 432 288 
L 432 0 
L 0 0 
z
" style="fill: #ffffff"/>
  </g>
  <g id="axes_1">
   <g id="patch_2">
    <path d="M 29.812253 248.793354 
L 429.165354 248.793354 
L 429.165354 24.674646 
L 29.812253 24.674646 
z
" style="fill: #ffffff"/>
   </g>
   <g id="matplotlib.axis_1">
    <g id="xtick_1">
     <g id="line2d_1">
      <path d="M 166.697436 248.793354 
L 166.697436 24.674646 
" clip-path="url(#p0b8d126c7b)" style="fill: none; stroke: #000000; stroke-opacity: 0.1; stroke-width: 0.5; stroke-linecap: square"/>
     </g>
     <g id="line2d_2">
      <defs>
       <path id="m9a28ed6ffd" d="M 0 0 
L 0 -2.5 
" style="stroke: #000000; stroke-width: 0.5"/>
      </defs>
      <g>
       <use xlink:href="#m9a28ed6ffd" x="166.697436" y="248.793354" style="stroke: #000000; stroke-width: 0.5"/>
      </g>
     </g>
     <g id="text_1">
      <!-- $10^{0}$ -->
      <g transform="translate(156.137436 261.411479)scale(0.12 -0.12)">
       <defs>
        <path id="DejaVuSans-31" d="M 794 531 
L 1825 531 
L 1825 4091 
L 703 3866 
L 703 4441 
L 1819 4666 
L 2450 4666 
L 2450 531 
L 3481 531 
L 3481 0 
L 794 0 
L 794 531 
z
" transform="scale(0.015625)"/>
        <path id="DejaVuSans-30" d="M 2034 4250 
Q 1547 4250 1301 3770 
Q 1056 3291 1056 2328 
Q 1056 1369 1301 889 
Q 1547 409 2034 409 
Q 2525 409 2770 889 
Q 3016 1369 3016 2328 
Q 3016 3291 2770 3770 
Q 2525 4250 2034 4250 
z
M 2034 4750 
Q 2819 4750 3233 4129 
Q 3647 3509 3647 2328 
Q 3647 1150 3233 529 
Q 2819 -91 2034 -91 
Q 1250 -91 836 529 
Q 422 1150 422 2328 
Q 422 3509 836 4129 
Q 1250 4750 2034 4750 
z
" transform="scale(0.015625)"/>
       </defs>
       <use xlink:href="#DejaVuSans-31" transform="translate(0 0.765625)"/>
       <use xlink:href="#DejaVuSans-30" transform="translate(63.623047 0.765625)"/>
       <use xlink:href="#DejaVuSans-30" transform="translate(128.203125 39.046875)scale(0.7)"/>
      </g>
     </g>
    </g>
    <g id="xtick_2">
     <g id="line2d_3">
      <path d="M 323.675856 248.793354 
L 323.675856 24.674646 
" clip-path="url(#p0b8d126c7b)" style="fill: none; stroke: #000000; stroke-opacity: 0.1; stroke-width: 0.5; stroke-linecap: square"/>
     </g>
     <g id="line2d_4">
      <g>
       <use xlink:href="#m9a28ed6ffd" x="323.675856" y="248.793354" style="stroke: #000000; stroke-width: 0.5"/>
      </g>
     </g>
     <g id="text_2">
      <!-- $10^{5}$ -->
      <g transform="translate(313.115856 261.411479)scale(0.12 -0.12)">
       <defs>
        <path id="DejaVuSans-35" d="M 691 4666 
L 3169 4666 
L 3169 4134 
L 1269 4134 
L 1269 2991 
Q 1406 3038 1543 3061 
Q 1681 3084 1819 3084 
Q 2600 3084 3056 2656 
Q 3513 2228 3513 1497 
Q 3513 744 3044 326 
Q 2575 -91 1722 -91 
Q 1428 -91 1123 -41 
Q 819 9 494 109 
L 494 744 
Q 775 591 1075 516 
Q 1375 441 1709 441 
Q 2250 441 2565 725 
Q 2881 1009 2881 1497 
Q 2881 1984 2565 2268 
Q 2250 2553 1709 2553 
Q 1456 2553 1204 2497 
Q 953 2441 691 2322 
L 691 4666 
z
" transform="scale(0.015625)"/>
       </defs>
       <use xlink:href="#DejaVuSans-31" transform="translate(0 0.684375)"/>
       <use xlink:href="#DejaVuSans-30" transform="translate(63.623047 0.684375)"/>
       <use xlink:href="#DejaVuSans-35" transform="translate(128.203125 38.965625)scale(0.7)"/>
      </g>
     </g>
    </g>
    <g id="xtick_3">
     <g id="line2d_5">
      <defs>
       <path id="mde1e649c5a" d="M 0 0 
L 0 2 
" style="stroke: #000000; stroke-width: 0.6"/>
      </defs>
      <g>
       <use xlink:href="#mde1e649c5a" x="41.114699" y="248.793354" style="stroke: #000000; stroke-width: 0.6"/>
      </g>
     </g>
    </g>
    <g id="xtick_4">
     <g id="line2d_6">
      <g>
       <use xlink:href="#mde1e649c5a" x="72.510383" y="248.793354" style="stroke: #000000; stroke-width: 0.6"/>
      </g>
     </g>
    </g>
    <g id="xtick_5">
     <g id="line2d_7">
      <g>
       <use xlink:href="#mde1e649c5a" x="103.906067" y="248.793354" style="stroke: #000000; stroke-width: 0.6"/>
      </g>
     </g>
    </g>
    <g id="xtick_6">
     <g id="line2d_8">
      <g>
       <use xlink:href="#mde1e649c5a" x="135.301752" y="248.793354" style="stroke: #000000; stroke-width: 0.6"/>
      </g>
     </g>
    </g>
    <g id="xtick_7">
     <g id="line2d_9">
      <g>
       <use xlink:href="#mde1e649c5a" x="198.09312" y="248.793354" style="stroke: #000000; stroke-width: 0.6"/>
      </g>
     </g>
    </g>
    <g id="xtick_8">
     <g id="line2d_10">
      <g>
       <use xlink:href="#mde1e649c5a" x="229.488804" y="248.793354" style="stroke: #000000; stroke-width: 0.6"/>
      </g>
     </g>
    </g>
    <g id="xtick_9">
     <g id="line2d_11">
      <g>
       <use xlink:href="#mde1e649c5a" x="260.884488" y="248.793354" style="stroke: #000000; stroke-width: 0.6"/>
      </g>
     </g>
    </g>
    <g id="xtick_10">
     <g id="line2d_12">
      <g>
       <use xlink:href="#mde1e649c5a" x="292.280172" y="248.793354" style="stroke: #000000; stroke-width: 0.6"/>
      </g>
     </g>
    </g>
    <g id="xtick_11">
     <g id="line2d_13">
      <g>
       <use xlink:href="#mde1e649c5a" x="355.07154" y="248.793354" style="stroke: #000000; stroke-width: 0.6"/>
      </g>
     </g>
    </g>
    <g id="xtick_12">
     <g id="line2d_14">
      <g>
       <use xlink:href="#mde1e649c5a" x="386.467224" y="248.793354" style="stroke: #000000; stroke-width: 0.6"/>
      </g>
     </g>
    </g>
    <g id="xtick_13">
     <g id="line2d_15">
      <g>
       <use xlink:href="#mde1e649c5a" x="417.862908" y="248.793354" style="stroke: #000000; stroke-width: 0.6"/>
      </g>
     </g>
    </g>
    <g id="text_3">
     <!-- t [s] -->
     <g transform="translate(213.400054 280.064604)scale(0.16 -0.16)">
      <defs>
       <path id="DejaVuSans-74" d="M 1172 4494 
L 1172 3500 
L 2356 3500 
L 2356 3053 
L 1172 3053 
L 1172 1153 
Q 1172 725 1289 603 
Q 1406 481 1766 481 
L 2356 481 
L 2356 0 
L 1766 0 
Q 1100 0 847 248 
Q 594 497 594 1153 
L 594 3053 
L 172 3053 
L 172 3500 
L 594 3500 
L 594 4494 
L 1172 4494 
z
" transform="scale(0.015625)"/>
       <path id="DejaVuSans-20" transform="scale(0.015625)"/>
       <path id="DejaVuSans-5b" d="M 550 4863 
L 1875 4863 
L 1875 4416 
L 1125 4416 
L 1125 -397 
L 1875 -397 
L 1875 -844 
L 550 -844 
L 550 4863 
z
" transform="scale(0.015625)"/>
       <path id="DejaVuSans-73" d="M 2834 3397 
L 2834 2853 
Q 2591 2978 2328 3040 
Q 2066 3103 1784 3103 
Q 1356 3103 1142 2972 
Q 928 2841 928 2578 
Q 928 2378 1081 2264 
Q 1234 2150 1697 2047 
L 1894 2003 
Q 2506 1872 2764 1633 
Q 3022 1394 3022 966 
Q 3022 478 2636 193 
Q 2250 -91 1575 -91 
Q 1294 -91 989 -36 
Q 684 19 347 128 
L 347 722 
Q 666 556 975 473 
Q 1284 391 1588 391 
Q 1994 391 2212 530 
Q 2431 669 2431 922 
Q 2431 1156 2273 1281 
Q 2116 1406 1581 1522 
L 1381 1569 
Q 847 1681 609 1914 
Q 372 2147 372 2553 
Q 372 3047 722 3315 
Q 1072 3584 1716 3584 
Q 2034 3584 2315 3537 
Q 2597 3491 2834 3397 
z
" transform="scale(0.015625)"/>
       <path id="DejaVuSans-5d" d="M 1947 4863 
L 1947 -844 
L 622 -844 
L 622 -397 
L 1369 -397 
L 1369 4416 
L 622 4416 
L 622 4863 
L 1947 4863 
z
" transform="scale(0.015625)"/>
      </defs>
      <use xlink:href="#DejaVuSans-74"/>
      <use xlink:href="#DejaVuSans-20" x="39.208984"/>
      <use xlink:href="#DejaVuSans-5b" x="70.996094"/>
      <use xlink:href="#DejaVuSans-73" x="110.009766"/>
      <use xlink:href="#DejaVuSans-5d" x="162.109375"/>
     </g>
    </g>
   </g>
   <g id="matplotlib.axis_2">
    <g id="ytick_1">
     <g id="line2d_16">
      <path d="M 29.812253 226.543074 
L 429.165354 226.543074 
" clip-path="url(#p0b8d126c7b)" style="fill: none; stroke: #000000; stroke-opacity: 0.1; stroke-width: 0.5; stroke-linecap: square"/>
     </g>
     <g id="line2d_17">
      <defs>
       <path id="ma0250e3a61" d="M 0 0 
L 2.5 0 
" style="stroke: #000000; stroke-width: 0.5"/>
      </defs>
      <g>
       <use xlink:href="#ma0250e3a61" x="29.812253" y="226.543074" style="stroke: #000000; stroke-width: 0.5"/>
      </g>
     </g>
     <g id="text_4">
      <!-- $0$ -->
      <g transform="translate(18.632253 231.102137)scale(0.12 -0.12)">
       <use xlink:href="#DejaVuSans-30" transform="translate(0 0.78125)"/>
      </g>
     </g>
    </g>
    <g id="ytick_2">
     <g id="line2d_18">
      <path d="M 29.812253 185.169654 
L 429.165354 185.169654 
" clip-path="url(#p0b8d126c7b)" style="fill: none; stroke: #000000; stroke-opacity: 0.1; stroke-width: 0.5; stroke-linecap: square"/>
     </g>
     <g id="line2d_19">
      <g>
       <use xlink:href="#ma0250e3a61" x="29.812253" y="185.169654" style="stroke: #000000; stroke-width: 0.5"/>
      </g>
     </g>
     <g id="text_5">
      <!-- $50$ -->
      <g transform="translate(10.952253 189.728717)scale(0.12 -0.12)">
       <use xlink:href="#DejaVuSans-35" transform="translate(0 0.78125)"/>
       <use xlink:href="#DejaVuSans-30" transform="translate(63.623047 0.78125)"/>
      </g>
     </g>
    </g>
    <g id="ytick_3">
     <g id="line2d_20">
      <path d="M 29.812253 143.796234 
L 429.165354 143.796234 
" clip-path="url(#p0b8d126c7b)" style="fill: none; stroke: #000000; stroke-opacity: 0.1; stroke-width: 0.5; stroke-linecap: square"/>
     </g>
     <g id="line2d_21">
      <g>
       <use xlink:href="#ma0250e3a61" x="29.812253" y="143.796234" style="stroke: #000000; stroke-width: 0.5"/>
      </g>
     </g>
     <g id="text_6">
      <!-- $100$ -->
      <g transform="translate(3.392253 148.355297)scale(0.12 -0.12)">
       <use xlink:href="#DejaVuSans-31" transform="translate(0 0.78125)"/>
       <use xlink:href="#DejaVuSans-30" transform="translate(63.623047 0.78125)"/>
       <use xlink:href="#DejaVuSans-30" transform="translate(127.246094 0.78125)"/>
      </g>
     </g>
    </g>
    <g id="ytick_4">
     <g id="line2d_22">
      <path d="M 29.812253 102.422814 
L 429.165354 102.422814 
" clip-path="url(#p0b8d126c7b)" style="fill: none; stroke: #000000; stroke-opacity: 0.1; stroke-width: 0.5; stroke-linecap: square"/>
     </g>
     <g id="line2d_23">
      <g>
       <use xlink:href="#ma0250e3a61" x="29.812253" y="102.422814" style="stroke: #000000; stroke-width: 0.5"/>
      </g>
     </g>
     <g id="text_7">
      <!-- $150$ -->
      <g transform="translate(3.392253 106.981877)scale(0.12 -0.12)">
       <use xlink:href="#DejaVuSans-31" transform="translate(0 0.78125)"/>
       <use xlink:href="#DejaVuSans-35" transform="translate(63.623047 0.78125)"/>
       <use xlink:href="#DejaVuSans-30" transform="translate(127.246094 0.78125)"/>
      </g>
     </g>
    </g>
    <g id="ytick_5">
     <g id="line2d_24">
      <path d="M 29.812253 61.049394 
L 429.165354 61.049394 
" clip-path="url(#p0b8d126c7b)" style="fill: none; stroke: #000000; stroke-opacity: 0.1; stroke-width: 0.5; stroke-linecap: square"/>
     </g>
     <g id="line2d_25">
      <g>
       <use xlink:href="#ma0250e3a61" x="29.812253" y="61.049394" style="stroke: #000000; stroke-width: 0.5"/>
      </g>
     </g>
     <g id="text_8">
      <!-- $200$ -->
      <g transform="translate(3.392253 65.608457)scale(0.12 -0.12)">
       <defs>
        <path id="DejaVuSans-32" d="M 1228 531 
L 3431 531 
L 3431 0 
L 469 0 
L 469 531 
Q 828 903 1448 1529 
Q 2069 2156 2228 2338 
Q 2531 2678 2651 2914 
Q 2772 3150 2772 3378 
Q 2772 3750 2511 3984 
Q 2250 4219 1831 4219 
Q 1534 4219 1204 4116 
Q 875 4013 500 3803 
L 500 4441 
Q 881 4594 1212 4672 
Q 1544 4750 1819 4750 
Q 2544 4750 2975 4387 
Q 3406 4025 3406 3419 
Q 3406 3131 3298 2873 
Q 3191 2616 2906 2266 
Q 2828 2175 2409 1742 
Q 1991 1309 1228 531 
z
" transform="scale(0.015625)"/>
       </defs>
       <use xlink:href="#DejaVuSans-32" transform="translate(0 0.78125)"/>
       <use xlink:href="#DejaVuSans-30" transform="translate(63.623047 0.78125)"/>
       <use xlink:href="#DejaVuSans-30" transform="translate(127.246094 0.78125)"/>
      </g>
     </g>
    </g>
   </g>
   <g id="line2d_26">
    <path d="M 417.862908 226.542918 
L 417.862908 226.543084 
L 417.862908 226.543134 
L 417.862908 226.543136 
L 417.862908 226.543137 
L 417.862908 226.543137 
L 417.862908 226.543137 
L 417.862908 226.543137 
L 417.862908 226.543137 
L 417.862908 226.543137 
L 417.862908 226.543137 
L 417.862908 226.543137 
L 417.862908 226.543137 
L 417.862904 226.543137 
L 417.862868 226.543137 
L 417.862509 226.543136 
L 417.858917 226.543136 
L 417.822943 226.543134 
L 417.700854 226.543125 
L 417.558587 226.543114 
L 417.488241 226.54311 
L 417.384891 226.543102 
L 417.117344 226.543085 
L 416.925029 226.543073 
L 416.625801 226.543055 
L 416.319857 226.543038 
L 416.042531 226.543023 
L 415.755605 226.543009 
L 415.416074 226.542993 
L 415.190931 226.542983 
L 414.86729 226.54297 
L 414.585053 226.542959 
L 414.200807 226.542944 
L 413.805418 226.542931 
L 413.43811 226.542919 
L 413.107898 226.542909 
L 412.66393 226.542896 
L 412.205019 226.542884 
L 411.774886 226.542874 
L 411.379316 226.542865 
L 410.852157 226.542854 
L 410.303795 226.542843 
L 410.174169 226.542841 
" clip-path="url(#p0b8d126c7b)" style="fill: none; stroke: #009afa"/>
   </g>
   <g id="line2d_27">
    <path d="M 417.862908 240.151107 
L 417.862908 229.816608 
L 417.862908 226.713848 
L 417.862908 226.557077 
L 417.862908 226.544832 
L 417.862908 226.543399 
L 417.862908 226.543181 
L 417.862908 226.543144 
L 417.862908 226.543137 
L 417.862908 226.543137 
L 417.862908 226.543137 
L 417.862908 226.543137 
L 417.862908 226.543137 
L 417.862904 226.543137 
L 417.862868 226.543137 
L 417.862509 226.543136 
L 417.858917 226.543136 
L 417.822943 226.543134 
L 417.700854 226.543125 
L 417.558587 226.543114 
L 417.488241 226.54311 
L 417.384891 226.543102 
L 417.117344 226.543085 
L 416.925029 226.543073 
L 416.625801 226.543055 
L 416.319857 226.543038 
L 416.042531 226.543023 
L 415.755605 226.543009 
L 415.416074 226.542993 
L 415.190931 226.542983 
L 414.86729 226.54297 
L 414.585053 226.542959 
L 414.200807 226.542944 
L 413.805418 226.542931 
L 413.43811 226.542919 
L 413.107898 226.542909 
L 412.66393 226.542896 
L 412.205019 226.542884 
L 411.774886 226.542874 
L 411.379316 226.542865 
L 410.852157 226.542854 
L 410.303795 226.542843 
L 410.174169 226.542841 
" clip-path="url(#p0b8d126c7b)" style="fill: none; stroke: #e36f47"/>
   </g>
   <g id="patch_3">
    <path d="M 29.812253 248.793354 
L 29.812253 24.674646 
" style="fill: none; stroke: #000000; stroke-linejoin: miter; stroke-linecap: square"/>
   </g>
   <g id="patch_4">
    <path d="M 29.812253 248.793354 
L 429.165354 248.793354 
" style="fill: none; stroke: #000000; stroke-linejoin: miter; stroke-linecap: square"/>
   </g>
   <g id="line2d_28">
    <path d="M 417.862908 226.542625 
L 417.862908 226.542625 
L 417.862908 226.542625 
L 417.862908 226.542625 
L 417.862908 226.542625 
L 417.862908 226.542625 
L 417.862908 226.542625 
L 417.862908 226.542625 
L 417.862908 226.542625 
L 417.862908 226.542625 
L 417.862908 226.542625 
L 417.862908 226.542625 
L 417.862908 226.542625 
L 417.862904 226.542625 
L 417.862868 226.542625 
L 417.862509 226.542625 
L 417.858917 226.542625 
L 417.822943 226.542625 
L 417.700854 226.542625 
L 417.558587 226.542625 
L 417.488241 226.542625 
L 417.384891 226.542625 
L 417.117344 226.542625 
L 416.925029 226.542625 
L 416.625801 226.542625 
L 416.319857 226.542625 
L 416.042531 226.542625 
L 415.755605 226.542625 
L 415.416074 226.542625 
L 415.190931 226.542625 
L 414.86729 226.542625 
L 414.585053 226.542625 
L 414.200807 226.542625 
L 413.805418 226.542625 
L 413.43811 226.542625 
L 413.107898 226.542625 
L 412.66393 226.542625 
L 412.205019 226.542625 
L 411.774886 226.542625 
L 411.379316 226.542625 
L 410.852157 226.542625 
L 410.303795 226.542625 
L 410.174169 226.542625 
" clip-path="url(#p0b8d126c7b)" style="fill: none; stroke: #3ea44e"/>
   </g>
   <g id="text_9">
    <!-- Adjoint State -->
    <g transform="translate(161.663726 18.674646)scale(0.21 -0.21)">
     <defs>
      <path id="DejaVuSans-41" d="M 2188 4044 
L 1331 1722 
L 3047 1722 
L 2188 4044 
z
M 1831 4666 
L 2547 4666 
L 4325 0 
L 3669 0 
L 3244 1197 
L 1141 1197 
L 716 0 
L 50 0 
L 1831 4666 
z
" transform="scale(0.015625)"/>
      <path id="DejaVuSans-64" d="M 2906 2969 
L 2906 4863 
L 3481 4863 
L 3481 0 
L 2906 0 
L 2906 525 
Q 2725 213 2448 61 
Q 2172 -91 1784 -91 
Q 1150 -91 751 415 
Q 353 922 353 1747 
Q 353 2572 751 3078 
Q 1150 3584 1784 3584 
Q 2172 3584 2448 3432 
Q 2725 3281 2906 2969 
z
M 947 1747 
Q 947 1113 1208 752 
Q 1469 391 1925 391 
Q 2381 391 2643 752 
Q 2906 1113 2906 1747 
Q 2906 2381 2643 2742 
Q 2381 3103 1925 3103 
Q 1469 3103 1208 2742 
Q 947 2381 947 1747 
z
" transform="scale(0.015625)"/>
      <path id="DejaVuSans-6a" d="M 603 3500 
L 1178 3500 
L 1178 -63 
Q 1178 -731 923 -1031 
Q 669 -1331 103 -1331 
L -116 -1331 
L -116 -844 
L 38 -844 
Q 366 -844 484 -692 
Q 603 -541 603 -63 
L 603 3500 
z
M 603 4863 
L 1178 4863 
L 1178 4134 
L 603 4134 
L 603 4863 
z
" transform="scale(0.015625)"/>
      <path id="DejaVuSans-6f" d="M 1959 3097 
Q 1497 3097 1228 2736 
Q 959 2375 959 1747 
Q 959 1119 1226 758 
Q 1494 397 1959 397 
Q 2419 397 2687 759 
Q 2956 1122 2956 1747 
Q 2956 2369 2687 2733 
Q 2419 3097 1959 3097 
z
M 1959 3584 
Q 2709 3584 3137 3096 
Q 3566 2609 3566 1747 
Q 3566 888 3137 398 
Q 2709 -91 1959 -91 
Q 1206 -91 779 398 
Q 353 888 353 1747 
Q 353 2609 779 3096 
Q 1206 3584 1959 3584 
z
" transform="scale(0.015625)"/>
      <path id="DejaVuSans-69" d="M 603 3500 
L 1178 3500 
L 1178 0 
L 603 0 
L 603 3500 
z
M 603 4863 
L 1178 4863 
L 1178 4134 
L 603 4134 
L 603 4863 
z
" transform="scale(0.015625)"/>
      <path id="DejaVuSans-6e" d="M 3513 2113 
L 3513 0 
L 2938 0 
L 2938 2094 
Q 2938 2591 2744 2837 
Q 2550 3084 2163 3084 
Q 1697 3084 1428 2787 
Q 1159 2491 1159 1978 
L 1159 0 
L 581 0 
L 581 3500 
L 1159 3500 
L 1159 2956 
Q 1366 3272 1645 3428 
Q 1925 3584 2291 3584 
Q 2894 3584 3203 3211 
Q 3513 2838 3513 2113 
z
" transform="scale(0.015625)"/>
      <path id="DejaVuSans-53" d="M 3425 4513 
L 3425 3897 
Q 3066 4069 2747 4153 
Q 2428 4238 2131 4238 
Q 1616 4238 1336 4038 
Q 1056 3838 1056 3469 
Q 1056 3159 1242 3001 
Q 1428 2844 1947 2747 
L 2328 2669 
Q 3034 2534 3370 2195 
Q 3706 1856 3706 1288 
Q 3706 609 3251 259 
Q 2797 -91 1919 -91 
Q 1588 -91 1214 -16 
Q 841 59 441 206 
L 441 856 
Q 825 641 1194 531 
Q 1563 422 1919 422 
Q 2459 422 2753 634 
Q 3047 847 3047 1241 
Q 3047 1584 2836 1778 
Q 2625 1972 2144 2069 
L 1759 2144 
Q 1053 2284 737 2584 
Q 422 2884 422 3419 
Q 422 4038 858 4394 
Q 1294 4750 2059 4750 
Q 2388 4750 2728 4690 
Q 3069 4631 3425 4513 
z
" transform="scale(0.015625)"/>
      <path id="DejaVuSans-61" d="M 2194 1759 
Q 1497 1759 1228 1600 
Q 959 1441 959 1056 
Q 959 750 1161 570 
Q 1363 391 1709 391 
Q 2188 391 2477 730 
Q 2766 1069 2766 1631 
L 2766 1759 
L 2194 1759 
z
M 3341 1997 
L 3341 0 
L 2766 0 
L 2766 531 
Q 2569 213 2275 61 
Q 1981 -91 1556 -91 
Q 1019 -91 701 211 
Q 384 513 384 1019 
Q 384 1609 779 1909 
Q 1175 2209 1959 2209 
L 2766 2209 
L 2766 2266 
Q 2766 2663 2505 2880 
Q 2244 3097 1772 3097 
Q 1472 3097 1187 3025 
Q 903 2953 641 2809 
L 641 3341 
Q 956 3463 1253 3523 
Q 1550 3584 1831 3584 
Q 2591 3584 2966 3190 
Q 3341 2797 3341 1997 
z
" transform="scale(0.015625)"/>
      <path id="DejaVuSans-65" d="M 3597 1894 
L 3597 1613 
L 953 1613 
Q 991 1019 1311 708 
Q 1631 397 2203 397 
Q 2534 397 2845 478 
Q 3156 559 3463 722 
L 3463 178 
Q 3153 47 2828 -22 
Q 2503 -91 2169 -91 
Q 1331 -91 842 396 
Q 353 884 353 1716 
Q 353 2575 817 3079 
Q 1281 3584 2069 3584 
Q 2775 3584 3186 3129 
Q 3597 2675 3597 1894 
z
M 3022 2063 
Q 3016 2534 2758 2815 
Q 2500 3097 2075 3097 
Q 1594 3097 1305 2825 
Q 1016 2553 972 2059 
L 3022 2063 
z
" transform="scale(0.015625)"/>
     </defs>
     <use xlink:href="#DejaVuSans-41"/>
     <use xlink:href="#DejaVuSans-64" x="66.658203"/>
     <use xlink:href="#DejaVuSans-6a" x="130.134766"/>
     <use xlink:href="#DejaVuSans-6f" x="157.917969"/>
     <use xlink:href="#DejaVuSans-69" x="219.099609"/>
     <use xlink:href="#DejaVuSans-6e" x="246.882812"/>
     <use xlink:href="#DejaVuSans-74" x="310.261719"/>
     <use xlink:href="#DejaVuSans-20" x="349.470703"/>
     <use xlink:href="#DejaVuSans-53" x="381.257812"/>
     <use xlink:href="#DejaVuSans-74" x="444.734375"/>
     <use xlink:href="#DejaVuSans-61" x="483.943359"/>
     <use xlink:href="#DejaVuSans-74" x="545.222656"/>
     <use xlink:href="#DejaVuSans-65" x="584.431641"/>
    </g>
   </g>
   <g id="line2d_29">
    <path d="M 410.174169 226.542855 
L 410.174169 226.54275 
L 410.174169 226.542719 
L 410.174169 226.542717 
L 410.174169 226.542717 
L 410.174169 226.542717 
L 410.174169 226.542717 
L 410.174169 226.542717 
L 410.174169 226.542717 
L 410.174169 226.542717 
L 410.174169 226.542717 
L 410.174169 226.542717 
L 410.174168 226.542717 
L 410.174154 226.542717 
L 410.174016 226.542717 
L 410.172643 226.542717 
L 410.158898 226.542718 
L 410.06864 226.54272 
L 409.879915 226.542725 
L 409.668556 226.54273 
L 409.558464 226.542733 
L 409.363185 226.542737 
L 408.990816 226.542746 
L 408.607992 226.542753 
L 408.264285 226.54276 
L 407.796198 226.542768 
L 407.31147 226.542776 
L 406.819972 226.542783 
L 406.357054 226.542789 
L 405.893563 226.542794 
L 405.394918 226.5428 
L 404.914347 226.542805 
L 404.278547 226.542811 
L 403.611643 226.542816 
L 402.92197 226.542821 
L 402.48543 226.542824 
" clip-path="url(#p0b8d126c7b)" style="fill: none; stroke: #c371d2"/>
   </g>
   <g id="line2d_30">
    <path d="M 410.174169 217.920366 
L 410.174169 224.461271 
L 410.174169 226.434129 
L 410.174169 226.533833 
L 410.174169 226.541634 
L 410.174169 226.542548 
L 410.174169 226.542688 
L 410.174169 226.542713 
L 410.174169 226.542717 
L 410.174169 226.542717 
L 410.174169 226.542717 
L 410.174169 226.542717 
L 410.174168 226.542717 
L 410.174154 226.542717 
L 410.174016 226.542717 
L 410.172643 226.542717 
L 410.158898 226.542718 
L 410.06864 226.54272 
L 409.879915 226.542725 
L 409.668556 226.54273 
L 409.558464 226.542733 
L 409.363185 226.542737 
L 408.990816 226.542746 
L 408.607992 226.542753 
L 408.264285 226.54276 
L 407.796198 226.542768 
L 407.31147 226.542776 
L 406.819972 226.542783 
L 406.357054 226.542789 
L 405.893563 226.542794 
L 405.394918 226.5428 
L 404.914347 226.542805 
L 404.278547 226.542811 
L 403.611643 226.542816 
L 402.92197 226.542821 
L 402.48543 226.542824 
" clip-path="url(#p0b8d126c7b)" style="fill: none; stroke: #ac8e18"/>
   </g>
   <g id="line2d_31">
    <path d="M 410.174169 226.542902 
L 410.174169 226.542902 
L 410.174169 226.542902 
L 410.174169 226.542902 
L 410.174169 226.542902 
L 410.174169 226.542902 
L 410.174169 226.542902 
L 410.174169 226.542902 
L 410.174169 226.542902 
L 410.174169 226.542902 
L 410.174169 226.542902 
L 410.174169 226.542902 
L 410.174168 226.542902 
L 410.174154 226.542902 
L 410.174016 226.542902 
L 410.172643 226.542902 
L 410.158898 226.542902 
L 410.06864 226.542902 
L 409.879915 226.542902 
L 409.668556 226.542902 
L 409.558464 226.542902 
L 409.363185 226.542902 
L 408.990816 226.542902 
L 408.607992 226.542902 
L 408.264285 226.542902 
L 407.796198 226.542902 
L 407.31147 226.542902 
L 406.819972 226.542902 
L 406.357054 226.542902 
L 405.893563 226.542902 
L 405.394918 226.542902 
L 404.914347 226.542902 
L 404.278547 226.542902 
L 403.611643 226.542902 
L 402.92197 226.542902 
L 402.48543 226.542902 
" clip-path="url(#p0b8d126c7b)" style="fill: none; stroke: #00aaae"/>
   </g>
   <g id="line2d_32">
    <path d="M 402.48543 226.542548 
L 402.48543 226.542604 
L 402.48543 226.542619 
L 402.48543 226.542619 
L 402.48543 226.542619 
L 402.48543 226.542619 
L 402.48543 226.542619 
L 402.48543 226.542619 
L 402.48543 226.542619 
L 402.48543 226.542619 
L 402.48543 226.542619 
L 402.48543 226.542619 
L 402.485425 226.542619 
L 402.485378 226.542619 
L 402.484909 226.542619 
L 402.480222 226.542619 
L 402.433257 226.542619 
L 402.066423 226.542619 
L 401.600191 226.542619 
L 401.377209 226.542618 
L 401.023443 226.542618 
L 400.085573 226.542618 
L 399.358812 226.542617 
L 398.161396 226.542617 
L 396.84861 226.542616 
L 395.838171 226.542616 
L 394.796691 226.542615 
" clip-path="url(#p0b8d126c7b)" style="fill: none; stroke: #ed5e93"/>
   </g>
   <g id="line2d_33">
    <path d="M 402.48543 231.006559 
L 402.48543 227.539173 
L 402.48543 226.594838 
L 402.48543 226.546949 
L 402.48543 226.543153 
L 402.48543 226.542703 
L 402.48543 226.542634 
L 402.48543 226.542622 
L 402.48543 226.54262 
L 402.48543 226.542619 
L 402.48543 226.542619 
L 402.48543 226.542619 
L 402.485425 226.542619 
L 402.485378 226.542619 
L 402.484909 226.542619 
L 402.480222 226.542619 
L 402.433257 226.542619 
L 402.066423 226.542619 
L 401.600191 226.542619 
L 401.377209 226.542618 
L 401.023443 226.542618 
L 400.085573 226.542618 
L 399.358812 226.542617 
L 398.161396 226.542617 
L 396.84861 226.542616 
L 395.838171 226.542616 
L 394.796691 226.542615 
" clip-path="url(#p0b8d126c7b)" style="fill: none; stroke: #c68225"/>
   </g>
   <g id="line2d_34">
    <path d="M 402.48543 226.542613 
L 402.48543 226.542613 
L 402.48543 226.542613 
L 402.48543 226.542613 
L 402.48543 226.542613 
L 402.48543 226.542613 
L 402.48543 226.542613 
L 402.48543 226.542613 
L 402.48543 226.542613 
L 402.48543 226.542613 
L 402.48543 226.542613 
L 402.48543 226.542613 
L 402.485425 226.542613 
L 402.485378 226.542613 
L 402.484909 226.542613 
L 402.480222 226.542613 
L 402.433257 226.542613 
L 402.066423 226.542613 
L 401.600191 226.542613 
L 401.377209 226.542613 
L 401.023443 226.542613 
L 400.085573 226.542613 
L 399.358812 226.542613 
L 398.161396 226.542613 
L 396.84861 226.542613 
L 395.838171 226.542613 
L 394.796691 226.542613 
" clip-path="url(#p0b8d126c7b)" style="fill: none; stroke: #00a98d"/>
   </g>
   <g id="line2d_35">
    <path d="M 394.796691 226.54259 
L 394.796691 226.542754 
L 394.796691 226.542798 
L 394.796691 226.5428 
L 394.796691 226.542801 
L 394.796691 226.542801 
L 394.796691 226.542801 
L 394.796691 226.542801 
L 394.796691 226.542801 
L 394.796691 226.542801 
L 394.796691 226.542801 
L 394.796691 226.542801 
L 394.796688 226.542801 
L 394.796663 226.542801 
L 394.796408 226.542801 
L 394.793857 226.5428 
L 394.76832 226.542799 
L 394.602272 226.542789 
L 394.38552 226.542777 
L 394.108045 226.542763 
L 393.775152 226.542746 
L 393.538098 226.542735 
L 393.175608 226.542719 
L 392.695691 226.5427 
L 392.198201 226.542682 
L 391.699551 226.542665 
L 391.086425 226.542647 
L 390.64763 226.542635 
L 389.997982 226.54262 
L 389.241661 226.542603 
L 388.645614 226.542592 
L 387.691291 226.542576 
L 387.107952 226.542567 
" clip-path="url(#p0b8d126c7b)" style="fill: none; stroke: #8e971e"/>
   </g>
   <g id="line2d_36">
    <path d="M 394.796691 239.709328 
L 394.796691 229.475081 
L 394.796691 226.696383 
L 394.796691 226.555517 
L 394.796691 226.544364 
L 394.796691 226.543044 
L 394.796691 226.542842 
L 394.796691 226.542807 
L 394.796691 226.542801 
L 394.796691 226.542801 
L 394.796691 226.542801 
L 394.796691 226.542801 
L 394.796688 226.542801 
L 394.796663 226.542801 
L 394.796408 226.542801 
L 394.793857 226.5428 
L 394.76832 226.542799 
L 394.602272 226.542789 
L 394.38552 226.542777 
L 394.108045 226.542763 
L 393.775152 226.542746 
L 393.538098 226.542735 
L 393.175608 226.542719 
L 392.695691 226.5427 
L 392.198201 226.542682 
L 391.699551 226.542665 
L 391.086425 226.542647 
L 390.64763 226.542635 
L 389.997982 226.54262 
L 389.241661 226.542603 
L 388.645614 226.542592 
L 387.691291 226.542576 
L 387.107952 226.542567 
" clip-path="url(#p0b8d126c7b)" style="fill: none; stroke: #00a9cc"/>
   </g>
   <g id="line2d_37">
    <path d="M 394.796691 226.542396 
L 394.796691 226.542396 
L 394.796691 226.542396 
L 394.796691 226.542396 
L 394.796691 226.542396 
L 394.796691 226.542396 
L 394.796691 226.542396 
L 394.796691 226.542396 
L 394.796691 226.542396 
L 394.796691 226.542396 
L 394.796691 226.542396 
L 394.796691 226.542396 
L 394.796688 226.542396 
L 394.796663 226.542396 
L 394.796408 226.542396 
L 394.793857 226.542396 
L 394.76832 226.542396 
L 394.602272 226.542396 
L 394.38552 226.542396 
L 394.108045 226.542396 
L 393.775152 226.542396 
L 393.538098 226.542396 
L 393.175608 226.542396 
L 392.695691 226.542396 
L 392.198201 226.542396 
L 391.699551 226.542396 
L 391.086425 226.542396 
L 390.64763 226.542396 
L 389.997982 226.542396 
L 389.241661 226.542396 
L 388.645614 226.542396 
L 387.691291 226.542396 
L 387.107952 226.542396 
" clip-path="url(#p0b8d126c7b)" style="fill: none; stroke: #9b7fe9"/>
   </g>
   <g id="line2d_38">
    <path d="M 387.107952 226.543076 
L 387.107952 226.543003 
L 387.107952 226.542981 
L 387.107952 226.54298 
L 387.107952 226.54298 
L 387.107952 226.54298 
L 387.107952 226.54298 
L 387.107952 226.54298 
L 387.107952 226.54298 
L 387.107952 226.54298 
L 387.107952 226.54298 
L 387.107951 226.54298 
L 387.107943 226.54298 
L 387.10786 226.54298 
L 387.107031 226.54298 
L 387.098738 226.542979 
L 387.015526 226.542975 
L 386.799621 226.542965 
L 386.550704 226.542953 
L 386.384568 226.542945 
L 386.099151 226.542933 
L 385.664083 226.542916 
L 385.214675 226.5429 
L 384.655322 226.542882 
L 384.273522 226.54287 
L 383.708352 226.542855 
L 383.072374 226.54284 
L 382.336795 226.542824 
L 381.719452 226.542812 
L 381.004062 226.5428 
L 380.160482 226.542787 
L 379.419213 226.542778 
" clip-path="url(#p0b8d126c7b)" style="fill: none; stroke: #618df6"/>
   </g>
   <g id="line2d_39">
    <path d="M 387.107952 220.559067 
L 387.107952 225.125947 
L 387.107952 226.468989 
L 387.107952 226.536906 
L 387.107952 226.542237 
L 387.107952 226.542864 
L 387.107952 226.54296 
L 387.107952 226.542977 
L 387.107952 226.54298 
L 387.107952 226.54298 
L 387.107952 226.54298 
L 387.107951 226.54298 
L 387.107943 226.54298 
L 387.10786 226.54298 
L 387.107031 226.54298 
L 387.098738 226.542979 
L 387.015526 226.542975 
L 386.799621 226.542965 
L 386.550704 226.542953 
L 386.384568 226.542945 
L 386.099151 226.542933 
L 385.664083 226.542916 
L 385.214675 226.5429 
L 384.655322 226.542882 
L 384.273522 226.54287 
L 383.708352 226.542855 
L 383.072374 226.54284 
L 382.336795 226.542824 
L 381.719452 226.542812 
L 381.004062 226.5428 
L 380.160482 226.542787 
L 379.419213 226.542778 
" clip-path="url(#p0b8d126c7b)" style="fill: none; stroke: #f06073"/>
   </g>
   <g id="line2d_40">
    <path d="M 387.107952 226.54263 
L 387.107952 226.54263 
L 387.107952 226.54263 
L 387.107952 226.54263 
L 387.107952 226.54263 
L 387.107952 226.54263 
L 387.107952 226.54263 
L 387.107952 226.54263 
L 387.107952 226.54263 
L 387.107952 226.54263 
L 387.107952 226.54263 
L 387.107951 226.54263 
L 387.107943 226.54263 
L 387.10786 226.54263 
L 387.107031 226.54263 
L 387.098738 226.54263 
L 387.015526 226.54263 
L 386.799621 226.54263 
L 386.550704 226.54263 
L 386.384568 226.54263 
L 386.099151 226.54263 
L 385.664083 226.54263 
L 385.214675 226.54263 
L 384.655322 226.54263 
L 384.273522 226.54263 
L 383.708352 226.54263 
L 383.072374 226.54263 
L 382.336795 226.54263 
L 381.719452 226.54263 
L 381.004062 226.54263 
L 380.160482 226.54263 
L 379.419213 226.54263 
" clip-path="url(#p0b8d126c7b)" style="fill: none; stroke: #dd65b6"/>
   </g>
   <g id="line2d_41">
    <path d="M 379.419213 226.542327 
L 379.419213 226.542322 
L 379.419213 226.542321 
L 379.419213 226.542321 
L 379.419213 226.542321 
L 379.419213 226.542321 
L 379.419213 226.542321 
L 379.419213 226.542321 
L 379.419213 226.542321 
L 379.419213 226.542321 
L 379.419209 226.542321 
L 379.419178 226.542321 
L 379.418859 226.542321 
L 379.415675 226.542321 
L 379.383794 226.542323 
L 379.169851 226.542339 
L 378.8901 226.542358 
L 378.530443 226.542382 
L 378.097233 226.542408 
L 377.756346 226.542426 
L 377.406716 226.542444 
L 377.04349 226.542462 
L 376.636393 226.54248 
L 376.172551 226.542499 
L 375.604706 226.54252 
L 374.822238 226.542546 
L 373.992119 226.542569 
L 373.003414 226.542593 
L 372.198956 226.54261 
L 371.730474 226.542619 
" clip-path="url(#p0b8d126c7b)" style="fill: none; stroke: #6c9f33"/>
   </g>
   <g id="line2d_42">
    <path d="M 379.419213 226.119211 
L 379.419213 226.448328 
L 379.419213 226.537393 
L 379.419213 226.54191 
L 379.419213 226.542268 
L 379.419213 226.542312 
L 379.419213 226.542319 
L 379.419213 226.542321 
L 379.419213 226.542321 
L 379.419213 226.542321 
L 379.419209 226.542321 
L 379.419178 226.542321 
L 379.418859 226.542321 
L 379.415675 226.542321 
L 379.383794 226.542323 
L 379.169851 226.542339 
L 378.8901 226.542358 
L 378.530443 226.542382 
L 378.097233 226.542408 
L 377.756346 226.542426 
L 377.406716 226.542444 
L 377.04349 226.542462 
L 376.636393 226.54248 
L 376.172551 226.542499 
L 375.604706 226.54252 
L 374.822238 226.542546 
L 373.992119 226.542569 
L 373.003414 226.542593 
L 372.198956 226.54261 
L 371.730474 226.542619 
" clip-path="url(#p0b8d126c7b)" style="fill: none; stroke: #009afa"/>
   </g>
   <g id="line2d_43">
    <path d="M 379.419213 226.542837 
L 379.419213 226.542837 
L 379.419213 226.542837 
L 379.419213 226.542837 
L 379.419213 226.542837 
L 379.419213 226.542837 
L 379.419213 226.542837 
L 379.419213 226.542837 
L 379.419213 226.542837 
L 379.419213 226.542837 
L 379.419209 226.542837 
L 379.419178 226.542837 
L 379.418859 226.542837 
L 379.415675 226.542837 
L 379.383794 226.542837 
L 379.169851 226.542837 
L 378.8901 226.542837 
L 378.530443 226.542837 
L 378.097233 226.542837 
L 377.756346 226.542837 
L 377.406716 226.542837 
L 377.04349 226.542837 
L 376.636393 226.542837 
L 376.172551 226.542837 
L 375.604706 226.542837 
L 374.822238 226.542837 
L 373.992119 226.542837 
L 373.003414 226.542837 
L 372.198956 226.542837 
L 371.730474 226.542837 
" clip-path="url(#p0b8d126c7b)" style="fill: none; stroke: #e36f47"/>
   </g>
   <g id="line2d_44">
    <path d="M 371.730474 226.54304 
L 371.730474 226.543138 
L 371.730474 226.543168 
L 371.730474 226.54317 
L 371.730474 226.54317 
L 371.730474 226.54317 
L 371.730474 226.54317 
L 371.730474 226.54317 
L 371.730474 226.54317 
L 371.730474 226.54317 
L 371.730474 226.54317 
L 371.730472 226.54317 
L 371.730453 226.54317 
L 371.730263 226.54317 
L 371.728362 226.54317 
L 371.70934 226.54317 
L 371.517647 226.543166 
L 371.155993 226.543161 
L 370.751196 226.543155 
L 370.462152 226.543151 
L 369.856748 226.543144 
L 369.176223 226.543137 
L 368.629164 226.543132 
L 367.563276 226.543124 
L 366.406943 226.543116 
L 364.998373 226.543109 
L 364.041735 226.543105 
" clip-path="url(#p0b8d126c7b)" style="fill: none; stroke: #3ea44e"/>
   </g>
   <g id="line2d_45">
    <path d="M 371.730474 234.663635 
L 371.730474 228.557854 
L 371.730474 226.648163 
L 371.730474 226.551718 
L 371.730474 226.544208 
L 371.730474 226.543331 
L 371.730474 226.543197 
L 371.730474 226.543174 
L 371.730474 226.54317 
L 371.730474 226.54317 
L 371.730474 226.54317 
L 371.730472 226.54317 
L 371.730453 226.54317 
L 371.730263 226.54317 
L 371.728362 226.54317 
L 371.70934 226.54317 
L 371.517647 226.543166 
L 371.155993 226.543161 
L 370.751196 226.543155 
L 370.462152 226.543151 
L 369.856748 226.543144 
L 369.176223 226.543137 
L 368.629164 226.543132 
L 367.563276 226.543124 
L 366.406943 226.543116 
L 364.998373 226.543109 
L 364.041735 226.543105 
" clip-path="url(#p0b8d126c7b)" style="fill: none; stroke: #c371d2"/>
   </g>
   <g id="line2d_46">
    <path d="M 371.730474 226.543057 
L 371.730474 226.543057 
L 371.730474 226.543057 
L 371.730474 226.543057 
L 371.730474 226.543057 
L 371.730474 226.543057 
L 371.730474 226.543057 
L 371.730474 226.543057 
L 371.730474 226.543057 
L 371.730474 226.543057 
L 371.730474 226.543057 
L 371.730472 226.543057 
L 371.730453 226.543057 
L 371.730263 226.543057 
L 371.728362 226.543057 
L 371.70934 226.543057 
L 371.517647 226.543057 
L 371.155993 226.543057 
L 370.751196 226.543057 
L 370.462152 226.543057 
L 369.856748 226.543057 
L 369.176223 226.543057 
L 368.629164 226.543057 
L 367.563276 226.543057 
L 366.406943 226.543057 
L 364.998373 226.543057 
L 364.041735 226.543057 
" clip-path="url(#p0b8d126c7b)" style="fill: none; stroke: #ac8e18"/>
   </g>
   <g id="line2d_47">
    <path d="M 364.041735 226.543606 
L 364.041735 226.543469 
L 364.041735 226.54343 
L 364.041735 226.543429 
L 364.041735 226.543428 
L 364.041735 226.543428 
L 364.041735 226.543428 
L 364.041735 226.543428 
L 364.041735 226.543428 
L 364.041735 226.543428 
L 364.041734 226.543428 
L 364.041731 226.543428 
L 364.0417 226.543428 
L 364.041392 226.543428 
L 364.038306 226.543428 
L 364.007408 226.543425 
L 363.764867 226.543405 
L 363.442748 226.543379 
L 363.029689 226.543349 
L 362.713667 226.543327 
L 362.294177 226.543301 
L 361.861369 226.543276 
L 361.401136 226.543251 
L 360.866519 226.543226 
L 360.146514 226.543195 
L 359.255615 226.543162 
L 358.491783 226.543138 
L 357.469527 226.54311 
L 356.364372 226.543084 
L 356.352996 226.543084 
" clip-path="url(#p0b8d126c7b)" style="fill: none; stroke: #00aaae"/>
   </g>
   <g id="line2d_48">
    <path d="M 364.041735 215.450141 
L 364.041735 223.983789 
L 364.041735 226.409616 
L 364.041735 226.532404 
L 364.041735 226.542078 
L 364.041735 226.543219 
L 364.041735 226.543393 
L 364.041735 226.543423 
L 364.041735 226.543428 
L 364.041735 226.543428 
L 364.041734 226.543428 
L 364.041731 226.543428 
L 364.0417 226.543428 
L 364.041392 226.543428 
L 364.038306 226.543428 
L 364.007408 226.543425 
L 363.764867 226.543405 
L 363.442748 226.543379 
L 363.029689 226.543349 
L 362.713667 226.543327 
L 362.294177 226.543301 
L 361.861369 226.543276 
L 361.401136 226.543251 
L 360.866519 226.543226 
L 360.146514 226.543195 
L 359.255615 226.543162 
L 358.491783 226.543138 
L 357.469527 226.54311 
L 356.364372 226.543084 
L 356.352996 226.543084 
" clip-path="url(#p0b8d126c7b)" style="fill: none; stroke: #ed5e93"/>
   </g>
   <g id="line2d_49">
    <path d="M 364.041735 226.542832 
L 364.041735 226.542832 
L 364.041735 226.542832 
L 364.041735 226.542832 
L 364.041735 226.542832 
L 364.041735 226.542832 
L 364.041735 226.542832 
L 364.041735 226.542832 
L 364.041735 226.542832 
L 364.041735 226.542832 
L 364.041734 226.542832 
L 364.041731 226.542832 
L 364.0417 226.542832 
L 364.041392 226.542832 
L 364.038306 226.542832 
L 364.007408 226.542832 
L 363.764867 226.542832 
L 363.442748 226.542832 
L 363.029689 226.542832 
L 362.713667 226.542832 
L 362.294177 226.542832 
L 361.861369 226.542832 
L 361.401136 226.542832 
L 360.866519 226.542832 
L 360.146514 226.542832 
L 359.255615 226.542832 
L 358.491783 226.542832 
L 357.469527 226.542832 
L 356.364372 226.542832 
L 356.352996 226.542832 
" clip-path="url(#p0b8d126c7b)" style="fill: none; stroke: #c68225"/>
   </g>
   <g id="line2d_50">
    <path d="M 356.352996 226.543382 
L 356.352996 226.543223 
L 356.352996 226.543176 
L 356.352996 226.543174 
L 356.352996 226.543174 
L 356.352996 226.543174 
L 356.352996 226.543174 
L 356.352996 226.543174 
L 356.352996 226.543174 
L 356.352996 226.543174 
L 356.352995 226.543174 
L 356.352991 226.543174 
L 356.352956 226.543174 
L 356.352611 226.543174 
L 356.349159 226.543174 
L 356.314587 226.543174 
L 355.981318 226.543181 
L 355.522896 226.54319 
L 354.930675 226.543201 
L 354.494135 226.543207 
L 353.969247 226.543215 
L 353.349291 226.543223 
L 352.655597 226.54323 
L 351.874895 226.543238 
L 350.739191 226.543247 
L 349.221748 226.543257 
L 348.664257 226.54326 
" clip-path="url(#p0b8d126c7b)" style="fill: none; stroke: #00a98d"/>
   </g>
   <g id="line2d_51">
    <path d="M 356.352996 213.547545 
L 356.352996 223.440907 
L 356.352996 226.381306 
L 356.352996 226.529926 
L 356.352996 226.541559 
L 356.352996 226.542924 
L 356.352996 226.543131 
L 356.352996 226.543167 
L 356.352996 226.543173 
L 356.352996 226.543174 
L 356.352995 226.543174 
L 356.352991 226.543174 
L 356.352956 226.543174 
L 356.352611 226.543174 
L 356.349159 226.543174 
L 356.314587 226.543174 
L 355.981318 226.543181 
L 355.522896 226.54319 
L 354.930675 226.543201 
L 354.494135 226.543207 
L 353.969247 226.543215 
L 353.349291 226.543223 
L 352.655597 226.54323 
L 351.874895 226.543238 
L 350.739191 226.543247 
L 349.221748 226.543257 
L 348.664257 226.54326 
" clip-path="url(#p0b8d126c7b)" style="fill: none; stroke: #8e971e"/>
   </g>
   <g id="line2d_52">
    <path d="M 356.352996 226.543324 
L 356.352996 226.543324 
L 356.352996 226.543324 
L 356.352996 226.543324 
L 356.352996 226.543324 
L 356.352996 226.543324 
L 356.352996 226.543324 
L 356.352996 226.543324 
L 356.352996 226.543324 
L 356.352996 226.543324 
L 356.352995 226.543324 
L 356.352991 226.543324 
L 356.352956 226.543324 
L 356.352611 226.543324 
L 356.349159 226.543324 
L 356.314587 226.543324 
L 355.981318 226.543324 
L 355.522896 226.543324 
L 354.930675 226.543324 
L 354.494135 226.543324 
L 353.969247 226.543324 
L 353.349291 226.543324 
L 352.655597 226.543324 
L 351.874895 226.543324 
L 350.739191 226.543324 
L 349.221748 226.543324 
L 348.664257 226.543324 
" clip-path="url(#p0b8d126c7b)" style="fill: none; stroke: #00a9cc"/>
   </g>
   <g id="line2d_53">
    <path d="M 348.664257 226.543181 
L 348.664257 226.543295 
L 348.664257 226.54333 
L 348.664257 226.543331 
L 348.664257 226.543331 
L 348.664257 226.543332 
L 348.664257 226.543332 
L 348.664257 226.543332 
L 348.664257 226.543332 
L 348.664256 226.543332 
L 348.664254 226.543332 
L 348.664243 226.543332 
L 348.664136 226.543331 
L 348.66306 226.543331 
L 348.6523 226.543331 
L 348.544227 226.543323 
L 348.183668 226.5433 
L 347.750079 226.543275 
L 347.302249 226.543251 
L 346.757419 226.543224 
L 345.953823 226.54319 
L 345.033847 226.543157 
L 344.018203 226.543127 
L 342.920772 226.543099 
L 341.649966 226.543073 
L 340.975519 226.543062 
" clip-path="url(#p0b8d126c7b)" style="fill: none; stroke: #9b7fe9"/>
   </g>
   <g id="line2d_54">
    <path d="M 348.664257 235.947958 
L 348.664257 228.815298 
L 348.664257 226.661843 
L 348.664257 226.553022 
L 348.664257 226.544512 
L 348.664257 226.543515 
L 348.664257 226.543363 
L 348.664257 226.543336 
L 348.664257 226.543332 
L 348.664256 226.543332 
L 348.664254 226.543331 
L 348.664243 226.543331 
L 348.664136 226.543331 
L 348.66306 226.543331 
L 348.6523 226.543331 
L 348.544227 226.543323 
L 348.183668 226.5433 
L 347.750079 226.543275 
L 347.302249 226.543251 
L 346.757419 226.543224 
L 345.953823 226.54319 
L 345.033847 226.543157 
L 344.018203 226.543127 
L 342.920772 226.543099 
L 341.649966 226.543073 
L 340.975519 226.543062 
" clip-path="url(#p0b8d126c7b)" style="fill: none; stroke: #618df6"/>
   </g>
   <g id="line2d_55">
    <path d="M 348.664257 226.542864 
L 348.664257 226.542864 
L 348.664257 226.542863 
L 348.664257 226.542863 
L 348.664257 226.542863 
L 348.664257 226.542863 
L 348.664257 226.542863 
L 348.664257 226.542863 
L 348.664257 226.542863 
L 348.664256 226.542863 
L 348.664254 226.542863 
L 348.664243 226.542863 
L 348.664136 226.542863 
L 348.66306 226.542863 
L 348.6523 226.542863 
L 348.544227 226.542863 
L 348.183668 226.542864 
L 347.750079 226.542864 
L 347.302249 226.542864 
L 346.757419 226.542864 
L 345.953823 226.542864 
L 345.033847 226.542864 
L 344.018203 226.542864 
L 342.920772 226.542864 
L 341.649966 226.542864 
L 340.975519 226.542864 
" clip-path="url(#p0b8d126c7b)" style="fill: none; stroke: #f06073"/>
   </g>
   <g id="line2d_56">
    <path d="M 340.975519 226.543466 
L 340.975519 226.543415 
L 340.975518 226.543401 
L 340.975518 226.5434 
L 340.975518 226.5434 
L 340.975518 226.5434 
L 340.975518 226.5434 
L 340.975518 226.5434 
L 340.975517 226.5434 
L 340.975515 226.5434 
L 340.975509 226.5434 
L 340.975467 226.5434 
L 340.975045 226.5434 
L 340.970824 226.5434 
L 340.928542 226.543395 
L 340.60781 226.543357 
L 340.181127 226.543311 
L 339.628037 226.543257 
L 338.949158 226.543199 
L 338.219264 226.543144 
L 337.390786 226.543091 
L 336.303185 226.543032 
L 335.121251 226.54298 
L 333.773882 226.542932 
L 333.28678 226.542917 
" clip-path="url(#p0b8d126c7b)" style="fill: none; stroke: #dd65b6"/>
   </g>
   <g id="line2d_57">
    <path d="M 340.975519 222.430518 
L 340.975519 225.640388 
L 340.975518 226.496031 
L 340.975518 226.539463 
L 340.975518 226.542914 
L 340.975518 226.543324 
L 340.975518 226.543387 
L 340.975518 226.543398 
L 340.975517 226.5434 
L 340.975515 226.5434 
L 340.975509 226.5434 
L 340.975467 226.5434 
L 340.975045 226.5434 
L 340.970824 226.5434 
L 340.928542 226.543395 
L 340.60781 226.543357 
L 340.181127 226.543311 
L 339.628037 226.543257 
L 338.949158 226.543199 
L 338.219264 226.543144 
L 337.390786 226.543091 
L 336.303185 226.543032 
L 335.121251 226.54298 
L 333.773882 226.542932 
L 333.28678 226.542917 
" clip-path="url(#p0b8d126c7b)" style="fill: none; stroke: #6c9f33"/>
   </g>
   <g id="line2d_58">
    <path d="M 340.975519 226.542561 
L 340.975519 226.542561 
L 340.975518 226.542561 
L 340.975518 226.542561 
L 340.975518 226.542561 
L 340.975518 226.542561 
L 340.975518 226.542561 
L 340.975518 226.542561 
L 340.975517 226.542561 
L 340.975515 226.542561 
L 340.975509 226.542561 
L 340.975467 226.542561 
L 340.975045 226.542561 
L 340.970824 226.542561 
L 340.928542 226.542561 
L 340.60781 226.542561 
L 340.181127 226.542561 
L 339.628037 226.542561 
L 338.949158 226.542561 
L 338.219264 226.542561 
L 337.390786 226.542561 
L 336.303185 226.542561 
L 335.121251 226.542561 
L 333.773882 226.542561 
L 333.28678 226.542561 
" clip-path="url(#p0b8d126c7b)" style="fill: none; stroke: #009afa"/>
   </g>
   <g id="line2d_59">
    <path d="M 333.28678 226.543556 
L 333.28678 226.543633 
L 333.286779 226.543652 
L 333.286779 226.543653 
L 333.286779 226.543653 
L 333.286779 226.543653 
L 333.286779 226.543653 
L 333.286778 226.543653 
L 333.286777 226.543653 
L 333.286774 226.543653 
L 333.286763 226.543653 
L 333.286694 226.543653 
L 333.286003 226.543653 
L 333.279095 226.543651 
L 333.209816 226.543636 
L 332.855129 226.543564 
L 332.405317 226.543479 
L 331.929636 226.543398 
L 331.231188 226.543292 
L 330.410148 226.543185 
L 329.483078 226.543082 
L 328.428144 226.542985 
L 327.252171 226.542896 
L 325.717241 226.542803 
L 325.598041 226.542797 
" clip-path="url(#p0b8d126c7b)" style="fill: none; stroke: #e36f47"/>
   </g>
   <g id="line2d_60">
    <path d="M 333.28678 232.595068 
L 333.28678 227.776324 
L 333.286779 226.608701 
L 333.286779 226.549123 
L 333.286779 226.544335 
L 333.286779 226.543761 
L 333.286779 226.543671 
L 333.286778 226.543655 
L 333.286777 226.543653 
L 333.286774 226.543653 
L 333.286763 226.543653 
L 333.286694 226.543653 
L 333.286003 226.543653 
L 333.279095 226.543651 
L 333.209816 226.543636 
L 332.855129 226.543563 
L 332.405317 226.543479 
L 331.929636 226.543397 
L 331.231188 226.543292 
L 330.410148 226.543185 
L 329.483078 226.543082 
L 328.428144 226.542985 
L 327.252171 226.542896 
L 325.717241 226.542803 
L 325.598041 226.542797 
" clip-path="url(#p0b8d126c7b)" style="fill: none; stroke: #3ea44e"/>
   </g>
   <g id="line2d_61">
    <path d="M 333.28678 226.542163 
L 333.28678 226.542163 
L 333.286779 226.542163 
L 333.286779 226.542163 
L 333.286779 226.542163 
L 333.286779 226.542163 
L 333.286779 226.542163 
L 333.286778 226.542163 
L 333.286777 226.542163 
L 333.286774 226.542163 
L 333.286763 226.542163 
L 333.286694 226.542163 
L 333.286003 226.542163 
L 333.279095 226.542163 
L 333.209816 226.542163 
L 332.855129 226.542163 
L 332.405317 226.542163 
L 331.929636 226.542163 
L 331.231188 226.542163 
L 330.410148 226.542163 
L 329.483078 226.542163 
L 328.428144 226.542163 
L 327.252171 226.542163 
L 325.717241 226.542164 
L 325.598041 226.542164 
" clip-path="url(#p0b8d126c7b)" style="fill: none; stroke: #c371d2"/>
   </g>
   <g id="line2d_62">
    <path d="M 325.598041 226.542565 
L 325.598041 226.542636 
L 325.59804 226.542652 
L 325.59804 226.542653 
L 325.59804 226.542653 
L 325.59804 226.542653 
L 325.598039 226.542653 
L 325.598038 226.542653 
L 325.598036 226.542653 
L 325.598031 226.542653 
L 325.598012 226.542653 
L 325.597894 226.542653 
L 325.596707 226.542653 
L 325.584841 226.542651 
L 325.465599 226.542635 
L 325.013941 226.542579 
L 324.451955 226.542516 
L 323.830928 226.542454 
L 322.877322 226.542372 
L 321.750333 226.542294 
L 320.475797 226.542222 
L 318.75892 226.542148 
L 317.909302 226.542118 
" clip-path="url(#p0b8d126c7b)" style="fill: none; stroke: #ac8e18"/>
   </g>
   <g id="line2d_63">
    <path d="M 325.598041 232.028265 
L 325.598041 227.579521 
L 325.59804 226.597777 
L 325.59804 226.547341 
L 325.59804 226.543242 
L 325.59804 226.542745 
L 325.598039 226.542669 
L 325.598038 226.542655 
L 325.598036 226.542653 
L 325.598031 226.542653 
L 325.598012 226.542653 
L 325.597894 226.542653 
L 325.596707 226.542653 
L 325.584841 226.542651 
L 325.465599 226.542635 
L 325.013941 226.542579 
L 324.451955 226.542515 
L 323.830928 226.542453 
L 322.877322 226.542372 
L 321.750333 226.542294 
L 320.475797 226.542222 
L 318.75892 226.542147 
L 317.909302 226.542118 
" clip-path="url(#p0b8d126c7b)" style="fill: none; stroke: #00aaae"/>
   </g>
   <g id="line2d_64">
    <path d="M 325.598041 226.541718 
L 325.598041 226.541718 
L 325.59804 226.541718 
L 325.59804 226.541718 
L 325.59804 226.541718 
L 325.59804 226.541718 
L 325.598039 226.541718 
L 325.598038 226.541718 
L 325.598036 226.541718 
L 325.598031 226.541718 
L 325.598012 226.541718 
L 325.597894 226.541718 
L 325.596707 226.541718 
L 325.584841 226.541718 
L 325.465599 226.541718 
L 325.013941 226.541718 
L 324.451955 226.541718 
L 323.830928 226.541719 
L 322.877322 226.541719 
L 321.750333 226.541719 
L 320.475797 226.541719 
L 318.75892 226.541719 
L 317.909302 226.541719 
" clip-path="url(#p0b8d126c7b)" style="fill: none; stroke: #ed5e93"/>
   </g>
   <g id="line2d_65">
    <path d="M 317.909302 226.542717 
L 317.909302 226.542548 
L 317.909301 226.542512 
L 317.909301 226.54251 
L 317.909301 226.54251 
L 317.9093 226.54251 
L 317.909299 226.54251 
L 317.909298 226.54251 
L 317.909295 226.54251 
L 317.909287 226.54251 
L 317.909265 226.54251 
L 317.909147 226.54251 
L 317.90797 226.54251 
L 317.896195 226.542508 
L 317.777882 226.542488 
L 317.289609 226.542409 
L 316.672018 226.542321 
L 316.004743 226.542237 
L 314.950601 226.542126 
L 313.686367 226.542019 
L 312.241852 226.541922 
L 310.240822 226.541822 
L 310.220563 226.541821 
" clip-path="url(#p0b8d126c7b)" style="fill: none; stroke: #c68225"/>
   </g>
   <g id="line2d_66">
    <path d="M 317.909302 213.661563 
L 317.909302 224.181676 
L 317.909301 226.416681 
L 317.909301 226.531774 
L 317.909301 226.541157 
L 317.9093 226.542296 
L 317.909299 226.542473 
L 317.909298 226.542504 
L 317.909295 226.542509 
L 317.909287 226.54251 
L 317.909265 226.54251 
L 317.909147 226.54251 
L 317.90797 226.542509 
L 317.896195 226.542507 
L 317.777882 226.542487 
L 317.289609 226.542409 
L 316.672018 226.542321 
L 316.004743 226.542237 
L 314.950601 226.542126 
L 313.686367 226.542018 
L 312.241852 226.541922 
L 310.240822 226.541821 
L 310.220563 226.541821 
" clip-path="url(#p0b8d126c7b)" style="fill: none; stroke: #00a98d"/>
   </g>
   <g id="line2d_67">
    <path d="M 317.909302 226.5413 
L 317.909302 226.5413 
L 317.909301 226.541301 
L 317.909301 226.541301 
L 317.909301 226.541301 
L 317.9093 226.541301 
L 317.909299 226.541301 
L 317.909298 226.541301 
L 317.909295 226.541301 
L 317.909287 226.541301 
L 317.909265 226.541301 
L 317.909147 226.541301 
L 317.90797 226.541301 
L 317.896195 226.541301 
L 317.777882 226.541301 
L 317.289609 226.541301 
L 316.672018 226.541301 
L 316.004743 226.541301 
L 314.950601 226.541301 
L 313.686367 226.541302 
L 312.241852 226.541302 
L 310.240822 226.541302 
L 310.220563 226.541302 
" clip-path="url(#p0b8d126c7b)" style="fill: none; stroke: #8e971e"/>
   </g>
   <g id="line2d_68">
    <path d="M 310.220563 226.542461 
L 310.220563 226.542314 
L 310.220562 226.542285 
L 310.220562 226.542284 
L 310.220561 226.542284 
L 310.22056 226.542284 
L 310.220558 226.542284 
L 310.220555 226.542284 
L 310.220549 226.542284 
L 310.220535 226.542284 
L 310.220486 226.542284 
L 310.220207 226.542284 
L 310.217417 226.542283 
L 310.189483 226.542279 
L 309.906945 226.542242 
L 309.246393 226.542161 
L 308.457473 226.542079 
L 307.43961 226.541989 
L 305.986202 226.541888 
L 304.162488 226.541794 
L 302.531824 226.54173 
" clip-path="url(#p0b8d126c7b)" style="fill: none; stroke: #00a9cc"/>
   </g>
   <g id="line2d_69">
    <path d="M 310.220563 215.485201 
L 310.220563 224.666972 
L 310.220562 226.441329 
L 310.220562 226.533564 
L 310.220561 226.541174 
L 310.22056 226.542107 
L 310.220558 226.542253 
L 310.220555 226.542279 
L 310.220549 226.542283 
L 310.220535 226.542283 
L 310.220486 226.542283 
L 310.220207 226.542283 
L 310.217417 226.542283 
L 310.189483 226.542279 
L 309.906945 226.542241 
L 309.246393 226.542161 
L 308.457473 226.542078 
L 307.43961 226.541989 
L 305.986202 226.541888 
L 304.162488 226.541793 
L 302.531824 226.541729 
" clip-path="url(#p0b8d126c7b)" style="fill: none; stroke: #9b7fe9"/>
   </g>
   <g id="line2d_70">
    <path d="M 310.220563 226.541303 
L 310.220563 226.541304 
L 310.220562 226.541304 
L 310.220562 226.541304 
L 310.220561 226.541304 
L 310.22056 226.541304 
L 310.220558 226.541304 
L 310.220555 226.541304 
L 310.220549 226.541304 
L 310.220535 226.541304 
L 310.220486 226.541304 
L 310.220207 226.541304 
L 310.217417 226.541304 
L 310.189483 226.541304 
L 309.906945 226.541304 
L 309.246393 226.541304 
L 308.457473 226.541305 
L 307.43961 226.541305 
L 305.986202 226.541305 
L 304.162488 226.541306 
L 302.531824 226.541306 
" clip-path="url(#p0b8d126c7b)" style="fill: none; stroke: #618df6"/>
   </g>
   <g id="line2d_71">
    <path d="M 302.531824 226.542419 
L 302.531823 226.542453 
L 302.531823 226.542459 
L 302.531822 226.542459 
L 302.531821 226.542459 
L 302.531819 226.542459 
L 302.531815 226.542459 
L 302.531808 226.542459 
L 302.531793 226.542459 
L 302.531746 226.542459 
L 302.531528 226.542459 
L 302.529618 226.542459 
L 302.510511 226.542455 
L 302.317952 226.542419 
L 301.676704 226.542307 
L 300.873068 226.542186 
L 299.857814 226.542059 
L 298.385458 226.541912 
L 296.505856 226.541773 
L 294.843085 226.54168 
" clip-path="url(#p0b8d126c7b)" style="fill: none; stroke: #f06073"/>
   </g>
   <g id="line2d_72">
    <path d="M 302.531824 229.048481 
L 302.531823 226.943596 
L 302.531823 226.564236 
L 302.531822 226.544355 
L 302.531821 226.5427 
L 302.531819 226.542496 
L 302.531815 226.542464 
L 302.531808 226.542459 
L 302.531793 226.542458 
L 302.531746 226.542458 
L 302.531528 226.542458 
L 302.529618 226.542457 
L 302.510511 226.542454 
L 302.317952 226.542417 
L 301.676704 226.542305 
L 300.873068 226.542185 
L 299.857814 226.542058 
L 298.385458 226.541911 
L 296.505856 226.541772 
L 294.843085 226.54168 
" clip-path="url(#p0b8d126c7b)" style="fill: none; stroke: #dd65b6"/>
   </g>
   <g id="line2d_73">
    <path d="M 302.531824 226.541065 
L 302.531823 226.541065 
L 302.531823 226.541065 
L 302.531822 226.541065 
L 302.531821 226.541065 
L 302.531819 226.541065 
L 302.531815 226.541065 
L 302.531808 226.541065 
L 302.531793 226.541065 
L 302.531746 226.541065 
L 302.531528 226.541065 
L 302.529618 226.541065 
L 302.510511 226.541065 
L 302.317952 226.541065 
L 301.676704 226.541066 
L 300.873068 226.541066 
L 299.857814 226.541067 
L 298.385458 226.541068 
L 296.505856 226.541069 
L 294.843085 226.54107 
" clip-path="url(#p0b8d126c7b)" style="fill: none; stroke: #6c9f33"/>
   </g>
   <g id="line2d_74">
    <path d="M 294.843085 226.54245 
L 294.843084 226.542667 
L 294.843083 226.542705 
L 294.843082 226.542707 
L 294.843079 226.542707 
L 294.843076 226.542707 
L 294.843071 226.542707 
L 294.843063 226.542707 
L 294.843048 226.542707 
L 294.843013 226.542707 
L 294.84291 226.542707 
L 294.84241 226.542707 
L 294.837736 226.542705 
L 294.790906 226.542688 
L 294.313547 226.542524 
L 293.582295 226.542301 
L 292.626829 226.542055 
L 291.428285 226.541803 
L 289.724116 226.541526 
L 287.469648 226.541263 
L 287.154346 226.541233 
" clip-path="url(#p0b8d126c7b)" style="fill: none; stroke: #009afa"/>
   </g>
   <g id="line2d_75">
    <path d="M 294.843085 242.450372 
L 294.843084 229.032009 
L 294.843083 226.677983 
L 294.843082 226.554486 
L 294.843079 226.544208 
L 294.843076 226.542939 
L 294.843071 226.542742 
L 294.843063 226.542708 
L 294.843048 226.542702 
L 294.843013 226.542701 
L 294.84291 226.542701 
L 294.84241 226.542701 
L 294.837736 226.542699 
L 294.790906 226.542682 
L 294.313547 226.542518 
L 293.582295 226.542296 
L 292.626829 226.54205 
L 291.428285 226.541799 
L 289.724116 226.541523 
L 287.469648 226.54126 
L 287.154346 226.54123 
" clip-path="url(#p0b8d126c7b)" style="fill: none; stroke: #e36f47"/>
   </g>
   <g id="line2d_76">
    <path d="M 294.843085 226.540023 
L 294.843084 226.540021 
L 294.843083 226.54002 
L 294.843082 226.54002 
L 294.843079 226.54002 
L 294.843076 226.54002 
L 294.843071 226.54002 
L 294.843063 226.54002 
L 294.843048 226.54002 
L 294.843013 226.54002 
L 294.84291 226.54002 
L 294.84241 226.54002 
L 294.837736 226.54002 
L 294.790906 226.54002 
L 294.313547 226.540022 
L 293.582295 226.540025 
L 292.626829 226.540027 
L 291.428285 226.54003 
L 289.724116 226.540033 
L 287.469648 226.540036 
L 287.154346 226.540036 
" clip-path="url(#p0b8d126c7b)" style="fill: none; stroke: #3ea44e"/>
   </g>
   <g id="line2d_77">
    <path d="M 287.154346 226.543053 
L 287.154345 226.542901 
L 287.154343 226.542874 
L 287.15434 226.542872 
L 287.154336 226.542872 
L 287.15433 226.542872 
L 287.154321 226.542872 
L 287.154306 226.542872 
L 287.154277 226.542872 
L 287.154209 226.542872 
L 287.153997 226.542872 
L 287.152905 226.542871 
L 287.141984 226.542866 
L 287.032286 226.542814 
L 286.433598 226.542549 
L 285.616981 226.542235 
L 284.46469 226.541868 
L 282.927597 226.541485 
L 280.871939 226.541106 
L 279.465607 226.54091 
" clip-path="url(#p0b8d126c7b)" style="fill: none; stroke: #c371d2"/>
   </g>
   <g id="line2d_78">
    <path d="M 287.154346 215.390942 
L 287.154345 224.75079 
L 287.154343 226.445914 
L 287.15434 226.534465 
L 287.154336 226.541789 
L 287.15433 226.542689 
L 287.154321 226.54283 
L 287.154306 226.542854 
L 287.154277 226.542858 
L 287.154209 226.542859 
L 287.153997 226.542859 
L 287.152905 226.542858 
L 287.141984 226.542853 
L 287.032286 226.542801 
L 286.433598 226.542537 
L 285.616981 226.542224 
L 284.46469 226.541859 
L 282.927597 226.541476 
L 280.871939 226.541099 
L 279.465607 226.540904 
" clip-path="url(#p0b8d126c7b)" style="fill: none; stroke: #ac8e18"/>
   </g>
   <g id="line2d_79">
    <path d="M 287.154346 226.539199 
L 287.154345 226.539201 
L 287.154343 226.539202 
L 287.15434 226.539202 
L 287.154336 226.539202 
L 287.15433 226.539202 
L 287.154321 226.539202 
L 287.154306 226.539202 
L 287.154277 226.539202 
L 287.154209 226.539202 
L 287.153997 226.539202 
L 287.152905 226.539202 
L 287.141984 226.539202 
L 287.032286 226.539203 
L 286.433598 226.539208 
L 285.616981 226.539214 
L 284.46469 226.53922 
L 282.927597 226.539227 
L 280.871939 226.539234 
L 279.465607 226.539238 
" clip-path="url(#p0b8d126c7b)" style="fill: none; stroke: #00aaae"/>
   </g>
   <g id="line2d_80">
    <path d="M 279.465607 226.54264 
L 279.465605 226.542494 
L 279.465602 226.54247 
L 279.465596 226.542469 
L 279.465589 226.542469 
L 279.465578 226.542469 
L 279.465562 226.542469 
L 279.465533 226.542469 
L 279.465473 226.542469 
L 279.465333 226.542469 
L 279.464846 226.542469 
L 279.462024 226.542467 
L 279.433765 226.542451 
L 279.147917 226.542291 
L 278.34028 226.541884 
L 277.306877 226.541448 
L 275.821977 226.540949 
L 273.773881 226.540439 
L 271.776868 226.540079 
" clip-path="url(#p0b8d126c7b)" style="fill: none; stroke: #ed5e93"/>
   </g>
   <g id="line2d_81">
    <path d="M 279.465607 216.099665 
L 279.465605 224.994951 
L 279.465602 226.457724 
L 279.465596 226.535031 
L 279.465589 226.541489 
L 279.465578 226.542289 
L 279.465562 226.542415 
L 279.465533 226.542437 
L 279.465473 226.54244 
L 279.465333 226.54244 
L 279.464846 226.54244 
L 279.462024 226.542439 
L 279.433765 226.542422 
L 279.147917 226.542263 
L 278.34028 226.54186 
L 277.306877 226.541426 
L 275.821977 226.54093 
L 273.773881 226.540424 
L 271.776868 226.540065 
" clip-path="url(#p0b8d126c7b)" style="fill: none; stroke: #c68225"/>
   </g>
   <g id="line2d_82">
    <path d="M 279.465607 226.537824 
L 279.465605 226.537829 
L 279.465602 226.53783 
L 279.465596 226.53783 
L 279.465589 226.53783 
L 279.465578 226.53783 
L 279.465562 226.53783 
L 279.465533 226.53783 
L 279.465473 226.53783 
L 279.465333 226.53783 
L 279.464846 226.53783 
L 279.462024 226.53783 
L 279.433765 226.53783 
L 279.147917 226.537835 
L 278.34028 226.537847 
L 277.306877 226.537861 
L 275.821977 226.537876 
L 273.773881 226.537891 
L 271.776868 226.537902 
" clip-path="url(#p0b8d126c7b)" style="fill: none; stroke: #00a98d"/>
   </g>
   <g id="line2d_83">
    <path d="M 271.776868 226.541737 
L 271.776865 226.541588 
L 271.776858 226.541566 
L 271.776849 226.541565 
L 271.776836 226.541565 
L 271.776816 226.541565 
L 271.776785 226.541565 
L 271.776726 226.541565 
L 271.776601 226.541565 
L 271.776277 226.541565 
L 271.775012 226.541564 
L 271.766341 226.541558 
L 271.679332 226.541499 
L 270.875906 226.540998 
L 269.685849 226.540381 
L 267.995158 226.539702 
L 265.551656 226.539002 
L 264.088129 226.538692 
" clip-path="url(#p0b8d126c7b)" style="fill: none; stroke: #8e971e"/>
   </g>
   <g id="line2d_84">
    <path d="M 271.776868 216.19339 
L 271.776865 225.159894 
L 271.776858 226.464662 
L 271.776849 226.534709 
L 271.776836 226.540624 
L 271.776816 226.541363 
L 271.776785 226.541482 
L 271.776726 226.541503 
L 271.776601 226.541506 
L 271.776277 226.541506 
L 271.775012 226.541505 
L 271.766341 226.541499 
L 271.679332 226.54144 
L 270.875906 226.540945 
L 269.685849 226.540334 
L 267.995158 226.539662 
L 265.551656 226.53897 
L 264.088129 226.538664 
" clip-path="url(#p0b8d126c7b)" style="fill: none; stroke: #00a9cc"/>
   </g>
   <g id="line2d_85">
    <path d="M 271.776868 226.535694 
L 271.776865 226.535701 
L 271.776858 226.535702 
L 271.776849 226.535703 
L 271.776836 226.535703 
L 271.776816 226.535703 
L 271.776785 226.535703 
L 271.776726 226.535703 
L 271.776601 226.535703 
L 271.776277 226.535703 
L 271.775012 226.535703 
L 271.766341 226.535703 
L 271.679332 226.535706 
L 270.875906 226.535731 
L 269.685849 226.535761 
L 267.995158 226.535795 
L 265.551656 226.535829 
L 264.088129 226.535845 
" clip-path="url(#p0b8d126c7b)" style="fill: none; stroke: #9b7fe9"/>
   </g>
   <g id="line2d_86">
    <path d="M 264.088129 226.541802 
L 264.088124 226.54166 
L 264.088112 226.54164 
L 264.088095 226.541639 
L 264.088071 226.541639 
L 264.088036 226.541639 
L 264.087978 226.541639 
L 264.087871 226.541638 
L 264.087641 226.541638 
L 264.087032 226.541638 
L 264.084603 226.541636 
L 264.067458 226.54162 
L 263.894813 226.541466 
L 262.930476 226.540694 
L 261.552711 226.539797 
L 259.4922 226.538791 
L 256.461901 226.53779 
L 256.39939 226.537773 
" clip-path="url(#p0b8d126c7b)" style="fill: none; stroke: #618df6"/>
   </g>
   <g id="line2d_87">
    <path d="M 264.088129 216.957482 
L 264.088124 225.313539 
L 264.088112 226.472923 
L 264.088095 226.535444 
L 264.088071 226.540716 
L 264.088036 226.541374 
L 264.087978 226.54148 
L 264.087871 226.541498 
L 264.087641 226.541501 
L 264.087032 226.5415 
L 264.084603 226.541498 
L 264.067458 226.541483 
L 263.894813 226.541332 
L 262.930476 226.540573 
L 261.552711 226.539692 
L 259.4922 226.538704 
L 256.461901 226.53772 
L 256.39939 226.537704 
" clip-path="url(#p0b8d126c7b)" style="fill: none; stroke: #f06073"/>
   </g>
   <g id="line2d_88">
    <path d="M 264.088129 226.533203 
L 264.088124 226.533214 
L 264.088112 226.533215 
L 264.088095 226.533215 
L 264.088071 226.533215 
L 264.088036 226.533215 
L 264.087978 226.533215 
L 264.087871 226.533215 
L 264.087641 226.533215 
L 264.087032 226.533216 
L 264.084603 226.533216 
L 264.067458 226.533217 
L 263.894813 226.533229 
L 262.930476 226.533289 
L 261.552711 226.53336 
L 259.4922 226.533438 
L 256.461901 226.533517 
L 256.39939 226.533518 
" clip-path="url(#p0b8d126c7b)" style="fill: none; stroke: #dd65b6"/>
   </g>
   <g id="line2d_89">
    <path d="M 256.39939 226.540672 
L 256.39938 226.540551 
L 256.399358 226.540536 
L 256.399327 226.540535 
L 256.399283 226.540535 
L 256.399217 226.540535 
L 256.399101 226.540535 
L 256.398872 226.540535 
L 256.39836 226.540534 
L 256.396823 226.540533 
L 256.38964 226.540526 
L 256.326715 226.540463 
L 255.680951 226.539861 
L 254.207463 226.538716 
L 252.257168 226.537573 
L 249.055457 226.536297 
L 248.710651 226.536191 
" clip-path="url(#p0b8d126c7b)" style="fill: none; stroke: #6c9f33"/>
   </g>
   <g id="line2d_90">
    <path d="M 256.39939 218.757225 
L 256.39938 225.645048 
L 256.399358 226.489479 
L 256.399327 226.535754 
L 256.399283 226.539678 
L 256.399217 226.540172 
L 256.399101 226.540253 
L 256.398872 226.540267 
L 256.39836 226.540268 
L 256.396823 226.540267 
L 256.38964 226.54026 
L 256.326715 226.540199 
L 255.680951 226.539614 
L 254.207463 226.538503 
L 252.257168 226.537393 
L 249.055457 226.536154 
L 248.710651 226.536051 
" clip-path="url(#p0b8d126c7b)" style="fill: none; stroke: #009afa"/>
   </g>
   <g id="line2d_91">
    <path d="M 256.39939 226.530237 
L 256.39938 226.530252 
L 256.399358 226.530253 
L 256.399327 226.530253 
L 256.399283 226.530253 
L 256.399217 226.530254 
L 256.399101 226.530254 
L 256.398872 226.530254 
L 256.39836 226.530254 
L 256.396823 226.530254 
L 256.38964 226.530255 
L 256.326715 226.530262 
L 255.680951 226.530335 
L 254.207463 226.530473 
L 252.257168 226.530611 
L 249.055457 226.530765 
L 248.710651 226.530778 
" clip-path="url(#p0b8d126c7b)" style="fill: none; stroke: #e36f47"/>
   </g>
   <g id="line2d_92">
    <path d="M 248.710651 226.539256 
L 248.710631 226.539305 
L 248.710591 226.539311 
L 248.710535 226.539311 
L 248.710458 226.539311 
L 248.710326 226.539311 
L 248.710062 226.53931 
L 248.709493 226.53931 
L 248.707938 226.539308 
L 248.701836 226.539302 
L 248.661299 226.539262 
L 248.249155 226.538872 
L 246.627447 226.537576 
L 244.294789 226.536213 
L 241.021912 226.534938 
" clip-path="url(#p0b8d126c7b)" style="fill: none; stroke: #3ea44e"/>
   </g>
   <g id="line2d_93">
    <path d="M 248.710651 229.566865 
L 248.710631 226.856069 
L 248.710591 226.557064 
L 248.710535 226.540463 
L 248.710458 226.539051 
L 248.710326 226.538882 
L 248.710062 226.538853 
L 248.709493 226.538848 
L 248.707938 226.538846 
L 248.701836 226.53884 
L 248.661299 226.538802 
L 248.249155 226.538431 
L 246.627447 226.537196 
L 244.294789 226.535899 
L 241.021912 226.534685 
" clip-path="url(#p0b8d126c7b)" style="fill: none; stroke: #c371d2"/>
   </g>
   <g id="line2d_94">
    <path d="M 248.710651 226.527884 
L 248.710631 226.527875 
L 248.710591 226.527874 
L 248.710535 226.527874 
L 248.710458 226.527874 
L 248.710326 226.527874 
L 248.710062 226.527874 
L 248.709493 226.527874 
L 248.707938 226.527874 
L 248.701836 226.527876 
L 248.661299 226.527883 
L 248.249155 226.527954 
L 246.627447 226.528189 
L 244.294789 226.528436 
L 241.021912 226.528667 
" clip-path="url(#p0b8d126c7b)" style="fill: none; stroke: #ac8e18"/>
   </g>
   <g id="line2d_95">
    <path d="M 241.021912 226.538013 
L 241.021874 226.538193 
L 241.021799 226.538211 
L 241.021695 226.538212 
L 241.021551 226.538212 
L 241.021348 226.538212 
L 241.02095 226.538211 
L 241.020142 226.53821 
L 241.018252 226.538209 
L 241.01212 226.538203 
L 240.980709 226.538172 
L 240.667307 226.537874 
L 238.828122 226.5364 
L 235.978985 226.534801 
L 233.333173 226.533791 
" clip-path="url(#p0b8d126c7b)" style="fill: none; stroke: #00aaae"/>
   </g>
   <g id="line2d_96">
    <path d="M 241.021912 236.913738 
L 241.021874 227.545551 
L 241.021799 226.595717 
L 241.021695 226.542548 
L 241.021551 226.53806 
L 241.021348 226.537508 
L 241.02095 226.537421 
L 241.020142 226.537405 
L 241.018252 226.537402 
L 241.01212 226.537396 
L 240.980709 226.537368 
L 240.667307 226.537093 
L 238.828122 226.535735 
L 235.978985 226.534261 
L 233.333173 226.533331 
" clip-path="url(#p0b8d126c7b)" style="fill: none; stroke: #ed5e93"/>
   </g>
   <g id="line2d_97">
    <path d="M 241.021912 226.525267 
L 241.021874 226.525219 
L 241.021799 226.525214 
L 241.021695 226.525214 
L 241.021551 226.525214 
L 241.021348 226.525214 
L 241.02095 226.525214 
L 241.020142 226.525214 
L 241.018252 226.525215 
L 241.01212 226.525216 
L 240.980709 226.525225 
L 240.667307 226.525304 
L 238.828122 226.525694 
L 235.978985 226.526118 
L 233.333173 226.526386 
" clip-path="url(#p0b8d126c7b)" style="fill: none; stroke: #c68225"/>
   </g>
   <g id="line2d_98">
    <path d="M 233.333173 226.537606 
L 233.3331 226.537682 
L 233.33296 226.537689 
L 233.332769 226.537689 
L 233.332513 226.537689 
L 233.332052 226.537688 
L 233.331121 226.537687 
L 233.329087 226.537686 
L 233.323381 226.53768 
L 233.300217 226.537659 
L 233.138594 226.537512 
L 231.407347 226.536151 
L 228.145833 226.534372 
L 225.644434 226.533455 
" clip-path="url(#p0b8d126c7b)" style="fill: none; stroke: #00a98d"/>
   </g>
   <g id="line2d_99">
    <path d="M 233.333173 230.631753 
L 233.3331 226.912489 
L 233.33296 226.558148 
L 233.332769 226.538245 
L 233.332513 226.536581 
L 233.332052 226.536389 
L 233.331121 226.536355 
L 233.329087 226.536348 
L 233.323381 226.536343 
L 233.300217 226.536325 
L 233.138594 226.536196 
L 231.407347 226.535012 
L 228.145833 226.533464 
L 225.644434 226.532666 
" clip-path="url(#p0b8d126c7b)" style="fill: none; stroke: #8e971e"/>
   </g>
   <g id="line2d_100">
    <path d="M 233.333173 226.523497 
L 233.3331 226.523468 
L 233.33296 226.523466 
L 233.332769 226.523466 
L 233.332513 226.523466 
L 233.332052 226.523466 
L 233.331121 226.523466 
L 233.329087 226.523467 
L 233.323381 226.523469 
L 233.300217 226.523477 
L 233.138594 226.523533 
L 231.407347 226.524048 
L 228.145833 226.524722 
L 225.644434 226.525069 
" clip-path="url(#p0b8d126c7b)" style="fill: none; stroke: #00a9cc"/>
   </g>
   <g id="line2d_101">
    <path d="M 225.644434 226.537041 
L 225.644293 226.536952 
L 225.644031 226.536943 
L 225.643674 226.536943 
L 225.643142 226.536942 
L 225.642219 226.536941 
L 225.640396 226.53694 
L 225.636427 226.536937 
L 225.625336 226.536927 
L 225.580182 226.536891 
L 225.260482 226.536637 
L 222.610823 226.534945 
L 217.955695 226.533135 
" clip-path="url(#p0b8d126c7b)" style="fill: none; stroke: #9b7fe9"/>
   </g>
   <g id="line2d_102">
    <path d="M 225.644434 221.998887 
L 225.644293 226.13934 
L 225.644031 226.511921 
L 225.643674 226.532874 
L 225.643142 226.534592 
L 225.642219 226.534811 
L 225.640396 226.534848 
L 225.636427 226.534851 
L 225.625336 226.534845 
L 225.580182 226.534816 
L 225.260482 226.534616 
L 222.610823 226.533288 
L 217.955695 226.531867 
" clip-path="url(#p0b8d126c7b)" style="fill: none; stroke: #618df6"/>
   </g>
   <g id="line2d_103">
    <path d="M 225.644434 226.522041 
L 225.644293 226.522088 
L 225.644031 226.522093 
L 225.643674 226.522093 
L 225.643142 226.522093 
L 225.642219 226.522094 
L 225.640396 226.522095 
L 225.636427 226.522096 
L 225.625336 226.522101 
L 225.580182 226.522121 
L 225.260482 226.522255 
L 222.610823 226.523152 
L 217.955695 226.524111 
" clip-path="url(#p0b8d126c7b)" style="fill: none; stroke: #f06073"/>
   </g>
   <g id="line2d_104">
    <path d="M 217.955695 226.535793 
L 217.955427 226.535308 
L 217.954938 226.535265 
L 217.954278 226.535263 
L 217.953334 226.535262 
L 217.951898 226.535261 
L 217.949321 226.535259 
L 217.944175 226.535256 
L 217.93251 226.535249 
L 217.896373 226.535227 
L 217.720479 226.535123 
L 215.995703 226.534232 
L 210.967774 226.532574 
L 210.266956 226.532416 
" clip-path="url(#p0b8d126c7b)" style="fill: none; stroke: #dd65b6"/>
   </g>
   <g id="line2d_105">
    <path d="M 217.955695 203.667446 
L 217.955427 224.589102 
L 217.954938 226.42064 
L 217.954278 226.523122 
L 217.953334 226.531361 
L 217.951898 226.532361 
L 217.949321 226.532523 
L 217.944175 226.532549 
L 217.93251 226.532548 
L 217.896373 226.532535 
L 217.720479 226.532467 
L 215.995703 226.531894 
L 210.967774 226.530827 
L 210.266956 226.530725 
" clip-path="url(#p0b8d126c7b)" style="fill: none; stroke: #6c9f33"/>
   </g>
   <g id="line2d_106">
    <path d="M 217.955695 226.521759 
L 217.955427 226.522112 
L 217.954938 226.522143 
L 217.954278 226.522145 
L 217.953334 226.522145 
L 217.951898 226.522146 
L 217.949321 226.522147 
L 217.944175 226.522149 
L 217.93251 226.522155 
L 217.896373 226.52217 
L 217.720479 226.522246 
L 215.995703 226.522894 
L 210.967774 226.5241 
L 210.266956 226.524215 
" clip-path="url(#p0b8d126c7b)" style="fill: none; stroke: #009afa"/>
   </g>
   <g id="line2d_107">
    <path d="M 210.266956 226.535007 
L 210.266448 226.534495 
L 210.265538 226.534451 
L 210.26432 226.534448 
L 210.262574 226.534447 
L 210.259879 226.534445 
L 210.254965 226.534443 
L 210.24505 226.534438 
L 210.222279 226.534428 
L 210.149553 226.534394 
L 209.779755 226.534227 
L 205.748754 226.532869 
L 202.578217 226.532201 
" clip-path="url(#p0b8d126c7b)" style="fill: none; stroke: #e36f47"/>
   </g>
   <g id="line2d_108">
    <path d="M 210.266956 203.910739 
L 210.266448 224.65009 
L 210.265538 226.423073 
L 210.26432 226.521825 
L 210.262574 226.529627 
L 210.259879 226.530563 
L 210.254965 226.530715 
L 210.24505 226.530739 
L 210.222279 226.530738 
L 210.149553 226.530725 
L 209.779755 226.530655 
L 205.748754 226.530092 
L 202.578217 226.529814 
" clip-path="url(#p0b8d126c7b)" style="fill: none; stroke: #3ea44e"/>
   </g>
   <g id="line2d_109">
    <path d="M 210.266956 226.521377 
L 210.266448 226.521878 
L 210.265538 226.521921 
L 210.26432 226.521924 
L 210.262574 226.521925 
L 210.259879 226.521926 
L 210.254965 226.521928 
L 210.24505 226.521933 
L 210.222279 226.521943 
L 210.149553 226.521977 
L 209.779755 226.52214 
L 205.748754 226.523469 
L 202.578217 226.524124 
" clip-path="url(#p0b8d126c7b)" style="fill: none; stroke: #c371d2"/>
   </g>
   <g id="line2d_110">
    <path d="M 202.578217 226.533987 
L 202.577284 226.532899 
L 202.575624 226.532805 
L 202.5734 226.532799 
L 202.570248 226.532798 
L 202.565601 226.532797 
L 202.557529 226.532795 
L 202.541819 226.53279 
L 202.507333 226.532781 
L 202.408727 226.532755 
L 201.973002 226.532643 
L 197.965921 226.531871 
L 194.889478 226.531489 
" clip-path="url(#p0b8d126c7b)" style="fill: none; stroke: #ac8e18"/>
   </g>
   <g id="line2d_111">
    <path d="M 202.578217 180.732719 
L 202.577284 222.68945 
L 202.575624 226.311831 
L 202.5734 226.511355 
L 202.570248 226.526898 
L 202.565601 226.528729 
L 202.557529 226.529017 
L 202.541819 226.529068 
L 202.507333 226.529074 
L 202.408727 226.529073 
L 201.973002 226.529066 
L 197.965921 226.529016 
L 194.889478 226.528992 
" clip-path="url(#p0b8d126c7b)" style="fill: none; stroke: #00aaae"/>
   </g>
   <g id="line2d_112">
    <path d="M 202.578217 226.522159 
L 202.577284 226.52356 
L 202.575624 226.523682 
L 202.5734 226.523689 
L 202.570248 226.523691 
L 202.565601 226.523693 
L 202.557529 226.523696 
L 202.541819 226.523701 
L 202.507333 226.523713 
L 202.408727 226.523747 
L 201.973002 226.523891 
L 197.965921 226.524887 
L 194.889478 226.525378 
" clip-path="url(#p0b8d126c7b)" style="fill: none; stroke: #ed5e93"/>
   </g>
   <g id="line2d_113">
    <path d="M 194.889478 226.533017 
L 194.88785 226.531044 
L 194.884925 226.530859 
L 194.881002 226.530849 
L 194.875464 226.530848 
L 194.867587 226.530847 
L 194.854594 226.530846 
L 194.83021 226.530845 
L 194.778866 226.530841 
L 194.646679 226.530833 
L 194.135248 226.530802 
L 190.24346 226.530621 
L 187.200739 226.530527 
" clip-path="url(#p0b8d126c7b)" style="fill: none; stroke: #c68225"/>
   </g>
   <g id="line2d_114">
    <path d="M 194.889478 145.298971 
L 194.88785 219.21725 
L 194.884925 226.125305 
L 194.881002 226.497493 
L 194.875464 226.525491 
L 194.867587 226.528698 
L 194.854594 226.529184 
L 194.83021 226.52927 
L 194.778866 226.529285 
L 194.646679 226.52929 
L 194.135248 226.529303 
L 190.24346 226.529379 
L 187.200739 226.529419 
" clip-path="url(#p0b8d126c7b)" style="fill: none; stroke: #00a98d"/>
   </g>
   <g id="line2d_115">
    <path d="M 194.889478 226.524368 
L 194.88785 226.527616 
L 194.884925 226.52792 
L 194.881002 226.527937 
L 194.875464 226.527939 
L 194.867587 226.52794 
L 194.854594 226.527941 
L 194.83021 226.527944 
L 194.778866 226.527949 
L 194.646679 226.527963 
L 194.135248 226.528014 
L 190.24346 226.528312 
L 187.200739 226.528467 
" clip-path="url(#p0b8d126c7b)" style="fill: none; stroke: #8e971e"/>
   </g>
   <g id="line2d_116">
    <path d="M 187.200739 226.531432 
L 187.197967 226.529254 
L 187.192912 226.529032 
L 187.186063 226.529021 
L 187.176419 226.52902 
L 187.162849 226.529021 
L 187.140978 226.529022 
L 187.10057 226.529024 
L 187.016861 226.529028 
L 186.810084 226.529039 
L 186.046143 226.529075 
L 180.256411 226.529267 
L 179.512001 226.529284 
" clip-path="url(#p0b8d126c7b)" style="fill: none; stroke: #00a9cc"/>
   </g>
   <g id="line2d_117">
    <path d="M 187.200739 136.98101 
L 187.197967 217.805366 
L 187.192912 226.058473 
L 187.186063 226.49483 
L 187.176419 226.526956 
L 187.162849 226.530567 
L 187.140978 226.531102 
L 187.10057 226.531195 
L 187.016861 226.531205 
L 186.810084 226.531196 
L 186.046143 226.53116 
L 180.256411 226.530966 
L 179.512001 226.530948 
" clip-path="url(#p0b8d126c7b)" style="fill: none; stroke: #9b7fe9"/>
   </g>
   <g id="line2d_118">
    <path d="M 187.200739 226.527444 
L 187.197967 226.531843 
L 187.192912 226.532291 
L 187.186063 226.532315 
L 187.176419 226.532315 
L 187.162849 226.532314 
L 187.140978 226.532312 
L 187.10057 226.532308 
L 187.016861 226.532299 
L 186.810084 226.532278 
L 186.046143 226.532205 
L 180.256411 226.531817 
L 179.512001 226.531782 
" clip-path="url(#p0b8d126c7b)" style="fill: none; stroke: #618df6"/>
   </g>
   <g id="line2d_119">
    <path d="M 179.512001 226.530507 
L 179.507772 226.528181 
L 179.499584 226.527863 
L 179.488103 226.527848 
L 179.472 226.527848 
L 179.449696 226.52785 
L 179.415559 226.527853 
L 179.354926 226.527859 
L 179.233888 226.527871 
L 178.9535 226.527898 
L 178.03181 226.527981 
L 172.043794 226.528365 
L 171.823262 226.528375 
" clip-path="url(#p0b8d126c7b)" style="fill: none; stroke: #f06073"/>
   </g>
   <g id="line2d_120">
    <path d="M 179.512001 127.137126 
L 179.507772 213.953486 
L 179.499584 225.87764 
L 179.488103 226.487532 
L 179.472 226.529989 
L 179.449696 226.534531 
L 179.415559 226.535174 
L 179.354926 226.535276 
L 179.233888 226.535276 
L 178.9535 226.535234 
L 178.03181 226.535101 
L 172.043794 226.534482 
L 171.823262 226.534465 
" clip-path="url(#p0b8d126c7b)" style="fill: none; stroke: #dd65b6"/>
   </g>
   <g id="line2d_121">
    <path d="M 179.512001 226.531179 
L 179.507772 226.536683 
L 179.499584 226.537437 
L 179.488103 226.537473 
L 179.472 226.537472 
L 179.449696 226.537467 
L 179.415559 226.537459 
L 179.354926 226.537444 
L 179.233888 226.537417 
L 178.9535 226.537353 
L 178.03181 226.537157 
L 172.043794 226.536248 
L 171.823262 226.536223 
" clip-path="url(#p0b8d126c7b)" style="fill: none; stroke: #6c9f33"/>
   </g>
   <g id="line2d_122">
    <path d="M 171.823262 226.528713 
L 171.819218 226.526517 
L 171.808395 226.525578 
L 171.792022 226.525521 
L 171.768145 226.52552 
L 171.735589 226.525524 
L 171.690571 226.525529 
L 171.622277 226.525537 
L 171.502251 226.525552 
L 171.262174 226.525579 
L 170.692349 226.525643 
L 168.682029 226.52584 
L 164.134523 226.526174 
" clip-path="url(#p0b8d126c7b)" style="fill: none; stroke: #009afa"/>
   </g>
   <g id="line2d_123">
    <path d="M 171.823262 105.774942 
L 171.819218 188.683105 
L 171.808395 224.176436 
L 171.792022 226.406313 
L 171.768145 226.528869 
L 171.735589 226.53971 
L 171.690571 226.541049 
L 171.622277 226.541242 
L 171.502251 226.541249 
L 171.262174 226.541196 
L 170.692349 226.541062 
L 168.682029 226.54064 
L 164.134523 226.539929 
" clip-path="url(#p0b8d126c7b)" style="fill: none; stroke: #e36f47"/>
   </g>
   <g id="line2d_124">
    <path d="M 171.823262 226.53548 
L 171.819218 226.541293 
L 171.808395 226.543779 
L 171.792022 226.54393 
L 171.768145 226.543931 
L 171.735589 226.543922 
L 171.690571 226.543908 
L 171.622277 226.543886 
L 171.502251 226.543849 
L 171.262174 226.543776 
L 170.692349 226.543608 
L 168.682029 226.543084 
L 164.134523 226.542201 
" clip-path="url(#p0b8d126c7b)" style="fill: none; stroke: #3ea44e"/>
   </g>
   <g id="line2d_125">
    <path d="M 164.134523 226.52619 
L 164.130607 226.524806 
L 164.11529 226.523423 
L 164.088331 226.523298 
L 164.051259 226.523295 
L 163.999467 226.5233 
L 163.931741 226.523307 
L 163.828755 226.523317 
L 163.633375 226.523337 
L 163.230458 226.523377 
L 162.242813 226.523469 
L 158.374142 226.523764 
L 156.445784 226.523879 
" clip-path="url(#p0b8d126c7b)" style="fill: none; stroke: #c371d2"/>
   </g>
   <g id="line2d_126">
    <path d="M 164.134523 115.637762 
L 164.130607 168.501469 
L 164.11529 221.362414 
L 164.088331 226.265019 
L 164.051259 226.525229 
L 163.999467 226.544967 
L 163.931741 226.547212 
L 163.828755 226.547508 
L 163.633375 226.547513 
L 163.230458 226.547422 
L 162.242813 226.54719 
L 158.374142 226.546447 
L 156.445784 226.546158 
" clip-path="url(#p0b8d126c7b)" style="fill: none; stroke: #ac8e18"/>
   </g>
   <g id="line2d_127">
    <path d="M 164.134523 226.541662 
L 164.130607 226.54561 
L 164.11529 226.549553 
L 164.088331 226.549911 
L 164.051259 226.54992 
L 163.999467 226.549906 
L 163.931741 226.549886 
L 163.828755 226.549855 
L 163.633375 226.549799 
L 163.230458 226.549685 
L 162.242813 226.549421 
L 158.374142 226.548581 
L 156.445784 226.548254 
" clip-path="url(#p0b8d126c7b)" style="fill: none; stroke: #00aaae"/>
   </g>
   <g id="line2d_128">
    <path d="M 156.445784 226.524478 
L 156.429137 226.522392 
L 156.39001 226.521876 
L 156.33198 226.521854 
L 156.251144 226.521859 
L 156.143274 226.521867 
L 155.986442 226.521879 
L 155.68485 226.521902 
L 155.061046 226.521949 
L 153.51946 226.522053 
L 148.757045 226.522305 
" clip-path="url(#p0b8d126c7b)" style="fill: none; stroke: #ed5e93"/>
   </g>
   <g id="line2d_129">
    <path d="M 156.445784 125.062173 
L 156.429137 205.442399 
L 156.39001 225.44164 
L 156.33198 226.47841 
L 156.251144 226.546578 
L 156.143274 226.553436 
L 155.986442 226.554316 
L 155.68485 226.554402 
L 155.061046 226.5543 
L 153.51946 226.554012 
L 148.757045 226.553311 
" clip-path="url(#p0b8d126c7b)" style="fill: none; stroke: #c68225"/>
   </g>
   <g id="line2d_130">
    <path d="M 156.445784 226.548477 
L 156.429137 226.554708 
L 156.39001 226.55625 
L 156.33198 226.556316 
L 156.251144 226.556302 
L 156.143274 226.556277 
L 155.986442 226.556241 
L 155.68485 226.556172 
L 155.061046 226.556034 
L 153.51946 226.555722 
L 148.757045 226.55497 
" clip-path="url(#p0b8d126c7b)" style="fill: none; stroke: #00a98d"/>
   </g>
   <g id="line2d_131">
    <path d="M 148.757045 226.522343 
L 148.719141 226.519672 
L 148.642662 226.519289 
L 148.534468 226.519276 
L 148.382473 226.519283 
L 148.187431 226.519295 
L 147.852574 226.519314 
L 147.186493 226.519352 
L 145.683075 226.519429 
L 141.068306 226.519618 
" clip-path="url(#p0b8d126c7b)" style="fill: none; stroke: #8e971e"/>
   </g>
   <g id="line2d_132">
    <path d="M 148.757045 107.132717 
L 148.719141 210.689681 
L 148.642662 225.731004 
L 148.534468 226.501651 
L 148.382473 226.55634 
L 148.187431 226.562266 
L 147.852574 226.563006 
L 147.186493 226.563035 
L 145.683075 226.562829 
L 141.068306 226.562274 
" clip-path="url(#p0b8d126c7b)" style="fill: none; stroke: #00a9cc"/>
   </g>
   <g id="line2d_133">
    <path d="M 148.757045 226.555196 
L 148.719141 226.563402 
L 148.642662 226.56458 
L 148.534468 226.564621 
L 148.382473 226.564597 
L 148.187431 226.564562 
L 147.852574 226.564502 
L 147.186493 226.564388 
L 145.683075 226.564149 
L 141.068306 226.56357 
" clip-path="url(#p0b8d126c7b)" style="fill: none; stroke: #9b7fe9"/>
   </g>
   <g id="line2d_134">
    <path d="M 141.068306 226.519953 
L 140.993973 226.516953 
L 140.852316 226.516618 
L 140.655465 226.516609 
L 140.376675 226.516619 
L 140.034766 226.516634 
L 139.356374 226.516661 
L 137.944943 226.516714 
L 134.301418 226.516827 
L 133.379567 226.516851 
" clip-path="url(#p0b8d126c7b)" style="fill: none; stroke: #618df6"/>
   </g>
   <g id="line2d_135">
    <path d="M 141.068306 95.514716 
L 140.993973 212.538634 
L 140.852316 225.818531 
L 140.655465 226.514688 
L 140.376675 226.566076 
L 140.034766 226.571853 
L 139.356374 226.572531 
L 137.944943 226.572504 
L 134.301418 226.572179 
L 133.379567 226.572108 
" clip-path="url(#p0b8d126c7b)" style="fill: none; stroke: #f06073"/>
   </g>
   <g id="line2d_136">
    <path d="M 141.068306 226.563348 
L 140.993973 226.572738 
L 140.852316 226.573785 
L 140.655465 226.573814 
L 140.376675 226.573781 
L 140.034766 226.573736 
L 139.356374 226.57365 
L 137.944943 226.573485 
L 134.301418 226.573132 
L 133.379567 226.573057 
" clip-path="url(#p0b8d126c7b)" style="fill: none; stroke: #dd65b6"/>
   </g>
   <g id="line2d_137">
    <path d="M 133.379567 226.516901 
L 133.236468 226.514278 
L 132.973881 226.514041 
L 132.612609 226.514038 
L 132.094762 226.514052 
L 131.398064 226.51407 
L 129.935716 226.514107 
L 126.477942 226.514178 
L 125.690828 226.514192 
" clip-path="url(#p0b8d126c7b)" style="fill: none; stroke: #6c9f33"/>
   </g>
   <g id="line2d_138">
    <path d="M 133.379567 113.922868 
L 133.236468 216.448192 
L 132.973881 226.018011 
L 132.612609 226.536211 
L 132.094762 226.575773 
L 131.398064 226.580266 
L 129.935716 226.580795 
L 126.477942 226.580685 
L 125.690828 226.580658 
" clip-path="url(#p0b8d126c7b)" style="fill: none; stroke: #009afa"/>
   </g>
   <g id="line2d_139">
    <path d="M 133.379567 226.572751 
L 133.236468 226.581035 
L 132.973881 226.581785 
L 132.612609 226.581793 
L 132.094762 226.58175 
L 131.398064 226.581691 
L 129.935716 226.581576 
L 126.477942 226.581349 
L 125.690828 226.581305 
" clip-path="url(#p0b8d126c7b)" style="fill: none; stroke: #e36f47"/>
   </g>
   <g id="line2d_140">
    <path d="M 125.690828 226.514444 
L 125.435972 226.511697 
L 124.964933 226.511456 
L 124.306676 226.511454 
L 123.339087 226.51147 
L 121.929885 226.511493 
L 118.689955 226.511538 
L 118.002089 226.511546 
" clip-path="url(#p0b8d126c7b)" style="fill: none; stroke: #3ea44e"/>
   </g>
   <g id="line2d_141">
    <path d="M 125.690828 108.532546 
L 125.435972 216.208073 
L 124.964933 226.009714 
L 124.306676 226.543689 
L 123.339087 226.584698 
L 121.929885 226.589337 
L 118.689955 226.589882 
L 118.002089 226.589989 
" clip-path="url(#p0b8d126c7b)" style="fill: none; stroke: #c371d2"/>
   </g>
   <g id="line2d_142">
    <path d="M 125.690828 226.581208 
L 125.435972 226.589943 
L 124.964933 226.59071 
L 124.306676 226.590714 
L 123.339087 226.590663 
L 121.929885 226.59059 
L 118.689955 226.590449 
L 118.002089 226.590423 
" clip-path="url(#p0b8d126c7b)" style="fill: none; stroke: #ac8e18"/>
   </g>
   <g id="line2d_143">
    <path d="M 118.002089 226.511795 
L 117.546794 226.509346 
L 116.690842 226.509139 
L 115.454663 226.509141 
L 113.543356 226.50916 
L 110.31335 226.509187 
" clip-path="url(#p0b8d126c7b)" style="fill: none; stroke: #00aaae"/>
   </g>
   <g id="line2d_144">
    <path d="M 118.002089 121.083114 
L 117.546794 217.551416 
L 116.690842 226.088155 
L 115.454663 226.556796 
L 113.543356 226.593123 
L 110.31335 226.597199 
" clip-path="url(#p0b8d126c7b)" style="fill: none; stroke: #ed5e93"/>
   </g>
   <g id="line2d_145">
    <path d="M 118.002089 226.58987 
L 117.546794 226.59771 
L 116.690842 226.598372 
L 115.454663 226.598365 
L 113.543356 226.598306 
L 110.31335 226.59822 
" clip-path="url(#p0b8d126c7b)" style="fill: none; stroke: #c68225"/>
   </g>
   <g id="line2d_146">
    <path d="M 110.31335 226.509423 
L 109.506536 226.506799 
L 107.923122 226.506575 
L 105.46998 226.506578 
L 102.624611 226.506593 
" clip-path="url(#p0b8d126c7b)" style="fill: none; stroke: #00a98d"/>
   </g>
   <g id="line2d_147">
    <path d="M 110.31335 113.632544 
L 109.506536 216.805961 
L 107.923122 226.056188 
L 105.46998 226.562954 
L 102.624611 226.604004 
" clip-path="url(#p0b8d126c7b)" style="fill: none; stroke: #8e971e"/>
   </g>
   <g id="line2d_148">
    <path d="M 110.31335 226.598484 
L 109.506536 226.606879 
L 107.923122 226.607596 
L 105.46998 226.607586 
L 102.624611 226.607541 
" clip-path="url(#p0b8d126c7b)" style="fill: none; stroke: #00a9cc"/>
   </g>
   <g id="line2d_149">
    <path d="M 102.624611 226.506976 
L 101.184867 226.504258 
L 98.125417 226.504025 
L 94.935872 226.504022 
" clip-path="url(#p0b8d126c7b)" style="fill: none; stroke: #9b7fe9"/>
   </g>
   <g id="line2d_150">
    <path d="M 102.624611 109.018615 
L 101.184867 216.338053 
L 98.125417 226.039224 
L 94.935872 226.586916 
" clip-path="url(#p0b8d126c7b)" style="fill: none; stroke: #618df6"/>
   </g>
   <g id="line2d_151">
    <path d="M 102.624611 226.607668 
L 101.184867 226.616407 
L 98.125417 226.617156 
L 94.935872 226.617166 
" clip-path="url(#p0b8d126c7b)" style="fill: none; stroke: #f06073"/>
   </g>
   <g id="line2d_152">
    <path d="M 94.935872 226.504367 
L 92.314963 226.50171 
L 87.247133 226.501481 
" clip-path="url(#p0b8d126c7b)" style="fill: none; stroke: #dd65b6"/>
   </g>
   <g id="line2d_153">
    <path d="M 94.935872 110.815447 
L 92.314963 216.509566 
L 87.247133 226.095179 
" clip-path="url(#p0b8d126c7b)" style="fill: none; stroke: #6c9f33"/>
   </g>
   <g id="line2d_154">
    <path d="M 94.935872 226.616644 
L 92.314963 226.625251 
L 87.247133 226.625996 
" clip-path="url(#p0b8d126c7b)" style="fill: none; stroke: #009afa"/>
   </g>
   <g id="line2d_155">
    <path d="M 87.247133 226.500942 
L 82.024114 226.498283 
L 79.558394 226.498135 
" clip-path="url(#p0b8d126c7b)" style="fill: none; stroke: #e36f47"/>
   </g>
   <g id="line2d_156">
    <path d="M 87.247133 114.423935 
L 82.024114 216.876339 
L 79.558394 222.704327 
" clip-path="url(#p0b8d126c7b)" style="fill: none; stroke: #3ea44e"/>
   </g>
   <g id="line2d_157">
    <path d="M 87.247133 226.62546 
L 82.024114 226.633802 
L 79.558394 226.634268 
" clip-path="url(#p0b8d126c7b)" style="fill: none; stroke: #c371d2"/>
   </g>
   <g id="line2d_158">
    <path d="M 79.558394 226.498565 
L 71.869655 226.495636 
" clip-path="url(#p0b8d126c7b)" style="fill: none; stroke: #ac8e18"/>
   </g>
   <g id="line2d_159">
    <path d="M 79.558394 91.273011 
L 71.869655 208.726746 
" clip-path="url(#p0b8d126c7b)" style="fill: none; stroke: #00aaae"/>
   </g>
   <g id="line2d_160">
    <path d="M 79.558394 226.634391 
L 71.869655 226.643963 
" clip-path="url(#p0b8d126c7b)" style="fill: none; stroke: #ed5e93"/>
   </g>
   <g id="line2d_161">
    <path d="M 71.869655 226.49556 
L 64.180916 226.493065 
" clip-path="url(#p0b8d126c7b)" style="fill: none; stroke: #c68225"/>
   </g>
   <g id="line2d_162">
    <path d="M 71.869655 90.899989 
L 64.180916 177.377023 
" clip-path="url(#p0b8d126c7b)" style="fill: none; stroke: #00a98d"/>
   </g>
   <g id="line2d_163">
    <path d="M 71.869655 226.644248 
L 64.180916 226.651301 
" clip-path="url(#p0b8d126c7b)" style="fill: none; stroke: #8e971e"/>
   </g>
   <g id="line2d_164">
    <path d="M 64.180916 226.492893 
L 56.492177 226.490749 
" clip-path="url(#p0b8d126c7b)" style="fill: none; stroke: #00a9cc"/>
   </g>
   <g id="line2d_165">
    <path d="M 64.180916 69.286433 
L 56.492177 122.870546 
" clip-path="url(#p0b8d126c7b)" style="fill: none; stroke: #9b7fe9"/>
   </g>
   <g id="line2d_166">
    <path d="M 64.180916 226.651594 
L 56.492177 226.655966 
" clip-path="url(#p0b8d126c7b)" style="fill: none; stroke: #618df6"/>
   </g>
   <g id="line2d_167">
    <path d="M 56.492177 226.490699 
L 48.803438 226.489068 
" clip-path="url(#p0b8d126c7b)" style="fill: none; stroke: #f06073"/>
   </g>
   <g id="line2d_168">
    <path d="M 56.492177 41.552548 
L 48.803438 67.117522 
" clip-path="url(#p0b8d126c7b)" style="fill: none; stroke: #dd65b6"/>
   </g>
   <g id="line2d_169">
    <path d="M 56.492177 226.655785 
L 48.803438 226.657872 
" clip-path="url(#p0b8d126c7b)" style="fill: none; stroke: #6c9f33"/>
   </g>
   <g id="line2d_170">
    <path d="M 48.803438 226.488998 
L 41.114699 226.487968 
" clip-path="url(#p0b8d126c7b)" style="fill: none; stroke: #009afa"/>
   </g>
   <g id="line2d_171">
    <path d="M 48.803438 31.017628 
L 41.114699 40.55559 
" clip-path="url(#p0b8d126c7b)" style="fill: none; stroke: #e36f47"/>
   </g>
   <g id="line2d_172">
    <path d="M 48.803438 226.65755 
L 41.114699 226.658329 
" clip-path="url(#p0b8d126c7b)" style="fill: none; stroke: #3ea44e"/>
   </g>
  </g>
 </g>
 <defs>
  <clipPath id="p0b8d126c7b">
   <rect x="29.812253" y="24.674646" width="399.353101" height="224.118709"/>
  </clipPath>
 </defs>
</svg>
