<?xml version="1.0" encoding="utf-8" standalone="no"?>
<!DOCTYPE svg PUBLIC "-//W3C//DTD SVG 1.1//EN"
  "http://www.w3.org/Graphics/SVG/1.1/DTD/svg11.dtd">
<!-- Created with matplotlib (https://matplotlib.org/) -->
<svg height="252pt" version="1.1" viewBox="0 0 432 252" width="432pt" xmlns="http://www.w3.org/2000/svg" xmlns:xlink="http://www.w3.org/1999/xlink">
 <metadata>
  <rdf:RDF xmlns:cc="http://creativecommons.org/ns#" xmlns:dc="http://purl.org/dc/elements/1.1/" xmlns:rdf="http://www.w3.org/1999/02/22-rdf-syntax-ns#">
   <cc:Work>
    <dc:type rdf:resource="http://purl.org/dc/dcmitype/StillImage"/>
    <dc:date>2021-06-06T22:26:26.494675</dc:date>
    <dc:format>image/svg+xml</dc:format>
    <dc:creator>
     <cc:Agent>
      <dc:title>Matplotlib v3.3.2, https://matplotlib.org/</dc:title>
     </cc:Agent>
    </dc:creator>
   </cc:Work>
  </rdf:RDF>
 </metadata>
 <defs>
  <style type="text/css">*{stroke-linecap:butt;stroke-linejoin:round;}</style>
 </defs>
 <g id="figure_1">
  <g id="patch_1">
   <path d="M 0 252 
L 432 252 
L 432 0 
L 0 0 
z
" style="fill:#ffffff;"/>
  </g>
  <g id="axes_1">
   <g id="patch_2">
    <path d="M 33.61717 231.193354 
L 429.165354 231.193354 
L 429.165354 24.674646 
L 33.61717 24.674646 
z
" style="fill:#ffffff;"/>
   </g>
   <g id="matplotlib.axis_1">
    <g id="xtick_1">
     <g id="line2d_1">
      <path clip-path="url(#p69daa98f35)" d="M 91.456763 231.193354 
L 91.456763 24.674646 
" style="fill:none;stroke:#000000;stroke-linecap:square;stroke-opacity:0.1;stroke-width:0.5;"/>
     </g>
     <g id="line2d_2">
      <defs>
       <path d="M 0 0 
L 0 -2.5 
" id="m2f954ae854" style="stroke:#000000;stroke-width:0.5;"/>
      </defs>
      <g>
       <use style="stroke:#000000;stroke-width:0.5;" x="91.456763" xlink:href="#m2f954ae854" y="231.193354"/>
      </g>
     </g>
     <g id="line2d_3">
      <defs>
       <path d="M 0 0 
L 0 2.5 
" id="m971eef3fb8" style="stroke:#000000;stroke-width:0.5;"/>
      </defs>
      <g>
       <use style="stroke:#000000;stroke-width:0.5;" x="91.456763" xlink:href="#m971eef3fb8" y="24.674646"/>
      </g>
     </g>
     <g id="text_1">
      <!-- $\mathregular{10^{-2.5}}$ -->
      <g transform="translate(73.396763 243.811479)scale(0.12 -0.12)">
       <defs>
        <path d="M 12.40625 8.296875 
L 28.515625 8.296875 
L 28.515625 63.921875 
L 10.984375 60.40625 
L 10.984375 69.390625 
L 28.421875 72.90625 
L 38.28125 72.90625 
L 38.28125 8.296875 
L 54.390625 8.296875 
L 54.390625 0 
L 12.40625 0 
z
" id="DejaVuSans-49"/>
        <path d="M 31.78125 66.40625 
Q 24.171875 66.40625 20.328125 58.90625 
Q 16.5 51.421875 16.5 36.375 
Q 16.5 21.390625 20.328125 13.890625 
Q 24.171875 6.390625 31.78125 6.390625 
Q 39.453125 6.390625 43.28125 13.890625 
Q 47.125 21.390625 47.125 36.375 
Q 47.125 51.421875 43.28125 58.90625 
Q 39.453125 66.40625 31.78125 66.40625 
z
M 31.78125 74.21875 
Q 44.046875 74.21875 50.515625 64.515625 
Q 56.984375 54.828125 56.984375 36.375 
Q 56.984375 17.96875 50.515625 8.265625 
Q 44.046875 -1.421875 31.78125 -1.421875 
Q 19.53125 -1.421875 13.0625 8.265625 
Q 6.59375 17.96875 6.59375 36.375 
Q 6.59375 54.828125 13.0625 64.515625 
Q 19.53125 74.21875 31.78125 74.21875 
z
" id="DejaVuSans-48"/>
        <path d="M 10.59375 35.5 
L 73.1875 35.5 
L 73.1875 27.203125 
L 10.59375 27.203125 
z
" id="DejaVuSans-8722"/>
        <path d="M 19.1875 8.296875 
L 53.609375 8.296875 
L 53.609375 0 
L 7.328125 0 
L 7.328125 8.296875 
Q 12.9375 14.109375 22.625 23.890625 
Q 32.328125 33.6875 34.8125 36.53125 
Q 39.546875 41.84375 41.421875 45.53125 
Q 43.3125 49.21875 43.3125 52.78125 
Q 43.3125 58.59375 39.234375 62.25 
Q 35.15625 65.921875 28.609375 65.921875 
Q 23.96875 65.921875 18.8125 64.3125 
Q 13.671875 62.703125 7.8125 59.421875 
L 7.8125 69.390625 
Q 13.765625 71.78125 18.9375 73 
Q 24.125 74.21875 28.421875 74.21875 
Q 39.75 74.21875 46.484375 68.546875 
Q 53.21875 62.890625 53.21875 53.421875 
Q 53.21875 48.921875 51.53125 44.890625 
Q 49.859375 40.875 45.40625 35.40625 
Q 44.1875 33.984375 37.640625 27.21875 
Q 31.109375 20.453125 19.1875 8.296875 
z
" id="DejaVuSans-50"/>
        <path d="M 10.6875 12.40625 
L 21 12.40625 
L 21 0 
L 10.6875 0 
z
" id="DejaVuSans-46"/>
        <path d="M 10.796875 72.90625 
L 49.515625 72.90625 
L 49.515625 64.59375 
L 19.828125 64.59375 
L 19.828125 46.734375 
Q 21.96875 47.46875 24.109375 47.828125 
Q 26.265625 48.1875 28.421875 48.1875 
Q 40.625 48.1875 47.75 41.5 
Q 54.890625 34.8125 54.890625 23.390625 
Q 54.890625 11.625 47.5625 5.09375 
Q 40.234375 -1.421875 26.90625 -1.421875 
Q 22.3125 -1.421875 17.546875 -0.640625 
Q 12.796875 0.140625 7.71875 1.703125 
L 7.71875 11.625 
Q 12.109375 9.234375 16.796875 8.0625 
Q 21.484375 6.890625 26.703125 6.890625 
Q 35.15625 6.890625 40.078125 11.328125 
Q 45.015625 15.765625 45.015625 23.390625 
Q 45.015625 31 40.078125 35.4375 
Q 35.15625 39.890625 26.703125 39.890625 
Q 22.75 39.890625 18.8125 39.015625 
Q 14.890625 38.140625 10.796875 36.28125 
z
" id="DejaVuSans-53"/>
       </defs>
       <use transform="translate(0 0.765625)" xlink:href="#DejaVuSans-49"/>
       <use transform="translate(63.623047 0.765625)" xlink:href="#DejaVuSans-48"/>
       <use transform="translate(128.203125 39.046875)scale(0.7)" xlink:href="#DejaVuSans-8722"/>
       <use transform="translate(186.855469 39.046875)scale(0.7)" xlink:href="#DejaVuSans-50"/>
       <use transform="translate(231.391602 39.046875)scale(0.7)" xlink:href="#DejaVuSans-46"/>
       <use transform="translate(253.642578 39.046875)scale(0.7)" xlink:href="#DejaVuSans-53"/>
      </g>
     </g>
    </g>
    <g id="xtick_2">
     <g id="line2d_4">
      <path clip-path="url(#p69daa98f35)" d="M 169.198151 231.193354 
L 169.198151 24.674646 
" style="fill:none;stroke:#000000;stroke-linecap:square;stroke-opacity:0.1;stroke-width:0.5;"/>
     </g>
     <g id="line2d_5">
      <g>
       <use style="stroke:#000000;stroke-width:0.5;" x="169.198151" xlink:href="#m2f954ae854" y="231.193354"/>
      </g>
     </g>
     <g id="line2d_6">
      <g>
       <use style="stroke:#000000;stroke-width:0.5;" x="169.198151" xlink:href="#m971eef3fb8" y="24.674646"/>
      </g>
     </g>
     <g id="text_2">
      <!-- $\mathregular{10^{0.0}}$ -->
      <g transform="translate(154.618151 243.811479)scale(0.12 -0.12)">
       <use transform="translate(0 0.765625)" xlink:href="#DejaVuSans-49"/>
       <use transform="translate(63.623047 0.765625)" xlink:href="#DejaVuSans-48"/>
       <use transform="translate(128.203125 39.046875)scale(0.7)" xlink:href="#DejaVuSans-48"/>
       <use transform="translate(172.739258 39.046875)scale(0.7)" xlink:href="#DejaVuSans-46"/>
       <use transform="translate(194.990234 39.046875)scale(0.7)" xlink:href="#DejaVuSans-48"/>
      </g>
     </g>
    </g>
    <g id="xtick_3">
     <g id="line2d_7">
      <path clip-path="url(#p69daa98f35)" d="M 246.93954 231.193354 
L 246.93954 24.674646 
" style="fill:none;stroke:#000000;stroke-linecap:square;stroke-opacity:0.1;stroke-width:0.5;"/>
     </g>
     <g id="line2d_8">
      <g>
       <use style="stroke:#000000;stroke-width:0.5;" x="246.93954" xlink:href="#m2f954ae854" y="231.193354"/>
      </g>
     </g>
     <g id="line2d_9">
      <g>
       <use style="stroke:#000000;stroke-width:0.5;" x="246.93954" xlink:href="#m971eef3fb8" y="24.674646"/>
      </g>
     </g>
     <g id="text_3">
      <!-- $\mathregular{10^{2.5}}$ -->
      <g transform="translate(232.35954 243.811479)scale(0.12 -0.12)">
       <use transform="translate(0 0.765625)" xlink:href="#DejaVuSans-49"/>
       <use transform="translate(63.623047 0.765625)" xlink:href="#DejaVuSans-48"/>
       <use transform="translate(128.203125 39.046875)scale(0.7)" xlink:href="#DejaVuSans-50"/>
       <use transform="translate(172.739258 39.046875)scale(0.7)" xlink:href="#DejaVuSans-46"/>
       <use transform="translate(194.990234 39.046875)scale(0.7)" xlink:href="#DejaVuSans-53"/>
      </g>
     </g>
    </g>
    <g id="xtick_4">
     <g id="line2d_10">
      <path clip-path="url(#p69daa98f35)" d="M 324.680928 231.193354 
L 324.680928 24.674646 
" style="fill:none;stroke:#000000;stroke-linecap:square;stroke-opacity:0.1;stroke-width:0.5;"/>
     </g>
     <g id="line2d_11">
      <g>
       <use style="stroke:#000000;stroke-width:0.5;" x="324.680928" xlink:href="#m2f954ae854" y="231.193354"/>
      </g>
     </g>
     <g id="line2d_12">
      <g>
       <use style="stroke:#000000;stroke-width:0.5;" x="324.680928" xlink:href="#m971eef3fb8" y="24.674646"/>
      </g>
     </g>
     <g id="text_4">
      <!-- $\mathregular{10^{5.0}}$ -->
      <g transform="translate(310.100928 243.811479)scale(0.12 -0.12)">
       <use transform="translate(0 0.765625)" xlink:href="#DejaVuSans-49"/>
       <use transform="translate(63.623047 0.765625)" xlink:href="#DejaVuSans-48"/>
       <use transform="translate(128.203125 39.046875)scale(0.7)" xlink:href="#DejaVuSans-53"/>
       <use transform="translate(172.739258 39.046875)scale(0.7)" xlink:href="#DejaVuSans-46"/>
       <use transform="translate(194.990234 39.046875)scale(0.7)" xlink:href="#DejaVuSans-48"/>
      </g>
     </g>
    </g>
    <g id="xtick_5">
     <g id="line2d_13">
      <path clip-path="url(#p69daa98f35)" d="M 402.422317 231.193354 
L 402.422317 24.674646 
" style="fill:none;stroke:#000000;stroke-linecap:square;stroke-opacity:0.1;stroke-width:0.5;"/>
     </g>
     <g id="line2d_14">
      <g>
       <use style="stroke:#000000;stroke-width:0.5;" x="402.422317" xlink:href="#m2f954ae854" y="231.193354"/>
      </g>
     </g>
     <g id="line2d_15">
      <g>
       <use style="stroke:#000000;stroke-width:0.5;" x="402.422317" xlink:href="#m971eef3fb8" y="24.674646"/>
      </g>
     </g>
     <g id="text_5">
      <!-- $\mathregular{10^{7.5}}$ -->
      <g transform="translate(387.842317 243.811479)scale(0.12 -0.12)">
       <defs>
        <path d="M 8.203125 72.90625 
L 55.078125 72.90625 
L 55.078125 68.703125 
L 28.609375 0 
L 18.3125 0 
L 43.21875 64.59375 
L 8.203125 64.59375 
z
" id="DejaVuSans-55"/>
       </defs>
       <use transform="translate(0 0.684375)" xlink:href="#DejaVuSans-49"/>
       <use transform="translate(63.623047 0.684375)" xlink:href="#DejaVuSans-48"/>
       <use transform="translate(128.203125 38.965625)scale(0.7)" xlink:href="#DejaVuSans-55"/>
       <use transform="translate(172.739258 38.965625)scale(0.7)" xlink:href="#DejaVuSans-46"/>
       <use transform="translate(194.990234 38.965625)scale(0.7)" xlink:href="#DejaVuSans-53"/>
      </g>
     </g>
    </g>
    <g id="xtick_6">
     <g id="line2d_16">
      <defs>
       <path d="M 0 0 
L 0 2 
" id="m045866af53" style="stroke:#000000;stroke-width:0.6;"/>
      </defs>
      <g>
       <use style="stroke:#000000;stroke-width:0.6;" x="44.81193" xlink:href="#m045866af53" y="231.193354"/>
      </g>
     </g>
    </g>
    <g id="xtick_7">
     <g id="line2d_17">
      <g>
       <use style="stroke:#000000;stroke-width:0.6;" x="75.908485" xlink:href="#m045866af53" y="231.193354"/>
      </g>
     </g>
    </g>
    <g id="xtick_8">
     <g id="line2d_18">
      <g>
       <use style="stroke:#000000;stroke-width:0.6;" x="107.005041" xlink:href="#m045866af53" y="231.193354"/>
      </g>
     </g>
    </g>
    <g id="xtick_9">
     <g id="line2d_19">
      <g>
       <use style="stroke:#000000;stroke-width:0.6;" x="138.101596" xlink:href="#m045866af53" y="231.193354"/>
      </g>
     </g>
    </g>
    <g id="xtick_10">
     <g id="line2d_20">
      <g>
       <use style="stroke:#000000;stroke-width:0.6;" x="200.294707" xlink:href="#m045866af53" y="231.193354"/>
      </g>
     </g>
    </g>
    <g id="xtick_11">
     <g id="line2d_21">
      <g>
       <use style="stroke:#000000;stroke-width:0.6;" x="231.391262" xlink:href="#m045866af53" y="231.193354"/>
      </g>
     </g>
    </g>
    <g id="xtick_12">
     <g id="line2d_22">
      <g>
       <use style="stroke:#000000;stroke-width:0.6;" x="262.487818" xlink:href="#m045866af53" y="231.193354"/>
      </g>
     </g>
    </g>
    <g id="xtick_13">
     <g id="line2d_23">
      <g>
       <use style="stroke:#000000;stroke-width:0.6;" x="293.584373" xlink:href="#m045866af53" y="231.193354"/>
      </g>
     </g>
    </g>
    <g id="xtick_14">
     <g id="line2d_24">
      <g>
       <use style="stroke:#000000;stroke-width:0.6;" x="355.777484" xlink:href="#m045866af53" y="231.193354"/>
      </g>
     </g>
    </g>
    <g id="xtick_15">
     <g id="line2d_25">
      <g>
       <use style="stroke:#000000;stroke-width:0.6;" x="386.874039" xlink:href="#m045866af53" y="231.193354"/>
      </g>
     </g>
    </g>
    <g id="xtick_16">
     <g id="line2d_26">
      <g>
       <use style="stroke:#000000;stroke-width:0.6;" x="417.970594" xlink:href="#m045866af53" y="231.193354"/>
      </g>
     </g>
    </g>
   </g>
   <g id="matplotlib.axis_2">
    <g id="ytick_1">
     <g id="line2d_27">
      <path clip-path="url(#p69daa98f35)" d="M 33.61717 209.01254 
L 429.165354 209.01254 
" style="fill:none;stroke:#000000;stroke-linecap:square;stroke-opacity:0.1;stroke-width:0.5;"/>
     </g>
     <g id="line2d_28">
      <defs>
       <path d="M 0 0 
L 2.5 0 
" id="md546a9d7ba" style="stroke:#000000;stroke-width:0.5;"/>
      </defs>
      <g>
       <use style="stroke:#000000;stroke-width:0.5;" x="33.61717" xlink:href="#md546a9d7ba" y="209.01254"/>
      </g>
     </g>
     <g id="line2d_29">
      <defs>
       <path d="M 0 0 
L -2.5 0 
" id="m3450e0106f" style="stroke:#000000;stroke-width:0.5;"/>
      </defs>
      <g>
       <use style="stroke:#000000;stroke-width:0.5;" x="429.165354" xlink:href="#m3450e0106f" y="209.01254"/>
      </g>
     </g>
     <g id="text_6">
      <!-- $\mathregular{0.00}$ -->
      <g transform="translate(3.35717 213.571602)scale(0.12 -0.12)">
       <use transform="translate(0 0.78125)" xlink:href="#DejaVuSans-48"/>
       <use transform="translate(63.623047 0.78125)" xlink:href="#DejaVuSans-46"/>
       <use transform="translate(95.410156 0.78125)" xlink:href="#DejaVuSans-48"/>
       <use transform="translate(159.033203 0.78125)" xlink:href="#DejaVuSans-48"/>
      </g>
     </g>
    </g>
    <g id="ytick_2">
     <g id="line2d_30">
      <path clip-path="url(#p69daa98f35)" d="M 33.61717 168.052538 
L 429.165354 168.052538 
" style="fill:none;stroke:#000000;stroke-linecap:square;stroke-opacity:0.1;stroke-width:0.5;"/>
     </g>
     <g id="line2d_31">
      <g>
       <use style="stroke:#000000;stroke-width:0.5;" x="33.61717" xlink:href="#md546a9d7ba" y="168.052538"/>
      </g>
     </g>
     <g id="line2d_32">
      <g>
       <use style="stroke:#000000;stroke-width:0.5;" x="429.165354" xlink:href="#m3450e0106f" y="168.052538"/>
      </g>
     </g>
     <g id="text_7">
      <!-- $\mathregular{0.25}$ -->
      <g transform="translate(3.95717 172.611601)scale(0.12 -0.12)">
       <use transform="translate(0 0.78125)" xlink:href="#DejaVuSans-48"/>
       <use transform="translate(63.623047 0.78125)" xlink:href="#DejaVuSans-46"/>
       <use transform="translate(89.910156 0.78125)" xlink:href="#DejaVuSans-50"/>
       <use transform="translate(153.533203 0.78125)" xlink:href="#DejaVuSans-53"/>
      </g>
     </g>
    </g>
    <g id="ytick_3">
     <g id="line2d_33">
      <path clip-path="url(#p69daa98f35)" d="M 33.61717 127.092537 
L 429.165354 127.092537 
" style="fill:none;stroke:#000000;stroke-linecap:square;stroke-opacity:0.1;stroke-width:0.5;"/>
     </g>
     <g id="line2d_34">
      <g>
       <use style="stroke:#000000;stroke-width:0.5;" x="33.61717" xlink:href="#md546a9d7ba" y="127.092537"/>
      </g>
     </g>
     <g id="line2d_35">
      <g>
       <use style="stroke:#000000;stroke-width:0.5;" x="429.165354" xlink:href="#m3450e0106f" y="127.092537"/>
      </g>
     </g>
     <g id="text_8">
      <!-- $\mathregular{0.50}$ -->
      <g transform="translate(3.35717 131.6516)scale(0.12 -0.12)">
       <use transform="translate(0 0.78125)" xlink:href="#DejaVuSans-48"/>
       <use transform="translate(63.623047 0.78125)" xlink:href="#DejaVuSans-46"/>
       <use transform="translate(95.410156 0.78125)" xlink:href="#DejaVuSans-53"/>
       <use transform="translate(159.033203 0.78125)" xlink:href="#DejaVuSans-48"/>
      </g>
     </g>
    </g>
    <g id="ytick_4">
     <g id="line2d_36">
      <path clip-path="url(#p69daa98f35)" d="M 33.61717 86.132536 
L 429.165354 86.132536 
" style="fill:none;stroke:#000000;stroke-linecap:square;stroke-opacity:0.1;stroke-width:0.5;"/>
     </g>
     <g id="line2d_37">
      <g>
       <use style="stroke:#000000;stroke-width:0.5;" x="33.61717" xlink:href="#md546a9d7ba" y="86.132536"/>
      </g>
     </g>
     <g id="line2d_38">
      <g>
       <use style="stroke:#000000;stroke-width:0.5;" x="429.165354" xlink:href="#m3450e0106f" y="86.132536"/>
      </g>
     </g>
     <g id="text_9">
      <!-- $\mathregular{0.75}$ -->
      <g transform="translate(4.31717 90.691598)scale(0.12 -0.12)">
       <use transform="translate(0 0.78125)" xlink:href="#DejaVuSans-48"/>
       <use transform="translate(63.623047 0.78125)" xlink:href="#DejaVuSans-46"/>
       <use transform="translate(87.660156 0.78125)" xlink:href="#DejaVuSans-55"/>
       <use transform="translate(151.283203 0.78125)" xlink:href="#DejaVuSans-53"/>
      </g>
     </g>
    </g>
    <g id="ytick_5">
     <g id="line2d_39">
      <path clip-path="url(#p69daa98f35)" d="M 33.61717 45.172535 
L 429.165354 45.172535 
" style="fill:none;stroke:#000000;stroke-linecap:square;stroke-opacity:0.1;stroke-width:0.5;"/>
     </g>
     <g id="line2d_40">
      <g>
       <use style="stroke:#000000;stroke-width:0.5;" x="33.61717" xlink:href="#md546a9d7ba" y="45.172535"/>
      </g>
     </g>
     <g id="line2d_41">
      <g>
       <use style="stroke:#000000;stroke-width:0.5;" x="429.165354" xlink:href="#m3450e0106f" y="45.172535"/>
      </g>
     </g>
     <g id="text_10">
      <!-- $\mathregular{1.00}$ -->
      <g transform="translate(3.35717 49.731597)scale(0.12 -0.12)">
       <use transform="translate(0 0.78125)" xlink:href="#DejaVuSans-49"/>
       <use transform="translate(63.623047 0.78125)" xlink:href="#DejaVuSans-46"/>
       <use transform="translate(95.410156 0.78125)" xlink:href="#DejaVuSans-48"/>
       <use transform="translate(159.033203 0.78125)" xlink:href="#DejaVuSans-48"/>
      </g>
     </g>
    </g>
   </g>
   <g id="PathCollection_1">
    <defs>
     <path d="M 0 2 
C 0.530406 2 1.03916 1.789267 1.414214 1.414214 
C 1.789267 1.03916 2 0.530406 2 0 
C 2 -0.530406 1.789267 -1.03916 1.414214 -1.414214 
C 1.03916 -1.789267 0.530406 -2 0 -2 
C -0.530406 -2 -1.03916 -1.789267 -1.414214 -1.414214 
C -1.789267 -1.03916 -2 -0.530406 -2 0 
C -2 0.530406 -1.789267 1.03916 -1.414214 1.414214 
C -1.03916 1.789267 -0.530406 2 0 2 
z
" id="m2def9715db"/>
    </defs>
    <g clip-path="url(#p69daa98f35)">
     <use style="fill:#00008b;" x="44.81193" xlink:href="#m2def9715db" y="44.188797"/>
     <use style="fill:#00008b;" x="48.581209" xlink:href="#m2def9715db" y="30.638045"/>
     <use style="fill:#00008b;" x="52.350489" xlink:href="#m2def9715db" y="50.738718"/>
     <use style="fill:#00008b;" x="56.119768" xlink:href="#m2def9715db" y="31.196633"/>
     <use style="fill:#00008b;" x="59.889048" xlink:href="#m2def9715db" y="59.250522"/>
     <use style="fill:#00008b;" x="63.658327" xlink:href="#m2def9715db" y="41.723016"/>
     <use style="fill:#00008b;" x="67.427607" xlink:href="#m2def9715db" y="55.802076"/>
     <use style="fill:#00008b;" x="71.196886" xlink:href="#m2def9715db" y="50.648702"/>
     <use style="fill:#00008b;" x="74.966166" xlink:href="#m2def9715db" y="31.603216"/>
     <use style="fill:#00008b;" x="78.735445" xlink:href="#m2def9715db" y="35.743871"/>
     <use style="fill:#00008b;" x="82.504724" xlink:href="#m2def9715db" y="40.953917"/>
     <use style="fill:#00008b;" x="86.274004" xlink:href="#m2def9715db" y="31.488366"/>
     <use style="fill:#00008b;" x="90.043283" xlink:href="#m2def9715db" y="59.623917"/>
     <use style="fill:#00008b;" x="93.812563" xlink:href="#m2def9715db" y="51.307483"/>
     <use style="fill:#00008b;" x="97.581842" xlink:href="#m2def9715db" y="41.084879"/>
     <use style="fill:#00008b;" x="101.351122" xlink:href="#m2def9715db" y="58.900669"/>
     <use style="fill:#00008b;" x="105.120401" xlink:href="#m2def9715db" y="53.347001"/>
     <use style="fill:#00008b;" x="108.88968" xlink:href="#m2def9715db" y="47.348386"/>
     <use style="fill:#00008b;" x="112.65896" xlink:href="#m2def9715db" y="33.664176"/>
     <use style="fill:#00008b;" x="116.428239" xlink:href="#m2def9715db" y="30.795818"/>
     <use style="fill:#00008b;" x="120.197519" xlink:href="#m2def9715db" y="58.678368"/>
     <use style="fill:#00008b;" x="123.966798" xlink:href="#m2def9715db" y="48.305891"/>
     <use style="fill:#00008b;" x="127.736078" xlink:href="#m2def9715db" y="41.029451"/>
     <use style="fill:#00008b;" x="131.505357" xlink:href="#m2def9715db" y="31.112145"/>
     <use style="fill:#00008b;" x="135.274637" xlink:href="#m2def9715db" y="47.695166"/>
     <use style="fill:#00008b;" x="139.043916" xlink:href="#m2def9715db" y="49.23698"/>
     <use style="fill:#00008b;" x="142.813195" xlink:href="#m2def9715db" y="57.143622"/>
     <use style="fill:#00008b;" x="146.582475" xlink:href="#m2def9715db" y="56.314187"/>
     <use style="fill:#00008b;" x="150.351754" xlink:href="#m2def9715db" y="51.739439"/>
     <use style="fill:#00008b;" x="154.121034" xlink:href="#m2def9715db" y="52.518087"/>
     <use style="fill:#00008b;" x="157.890313" xlink:href="#m2def9715db" y="62.025983"/>
     <use style="fill:#00008b;" x="161.659593" xlink:href="#m2def9715db" y="58.93851"/>
     <use style="fill:#00008b;" x="165.428872" xlink:href="#m2def9715db" y="45.22834"/>
     <use style="fill:#00008b;" x="169.198151" xlink:href="#m2def9715db" y="41.221671"/>
     <use style="fill:#00008b;" x="172.967431" xlink:href="#m2def9715db" y="46.938773"/>
     <use style="fill:#00008b;" x="176.73671" xlink:href="#m2def9715db" y="44.816268"/>
     <use style="fill:#00008b;" x="180.50599" xlink:href="#m2def9715db" y="67.414148"/>
     <use style="fill:#00008b;" x="184.275269" xlink:href="#m2def9715db" y="55.178665"/>
     <use style="fill:#00008b;" x="188.044549" xlink:href="#m2def9715db" y="64.552601"/>
     <use style="fill:#00008b;" x="191.813828" xlink:href="#m2def9715db" y="56.259151"/>
     <use style="fill:#00008b;" x="195.583108" xlink:href="#m2def9715db" y="75.937224"/>
     <use style="fill:#00008b;" x="199.352387" xlink:href="#m2def9715db" y="58.428388"/>
     <use style="fill:#00008b;" x="203.121666" xlink:href="#m2def9715db" y="85.34466"/>
     <use style="fill:#00008b;" x="206.890946" xlink:href="#m2def9715db" y="62.808475"/>
     <use style="fill:#00008b;" x="210.660225" xlink:href="#m2def9715db" y="71.859794"/>
     <use style="fill:#00008b;" x="214.429505" xlink:href="#m2def9715db" y="71.243973"/>
     <use style="fill:#00008b;" x="218.198784" xlink:href="#m2def9715db" y="74.490807"/>
     <use style="fill:#00008b;" x="221.968064" xlink:href="#m2def9715db" y="89.423998"/>
     <use style="fill:#00008b;" x="225.737343" xlink:href="#m2def9715db" y="86.826582"/>
     <use style="fill:#00008b;" x="229.506622" xlink:href="#m2def9715db" y="110.691931"/>
     <use style="fill:#00008b;" x="233.275902" xlink:href="#m2def9715db" y="102.599831"/>
     <use style="fill:#00008b;" x="237.045181" xlink:href="#m2def9715db" y="123.011815"/>
     <use style="fill:#00008b;" x="240.814461" xlink:href="#m2def9715db" y="126.214225"/>
     <use style="fill:#00008b;" x="244.58374" xlink:href="#m2def9715db" y="131.346343"/>
     <use style="fill:#00008b;" x="248.35302" xlink:href="#m2def9715db" y="135.934313"/>
     <use style="fill:#00008b;" x="252.122299" xlink:href="#m2def9715db" y="129.370693"/>
     <use style="fill:#00008b;" x="255.891579" xlink:href="#m2def9715db" y="157.146759"/>
     <use style="fill:#00008b;" x="259.660858" xlink:href="#m2def9715db" y="146.996143"/>
     <use style="fill:#00008b;" x="263.430137" xlink:href="#m2def9715db" y="149.697782"/>
     <use style="fill:#00008b;" x="267.199417" xlink:href="#m2def9715db" y="176.669938"/>
     <use style="fill:#00008b;" x="270.968696" xlink:href="#m2def9715db" y="170.709928"/>
     <use style="fill:#00008b;" x="274.737976" xlink:href="#m2def9715db" y="179.453643"/>
     <use style="fill:#00008b;" x="278.507255" xlink:href="#m2def9715db" y="188.630798"/>
     <use style="fill:#00008b;" x="282.276535" xlink:href="#m2def9715db" y="188.693519"/>
     <use style="fill:#00008b;" x="286.045814" xlink:href="#m2def9715db" y="196.82911"/>
     <use style="fill:#00008b;" x="289.815093" xlink:href="#m2def9715db" y="172.040397"/>
     <use style="fill:#00008b;" x="293.584373" xlink:href="#m2def9715db" y="200.503189"/>
     <use style="fill:#00008b;" x="297.353652" xlink:href="#m2def9715db" y="204.094222"/>
     <use style="fill:#00008b;" x="301.122932" xlink:href="#m2def9715db" y="190.334836"/>
     <use style="fill:#00008b;" x="304.892211" xlink:href="#m2def9715db" y="201.242606"/>
     <use style="fill:#00008b;" x="308.661491" xlink:href="#m2def9715db" y="199.639055"/>
     <use style="fill:#00008b;" x="312.43077" xlink:href="#m2def9715db" y="194.852674"/>
     <use style="fill:#00008b;" x="316.20005" xlink:href="#m2def9715db" y="198.796746"/>
     <use style="fill:#00008b;" x="319.969329" xlink:href="#m2def9715db" y="189.928555"/>
     <use style="fill:#00008b;" x="323.738608" xlink:href="#m2def9715db" y="203.348043"/>
     <use style="fill:#00008b;" x="327.507888" xlink:href="#m2def9715db" y="211.358378"/>
     <use style="fill:#00008b;" x="331.277167" xlink:href="#m2def9715db" y="215.952505"/>
     <use style="fill:#00008b;" x="335.046447" xlink:href="#m2def9715db" y="221.735177"/>
     <use style="fill:#00008b;" x="338.815726" xlink:href="#m2def9715db" y="198.025419"/>
     <use style="fill:#00008b;" x="342.585006" xlink:href="#m2def9715db" y="206.800162"/>
     <use style="fill:#00008b;" x="346.354285" xlink:href="#m2def9715db" y="204.359058"/>
     <use style="fill:#00008b;" x="350.123565" xlink:href="#m2def9715db" y="222.819803"/>
     <use style="fill:#00008b;" x="353.892844" xlink:href="#m2def9715db" y="223.380952"/>
     <use style="fill:#00008b;" x="357.662123" xlink:href="#m2def9715db" y="214.108954"/>
     <use style="fill:#00008b;" x="361.431403" xlink:href="#m2def9715db" y="211.561152"/>
     <use style="fill:#00008b;" x="365.200682" xlink:href="#m2def9715db" y="205.081314"/>
     <use style="fill:#00008b;" x="368.969962" xlink:href="#m2def9715db" y="211.347477"/>
     <use style="fill:#00008b;" x="372.739241" xlink:href="#m2def9715db" y="215.794827"/>
     <use style="fill:#00008b;" x="376.508521" xlink:href="#m2def9715db" y="201.12756"/>
     <use style="fill:#00008b;" x="380.2778" xlink:href="#m2def9715db" y="195.11457"/>
     <use style="fill:#00008b;" x="384.047079" xlink:href="#m2def9715db" y="206.702078"/>
     <use style="fill:#00008b;" x="387.816359" xlink:href="#m2def9715db" y="216.358037"/>
     <use style="fill:#00008b;" x="391.585638" xlink:href="#m2def9715db" y="224.929196"/>
     <use style="fill:#00008b;" x="395.354918" xlink:href="#m2def9715db" y="223.994663"/>
     <use style="fill:#00008b;" x="399.124197" xlink:href="#m2def9715db" y="199.928654"/>
     <use style="fill:#00008b;" x="402.893477" xlink:href="#m2def9715db" y="206.046765"/>
     <use style="fill:#00008b;" x="406.662756" xlink:href="#m2def9715db" y="203.76851"/>
     <use style="fill:#00008b;" x="410.432036" xlink:href="#m2def9715db" y="221.723058"/>
     <use style="fill:#00008b;" x="414.201315" xlink:href="#m2def9715db" y="215.200226"/>
     <use style="fill:#00008b;" x="417.970594" xlink:href="#m2def9715db" y="213.509729"/>
    </g>
   </g>
   <g id="PathCollection_2">
    <defs>
     <path d="M 0 2 
C 0.530406 2 1.03916 1.789267 1.414214 1.414214 
C 1.789267 1.03916 2 0.530406 2 0 
C 2 -0.530406 1.789267 -1.03916 1.414214 -1.414214 
C 1.03916 -1.789267 0.530406 -2 0 -2 
C -0.530406 -2 -1.03916 -1.789267 -1.414214 -1.414214 
C -1.789267 -1.03916 -2 -0.530406 -2 0 
C -2 0.530406 -1.789267 1.03916 -1.414214 1.414214 
C -1.03916 1.789267 -0.530406 2 0 2 
z
" id="m116ea82369"/>
    </defs>
    <g clip-path="url(#p69daa98f35)">
     <use style="fill:#008000;" x="44.81193" xlink:href="#m116ea82369" y="184.476857"/>
     <use style="fill:#008000;" x="48.581209" xlink:href="#m116ea82369" y="187.877282"/>
     <use style="fill:#008000;" x="52.350489" xlink:href="#m116ea82369" y="186.782189"/>
     <use style="fill:#008000;" x="56.119768" xlink:href="#m116ea82369" y="187.264124"/>
     <use style="fill:#008000;" x="59.889048" xlink:href="#m116ea82369" y="174.422672"/>
     <use style="fill:#008000;" x="63.658327" xlink:href="#m116ea82369" y="164.601326"/>
     <use style="fill:#008000;" x="67.427607" xlink:href="#m116ea82369" y="141.254424"/>
     <use style="fill:#008000;" x="71.196886" xlink:href="#m116ea82369" y="137.840356"/>
     <use style="fill:#008000;" x="74.966166" xlink:href="#m116ea82369" y="116.511005"/>
     <use style="fill:#008000;" x="78.735445" xlink:href="#m116ea82369" y="110.815515"/>
     <use style="fill:#008000;" x="82.504724" xlink:href="#m116ea82369" y="94.681929"/>
     <use style="fill:#008000;" x="86.274004" xlink:href="#m116ea82369" y="90.665176"/>
     <use style="fill:#008000;" x="90.043283" xlink:href="#m116ea82369" y="96.413737"/>
     <use style="fill:#008000;" x="93.812563" xlink:href="#m116ea82369" y="79.296802"/>
     <use style="fill:#008000;" x="97.581842" xlink:href="#m116ea82369" y="81.194269"/>
     <use style="fill:#008000;" x="101.351122" xlink:href="#m116ea82369" y="97.019839"/>
     <use style="fill:#008000;" x="105.120401" xlink:href="#m116ea82369" y="98.946306"/>
     <use style="fill:#008000;" x="108.88968" xlink:href="#m116ea82369" y="96.121961"/>
     <use style="fill:#008000;" x="112.65896" xlink:href="#m116ea82369" y="84.408162"/>
     <use style="fill:#008000;" x="116.428239" xlink:href="#m116ea82369" y="77.450928"/>
     <use style="fill:#008000;" x="120.197519" xlink:href="#m116ea82369" y="91.759621"/>
     <use style="fill:#008000;" x="123.966798" xlink:href="#m116ea82369" y="93.200531"/>
     <use style="fill:#008000;" x="127.736078" xlink:href="#m116ea82369" y="95.198989"/>
     <use style="fill:#008000;" x="131.505357" xlink:href="#m116ea82369" y="84.762386"/>
     <use style="fill:#008000;" x="135.274637" xlink:href="#m116ea82369" y="98.87738"/>
     <use style="fill:#008000;" x="139.043916" xlink:href="#m116ea82369" y="98.192061"/>
     <use style="fill:#008000;" x="142.813195" xlink:href="#m116ea82369" y="98.047448"/>
     <use style="fill:#008000;" x="146.582475" xlink:href="#m116ea82369" y="86.343816"/>
     <use style="fill:#008000;" x="150.351754" xlink:href="#m116ea82369" y="86.843009"/>
     <use style="fill:#008000;" x="154.121034" xlink:href="#m116ea82369" y="89.372495"/>
     <use style="fill:#008000;" x="157.890313" xlink:href="#m116ea82369" y="103.40019"/>
     <use style="fill:#008000;" x="161.659593" xlink:href="#m116ea82369" y="99.1714"/>
     <use style="fill:#008000;" x="165.428872" xlink:href="#m116ea82369" y="101.943399"/>
     <use style="fill:#008000;" x="169.198151" xlink:href="#m116ea82369" y="103.146393"/>
     <use style="fill:#008000;" x="172.967431" xlink:href="#m116ea82369" y="118.448134"/>
     <use style="fill:#008000;" x="176.73671" xlink:href="#m116ea82369" y="106.344539"/>
     <use style="fill:#008000;" x="180.50599" xlink:href="#m116ea82369" y="117.392391"/>
     <use style="fill:#008000;" x="184.275269" xlink:href="#m116ea82369" y="139.76694"/>
     <use style="fill:#008000;" x="188.044549" xlink:href="#m116ea82369" y="126.923307"/>
     <use style="fill:#008000;" x="191.813828" xlink:href="#m116ea82369" y="135.986492"/>
     <use style="fill:#008000;" x="195.583108" xlink:href="#m116ea82369" y="141.699002"/>
     <use style="fill:#008000;" x="199.352387" xlink:href="#m116ea82369" y="152.23399"/>
     <use style="fill:#008000;" x="203.121666" xlink:href="#m116ea82369" y="167.945362"/>
     <use style="fill:#008000;" x="206.890946" xlink:href="#m116ea82369" y="164.564691"/>
     <use style="fill:#008000;" x="210.660225" xlink:href="#m116ea82369" y="179.043854"/>
     <use style="fill:#008000;" x="214.429505" xlink:href="#m116ea82369" y="162.243256"/>
     <use style="fill:#008000;" x="218.198784" xlink:href="#m116ea82369" y="176.595693"/>
     <use style="fill:#008000;" x="221.968064" xlink:href="#m116ea82369" y="180.662094"/>
     <use style="fill:#008000;" x="225.737343" xlink:href="#m116ea82369" y="182.528021"/>
     <use style="fill:#008000;" x="229.506622" xlink:href="#m116ea82369" y="194.847971"/>
     <use style="fill:#008000;" x="233.275902" xlink:href="#m116ea82369" y="183.888073"/>
     <use style="fill:#008000;" x="237.045181" xlink:href="#m116ea82369" y="199.047618"/>
     <use style="fill:#008000;" x="240.814461" xlink:href="#m116ea82369" y="194.032664"/>
     <use style="fill:#008000;" x="244.58374" xlink:href="#m116ea82369" y="188.939294"/>
     <use style="fill:#008000;" x="248.35302" xlink:href="#m116ea82369" y="203.292917"/>
     <use style="fill:#008000;" x="252.122299" xlink:href="#m116ea82369" y="202.38799"/>
     <use style="fill:#008000;" x="255.891579" xlink:href="#m116ea82369" y="195.63296"/>
     <use style="fill:#008000;" x="259.660858" xlink:href="#m116ea82369" y="189.417927"/>
     <use style="fill:#008000;" x="263.430137" xlink:href="#m116ea82369" y="199.993194"/>
     <use style="fill:#008000;" x="267.199417" xlink:href="#m116ea82369" y="208.4629"/>
     <use style="fill:#008000;" x="270.968696" xlink:href="#m116ea82369" y="193.71505"/>
     <use style="fill:#008000;" x="274.737976" xlink:href="#m116ea82369" y="216.818858"/>
     <use style="fill:#008000;" x="278.507255" xlink:href="#m116ea82369" y="213.343096"/>
     <use style="fill:#008000;" x="282.276535" xlink:href="#m116ea82369" y="217.985784"/>
     <use style="fill:#008000;" x="286.045814" xlink:href="#m116ea82369" y="202.261132"/>
     <use style="fill:#008000;" x="289.815093" xlink:href="#m116ea82369" y="197.197683"/>
     <use style="fill:#008000;" x="293.584373" xlink:href="#m116ea82369" y="212.118404"/>
     <use style="fill:#008000;" x="297.353652" xlink:href="#m116ea82369" y="217.916902"/>
     <use style="fill:#008000;" x="301.122932" xlink:href="#m116ea82369" y="205.637362"/>
     <use style="fill:#008000;" x="304.892211" xlink:href="#m116ea82369" y="204.782581"/>
     <use style="fill:#008000;" x="308.661491" xlink:href="#m116ea82369" y="207.988749"/>
     <use style="fill:#008000;" x="312.43077" xlink:href="#m116ea82369" y="203.676548"/>
     <use style="fill:#008000;" x="316.20005" xlink:href="#m116ea82369" y="201.263986"/>
     <use style="fill:#008000;" x="319.969329" xlink:href="#m116ea82369" y="212.884658"/>
     <use style="fill:#008000;" x="323.738608" xlink:href="#m116ea82369" y="205.294499"/>
     <use style="fill:#008000;" x="327.507888" xlink:href="#m116ea82369" y="197.769131"/>
     <use style="fill:#008000;" x="331.277167" xlink:href="#m116ea82369" y="205.185744"/>
     <use style="fill:#008000;" x="335.046447" xlink:href="#m116ea82369" y="216.961292"/>
     <use style="fill:#008000;" x="338.815726" xlink:href="#m116ea82369" y="200.242189"/>
     <use style="fill:#008000;" x="342.585006" xlink:href="#m116ea82369" y="209.992717"/>
     <use style="fill:#008000;" x="346.354285" xlink:href="#m116ea82369" y="218.079972"/>
     <use style="fill:#008000;" x="350.123565" xlink:href="#m116ea82369" y="203.258592"/>
     <use style="fill:#008000;" x="353.892844" xlink:href="#m116ea82369" y="212.558532"/>
     <use style="fill:#008000;" x="357.662123" xlink:href="#m116ea82369" y="216.638375"/>
     <use style="fill:#008000;" x="361.431403" xlink:href="#m116ea82369" y="218.376477"/>
     <use style="fill:#008000;" x="365.200682" xlink:href="#m116ea82369" y="206.544801"/>
     <use style="fill:#008000;" x="368.969962" xlink:href="#m116ea82369" y="209.616076"/>
     <use style="fill:#008000;" x="372.739241" xlink:href="#m116ea82369" y="212.269628"/>
     <use style="fill:#008000;" x="376.508521" xlink:href="#m116ea82369" y="204.580942"/>
     <use style="fill:#008000;" x="380.2778" xlink:href="#m116ea82369" y="218.012565"/>
     <use style="fill:#008000;" x="384.047079" xlink:href="#m116ea82369" y="199.706323"/>
     <use style="fill:#008000;" x="387.816359" xlink:href="#m116ea82369" y="212.475782"/>
     <use style="fill:#008000;" x="391.585638" xlink:href="#m116ea82369" y="197.544292"/>
     <use style="fill:#008000;" x="395.354918" xlink:href="#m116ea82369" y="201.461556"/>
     <use style="fill:#008000;" x="399.124197" xlink:href="#m116ea82369" y="200.89041"/>
     <use style="fill:#008000;" x="402.893477" xlink:href="#m116ea82369" y="202.609545"/>
     <use style="fill:#008000;" x="406.662756" xlink:href="#m116ea82369" y="215.075589"/>
     <use style="fill:#008000;" x="410.432036" xlink:href="#m116ea82369" y="210.62768"/>
     <use style="fill:#008000;" x="414.201315" xlink:href="#m116ea82369" y="220.94122"/>
     <use style="fill:#008000;" x="417.970594" xlink:href="#m116ea82369" y="197.628634"/>
    </g>
   </g>
   <g id="patch_3">
    <path d="M 33.61717 231.193354 
L 33.61717 24.674646 
" style="fill:none;stroke:#000000;stroke-linecap:square;stroke-linejoin:miter;"/>
   </g>
   <g id="patch_4">
    <path d="M 429.165354 231.193354 
L 429.165354 24.674646 
" style="fill:none;stroke:#000000;stroke-linecap:square;stroke-linejoin:miter;"/>
   </g>
   <g id="patch_5">
    <path d="M 33.61717 231.193354 
L 429.165354 231.193354 
" style="fill:none;stroke:#000000;stroke-linecap:square;stroke-linejoin:miter;"/>
   </g>
   <g id="patch_6">
    <path d="M 33.61717 24.674646 
L 429.165354 24.674646 
" style="fill:none;stroke:#000000;stroke-linecap:square;stroke-linejoin:miter;"/>
   </g>
   <g id="text_11">
    <!-- p=[0.778  1.188  1.361] -->
    <g transform="translate(104.206731 18.674646)scale(0.21 -0.21)">
     <defs>
      <path d="M 18.109375 8.203125 
L 18.109375 -20.796875 
L 9.078125 -20.796875 
L 9.078125 54.6875 
L 18.109375 54.6875 
L 18.109375 46.390625 
Q 20.953125 51.265625 25.265625 53.625 
Q 29.59375 56 35.59375 56 
Q 45.5625 56 51.78125 48.09375 
Q 58.015625 40.1875 58.015625 27.296875 
Q 58.015625 14.40625 51.78125 6.484375 
Q 45.5625 -1.421875 35.59375 -1.421875 
Q 29.59375 -1.421875 25.265625 0.953125 
Q 20.953125 3.328125 18.109375 8.203125 
z
M 48.6875 27.296875 
Q 48.6875 37.203125 44.609375 42.84375 
Q 40.53125 48.484375 33.40625 48.484375 
Q 26.265625 48.484375 22.1875 42.84375 
Q 18.109375 37.203125 18.109375 27.296875 
Q 18.109375 17.390625 22.1875 11.75 
Q 26.265625 6.109375 33.40625 6.109375 
Q 40.53125 6.109375 44.609375 11.75 
Q 48.6875 17.390625 48.6875 27.296875 
z
" id="DejaVuSans-112"/>
      <path d="M 10.59375 45.40625 
L 73.1875 45.40625 
L 73.1875 37.203125 
L 10.59375 37.203125 
z
M 10.59375 25.484375 
L 73.1875 25.484375 
L 73.1875 17.1875 
L 10.59375 17.1875 
z
" id="DejaVuSans-61"/>
      <path d="M 8.59375 75.984375 
L 29.296875 75.984375 
L 29.296875 69 
L 17.578125 69 
L 17.578125 -6.203125 
L 29.296875 -6.203125 
L 29.296875 -13.1875 
L 8.59375 -13.1875 
z
" id="DejaVuSans-91"/>
      <path d="M 31.78125 34.625 
Q 24.75 34.625 20.71875 30.859375 
Q 16.703125 27.09375 16.703125 20.515625 
Q 16.703125 13.921875 20.71875 10.15625 
Q 24.75 6.390625 31.78125 6.390625 
Q 38.8125 6.390625 42.859375 10.171875 
Q 46.921875 13.96875 46.921875 20.515625 
Q 46.921875 27.09375 42.890625 30.859375 
Q 38.875 34.625 31.78125 34.625 
z
M 21.921875 38.8125 
Q 15.578125 40.375 12.03125 44.71875 
Q 8.5 49.078125 8.5 55.328125 
Q 8.5 64.0625 14.71875 69.140625 
Q 20.953125 74.21875 31.78125 74.21875 
Q 42.671875 74.21875 48.875 69.140625 
Q 55.078125 64.0625 55.078125 55.328125 
Q 55.078125 49.078125 51.53125 44.71875 
Q 48 40.375 41.703125 38.8125 
Q 48.828125 37.15625 52.796875 32.3125 
Q 56.78125 27.484375 56.78125 20.515625 
Q 56.78125 9.90625 50.3125 4.234375 
Q 43.84375 -1.421875 31.78125 -1.421875 
Q 19.734375 -1.421875 13.25 4.234375 
Q 6.78125 9.90625 6.78125 20.515625 
Q 6.78125 27.484375 10.78125 32.3125 
Q 14.796875 37.15625 21.921875 38.8125 
z
M 18.3125 54.390625 
Q 18.3125 48.734375 21.84375 45.5625 
Q 25.390625 42.390625 31.78125 42.390625 
Q 38.140625 42.390625 41.71875 45.5625 
Q 45.3125 48.734375 45.3125 54.390625 
Q 45.3125 60.0625 41.71875 63.234375 
Q 38.140625 66.40625 31.78125 66.40625 
Q 25.390625 66.40625 21.84375 63.234375 
Q 18.3125 60.0625 18.3125 54.390625 
z
" id="DejaVuSans-56"/>
      <path id="DejaVuSans-32"/>
      <path d="M 40.578125 39.3125 
Q 47.65625 37.796875 51.625 33 
Q 55.609375 28.21875 55.609375 21.1875 
Q 55.609375 10.40625 48.1875 4.484375 
Q 40.765625 -1.421875 27.09375 -1.421875 
Q 22.515625 -1.421875 17.65625 -0.515625 
Q 12.796875 0.390625 7.625 2.203125 
L 7.625 11.71875 
Q 11.71875 9.328125 16.59375 8.109375 
Q 21.484375 6.890625 26.8125 6.890625 
Q 36.078125 6.890625 40.9375 10.546875 
Q 45.796875 14.203125 45.796875 21.1875 
Q 45.796875 27.640625 41.28125 31.265625 
Q 36.765625 34.90625 28.71875 34.90625 
L 20.21875 34.90625 
L 20.21875 43.015625 
L 29.109375 43.015625 
Q 36.375 43.015625 40.234375 45.921875 
Q 44.09375 48.828125 44.09375 54.296875 
Q 44.09375 59.90625 40.109375 62.90625 
Q 36.140625 65.921875 28.71875 65.921875 
Q 24.65625 65.921875 20.015625 65.03125 
Q 15.375 64.15625 9.8125 62.3125 
L 9.8125 71.09375 
Q 15.4375 72.65625 20.34375 73.4375 
Q 25.25 74.21875 29.59375 74.21875 
Q 40.828125 74.21875 47.359375 69.109375 
Q 53.90625 64.015625 53.90625 55.328125 
Q 53.90625 49.265625 50.4375 45.09375 
Q 46.96875 40.921875 40.578125 39.3125 
z
" id="DejaVuSans-51"/>
      <path d="M 33.015625 40.375 
Q 26.375 40.375 22.484375 35.828125 
Q 18.609375 31.296875 18.609375 23.390625 
Q 18.609375 15.53125 22.484375 10.953125 
Q 26.375 6.390625 33.015625 6.390625 
Q 39.65625 6.390625 43.53125 10.953125 
Q 47.40625 15.53125 47.40625 23.390625 
Q 47.40625 31.296875 43.53125 35.828125 
Q 39.65625 40.375 33.015625 40.375 
z
M 52.59375 71.296875 
L 52.59375 62.3125 
Q 48.875 64.0625 45.09375 64.984375 
Q 41.3125 65.921875 37.59375 65.921875 
Q 27.828125 65.921875 22.671875 59.328125 
Q 17.53125 52.734375 16.796875 39.40625 
Q 19.671875 43.65625 24.015625 45.921875 
Q 28.375 48.1875 33.59375 48.1875 
Q 44.578125 48.1875 50.953125 41.515625 
Q 57.328125 34.859375 57.328125 23.390625 
Q 57.328125 12.15625 50.6875 5.359375 
Q 44.046875 -1.421875 33.015625 -1.421875 
Q 20.359375 -1.421875 13.671875 8.265625 
Q 6.984375 17.96875 6.984375 36.375 
Q 6.984375 53.65625 15.1875 63.9375 
Q 23.390625 74.21875 37.203125 74.21875 
Q 40.921875 74.21875 44.703125 73.484375 
Q 48.484375 72.75 52.59375 71.296875 
z
" id="DejaVuSans-54"/>
      <path d="M 30.421875 75.984375 
L 30.421875 -13.1875 
L 9.71875 -13.1875 
L 9.71875 -6.203125 
L 21.390625 -6.203125 
L 21.390625 69 
L 9.71875 69 
L 9.71875 75.984375 
z
" id="DejaVuSans-93"/>
     </defs>
     <use xlink:href="#DejaVuSans-112"/>
     <use x="63.476562" xlink:href="#DejaVuSans-61"/>
     <use x="147.265625" xlink:href="#DejaVuSans-91"/>
     <use x="186.279297" xlink:href="#DejaVuSans-48"/>
     <use x="249.902344" xlink:href="#DejaVuSans-46"/>
     <use x="281.689453" xlink:href="#DejaVuSans-55"/>
     <use x="345.3125" xlink:href="#DejaVuSans-55"/>
     <use x="408.935547" xlink:href="#DejaVuSans-56"/>
     <use x="472.558594" xlink:href="#DejaVuSans-32"/>
     <use x="504.345703" xlink:href="#DejaVuSans-32"/>
     <use x="536.132812" xlink:href="#DejaVuSans-49"/>
     <use x="599.755859" xlink:href="#DejaVuSans-46"/>
     <use x="631.542969" xlink:href="#DejaVuSans-49"/>
     <use x="695.166016" xlink:href="#DejaVuSans-56"/>
     <use x="758.789062" xlink:href="#DejaVuSans-56"/>
     <use x="822.412109" xlink:href="#DejaVuSans-32"/>
     <use x="854.199219" xlink:href="#DejaVuSans-32"/>
     <use x="885.986328" xlink:href="#DejaVuSans-49"/>
     <use x="949.609375" xlink:href="#DejaVuSans-46"/>
     <use x="981.396484" xlink:href="#DejaVuSans-51"/>
     <use x="1045.019531" xlink:href="#DejaVuSans-54"/>
     <use x="1108.642578" xlink:href="#DejaVuSans-49"/>
     <use x="1172.265625" xlink:href="#DejaVuSans-93"/>
    </g>
   </g>
   <g id="PathCollection_3">
    <defs>
     <path d="M 0 2 
C 0.530406 2 1.03916 1.789267 1.414214 1.414214 
C 1.789267 1.03916 2 0.530406 2 0 
C 2 -0.530406 1.789267 -1.03916 1.414214 -1.414214 
C 1.03916 -1.789267 0.530406 -2 0 -2 
C -0.530406 -2 -1.03916 -1.789267 -1.414214 -1.414214 
C -1.789267 -1.03916 -2 -0.530406 -2 0 
C -2 0.530406 -1.789267 1.03916 -1.414214 1.414214 
C -1.03916 1.789267 -0.530406 2 0 2 
z
" id="me0b97a8ac0"/>
    </defs>
    <g clip-path="url(#p69daa98f35)">
     <use style="fill:#cc0000;" x="44.81193" xlink:href="#me0b97a8ac0" y="212.633993"/>
     <use style="fill:#cc0000;" x="48.581209" xlink:href="#me0b97a8ac0" y="198.526977"/>
     <use style="fill:#cc0000;" x="52.350489" xlink:href="#me0b97a8ac0" y="200.898884"/>
     <use style="fill:#cc0000;" x="56.119768" xlink:href="#me0b97a8ac0" y="220.85591"/>
     <use style="fill:#cc0000;" x="59.889048" xlink:href="#me0b97a8ac0" y="207.773111"/>
     <use style="fill:#cc0000;" x="63.658327" xlink:href="#me0b97a8ac0" y="198.120095"/>
     <use style="fill:#cc0000;" x="67.427607" xlink:href="#me0b97a8ac0" y="199.87637"/>
     <use style="fill:#cc0000;" x="71.196886" xlink:href="#me0b97a8ac0" y="210.270231"/>
     <use style="fill:#cc0000;" x="74.966166" xlink:href="#me0b97a8ac0" y="195.671055"/>
     <use style="fill:#cc0000;" x="78.735445" xlink:href="#me0b97a8ac0" y="225.348485"/>
     <use style="fill:#cc0000;" x="82.504724" xlink:href="#me0b97a8ac0" y="215.691098"/>
     <use style="fill:#cc0000;" x="86.274004" xlink:href="#me0b97a8ac0" y="211.876654"/>
     <use style="fill:#cc0000;" x="90.043283" xlink:href="#me0b97a8ac0" y="221.061727"/>
     <use style="fill:#cc0000;" x="93.812563" xlink:href="#me0b97a8ac0" y="220.817807"/>
     <use style="fill:#cc0000;" x="97.581842" xlink:href="#me0b97a8ac0" y="193.233604"/>
     <use style="fill:#cc0000;" x="101.351122" xlink:href="#me0b97a8ac0" y="210.955548"/>
     <use style="fill:#cc0000;" x="105.120401" xlink:href="#me0b97a8ac0" y="223.660435"/>
     <use style="fill:#cc0000;" x="108.88968" xlink:href="#me0b97a8ac0" y="205.650305"/>
     <use style="fill:#cc0000;" x="112.65896" xlink:href="#me0b97a8ac0" y="194.635469"/>
     <use style="fill:#cc0000;" x="116.428239" xlink:href="#me0b97a8ac0" y="217.52636"/>
     <use style="fill:#cc0000;" x="120.197519" xlink:href="#me0b97a8ac0" y="223.754958"/>
     <use style="fill:#cc0000;" x="123.966798" xlink:href="#me0b97a8ac0" y="207.56282"/>
     <use style="fill:#cc0000;" x="127.736078" xlink:href="#me0b97a8ac0" y="212.473817"/>
     <use style="fill:#cc0000;" x="131.505357" xlink:href="#me0b97a8ac0" y="202.676424"/>
     <use style="fill:#cc0000;" x="135.274637" xlink:href="#me0b97a8ac0" y="201.710194"/>
     <use style="fill:#cc0000;" x="139.043916" xlink:href="#me0b97a8ac0" y="193.00491"/>
     <use style="fill:#cc0000;" x="142.813195" xlink:href="#me0b97a8ac0" y="201.29787"/>
     <use style="fill:#cc0000;" x="146.582475" xlink:href="#me0b97a8ac0" y="211.962094"/>
     <use style="fill:#cc0000;" x="150.351754" xlink:href="#me0b97a8ac0" y="192.252153"/>
     <use style="fill:#cc0000;" x="154.121034" xlink:href="#me0b97a8ac0" y="204.890487"/>
     <use style="fill:#cc0000;" x="157.890313" xlink:href="#me0b97a8ac0" y="208.930822"/>
     <use style="fill:#cc0000;" x="161.659593" xlink:href="#me0b97a8ac0" y="202.808034"/>
     <use style="fill:#cc0000;" x="165.428872" xlink:href="#me0b97a8ac0" y="209.805513"/>
     <use style="fill:#cc0000;" x="169.198151" xlink:href="#me0b97a8ac0" y="192.079762"/>
     <use style="fill:#cc0000;" x="172.967431" xlink:href="#me0b97a8ac0" y="204.349697"/>
     <use style="fill:#cc0000;" x="176.73671" xlink:href="#me0b97a8ac0" y="200.675355"/>
     <use style="fill:#cc0000;" x="180.50599" xlink:href="#me0b97a8ac0" y="192.975623"/>
     <use style="fill:#cc0000;" x="184.275269" xlink:href="#me0b97a8ac0" y="187.14454"/>
     <use style="fill:#cc0000;" x="188.044549" xlink:href="#me0b97a8ac0" y="204.681187"/>
     <use style="fill:#cc0000;" x="191.813828" xlink:href="#me0b97a8ac0" y="198.793426"/>
     <use style="fill:#cc0000;" x="195.583108" xlink:href="#me0b97a8ac0" y="191.700923"/>
     <use style="fill:#cc0000;" x="199.352387" xlink:href="#me0b97a8ac0" y="175.112379"/>
     <use style="fill:#cc0000;" x="203.121666" xlink:href="#me0b97a8ac0" y="179.138942"/>
     <use style="fill:#cc0000;" x="206.890946" xlink:href="#me0b97a8ac0" y="175.047099"/>
     <use style="fill:#cc0000;" x="210.660225" xlink:href="#me0b97a8ac0" y="161.354191"/>
     <use style="fill:#cc0000;" x="214.429505" xlink:href="#me0b97a8ac0" y="177.460132"/>
     <use style="fill:#cc0000;" x="218.198784" xlink:href="#me0b97a8ac0" y="178.757854"/>
     <use style="fill:#cc0000;" x="221.968064" xlink:href="#me0b97a8ac0" y="146.181353"/>
     <use style="fill:#cc0000;" x="225.737343" xlink:href="#me0b97a8ac0" y="158.433919"/>
     <use style="fill:#cc0000;" x="229.506622" xlink:href="#me0b97a8ac0" y="147.804176"/>
     <use style="fill:#cc0000;" x="233.275902" xlink:href="#me0b97a8ac0" y="127.66813"/>
     <use style="fill:#cc0000;" x="237.045181" xlink:href="#me0b97a8ac0" y="128.153926"/>
     <use style="fill:#cc0000;" x="240.814461" xlink:href="#me0b97a8ac0" y="148.748425"/>
     <use style="fill:#cc0000;" x="244.58374" xlink:href="#me0b97a8ac0" y="117.707129"/>
     <use style="fill:#cc0000;" x="248.35302" xlink:href="#me0b97a8ac0" y="118.088962"/>
     <use style="fill:#cc0000;" x="252.122299" xlink:href="#me0b97a8ac0" y="109.909231"/>
     <use style="fill:#cc0000;" x="255.891579" xlink:href="#me0b97a8ac0" y="109.876779"/>
     <use style="fill:#cc0000;" x="259.660858" xlink:href="#me0b97a8ac0" y="116.720089"/>
     <use style="fill:#cc0000;" x="263.430137" xlink:href="#me0b97a8ac0" y="88.488452"/>
     <use style="fill:#cc0000;" x="267.199417" xlink:href="#me0b97a8ac0" y="109.081089"/>
     <use style="fill:#cc0000;" x="270.968696" xlink:href="#me0b97a8ac0" y="76.554157"/>
     <use style="fill:#cc0000;" x="274.737976" xlink:href="#me0b97a8ac0" y="94.122417"/>
     <use style="fill:#cc0000;" x="278.507255" xlink:href="#me0b97a8ac0" y="73.616749"/>
     <use style="fill:#cc0000;" x="282.276535" xlink:href="#me0b97a8ac0" y="88.171875"/>
     <use style="fill:#cc0000;" x="286.045814" xlink:href="#me0b97a8ac0" y="84.974033"/>
     <use style="fill:#cc0000;" x="289.815093" xlink:href="#me0b97a8ac0" y="82.329601"/>
     <use style="fill:#cc0000;" x="293.584373" xlink:href="#me0b97a8ac0" y="48.351078"/>
     <use style="fill:#cc0000;" x="297.353652" xlink:href="#me0b97a8ac0" y="47.455134"/>
     <use style="fill:#cc0000;" x="301.122932" xlink:href="#me0b97a8ac0" y="48.327648"/>
     <use style="fill:#cc0000;" x="304.892211" xlink:href="#me0b97a8ac0" y="62.121432"/>
     <use style="fill:#cc0000;" x="308.661491" xlink:href="#me0b97a8ac0" y="59.452424"/>
     <use style="fill:#cc0000;" x="312.43077" xlink:href="#me0b97a8ac0" y="40.272459"/>
     <use style="fill:#cc0000;" x="316.20005" xlink:href="#me0b97a8ac0" y="55.178455"/>
     <use style="fill:#cc0000;" x="319.969329" xlink:href="#me0b97a8ac0" y="38.035892"/>
     <use style="fill:#cc0000;" x="323.738608" xlink:href="#me0b97a8ac0" y="32.16106"/>
     <use style="fill:#cc0000;" x="327.507888" xlink:href="#me0b97a8ac0" y="42.397336"/>
     <use style="fill:#cc0000;" x="331.277167" xlink:href="#me0b97a8ac0" y="31.523755"/>
     <use style="fill:#cc0000;" x="335.046447" xlink:href="#me0b97a8ac0" y="55.937849"/>
     <use style="fill:#cc0000;" x="338.815726" xlink:href="#me0b97a8ac0" y="32.784656"/>
     <use style="fill:#cc0000;" x="342.585006" xlink:href="#me0b97a8ac0" y="32.521923"/>
     <use style="fill:#cc0000;" x="346.354285" xlink:href="#me0b97a8ac0" y="38.813745"/>
     <use style="fill:#cc0000;" x="350.123565" xlink:href="#me0b97a8ac0" y="36.425538"/>
     <use style="fill:#cc0000;" x="353.892844" xlink:href="#me0b97a8ac0" y="44.837893"/>
     <use style="fill:#cc0000;" x="357.662123" xlink:href="#me0b97a8ac0" y="46.447706"/>
     <use style="fill:#cc0000;" x="361.431403" xlink:href="#me0b97a8ac0" y="51.532072"/>
     <use style="fill:#cc0000;" x="365.200682" xlink:href="#me0b97a8ac0" y="44.73932"/>
     <use style="fill:#cc0000;" x="368.969962" xlink:href="#me0b97a8ac0" y="59.964091"/>
     <use style="fill:#cc0000;" x="372.739241" xlink:href="#me0b97a8ac0" y="53.487306"/>
     <use style="fill:#cc0000;" x="376.508521" xlink:href="#me0b97a8ac0" y="39.277152"/>
     <use style="fill:#cc0000;" x="380.2778" xlink:href="#me0b97a8ac0" y="41.881787"/>
     <use style="fill:#cc0000;" x="384.047079" xlink:href="#me0b97a8ac0" y="40.766897"/>
     <use style="fill:#cc0000;" x="387.816359" xlink:href="#me0b97a8ac0" y="30.519515"/>
     <use style="fill:#cc0000;" x="391.585638" xlink:href="#me0b97a8ac0" y="45.062025"/>
     <use style="fill:#cc0000;" x="395.354918" xlink:href="#me0b97a8ac0" y="55.194767"/>
     <use style="fill:#cc0000;" x="399.124197" xlink:href="#me0b97a8ac0" y="33.546419"/>
     <use style="fill:#cc0000;" x="402.893477" xlink:href="#me0b97a8ac0" y="31.659371"/>
     <use style="fill:#cc0000;" x="406.662756" xlink:href="#me0b97a8ac0" y="40.369218"/>
     <use style="fill:#cc0000;" x="410.432036" xlink:href="#me0b97a8ac0" y="42.353482"/>
     <use style="fill:#cc0000;" x="414.201315" xlink:href="#me0b97a8ac0" y="42.847813"/>
     <use style="fill:#cc0000;" x="417.970594" xlink:href="#me0b97a8ac0" y="52.804554"/>
    </g>
   </g>
   <g id="line2d_42">
    <path clip-path="url(#p69daa98f35)" d="M 44.81193 45.173045 
L 48.581209 45.173209 
L 52.350489 45.173426 
L 56.119768 45.173713 
L 59.889048 45.174092 
L 63.658327 45.174593 
L 67.427607 45.175256 
L 71.196886 45.176132 
L 74.966166 45.17729 
L 78.735445 45.178821 
L 82.504724 45.180844 
L 86.274004 45.183518 
L 90.043283 45.187052 
L 93.812563 45.191723 
L 97.581842 45.197894 
L 101.351122 45.206047 
L 105.120401 45.216817 
L 108.88968 45.231038 
L 112.65896 45.249811 
L 116.428239 45.274582 
L 120.197519 45.307248 
L 123.966798 45.350292 
L 127.736078 45.406953 
L 131.505357 45.481438 
L 135.274637 45.579184 
L 139.043916 45.707162 
L 142.813195 45.874228 
L 146.582475 46.091485 
L 150.351754 46.372645 
L 154.121034 46.734286 
L 157.890313 47.195759 
L 161.659593 47.77893 
L 165.428872 48.507796 
L 169.198151 49.406356 
L 172.967431 50.495652 
L 176.73671 51.795654 
L 180.50599 53.317317 
L 184.275269 55.068734 
L 188.044549 57.043775 
L 191.813828 59.242081 
L 195.583108 61.649155 
L 199.352387 64.258277 
L 203.121666 67.06277 
L 206.890946 70.05308 
L 210.660225 73.227924 
L 214.429505 76.589678 
L 218.198784 80.138278 
L 221.968064 83.874805 
L 225.737343 87.802626 
L 229.506622 91.924263 
L 233.275902 96.241139 
L 237.045181 100.751888 
L 240.814461 105.452372 
L 244.58374 110.335514 
L 248.35302 115.389226 
L 252.122299 120.59784 
L 255.891579 125.940752 
L 259.660858 131.392164 
L 263.430137 136.919645 
L 267.199417 142.487176 
L 270.968696 148.051582 
L 274.737976 153.568231 
L 278.507255 158.988659 
L 282.276535 164.260609 
L 286.045814 169.335195 
L 289.815093 174.163156 
L 293.584373 178.701788 
L 297.353652 182.912826 
L 301.122932 186.768779 
L 304.892211 190.249475 
L 308.661491 193.347677 
L 312.43077 196.066083 
L 316.20005 198.417095 
L 319.969329 200.422182 
L 323.738608 202.109192 
L 327.507888 203.510117 
L 331.277167 204.659482 
L 335.046447 205.591907 
L 338.815726 206.340705 
L 342.585006 206.936553 
L 346.354285 207.406856 
L 350.123565 207.775436 
L 353.892844 208.062554 
L 357.662123 208.285068 
L 361.431403 208.456754 
L 365.200682 208.588732 
L 368.969962 208.689879 
L 372.739241 208.767198 
L 376.508521 208.826184 
L 380.2778 208.871107 
L 384.047079 208.905273 
L 387.816359 208.931229 
L 391.585638 208.950931 
L 395.354918 208.965873 
L 399.124197 208.977199 
L 402.893477 208.98578 
L 406.662756 208.992279 
L 410.432036 208.997198 
L 414.201315 209.000922 
L 417.970594 209.003741 
" style="fill:none;stroke:#00008b;stroke-width:2;"/>
   </g>
   <g id="line2d_43">
    <path clip-path="url(#p69daa98f35)" d="M 44.81193 198.913402 
L 48.581209 195.715247 
L 52.350489 191.538086 
L 56.119768 186.118803 
L 59.889048 179.167141 
L 63.658327 170.424427 
L 67.427607 159.823637 
L 71.196886 147.886982 
L 74.966166 135.545614 
L 78.735445 123.505342 
L 82.504724 113.878834 
L 86.274004 109.444831 
L 90.043283 111.835195 
L 93.812563 115.004687 
L 97.581842 110.813575 
L 101.351122 110.121406 
L 105.120401 112.508616 
L 108.88968 111.802533 
L 112.65896 110.986687 
L 116.428239 111.874709 
L 120.197519 112.712758 
L 123.966798 112.203601 
L 127.736078 112.28374 
L 131.505357 113.059284 
L 135.274637 113.8262 
L 139.043916 114.355121 
L 142.813195 115.022347 
L 146.582475 115.8741 
L 150.351754 116.99155 
L 154.121034 118.405523 
L 157.890313 120.165663 
L 161.659593 122.355811 
L 165.428872 125.071121 
L 169.198151 128.230883 
L 172.967431 131.897316 
L 176.73671 136.184394 
L 180.50599 140.713864 
L 184.275269 145.611216 
L 188.044549 150.634094 
L 191.813828 155.693362 
L 195.583108 160.610603 
L 199.352387 165.27665 
L 203.121666 169.673869 
L 206.890946 173.720177 
L 210.660225 177.401266 
L 214.429505 180.745641 
L 218.198784 183.774258 
L 221.968064 186.498269 
L 225.737343 188.942685 
L 229.506622 191.138187 
L 233.275902 193.109957 
L 237.045181 194.882214 
L 240.814461 196.475913 
L 244.58374 197.908908 
L 248.35302 199.19739 
L 252.122299 200.356118 
L 255.891579 201.39705 
L 259.660858 202.332662 
L 263.430137 203.17167 
L 267.199417 203.923204 
L 270.968696 204.595722 
L 274.737976 205.196104 
L 278.507255 205.730587 
L 282.276535 206.204357 
L 286.045814 206.623348 
L 289.815093 206.991554 
L 293.584373 207.313883 
L 297.353652 207.594142 
L 301.122932 207.836275 
L 304.892211 208.043945 
L 308.661491 208.220659 
L 312.43077 208.36978 
L 316.20005 208.494508 
L 319.969329 208.597925 
L 323.738608 208.682906 
L 327.507888 208.752108 
L 331.277167 208.807984 
L 335.046447 208.852728 
L 338.815726 208.888289 
L 342.585006 208.91635 
L 346.354285 208.938356 
L 350.123565 208.955514 
L 353.892844 208.968826 
L 357.662123 208.97911 
L 361.431403 208.987026 
L 365.200682 208.9931 
L 368.969962 208.997749 
L 372.739241 209.001299 
L 376.508521 209.004004 
L 380.2778 209.006064 
L 384.047079 209.007629 
L 387.816359 209.008818 
L 391.585638 209.00972 
L 395.354918 209.010404 
L 399.124197 209.010923 
L 402.893477 209.011315 
L 406.662756 209.011613 
L 410.432036 209.011838 
L 414.201315 209.012008 
L 417.970594 209.012137 
" style="fill:none;stroke:#008000;stroke-width:2;"/>
   </g>
   <g id="line2d_44">
    <path clip-path="url(#p69daa98f35)" d="M 44.81193 209.012535 
L 48.581209 209.012531 
L 52.350489 209.012522 
L 56.119768 209.012507 
L 59.889048 209.012475 
L 63.658327 209.012411 
L 67.427607 209.012278 
L 71.196886 209.011999 
L 74.966166 209.011458 
L 78.735445 209.010529 
L 82.504724 209.008987 
L 86.274004 209.006535 
L 90.043283 209.002881 
L 93.812563 208.998052 
L 97.581842 208.99209 
L 101.351122 208.983972 
L 105.120401 208.973083 
L 108.88968 208.958897 
L 112.65896 208.940165 
L 116.428239 208.915349 
L 120.197519 208.882641 
L 123.966798 208.839622 
L 127.736078 208.782958 
L 131.505357 208.708434 
L 135.274637 208.61065 
L 139.043916 208.482645 
L 142.813195 208.315546 
L 146.582475 208.098246 
L 150.351754 207.81703 
L 154.121034 207.455319 
L 157.890313 206.993758 
L 161.659593 206.410477 
L 165.428872 205.681476 
L 169.198151 204.782758 
L 172.967431 203.693278 
L 176.73671 202.393062 
L 180.50599 200.871172 
L 184.275269 199.11951 
L 188.044549 197.144218 
L 191.813828 194.945659 
L 195.583108 192.53834 
L 199.352387 189.928984 
L 203.121666 187.124271 
L 206.890946 184.133759 
L 210.660225 180.958731 
L 214.429505 177.59681 
L 218.198784 174.048058 
L 221.968064 170.311396 
L 225.737343 166.383451 
L 229.506622 162.261706 
L 233.275902 157.94473 
L 237.045181 153.433893 
L 240.814461 148.733329 
L 244.58374 143.850116 
L 248.35302 138.796339 
L 252.122299 133.587667 
L 255.891579 128.244703 
L 259.660858 122.793245 
L 263.430137 117.265721 
L 267.199417 111.698152 
L 270.968696 106.133713 
L 274.737976 100.617035 
L 278.507255 95.19658 
L 282.276535 89.924606 
L 286.045814 84.849999 
L 289.815093 80.022019 
L 293.584373 75.483372 
L 297.353652 71.272319 
L 301.122932 67.416354 
L 304.892211 63.935647 
L 308.661491 60.837437 
L 312.43077 58.119024 
L 316.20005 55.768005 
L 319.969329 53.762913 
L 323.738608 52.075899 
L 327.507888 50.67497 
L 331.277167 49.525603 
L 335.046447 48.593176 
L 338.815726 47.844375 
L 342.585006 47.248527 
L 346.354285 46.778222 
L 350.123565 46.409641 
L 353.892844 46.122522 
L 357.662123 45.900008 
L 361.431403 45.728322 
L 365.200682 45.596343 
L 368.969962 45.495197 
L 372.739241 45.417877 
L 376.508521 45.358891 
L 380.2778 45.313968 
L 384.047079 45.279802 
L 387.816359 45.253845 
L 391.585638 45.234144 
L 395.354918 45.219201 
L 399.124197 45.207875 
L 402.893477 45.199294 
L 406.662756 45.192796 
L 410.432036 45.187877 
L 414.201315 45.184152 
L 417.970594 45.181334 
" style="fill:none;stroke:#cc0000;stroke-width:2;"/>
   </g>
  </g>
 </g>
 <defs>
  <clipPath id="p69daa98f35">
   <rect height="206.518709" width="395.548184" x="33.61717" y="24.674646"/>
  </clipPath>
 </defs>
</svg>
