<?xml version="1.0" encoding="utf-8" standalone="no"?>
<!DOCTYPE svg PUBLIC "-//W3C//DTD SVG 1.1//EN"
  "http://www.w3.org/Graphics/SVG/1.1/DTD/svg11.dtd">
<svg xmlns:xlink="http://www.w3.org/1999/xlink" width="576pt" height="144pt" viewBox="0 0 576 144" xmlns="http://www.w3.org/2000/svg" version="1.1">
 <metadata>
  <rdf:RDF xmlns:dc="http://purl.org/dc/elements/1.1/" xmlns:cc="http://creativecommons.org/ns#" xmlns:rdf="http://www.w3.org/1999/02/22-rdf-syntax-ns#">
   <cc:Work>
    <dc:type rdf:resource="http://purl.org/dc/dcmitype/StillImage"/>
    <dc:date>2021-12-17T19:40:00.648819</dc:date>
    <dc:format>image/svg+xml</dc:format>
    <dc:creator>
     <cc:Agent>
      <dc:title>Matplotlib v3.5.0, https://matplotlib.org/</dc:title>
     </cc:Agent>
    </dc:creator>
   </cc:Work>
  </rdf:RDF>
 </metadata>
 <defs>
  <style type="text/css">*{stroke-linejoin: round; stroke-linecap: butt}</style>
 </defs>
 <g id="figure_1">
  <g id="patch_1">
   <path d="M 0 144 
L 576 144 
L 576 0 
L 0 0 
z
" style="fill: #ffffff"/>
  </g>
  <g id="axes_1">
   <g id="patch_2">
    <path d="M 26.001491 106.305354 
L 473.595354 106.305354 
L 473.595354 2.834646 
L 26.001491 2.834646 
z
" style="fill: #ffffff"/>
   </g>
   <g id="matplotlib.axis_1">
    <g id="xtick_1">
     <g id="line2d_1">
      <path d="M 36.841284 106.305354 
L 36.841284 2.834646 
" clip-path="url(#p5ad09510ce)" style="fill: none; stroke: #000000; stroke-opacity: 0.1; stroke-width: 0.5; stroke-linecap: square"/>
     </g>
     <g id="line2d_2">
      <defs>
       <path id="m4af30ea681" d="M 0 0 
L 0 -2.5 
" style="stroke: #000000; stroke-width: 0.5"/>
      </defs>
      <g>
       <use xlink:href="#m4af30ea681" x="36.841284" y="106.305354" style="stroke: #000000; stroke-width: 0.5"/>
      </g>
     </g>
     <g id="text_1">
      <!-- $\mathregular{0}$ -->
      <g transform="translate(33.001284 118.923479)scale(0.12 -0.12)">
       <defs>
        <path id="DejaVuSans-30" d="M 2034 4250 
Q 1547 4250 1301 3770 
Q 1056 3291 1056 2328 
Q 1056 1369 1301 889 
Q 1547 409 2034 409 
Q 2525 409 2770 889 
Q 3016 1369 3016 2328 
Q 3016 3291 2770 3770 
Q 2525 4250 2034 4250 
z
M 2034 4750 
Q 2819 4750 3233 4129 
Q 3647 3509 3647 2328 
Q 3647 1150 3233 529 
Q 2819 -91 2034 -91 
Q 1250 -91 836 529 
Q 422 1150 422 2328 
Q 422 3509 836 4129 
Q 1250 4750 2034 4750 
z
" transform="scale(0.015625)"/>
       </defs>
       <use xlink:href="#DejaVuSans-30" transform="translate(0 0.78125)"/>
      </g>
     </g>
    </g>
    <g id="xtick_2">
     <g id="line2d_3">
      <path d="M 128.239198 106.305354 
L 128.239198 2.834646 
" clip-path="url(#p5ad09510ce)" style="fill: none; stroke: #000000; stroke-opacity: 0.1; stroke-width: 0.5; stroke-linecap: square"/>
     </g>
     <g id="line2d_4">
      <g>
       <use xlink:href="#m4af30ea681" x="128.239198" y="106.305354" style="stroke: #000000; stroke-width: 0.5"/>
      </g>
     </g>
     <g id="text_2">
      <!-- $\mathregular{50}$ -->
      <g transform="translate(120.559198 118.923479)scale(0.12 -0.12)">
       <defs>
        <path id="DejaVuSans-35" d="M 691 4666 
L 3169 4666 
L 3169 4134 
L 1269 4134 
L 1269 2991 
Q 1406 3038 1543 3061 
Q 1681 3084 1819 3084 
Q 2600 3084 3056 2656 
Q 3513 2228 3513 1497 
Q 3513 744 3044 326 
Q 2575 -91 1722 -91 
Q 1428 -91 1123 -41 
Q 819 9 494 109 
L 494 744 
Q 775 591 1075 516 
Q 1375 441 1709 441 
Q 2250 441 2565 725 
Q 2881 1009 2881 1497 
Q 2881 1984 2565 2268 
Q 2250 2553 1709 2553 
Q 1456 2553 1204 2497 
Q 953 2441 691 2322 
L 691 4666 
z
" transform="scale(0.015625)"/>
       </defs>
       <use xlink:href="#DejaVuSans-35" transform="translate(0 0.78125)"/>
       <use xlink:href="#DejaVuSans-30" transform="translate(63.623047 0.78125)"/>
      </g>
     </g>
    </g>
    <g id="xtick_3">
     <g id="line2d_5">
      <path d="M 219.637111 106.305354 
L 219.637111 2.834646 
" clip-path="url(#p5ad09510ce)" style="fill: none; stroke: #000000; stroke-opacity: 0.1; stroke-width: 0.5; stroke-linecap: square"/>
     </g>
     <g id="line2d_6">
      <g>
       <use xlink:href="#m4af30ea681" x="219.637111" y="106.305354" style="stroke: #000000; stroke-width: 0.5"/>
      </g>
     </g>
     <g id="text_3">
      <!-- $\mathregular{100}$ -->
      <g transform="translate(208.177111 118.923479)scale(0.12 -0.12)">
       <defs>
        <path id="DejaVuSans-31" d="M 794 531 
L 1825 531 
L 1825 4091 
L 703 3866 
L 703 4441 
L 1819 4666 
L 2450 4666 
L 2450 531 
L 3481 531 
L 3481 0 
L 794 0 
L 794 531 
z
" transform="scale(0.015625)"/>
       </defs>
       <use xlink:href="#DejaVuSans-31" transform="translate(0 0.78125)"/>
       <use xlink:href="#DejaVuSans-30" transform="translate(63.623047 0.78125)"/>
       <use xlink:href="#DejaVuSans-30" transform="translate(127.246094 0.78125)"/>
      </g>
     </g>
    </g>
    <g id="xtick_4">
     <g id="line2d_7">
      <path d="M 311.035025 106.305354 
L 311.035025 2.834646 
" clip-path="url(#p5ad09510ce)" style="fill: none; stroke: #000000; stroke-opacity: 0.1; stroke-width: 0.5; stroke-linecap: square"/>
     </g>
     <g id="line2d_8">
      <g>
       <use xlink:href="#m4af30ea681" x="311.035025" y="106.305354" style="stroke: #000000; stroke-width: 0.5"/>
      </g>
     </g>
     <g id="text_4">
      <!-- $\mathregular{150}$ -->
      <g transform="translate(299.575025 118.923479)scale(0.12 -0.12)">
       <use xlink:href="#DejaVuSans-31" transform="translate(0 0.78125)"/>
       <use xlink:href="#DejaVuSans-35" transform="translate(63.623047 0.78125)"/>
       <use xlink:href="#DejaVuSans-30" transform="translate(127.246094 0.78125)"/>
      </g>
     </g>
    </g>
    <g id="xtick_5">
     <g id="line2d_9">
      <path d="M 402.432939 106.305354 
L 402.432939 2.834646 
" clip-path="url(#p5ad09510ce)" style="fill: none; stroke: #000000; stroke-opacity: 0.1; stroke-width: 0.5; stroke-linecap: square"/>
     </g>
     <g id="line2d_10">
      <g>
       <use xlink:href="#m4af30ea681" x="402.432939" y="106.305354" style="stroke: #000000; stroke-width: 0.5"/>
      </g>
     </g>
     <g id="text_5">
      <!-- $\mathregular{200}$ -->
      <g transform="translate(390.972939 118.923479)scale(0.12 -0.12)">
       <defs>
        <path id="DejaVuSans-32" d="M 1228 531 
L 3431 531 
L 3431 0 
L 469 0 
L 469 531 
Q 828 903 1448 1529 
Q 2069 2156 2228 2338 
Q 2531 2678 2651 2914 
Q 2772 3150 2772 3378 
Q 2772 3750 2511 3984 
Q 2250 4219 1831 4219 
Q 1534 4219 1204 4116 
Q 875 4013 500 3803 
L 500 4441 
Q 881 4594 1212 4672 
Q 1544 4750 1819 4750 
Q 2544 4750 2975 4387 
Q 3406 4025 3406 3419 
Q 3406 3131 3298 2873 
Q 3191 2616 2906 2266 
Q 2828 2175 2409 1742 
Q 1991 1309 1228 531 
z
" transform="scale(0.015625)"/>
       </defs>
       <use xlink:href="#DejaVuSans-32" transform="translate(0 0.78125)"/>
       <use xlink:href="#DejaVuSans-30" transform="translate(63.623047 0.78125)"/>
       <use xlink:href="#DejaVuSans-30" transform="translate(127.246094 0.78125)"/>
      </g>
     </g>
    </g>
    <g id="text_6">
     <!-- Index -->
     <g transform="translate(227.772173 137.576604)scale(0.16 -0.16)">
      <defs>
       <path id="DejaVuSans-49" d="M 628 4666 
L 1259 4666 
L 1259 0 
L 628 0 
L 628 4666 
z
" transform="scale(0.015625)"/>
       <path id="DejaVuSans-6e" d="M 3513 2113 
L 3513 0 
L 2938 0 
L 2938 2094 
Q 2938 2591 2744 2837 
Q 2550 3084 2163 3084 
Q 1697 3084 1428 2787 
Q 1159 2491 1159 1978 
L 1159 0 
L 581 0 
L 581 3500 
L 1159 3500 
L 1159 2956 
Q 1366 3272 1645 3428 
Q 1925 3584 2291 3584 
Q 2894 3584 3203 3211 
Q 3513 2838 3513 2113 
z
" transform="scale(0.015625)"/>
       <path id="DejaVuSans-64" d="M 2906 2969 
L 2906 4863 
L 3481 4863 
L 3481 0 
L 2906 0 
L 2906 525 
Q 2725 213 2448 61 
Q 2172 -91 1784 -91 
Q 1150 -91 751 415 
Q 353 922 353 1747 
Q 353 2572 751 3078 
Q 1150 3584 1784 3584 
Q 2172 3584 2448 3432 
Q 2725 3281 2906 2969 
z
M 947 1747 
Q 947 1113 1208 752 
Q 1469 391 1925 391 
Q 2381 391 2643 752 
Q 2906 1113 2906 1747 
Q 2906 2381 2643 2742 
Q 2381 3103 1925 3103 
Q 1469 3103 1208 2742 
Q 947 2381 947 1747 
z
" transform="scale(0.015625)"/>
       <path id="DejaVuSans-65" d="M 3597 1894 
L 3597 1613 
L 953 1613 
Q 991 1019 1311 708 
Q 1631 397 2203 397 
Q 2534 397 2845 478 
Q 3156 559 3463 722 
L 3463 178 
Q 3153 47 2828 -22 
Q 2503 -91 2169 -91 
Q 1331 -91 842 396 
Q 353 884 353 1716 
Q 353 2575 817 3079 
Q 1281 3584 2069 3584 
Q 2775 3584 3186 3129 
Q 3597 2675 3597 1894 
z
M 3022 2063 
Q 3016 2534 2758 2815 
Q 2500 3097 2075 3097 
Q 1594 3097 1305 2825 
Q 1016 2553 972 2059 
L 3022 2063 
z
" transform="scale(0.015625)"/>
       <path id="DejaVuSans-78" d="M 3513 3500 
L 2247 1797 
L 3578 0 
L 2900 0 
L 1881 1375 
L 863 0 
L 184 0 
L 1544 1831 
L 300 3500 
L 978 3500 
L 1906 2253 
L 2834 3500 
L 3513 3500 
z
" transform="scale(0.015625)"/>
      </defs>
      <use xlink:href="#DejaVuSans-49"/>
      <use xlink:href="#DejaVuSans-6e" x="29.492188"/>
      <use xlink:href="#DejaVuSans-64" x="92.871094"/>
      <use xlink:href="#DejaVuSans-65" x="156.347656"/>
      <use xlink:href="#DejaVuSans-78" x="216.121094"/>
     </g>
    </g>
   </g>
   <g id="matplotlib.axis_2">
    <g id="ytick_1">
     <g id="line2d_11">
      <path d="M 26.001491 98.446998 
L 473.595354 98.446998 
" clip-path="url(#p5ad09510ce)" style="fill: none; stroke: #000000; stroke-opacity: 0.1; stroke-width: 0.5; stroke-linecap: square"/>
     </g>
     <g id="line2d_12">
      <defs>
       <path id="me4081a7abe" d="M 0 0 
L 2.5 0 
" style="stroke: #000000; stroke-width: 0.5"/>
      </defs>
      <g>
       <use xlink:href="#me4081a7abe" x="26.001491" y="98.446998" style="stroke: #000000; stroke-width: 0.5"/>
      </g>
     </g>
     <g id="text_7">
      <!-- $\mathregular{0.5}$ -->
      <g transform="translate(3.301491 103.006061)scale(0.12 -0.12)">
       <defs>
        <path id="DejaVuSans-2e" d="M 684 794 
L 1344 794 
L 1344 0 
L 684 0 
L 684 794 
z
" transform="scale(0.015625)"/>
       </defs>
       <use xlink:href="#DejaVuSans-30" transform="translate(0 0.78125)"/>
       <use xlink:href="#DejaVuSans-2e" transform="translate(63.623047 0.78125)"/>
       <use xlink:href="#DejaVuSans-35" transform="translate(95.410156 0.78125)"/>
      </g>
     </g>
    </g>
    <g id="ytick_2">
     <g id="line2d_13">
      <path d="M 26.001491 77.405534 
L 473.595354 77.405534 
" clip-path="url(#p5ad09510ce)" style="fill: none; stroke: #000000; stroke-opacity: 0.1; stroke-width: 0.5; stroke-linecap: square"/>
     </g>
     <g id="line2d_14">
      <g>
       <use xlink:href="#me4081a7abe" x="26.001491" y="77.405534" style="stroke: #000000; stroke-width: 0.5"/>
      </g>
     </g>
     <g id="text_8">
      <!-- $\mathregular{1.0}$ -->
      <g transform="translate(3.301491 81.964597)scale(0.12 -0.12)">
       <use xlink:href="#DejaVuSans-31" transform="translate(0 0.78125)"/>
       <use xlink:href="#DejaVuSans-2e" transform="translate(63.623047 0.78125)"/>
       <use xlink:href="#DejaVuSans-30" transform="translate(95.410156 0.78125)"/>
      </g>
     </g>
    </g>
    <g id="ytick_3">
     <g id="line2d_15">
      <path d="M 26.001491 56.36407 
L 473.595354 56.36407 
" clip-path="url(#p5ad09510ce)" style="fill: none; stroke: #000000; stroke-opacity: 0.1; stroke-width: 0.5; stroke-linecap: square"/>
     </g>
     <g id="line2d_16">
      <g>
       <use xlink:href="#me4081a7abe" x="26.001491" y="56.36407" style="stroke: #000000; stroke-width: 0.5"/>
      </g>
     </g>
     <g id="text_9">
      <!-- $\mathregular{1.5}$ -->
      <g transform="translate(3.301491 60.923133)scale(0.12 -0.12)">
       <use xlink:href="#DejaVuSans-31" transform="translate(0 0.09375)"/>
       <use xlink:href="#DejaVuSans-2e" transform="translate(63.623047 0.09375)"/>
       <use xlink:href="#DejaVuSans-35" transform="translate(95.410156 0.09375)"/>
      </g>
     </g>
    </g>
    <g id="ytick_4">
     <g id="line2d_17">
      <path d="M 26.001491 35.322606 
L 473.595354 35.322606 
" clip-path="url(#p5ad09510ce)" style="fill: none; stroke: #000000; stroke-opacity: 0.1; stroke-width: 0.5; stroke-linecap: square"/>
     </g>
     <g id="line2d_18">
      <g>
       <use xlink:href="#me4081a7abe" x="26.001491" y="35.322606" style="stroke: #000000; stroke-width: 0.5"/>
      </g>
     </g>
     <g id="text_10">
      <!-- $\mathregular{2.0}$ -->
      <g transform="translate(3.301491 39.881668)scale(0.12 -0.12)">
       <use xlink:href="#DejaVuSans-32" transform="translate(0 0.78125)"/>
       <use xlink:href="#DejaVuSans-2e" transform="translate(63.623047 0.78125)"/>
       <use xlink:href="#DejaVuSans-30" transform="translate(95.410156 0.78125)"/>
      </g>
     </g>
    </g>
    <g id="ytick_5">
     <g id="line2d_19">
      <path d="M 26.001491 14.281142 
L 473.595354 14.281142 
" clip-path="url(#p5ad09510ce)" style="fill: none; stroke: #000000; stroke-opacity: 0.1; stroke-width: 0.5; stroke-linecap: square"/>
     </g>
     <g id="line2d_20">
      <g>
       <use xlink:href="#me4081a7abe" x="26.001491" y="14.281142" style="stroke: #000000; stroke-width: 0.5"/>
      </g>
     </g>
     <g id="text_11">
      <!-- $\mathregular{2.5}$ -->
      <g transform="translate(3.301491 18.840204)scale(0.12 -0.12)">
       <use xlink:href="#DejaVuSans-32" transform="translate(0 0.78125)"/>
       <use xlink:href="#DejaVuSans-2e" transform="translate(63.623047 0.78125)"/>
       <use xlink:href="#DejaVuSans-35" transform="translate(95.410156 0.78125)"/>
      </g>
     </g>
    </g>
   </g>
   <g id="PathCollection_1">
    <defs>
     <path id="md93f472acb" d="M 0 4 
C 1.060812 4 2.078319 3.578535 2.828427 2.828427 
C 3.578535 2.078319 4 1.060812 4 0 
C 4 -1.060812 3.578535 -2.078319 2.828427 -2.828427 
C 2.078319 -3.578535 1.060812 -4 0 -4 
C -1.060812 -4 -2.078319 -3.578535 -2.828427 -2.828427 
C -3.578535 -2.078319 -4 -1.060812 -4 0 
C -4 1.060812 -3.578535 2.078319 -2.828427 2.828427 
C -2.078319 3.578535 -1.060812 4 0 4 
z
" style="stroke: #000000"/>
    </defs>
    <g clip-path="url(#p5ad09510ce)">
     <use xlink:href="#md93f472acb" x="38.669242" y="51.589723" style="fill: #009afa; stroke: #000000"/>
     <use xlink:href="#md93f472acb" x="40.4972" y="55.857215" style="fill: #009afa; stroke: #000000"/>
     <use xlink:href="#md93f472acb" x="42.325159" y="57.480692" style="fill: #009afa; stroke: #000000"/>
     <use xlink:href="#md93f472acb" x="153.830613" y="93.994517" style="fill: #009afa; stroke: #000000"/>
     <use xlink:href="#md93f472acb" x="177.594071" y="63.97282" style="fill: #009afa; stroke: #000000"/>
     <use xlink:href="#md93f472acb" x="197.701612" y="38.63976" style="fill: #009afa; stroke: #000000"/>
     <use xlink:href="#md93f472acb" x="214.153237" y="80.334926" style="fill: #009afa; stroke: #000000"/>
     <use xlink:href="#md93f472acb" x="219.637111" y="85.916845" style="fill: #009afa; stroke: #000000"/>
     <use xlink:href="#md93f472acb" x="221.46507" y="93.264055" style="fill: #009afa; stroke: #000000"/>
     <use xlink:href="#md93f472acb" x="232.432819" y="47.338381" style="fill: #009afa; stroke: #000000"/>
     <use xlink:href="#md93f472acb" x="248.884444" y="72.378498" style="fill: #009afa; stroke: #000000"/>
     <use xlink:href="#md93f472acb" x="250.712402" y="62.090521" style="fill: #009afa; stroke: #000000"/>
     <use xlink:href="#md93f472acb" x="265.336068" y="88.979553" style="fill: #009afa; stroke: #000000"/>
     <use xlink:href="#md93f472acb" x="287.271567" y="61.237552" style="fill: #009afa; stroke: #000000"/>
     <use xlink:href="#md93f472acb" x="289.099526" y="78.16781" style="fill: #009afa; stroke: #000000"/>
     <use xlink:href="#md93f472acb" x="305.55115" y="57.218051" style="fill: #009afa; stroke: #000000"/>
     <use xlink:href="#md93f472acb" x="314.690942" y="102.264882" style="fill: #009afa; stroke: #000000"/>
     <use xlink:href="#md93f472acb" x="316.5189" y="38.128631" style="fill: #009afa; stroke: #000000"/>
     <use xlink:href="#md93f472acb" x="318.346858" y="68.92991" style="fill: #009afa; stroke: #000000"/>
     <use xlink:href="#md93f472acb" x="322.002775" y="35.825586" style="fill: #009afa; stroke: #000000"/>
     <use xlink:href="#md93f472acb" x="331.142566" y="88.862126" style="fill: #009afa; stroke: #000000"/>
     <use xlink:href="#md93f472acb" x="332.970524" y="71.751643" style="fill: #009afa; stroke: #000000"/>
     <use xlink:href="#md93f472acb" x="334.798483" y="96.339962" style="fill: #009afa; stroke: #000000"/>
     <use xlink:href="#md93f472acb" x="336.626441" y="58.33734" style="fill: #009afa; stroke: #000000"/>
     <use xlink:href="#md93f472acb" x="338.454399" y="8.907606" style="fill: #009afa; stroke: #000000"/>
     <use xlink:href="#md93f472acb" x="345.766232" y="97.761278" style="fill: #009afa; stroke: #000000"/>
     <use xlink:href="#md93f472acb" x="347.594191" y="94.789244" style="fill: #009afa; stroke: #000000"/>
     <use xlink:href="#md93f472acb" x="360.389898" y="39.787774" style="fill: #009afa; stroke: #000000"/>
     <use xlink:href="#md93f472acb" x="362.217857" y="83.973673" style="fill: #009afa; stroke: #000000"/>
     <use xlink:href="#md93f472acb" x="364.045815" y="50.585876" style="fill: #009afa; stroke: #000000"/>
     <use xlink:href="#md93f472acb" x="375.013565" y="76.531495" style="fill: #009afa; stroke: #000000"/>
     <use xlink:href="#md93f472acb" x="384.153356" y="103.376938" style="fill: #009afa; stroke: #000000"/>
     <use xlink:href="#md93f472acb" x="385.981314" y="101.575357" style="fill: #009afa; stroke: #000000"/>
     <use xlink:href="#md93f472acb" x="387.809273" y="5.763062" style="fill: #009afa; stroke: #000000"/>
     <use xlink:href="#md93f472acb" x="389.637231" y="12.792278" style="fill: #009afa; stroke: #000000"/>
     <use xlink:href="#md93f472acb" x="396.949064" y="69.925702" style="fill: #009afa; stroke: #000000"/>
     <use xlink:href="#md93f472acb" x="407.916814" y="76.734642" style="fill: #009afa; stroke: #000000"/>
     <use xlink:href="#md93f472acb" x="417.056605" y="90.056269" style="fill: #009afa; stroke: #000000"/>
     <use xlink:href="#md93f472acb" x="418.884563" y="62.713015" style="fill: #009afa; stroke: #000000"/>
     <use xlink:href="#md93f472acb" x="429.852313" y="72.782393" style="fill: #009afa; stroke: #000000"/>
     <use xlink:href="#md93f472acb" x="431.680271" y="73.505188" style="fill: #009afa; stroke: #000000"/>
     <use xlink:href="#md93f472acb" x="453.61577" y="14.066684" style="fill: #009afa; stroke: #000000"/>
     <use xlink:href="#md93f472acb" x="459.099645" y="67.825023" style="fill: #009afa; stroke: #000000"/>
     <use xlink:href="#md93f472acb" x="460.927603" y="93.314186" style="fill: #009afa; stroke: #000000"/>
    </g>
   </g>
   <g id="PathCollection_2">
    <defs>
     <path id="mb5b3909a66" d="M 0 4 
C 1.060812 4 2.078319 3.578535 2.828427 2.828427 
C 3.578535 2.078319 4 1.060812 4 0 
C 4 -1.060812 3.578535 -2.078319 2.828427 -2.828427 
C 2.078319 -3.578535 1.060812 -4 0 -4 
C -1.060812 -4 -2.078319 -3.578535 -2.828427 -2.828427 
C -3.578535 -2.078319 -4 -1.060812 -4 0 
C -4 1.060812 -3.578535 2.078319 -2.828427 2.828427 
C -2.078319 3.578535 -1.060812 4 0 4 
z
" style="stroke: #000000"/>
    </defs>
    <g clip-path="url(#p5ad09510ce)">
     <use xlink:href="#mb5b3909a66" x="38.669242" y="77.397158" style="fill: #e36f47; stroke: #000000"/>
     <use xlink:href="#mb5b3909a66" x="40.4972" y="77.444895" style="fill: #e36f47; stroke: #000000"/>
     <use xlink:href="#mb5b3909a66" x="42.325159" y="77.544392" style="fill: #e36f47; stroke: #000000"/>
     <use xlink:href="#mb5b3909a66" x="153.830613" y="80.399841" style="fill: #e36f47; stroke: #000000"/>
     <use xlink:href="#mb5b3909a66" x="177.594071" y="77.155279" style="fill: #e36f47; stroke: #000000"/>
     <use xlink:href="#mb5b3909a66" x="197.701612" y="76.646029" style="fill: #e36f47; stroke: #000000"/>
     <use xlink:href="#mb5b3909a66" x="214.153237" y="79.475274" style="fill: #e36f47; stroke: #000000"/>
     <use xlink:href="#mb5b3909a66" x="219.637111" y="79.967464" style="fill: #e36f47; stroke: #000000"/>
     <use xlink:href="#mb5b3909a66" x="221.46507" y="72.128164" style="fill: #e36f47; stroke: #000000"/>
     <use xlink:href="#mb5b3909a66" x="232.432819" y="76.066489" style="fill: #e36f47; stroke: #000000"/>
     <use xlink:href="#mb5b3909a66" x="248.884444" y="76.169832" style="fill: #e36f47; stroke: #000000"/>
     <use xlink:href="#mb5b3909a66" x="250.712402" y="64.449799" style="fill: #e36f47; stroke: #000000"/>
     <use xlink:href="#mb5b3909a66" x="265.336068" y="85.130749" style="fill: #e36f47; stroke: #000000"/>
     <use xlink:href="#mb5b3909a66" x="287.271567" y="74.209871" style="fill: #e36f47; stroke: #000000"/>
     <use xlink:href="#mb5b3909a66" x="289.099526" y="77.286823" style="fill: #e36f47; stroke: #000000"/>
     <use xlink:href="#mb5b3909a66" x="305.55115" y="76.074078" style="fill: #e36f47; stroke: #000000"/>
     <use xlink:href="#mb5b3909a66" x="314.690942" y="95.077785" style="fill: #e36f47; stroke: #000000"/>
     <use xlink:href="#mb5b3909a66" x="316.5189" y="18.35695" style="fill: #e36f47; stroke: #000000"/>
     <use xlink:href="#mb5b3909a66" x="318.346858" y="75.977748" style="fill: #e36f47; stroke: #000000"/>
     <use xlink:href="#mb5b3909a66" x="322.002775" y="77.341919" style="fill: #e36f47; stroke: #000000"/>
     <use xlink:href="#mb5b3909a66" x="331.142566" y="77.156814" style="fill: #e36f47; stroke: #000000"/>
     <use xlink:href="#mb5b3909a66" x="332.970524" y="72.773256" style="fill: #e36f47; stroke: #000000"/>
     <use xlink:href="#mb5b3909a66" x="334.798483" y="89.870386" style="fill: #e36f47; stroke: #000000"/>
     <use xlink:href="#mb5b3909a66" x="336.626441" y="77.441192" style="fill: #e36f47; stroke: #000000"/>
     <use xlink:href="#mb5b3909a66" x="338.454399" y="13.862476" style="fill: #e36f47; stroke: #000000"/>
     <use xlink:href="#mb5b3909a66" x="345.766232" y="93.463491" style="fill: #e36f47; stroke: #000000"/>
     <use xlink:href="#mb5b3909a66" x="347.594191" y="77.400737" style="fill: #e36f47; stroke: #000000"/>
     <use xlink:href="#mb5b3909a66" x="360.389898" y="77.395567" style="fill: #e36f47; stroke: #000000"/>
     <use xlink:href="#mb5b3909a66" x="362.217857" y="77.30158" style="fill: #e36f47; stroke: #000000"/>
     <use xlink:href="#mb5b3909a66" x="364.045815" y="76.559513" style="fill: #e36f47; stroke: #000000"/>
     <use xlink:href="#mb5b3909a66" x="375.013565" y="77.804352" style="fill: #e36f47; stroke: #000000"/>
     <use xlink:href="#mb5b3909a66" x="384.153356" y="77.93185" style="fill: #e36f47; stroke: #000000"/>
     <use xlink:href="#mb5b3909a66" x="385.981314" y="80.43458" style="fill: #e36f47; stroke: #000000"/>
     <use xlink:href="#mb5b3909a66" x="387.809273" y="77.503898" style="fill: #e36f47; stroke: #000000"/>
     <use xlink:href="#mb5b3909a66" x="389.637231" y="71.116834" style="fill: #e36f47; stroke: #000000"/>
     <use xlink:href="#mb5b3909a66" x="396.949064" y="76.790387" style="fill: #e36f47; stroke: #000000"/>
     <use xlink:href="#mb5b3909a66" x="407.916814" y="78.850336" style="fill: #e36f47; stroke: #000000"/>
     <use xlink:href="#mb5b3909a66" x="417.056605" y="78.098159" style="fill: #e36f47; stroke: #000000"/>
     <use xlink:href="#mb5b3909a66" x="418.884563" y="77.587457" style="fill: #e36f47; stroke: #000000"/>
     <use xlink:href="#mb5b3909a66" x="429.852313" y="77.450063" style="fill: #e36f47; stroke: #000000"/>
     <use xlink:href="#mb5b3909a66" x="431.680271" y="77.653667" style="fill: #e36f47; stroke: #000000"/>
     <use xlink:href="#mb5b3909a66" x="453.61577" y="72.68592" style="fill: #e36f47; stroke: #000000"/>
     <use xlink:href="#mb5b3909a66" x="459.099645" y="76.120766" style="fill: #e36f47; stroke: #000000"/>
     <use xlink:href="#mb5b3909a66" x="460.927603" y="77.569241" style="fill: #e36f47; stroke: #000000"/>
    </g>
   </g>
   <g id="patch_3">
    <path d="M 26.001491 106.305354 
L 26.001491 2.834646 
" style="fill: none; stroke: #000000; stroke-linejoin: miter; stroke-linecap: square"/>
   </g>
   <g id="patch_4">
    <path d="M 26.001491 106.305354 
L 473.595354 106.305354 
" style="fill: none; stroke: #000000; stroke-linejoin: miter; stroke-linecap: square"/>
   </g>
   <g id="legend_1">
    <g id="patch_5">
     <path d="M 479.595354 79.1175 
L 573.296604 79.1175 
L 573.296604 30.0225 
L 479.595354 30.0225 
z
" style="fill: #ffffff; stroke: #000000; stroke-linejoin: miter"/>
    </g>
    <g id="line2d_21">
     <path d="M 489.195354 44.540625 
L 501.195354 44.540625 
L 513.195354 44.540625 
" style="fill: none"/>
     <defs>
      <path id="mbea66831cd" d="M 0 4.8 
C 1.272975 4.8 2.493983 4.294242 3.394113 3.394113 
C 4.294242 2.493983 4.8 1.272975 4.8 0 
C 4.8 -1.272975 4.294242 -2.493983 3.394113 -3.394113 
C 2.493983 -4.294242 1.272975 -4.8 0 -4.8 
C -1.272975 -4.8 -2.493983 -4.294242 -3.394113 -3.394113 
C -4.294242 -2.493983 -4.8 -1.272975 -4.8 0 
C -4.8 1.272975 -4.294242 2.493983 -3.394113 3.394113 
C -2.493983 4.294242 -1.272975 4.8 0 4.8 
z
" style="stroke: #000000; stroke-width: 1.2"/>
     </defs>
     <g>
      <use xlink:href="#mbea66831cd" x="501.195354" y="44.540625" style="fill: #009afa; stroke: #000000; stroke-width: 1.2"/>
     </g>
    </g>
    <g id="text_12">
     <!-- p_init -->
     <g transform="translate(522.795354 48.740625)scale(0.12 -0.12)">
      <defs>
       <path id="DejaVuSans-70" d="M 1159 525 
L 1159 -1331 
L 581 -1331 
L 581 3500 
L 1159 3500 
L 1159 2969 
Q 1341 3281 1617 3432 
Q 1894 3584 2278 3584 
Q 2916 3584 3314 3078 
Q 3713 2572 3713 1747 
Q 3713 922 3314 415 
Q 2916 -91 2278 -91 
Q 1894 -91 1617 61 
Q 1341 213 1159 525 
z
M 3116 1747 
Q 3116 2381 2855 2742 
Q 2594 3103 2138 3103 
Q 1681 3103 1420 2742 
Q 1159 2381 1159 1747 
Q 1159 1113 1420 752 
Q 1681 391 2138 391 
Q 2594 391 2855 752 
Q 3116 1113 3116 1747 
z
" transform="scale(0.015625)"/>
       <path id="DejaVuSans-5f" d="M 3263 -1063 
L 3263 -1509 
L -63 -1509 
L -63 -1063 
L 3263 -1063 
z
" transform="scale(0.015625)"/>
       <path id="DejaVuSans-69" d="M 603 3500 
L 1178 3500 
L 1178 0 
L 603 0 
L 603 3500 
z
M 603 4863 
L 1178 4863 
L 1178 4134 
L 603 4134 
L 603 4863 
z
" transform="scale(0.015625)"/>
       <path id="DejaVuSans-74" d="M 1172 4494 
L 1172 3500 
L 2356 3500 
L 2356 3053 
L 1172 3053 
L 1172 1153 
Q 1172 725 1289 603 
Q 1406 481 1766 481 
L 2356 481 
L 2356 0 
L 1766 0 
Q 1100 0 847 248 
Q 594 497 594 1153 
L 594 3053 
L 172 3053 
L 172 3500 
L 594 3500 
L 594 4494 
L 1172 4494 
z
" transform="scale(0.015625)"/>
      </defs>
      <use xlink:href="#DejaVuSans-70"/>
      <use xlink:href="#DejaVuSans-5f" x="63.476562"/>
      <use xlink:href="#DejaVuSans-69" x="113.476562"/>
      <use xlink:href="#DejaVuSans-6e" x="141.259766"/>
      <use xlink:href="#DejaVuSans-69" x="204.638672"/>
      <use xlink:href="#DejaVuSans-74" x="232.421875"/>
     </g>
    </g>
    <g id="line2d_22">
     <path d="M 489.195354 62.488125 
L 501.195354 62.488125 
L 513.195354 62.488125 
" style="fill: none"/>
     <defs>
      <path id="m5a86fe5d1d" d="M 0 4.8 
C 1.272975 4.8 2.493983 4.294242 3.394113 3.394113 
C 4.294242 2.493983 4.8 1.272975 4.8 0 
C 4.8 -1.272975 4.294242 -2.493983 3.394113 -3.394113 
C 2.493983 -4.294242 1.272975 -4.8 0 -4.8 
C -1.272975 -4.8 -2.493983 -4.294242 -3.394113 -3.394113 
C -4.294242 -2.493983 -4.8 -1.272975 -4.8 0 
C -4.8 1.272975 -4.294242 2.493983 -3.394113 3.394113 
C -2.493983 4.294242 -1.272975 4.8 0 4.8 
z
" style="stroke: #000000; stroke-width: 1.2"/>
     </defs>
     <g>
      <use xlink:href="#m5a86fe5d1d" x="501.195354" y="62.488125" style="fill: #e36f47; stroke: #000000; stroke-width: 1.2"/>
     </g>
    </g>
    <g id="text_13">
     <!-- p_pred -->
     <g transform="translate(522.795354 66.688125)scale(0.12 -0.12)">
      <defs>
       <path id="DejaVuSans-72" d="M 2631 2963 
Q 2534 3019 2420 3045 
Q 2306 3072 2169 3072 
Q 1681 3072 1420 2755 
Q 1159 2438 1159 1844 
L 1159 0 
L 581 0 
L 581 3500 
L 1159 3500 
L 1159 2956 
Q 1341 3275 1631 3429 
Q 1922 3584 2338 3584 
Q 2397 3584 2469 3576 
Q 2541 3569 2628 3553 
L 2631 2963 
z
" transform="scale(0.015625)"/>
      </defs>
      <use xlink:href="#DejaVuSans-70"/>
      <use xlink:href="#DejaVuSans-5f" x="63.476562"/>
      <use xlink:href="#DejaVuSans-70" x="113.476562"/>
      <use xlink:href="#DejaVuSans-72" x="176.953125"/>
      <use xlink:href="#DejaVuSans-65" x="215.816406"/>
      <use xlink:href="#DejaVuSans-64" x="277.339844"/>
     </g>
    </g>
   </g>
  </g>
 </g>
 <defs>
  <clipPath id="p5ad09510ce">
   <rect x="26.001491" y="2.834646" width="447.593863" height="103.470709"/>
  </clipPath>
 </defs>
</svg>
