<?xml version="1.0" encoding="utf-8" standalone="no"?>
<!DOCTYPE svg PUBLIC "-//W3C//DTD SVG 1.1//EN"
  "http://www.w3.org/Graphics/SVG/1.1/DTD/svg11.dtd">
<svg xmlns:xlink="http://www.w3.org/1999/xlink" width="576pt" height="288pt" viewBox="0 0 576 288" xmlns="http://www.w3.org/2000/svg" version="1.1">
 <metadata>
  <rdf:RDF xmlns:dc="http://purl.org/dc/elements/1.1/" xmlns:cc="http://creativecommons.org/ns#" xmlns:rdf="http://www.w3.org/1999/02/22-rdf-syntax-ns#">
   <cc:Work>
    <dc:type rdf:resource="http://purl.org/dc/dcmitype/StillImage"/>
    <dc:date>2023-02-03T19:50:39.600442</dc:date>
    <dc:format>image/svg+xml</dc:format>
    <dc:creator>
     <cc:Agent>
      <dc:title>Matplotlib v3.5.3, https://matplotlib.org/</dc:title>
     </cc:Agent>
    </dc:creator>
   </cc:Work>
  </rdf:RDF>
 </metadata>
 <defs>
  <style type="text/css">*{stroke-linejoin: round; stroke-linecap: butt}</style>
 </defs>
 <g id="figure_1">
  <g id="patch_1">
   <path d="M 0 288 
L 576 288 
L 576 0 
L 0 0 
z
" style="fill: #ffffff"/>
  </g>
  <g id="axes_1">
   <g id="patch_2">
    <path d="M 44.401491 250.305354 
L 573.165354 250.305354 
L 573.165354 2.834646 
L 44.401491 2.834646 
z
" style="fill: #ffffff"/>
   </g>
   <g id="matplotlib.axis_1">
    <g id="xtick_1">
     <g id="line2d_1">
      <path d="M 54.378168 250.305354 
L 54.378168 2.834646 
" clip-path="url(#p80ace6360b)" style="fill: none; stroke: #000000; stroke-opacity: 0.1; stroke-width: 0.5; stroke-linecap: square"/>
     </g>
     <g id="line2d_2">
      <defs>
       <path id="m8088b1c9e0" d="M 0 0 
L 0 -2.5 
" style="stroke: #000000; stroke-width: 0.5"/>
      </defs>
      <g>
       <use xlink:href="#m8088b1c9e0" x="54.378168" y="250.305354" style="stroke: #000000; stroke-width: 0.5"/>
      </g>
     </g>
     <g id="text_1">
      <!-- $\mathregular{0}$ -->
      <g transform="translate(50.538168 262.923479)scale(0.12 -0.12)">
       <defs>
        <path id="DejaVuSans-30" d="M 2034 4250 
Q 1547 4250 1301 3770 
Q 1056 3291 1056 2328 
Q 1056 1369 1301 889 
Q 1547 409 2034 409 
Q 2525 409 2770 889 
Q 3016 1369 3016 2328 
Q 3016 3291 2770 3770 
Q 2525 4250 2034 4250 
z
M 2034 4750 
Q 2819 4750 3233 4129 
Q 3647 3509 3647 2328 
Q 3647 1150 3233 529 
Q 2819 -91 2034 -91 
Q 1250 -91 836 529 
Q 422 1150 422 2328 
Q 422 3509 836 4129 
Q 1250 4750 2034 4750 
z
" transform="scale(0.015625)"/>
       </defs>
       <use xlink:href="#DejaVuSans-30" transform="translate(0 0.78125)"/>
      </g>
     </g>
    </g>
    <g id="xtick_2">
     <g id="line2d_3">
      <path d="M 179.086626 250.305354 
L 179.086626 2.834646 
" clip-path="url(#p80ace6360b)" style="fill: none; stroke: #000000; stroke-opacity: 0.1; stroke-width: 0.5; stroke-linecap: square"/>
     </g>
     <g id="line2d_4">
      <g>
       <use xlink:href="#m8088b1c9e0" x="179.086626" y="250.305354" style="stroke: #000000; stroke-width: 0.5"/>
      </g>
     </g>
     <g id="text_2">
      <!-- $\mathregular{25}$ -->
      <g transform="translate(171.406626 262.923479)scale(0.12 -0.12)">
       <defs>
        <path id="DejaVuSans-32" d="M 1228 531 
L 3431 531 
L 3431 0 
L 469 0 
L 469 531 
Q 828 903 1448 1529 
Q 2069 2156 2228 2338 
Q 2531 2678 2651 2914 
Q 2772 3150 2772 3378 
Q 2772 3750 2511 3984 
Q 2250 4219 1831 4219 
Q 1534 4219 1204 4116 
Q 875 4013 500 3803 
L 500 4441 
Q 881 4594 1212 4672 
Q 1544 4750 1819 4750 
Q 2544 4750 2975 4387 
Q 3406 4025 3406 3419 
Q 3406 3131 3298 2873 
Q 3191 2616 2906 2266 
Q 2828 2175 2409 1742 
Q 1991 1309 1228 531 
z
" transform="scale(0.015625)"/>
        <path id="DejaVuSans-35" d="M 691 4666 
L 3169 4666 
L 3169 4134 
L 1269 4134 
L 1269 2991 
Q 1406 3038 1543 3061 
Q 1681 3084 1819 3084 
Q 2600 3084 3056 2656 
Q 3513 2228 3513 1497 
Q 3513 744 3044 326 
Q 2575 -91 1722 -91 
Q 1428 -91 1123 -41 
Q 819 9 494 109 
L 494 744 
Q 775 591 1075 516 
Q 1375 441 1709 441 
Q 2250 441 2565 725 
Q 2881 1009 2881 1497 
Q 2881 1984 2565 2268 
Q 2250 2553 1709 2553 
Q 1456 2553 1204 2497 
Q 953 2441 691 2322 
L 691 4666 
z
" transform="scale(0.015625)"/>
       </defs>
       <use xlink:href="#DejaVuSans-32" transform="translate(0 0.78125)"/>
       <use xlink:href="#DejaVuSans-35" transform="translate(63.623047 0.78125)"/>
      </g>
     </g>
    </g>
    <g id="xtick_3">
     <g id="line2d_5">
      <path d="M 303.795085 250.305354 
L 303.795085 2.834646 
" clip-path="url(#p80ace6360b)" style="fill: none; stroke: #000000; stroke-opacity: 0.1; stroke-width: 0.5; stroke-linecap: square"/>
     </g>
     <g id="line2d_6">
      <g>
       <use xlink:href="#m8088b1c9e0" x="303.795085" y="250.305354" style="stroke: #000000; stroke-width: 0.5"/>
      </g>
     </g>
     <g id="text_3">
      <!-- $\mathregular{50}$ -->
      <g transform="translate(296.115085 262.923479)scale(0.12 -0.12)">
       <use xlink:href="#DejaVuSans-35" transform="translate(0 0.78125)"/>
       <use xlink:href="#DejaVuSans-30" transform="translate(63.623047 0.78125)"/>
      </g>
     </g>
    </g>
    <g id="xtick_4">
     <g id="line2d_7">
      <path d="M 428.503543 250.305354 
L 428.503543 2.834646 
" clip-path="url(#p80ace6360b)" style="fill: none; stroke: #000000; stroke-opacity: 0.1; stroke-width: 0.5; stroke-linecap: square"/>
     </g>
     <g id="line2d_8">
      <g>
       <use xlink:href="#m8088b1c9e0" x="428.503543" y="250.305354" style="stroke: #000000; stroke-width: 0.5"/>
      </g>
     </g>
     <g id="text_4">
      <!-- $\mathregular{75}$ -->
      <g transform="translate(420.823543 262.923479)scale(0.12 -0.12)">
       <defs>
        <path id="DejaVuSans-37" d="M 525 4666 
L 3525 4666 
L 3525 4397 
L 1831 0 
L 1172 0 
L 2766 4134 
L 525 4134 
L 525 4666 
z
" transform="scale(0.015625)"/>
       </defs>
       <use xlink:href="#DejaVuSans-37" transform="translate(0 0.09375)"/>
       <use xlink:href="#DejaVuSans-35" transform="translate(63.623047 0.09375)"/>
      </g>
     </g>
    </g>
    <g id="xtick_5">
     <g id="line2d_9">
      <path d="M 553.212001 250.305354 
L 553.212001 2.834646 
" clip-path="url(#p80ace6360b)" style="fill: none; stroke: #000000; stroke-opacity: 0.1; stroke-width: 0.5; stroke-linecap: square"/>
     </g>
     <g id="line2d_10">
      <g>
       <use xlink:href="#m8088b1c9e0" x="553.212001" y="250.305354" style="stroke: #000000; stroke-width: 0.5"/>
      </g>
     </g>
     <g id="text_5">
      <!-- $\mathregular{100}$ -->
      <g transform="translate(541.752001 262.923479)scale(0.12 -0.12)">
       <defs>
        <path id="DejaVuSans-31" d="M 794 531 
L 1825 531 
L 1825 4091 
L 703 3866 
L 703 4441 
L 1819 4666 
L 2450 4666 
L 2450 531 
L 3481 531 
L 3481 0 
L 794 0 
L 794 531 
z
" transform="scale(0.015625)"/>
       </defs>
       <use xlink:href="#DejaVuSans-31" transform="translate(0 0.78125)"/>
       <use xlink:href="#DejaVuSans-30" transform="translate(63.623047 0.78125)"/>
       <use xlink:href="#DejaVuSans-30" transform="translate(127.246094 0.78125)"/>
      </g>
     </g>
    </g>
    <g id="text_6">
     <!-- Epoch -->
     <g transform="translate(284.285923 281.576604)scale(0.16 -0.16)">
      <defs>
       <path id="DejaVuSans-45" d="M 628 4666 
L 3578 4666 
L 3578 4134 
L 1259 4134 
L 1259 2753 
L 3481 2753 
L 3481 2222 
L 1259 2222 
L 1259 531 
L 3634 531 
L 3634 0 
L 628 0 
L 628 4666 
z
" transform="scale(0.015625)"/>
       <path id="DejaVuSans-70" d="M 1159 525 
L 1159 -1331 
L 581 -1331 
L 581 3500 
L 1159 3500 
L 1159 2969 
Q 1341 3281 1617 3432 
Q 1894 3584 2278 3584 
Q 2916 3584 3314 3078 
Q 3713 2572 3713 1747 
Q 3713 922 3314 415 
Q 2916 -91 2278 -91 
Q 1894 -91 1617 61 
Q 1341 213 1159 525 
z
M 3116 1747 
Q 3116 2381 2855 2742 
Q 2594 3103 2138 3103 
Q 1681 3103 1420 2742 
Q 1159 2381 1159 1747 
Q 1159 1113 1420 752 
Q 1681 391 2138 391 
Q 2594 391 2855 752 
Q 3116 1113 3116 1747 
z
" transform="scale(0.015625)"/>
       <path id="DejaVuSans-6f" d="M 1959 3097 
Q 1497 3097 1228 2736 
Q 959 2375 959 1747 
Q 959 1119 1226 758 
Q 1494 397 1959 397 
Q 2419 397 2687 759 
Q 2956 1122 2956 1747 
Q 2956 2369 2687 2733 
Q 2419 3097 1959 3097 
z
M 1959 3584 
Q 2709 3584 3137 3096 
Q 3566 2609 3566 1747 
Q 3566 888 3137 398 
Q 2709 -91 1959 -91 
Q 1206 -91 779 398 
Q 353 888 353 1747 
Q 353 2609 779 3096 
Q 1206 3584 1959 3584 
z
" transform="scale(0.015625)"/>
       <path id="DejaVuSans-63" d="M 3122 3366 
L 3122 2828 
Q 2878 2963 2633 3030 
Q 2388 3097 2138 3097 
Q 1578 3097 1268 2742 
Q 959 2388 959 1747 
Q 959 1106 1268 751 
Q 1578 397 2138 397 
Q 2388 397 2633 464 
Q 2878 531 3122 666 
L 3122 134 
Q 2881 22 2623 -34 
Q 2366 -91 2075 -91 
Q 1284 -91 818 406 
Q 353 903 353 1747 
Q 353 2603 823 3093 
Q 1294 3584 2113 3584 
Q 2378 3584 2631 3529 
Q 2884 3475 3122 3366 
z
" transform="scale(0.015625)"/>
       <path id="DejaVuSans-68" d="M 3513 2113 
L 3513 0 
L 2938 0 
L 2938 2094 
Q 2938 2591 2744 2837 
Q 2550 3084 2163 3084 
Q 1697 3084 1428 2787 
Q 1159 2491 1159 1978 
L 1159 0 
L 581 0 
L 581 4863 
L 1159 4863 
L 1159 2956 
Q 1366 3272 1645 3428 
Q 1925 3584 2291 3584 
Q 2894 3584 3203 3211 
Q 3513 2838 3513 2113 
z
" transform="scale(0.015625)"/>
      </defs>
      <use xlink:href="#DejaVuSans-45"/>
      <use xlink:href="#DejaVuSans-70" x="63.183594"/>
      <use xlink:href="#DejaVuSans-6f" x="126.660156"/>
      <use xlink:href="#DejaVuSans-63" x="187.841797"/>
      <use xlink:href="#DejaVuSans-68" x="242.822266"/>
     </g>
    </g>
   </g>
   <g id="matplotlib.axis_2">
    <g id="ytick_1">
     <g id="line2d_11">
      <path d="M 44.401491 233.605541 
L 573.165354 233.605541 
" clip-path="url(#p80ace6360b)" style="fill: none; stroke: #000000; stroke-opacity: 0.1; stroke-width: 0.5; stroke-linecap: square"/>
     </g>
     <g id="line2d_12">
      <defs>
       <path id="m55591777bf" d="M 0 0 
L 2.5 0 
" style="stroke: #000000; stroke-width: 0.5"/>
      </defs>
      <g>
       <use xlink:href="#m55591777bf" x="44.401491" y="233.605541" style="stroke: #000000; stroke-width: 0.5"/>
      </g>
     </g>
     <g id="text_7">
      <!-- $\mathregular{0.5}$ -->
      <g transform="translate(21.701491 238.164603)scale(0.12 -0.12)">
       <defs>
        <path id="DejaVuSans-2e" d="M 684 794 
L 1344 794 
L 1344 0 
L 684 0 
L 684 794 
z
" transform="scale(0.015625)"/>
       </defs>
       <use xlink:href="#DejaVuSans-30" transform="translate(0 0.78125)"/>
       <use xlink:href="#DejaVuSans-2e" transform="translate(63.623047 0.78125)"/>
       <use xlink:href="#DejaVuSans-35" transform="translate(95.410156 0.78125)"/>
      </g>
     </g>
    </g>
    <g id="ytick_2">
     <g id="line2d_13">
      <path d="M 44.401491 192.222381 
L 573.165354 192.222381 
" clip-path="url(#p80ace6360b)" style="fill: none; stroke: #000000; stroke-opacity: 0.1; stroke-width: 0.5; stroke-linecap: square"/>
     </g>
     <g id="line2d_14">
      <g>
       <use xlink:href="#m55591777bf" x="44.401491" y="192.222381" style="stroke: #000000; stroke-width: 0.5"/>
      </g>
     </g>
     <g id="text_8">
      <!-- $\mathregular{1.0}$ -->
      <g transform="translate(21.701491 196.781444)scale(0.12 -0.12)">
       <use xlink:href="#DejaVuSans-31" transform="translate(0 0.78125)"/>
       <use xlink:href="#DejaVuSans-2e" transform="translate(63.623047 0.78125)"/>
       <use xlink:href="#DejaVuSans-30" transform="translate(95.410156 0.78125)"/>
      </g>
     </g>
    </g>
    <g id="ytick_3">
     <g id="line2d_15">
      <path d="M 44.401491 150.839222 
L 573.165354 150.839222 
" clip-path="url(#p80ace6360b)" style="fill: none; stroke: #000000; stroke-opacity: 0.1; stroke-width: 0.5; stroke-linecap: square"/>
     </g>
     <g id="line2d_16">
      <g>
       <use xlink:href="#m55591777bf" x="44.401491" y="150.839222" style="stroke: #000000; stroke-width: 0.5"/>
      </g>
     </g>
     <g id="text_9">
      <!-- $\mathregular{1.5}$ -->
      <g transform="translate(21.701491 155.398285)scale(0.12 -0.12)">
       <use xlink:href="#DejaVuSans-31" transform="translate(0 0.09375)"/>
       <use xlink:href="#DejaVuSans-2e" transform="translate(63.623047 0.09375)"/>
       <use xlink:href="#DejaVuSans-35" transform="translate(95.410156 0.09375)"/>
      </g>
     </g>
    </g>
    <g id="ytick_4">
     <g id="line2d_17">
      <path d="M 44.401491 109.456063 
L 573.165354 109.456063 
" clip-path="url(#p80ace6360b)" style="fill: none; stroke: #000000; stroke-opacity: 0.1; stroke-width: 0.5; stroke-linecap: square"/>
     </g>
     <g id="line2d_18">
      <g>
       <use xlink:href="#m55591777bf" x="44.401491" y="109.456063" style="stroke: #000000; stroke-width: 0.5"/>
      </g>
     </g>
     <g id="text_10">
      <!-- $\mathregular{2.0}$ -->
      <g transform="translate(21.701491 114.015125)scale(0.12 -0.12)">
       <use xlink:href="#DejaVuSans-32" transform="translate(0 0.78125)"/>
       <use xlink:href="#DejaVuSans-2e" transform="translate(63.623047 0.78125)"/>
       <use xlink:href="#DejaVuSans-30" transform="translate(95.410156 0.78125)"/>
      </g>
     </g>
    </g>
    <g id="ytick_5">
     <g id="line2d_19">
      <path d="M 44.401491 68.072904 
L 573.165354 68.072904 
" clip-path="url(#p80ace6360b)" style="fill: none; stroke: #000000; stroke-opacity: 0.1; stroke-width: 0.5; stroke-linecap: square"/>
     </g>
     <g id="line2d_20">
      <g>
       <use xlink:href="#m55591777bf" x="44.401491" y="68.072904" style="stroke: #000000; stroke-width: 0.5"/>
      </g>
     </g>
     <g id="text_11">
      <!-- $\mathregular{2.5}$ -->
      <g transform="translate(21.701491 72.631966)scale(0.12 -0.12)">
       <use xlink:href="#DejaVuSans-32" transform="translate(0 0.78125)"/>
       <use xlink:href="#DejaVuSans-2e" transform="translate(63.623047 0.78125)"/>
       <use xlink:href="#DejaVuSans-35" transform="translate(95.410156 0.78125)"/>
      </g>
     </g>
    </g>
    <g id="ytick_6">
     <g id="line2d_21">
      <path d="M 44.401491 26.689744 
L 573.165354 26.689744 
" clip-path="url(#p80ace6360b)" style="fill: none; stroke: #000000; stroke-opacity: 0.1; stroke-width: 0.5; stroke-linecap: square"/>
     </g>
     <g id="line2d_22">
      <g>
       <use xlink:href="#m55591777bf" x="44.401491" y="26.689744" style="stroke: #000000; stroke-width: 0.5"/>
      </g>
     </g>
     <g id="text_12">
      <!-- $\mathregular{3.0}$ -->
      <g transform="translate(21.701491 31.248807)scale(0.12 -0.12)">
       <defs>
        <path id="DejaVuSans-33" d="M 2597 2516 
Q 3050 2419 3304 2112 
Q 3559 1806 3559 1356 
Q 3559 666 3084 287 
Q 2609 -91 1734 -91 
Q 1441 -91 1130 -33 
Q 819 25 488 141 
L 488 750 
Q 750 597 1062 519 
Q 1375 441 1716 441 
Q 2309 441 2620 675 
Q 2931 909 2931 1356 
Q 2931 1769 2642 2001 
Q 2353 2234 1838 2234 
L 1294 2234 
L 1294 2753 
L 1863 2753 
Q 2328 2753 2575 2939 
Q 2822 3125 2822 3475 
Q 2822 3834 2567 4026 
Q 2313 4219 1838 4219 
Q 1578 4219 1281 4162 
Q 984 4106 628 3988 
L 628 4550 
Q 988 4650 1302 4700 
Q 1616 4750 1894 4750 
Q 2613 4750 3031 4423 
Q 3450 4097 3450 3541 
Q 3450 3153 3228 2886 
Q 3006 2619 2597 2516 
z
" transform="scale(0.015625)"/>
       </defs>
       <use xlink:href="#DejaVuSans-33" transform="translate(0 0.78125)"/>
       <use xlink:href="#DejaVuSans-2e" transform="translate(63.623047 0.78125)"/>
       <use xlink:href="#DejaVuSans-30" transform="translate(95.410156 0.78125)"/>
      </g>
     </g>
    </g>
    <g id="text_13">
     <!-- p -->
     <g transform="translate(14.373991 131.64875)rotate(-90)scale(0.16 -0.16)">
      <use xlink:href="#DejaVuSans-70"/>
     </g>
    </g>
   </g>
   <g id="line2d_23">
    <path d="M 59.366506 141.449306 
L 64.354845 200.430901 
L 69.343183 190.56771 
L 74.331521 191.368113 
L 79.31986 191.62409 
L 84.308198 190.997424 
L 89.296536 192.184268 
L 94.284875 191.05913 
L 99.273213 191.221244 
L 104.261551 190.310144 
L 109.24989 190.060232 
L 114.238228 190.898847 
L 119.226566 190.479912 
L 124.214905 192.008429 
L 129.203243 191.148764 
L 134.191581 191.13267 
L 139.17992 191.918953 
L 144.168258 190.671648 
L 149.156596 191.9698 
L 154.144935 192.017748 
L 159.133273 191.848696 
L 164.121611 191.092918 
L 169.10995 191.25494 
L 174.098288 192.113709 
L 179.086626 190.651086 
L 184.074965 191.79001 
L 189.063303 190.293115 
L 194.051641 191.677896 
L 199.03998 191.632295 
L 204.028318 191.148301 
L 209.016656 190.834212 
L 214.004995 191.289655 
L 218.993333 191.704213 
L 223.981671 191.531905 
L 228.97001 191.145712 
L 233.958348 190.867723 
L 238.946686 192.072074 
L 243.935025 191.292772 
L 248.923363 191.886859 
L 253.911701 191.091297 
L 258.90004 190.360829 
L 263.888378 191.789803 
L 268.876716 190.450904 
L 273.865055 191.516531 
L 278.853393 191.475869 
L 283.841731 191.45745 
L 288.83007 191.936523 
L 293.818408 191.721619 
L 298.806746 191.160076 
L 303.795085 191.78235 
L 308.783423 191.52693 
L 313.771761 192.002483 
L 318.7601 191.545332 
L 323.748438 191.398636 
L 328.736776 191.3278 
L 333.725115 191.437145 
L 338.713453 191.495538 
L 343.701791 191.541841 
L 348.690129 191.56308 
L 353.678468 191.531425 
L 358.666806 191.803543 
L 363.655144 191.761619 
L 368.643483 191.502624 
L 373.631821 191.934862 
L 378.620159 191.052064 
L 383.608498 191.8187 
L 388.596836 190.958803 
L 393.585174 191.826525 
L 398.573513 191.59983 
L 403.561851 191.486644 
L 408.550189 191.552044 
L 413.538528 192.198668 
L 418.526866 190.612286 
L 423.515204 191.849102 
L 428.503543 191.625827 
L 433.491881 191.619971 
L 438.480219 191.478992 
L 443.468558 191.226338 
L 448.456896 191.35871 
L 453.445234 191.423361 
L 458.433573 192.405794 
L 463.421911 191.682711 
L 468.410249 191.390135 
L 473.398588 191.414458 
L 478.386926 191.70603 
L 483.375264 191.722769 
L 488.363603 190.98324 
L 493.351941 191.750527 
L 498.340279 192.086772 
L 503.328618 190.728643 
L 508.316956 191.933012 
L 513.305294 190.974094 
L 518.293633 191.801838 
L 523.281971 191.788531 
L 528.270309 191.092677 
L 533.258648 191.641737 
L 538.246986 191.357453 
L 543.235324 191.843219 
L 548.223663 191.038118 
L 553.212001 191.627304 
L 558.200339 191.620218 
" clip-path="url(#p80ace6360b)" style="fill: none; stroke: #009afa"/>
   </g>
   <g id="line2d_24">
    <path d="M 59.366506 149.842368 
L 64.354845 201.275783 
L 69.343183 191.414682 
L 74.331521 192.193645 
L 79.31986 191.946852 
L 84.308198 192.523973 
L 89.296536 191.800488 
L 94.284875 192.239168 
L 99.273213 191.683346 
L 104.261551 192.556907 
L 109.24989 193.237645 
L 114.238228 191.582702 
L 119.226566 193.298909 
L 124.214905 192.628885 
L 129.203243 193.323239 
L 134.191581 192.938062 
L 139.17992 192.335961 
L 144.168258 192.183775 
L 149.156596 192.94239 
L 154.144935 192.121715 
L 159.133273 192.962694 
L 164.121611 192.403718 
L 169.10995 192.692074 
L 174.098288 192.829312 
L 179.086626 192.963178 
L 184.074965 192.454857 
L 189.063303 192.918292 
L 194.051641 193.156766 
L 199.03998 193.218098 
L 204.028318 193.64864 
L 209.016656 193.02274 
L 214.004995 192.622464 
L 218.993333 192.691724 
L 223.981671 192.611424 
L 228.97001 192.710789 
L 233.958348 193.186751 
L 238.946686 192.378934 
L 243.935025 192.275589 
L 248.923363 192.155004 
L 253.911701 192.561749 
L 258.90004 193.275003 
L 263.888378 193.057464 
L 268.876716 193.719964 
L 273.865055 192.572621 
L 278.853393 193.092978 
L 283.841731 192.715487 
L 288.83007 191.88574 
L 293.818408 192.495077 
L 298.806746 193.398986 
L 303.795085 193.320009 
L 308.783423 193.050905 
L 313.771761 192.17885 
L 318.7601 192.747571 
L 323.748438 193.250841 
L 328.736776 192.724675 
L 333.725115 192.671836 
L 338.713453 193.481011 
L 343.701791 192.939245 
L 348.690129 192.990489 
L 353.678468 192.720048 
L 358.666806 193.01658 
L 363.655144 192.416085 
L 368.643483 193.034504 
L 373.631821 192.760924 
L 378.620159 193.996544 
L 383.608498 193.090754 
L 388.596836 192.57849 
L 393.585174 192.508292 
L 398.573513 192.94417 
L 403.561851 193.044247 
L 408.550189 193.043552 
L 413.538528 193.319216 
L 418.526866 192.891622 
L 423.515204 192.677585 
L 428.503543 193.100368 
L 433.491881 193.15607 
L 438.480219 193.107372 
L 443.468558 193.343697 
L 448.456896 193.090244 
L 453.445234 193.154362 
L 458.433573 192.222569 
L 463.421911 192.746148 
L 468.410249 193.060774 
L 473.398588 192.642469 
L 478.386926 193.224906 
L 483.375264 192.994318 
L 488.363603 193.034279 
L 493.351941 193.357447 
L 498.340279 193.173506 
L 503.328618 193.19311 
L 508.316956 193.443101 
L 513.305294 192.972322 
L 518.293633 193.088621 
L 523.281971 192.69261 
L 528.270309 193.21176 
L 533.258648 192.947573 
L 538.246986 193.155753 
L 543.235324 193.077342 
L 548.223663 193.019625 
L 553.212001 192.770233 
L 558.200339 192.729906 
" clip-path="url(#p80ace6360b)" style="fill: none; stroke: #e36f47"/>
   </g>
   <g id="patch_3">
    <path d="M 44.401491 250.305354 
L 44.401491 2.834646 
" style="fill: none; stroke: #000000; stroke-linejoin: miter; stroke-linecap: square"/>
   </g>
   <g id="patch_4">
    <path d="M 44.401491 250.305354 
L 573.165354 250.305354 
" style="fill: none; stroke: #000000; stroke-linejoin: miter; stroke-linecap: square"/>
   </g>
   <g id="line2d_25">
    <path d="M 59.366506 153.03533 
L 64.354845 196.482938 
L 69.343183 182.186288 
L 74.331521 175.043195 
L 79.31986 170.206288 
L 84.308198 170.980855 
L 89.296536 170.33674 
L 94.284875 173.259046 
L 99.273213 171.559511 
L 104.261551 174.333385 
L 109.24989 173.06373 
L 114.238228 170.663877 
L 119.226566 174.224907 
L 124.214905 175.185575 
L 129.203243 175.908621 
L 134.191581 175.42475 
L 139.17992 175.096288 
L 144.168258 174.139214 
L 149.156596 176.361335 
L 154.144935 175.686298 
L 159.133273 176.172042 
L 164.121611 175.077717 
L 169.10995 175.497336 
L 174.098288 175.615407 
L 179.086626 175.464029 
L 184.074965 174.413804 
L 189.063303 175.094667 
L 194.051641 175.415624 
L 199.03998 176.024764 
L 204.028318 176.096539 
L 209.016656 174.992261 
L 214.004995 175.20069 
L 218.993333 175.400545 
L 223.981671 175.844099 
L 228.97001 175.389207 
L 233.958348 175.104635 
L 238.946686 175.029085 
L 243.935025 175.671454 
L 248.923363 175.726363 
L 253.911701 175.298497 
L 258.90004 174.576011 
L 263.888378 174.899284 
L 268.876716 175.81173 
L 273.865055 174.562754 
L 278.853393 176.181831 
L 283.841731 175.523775 
L 288.83007 174.771014 
L 293.818408 176.61966 
L 298.806746 176.717599 
L 303.795085 176.542891 
L 308.783423 175.639286 
L 313.771761 175.686046 
L 318.7601 175.983908 
L 323.748438 174.80743 
L 328.736776 175.353488 
L 333.725115 175.217969 
L 338.713453 175.838058 
L 343.701791 175.332783 
L 348.690129 175.303787 
L 353.678468 174.940838 
L 358.666806 176.338221 
L 363.655144 174.698141 
L 368.643483 175.682613 
L 373.631821 175.638132 
L 378.620159 175.637656 
L 383.608498 175.564491 
L 388.596836 174.408767 
L 393.585174 174.893915 
L 398.573513 176.354122 
L 403.561851 174.352538 
L 408.550189 176.38804 
L 413.538528 176.24196 
L 418.526866 174.943839 
L 423.515204 174.451927 
L 428.503543 176.851711 
L 433.491881 176.51695 
L 438.480219 174.70019 
L 443.468558 175.944749 
L 448.456896 174.633952 
L 453.445234 175.653252 
L 458.433573 174.867112 
L 463.421911 175.584138 
L 468.410249 174.719253 
L 473.398588 174.345542 
L 478.386926 175.995897 
L 483.375264 176.070792 
L 488.363603 174.376807 
L 493.351941 175.298885 
L 498.340279 175.966214 
L 503.328618 175.55424 
L 508.316956 176.004846 
L 513.305294 175.71923 
L 518.293633 175.606737 
L 523.281971 175.298746 
L 528.270309 174.742454 
L 533.258648 175.890269 
L 538.246986 175.952843 
L 543.235324 175.887074 
L 548.223663 174.951834 
L 553.212001 175.762392 
L 558.200339 174.588618 
" clip-path="url(#p80ace6360b)" style="fill: none; stroke: #3ea44e"/>
   </g>
   <g id="line2d_26">
    <path d="M 59.366506 59.612463 
L 64.354845 46.396719 
L 69.343183 55.295186 
L 74.331521 43.185784 
L 79.31986 50.741326 
L 84.308198 48.361981 
L 89.296536 49.548265 
L 94.284875 48.954486 
L 99.273213 45.268431 
L 104.261551 48.146113 
L 109.24989 50.81465 
L 114.238228 45.650688 
L 119.226566 48.547818 
L 124.214905 49.149386 
L 129.203243 46.976792 
L 134.191581 47.948177 
L 139.17992 49.304977 
L 144.168258 49.643996 
L 149.156596 53.966687 
L 154.144935 44.740353 
L 159.133273 51.086879 
L 164.121611 48.139895 
L 169.10995 50.948673 
L 174.098288 48.899403 
L 179.086626 44.85032 
L 184.074965 51.429137 
L 189.063303 51.876631 
L 194.051641 48.775352 
L 199.03998 42.757992 
L 204.028318 45.516883 
L 209.016656 46.465188 
L 214.004995 49.371413 
L 218.993333 47.896192 
L 223.981671 48.765765 
L 228.97001 49.871889 
L 233.958348 49.37022 
L 238.946686 45.813347 
L 243.935025 49.950051 
L 248.923363 51.829767 
L 253.911701 51.262537 
L 258.90004 50.950888 
L 263.888378 46.30753 
L 268.876716 44.619113 
L 273.865055 48.100238 
L 278.853393 47.349976 
L 283.841731 47.369714 
L 288.83007 50.491335 
L 293.818408 51.885581 
L 298.806746 49.032968 
L 303.795085 46.164332 
L 308.783423 47.518192 
L 313.771761 52.677424 
L 318.7601 52.632455 
L 323.748438 48.023562 
L 328.736776 55.204464 
L 333.725115 49.933955 
L 338.713453 47.876324 
L 343.701791 51.878438 
L 348.690129 49.049673 
L 353.678468 50.868937 
L 358.666806 51.234589 
L 363.655144 49.912358 
L 368.643483 49.480987 
L 373.631821 49.579478 
L 378.620159 48.133443 
L 383.608498 45.789545 
L 388.596836 55.34091 
L 393.585174 49.928167 
L 398.573513 50.072781 
L 403.561851 44.770451 
L 408.550189 53.02842 
L 413.538528 42.936317 
L 418.526866 53.986881 
L 423.515204 50.843634 
L 428.503543 45.804339 
L 433.491881 48.935218 
L 438.480219 48.876579 
L 443.468558 47.516716 
L 448.456896 50.524645 
L 453.445234 49.59746 
L 458.433573 47.553309 
L 463.421911 51.318421 
L 468.410249 48.860527 
L 473.398588 52.266144 
L 478.386926 48.163497 
L 483.375264 46.726176 
L 488.363603 53.011718 
L 493.351941 46.329242 
L 498.340279 47.803231 
L 503.328618 52.591931 
L 508.316956 44.859716 
L 513.305294 51.65443 
L 518.293633 49.320277 
L 523.281971 49.363864 
L 528.270309 51.045824 
L 533.258648 48.956309 
L 538.246986 49.148687 
L 543.235324 50.334106 
L 548.223663 49.873582 
L 553.212001 52.502073 
L 558.200339 47.640716 
" clip-path="url(#p80ace6360b)" style="fill: none; stroke: #c371d2"/>
   </g>
   <g id="line2d_27">
    <path d="M 59.366506 224.848653 
L 64.354845 192.350646 
L 69.343183 204.657178 
L 74.331521 199.832167 
L 79.31986 197.489182 
L 84.308198 198.391742 
L 89.296536 198.221215 
L 94.284875 197.447984 
L 99.273213 197.257002 
L 104.261551 198.400171 
L 109.24989 198.60161 
L 114.238228 197.348117 
L 119.226566 198.399146 
L 124.214905 198.148108 
L 129.203243 198.602153 
L 134.191581 198.85238 
L 139.17992 198.731433 
L 144.168258 201.326415 
L 149.156596 198.563533 
L 154.144935 198.575338 
L 159.133273 199.268806 
L 164.121611 199.779944 
L 169.10995 199.448142 
L 174.098288 198.157894 
L 179.086626 199.841978 
L 184.074965 198.645746 
L 189.063303 200.627203 
L 194.051641 198.281102 
L 199.03998 198.031297 
L 204.028318 199.352139 
L 209.016656 198.934679 
L 214.004995 199.262521 
L 218.993333 198.655259 
L 223.981671 199.528137 
L 228.97001 199.50408 
L 233.958348 199.478934 
L 238.946686 197.524329 
L 243.935025 200.100859 
L 248.923363 199.278239 
L 253.911701 200.410118 
L 258.90004 200.584673 
L 263.888378 198.472713 
L 268.876716 199.404437 
L 273.865055 198.737706 
L 278.853393 197.836477 
L 283.841731 198.307262 
L 288.83007 199.885525 
L 293.818408 199.903979 
L 298.806746 199.429067 
L 303.795085 198.801287 
L 308.783423 199.163158 
L 313.771761 198.933173 
L 318.7601 200.550953 
L 323.748438 199.150209 
L 328.736776 200.819636 
L 333.725115 200.320388 
L 338.713453 198.799763 
L 343.701791 199.690132 
L 348.690129 199.424954 
L 353.678468 199.726907 
L 358.666806 199.134183 
L 363.655144 199.951111 
L 368.643483 199.350699 
L 373.631821 199.224559 
L 378.620159 199.334023 
L 383.608498 198.743038 
L 388.596836 201.154114 
L 393.585174 199.74706 
L 398.573513 199.177885 
L 403.561851 198.43229 
L 408.550189 199.280654 
L 413.538528 197.722306 
L 418.526866 200.909877 
L 423.515204 200.10732 
L 428.503543 197.950624 
L 433.491881 199.111067 
L 438.480219 199.17076 
L 443.468558 198.401236 
L 448.456896 200.077225 
L 453.445234 199.761212 
L 458.433573 198.793789 
L 463.421911 199.902615 
L 468.410249 199.141409 
L 473.398588 200.440872 
L 478.386926 198.595166 
L 483.375264 198.41154 
L 488.363603 200.348123 
L 493.351941 197.947257 
L 498.340279 199.399505 
L 503.328618 200.424154 
L 508.316956 197.047478 
L 513.305294 199.669096 
L 518.293633 198.719316 
L 523.281971 199.195797 
L 528.270309 200.238598 
L 533.258648 199.080388 
L 538.246986 199.235516 
L 543.235324 199.639382 
L 548.223663 199.204456 
L 553.212001 199.995495 
L 558.200339 198.890577 
" clip-path="url(#p80ace6360b)" style="fill: none; stroke: #ac8e18"/>
   </g>
   <g id="line2d_28">
    <path d="M 59.366506 165.80368 
L 64.354845 179.505501 
L 69.343183 185.389073 
L 74.331521 170.682506 
L 79.31986 173.179979 
L 84.308198 173.637812 
L 89.296536 172.860501 
L 94.284875 171.917007 
L 99.273213 174.277255 
L 104.261551 173.100573 
L 109.24989 174.21488 
L 114.238228 173.598331 
L 119.226566 174.843407 
L 124.214905 174.828797 
L 129.203243 174.631743 
L 134.191581 175.72443 
L 139.17992 174.246066 
L 144.168258 175.110143 
L 149.156596 174.310855 
L 154.144935 174.573803 
L 159.133273 174.186771 
L 164.121611 174.792365 
L 169.10995 175.824141 
L 174.098288 173.366242 
L 179.086626 174.226337 
L 184.074965 175.705761 
L 189.063303 174.190074 
L 194.051641 174.758878 
L 199.03998 174.372785 
L 204.028318 174.701542 
L 209.016656 174.595556 
L 214.004995 175.354037 
L 218.993333 175.134426 
L 223.981671 173.774095 
L 228.97001 175.016786 
L 233.958348 173.937689 
L 238.946686 175.706933 
L 243.935025 174.211819 
L 248.923363 175.184565 
L 253.911701 174.691585 
L 258.90004 173.972587 
L 263.888378 174.511295 
L 268.876716 174.792755 
L 273.865055 176.110129 
L 278.853393 174.098088 
L 283.841731 174.946258 
L 288.83007 176.017589 
L 293.818408 174.179003 
L 298.806746 173.561606 
L 303.795085 174.941582 
L 308.783423 173.235223 
L 313.771761 177.093843 
L 318.7601 173.63026 
L 323.748438 177.032104 
L 328.736776 174.518752 
L 333.725115 174.084432 
L 338.713453 177.282333 
L 343.701791 173.437074 
L 348.690129 175.935812 
L 353.678468 175.768989 
L 358.666806 174.669125 
L 363.655144 173.9816 
L 368.643483 177.942226 
L 373.631821 173.192018 
L 378.620159 174.352964 
L 383.608498 177.484332 
L 388.596836 172.690063 
L 393.585174 176.364964 
L 398.573513 174.986163 
L 403.561851 176.073977 
L 408.550189 173.892144 
L 413.538528 175.250792 
L 418.526866 175.296091 
L 423.515204 175.807496 
L 428.503543 176.042541 
L 433.491881 174.76731 
L 438.480219 174.497991 
L 443.468558 175.834137 
L 448.456896 175.326803 
L 453.445234 175.561087 
L 458.433573 174.135371 
L 463.421911 174.250982 
L 468.410249 174.468874 
L 473.398588 174.299961 
L 478.386926 175.670491 
L 483.375264 175.653106 
L 488.363603 173.756079 
L 493.351941 175.664684 
L 498.340279 173.195088 
L 503.328618 174.516377 
L 508.316956 177.587 
L 513.305294 174.166114 
L 518.293633 175.511991 
L 523.281971 175.456413 
L 528.270309 172.82106 
L 533.258648 177.309385 
L 538.246986 175.2356 
L 543.235324 175.221728 
L 548.223663 175.275599 
L 553.212001 175.133533 
L 558.200339 175.436745 
" clip-path="url(#p80ace6360b)" style="fill: none; stroke: #00aaae"/>
   </g>
   <g id="line2d_29">
    <path d="M 59.366506 115.980054 
L 64.354845 190.476119 
L 69.343183 194.220769 
L 74.331521 195.130427 
L 79.31986 193.624779 
L 84.308198 194.018123 
L 89.296536 194.080737 
L 94.284875 194.281584 
L 99.273213 194.906081 
L 104.261551 194.722782 
L 109.24989 194.443119 
L 114.238228 194.935683 
L 119.226566 193.262556 
L 124.214905 194.062812 
L 129.203243 193.368278 
L 134.191581 193.931718 
L 139.17992 193.578308 
L 144.168258 191.787733 
L 149.156596 194.132721 
L 154.144935 194.024531 
L 159.133273 193.906057 
L 164.121611 193.125816 
L 169.10995 192.869616 
L 174.098288 194.573626 
L 179.086626 193.433234 
L 184.074965 193.555336 
L 189.063303 192.327959 
L 194.051641 194.885824 
L 199.03998 195.359701 
L 204.028318 194.899308 
L 209.016656 194.271143 
L 214.004995 193.958783 
L 218.993333 194.37269 
L 223.981671 193.451953 
L 228.97001 193.354666 
L 233.958348 193.758498 
L 238.946686 194.383203 
L 243.935025 192.693314 
L 248.923363 193.028445 
L 253.911701 192.794688 
L 258.90004 193.400171 
L 263.888378 195.72081 
L 268.876716 194.71911 
L 273.865055 194.040752 
L 278.853393 194.153869 
L 283.841731 193.927058 
L 288.83007 193.037879 
L 293.818408 192.931777 
L 298.806746 193.945159 
L 303.795085 194.772536 
L 308.783423 194.322722 
L 313.771761 195.732759 
L 318.7601 195.149153 
L 323.748438 195.904864 
L 328.736776 194.846154 
L 333.725115 195.570012 
L 338.713453 196.341233 
L 343.701791 195.462863 
L 348.690129 196.041077 
L 353.678468 195.509883 
L 358.666806 195.807834 
L 363.655144 195.630009 
L 368.643483 195.879705 
L 373.631821 196.502208 
L 378.620159 196.711709 
L 383.608498 196.493637 
L 388.596836 194.556136 
L 393.585174 196.056879 
L 398.573513 196.099516 
L 403.561851 196.656321 
L 408.550189 196.072713 
L 413.538528 197.785635 
L 418.526866 194.917533 
L 423.515204 195.761847 
L 428.503543 197.282592 
L 433.491881 196.523275 
L 438.480219 196.202403 
L 443.468558 196.835153 
L 448.456896 195.78968 
L 453.445234 195.915445 
L 458.433573 196.685948 
L 463.421911 195.709246 
L 468.410249 196.314985 
L 473.398588 194.837085 
L 478.386926 196.638306 
L 483.375264 196.707254 
L 488.363603 195.174877 
L 493.351941 197.121116 
L 498.340279 196.906375 
L 503.328618 194.908165 
L 508.316956 197.161668 
L 513.305294 195.375189 
L 518.293633 196.342269 
L 523.281971 195.822485 
L 528.270309 196.000771 
L 533.258648 196.244443 
L 538.246986 196.584293 
L 543.235324 195.802127 
L 548.223663 195.701677 
L 553.212001 195.274709 
L 558.200339 196.270988 
" clip-path="url(#p80ace6360b)" style="fill: none; stroke: #ed5e93"/>
   </g>
   <g id="line2d_30">
    <path d="M 59.366506 208.961945 
L 64.354845 210.720879 
L 69.343183 202.804977 
L 74.331521 206.911159 
L 79.31986 206.365788 
L 84.308198 207.033891 
L 89.296536 205.354178 
L 94.284875 203.746832 
L 99.273213 204.975613 
L 104.261551 206.514716 
L 109.24989 207.116336 
L 114.238228 205.857694 
L 119.226566 206.655949 
L 124.214905 205.882523 
L 129.203243 205.324707 
L 134.191581 206.442163 
L 139.17992 205.170109 
L 144.168258 208.079346 
L 149.156596 205.933524 
L 154.144935 204.74357 
L 159.133273 205.805827 
L 164.121611 206.629736 
L 169.10995 206.72494 
L 174.098288 204.852773 
L 179.086626 206.620369 
L 184.074965 205.84126 
L 189.063303 207.064207 
L 194.051641 205.253551 
L 199.03998 204.255393 
L 204.028318 204.496624 
L 209.016656 205.921076 
L 214.004995 206.029323 
L 218.993333 205.203565 
L 223.981671 206.189718 
L 228.97001 206.411317 
L 233.958348 205.902493 
L 238.946686 205.278316 
L 243.935025 206.846801 
L 248.923363 206.090817 
L 253.911701 207.047626 
L 258.90004 206.297565 
L 263.888378 204.164588 
L 268.876716 205.49679 
L 273.865055 206.050926 
L 278.853393 205.050592 
L 283.841731 205.806096 
L 288.83007 206.337247 
L 293.818408 206.45052 
L 298.806746 205.977193 
L 303.795085 204.254981 
L 308.783423 205.113367 
L 313.771761 205.031678 
L 318.7601 205.547092 
L 323.748438 205.227736 
L 328.736776 205.865253 
L 333.725115 205.199932 
L 338.713453 204.850785 
L 343.701791 205.406472 
L 348.690129 205.116656 
L 353.678468 205.398458 
L 358.666806 204.941022 
L 363.655144 205.121591 
L 368.643483 205.048876 
L 373.631821 204.75898 
L 378.620159 204.092656 
L 383.608498 204.955677 
L 388.596836 206.208816 
L 393.585174 204.778526 
L 398.573513 205.01393 
L 403.561851 204.783716 
L 408.550189 204.760943 
L 413.538528 203.642118 
L 418.526866 205.795334 
L 423.515204 205.357332 
L 428.503543 204.076118 
L 433.491881 204.553714 
L 438.480219 205.15259 
L 443.468558 204.011381 
L 448.456896 205.077977 
L 453.445234 205.203165 
L 458.433573 204.46764 
L 463.421911 205.39462 
L 468.410249 204.723378 
L 473.398588 205.681465 
L 478.386926 204.610122 
L 483.375264 204.574968 
L 488.363603 205.601522 
L 493.351941 204.181991 
L 498.340279 204.012273 
L 503.328618 206.261486 
L 508.316956 204.173047 
L 513.305294 205.244294 
L 518.293633 204.852909 
L 523.281971 205.074368 
L 528.270309 205.09325 
L 533.258648 205.004663 
L 538.246986 204.466966 
L 543.235324 205.349463 
L 548.223663 205.197571 
L 553.212001 205.509309 
L 558.200339 205.108128 
" clip-path="url(#p80ace6360b)" style="fill: none; stroke: #c68225"/>
   </g>
   <g id="line2d_31">
    <path d="M 59.366506 223.412021 
L 64.354845 214.041455 
L 69.343183 222.162767 
L 74.331521 216.583727 
L 79.31986 219.719627 
L 84.308198 219.148604 
L 89.296536 217.985419 
L 94.284875 216.416269 
L 99.273213 218.988843 
L 104.261551 217.634032 
L 109.24989 220.00503 
L 114.238228 218.366609 
L 119.226566 218.757921 
L 124.214905 218.160754 
L 129.203243 218.411823 
L 134.191581 218.415407 
L 139.17992 218.26156 
L 144.168258 219.506284 
L 149.156596 218.251543 
L 154.144935 217.898918 
L 159.133273 217.985768 
L 164.121611 218.965703 
L 169.10995 218.939442 
L 174.098288 217.561885 
L 179.086626 218.718139 
L 184.074965 218.775187 
L 189.063303 218.486434 
L 194.051641 217.889809 
L 199.03998 217.285811 
L 204.028318 217.0488 
L 209.016656 218.471482 
L 214.004995 218.237389 
L 218.993333 217.995343 
L 223.981671 218.348348 
L 228.97001 218.646592 
L 233.958348 218.003224 
L 238.946686 218.614791 
L 243.935025 218.697717 
L 248.923363 218.682307 
L 253.911701 218.786156 
L 258.90004 217.943984 
L 263.888378 217.04598 
L 268.876716 217.754163 
L 273.865055 218.764904 
L 278.853393 217.840834 
L 283.841731 218.221491 
L 288.83007 218.814907 
L 293.818408 218.632757 
L 298.806746 217.962612 
L 303.795085 217.454968 
L 308.783423 217.704997 
L 313.771761 216.446096 
L 318.7601 215.979248 
L 323.748438 216.434101 
L 328.736776 216.503972 
L 333.725115 215.667256 
L 338.713453 215.97588 
L 343.701791 216.513003 
L 348.690129 216.178016 
L 353.678468 216.247105 
L 358.666806 215.857319 
L 363.655144 215.75316 
L 368.643483 216.073668 
L 373.631821 215.9408 
L 378.620159 214.875353 
L 383.608498 215.799833 
L 388.596836 216.745856 
L 393.585174 215.905576 
L 398.573513 215.883978 
L 403.561851 216.366287 
L 408.550189 215.531248 
L 413.538528 214.989487 
L 418.526866 216.020729 
L 423.515204 216.118961 
L 428.503543 215.717028 
L 433.491881 215.600802 
L 438.480219 215.903798 
L 443.468558 215.28737 
L 448.456896 215.615729 
L 453.445234 215.806852 
L 458.433573 216.030511 
L 463.421911 216.107658 
L 468.410249 215.658744 
L 473.398588 216.272798 
L 478.386926 215.875701 
L 483.375264 215.945534 
L 488.363603 216.364742 
L 493.351941 215.36461 
L 498.340279 215.091312 
L 503.328618 216.339281 
L 508.316956 216.057273 
L 513.305294 216.290092 
L 518.293633 215.91334 
L 523.281971 216.149641 
L 528.270309 215.475132 
L 533.258648 216.084456 
L 538.246986 215.751521 
L 543.235324 216.071409 
L 548.223663 216.143202 
L 553.212001 216.24373 
L 558.200339 216.288047 
" clip-path="url(#p80ace6360b)" style="fill: none; stroke: #00a98d"/>
   </g>
   <g id="line2d_32">
    <path d="M 59.366506 133.088008 
L 64.354845 161.430684 
L 69.343183 145.338831 
L 74.331521 147.333764 
L 79.31986 149.789739 
L 84.308198 152.863124 
L 89.296536 151.512809 
L 94.284875 151.601453 
L 99.273213 149.846631 
L 104.261551 151.663447 
L 109.24989 153.617148 
L 114.238228 149.169275 
L 119.226566 149.911036 
L 124.214905 150.906634 
L 129.203243 151.326332 
L 134.191581 150.321168 
L 139.17992 151.50392 
L 144.168258 150.787086 
L 149.156596 151.844549 
L 154.144935 152.161071 
L 159.133273 152.704452 
L 164.121611 151.02443 
L 169.10995 151.105622 
L 174.098288 152.487685 
L 179.086626 150.865006 
L 184.074965 151.585277 
L 189.063303 149.762251 
L 194.051641 151.877532 
L 199.03998 150.739324 
L 204.028318 151.560906 
L 209.016656 149.76894 
L 214.004995 151.088244 
L 218.993333 152.071456 
L 223.981671 151.295334 
L 228.97001 151.039911 
L 233.958348 150.059723 
L 238.946686 152.088874 
L 243.935025 150.661215 
L 248.923363 152.562981 
L 253.911701 150.26736 
L 258.90004 149.694522 
L 263.888378 152.124543 
L 268.876716 150.129351 
L 273.865055 150.448209 
L 278.853393 151.62903 
L 283.841731 151.428764 
L 288.83007 151.927932 
L 293.818408 152.668521 
L 298.806746 152.013007 
L 303.795085 152.733685 
L 308.783423 151.811601 
L 313.771761 150.919733 
L 318.7601 152.130437 
L 323.748438 151.822566 
L 328.736776 150.96093 
L 333.725115 153.470093 
L 338.713453 153.296524 
L 343.701791 152.460739 
L 348.690129 153.051687 
L 353.678468 152.161658 
L 358.666806 154.135206 
L 363.655144 152.836281 
L 368.643483 153.345721 
L 373.631821 152.958205 
L 378.620159 153.713242 
L 383.608498 152.645329 
L 388.596836 152.085244 
L 393.585174 153.590589 
L 398.573513 153.239014 
L 403.561851 152.169597 
L 408.550189 153.34168 
L 413.538528 154.056032 
L 418.526866 152.279431 
L 423.515204 152.981016 
L 428.503543 154.259966 
L 433.491881 154.152396 
L 438.480219 152.451903 
L 443.468558 153.455197 
L 448.456896 152.129899 
L 453.445234 153.681592 
L 458.433573 152.497713 
L 463.421911 152.025304 
L 468.410249 154.071005 
L 473.398588 152.093828 
L 478.386926 154.486946 
L 483.375264 152.895369 
L 488.363603 151.747437 
L 493.351941 154.503799 
L 498.340279 153.79757 
L 503.328618 152.73028 
L 508.316956 155.032107 
L 513.305294 153.048528 
L 518.293633 153.834604 
L 523.281971 152.358225 
L 528.270309 153.480384 
L 533.258648 153.342214 
L 538.246986 153.43306 
L 543.235324 152.888304 
L 548.223663 153.153002 
L 553.212001 152.671845 
L 558.200339 152.084721 
" clip-path="url(#p80ace6360b)" style="fill: none; stroke: #8e971e"/>
   </g>
   <g id="line2d_33">
    <path d="M 59.366506 182.335492 
L 64.354845 172.531111 
L 69.343183 176.038751 
L 74.331521 181.787434 
L 79.31986 171.655531 
L 84.308198 164.589454 
L 89.296536 174.99909 
L 94.284875 171.930807 
L 99.273213 173.028357 
L 104.261551 171.138439 
L 109.24989 175.727285 
L 114.238228 169.346944 
L 119.226566 172.110094 
L 124.214905 171.728944 
L 129.203243 171.716171 
L 134.191581 172.153784 
L 139.17992 170.953303 
L 144.168258 171.006276 
L 149.156596 172.604705 
L 154.144935 171.166924 
L 159.133273 172.996231 
L 164.121611 170.795893 
L 169.10995 170.826106 
L 174.098288 171.638134 
L 179.086626 170.993478 
L 184.074965 171.446428 
L 189.063303 171.863494 
L 194.051641 171.546823 
L 199.03998 172.731433 
L 204.028318 172.184204 
L 209.016656 170.864476 
L 214.004995 172.592251 
L 218.993333 171.851536 
L 223.981671 171.073091 
L 228.97001 171.184223 
L 233.958348 171.876508 
L 238.946686 171.409582 
L 243.935025 171.535983 
L 248.923363 172.280815 
L 253.911701 171.057999 
L 258.90004 170.980202 
L 263.888378 172.084759 
L 268.876716 172.217303 
L 273.865055 171.031952 
L 278.853393 172.196194 
L 283.841731 171.210898 
L 288.83007 172.323702 
L 293.818408 172.735835 
L 298.806746 171.619233 
L 303.795085 173.012231 
L 308.783423 172.001725 
L 313.771761 171.085982 
L 318.7601 170.340679 
L 323.748438 171.081081 
L 328.736776 171.040533 
L 333.725115 169.730436 
L 338.713453 172.381685 
L 343.701791 170.539228 
L 348.690129 170.752094 
L 353.678468 170.629314 
L 358.666806 171.748047 
L 363.655144 170.302838 
L 368.643483 171.983387 
L 373.631821 172.058933 
L 378.620159 171.12544 
L 383.608498 170.528964 
L 388.596836 170.645437 
L 393.585174 170.874915 
L 398.573513 171.850971 
L 403.561851 171.264343 
L 408.550189 171.582002 
L 413.538528 171.754551 
L 418.526866 169.307789 
L 423.515204 171.058116 
L 428.503543 172.927684 
L 433.491881 171.219048 
L 438.480219 170.750464 
L 443.468558 171.638892 
L 448.456896 169.644711 
L 453.445234 171.663539 
L 458.433573 172.27382 
L 463.421911 170.561636 
L 468.410249 171.072105 
L 473.398588 168.9482 
L 478.386926 172.731421 
L 483.375264 171.832477 
L 488.363603 169.277368 
L 493.351941 171.827122 
L 498.340279 171.550265 
L 503.328618 171.367007 
L 508.316956 171.341884 
L 513.305294 170.021368 
L 518.293633 171.494185 
L 523.281971 170.811549 
L 528.270309 171.344074 
L 533.258648 171.479365 
L 538.246986 170.501143 
L 543.235324 171.678239 
L 548.223663 170.045114 
L 553.212001 171.279522 
L 558.200339 171.387852 
" clip-path="url(#p80ace6360b)" style="fill: none; stroke: #00a9cc"/>
   </g>
   <g id="line2d_34">
    <path d="M 59.366506 152.518784 
L 64.354845 116.554893 
L 69.343183 134.131895 
L 74.331521 138.169758 
L 79.31986 140.002116 
L 84.308198 138.859723 
L 89.296536 136.173834 
L 94.284875 140.900829 
L 99.273213 139.731774 
L 104.261551 140.967696 
L 109.24989 141.704434 
L 114.238228 137.919166 
L 119.226566 140.644893 
L 124.214905 140.500178 
L 129.203243 141.894573 
L 134.191581 143.374862 
L 139.17992 141.100322 
L 144.168258 141.282054 
L 149.156596 141.673322 
L 154.144935 141.277967 
L 159.133273 142.091536 
L 164.121611 142.240171 
L 169.10995 142.492389 
L 174.098288 140.002404 
L 179.086626 142.634348 
L 184.074965 141.680989 
L 189.063303 142.858666 
L 194.051641 141.198118 
L 199.03998 143.421813 
L 204.028318 142.177439 
L 209.016656 144.003188 
L 214.004995 142.834096 
L 218.993333 141.475102 
L 223.981671 142.000455 
L 228.97001 142.655162 
L 233.958348 143.029853 
L 238.946686 141.476289 
L 243.935025 142.479965 
L 248.923363 141.136084 
L 253.911701 142.38983 
L 258.90004 144.316553 
L 263.888378 142.088298 
L 268.876716 143.460063 
L 273.865055 142.525503 
L 278.853393 141.900998 
L 283.841731 142.077424 
L 288.83007 141.109137 
L 293.818408 141.419041 
L 298.806746 142.22297 
L 303.795085 142.090515 
L 308.783423 142.254691 
L 313.771761 139.414853 
L 318.7601 137.664142 
L 323.748438 137.081811 
L 328.736776 138.33225 
L 333.725115 137.026676 
L 338.713453 137.543632 
L 343.701791 138.434948 
L 348.690129 138.149324 
L 353.678468 138.608625 
L 358.666806 137.524749 
L 363.655144 138.146192 
L 368.643483 138.274987 
L 373.631821 139.623705 
L 378.620159 138.9048 
L 383.608498 139.545338 
L 388.596836 140.252936 
L 393.585174 139.084791 
L 398.573513 138.644718 
L 403.561851 139.905447 
L 408.550189 138.807219 
L 413.538528 138.212199 
L 418.526866 138.423657 
L 423.515204 138.539654 
L 428.503543 138.788173 
L 433.491881 138.797264 
L 438.480219 139.457562 
L 443.468558 138.829053 
L 448.456896 138.561849 
L 453.445234 138.557499 
L 458.433573 139.989545 
L 463.421911 139.351256 
L 468.410249 138.460579 
L 473.398588 140.089502 
L 478.386926 138.417554 
L 483.375264 138.866232 
L 488.363603 139.775166 
L 493.351941 138.183898 
L 498.340279 139.383135 
L 503.328618 139.646609 
L 508.316956 136.78067 
L 513.305294 139.131239 
L 518.293633 138.718144 
L 523.281971 139.641807 
L 528.270309 138.955121 
L 533.258648 139.094173 
L 538.246986 138.610485 
L 543.235324 139.005794 
L 548.223663 137.898841 
L 553.212001 138.558038 
L 558.200339 140.081257 
" clip-path="url(#p80ace6360b)" style="fill: none; stroke: #9b7fe9"/>
   </g>
   <g id="line2d_35">
    <path d="M 59.366506 241.114338 
L 64.354845 221.848957 
L 69.343183 234.452642 
L 74.331521 236.035323 
L 79.31986 235.187515 
L 84.308198 235.160921 
L 89.296536 235.404908 
L 94.284875 234.52645 
L 99.273213 234.708157 
L 104.261551 235.116798 
L 109.24989 235.256804 
L 114.238228 234.749908 
L 119.226566 235.553602 
L 124.214905 234.898123 
L 129.203243 235.097166 
L 134.191581 235.064698 
L 139.17992 235.130649 
L 144.168258 236.126834 
L 149.156596 234.983303 
L 154.144935 235.071261 
L 159.133273 234.998063 
L 164.121611 235.491497 
L 169.10995 235.612415 
L 174.098288 234.694328 
L 179.086626 235.130835 
L 184.074965 235.573352 
L 189.063303 235.685355 
L 194.051641 234.669231 
L 199.03998 234.190486 
L 204.028318 234.268772 
L 209.016656 234.690234 
L 214.004995 235.15688 
L 218.993333 234.979139 
L 223.981671 235.285097 
L 228.97001 235.230272 
L 233.958348 234.894993 
L 238.946686 235.038495 
L 243.935025 235.740106 
L 248.923363 235.32363 
L 253.911701 235.798465 
L 258.90004 235.070327 
L 263.888378 234.052273 
L 268.876716 234.664295 
L 273.865055 235.076222 
L 278.853393 234.770178 
L 283.841731 235.076096 
L 288.83007 235.6618 
L 293.818408 235.384178 
L 298.806746 234.896148 
L 303.795085 234.711371 
L 308.783423 234.723086 
L 313.771761 234.380458 
L 318.7601 234.219162 
L 323.748438 233.89428 
L 328.736776 234.406431 
L 333.725115 233.820733 
L 338.713453 233.733566 
L 343.701791 234.249183 
L 348.690129 234.094743 
L 353.678468 234.030274 
L 358.666806 233.779574 
L 363.655144 233.983806 
L 368.643483 233.976832 
L 373.631821 233.891499 
L 378.620159 233.313 
L 383.608498 233.668604 
L 388.596836 234.567032 
L 393.585174 233.879551 
L 398.573513 233.696453 
L 403.561851 233.895305 
L 408.550189 233.748543 
L 413.538528 233.161178 
L 418.526866 234.170536 
L 423.515204 234.012432 
L 428.503543 233.465983 
L 433.491881 233.893739 
L 438.480219 233.88523 
L 443.468558 233.304876 
L 448.456896 233.918948 
L 453.445234 233.921383 
L 458.433573 233.755973 
L 463.421911 234.064106 
L 468.410249 233.73926 
L 473.398588 234.268053 
L 478.386926 233.722016 
L 483.375264 233.644561 
L 488.363603 234.277973 
L 493.351941 233.437979 
L 498.340279 233.696942 
L 503.328618 234.163717 
L 508.316956 233.590872 
L 513.305294 234.256925 
L 518.293633 233.872965 
L 523.281971 234.08376 
L 528.270309 233.87607 
L 533.258648 233.717616 
L 538.246986 233.767717 
L 543.235324 234.060876 
L 548.223663 234.040598 
L 553.212001 234.209007 
L 558.200339 234.062615 
" clip-path="url(#p80ace6360b)" style="fill: none; stroke: #618df6"/>
   </g>
   <g id="line2d_36">
    <path d="M 59.366506 114.974794 
L 64.354845 9.838534 
L 69.343183 54.736431 
L 74.331521 64.737256 
L 79.31986 66.870312 
L 84.308198 68.703078 
L 89.296536 69.670522 
L 94.284875 64.348113 
L 99.273213 64.457068 
L 104.261551 67.986566 
L 109.24989 68.026949 
L 114.238228 65.161709 
L 119.226566 69.82644 
L 124.214905 67.714674 
L 129.203243 67.829151 
L 134.191581 67.670393 
L 139.17992 68.208981 
L 144.168258 72.918286 
L 149.156596 66.854852 
L 154.144935 68.183932 
L 159.133273 67.946234 
L 164.121611 69.382809 
L 169.10995 69.956845 
L 174.098288 66.600339 
L 179.086626 67.576238 
L 184.074965 69.722112 
L 189.063303 71.629099 
L 194.051641 65.812336 
L 199.03998 63.165068 
L 204.028318 63.999081 
L 209.016656 64.691534 
L 214.004995 67.32045 
L 218.993333 67.487606 
L 223.981671 69.379235 
L 228.97001 68.324748 
L 233.958348 66.137452 
L 238.946686 66.768793 
L 243.935025 71.603695 
L 248.923363 69.233041 
L 253.911701 71.046906 
L 258.90004 68.448326 
L 263.888378 62.620292 
L 268.876716 65.195458 
L 273.865055 67.141587 
L 278.853393 66.330874 
L 283.841731 67.893673 
L 288.83007 71.197328 
L 293.818408 69.468452 
L 298.806746 66.450149 
L 303.795085 66.561573 
L 308.783423 66.433613 
L 313.771761 61.397652 
L 318.7601 61.437991 
L 323.748438 59.159579 
L 328.736776 61.951561 
L 333.725115 59.032548 
L 338.713453 58.059399 
L 343.701791 61.11864 
L 348.690129 60.398954 
L 353.678468 60.17634 
L 358.666806 58.816751 
L 363.655144 59.998771 
L 368.643483 59.62936 
L 373.631821 59.348376 
L 378.620159 56.646524 
L 383.608498 57.849273 
L 388.596836 62.768605 
L 393.585174 59.21159 
L 398.573513 57.968165 
L 403.561851 58.68664 
L 408.550189 58.805789 
L 413.538528 55.536551 
L 418.526866 61.199121 
L 423.515204 60.166813 
L 428.503543 56.818095 
L 433.491881 59.721376 
L 438.480219 59.591792 
L 443.468558 56.247566 
L 448.456896 59.64399 
L 453.445234 59.586158 
L 458.433573 58.38479 
L 463.421911 60.101569 
L 468.410249 58.501051 
L 473.398588 61.388211 
L 478.386926 58.333831 
L 483.375264 57.679638 
L 488.363603 61.207457 
L 493.351941 56.896519 
L 498.340279 58.967861 
L 503.328618 60.990318 
L 508.316956 57.326344 
L 513.305294 61.48674 
L 518.293633 59.41883 
L 523.281971 60.680798 
L 528.270309 59.866379 
L 533.258648 58.174212 
L 538.246986 58.46644 
L 543.235324 60.181949 
L 548.223663 60.147735 
L 553.212001 61.085036 
L 558.200339 60.320142 
" clip-path="url(#p80ace6360b)" style="fill: none; stroke: #f06073"/>
   </g>
   <g id="line2d_37">
    <path d="M 59.366506 175.553004 
L 64.354845 148.304273 
L 69.343183 153.279542 
L 74.331521 157.45527 
L 79.31986 162.706514 
L 84.308198 162.725417 
L 89.296536 158.762269 
L 94.284875 158.033779 
L 99.273213 161.097871 
L 104.261551 164.43374 
L 109.24989 158.101801 
L 114.238228 156.609043 
L 119.226566 158.900135 
L 124.214905 158.297251 
L 129.203243 157.468685 
L 134.191581 158.544123 
L 139.17992 157.677062 
L 144.168258 159.557315 
L 149.156596 158.601021 
L 154.144935 156.9483 
L 159.133273 156.101335 
L 164.121611 158.465362 
L 169.10995 159.246609 
L 174.098288 157.554904 
L 179.086626 158.123476 
L 184.074965 157.948774 
L 189.063303 160.486635 
L 194.051641 158.476789 
L 199.03998 158.12783 
L 204.028318 158.712977 
L 209.016656 159.620117 
L 214.004995 158.734711 
L 218.993333 157.730352 
L 223.981671 157.883227 
L 228.97001 159.327501 
L 233.958348 159.480011 
L 238.946686 157.689095 
L 243.935025 158.000279 
L 248.923363 157.785543 
L 253.911701 159.050025 
L 258.90004 159.188129 
L 263.888378 158.643692 
L 268.876716 159.412968 
L 273.865055 159.322459 
L 278.853393 158.325117 
L 283.841731 157.929348 
L 288.83007 158.320625 
L 293.818408 156.096548 
L 298.806746 156.837262 
L 303.795085 156.211367 
L 308.783423 157.541545 
L 313.771761 163.969646 
L 318.7601 165.215352 
L 323.748438 166.944464 
L 328.736776 168.206248 
L 333.725115 166.833536 
L 338.713453 167.735547 
L 343.701791 167.939937 
L 348.690129 167.449308 
L 353.678468 168.285388 
L 358.666806 168.020194 
L 363.655144 168.495929 
L 368.643483 168.788666 
L 373.631821 167.910764 
L 378.620159 166.895733 
L 383.608498 167.87907 
L 388.596836 167.38278 
L 393.585174 167.539933 
L 398.573513 168.717228 
L 403.561851 168.186168 
L 408.550189 168.912111 
L 413.538528 168.409968 
L 418.526866 169.412728 
L 423.515204 168.676552 
L 428.503543 168.250847 
L 433.491881 167.424596 
L 438.480219 167.71475 
L 443.468558 168.654585 
L 448.456896 169.604255 
L 453.445234 167.81601 
L 458.433573 168.090368 
L 463.421911 168.945898 
L 468.410249 167.338575 
L 473.398588 167.461425 
L 478.386926 166.872333 
L 483.375264 169.499496 
L 488.363603 168.509415 
L 493.351941 167.610119 
L 498.340279 166.609783 
L 503.328618 167.587478 
L 508.316956 168.033569 
L 513.305294 168.475333 
L 518.293633 167.47567 
L 523.281971 168.482159 
L 528.270309 167.158105 
L 533.258648 168.515752 
L 538.246986 168.518223 
L 543.235324 168.605296 
L 548.223663 168.256611 
L 553.212001 169.249096 
L 558.200339 168.541568 
" clip-path="url(#p80ace6360b)" style="fill: none; stroke: #dd65b6"/>
   </g>
   <g id="line2d_38">
    <path d="M 59.366506 110.445297 
L 64.354845 153.013487 
L 69.343183 149.923534 
L 74.331521 151.654115 
L 79.31986 154.762408 
L 84.308198 156.015241 
L 89.296536 157.460677 
L 94.284875 156.462181 
L 99.273213 155.264802 
L 104.261551 148.51551 
L 109.24989 151.976515 
L 114.238228 162.129555 
L 119.226566 161.869394 
L 124.214905 163.826374 
L 129.203243 163.367156 
L 134.191581 163.674925 
L 139.17992 164.318336 
L 144.168258 164.737537 
L 149.156596 163.454698 
L 154.144935 164.212784 
L 159.133273 162.89319 
L 164.121611 164.572745 
L 169.10995 164.74598 
L 174.098288 163.352634 
L 179.086626 164.75016 
L 184.074965 164.790952 
L 189.063303 163.636823 
L 194.051641 163.859268 
L 199.03998 163.581497 
L 204.028318 163.153873 
L 209.016656 164.539696 
L 214.004995 163.349902 
L 218.993333 164.262992 
L 223.981671 163.739281 
L 228.97001 164.302614 
L 233.958348 164.066522 
L 238.946686 164.380491 
L 243.935025 164.164973 
L 248.923363 163.865688 
L 253.911701 163.9003 
L 258.90004 163.703212 
L 263.888378 164.425521 
L 268.876716 163.004099 
L 273.865055 164.61756 
L 278.853393 162.755735 
L 283.841731 164.003357 
L 288.83007 164.41217 
L 293.818408 163.06961 
L 298.806746 163.034617 
L 303.795085 163.059765 
L 308.783423 163.687392 
L 313.771761 163.137463 
L 318.7601 162.896236 
L 323.748438 163.951887 
L 328.736776 163.34299 
L 333.725115 163.52954 
L 338.713453 163.533425 
L 343.701791 164.149646 
L 348.690129 163.820089 
L 353.678468 163.9141 
L 358.666806 163.157648 
L 363.655144 163.527563 
L 368.643483 164.054401 
L 373.631821 162.86873 
L 378.620159 163.333074 
L 383.608498 163.966798 
L 388.596836 164.09756 
L 393.585174 163.95934 
L 398.573513 162.876237 
L 403.561851 163.754644 
L 408.550189 162.82497 
L 413.538528 162.680372 
L 418.526866 164.23277 
L 423.515204 164.263576 
L 428.503543 162.739436 
L 433.491881 162.412434 
L 438.480219 163.614071 
L 443.468558 163.835079 
L 448.456896 163.774007 
L 453.445234 163.369944 
L 458.433573 163.74826 
L 463.421911 163.845842 
L 468.410249 163.273851 
L 473.398588 165.293546 
L 478.386926 163.53839 
L 483.375264 163.588555 
L 488.363603 164.332674 
L 493.351941 163.040626 
L 498.340279 163.581798 
L 503.328618 163.604569 
L 508.316956 163.795298 
L 513.305294 163.962907 
L 518.293633 163.138552 
L 523.281971 164.451432 
L 528.270309 163.31862 
L 533.258648 163.305155 
L 538.246986 163.582997 
L 543.235324 162.629318 
L 548.223663 164.505968 
L 553.212001 164.259326 
L 558.200339 164.017233 
" clip-path="url(#p80ace6360b)" style="fill: none; stroke: #6c9f33"/>
   </g>
   <g id="line2d_39">
    <path d="M 59.366506 214.754557 
L 64.354845 193.612379 
L 69.343183 188.859595 
L 74.331521 188.890233 
L 79.31986 194.472763 
L 84.308198 192.052249 
L 89.296536 189.268964 
L 94.284875 191.390876 
L 99.273213 193.16352 
L 104.261551 196.190543 
L 109.24989 191.720367 
L 114.238228 189.22542 
L 119.226566 190.462257 
L 124.214905 190.171551 
L 129.203243 189.899666 
L 134.191581 190.432895 
L 139.17992 189.70998 
L 144.168258 189.183267 
L 149.156596 190.574735 
L 154.144935 190.177666 
L 159.133273 190.149483 
L 164.121611 189.502173 
L 169.10995 189.601776 
L 174.098288 190.503715 
L 179.086626 189.534427 
L 184.074965 190.077366 
L 189.063303 189.53503 
L 194.051641 190.419634 
L 199.03998 190.395796 
L 204.028318 190.246135 
L 209.016656 189.943902 
L 214.004995 190.003375 
L 218.993333 190.091749 
L 223.981671 189.578642 
L 228.97001 189.803425 
L 233.958348 189.881115 
L 238.946686 190.653695 
L 243.935025 189.002021 
L 248.923363 190.105668 
L 253.911701 189.247479 
L 258.90004 189.200282 
L 263.888378 191.085893 
L 268.876716 189.840064 
L 273.865055 190.328252 
L 278.853393 190.250907 
L 283.841731 189.485533 
L 288.83007 189.877496 
L 293.818408 189.653496 
L 298.806746 190.258549 
L 303.795085 190.863235 
L 308.783423 189.677026 
L 313.771761 190.655367 
L 318.7601 189.366703 
L 323.748438 189.769528 
L 328.736776 189.625366 
L 333.725115 189.644222 
L 338.713453 190.275621 
L 343.701791 189.489301 
L 348.690129 189.356633 
L 353.678468 189.560168 
L 358.666806 189.934471 
L 363.655144 189.121026 
L 368.643483 190.430574 
L 373.631821 189.571988 
L 378.620159 189.252404 
L 383.608498 189.935676 
L 388.596836 188.62128 
L 393.585174 190.381179 
L 398.573513 190.434976 
L 403.561851 190.156156 
L 408.550189 190.172091 
L 413.538528 189.948714 
L 418.526866 188.662367 
L 423.515204 190.839824 
L 428.503543 190.588601 
L 433.491881 189.381977 
L 438.480219 189.579478 
L 443.468558 190.36494 
L 448.456896 189.444673 
L 453.445234 190.403708 
L 458.433573 189.619484 
L 463.421911 188.621922 
L 468.410249 189.621772 
L 473.398588 190.194122 
L 478.386926 190.192646 
L 483.375264 189.392711 
L 488.363603 189.141608 
L 493.351941 190.52309 
L 498.340279 189.355404 
L 503.328618 188.932721 
L 508.316956 190.230362 
L 513.305294 189.078903 
L 518.293633 189.540255 
L 523.281971 190.076105 
L 528.270309 189.485176 
L 533.258648 190.892236 
L 538.246986 189.655437 
L 543.235324 189.579724 
L 548.223663 188.940057 
L 553.212001 189.733926 
L 558.200339 190.20998 
" clip-path="url(#p80ace6360b)" style="fill: none; stroke: #009afa"/>
   </g>
   <g id="line2d_40">
    <path d="M 59.366506 154.720138 
L 64.354845 182.311343 
L 69.343183 184.666278 
L 74.331521 194.293285 
L 79.31986 179.808756 
L 84.308198 189.667493 
L 89.296536 190.708222 
L 94.284875 188.607278 
L 99.273213 188.275173 
L 104.261551 183.14326 
L 109.24989 188.623232 
L 114.238228 194.573748 
L 119.226566 194.26333 
L 124.214905 193.690735 
L 129.203243 193.969702 
L 134.191581 193.392414 
L 139.17992 194.210178 
L 144.168258 193.482726 
L 149.156596 194.001881 
L 154.144935 194.524408 
L 159.133273 194.915225 
L 164.121611 193.838726 
L 169.10995 193.244399 
L 174.098288 195.497458 
L 179.086626 194.227839 
L 184.074965 193.173695 
L 189.063303 194.629615 
L 194.051641 193.774462 
L 199.03998 194.455554 
L 204.028318 194.324943 
L 209.016656 194.329154 
L 214.004995 193.307618 
L 218.993333 193.469883 
L 223.981671 194.160304 
L 228.97001 193.30008 
L 233.958348 194.587937 
L 238.946686 193.78154 
L 243.935025 194.201684 
L 248.923363 193.487911 
L 253.911701 193.56749 
L 258.90004 194.332796 
L 263.888378 193.268349 
L 268.876716 194.98385 
L 273.865055 192.94864 
L 278.853393 194.088901 
L 283.841731 193.449995 
L 288.83007 193.534069 
L 293.818408 194.013743 
L 298.806746 194.449457 
L 303.795085 194.23193 
L 308.783423 194.997687 
L 313.771761 193.842075 
L 318.7601 193.711567 
L 323.748438 192.944814 
L 328.736776 194.302053 
L 333.725115 193.649426 
L 338.713453 193.43658 
L 343.701791 194.884793 
L 348.690129 194.063401 
L 353.678468 192.988072 
L 358.666806 193.685911 
L 363.655144 193.146462 
L 368.643483 193.983081 
L 373.631821 194.299444 
L 378.620159 194.728374 
L 383.608498 193.82049 
L 388.596836 194.685272 
L 393.585174 192.996141 
L 398.573513 193.392062 
L 403.561851 193.186208 
L 408.550189 193.782381 
L 413.538528 194.283319 
L 418.526866 193.368134 
L 423.515204 193.626687 
L 428.503543 193.695553 
L 433.491881 194.505288 
L 438.480219 194.159041 
L 443.468558 192.991078 
L 448.456896 194.039892 
L 453.445234 193.581565 
L 458.433573 193.566485 
L 463.421911 193.68249 
L 468.410249 194.571508 
L 473.398588 193.340444 
L 478.386926 193.424375 
L 483.375264 193.794296 
L 488.363603 193.759453 
L 493.351941 194.055623 
L 498.340279 194.518231 
L 503.328618 195.18901 
L 508.316956 193.810211 
L 513.305294 194.370603 
L 518.293633 194.300992 
L 523.281971 193.841315 
L 528.270309 193.963354 
L 533.258648 193.39152 
L 538.246986 193.558845 
L 543.235324 193.966293 
L 548.223663 193.439938 
L 553.212001 193.299774 
L 558.200339 193.124537 
" clip-path="url(#p80ace6360b)" style="fill: none; stroke: #e36f47"/>
   </g>
   <g id="line2d_41">
    <path d="M 59.366506 226.411677 
L 64.354845 187.615017 
L 69.343183 190.164464 
L 74.331521 187.562072 
L 79.31986 186.398746 
L 84.308198 185.091392 
L 89.296536 183.838689 
L 94.284875 184.773245 
L 99.273213 185.643683 
L 104.261551 185.583622 
L 109.24989 185.102728 
L 114.238228 184.700517 
L 119.226566 185.205596 
L 124.214905 185.412627 
L 129.203243 186.236756 
L 134.191581 186.967702 
L 139.17992 187.048577 
L 144.168258 187.531399 
L 149.156596 186.821087 
L 154.144935 186.504648 
L 159.133273 186.228371 
L 164.121611 186.470007 
L 169.10995 187.101781 
L 174.098288 186.33732 
L 179.086626 186.567931 
L 184.074965 187.027986 
L 189.063303 187.991401 
L 194.051641 186.814487 
L 199.03998 186.885301 
L 204.028318 186.81047 
L 209.016656 187.307672 
L 214.004995 187.244134 
L 218.993333 186.89611 
L 223.981671 186.799354 
L 228.97001 186.885865 
L 233.958348 187.636533 
L 238.946686 186.984652 
L 243.935025 187.091197 
L 248.923363 186.813035 
L 253.911701 186.963944 
L 258.90004 188.037175 
L 263.888378 186.891843 
L 268.876716 187.003729 
L 273.865055 187.33272 
L 278.853393 187.322377 
L 283.841731 186.61201 
L 288.83007 186.538957 
L 293.818408 186.114366 
L 298.806746 185.529572 
L 303.795085 185.811682 
L 308.783423 186.305187 
L 313.771761 187.99534 
L 318.7601 186.889837 
L 323.748438 186.291335 
L 328.736776 187.494406 
L 333.725115 186.6313 
L 338.713453 186.171941 
L 343.701791 186.069423 
L 348.690129 186.575605 
L 353.678468 186.774607 
L 358.666806 186.140656 
L 363.655144 186.877197 
L 368.643483 186.770314 
L 373.631821 186.018618 
L 378.620159 185.849257 
L 383.608498 186.365253 
L 388.596836 187.726762 
L 393.585174 186.929431 
L 398.573513 187.05777 
L 403.561851 186.923568 
L 408.550189 186.985374 
L 413.538528 186.228724 
L 418.526866 186.151814 
L 423.515204 187.489911 
L 428.503543 186.34971 
L 433.491881 185.30471 
L 438.480219 187.003806 
L 443.468558 187.035069 
L 448.456896 186.669588 
L 453.445234 186.921726 
L 458.433573 187.116298 
L 463.421911 187.431257 
L 468.410249 186.518619 
L 473.398588 187.601847 
L 478.386926 186.451833 
L 483.375264 187.125448 
L 488.363603 186.937768 
L 493.351941 186.600874 
L 498.340279 185.668958 
L 503.328618 186.816433 
L 508.316956 187.168588 
L 513.305294 186.169476 
L 518.293633 186.008053 
L 523.281971 187.308644 
L 528.270309 186.810827 
L 533.258648 186.01637 
L 538.246986 185.729675 
L 543.235324 186.19491 
L 548.223663 187.044245 
L 553.212001 187.332687 
L 558.200339 187.780571 
" clip-path="url(#p80ace6360b)" style="fill: none; stroke: #3ea44e"/>
   </g>
   <g id="line2d_42">
    <path d="M 59.366506 118.237902 
L 64.354845 163.659291 
L 69.343183 198.432382 
L 74.331521 195.151543 
L 79.31986 196.360991 
L 84.308198 196.16106 
L 89.296536 199.130407 
L 94.284875 196.110605 
L 99.273213 195.756965 
L 104.261551 195.147811 
L 109.24989 195.548979 
L 114.238228 197.824286 
L 119.226566 196.104263 
L 124.214905 194.583377 
L 129.203243 194.637789 
L 134.191581 194.370091 
L 139.17992 193.74855 
L 144.168258 194.870859 
L 149.156596 193.63269 
L 154.144935 193.471377 
L 159.133273 193.526608 
L 164.121611 194.362374 
L 169.10995 194.06563 
L 174.098288 193.711451 
L 179.086626 194.899486 
L 184.074965 193.409634 
L 189.063303 195.181628 
L 194.051641 193.903858 
L 199.03998 193.827495 
L 204.028318 194.196329 
L 209.016656 194.629083 
L 214.004995 194.353766 
L 218.993333 193.551665 
L 223.981671 194.207731 
L 228.97001 194.449805 
L 233.958348 194.745932 
L 238.946686 193.097957 
L 243.935025 194.45444 
L 248.923363 193.203453 
L 253.911701 194.567791 
L 258.90004 195.860458 
L 263.888378 193.756626 
L 268.876716 194.862333 
L 273.865055 193.896219 
L 278.853393 194.108718 
L 283.841731 193.84325 
L 288.83007 193.210651 
L 293.818408 193.509052 
L 298.806746 194.4855 
L 303.795085 193.598374 
L 308.783423 193.720805 
L 313.771761 192.783063 
L 318.7601 195.416111 
L 323.748438 194.212217 
L 328.736776 194.994217 
L 333.725115 195.541186 
L 338.713453 193.597202 
L 343.701791 194.483094 
L 348.690129 194.318101 
L 353.678468 194.356634 
L 358.666806 194.790483 
L 363.655144 194.487327 
L 368.643483 192.84142 
L 373.631821 194.108436 
L 378.620159 194.231085 
L 383.608498 193.298202 
L 388.596836 195.601119 
L 393.585174 194.177484 
L 398.573513 194.073682 
L 403.561851 194.285913 
L 408.550189 194.228721 
L 413.538528 193.615983 
L 418.526866 195.072838 
L 423.515204 194.027553 
L 428.503543 193.145411 
L 433.491881 193.939918 
L 438.480219 193.975643 
L 443.468558 194.06047 
L 448.456896 194.876294 
L 453.445234 194.151399 
L 458.433573 194.113587 
L 463.421911 194.461435 
L 468.410249 195.584279 
L 473.398588 194.777561 
L 478.386926 194.287517 
L 483.375264 193.606466 
L 488.363603 195.409242 
L 493.351941 194.422478 
L 498.340279 194.31519 
L 503.328618 195.221018 
L 508.316956 193.031455 
L 513.305294 194.499814 
L 518.293633 194.037744 
L 523.281971 193.314759 
L 528.270309 195.515665 
L 533.258648 193.985737 
L 538.246986 194.427892 
L 543.235324 194.702085 
L 548.223663 194.798759 
L 553.212001 194.224892 
L 558.200339 194.500647 
" clip-path="url(#p80ace6360b)" style="fill: none; stroke: #c371d2"/>
   </g>
   <g id="line2d_43">
    <path d="M 59.366506 139.474997 
L 64.354845 191.769065 
L 69.343183 186.628809 
L 74.331521 177.850505 
L 79.31986 172.048806 
L 84.308198 170.112923 
L 89.296536 172.483906 
L 94.284875 170.402662 
L 99.273213 169.119071 
L 104.261551 167.299613 
L 109.24989 166.15926 
L 114.238228 171.433982 
L 119.226566 170.725513 
L 124.214905 171.686851 
L 129.203243 170.708822 
L 134.191581 170.065474 
L 139.17992 170.079213 
L 144.168258 169.654695 
L 149.156596 169.286475 
L 154.144935 169.995954 
L 159.133273 168.404984 
L 164.121611 170.403452 
L 169.10995 170.521671 
L 174.098288 169.81564 
L 179.086626 169.772985 
L 184.074965 170.085447 
L 189.063303 169.137195 
L 194.051641 169.639261 
L 199.03998 169.49382 
L 204.028318 169.42466 
L 209.016656 169.577594 
L 214.004995 168.859244 
L 218.993333 169.69785 
L 223.981671 169.85191 
L 228.97001 170.026742 
L 233.958348 169.040579 
L 238.946686 169.972143 
L 243.935025 169.645795 
L 248.923363 169.245153 
L 253.911701 169.781148 
L 258.90004 168.828296 
L 263.888378 169.59181 
L 268.876716 169.876653 
L 273.865055 170.012493 
L 278.853393 169.428561 
L 283.841731 170.094407 
L 288.83007 169.82464 
L 293.818408 169.045255 
L 298.806746 169.052408 
L 303.795085 168.58375 
L 308.783423 169.207216 
L 313.771761 170.82753 
L 318.7601 169.981125 
L 323.748438 171.086124 
L 328.736776 169.06489 
L 333.725115 169.06852 
L 338.713453 170.252148 
L 343.701791 169.870597 
L 348.690129 169.796699 
L 353.678468 170.063401 
L 358.666806 169.763568 
L 363.655144 169.536646 
L 368.643483 169.945353 
L 373.631821 168.779693 
L 378.620159 169.285487 
L 383.608498 170.841325 
L 388.596836 168.984796 
L 393.585174 169.270921 
L 398.573513 169.798438 
L 403.561851 169.897544 
L 408.550189 169.413748 
L 413.538528 169.490807 
L 418.526866 170.554211 
L 423.515204 169.718237 
L 428.503543 169.953326 
L 433.491881 169.512752 
L 438.480219 169.125222 
L 443.468558 170.196029 
L 448.456896 170.733268 
L 453.445234 169.728414 
L 458.433573 169.121038 
L 463.421911 169.166495 
L 468.410249 169.204322 
L 473.398588 169.758561 
L 478.386926 170.378059 
L 483.375264 170.105786 
L 488.363603 169.542715 
L 493.351941 169.789146 
L 498.340279 169.512011 
L 503.328618 168.720668 
L 508.316956 170.831617 
L 513.305294 170.224904 
L 518.293633 169.237488 
L 523.281971 169.40337 
L 528.270309 169.313537 
L 533.258648 170.203574 
L 538.246986 170.817861 
L 543.235324 169.471962 
L 548.223663 170.227929 
L 553.212001 169.525994 
L 558.200339 169.16803 
" clip-path="url(#p80ace6360b)" style="fill: none; stroke: #ac8e18"/>
   </g>
   <g id="line2d_44">
    <path d="M 59.366506 243.301466 
L 64.354845 220.433252 
L 69.343183 216.673091 
L 74.331521 220.236878 
L 79.31986 221.457234 
L 84.308198 223.466657 
L 89.296536 220.34916 
L 94.284875 218.763079 
L 99.273213 217.703091 
L 104.261551 219.979602 
L 109.24989 222.345421 
L 114.238228 217.33179 
L 119.226566 214.577165 
L 124.214905 211.791582 
L 129.203243 210.052512 
L 134.191581 208.984032 
L 139.17992 208.85919 
L 144.168258 208.699516 
L 149.156596 208.589113 
L 154.144935 208.742256 
L 159.133273 208.588238 
L 164.121611 208.22098 
L 169.10995 208.204909 
L 174.098288 208.943225 
L 179.086626 208.701555 
L 184.074965 208.465004 
L 189.063303 208.569329 
L 194.051641 208.663454 
L 199.03998 208.172138 
L 204.028318 208.366683 
L 209.016656 208.173564 
L 214.004995 208.346048 
L 218.993333 208.425856 
L 223.981671 208.448926 
L 228.97001 208.469409 
L 233.958348 208.498434 
L 238.946686 208.467781 
L 243.935025 208.290555 
L 248.923363 208.63266 
L 253.911701 208.64213 
L 258.90004 208.688085 
L 263.888378 208.941268 
L 268.876716 208.457059 
L 273.865055 208.278383 
L 278.853393 208.46426 
L 283.841731 208.468685 
L 288.83007 208.489347 
L 293.818408 208.31712 
L 298.806746 208.384224 
L 303.795085 208.360052 
L 308.783423 208.623071 
L 313.771761 209.968872 
L 318.7601 210.858842 
L 323.748438 209.974663 
L 328.736776 210.286887 
L 333.725115 209.964885 
L 338.713453 209.554011 
L 343.701791 209.550206 
L 348.690129 209.602043 
L 353.678468 209.795139 
L 358.666806 209.822863 
L 363.655144 210.170527 
L 368.643483 209.925644 
L 373.631821 209.942544 
L 378.620159 209.876389 
L 383.608498 209.47904 
L 388.596836 210.214948 
L 393.585174 209.724492 
L 398.573513 209.809878 
L 403.561851 209.639809 
L 408.550189 210.086231 
L 413.538528 210.2956 
L 418.526866 210.407775 
L 423.515204 210.033732 
L 428.503543 209.766746 
L 433.491881 209.874744 
L 438.480219 210.147422 
L 443.468558 209.892163 
L 448.456896 209.972876 
L 453.445234 209.795006 
L 458.433573 209.76328 
L 463.421911 209.758798 
L 468.410249 210.060813 
L 473.398588 209.278733 
L 478.386926 209.019548 
L 483.375264 209.811201 
L 488.363603 210.011426 
L 493.351941 209.952965 
L 498.340279 209.475766 
L 503.328618 209.859386 
L 508.316956 209.555276 
L 513.305294 210.035562 
L 518.293633 210.004353 
L 523.281971 209.915077 
L 528.270309 210.15467 
L 533.258648 209.959568 
L 538.246986 209.730997 
L 543.235324 209.741618 
L 548.223663 209.41998 
L 553.212001 209.548543 
L 558.200339 209.413452 
" clip-path="url(#p80ace6360b)" style="fill: none; stroke: #00aaae"/>
   </g>
   <g id="line2d_45">
    <path d="M 59.366506 239.758218 
L 64.354845 242.995696 
L 69.343183 234.12232 
L 74.331521 237.818195 
L 79.31986 237.676689 
L 84.308198 237.804805 
L 89.296536 235.242701 
L 94.284875 236.917466 
L 99.273213 237.125515 
L 104.261551 237.208677 
L 109.24989 237.966135 
L 114.238228 237.377951 
L 119.226566 237.064687 
L 124.214905 236.696659 
L 129.203243 236.622075 
L 134.191581 236.811827 
L 139.17992 236.586057 
L 144.168258 237.243664 
L 149.156596 236.336017 
L 154.144935 236.619293 
L 159.133273 236.094432 
L 164.121611 237.046886 
L 169.10995 237.000233 
L 174.098288 236.191496 
L 179.086626 236.980867 
L 184.074965 236.967404 
L 189.063303 236.973379 
L 194.051641 236.564717 
L 199.03998 236.316179 
L 204.028318 236.336968 
L 209.016656 236.93728 
L 214.004995 236.740517 
L 218.993333 236.608916 
L 223.981671 236.646827 
L 228.97001 236.872571 
L 233.958348 236.723796 
L 238.946686 236.874682 
L 243.935025 236.677139 
L 248.923363 236.62313 
L 253.911701 236.893615 
L 258.90004 237.023539 
L 263.888378 236.404334 
L 268.876716 236.665612 
L 273.865055 236.942405 
L 278.853393 236.315614 
L 283.841731 236.672562 
L 288.83007 236.776828 
L 293.818408 236.435673 
L 298.806746 236.325008 
L 303.795085 236.290801 
L 308.783423 236.37729 
L 313.771761 236.596573 
L 318.7601 236.795434 
L 323.748438 237.211259 
L 328.736776 237.062176 
L 333.725115 236.782258 
L 338.713453 236.568421 
L 343.701791 236.898355 
L 348.690129 236.748655 
L 353.678468 237.000825 
L 358.666806 236.427105 
L 363.655144 236.910419 
L 368.643483 236.811583 
L 373.631821 236.418736 
L 378.620159 236.82463 
L 383.608498 236.837584 
L 388.596836 236.999926 
L 393.585174 236.845854 
L 398.573513 236.533322 
L 403.561851 237.032404 
L 408.550189 236.530708 
L 413.538528 236.235521 
L 418.526866 237.265476 
L 423.515204 236.792975 
L 428.503543 236.361506 
L 433.491881 236.626539 
L 438.480219 236.709838 
L 443.468558 236.741817 
L 448.456896 237.106782 
L 453.445234 236.506606 
L 458.433573 236.511111 
L 463.421911 236.9919 
L 468.410249 236.647434 
L 473.398588 237.252027 
L 478.386926 236.377658 
L 483.375264 236.617428 
L 488.363603 237.210901 
L 493.351941 236.368648 
L 498.340279 236.330835 
L 503.328618 236.982008 
L 508.316956 236.697722 
L 513.305294 236.915824 
L 518.293633 236.555176 
L 523.281971 236.870915 
L 528.270309 236.61355 
L 533.258648 236.900393 
L 538.246986 236.834997 
L 543.235324 236.542702 
L 548.223663 236.996772 
L 553.212001 236.700406 
L 558.200339 236.91994 
" clip-path="url(#p80ace6360b)" style="fill: none; stroke: #ed5e93"/>
   </g>
   <g id="line2d_46">
    <path d="M 59.366506 51.320027 
L 64.354845 71.522767 
L 69.343183 77.817841 
L 74.331521 53.607362 
L 79.31986 69.356825 
L 84.308198 67.573763 
L 89.296536 94.966625 
L 94.284875 95.489788 
L 99.273213 90.156745 
L 104.261551 69.675394 
L 109.24989 65.838766 
L 114.238228 93.287395 
L 119.226566 106.077567 
L 124.214905 115.159865 
L 129.203243 117.119273 
L 134.191581 117.633774 
L 139.17992 117.021408 
L 144.168258 116.038211 
L 149.156596 116.959202 
L 154.144935 116.249313 
L 159.133273 115.640784 
L 164.121611 115.216646 
L 169.10995 117.223761 
L 174.098288 115.222985 
L 179.086626 113.988569 
L 184.074965 118.260227 
L 189.063303 116.215871 
L 194.051641 116.601688 
L 199.03998 116.992189 
L 204.028318 115.245423 
L 209.016656 115.367949 
L 214.004995 116.305966 
L 218.993333 117.149294 
L 223.981671 115.726846 
L 228.97001 115.397999 
L 233.958348 115.415826 
L 238.946686 118.419206 
L 243.935025 116.307788 
L 248.923363 116.337558 
L 253.911701 115.113326 
L 258.90004 114.05056 
L 263.888378 117.421338 
L 268.876716 115.384586 
L 273.865055 117.777793 
L 278.853393 116.803434 
L 283.841731 116.112614 
L 288.83007 117.76254 
L 293.818408 116.233604 
L 298.806746 113.195724 
L 303.795085 115.421438 
L 308.783423 114.110634 
L 313.771761 117.906633 
L 318.7601 115.268523 
L 323.748438 118.650478 
L 328.736776 117.274338 
L 333.725115 116.681323 
L 338.713453 119.200867 
L 343.701791 117.025445 
L 348.690129 117.37931 
L 353.678468 117.835381 
L 358.666806 116.716817 
L 363.655144 115.851957 
L 368.643483 119.843863 
L 373.631821 115.987522 
L 378.620159 114.065013 
L 383.608498 119.460576 
L 388.596836 115.450686 
L 393.585174 117.786467 
L 398.573513 117.618438 
L 403.561851 117.600145 
L 408.550189 116.170324 
L 413.538528 116.159668 
L 418.526866 114.910898 
L 423.515204 118.68325 
L 428.503543 119.308413 
L 433.491881 115.455678 
L 438.480219 114.773459 
L 443.468558 117.337298 
L 448.456896 117.360673 
L 453.445234 118.765529 
L 458.433573 116.644699 
L 463.421911 116.577591 
L 468.410249 114.045779 
L 473.398588 119.10831 
L 478.386926 119.700945 
L 483.375264 116.97605 
L 488.363603 115.795148 
L 493.351941 117.065017 
L 498.340279 118.138631 
L 503.328618 114.178945 
L 508.316956 120.023805 
L 513.305294 116.998075 
L 518.293633 115.617835 
L 523.281971 118.11065 
L 528.270309 114.644215 
L 533.258648 116.474144 
L 538.246986 117.539068 
L 543.235324 117.641793 
L 548.223663 117.492017 
L 553.212001 118.332457 
L 558.200339 118.7463 
" clip-path="url(#p80ace6360b)" style="fill: none; stroke: #c68225"/>
   </g>
   <g id="line2d_47">
    <path d="M 59.366506 65.14469 
L 64.354845 78.064667 
L 69.343183 70.285003 
L 74.331521 73.535097 
L 79.31986 79.106606 
L 84.308198 79.280611 
L 89.296536 76.898035 
L 94.284875 79.224273 
L 99.273213 76.125218 
L 104.261551 73.026253 
L 109.24989 77.685159 
L 114.238228 79.913737 
L 119.226566 79.50879 
L 124.214905 79.546648 
L 129.203243 79.549258 
L 134.191581 80.725515 
L 139.17992 80.03755 
L 144.168258 82.531078 
L 149.156596 79.121105 
L 154.144935 80.948032 
L 159.133273 78.693016 
L 164.121611 82.274052 
L 169.10995 82.062299 
L 174.098288 77.873266 
L 179.086626 81.321468 
L 184.074965 81.605125 
L 189.063303 81.326508 
L 194.051641 80.339188 
L 199.03998 79.85633 
L 204.028318 80.413778 
L 209.016656 81.960168 
L 214.004995 80.843274 
L 218.993333 80.120232 
L 223.981671 80.997122 
L 228.97001 81.564497 
L 233.958348 80.627354 
L 238.946686 81.665559 
L 243.935025 80.78539 
L 248.923363 79.786161 
L 253.911701 81.439423 
L 258.90004 82.611369 
L 263.888378 79.342705 
L 268.876716 81.128055 
L 273.865055 81.983886 
L 278.853393 79.618424 
L 283.841731 81.49756 
L 288.83007 81.128815 
L 293.818408 80.157235 
L 298.806746 79.701022 
L 303.795085 79.850546 
L 308.783423 79.297684 
L 313.771761 81.13722 
L 318.7601 81.246666 
L 323.748438 82.094309 
L 328.736776 81.484226 
L 333.725115 81.399635 
L 338.713453 80.13448 
L 343.701791 80.173861 
L 348.690129 80.100863 
L 353.678468 81.400305 
L 358.666806 78.474923 
L 363.655144 80.791355 
L 368.643483 79.903025 
L 373.631821 77.821868 
L 378.620159 79.486802 
L 383.608498 81.13948 
L 388.596836 81.22149 
L 393.585174 80.891565 
L 398.573513 79.446438 
L 403.561851 81.010117 
L 408.550189 78.781756 
L 413.538528 77.781054 
L 418.526866 82.093373 
L 423.515204 80.671314 
L 428.503543 78.567688 
L 433.491881 79.62093 
L 438.480219 79.615393 
L 443.468558 80.07255 
L 448.456896 81.639422 
L 453.445234 79.894835 
L 458.433573 78.63598 
L 463.421911 80.867769 
L 468.410249 78.113804 
L 473.398588 82.659575 
L 478.386926 78.894272 
L 483.375264 79.154861 
L 488.363603 82.03665 
L 493.351941 78.171334 
L 498.340279 79.416041 
L 503.328618 80.361691 
L 508.316956 79.96267 
L 513.305294 80.6658 
L 518.293633 78.916139 
L 523.281971 80.283985 
L 528.270309 79.420105 
L 533.258648 79.861669 
L 538.246986 80.8074 
L 543.235324 80.110187 
L 548.223663 82.082569 
L 553.212001 80.662959 
L 558.200339 80.99923 
" clip-path="url(#p80ace6360b)" style="fill: none; stroke: #00a98d"/>
   </g>
   <g id="line2d_48">
    <path d="M 59.366506 190.902909 
L 64.354845 181.918627 
L 69.343183 204.136466 
L 74.331521 198.508128 
L 79.31986 198.01921 
L 84.308198 197.05283 
L 89.296536 202.199567 
L 94.284875 199.667378 
L 99.273213 198.414975 
L 104.261551 199.695604 
L 109.24989 197.122287 
L 114.238228 198.392979 
L 119.226566 198.392328 
L 124.214905 199.162205 
L 129.203243 199.333362 
L 134.191581 199.085945 
L 139.17992 199.589115 
L 144.168258 198.202913 
L 149.156596 200.27162 
L 154.144935 199.778091 
L 159.133273 200.625078 
L 164.121611 198.62866 
L 169.10995 198.790062 
L 174.098288 200.225379 
L 179.086626 198.680087 
L 184.074965 198.760475 
L 189.063303 198.775693 
L 194.051641 199.759889 
L 199.03998 200.297627 
L 204.028318 200.264218 
L 209.016656 198.862579 
L 214.004995 199.262694 
L 218.993333 199.526256 
L 223.981671 199.52551 
L 228.97001 199.033356 
L 233.958348 199.254475 
L 238.946686 199.078595 
L 243.935025 199.515547 
L 248.923363 199.433952 
L 253.911701 198.975439 
L 258.90004 198.908463 
L 263.888378 200.047545 
L 268.876716 199.472197 
L 273.865055 198.868622 
L 278.853393 200.165084 
L 283.841731 199.519061 
L 288.83007 199.18356 
L 293.818408 199.969494 
L 298.806746 200.082591 
L 303.795085 200.357857 
L 308.783423 199.962997 
L 313.771761 199.728315 
L 318.7601 199.112484 
L 323.748438 198.344739 
L 328.736776 198.940135 
L 333.725115 199.690207 
L 338.713453 199.951758 
L 343.701791 198.985266 
L 348.690129 199.451721 
L 353.678468 198.891434 
L 358.666806 200.039856 
L 363.655144 199.094733 
L 368.643483 199.347442 
L 373.631821 199.978114 
L 378.620159 199.240181 
L 383.608498 199.380759 
L 388.596836 198.962948 
L 393.585174 199.382695 
L 398.573513 199.866242 
L 403.561851 198.759062 
L 408.550189 199.86902 
L 413.538528 200.520252 
L 418.526866 198.363704 
L 423.515204 199.493839 
L 428.503543 200.205385 
L 433.491881 199.652648 
L 438.480219 199.445632 
L 443.468558 199.43989 
L 448.456896 198.658933 
L 453.445234 200.06306 
L 458.433573 199.757139 
L 463.421911 198.86803 
L 468.410249 199.465346 
L 473.398588 198.527002 
L 478.386926 200.190084 
L 483.375264 199.711615 
L 488.363603 198.504269 
L 493.351941 200.205667 
L 498.340279 200.451095 
L 503.328618 198.737205 
L 508.316956 199.626904 
L 513.305294 199.158551 
L 518.293633 199.795651 
L 523.281971 199.125187 
L 528.270309 199.710487 
L 533.258648 199.071637 
L 538.246986 199.369987 
L 543.235324 199.969979 
L 548.223663 198.99048 
L 553.212001 199.604339 
L 558.200339 199.067494 
" clip-path="url(#p80ace6360b)" style="fill: none; stroke: #8e971e"/>
   </g>
   <g id="line2d_49">
    <path d="M 59.366506 217.103129 
L 64.354845 232.813702 
L 69.343183 214.874009 
L 74.331521 214.543444 
L 79.31986 218.2808 
L 84.308198 218.183622 
L 89.296536 207.366675 
L 94.284875 214.904262 
L 99.273213 208.695614 
L 104.261551 217.586525 
L 109.24989 215.786354 
L 114.238228 208.874352 
L 119.226566 210.81932 
L 124.214905 210.789504 
L 129.203243 211.395433 
L 134.191581 211.04694 
L 139.17992 210.484612 
L 144.168258 210.639974 
L 149.156596 211.189267 
L 154.144935 210.629305 
L 159.133273 211.481922 
L 164.121611 210.564274 
L 169.10995 211.031779 
L 174.098288 210.745749 
L 179.086626 210.455206 
L 184.074965 210.870167 
L 189.063303 210.048764 
L 194.051641 210.970435 
L 199.03998 210.57841 
L 204.028318 211.16208 
L 209.016656 210.438955 
L 214.004995 211.296077 
L 218.993333 211.109176 
L 223.981671 210.413262 
L 228.97001 211.184637 
L 233.958348 210.030268 
L 238.946686 211.12296 
L 243.935025 209.986388 
L 248.923363 211.679352 
L 253.911701 210.185768 
L 258.90004 210.27467 
L 263.888378 211.937271 
L 268.876716 210.5618 
L 273.865055 210.654147 
L 278.853393 211.264727 
L 283.841731 210.928736 
L 288.83007 211.10869 
L 293.818408 211.055846 
L 298.806746 210.8508 
L 303.795085 211.222894 
L 308.783423 210.621735 
L 313.771761 211.388606 
L 318.7601 211.006058 
L 323.748438 210.622123 
L 328.736776 210.57839 
L 333.725115 210.557369 
L 338.713453 210.649751 
L 343.701791 210.377277 
L 348.690129 210.353973 
L 353.678468 210.166352 
L 358.666806 210.69201 
L 363.655144 210.143775 
L 368.643483 210.623946 
L 373.631821 210.955236 
L 378.620159 210.292989 
L 383.608498 210.237122 
L 388.596836 209.716428 
L 393.585174 210.409659 
L 398.573513 210.344745 
L 403.561851 210.511494 
L 408.550189 210.734442 
L 413.538528 210.857424 
L 418.526866 209.912491 
L 423.515204 210.201877 
L 428.503543 211.321649 
L 433.491881 210.807198 
L 438.480219 209.980432 
L 443.468558 210.773282 
L 448.456896 210.004574 
L 453.445234 210.344399 
L 458.433573 210.621409 
L 463.421911 209.893194 
L 468.410249 210.418108 
L 473.398588 209.544354 
L 478.386926 210.484109 
L 483.375264 210.558279 
L 488.363603 209.903205 
L 493.351941 210.876503 
L 498.340279 210.427954 
L 503.328618 209.857684 
L 508.316956 210.292684 
L 513.305294 210.429142 
L 518.293633 210.612746 
L 523.281971 210.17358 
L 528.270309 210.024368 
L 533.258648 210.742266 
L 538.246986 210.597896 
L 543.235324 210.40926 
L 548.223663 209.777761 
L 553.212001 210.01919 
L 558.200339 210.263359 
" clip-path="url(#p80ace6360b)" style="fill: none; stroke: #00a9cc"/>
   </g>
   <g id="line2d_50">
    <path d="M 59.366506 163.325967 
L 64.354845 183.180368 
L 69.343183 191.710739 
L 74.331521 189.784767 
L 79.31986 190.738402 
L 84.308198 190.224472 
L 89.296536 197.388788 
L 94.284875 195.186687 
L 99.273213 195.93201 
L 104.261551 191.986121 
L 109.24989 191.148026 
L 114.238228 195.95197 
L 119.226566 195.995981 
L 124.214905 196.587965 
L 129.203243 196.458185 
L 134.191581 196.109762 
L 139.17992 196.508804 
L 144.168258 196.694016 
L 149.156596 195.246369 
L 154.144935 196.295098 
L 159.133273 194.967659 
L 164.121611 196.707734 
L 169.10995 195.976421 
L 174.098288 195.771794 
L 179.086626 196.487889 
L 184.074965 195.753782 
L 189.063303 196.374982 
L 194.051641 195.57858 
L 199.03998 195.425142 
L 204.028318 195.567897 
L 209.016656 196.140074 
L 214.004995 195.354224 
L 218.993333 195.359599 
L 223.981671 196.386916 
L 228.97001 196.030208 
L 233.958348 196.133307 
L 238.946686 195.467046 
L 243.935025 196.339815 
L 248.923363 195.33285 
L 253.911701 196.525791 
L 258.90004 195.983889 
L 263.888378 194.775073 
L 268.876716 196.114042 
L 273.865055 195.926606 
L 278.853393 195.368797 
L 283.841731 196.102366 
L 288.83007 195.738964 
L 293.818408 195.622223 
L 298.806746 196.11168 
L 303.795085 195.308688 
L 308.783423 195.744877 
L 313.771761 197.330728 
L 318.7601 198.298432 
L 323.748438 198.537956 
L 328.736776 198.015291 
L 333.725115 198.034629 
L 338.713453 197.60936 
L 343.701791 197.825758 
L 348.690129 197.684552 
L 353.678468 197.919848 
L 358.666806 197.533261 
L 363.655144 198.019282 
L 368.643483 197.240489 
L 373.631821 196.509269 
L 378.620159 197.425458 
L 383.608498 197.660308 
L 388.596836 197.930785 
L 393.585174 197.360794 
L 398.573513 197.614941 
L 403.561851 197.13664 
L 408.550189 197.384151 
L 413.538528 197.032556 
L 418.526866 198.568479 
L 423.515204 197.448364 
L 428.503543 196.58413 
L 433.491881 197.178911 
L 438.480219 197.484817 
L 443.468558 197.55647 
L 448.456896 198.154053 
L 453.445234 197.355943 
L 458.433573 196.951532 
L 463.421911 198.090932 
L 468.410249 197.352831 
L 473.398588 197.900305 
L 478.386926 197.417874 
L 483.375264 197.610653 
L 488.363603 197.868931 
L 493.351941 196.958855 
L 498.340279 197.151602 
L 503.328618 198.068005 
L 508.316956 197.81238 
L 513.305294 197.821449 
L 518.293633 197.063584 
L 523.281971 197.428529 
L 528.270309 197.708152 
L 533.258648 197.230384 
L 538.246986 197.685327 
L 543.235324 197.269569 
L 548.223663 198.520045 
L 553.212001 198.018417 
L 558.200339 197.274484 
" clip-path="url(#p80ace6360b)" style="fill: none; stroke: #9b7fe9"/>
   </g>
   <g id="line2d_51">
    <path d="M 59.366506 184.551402 
L 64.354845 190.350813 
L 69.343183 195.708315 
L 74.331521 197.288882 
L 79.31986 192.41675 
L 84.308198 194.253492 
L 89.296536 195.847154 
L 94.284875 194.524187 
L 99.273213 195.488359 
L 104.261551 193.617852 
L 109.24989 193.338974 
L 114.238228 194.241172 
L 119.226566 194.254014 
L 124.214905 195.145125 
L 129.203243 194.62563 
L 134.191581 195.193569 
L 139.17992 194.594804 
L 144.168258 194.314443 
L 149.156596 194.481753 
L 154.144935 194.083774 
L 159.133273 194.09318 
L 164.121611 194.61767 
L 169.10995 194.88393 
L 174.098288 194.123718 
L 179.086626 194.760353 
L 184.074965 194.674847 
L 189.063303 194.874973 
L 194.051641 194.576525 
L 199.03998 194.911413 
L 204.028318 194.894786 
L 209.016656 194.690843 
L 214.004995 194.223216 
L 218.993333 194.933301 
L 223.981671 194.569377 
L 228.97001 194.47888 
L 233.958348 195.104933 
L 238.946686 194.061029 
L 243.935025 194.500609 
L 248.923363 194.463218 
L 253.911701 195.210892 
L 258.90004 194.959706 
L 263.888378 194.076665 
L 268.876716 195.304176 
L 273.865055 194.548006 
L 278.853393 194.451468 
L 283.841731 194.700229 
L 288.83007 194.19754 
L 293.818408 194.28944 
L 298.806746 194.280828 
L 303.795085 194.258927 
L 308.783423 194.611743 
L 313.771761 195.024143 
L 318.7601 195.757369 
L 323.748438 196.155003 
L 328.736776 195.982243 
L 333.725115 195.91469 
L 338.713453 195.926905 
L 343.701791 195.706512 
L 348.690129 195.490527 
L 353.678468 195.326503 
L 358.666806 195.725282 
L 363.655144 195.631534 
L 368.643483 195.353254 
L 373.631821 195.067811 
L 378.620159 195.753871 
L 383.608498 194.959132 
L 388.596836 195.715596 
L 393.585174 195.419641 
L 398.573513 196.039501 
L 403.561851 195.278967 
L 408.550189 195.611301 
L 413.538528 195.529493 
L 418.526866 196.231012 
L 423.515204 195.820463 
L 428.503543 195.860166 
L 433.491881 195.689408 
L 438.480219 195.665395 
L 443.468558 195.477145 
L 448.456896 195.8405 
L 453.445234 195.470459 
L 458.433573 194.745265 
L 463.421911 195.826244 
L 468.410249 195.317752 
L 473.398588 195.451356 
L 478.386926 195.596887 
L 483.375264 196.067059 
L 488.363603 195.705687 
L 493.351941 195.220184 
L 498.340279 195.533065 
L 503.328618 195.921297 
L 508.316956 196.120603 
L 513.305294 195.448163 
L 518.293633 195.326576 
L 523.281971 195.570667 
L 528.270309 195.748343 
L 533.258648 195.674047 
L 538.246986 196.093416 
L 543.235324 195.649098 
L 548.223663 195.892492 
L 553.212001 195.756022 
L 558.200339 195.374379 
" clip-path="url(#p80ace6360b)" style="fill: none; stroke: #618df6"/>
   </g>
   <g id="line2d_52">
    <path d="M 59.366506 67.651121 
L 64.354845 90.293402 
L 69.343183 75.497446 
L 74.331521 61.785374 
L 79.31986 75.188774 
L 84.308198 65.787884 
L 89.296536 106.733187 
L 94.284875 64.891304 
L 99.273213 104.570097 
L 104.261551 61.261855 
L 109.24989 77.279866 
L 114.238228 88.33066 
L 119.226566 89.637897 
L 124.214905 92.76647 
L 129.203243 88.696959 
L 134.191581 89.397759 
L 139.17992 88.657914 
L 144.168258 87.374822 
L 149.156596 87.61497 
L 154.144935 87.766908 
L 159.133273 84.760727 
L 164.121611 87.578335 
L 169.10995 88.224849 
L 174.098288 86.560403 
L 179.086626 88.852374 
L 184.074965 88.328619 
L 189.063303 87.923696 
L 194.051641 87.267044 
L 199.03998 88.797099 
L 204.028318 87.10413 
L 209.016656 87.726073 
L 214.004995 85.567068 
L 218.993333 88.696045 
L 223.981671 87.43223 
L 228.97001 87.886046 
L 233.958348 87.753172 
L 238.946686 88.640759 
L 243.935025 88.656007 
L 248.923363 86.573044 
L 253.911701 86.029204 
L 258.90004 88.158023 
L 263.888378 88.520434 
L 268.876716 86.097384 
L 273.865055 88.072068 
L 278.853393 85.338476 
L 283.841731 86.855804 
L 288.83007 88.060374 
L 293.818408 85.532047 
L 298.806746 86.005004 
L 303.795085 87.729818 
L 308.783423 86.879439 
L 313.771761 86.680056 
L 318.7601 89.710897 
L 323.748438 95.022372 
L 328.736776 97.146384 
L 333.725115 98.903796 
L 338.713453 100.563238 
L 343.701791 101.324539 
L 348.690129 101.838179 
L 353.678468 102.645982 
L 358.666806 102.274968 
L 363.655144 103.428026 
L 368.643483 104.083659 
L 373.631821 101.452657 
L 378.620159 102.818619 
L 383.608498 104.408238 
L 388.596836 104.477568 
L 393.585174 104.011969 
L 398.573513 103.765349 
L 403.561851 103.035479 
L 408.550189 102.358215 
L 413.538528 102.755432 
L 418.526866 104.385866 
L 423.515204 105.191224 
L 428.503543 102.431715 
L 433.491881 101.918548 
L 438.480219 103.572952 
L 443.468558 102.87451 
L 448.456896 104.594862 
L 453.445234 104.430377 
L 458.433573 102.836398 
L 463.421911 104.430991 
L 468.410249 103.188631 
L 473.398588 106.027963 
L 478.386926 103.880745 
L 483.375264 103.424904 
L 488.363603 104.04522 
L 493.351941 102.78173 
L 498.340279 103.638872 
L 503.328618 103.804789 
L 508.316956 105.330195 
L 513.305294 103.595243 
L 518.293633 102.740196 
L 523.281971 104.318992 
L 528.270309 103.563413 
L 533.258648 103.147674 
L 538.246986 103.22126 
L 543.235324 103.474425 
L 548.223663 105.057519 
L 553.212001 105.09955 
L 558.200339 104.538096 
" clip-path="url(#p80ace6360b)" style="fill: none; stroke: #f06073"/>
   </g>
   <g id="line2d_53">
    <path d="M 59.366506 173.379976 
L 64.354845 155.67732 
L 69.343183 159.212524 
L 74.331521 176.353479 
L 79.31986 169.783176 
L 84.308198 172.694043 
L 89.296536 144.813257 
L 94.284875 168.30388 
L 99.273213 146.030312 
L 104.261551 170.791065 
L 109.24989 169.43728 
L 114.238228 161.756511 
L 119.226566 159.430992 
L 124.214905 155.822366 
L 129.203243 156.88173 
L 134.191581 155.603955 
L 139.17992 155.511748 
L 144.168258 156.120914 
L 149.156596 155.93038 
L 154.144935 155.806965 
L 159.133273 157.715518 
L 164.121611 156.075524 
L 169.10995 155.646622 
L 174.098288 156.59942 
L 179.086626 155.224297 
L 184.074965 155.46119 
L 189.063303 155.628905 
L 194.051641 156.075588 
L 199.03998 155.152453 
L 204.028318 156.167826 
L 209.016656 155.800789 
L 214.004995 157.130646 
L 218.993333 155.091397 
L 223.981671 155.84951 
L 228.97001 155.682314 
L 233.958348 155.836472 
L 238.946686 155.270194 
L 243.935025 155.146312 
L 248.923363 156.453634 
L 253.911701 156.950401 
L 258.90004 155.730154 
L 263.888378 155.316791 
L 268.876716 156.65614 
L 273.865055 155.599765 
L 278.853393 157.332011 
L 283.841731 156.446635 
L 288.83007 155.619444 
L 293.818408 157.178628 
L 298.806746 157.058195 
L 303.795085 155.899088 
L 308.783423 156.324247 
L 313.771761 160.328446 
L 318.7601 162.078689 
L 323.748438 161.917775 
L 328.736776 163.066012 
L 333.725115 163.824395 
L 338.713453 164.312888 
L 343.701791 164.565991 
L 348.690129 164.708279 
L 353.678468 164.826331 
L 358.666806 165.793477 
L 363.655144 165.458616 
L 368.643483 165.427302 
L 373.631821 166.236086 
L 378.620159 165.991905 
L 383.608498 165.38973 
L 388.596836 165.420789 
L 393.585174 165.711236 
L 398.573513 166.061078 
L 403.561851 165.348373 
L 408.550189 166.628064 
L 413.538528 166.332595 
L 418.526866 165.900044 
L 423.515204 165.402615 
L 428.503543 166.60965 
L 433.491881 166.587734 
L 438.480219 165.509139 
L 443.468558 166.333329 
L 448.456896 165.493652 
L 453.445234 165.587432 
L 458.433573 165.881299 
L 463.421911 165.686969 
L 468.410249 165.977589 
L 473.398588 164.715807 
L 478.386926 165.622379 
L 483.375264 166.218101 
L 488.363603 165.427751 
L 493.351941 166.237692 
L 498.340279 165.646296 
L 503.328618 165.936747 
L 508.316956 165.498447 
L 513.305294 166.073446 
L 518.293633 165.992366 
L 523.281971 165.444954 
L 528.270309 165.88977 
L 533.258648 166.232418 
L 538.246986 166.085973 
L 543.235324 165.915837 
L 548.223663 165.114739 
L 553.212001 165.512335 
L 558.200339 165.333011 
" clip-path="url(#p80ace6360b)" style="fill: none; stroke: #dd65b6"/>
   </g>
   <g id="line2d_54">
    <path d="M 59.366506 223.510616 
L 64.354845 185.245643 
L 69.343183 198.960116 
L 74.331521 195.497693 
L 79.31986 197.037561 
L 84.308198 195.310197 
L 89.296536 192.967951 
L 94.284875 193.860377 
L 99.273213 195.611854 
L 104.261551 194.997059 
L 109.24989 195.256278 
L 114.238228 193.858398 
L 119.226566 192.247004 
L 124.214905 193.643389 
L 129.203243 192.933456 
L 134.191581 192.925803 
L 139.17992 193.324382 
L 144.168258 192.131006 
L 149.156596 193.362339 
L 154.144935 193.363455 
L 159.133273 193.818181 
L 164.121611 192.449731 
L 169.10995 192.792834 
L 174.098288 193.675018 
L 179.086626 192.114728 
L 184.074965 193.09984 
L 189.063303 192.185478 
L 194.051641 193.241555 
L 199.03998 193.482142 
L 204.028318 193.221566 
L 209.016656 192.441522 
L 214.004995 192.924877 
L 218.993333 193.255196 
L 223.981671 192.740431 
L 228.97001 192.54597 
L 233.958348 192.51212 
L 238.946686 193.522964 
L 243.935025 192.597437 
L 248.923363 193.577687 
L 253.911701 192.313903 
L 258.90004 191.930408 
L 263.888378 193.267563 
L 268.876716 192.079475 
L 273.865055 192.793562 
L 278.853393 193.360522 
L 283.841731 193.024841 
L 288.83007 193.352786 
L 293.818408 193.513163 
L 298.806746 193.102765 
L 303.795085 193.730379 
L 308.783423 193.34382 
L 313.771761 193.458045 
L 318.7601 192.620612 
L 323.748438 192.877721 
L 328.736776 192.810487 
L 333.725115 192.261648 
L 338.713453 193.068912 
L 343.701791 193.003469 
L 348.690129 193.194517 
L 353.678468 192.908586 
L 358.666806 193.077271 
L 363.655144 192.938453 
L 368.643483 193.604527 
L 373.631821 193.70123 
L 378.620159 193.685003 
L 383.608498 193.658321 
L 388.596836 192.377491 
L 393.585174 193.022745 
L 398.573513 193.089917 
L 403.561851 193.330904 
L 408.550189 193.647975 
L 413.538528 194.258862 
L 418.526866 192.155672 
L 423.515204 193.353544 
L 428.503543 193.562827 
L 433.491881 193.672627 
L 438.480219 193.845838 
L 443.468558 193.49945 
L 448.456896 192.934494 
L 453.445234 193.276506 
L 458.433573 193.75629 
L 463.421911 193.066778 
L 468.410249 192.934811 
L 473.398588 192.289183 
L 478.386926 192.909897 
L 483.375264 193.657576 
L 488.363603 192.703483 
L 493.351941 193.800212 
L 498.340279 193.512274 
L 503.328618 192.044098 
L 508.316956 193.816286 
L 513.305294 192.743425 
L 518.293633 193.753534 
L 523.281971 193.50008 
L 528.270309 192.842755 
L 533.258648 193.320156 
L 538.246986 192.906666 
L 543.235324 193.470017 
L 548.223663 192.595472 
L 553.212001 192.912456 
L 558.200339 193.019562 
" clip-path="url(#p80ace6360b)" style="fill: none; stroke: #6c9f33"/>
   </g>
  </g>
 </g>
 <defs>
  <clipPath id="p80ace6360b">
   <rect x="44.401491" y="2.834646" width="528.763863" height="247.470709"/>
  </clipPath>
 </defs>
</svg>
