<?xml version="1.0" encoding="utf-8" standalone="no"?>
<!DOCTYPE svg PUBLIC "-//W3C//DTD SVG 1.1//EN"
  "http://www.w3.org/Graphics/SVG/1.1/DTD/svg11.dtd">
<!-- Created with matplotlib (https://matplotlib.org/) -->
<svg height="288pt" version="1.1" viewBox="0 0 576 288" width="576pt" xmlns="http://www.w3.org/2000/svg" xmlns:xlink="http://www.w3.org/1999/xlink">
 <metadata>
  <rdf:RDF xmlns:cc="http://creativecommons.org/ns#" xmlns:dc="http://purl.org/dc/elements/1.1/" xmlns:rdf="http://www.w3.org/1999/02/22-rdf-syntax-ns#">
   <cc:Work>
    <dc:type rdf:resource="http://purl.org/dc/dcmitype/StillImage"/>
    <dc:date>2021-06-14T15:34:49.271772</dc:date>
    <dc:format>image/svg+xml</dc:format>
    <dc:creator>
     <cc:Agent>
      <dc:title>Matplotlib v3.3.2, https://matplotlib.org/</dc:title>
     </cc:Agent>
    </dc:creator>
   </cc:Work>
  </rdf:RDF>
 </metadata>
 <defs>
  <style type="text/css">*{stroke-linecap:butt;stroke-linejoin:round;}</style>
 </defs>
 <g id="figure_1">
  <g id="patch_1">
   <path d="M 0 288 
L 576 288 
L 576 0 
L 0 0 
z
" style="fill:#ffffff;"/>
  </g>
  <g id="axes_1">
   <g id="patch_2">
    <path d="M 52.01717 250.305354 
L 573.165354 250.305354 
L 573.165354 2.834646 
L 52.01717 2.834646 
z
" style="fill:#ffffff;"/>
   </g>
   <g id="matplotlib.axis_1">
    <g id="xtick_1">
     <g id="line2d_1">
      <path clip-path="url(#p36047f0b49)" d="M 57.311854 250.305354 
L 57.311854 2.834646 
" style="fill:none;stroke:#000000;stroke-linecap:square;stroke-opacity:0.1;stroke-width:0.5;"/>
     </g>
     <g id="line2d_2">
      <defs>
       <path d="M 0 0 
L 0 -2.5 
" id="m6062fea6fc" style="stroke:#000000;stroke-width:0.5;"/>
      </defs>
      <g>
       <use style="stroke:#000000;stroke-width:0.5;" x="57.311854" xlink:href="#m6062fea6fc" y="250.305354"/>
      </g>
     </g>
     <g id="text_1">
      <!-- $\mathregular{0}$ -->
      <g transform="translate(53.471854 262.923479)scale(0.12 -0.12)">
       <defs>
        <path d="M 31.78125 66.40625 
Q 24.171875 66.40625 20.328125 58.90625 
Q 16.5 51.421875 16.5 36.375 
Q 16.5 21.390625 20.328125 13.890625 
Q 24.171875 6.390625 31.78125 6.390625 
Q 39.453125 6.390625 43.28125 13.890625 
Q 47.125 21.390625 47.125 36.375 
Q 47.125 51.421875 43.28125 58.90625 
Q 39.453125 66.40625 31.78125 66.40625 
z
M 31.78125 74.21875 
Q 44.046875 74.21875 50.515625 64.515625 
Q 56.984375 54.828125 56.984375 36.375 
Q 56.984375 17.96875 50.515625 8.265625 
Q 44.046875 -1.421875 31.78125 -1.421875 
Q 19.53125 -1.421875 13.0625 8.265625 
Q 6.59375 17.96875 6.59375 36.375 
Q 6.59375 54.828125 13.0625 64.515625 
Q 19.53125 74.21875 31.78125 74.21875 
z
" id="DejaVuSans-48"/>
       </defs>
       <use transform="translate(0 0.78125)" xlink:href="#DejaVuSans-48"/>
      </g>
     </g>
    </g>
    <g id="xtick_2">
     <g id="line2d_3">
      <path clip-path="url(#p36047f0b49)" d="M 151.859783 250.305354 
L 151.859783 2.834646 
" style="fill:none;stroke:#000000;stroke-linecap:square;stroke-opacity:0.1;stroke-width:0.5;"/>
     </g>
     <g id="line2d_4">
      <g>
       <use style="stroke:#000000;stroke-width:0.5;" x="151.859783" xlink:href="#m6062fea6fc" y="250.305354"/>
      </g>
     </g>
     <g id="text_2">
      <!-- $\mathregular{10}$ -->
      <g transform="translate(144.179783 262.923479)scale(0.12 -0.12)">
       <defs>
        <path d="M 12.40625 8.296875 
L 28.515625 8.296875 
L 28.515625 63.921875 
L 10.984375 60.40625 
L 10.984375 69.390625 
L 28.421875 72.90625 
L 38.28125 72.90625 
L 38.28125 8.296875 
L 54.390625 8.296875 
L 54.390625 0 
L 12.40625 0 
z
" id="DejaVuSans-49"/>
       </defs>
       <use transform="translate(0 0.78125)" xlink:href="#DejaVuSans-49"/>
       <use transform="translate(63.623047 0.78125)" xlink:href="#DejaVuSans-48"/>
      </g>
     </g>
    </g>
    <g id="xtick_3">
     <g id="line2d_5">
      <path clip-path="url(#p36047f0b49)" d="M 246.407712 250.305354 
L 246.407712 2.834646 
" style="fill:none;stroke:#000000;stroke-linecap:square;stroke-opacity:0.1;stroke-width:0.5;"/>
     </g>
     <g id="line2d_6">
      <g>
       <use style="stroke:#000000;stroke-width:0.5;" x="246.407712" xlink:href="#m6062fea6fc" y="250.305354"/>
      </g>
     </g>
     <g id="text_3">
      <!-- $\mathregular{20}$ -->
      <g transform="translate(238.727712 262.923479)scale(0.12 -0.12)">
       <defs>
        <path d="M 19.1875 8.296875 
L 53.609375 8.296875 
L 53.609375 0 
L 7.328125 0 
L 7.328125 8.296875 
Q 12.9375 14.109375 22.625 23.890625 
Q 32.328125 33.6875 34.8125 36.53125 
Q 39.546875 41.84375 41.421875 45.53125 
Q 43.3125 49.21875 43.3125 52.78125 
Q 43.3125 58.59375 39.234375 62.25 
Q 35.15625 65.921875 28.609375 65.921875 
Q 23.96875 65.921875 18.8125 64.3125 
Q 13.671875 62.703125 7.8125 59.421875 
L 7.8125 69.390625 
Q 13.765625 71.78125 18.9375 73 
Q 24.125 74.21875 28.421875 74.21875 
Q 39.75 74.21875 46.484375 68.546875 
Q 53.21875 62.890625 53.21875 53.421875 
Q 53.21875 48.921875 51.53125 44.890625 
Q 49.859375 40.875 45.40625 35.40625 
Q 44.1875 33.984375 37.640625 27.21875 
Q 31.109375 20.453125 19.1875 8.296875 
z
" id="DejaVuSans-50"/>
       </defs>
       <use transform="translate(0 0.78125)" xlink:href="#DejaVuSans-50"/>
       <use transform="translate(63.623047 0.78125)" xlink:href="#DejaVuSans-48"/>
      </g>
     </g>
    </g>
    <g id="xtick_4">
     <g id="line2d_7">
      <path clip-path="url(#p36047f0b49)" d="M 340.955641 250.305354 
L 340.955641 2.834646 
" style="fill:none;stroke:#000000;stroke-linecap:square;stroke-opacity:0.1;stroke-width:0.5;"/>
     </g>
     <g id="line2d_8">
      <g>
       <use style="stroke:#000000;stroke-width:0.5;" x="340.955641" xlink:href="#m6062fea6fc" y="250.305354"/>
      </g>
     </g>
     <g id="text_4">
      <!-- $\mathregular{30}$ -->
      <g transform="translate(333.275641 262.923479)scale(0.12 -0.12)">
       <defs>
        <path d="M 40.578125 39.3125 
Q 47.65625 37.796875 51.625 33 
Q 55.609375 28.21875 55.609375 21.1875 
Q 55.609375 10.40625 48.1875 4.484375 
Q 40.765625 -1.421875 27.09375 -1.421875 
Q 22.515625 -1.421875 17.65625 -0.515625 
Q 12.796875 0.390625 7.625 2.203125 
L 7.625 11.71875 
Q 11.71875 9.328125 16.59375 8.109375 
Q 21.484375 6.890625 26.8125 6.890625 
Q 36.078125 6.890625 40.9375 10.546875 
Q 45.796875 14.203125 45.796875 21.1875 
Q 45.796875 27.640625 41.28125 31.265625 
Q 36.765625 34.90625 28.71875 34.90625 
L 20.21875 34.90625 
L 20.21875 43.015625 
L 29.109375 43.015625 
Q 36.375 43.015625 40.234375 45.921875 
Q 44.09375 48.828125 44.09375 54.296875 
Q 44.09375 59.90625 40.109375 62.90625 
Q 36.140625 65.921875 28.71875 65.921875 
Q 24.65625 65.921875 20.015625 65.03125 
Q 15.375 64.15625 9.8125 62.3125 
L 9.8125 71.09375 
Q 15.4375 72.65625 20.34375 73.4375 
Q 25.25 74.21875 29.59375 74.21875 
Q 40.828125 74.21875 47.359375 69.109375 
Q 53.90625 64.015625 53.90625 55.328125 
Q 53.90625 49.265625 50.4375 45.09375 
Q 46.96875 40.921875 40.578125 39.3125 
z
" id="DejaVuSans-51"/>
       </defs>
       <use transform="translate(0 0.78125)" xlink:href="#DejaVuSans-51"/>
       <use transform="translate(63.623047 0.78125)" xlink:href="#DejaVuSans-48"/>
      </g>
     </g>
    </g>
    <g id="xtick_5">
     <g id="line2d_9">
      <path clip-path="url(#p36047f0b49)" d="M 435.50357 250.305354 
L 435.50357 2.834646 
" style="fill:none;stroke:#000000;stroke-linecap:square;stroke-opacity:0.1;stroke-width:0.5;"/>
     </g>
     <g id="line2d_10">
      <g>
       <use style="stroke:#000000;stroke-width:0.5;" x="435.50357" xlink:href="#m6062fea6fc" y="250.305354"/>
      </g>
     </g>
     <g id="text_5">
      <!-- $\mathregular{40}$ -->
      <g transform="translate(427.82357 262.923479)scale(0.12 -0.12)">
       <defs>
        <path d="M 37.796875 64.3125 
L 12.890625 25.390625 
L 37.796875 25.390625 
z
M 35.203125 72.90625 
L 47.609375 72.90625 
L 47.609375 25.390625 
L 58.015625 25.390625 
L 58.015625 17.1875 
L 47.609375 17.1875 
L 47.609375 0 
L 37.796875 0 
L 37.796875 17.1875 
L 4.890625 17.1875 
L 4.890625 26.703125 
z
" id="DejaVuSans-52"/>
       </defs>
       <use transform="translate(0 0.78125)" xlink:href="#DejaVuSans-52"/>
       <use transform="translate(63.623047 0.78125)" xlink:href="#DejaVuSans-48"/>
      </g>
     </g>
    </g>
    <g id="xtick_6">
     <g id="line2d_11">
      <path clip-path="url(#p36047f0b49)" d="M 530.051499 250.305354 
L 530.051499 2.834646 
" style="fill:none;stroke:#000000;stroke-linecap:square;stroke-opacity:0.1;stroke-width:0.5;"/>
     </g>
     <g id="line2d_12">
      <g>
       <use style="stroke:#000000;stroke-width:0.5;" x="530.051499" xlink:href="#m6062fea6fc" y="250.305354"/>
      </g>
     </g>
     <g id="text_6">
      <!-- $\mathregular{50}$ -->
      <g transform="translate(522.371499 262.923479)scale(0.12 -0.12)">
       <defs>
        <path d="M 10.796875 72.90625 
L 49.515625 72.90625 
L 49.515625 64.59375 
L 19.828125 64.59375 
L 19.828125 46.734375 
Q 21.96875 47.46875 24.109375 47.828125 
Q 26.265625 48.1875 28.421875 48.1875 
Q 40.625 48.1875 47.75 41.5 
Q 54.890625 34.8125 54.890625 23.390625 
Q 54.890625 11.625 47.5625 5.09375 
Q 40.234375 -1.421875 26.90625 -1.421875 
Q 22.3125 -1.421875 17.546875 -0.640625 
Q 12.796875 0.140625 7.71875 1.703125 
L 7.71875 11.625 
Q 12.109375 9.234375 16.796875 8.0625 
Q 21.484375 6.890625 26.703125 6.890625 
Q 35.15625 6.890625 40.078125 11.328125 
Q 45.015625 15.765625 45.015625 23.390625 
Q 45.015625 31 40.078125 35.4375 
Q 35.15625 39.890625 26.703125 39.890625 
Q 22.75 39.890625 18.8125 39.015625 
Q 14.890625 38.140625 10.796875 36.28125 
z
" id="DejaVuSans-53"/>
       </defs>
       <use transform="translate(0 0.78125)" xlink:href="#DejaVuSans-53"/>
       <use transform="translate(63.623047 0.78125)" xlink:href="#DejaVuSans-48"/>
      </g>
     </g>
    </g>
    <g id="text_7">
     <!-- Epoch -->
     <g transform="translate(288.093762 281.576604)scale(0.16 -0.16)">
      <defs>
       <path d="M 9.8125 72.90625 
L 55.90625 72.90625 
L 55.90625 64.59375 
L 19.671875 64.59375 
L 19.671875 43.015625 
L 54.390625 43.015625 
L 54.390625 34.71875 
L 19.671875 34.71875 
L 19.671875 8.296875 
L 56.78125 8.296875 
L 56.78125 0 
L 9.8125 0 
z
" id="DejaVuSans-69"/>
       <path d="M 18.109375 8.203125 
L 18.109375 -20.796875 
L 9.078125 -20.796875 
L 9.078125 54.6875 
L 18.109375 54.6875 
L 18.109375 46.390625 
Q 20.953125 51.265625 25.265625 53.625 
Q 29.59375 56 35.59375 56 
Q 45.5625 56 51.78125 48.09375 
Q 58.015625 40.1875 58.015625 27.296875 
Q 58.015625 14.40625 51.78125 6.484375 
Q 45.5625 -1.421875 35.59375 -1.421875 
Q 29.59375 -1.421875 25.265625 0.953125 
Q 20.953125 3.328125 18.109375 8.203125 
z
M 48.6875 27.296875 
Q 48.6875 37.203125 44.609375 42.84375 
Q 40.53125 48.484375 33.40625 48.484375 
Q 26.265625 48.484375 22.1875 42.84375 
Q 18.109375 37.203125 18.109375 27.296875 
Q 18.109375 17.390625 22.1875 11.75 
Q 26.265625 6.109375 33.40625 6.109375 
Q 40.53125 6.109375 44.609375 11.75 
Q 48.6875 17.390625 48.6875 27.296875 
z
" id="DejaVuSans-112"/>
       <path d="M 30.609375 48.390625 
Q 23.390625 48.390625 19.1875 42.75 
Q 14.984375 37.109375 14.984375 27.296875 
Q 14.984375 17.484375 19.15625 11.84375 
Q 23.34375 6.203125 30.609375 6.203125 
Q 37.796875 6.203125 41.984375 11.859375 
Q 46.1875 17.53125 46.1875 27.296875 
Q 46.1875 37.015625 41.984375 42.703125 
Q 37.796875 48.390625 30.609375 48.390625 
z
M 30.609375 56 
Q 42.328125 56 49.015625 48.375 
Q 55.71875 40.765625 55.71875 27.296875 
Q 55.71875 13.875 49.015625 6.21875 
Q 42.328125 -1.421875 30.609375 -1.421875 
Q 18.84375 -1.421875 12.171875 6.21875 
Q 5.515625 13.875 5.515625 27.296875 
Q 5.515625 40.765625 12.171875 48.375 
Q 18.84375 56 30.609375 56 
z
" id="DejaVuSans-111"/>
       <path d="M 48.78125 52.59375 
L 48.78125 44.1875 
Q 44.96875 46.296875 41.140625 47.34375 
Q 37.3125 48.390625 33.40625 48.390625 
Q 24.65625 48.390625 19.8125 42.84375 
Q 14.984375 37.3125 14.984375 27.296875 
Q 14.984375 17.28125 19.8125 11.734375 
Q 24.65625 6.203125 33.40625 6.203125 
Q 37.3125 6.203125 41.140625 7.25 
Q 44.96875 8.296875 48.78125 10.40625 
L 48.78125 2.09375 
Q 45.015625 0.34375 40.984375 -0.53125 
Q 36.96875 -1.421875 32.421875 -1.421875 
Q 20.0625 -1.421875 12.78125 6.34375 
Q 5.515625 14.109375 5.515625 27.296875 
Q 5.515625 40.671875 12.859375 48.328125 
Q 20.21875 56 33.015625 56 
Q 37.15625 56 41.109375 55.140625 
Q 45.0625 54.296875 48.78125 52.59375 
z
" id="DejaVuSans-99"/>
       <path d="M 54.890625 33.015625 
L 54.890625 0 
L 45.90625 0 
L 45.90625 32.71875 
Q 45.90625 40.484375 42.875 44.328125 
Q 39.84375 48.1875 33.796875 48.1875 
Q 26.515625 48.1875 22.3125 43.546875 
Q 18.109375 38.921875 18.109375 30.90625 
L 18.109375 0 
L 9.078125 0 
L 9.078125 75.984375 
L 18.109375 75.984375 
L 18.109375 46.1875 
Q 21.34375 51.125 25.703125 53.5625 
Q 30.078125 56 35.796875 56 
Q 45.21875 56 50.046875 50.171875 
Q 54.890625 44.34375 54.890625 33.015625 
z
" id="DejaVuSans-104"/>
      </defs>
      <use xlink:href="#DejaVuSans-69"/>
      <use x="63.183594" xlink:href="#DejaVuSans-112"/>
      <use x="126.660156" xlink:href="#DejaVuSans-111"/>
      <use x="187.841797" xlink:href="#DejaVuSans-99"/>
      <use x="242.822266" xlink:href="#DejaVuSans-104"/>
     </g>
    </g>
   </g>
   <g id="matplotlib.axis_2">
    <g id="ytick_1">
     <g id="line2d_13">
      <path clip-path="url(#p36047f0b49)" d="M 52.01717 217.438007 
L 573.165354 217.438007 
" style="fill:none;stroke:#000000;stroke-linecap:square;stroke-opacity:0.1;stroke-width:0.5;"/>
     </g>
     <g id="line2d_14">
      <defs>
       <path d="M 0 0 
L 2.5 0 
" id="mb16b12e756" style="stroke:#000000;stroke-width:0.5;"/>
      </defs>
      <g>
       <use style="stroke:#000000;stroke-width:0.5;" x="52.01717" xlink:href="#mb16b12e756" y="217.438007"/>
      </g>
     </g>
     <g id="text_8">
      <!-- $\mathregular{0.75}$ -->
      <g transform="translate(22.71717 221.997069)scale(0.12 -0.12)">
       <defs>
        <path d="M 10.6875 12.40625 
L 21 12.40625 
L 21 0 
L 10.6875 0 
z
" id="DejaVuSans-46"/>
        <path d="M 8.203125 72.90625 
L 55.078125 72.90625 
L 55.078125 68.703125 
L 28.609375 0 
L 18.3125 0 
L 43.21875 64.59375 
L 8.203125 64.59375 
z
" id="DejaVuSans-55"/>
       </defs>
       <use transform="translate(0 0.78125)" xlink:href="#DejaVuSans-48"/>
       <use transform="translate(63.623047 0.78125)" xlink:href="#DejaVuSans-46"/>
       <use transform="translate(87.660156 0.78125)" xlink:href="#DejaVuSans-55"/>
       <use transform="translate(151.283203 0.78125)" xlink:href="#DejaVuSans-53"/>
      </g>
     </g>
    </g>
    <g id="ytick_2">
     <g id="line2d_15">
      <path clip-path="url(#p36047f0b49)" d="M 52.01717 168.174204 
L 573.165354 168.174204 
" style="fill:none;stroke:#000000;stroke-linecap:square;stroke-opacity:0.1;stroke-width:0.5;"/>
     </g>
     <g id="line2d_16">
      <g>
       <use style="stroke:#000000;stroke-width:0.5;" x="52.01717" xlink:href="#mb16b12e756" y="168.174204"/>
      </g>
     </g>
     <g id="text_9">
      <!-- $\mathregular{1.00}$ -->
      <g transform="translate(21.75717 172.733266)scale(0.12 -0.12)">
       <use transform="translate(0 0.78125)" xlink:href="#DejaVuSans-49"/>
       <use transform="translate(63.623047 0.78125)" xlink:href="#DejaVuSans-46"/>
       <use transform="translate(95.410156 0.78125)" xlink:href="#DejaVuSans-48"/>
       <use transform="translate(159.033203 0.78125)" xlink:href="#DejaVuSans-48"/>
      </g>
     </g>
    </g>
    <g id="ytick_3">
     <g id="line2d_17">
      <path clip-path="url(#p36047f0b49)" d="M 52.01717 118.910401 
L 573.165354 118.910401 
" style="fill:none;stroke:#000000;stroke-linecap:square;stroke-opacity:0.1;stroke-width:0.5;"/>
     </g>
     <g id="line2d_18">
      <g>
       <use style="stroke:#000000;stroke-width:0.5;" x="52.01717" xlink:href="#mb16b12e756" y="118.910401"/>
      </g>
     </g>
     <g id="text_10">
      <!-- $\mathregular{1.25}$ -->
      <g transform="translate(22.35717 123.469463)scale(0.12 -0.12)">
       <use transform="translate(0 0.78125)" xlink:href="#DejaVuSans-49"/>
       <use transform="translate(63.623047 0.78125)" xlink:href="#DejaVuSans-46"/>
       <use transform="translate(89.910156 0.78125)" xlink:href="#DejaVuSans-50"/>
       <use transform="translate(153.533203 0.78125)" xlink:href="#DejaVuSans-53"/>
      </g>
     </g>
    </g>
    <g id="ytick_4">
     <g id="line2d_19">
      <path clip-path="url(#p36047f0b49)" d="M 52.01717 69.646598 
L 573.165354 69.646598 
" style="fill:none;stroke:#000000;stroke-linecap:square;stroke-opacity:0.1;stroke-width:0.5;"/>
     </g>
     <g id="line2d_20">
      <g>
       <use style="stroke:#000000;stroke-width:0.5;" x="52.01717" xlink:href="#mb16b12e756" y="69.646598"/>
      </g>
     </g>
     <g id="text_11">
      <!-- $\mathregular{1.50}$ -->
      <g transform="translate(21.75717 74.20566)scale(0.12 -0.12)">
       <use transform="translate(0 0.78125)" xlink:href="#DejaVuSans-49"/>
       <use transform="translate(63.623047 0.78125)" xlink:href="#DejaVuSans-46"/>
       <use transform="translate(95.410156 0.78125)" xlink:href="#DejaVuSans-53"/>
       <use transform="translate(159.033203 0.78125)" xlink:href="#DejaVuSans-48"/>
      </g>
     </g>
    </g>
    <g id="ytick_5">
     <g id="line2d_21">
      <path clip-path="url(#p36047f0b49)" d="M 52.01717 20.382795 
L 573.165354 20.382795 
" style="fill:none;stroke:#000000;stroke-linecap:square;stroke-opacity:0.1;stroke-width:0.5;"/>
     </g>
     <g id="line2d_22">
      <g>
       <use style="stroke:#000000;stroke-width:0.5;" x="52.01717" xlink:href="#mb16b12e756" y="20.382795"/>
      </g>
     </g>
     <g id="text_12">
      <!-- $\mathregular{1.75}$ -->
      <g transform="translate(22.71717 24.941858)scale(0.12 -0.12)">
       <use transform="translate(0 0.09375)" xlink:href="#DejaVuSans-49"/>
       <use transform="translate(63.623047 0.09375)" xlink:href="#DejaVuSans-46"/>
       <use transform="translate(87.660156 0.09375)" xlink:href="#DejaVuSans-55"/>
       <use transform="translate(151.283203 0.09375)" xlink:href="#DejaVuSans-53"/>
      </g>
     </g>
    </g>
    <g id="text_13">
     <!-- p -->
     <g transform="translate(14.42967 131.64875)rotate(-90)scale(0.16 -0.16)">
      <use xlink:href="#DejaVuSans-112"/>
     </g>
    </g>
   </g>
   <g id="line2d_23">
    <path clip-path="url(#p36047f0b49)" d="M 66.766647 114.926558 
L 76.22144 158.784667 
L 85.676233 168.884802 
L 95.131026 167.851988 
L 104.585819 168.799616 
L 114.040611 168.767007 
L 123.495404 168.554288 
L 132.950197 168.19595 
L 142.40499 168.178578 
L 151.859783 168.72503 
L 161.314576 168.383134 
L 170.769369 168.289156 
L 180.224162 168.57132 
L 189.678955 168.506396 
L 199.133747 168.360606 
L 208.58854 168.123662 
L 218.043333 168.572009 
L 227.498126 167.947788 
L 236.952919 167.993963 
L 246.407712 168.531906 
L 255.862505 168.319501 
L 265.317298 168.356354 
L 274.772091 168.149758 
L 284.226884 168.243822 
L 293.681676 167.863499 
L 303.136469 168.254725 
L 312.591262 168.332121 
L 322.046055 167.988314 
L 331.500848 168.584575 
L 340.955641 167.727323 
L 350.410434 168.765198 
L 359.865227 168.596362 
L 369.32002 168.325466 
L 378.774812 168.223755 
L 388.229605 168.285465 
L 397.684398 168.668603 
L 407.139191 168.124873 
L 416.593984 168.192799 
L 426.048777 168.611762 
L 435.50357 168.569689 
L 444.958363 168.051484 
L 454.413156 168.460217 
L 463.867948 168.482838 
L 473.322741 168.207884 
L 482.777534 168.126581 
L 492.232327 168.175158 
L 501.68712 168.448662 
L 511.141913 168.072098 
L 520.596706 168.421189 
L 530.051499 168.104804 
L 539.506292 168.909964 
L 548.961085 168.270242 
L 558.415877 168.292636 
" style="fill:none;stroke:#009afa;"/>
   </g>
   <g id="line2d_24">
    <path clip-path="url(#p36047f0b49)" d="M 66.766647 122.920067 
L 76.22144 161.271278 
L 85.676233 167.353821 
L 95.131026 168.814422 
L 104.585819 168.851515 
L 114.040611 168.249376 
L 123.495404 168.475766 
L 132.950197 168.077463 
L 142.40499 168.397303 
L 151.859783 167.900647 
L 161.314576 167.700142 
L 170.769369 168.316292 
L 180.224162 168.697849 
L 189.678955 167.595498 
L 199.133747 167.935538 
L 208.58854 168.473678 
L 218.043333 168.328878 
L 227.498126 167.86108 
L 236.952919 168.283113 
L 246.407712 168.075136 
L 255.862505 168.426225 
L 265.317298 167.89997 
L 274.772091 167.589315 
L 284.226884 167.91853 
L 293.681676 168.62706 
L 303.136469 167.891217 
L 312.591262 167.719044 
L 322.046055 167.65441 
L 331.500848 167.337292 
L 340.955641 168.178657 
L 350.410434 168.117382 
L 359.865227 167.893433 
L 369.32002 168.092956 
L 378.774812 168.057055 
L 388.229605 168.040463 
L 397.684398 168.177737 
L 407.139191 167.971163 
L 416.593984 167.976801 
L 426.048777 167.119385 
L 435.50357 168.042884 
L 444.958363 168.44747 
L 454.413156 168.178236 
L 463.867948 168.096723 
L 473.322741 167.830603 
L 482.777534 168.33441 
L 492.232327 167.19272 
L 501.68712 167.492757 
L 511.141913 167.719637 
L 520.596706 167.731569 
L 530.051499 167.830588 
L 539.506292 167.402088 
L 548.961085 167.874878 
L 558.415877 167.824239 
" style="fill:none;stroke:#e36f47;"/>
   </g>
   <g id="patch_3">
    <path d="M 52.01717 250.305354 
L 52.01717 2.834646 
" style="fill:none;stroke:#000000;stroke-linecap:square;stroke-linejoin:miter;"/>
   </g>
   <g id="patch_4">
    <path d="M 52.01717 250.305354 
L 573.165354 250.305354 
" style="fill:none;stroke:#000000;stroke-linecap:square;stroke-linejoin:miter;"/>
   </g>
   <g id="line2d_25">
    <path clip-path="url(#p36047f0b49)" d="M 66.766647 126.03116 
L 76.22144 166.414777 
L 85.676233 183.939658 
L 95.131026 177.495857 
L 104.585819 168.560058 
L 114.040611 167.043229 
L 123.495404 168.54832 
L 132.950197 167.619197 
L 142.40499 169.212002 
L 151.859783 167.88358 
L 161.314576 166.778997 
L 170.769369 168.219958 
L 180.224162 168.282157 
L 189.678955 167.569953 
L 199.133747 169.826433 
L 208.58854 168.33829 
L 218.043333 166.897401 
L 227.498126 168.559505 
L 236.952919 168.097381 
L 246.407712 168.534019 
L 255.862505 167.616937 
L 265.317298 169.85379 
L 274.772091 168.076515 
L 284.226884 167.979277 
L 293.681676 167.737027 
L 303.136469 168.958411 
L 312.591262 168.621063 
L 322.046055 167.481044 
L 331.500848 169.336483 
L 340.955641 169.280991 
L 350.410434 170.74467 
L 359.865227 167.348051 
L 369.32002 169.08513 
L 378.774812 167.269471 
L 388.229605 170.322248 
L 397.684398 168.09869 
L 407.139191 166.276443 
L 416.593984 169.163932 
L 426.048777 167.844017 
L 435.50357 168.67874 
L 444.958363 169.181267 
L 454.413156 167.900165 
L 463.867948 166.404215 
L 473.322741 168.200322 
L 482.777534 167.711847 
L 492.232327 165.427762 
L 501.68712 168.957284 
L 511.141913 167.314928 
L 520.596706 165.207133 
L 530.051499 167.008272 
L 539.506292 172.109121 
L 548.961085 160.789491 
L 558.415877 167.023762 
" style="fill:none;stroke:#3ea44e;"/>
   </g>
   <g id="line2d_26">
    <path clip-path="url(#p36047f0b49)" d="M 66.766647 211.854804 
L 76.22144 180.32537 
L 85.676233 169.73348 
L 95.131026 171.444628 
L 104.585819 170.86679 
L 114.040611 171.533946 
L 123.495404 168.727447 
L 132.950197 168.231667 
L 142.40499 174.044728 
L 151.859783 170.629344 
L 161.314576 170.719951 
L 170.769369 171.532882 
L 180.224162 168.607502 
L 189.678955 171.339517 
L 199.133747 170.839452 
L 208.58854 169.450518 
L 218.043333 171.343777 
L 227.498126 170.129199 
L 236.952919 170.063864 
L 246.407712 170.752536 
L 255.862505 170.535309 
L 265.317298 172.552942 
L 274.772091 169.846022 
L 284.226884 171.028415 
L 293.681676 171.488767 
L 303.136469 169.958922 
L 312.591262 172.528312 
L 322.046055 170.800495 
L 331.500848 169.783776 
L 340.955641 171.730498 
L 350.410434 170.846791 
L 359.865227 170.941784 
L 369.32002 169.925699 
L 378.774812 171.778039 
L 388.229605 171.631414 
L 397.684398 172.049748 
L 407.139191 170.884371 
L 416.593984 171.655491 
L 426.048777 168.597167 
L 435.50357 171.70875 
L 444.958363 171.653907 
L 454.413156 171.510319 
L 463.867948 169.707583 
L 473.322741 171.807007 
L 482.777534 171.934152 
L 492.232327 170.35475 
L 501.68712 171.322149 
L 511.141913 171.393194 
L 520.596706 171.056988 
L 530.051499 170.777628 
L 539.506292 170.960356 
L 548.961085 172.062669 
L 558.415877 171.730749 
" style="fill:none;stroke:#c371d2;"/>
   </g>
   <g id="line2d_27">
    <path clip-path="url(#p36047f0b49)" d="M 66.766647 138.899149 
L 76.22144 103.093606 
L 85.676233 130.240538 
L 95.131026 157.06997 
L 104.585819 174.291555 
L 114.040611 169.735242 
L 123.495404 163.864439 
L 132.950197 168.035151 
L 142.40499 163.707752 
L 151.859783 167.298236 
L 161.314576 165.869721 
L 170.769369 164.96259 
L 180.224162 163.273056 
L 189.678955 165.231269 
L 199.133747 166.672874 
L 208.58854 164.24952 
L 218.043333 167.91631 
L 227.498126 167.330236 
L 236.952919 168.340015 
L 246.407712 169.419873 
L 255.862505 167.188312 
L 265.317298 167.228414 
L 274.772091 165.560737 
L 284.226884 169.449945 
L 293.681676 167.733005 
L 303.136469 165.320509 
L 312.591262 165.318229 
L 322.046055 164.799826 
L 331.500848 168.771516 
L 340.955641 170.872225 
L 350.410434 167.013115 
L 359.865227 168.958985 
L 369.32002 167.998603 
L 378.774812 168.148771 
L 388.229605 164.678038 
L 397.684398 166.541454 
L 407.139191 169.318479 
L 416.593984 167.477682 
L 426.048777 168.769155 
L 435.50357 164.627251 
L 444.958363 167.369403 
L 454.413156 168.897308 
L 463.867948 167.131599 
L 473.322741 166.121239 
L 482.777534 167.651769 
L 492.232327 170.298705 
L 501.68712 168.429312 
L 511.141913 168.192338 
L 520.596706 167.426982 
L 530.051499 165.258683 
L 539.506292 169.616261 
L 548.961085 170.035036 
L 558.415877 168.011927 
" style="fill:none;stroke:#ac8e18;"/>
   </g>
   <g id="line2d_28">
    <path clip-path="url(#p36047f0b49)" d="M 66.766647 92.098113 
L 76.22144 141.704159 
L 85.676233 161.768128 
L 95.131026 162.79371 
L 104.585819 163.531489 
L 114.040611 165.022025 
L 123.495404 164.91127 
L 132.950197 164.671847 
L 142.40499 164.782591 
L 151.859783 165.156675 
L 161.314576 164.516737 
L 170.769369 164.393738 
L 180.224162 164.329044 
L 189.678955 165.38327 
L 199.133747 163.861637 
L 208.58854 164.743759 
L 218.043333 164.296584 
L 227.498126 164.374548 
L 236.952919 164.384579 
L 246.407712 165.064137 
L 255.862505 165.652236 
L 265.317298 164.590516 
L 274.772091 164.604314 
L 284.226884 165.486488 
L 293.681676 165.235494 
L 303.136469 165.411227 
L 312.591262 164.941125 
L 322.046055 165.109342 
L 331.500848 164.048292 
L 340.955641 165.187291 
L 350.410434 164.198431 
L 359.865227 165.58837 
L 369.32002 165.230073 
L 378.774812 167.189591 
L 388.229605 164.659991 
L 397.684398 165.278677 
L 407.139191 165.406034 
L 416.593984 165.114293 
L 426.048777 165.790911 
L 435.50357 165.035139 
L 444.958363 164.483445 
L 454.413156 164.343281 
L 463.867948 164.893939 
L 473.322741 163.873335 
L 482.777534 164.353467 
L 492.232327 165.912854 
L 501.68712 164.895051 
L 511.141913 164.49325 
L 520.596706 164.808739 
L 530.051499 165.487199 
L 539.506292 164.85547 
L 548.961085 165.067844 
L 558.415877 165.895729 
" style="fill:none;stroke:#00aaae;"/>
   </g>
   <g id="line2d_29">
    <path clip-path="url(#p36047f0b49)" d="M 66.766647 189.226006 
L 76.22144 150.707687 
L 85.676233 134.825097 
L 95.131026 143.500769 
L 104.585819 148.023644 
L 114.040611 145.907138 
L 123.495404 149.908974 
L 132.950197 154.250084 
L 142.40499 152.122924 
L 151.859783 154.158271 
L 161.314576 155.823627 
L 170.769369 155.183135 
L 180.224162 159.510477 
L 189.678955 157.074374 
L 199.133747 159.931556 
L 208.58854 161.574987 
L 218.043333 161.318889 
L 227.498126 161.760597 
L 236.952919 164.008211 
L 246.407712 166.613964 
L 255.862505 165.536708 
L 265.317298 164.410062 
L 274.772091 165.863198 
L 284.226884 164.060028 
L 293.681676 165.396066 
L 303.136469 166.735083 
L 312.591262 166.60262 
L 322.046055 167.753057 
L 331.500848 169.453397 
L 340.955641 167.866062 
L 350.410434 168.841081 
L 359.865227 169.127828 
L 369.32002 169.41348 
L 378.774812 169.051478 
L 388.229605 170.45687 
L 397.684398 169.22956 
L 407.139191 168.997417 
L 416.593984 167.861311 
L 426.048777 168.751703 
L 435.50357 168.134443 
L 444.958363 167.744792 
L 454.413156 169.950712 
L 463.867948 169.335027 
L 473.322741 169.320236 
L 482.777534 168.968821 
L 492.232327 168.195508 
L 501.68712 167.418644 
L 511.141913 168.097779 
L 520.596706 169.419322 
L 530.051499 168.26006 
L 539.506292 169.242589 
L 548.961085 169.231515 
L 558.415877 168.576497 
" style="fill:none;stroke:#ed5e93;"/>
   </g>
   <g id="line2d_30">
    <path clip-path="url(#p36047f0b49)" d="M 66.766647 209.673048 
L 76.22144 176.207997 
L 85.676233 161.143871 
L 95.131026 166.501333 
L 104.585819 167.748 
L 114.040611 162.140899 
L 123.495404 163.687969 
L 132.950197 166.332484 
L 142.40499 161.265084 
L 151.859783 161.825705 
L 161.314576 161.498775 
L 170.769369 158.624928 
L 180.224162 162.325021 
L 189.678955 157.717173 
L 199.133747 159.130546 
L 208.58854 159.79922 
L 218.043333 157.674281 
L 227.498126 156.842517 
L 236.952919 158.163356 
L 246.407712 160.696126 
L 255.862505 158.759099 
L 265.317298 156.854497 
L 274.772091 158.039428 
L 284.226884 154.728329 
L 293.681676 155.873658 
L 303.136469 157.516626 
L 312.591262 156.455836 
L 322.046055 157.168162 
L 331.500848 158.792478 
L 340.955641 156.360249 
L 350.410434 157.534123 
L 359.865227 157.861859 
L 369.32002 158.232445 
L 378.774812 158.251385 
L 388.229605 159.276168 
L 397.684398 157.996914 
L 407.139191 158.156329 
L 416.593984 156.57971 
L 426.048777 157.940394 
L 435.50357 156.736476 
L 444.958363 155.845901 
L 454.413156 158.808086 
L 463.867948 158.202316 
L 473.322741 157.885277 
L 482.777534 157.727234 
L 492.232327 156.947562 
L 501.68712 155.585534 
L 511.141913 156.351101 
L 520.596706 158.343151 
L 530.051499 156.384195 
L 539.506292 157.042584 
L 548.961085 157.060225 
L 558.415877 155.957932 
" style="fill:none;stroke:#c68225;"/>
   </g>
   <g id="line2d_31">
    <path clip-path="url(#p36047f0b49)" d="M 66.766647 107.20942 
L 76.22144 124.359366 
L 85.676233 122.905696 
L 95.131026 120.38244 
L 104.585819 119.360448 
L 114.040611 122.182541 
L 123.495404 124.276064 
L 132.950197 125.053808 
L 142.40499 129.941332 
L 151.859783 130.599981 
L 161.314576 131.984859 
L 170.769369 133.550987 
L 180.224162 134.352489 
L 189.678955 136.770379 
L 199.133747 138.530347 
L 208.58854 139.746798 
L 218.043333 141.572406 
L 227.498126 142.839262 
L 236.952919 143.339857 
L 246.407712 145.395429 
L 255.862505 147.007179 
L 265.317298 148.549768 
L 274.772091 149.011182 
L 284.226884 149.347208 
L 293.681676 151.113951 
L 303.136469 152.010933 
L 312.591262 152.33972 
L 322.046055 153.561838 
L 331.500848 154.170561 
L 340.955641 155.292339 
L 350.410434 155.756826 
L 359.865227 155.493678 
L 369.32002 157.216301 
L 378.774812 156.546196 
L 388.229605 158.071907 
L 397.684398 157.923425 
L 407.139191 158.277405 
L 416.593984 159.089488 
L 426.048777 159.539531 
L 435.50357 160.003408 
L 444.958363 160.243848 
L 454.413156 160.820969 
L 463.867948 160.701337 
L 473.322741 161.386871 
L 482.777534 161.26327 
L 492.232327 161.484846 
L 501.68712 162.360717 
L 511.141913 162.676254 
L 520.596706 162.655566 
L 530.051499 162.557939 
L 539.506292 162.955429 
L 548.961085 163.56761 
L 558.415877 163.450945 
" style="fill:none;stroke:#00a98d;"/>
   </g>
   <g id="line2d_32">
    <path clip-path="url(#p36047f0b49)" d="M 66.766647 156.736483 
L 76.22144 120.606864 
L 85.676233 117.455375 
L 95.131026 129.861455 
L 104.585819 140.811805 
L 114.040611 150.448616 
L 123.495404 157.26838 
L 132.950197 165.802175 
L 142.40499 168.091379 
L 151.859783 168.434577 
L 161.314576 165.585238 
L 170.769369 169.139983 
L 180.224162 165.287659 
L 189.678955 164.726167 
L 199.133747 168.393497 
L 208.58854 169.653171 
L 218.043333 167.883813 
L 227.498126 168.788015 
L 236.952919 165.775385 
L 246.407712 166.544516 
L 255.862505 171.968551 
L 265.317298 168.412969 
L 274.772091 167.591623 
L 284.226884 164.895152 
L 293.681676 167.597899 
L 303.136469 167.732935 
L 312.591262 166.919564 
L 322.046055 165.12596 
L 331.500848 165.829073 
L 340.955641 168.763279 
L 350.410434 167.394087 
L 359.865227 167.135286 
L 369.32002 164.959054 
L 378.774812 167.861577 
L 388.229605 164.263937 
L 397.684398 165.111162 
L 407.139191 166.373066 
L 416.593984 165.950053 
L 426.048777 167.226115 
L 435.50357 161.621862 
L 444.958363 168.524694 
L 454.413156 166.48566 
L 463.867948 167.174775 
L 473.322741 168.044215 
L 482.777534 163.371112 
L 492.232327 166.665495 
L 501.68712 166.374628 
L 511.141913 164.990081 
L 520.596706 167.048642 
L 530.051499 165.980515 
L 539.506292 166.787452 
L 548.961085 166.352003 
L 558.415877 168.574107 
" style="fill:none;stroke:#8e971e;"/>
   </g>
   <g id="line2d_33">
    <path clip-path="url(#p36047f0b49)" d="M 66.766647 197.446284 
L 76.22144 172.147805 
L 85.676233 175.576689 
L 95.131026 194.742192 
L 104.585819 198.689743 
L 114.040611 195.999286 
L 123.495404 191.530854 
L 132.950197 189.404957 
L 142.40499 188.032873 
L 151.859783 187.833973 
L 161.314576 186.465046 
L 170.769369 188.479171 
L 180.224162 187.808353 
L 189.678955 186.945891 
L 199.133747 187.354445 
L 208.58854 185.155681 
L 218.043333 188.657756 
L 227.498126 187.406945 
L 236.952919 186.807976 
L 246.407712 184.499811 
L 255.862505 186.097436 
L 265.317298 184.46677 
L 274.772091 183.971635 
L 284.226884 183.932395 
L 293.681676 184.006631 
L 303.136469 186.943449 
L 312.591262 183.845709 
L 322.046055 184.90107 
L 331.500848 183.922766 
L 340.955641 186.449028 
L 350.410434 184.256797 
L 359.865227 184.352167 
L 369.32002 183.413099 
L 378.774812 183.14563 
L 388.229605 182.392089 
L 397.684398 181.873582 
L 407.139191 182.822305 
L 416.593984 183.55743 
L 426.048777 181.437417 
L 435.50357 180.378856 
L 444.958363 181.732278 
L 454.413156 180.43224 
L 463.867948 179.387086 
L 473.322741 178.428394 
L 482.777534 179.281712 
L 492.232327 179.832296 
L 501.68712 179.037584 
L 511.141913 179.349364 
L 520.596706 180.350186 
L 530.051499 179.891038 
L 539.506292 180.900881 
L 548.961085 184.426138 
L 558.415877 185.010228 
" style="fill:none;stroke:#00a9cc;"/>
   </g>
   <g id="line2d_34">
    <path clip-path="url(#p36047f0b49)" d="M 66.766647 133.390515 
L 76.22144 89.314784 
L 85.676233 96.163578 
L 95.131026 121.775896 
L 104.585819 128.542554 
L 114.040611 132.058595 
L 123.495404 130.251995 
L 132.950197 129.34406 
L 142.40499 129.968207 
L 151.859783 134.957499 
L 161.314576 138.265234 
L 170.769369 138.774208 
L 180.224162 139.445086 
L 189.678955 139.91238 
L 199.133747 142.740498 
L 208.58854 142.896867 
L 218.043333 147.050982 
L 227.498126 146.775995 
L 236.952919 145.971548 
L 246.407712 145.951102 
L 255.862505 147.156322 
L 265.317298 146.994996 
L 274.772091 149.670095 
L 284.226884 152.371295 
L 293.681676 150.728755 
L 303.136469 153.102144 
L 312.591262 152.135816 
L 322.046055 155.166773 
L 331.500848 154.461141 
L 340.955641 154.220313 
L 350.410434 153.828958 
L 359.865227 152.718358 
L 369.32002 154.423254 
L 378.774812 156.438964 
L 388.229605 157.708862 
L 397.684398 156.79211 
L 407.139191 158.828282 
L 416.593984 158.756854 
L 426.048777 158.419561 
L 435.50357 157.608082 
L 444.958363 159.450296 
L 454.413156 160.567006 
L 463.867948 160.636597 
L 473.322741 158.643667 
L 482.777534 158.667114 
L 492.232327 160.256391 
L 501.68712 160.353144 
L 511.141913 159.371194 
L 520.596706 160.061644 
L 530.051499 159.578206 
L 539.506292 159.620897 
L 548.961085 161.019973 
L 558.415877 158.389303 
" style="fill:none;stroke:#9b7fe9;"/>
   </g>
   <g id="line2d_35">
    <path clip-path="url(#p36047f0b49)" d="M 66.766647 125.52512 
L 76.22144 106.410442 
L 85.676233 106.964518 
L 95.131026 112.315345 
L 104.585819 117.40024 
L 114.040611 121.958091 
L 123.495404 125.362347 
L 132.950197 126.652944 
L 142.40499 124.908635 
L 151.859783 130.694824 
L 161.314576 132.766324 
L 170.769369 133.424096 
L 180.224162 136.253515 
L 189.678955 136.591492 
L 199.133747 138.1092 
L 208.58854 140.096942 
L 218.043333 140.891729 
L 227.498126 142.272541 
L 236.952919 143.596012 
L 246.407712 146.199197 
L 255.862505 146.986979 
L 265.317298 147.372702 
L 274.772091 148.794537 
L 284.226884 152.50766 
L 293.681676 152.050474 
L 303.136469 152.298154 
L 312.591262 153.664444 
L 322.046055 154.725885 
L 331.500848 154.396419 
L 340.955641 154.343382 
L 350.410434 155.589022 
L 359.865227 155.475608 
L 369.32002 155.926239 
L 378.774812 157.956593 
L 388.229605 158.436333 
L 397.684398 159.080157 
L 407.139191 159.42385 
L 416.593984 159.568623 
L 426.048777 159.899274 
L 435.50357 159.036608 
L 444.958363 159.890547 
L 454.413156 160.344902 
L 463.867948 161.489545 
L 473.322741 161.34474 
L 482.777534 161.535522 
L 492.232327 162.580475 
L 501.68712 161.957269 
L 511.141913 162.537572 
L 520.596706 162.813125 
L 530.051499 163.609402 
L 539.506292 162.996884 
L 548.961085 162.104287 
L 558.415877 161.278166 
" style="fill:none;stroke:#618df6;"/>
   </g>
   <g id="line2d_36">
    <path clip-path="url(#p36047f0b49)" d="M 66.766647 239.163795 
L 76.22144 212.081227 
L 85.676233 205.741887 
L 95.131026 209.836037 
L 104.585819 208.019034 
L 114.040611 205.985601 
L 123.495404 206.817841 
L 132.950197 208.628299 
L 142.40499 206.157597 
L 151.859783 206.942445 
L 161.314576 205.704692 
L 170.769369 205.121082 
L 180.224162 206.804785 
L 189.678955 204.962627 
L 199.133747 204.302536 
L 208.58854 204.968959 
L 218.043333 204.962565 
L 227.498126 204.522249 
L 236.952919 204.174133 
L 246.407712 205.080822 
L 255.862505 202.360491 
L 265.317298 203.777283 
L 274.772091 203.709339 
L 284.226884 202.278054 
L 293.681676 203.587308 
L 303.136469 202.43129 
L 312.591262 202.996252 
L 322.046055 202.749425 
L 331.500848 202.816136 
L 340.955641 202.534706 
L 350.410434 202.230565 
L 359.865227 203.131334 
L 369.32002 201.375953 
L 378.774812 201.973147 
L 388.229605 201.363863 
L 397.684398 202.106316 
L 407.139191 201.767527 
L 416.593984 200.689368 
L 426.048777 202.445792 
L 435.50357 200.984519 
L 444.958363 201.25772 
L 454.413156 201.344519 
L 463.867948 201.88668 
L 473.322741 201.070526 
L 482.777534 201.865325 
L 492.232327 199.868977 
L 501.68712 198.882332 
L 511.141913 200.970022 
L 520.596706 202.060635 
L 530.051499 200.967301 
L 539.506292 200.438562 
L 548.961085 200.561049 
L 558.415877 201.109263 
" style="fill:none;stroke:#f06073;"/>
   </g>
   <g id="line2d_37">
    <path clip-path="url(#p36047f0b49)" d="M 66.766647 91.236099 
L 76.22144 31.984642 
L 85.676233 19.942171 
L 95.131026 29.798291 
L 104.585819 27.097816 
L 114.040611 25.374522 
L 123.495404 28.505372 
L 132.950197 33.007442 
L 142.40499 30.336455 
L 151.859783 33.190744 
L 161.314576 32.202584 
L 170.769369 33.057335 
L 180.224162 36.856736 
L 189.678955 34.89266 
L 199.133747 34.765876 
L 208.58854 37.482442 
L 218.043333 39.54297 
L 227.498126 39.766968 
L 236.952919 39.843522 
L 246.407712 42.026054 
L 255.862505 37.693835 
L 265.317298 41.806583 
L 274.772091 42.341937 
L 284.226884 41.139236 
L 293.681676 44.259235 
L 303.136469 42.225547 
L 312.591262 44.589286 
L 322.046055 44.373349 
L 331.500848 45.277045 
L 340.955641 45.640053 
L 350.410434 45.47408 
L 359.865227 47.59532 
L 369.32002 44.400411 
L 378.774812 46.089056 
L 388.229605 45.574653 
L 397.684398 47.549831 
L 407.139191 47.17238 
L 416.593984 46.282226 
L 426.048777 49.725733 
L 435.50357 47.491601 
L 444.958363 48.901526 
L 454.413156 49.124114 
L 463.867948 50.982133 
L 473.322741 49.850681 
L 482.777534 51.554992 
L 492.232327 48.063599 
L 501.68712 47.030107 
L 511.141913 51.116728 
L 520.596706 52.803703 
L 530.051499 51.351836 
L 539.506292 50.731818 
L 548.961085 50.387064 
L 558.415877 51.653817 
" style="fill:none;stroke:#dd65b6;"/>
   </g>
   <g id="line2d_38">
    <path clip-path="url(#p36047f0b49)" d="M 66.766647 149.240101 
L 76.22144 123.483322 
L 85.676233 112.004393 
L 95.131026 119.305082 
L 104.585819 123.673868 
L 114.040611 122.95819 
L 123.495404 126.180292 
L 132.950197 131.172401 
L 142.40499 132.998934 
L 151.859783 132.33888 
L 161.314576 131.284535 
L 170.769369 134.657459 
L 180.224162 136.468121 
L 189.678955 138.26659 
L 199.133747 139.787537 
L 208.58854 140.885464 
L 218.043333 142.267954 
L 227.498126 144.507086 
L 236.952919 146.543891 
L 246.407712 144.694557 
L 255.862505 147.09164 
L 265.317298 147.982337 
L 274.772091 149.594679 
L 284.226884 148.347648 
L 293.681676 150.39648 
L 303.136469 152.061957 
L 312.591262 152.494596 
L 322.046055 152.555635 
L 331.500848 154.521759 
L 340.955641 156.137628 
L 350.410434 155.610038 
L 359.865227 159.392048 
L 369.32002 157.389407 
L 378.774812 157.819396 
L 388.229605 155.594559 
L 397.684398 156.615209 
L 407.139191 158.14117 
L 416.593984 158.109783 
L 426.048777 159.019353 
L 435.50357 160.630513 
L 444.958363 160.490767 
L 454.413156 160.495722 
L 463.867948 160.861595 
L 473.322741 160.861041 
L 482.777534 163.257793 
L 492.232327 162.612169 
L 501.68712 162.054351 
L 511.141913 162.116725 
L 520.596706 162.447924 
L 530.051499 162.692509 
L 539.506292 162.7735 
L 548.961085 161.625234 
L 558.415877 164.118282 
" style="fill:none;stroke:#6c9f33;"/>
   </g>
   <g id="line2d_39">
    <path clip-path="url(#p36047f0b49)" d="M 66.766647 87.38521 
L 76.22144 131.441253 
L 85.676233 134.028944 
L 95.131026 138.61003 
L 104.585819 148.535679 
L 114.040611 158.010466 
L 123.495404 165.697839 
L 132.950197 168.291673 
L 142.40499 167.798276 
L 151.859783 166.757595 
L 161.314576 169.055527 
L 170.769369 164.59148 
L 180.224162 163.623196 
L 189.678955 167.525175 
L 199.133747 167.887197 
L 208.58854 167.987455 
L 218.043333 168.765878 
L 227.498126 164.597708 
L 236.952919 166.128481 
L 246.407712 167.69538 
L 255.862505 168.502946 
L 265.317298 168.263891 
L 274.772091 167.266407 
L 284.226884 169.294779 
L 293.681676 168.123022 
L 303.136469 169.194073 
L 312.591262 167.671011 
L 322.046055 166.361455 
L 331.500848 168.851056 
L 340.955641 169.08428 
L 350.410434 167.952577 
L 359.865227 167.211112 
L 369.32002 170.293044 
L 378.774812 168.05955 
L 388.229605 171.014411 
L 397.684398 167.37241 
L 407.139191 168.514654 
L 416.593984 168.423427 
L 426.048777 165.867224 
L 435.50357 168.401351 
L 444.958363 166.071797 
L 454.413156 168.97334 
L 463.867948 168.116215 
L 473.322741 167.714525 
L 482.777534 168.505828 
L 492.232327 165.645661 
L 501.68712 166.587368 
L 511.141913 169.029646 
L 520.596706 165.514289 
L 530.051499 169.116195 
L 539.506292 168.165604 
L 548.961085 166.815041 
L 558.415877 168.317891 
" style="fill:none;stroke:#009afa;"/>
   </g>
   <g id="line2d_40">
    <path clip-path="url(#p36047f0b49)" d="M 66.766647 197.123701 
L 76.22144 164.291812 
L 85.676233 170.677118 
L 95.131026 164.159083 
L 104.585819 162.852185 
L 114.040611 165.843901 
L 123.495404 165.673478 
L 132.950197 167.616524 
L 142.40499 167.370839 
L 151.859783 167.83492 
L 161.314576 168.006299 
L 170.769369 166.884645 
L 180.224162 167.314229 
L 189.678955 167.132734 
L 199.133747 167.570974 
L 208.58854 167.831106 
L 218.043333 167.124076 
L 227.498126 167.642246 
L 236.952919 168.692313 
L 246.407712 168.106067 
L 255.862505 167.440327 
L 265.317298 167.595517 
L 274.772091 167.808875 
L 284.226884 168.637241 
L 293.681676 168.264783 
L 303.136469 167.384957 
L 312.591262 168.789464 
L 322.046055 167.605623 
L 331.500848 167.351761 
L 340.955641 167.060921 
L 350.410434 167.759601 
L 359.865227 167.638563 
L 369.32002 166.595244 
L 378.774812 167.689727 
L 388.229605 167.443143 
L 397.684398 168.281217 
L 407.139191 167.794018 
L 416.593984 167.554191 
L 426.048777 167.428551 
L 435.50357 168.134115 
L 444.958363 167.266994 
L 454.413156 168.227401 
L 463.867948 168.083539 
L 473.322741 167.971838 
L 482.777534 168.041098 
L 492.232327 167.981663 
L 501.68712 167.822563 
L 511.141913 168.90248 
L 520.596706 168.147501 
L 530.051499 167.927924 
L 539.506292 168.024996 
L 548.961085 168.956549 
L 558.415877 167.994925 
" style="fill:none;stroke:#e36f47;"/>
   </g>
   <g id="line2d_41">
    <path clip-path="url(#p36047f0b49)" d="M 66.766647 219.080236 
L 76.22144 239.222042 
L 85.676233 222.085447 
L 95.131026 216.797441 
L 104.585819 215.079192 
L 114.040611 216.371655 
L 123.495404 216.172108 
L 132.950197 219.141896 
L 142.40499 217.333473 
L 151.859783 218.798367 
L 161.314576 218.201358 
L 170.769369 216.077366 
L 180.224162 215.79551 
L 189.678955 214.588937 
L 199.133747 212.70694 
L 208.58854 212.813089 
L 218.043333 211.44007 
L 227.498126 209.619705 
L 236.952919 206.338984 
L 246.407712 206.760555 
L 255.862505 205.290151 
L 265.317298 203.235426 
L 274.772091 203.159972 
L 284.226884 200.31073 
L 293.681676 199.813634 
L 303.136469 198.216938 
L 312.591262 195.549584 
L 322.046055 195.562095 
L 331.500848 193.137338 
L 340.955641 192.578212 
L 350.410434 192.573011 
L 359.865227 188.861003 
L 369.32002 188.451853 
L 378.774812 188.827658 
L 388.229605 187.360246 
L 397.684398 186.017738 
L 407.139191 184.991763 
L 416.593984 185.250385 
L 426.048777 184.097529 
L 435.50357 181.932557 
L 444.958363 180.972378 
L 454.413156 180.819942 
L 463.867948 180.619166 
L 473.322741 180.985624 
L 482.777534 180.586441 
L 492.232327 180.083211 
L 501.68712 180.401041 
L 511.141913 179.386352 
L 520.596706 178.872133 
L 530.051499 179.982364 
L 539.506292 179.391989 
L 548.961085 178.731611 
L 558.415877 177.638281 
" style="fill:none;stroke:#3ea44e;"/>
   </g>
   <g id="line2d_42">
    <path clip-path="url(#p36047f0b49)" d="M 66.766647 127.68919 
L 76.22144 170.022249 
L 85.676233 174.560747 
L 95.131026 171.402357 
L 104.585819 170.383622 
L 114.040611 167.856767 
L 123.495404 167.338811 
L 132.950197 169.302397 
L 142.40499 170.288155 
L 151.859783 167.271538 
L 161.314576 169.840591 
L 170.769369 170.825219 
L 180.224162 169.300187 
L 189.678955 169.585522 
L 199.133747 169.601683 
L 208.58854 168.558229 
L 218.043333 168.994011 
L 227.498126 170.010677 
L 236.952919 168.208068 
L 246.407712 169.297922 
L 255.862505 171.085106 
L 265.317298 168.299133 
L 274.772091 168.374762 
L 284.226884 169.538362 
L 293.681676 169.070892 
L 303.136469 166.82736 
L 312.591262 165.358214 
L 322.046055 169.071509 
L 331.500848 169.509029 
L 340.955641 167.609079 
L 350.410434 170.01949 
L 359.865227 169.756518 
L 369.32002 168.668454 
L 378.774812 167.888058 
L 388.229605 169.733386 
L 397.684398 167.695414 
L 407.139191 168.477864 
L 416.593984 169.033668 
L 426.048777 170.704602 
L 435.50357 169.55347 
L 444.958363 168.260719 
L 454.413156 168.199659 
L 463.867948 169.055872 
L 473.322741 169.197458 
L 482.777534 168.073567 
L 492.232327 170.586242 
L 501.68712 170.007405 
L 511.141913 167.424454 
L 520.596706 168.550858 
L 530.051499 169.338796 
L 539.506292 168.68916 
L 548.961085 167.143069 
L 558.415877 168.342097 
" style="fill:none;stroke:#c371d2;"/>
   </g>
   <g id="line2d_43">
    <path clip-path="url(#p36047f0b49)" d="M 66.766647 223.638079 
L 76.22144 193.434111 
L 85.676233 196.72066 
L 95.131026 202.898259 
L 104.585819 208.764694 
L 114.040611 209.491954 
L 123.495404 202.275852 
L 132.950197 202.323416 
L 142.40499 200.549231 
L 151.859783 199.493412 
L 161.314576 196.567871 
L 170.769369 199.217755 
L 180.224162 204.474879 
L 189.678955 199.852889 
L 199.133747 196.732967 
L 208.58854 197.673603 
L 218.043333 198.186712 
L 227.498126 196.549805 
L 236.952919 193.840713 
L 246.407712 197.071655 
L 255.862505 197.922021 
L 265.317298 197.357928 
L 274.772091 195.523951 
L 284.226884 197.212171 
L 293.681676 199.165471 
L 303.136469 198.413262 
L 312.591262 198.495895 
L 322.046055 195.027318 
L 331.500848 195.148722 
L 340.955641 196.355441 
L 350.410434 201.616434 
L 359.865227 201.296964 
L 369.32002 200.398481 
L 378.774812 206.110933 
L 388.229605 203.902632 
L 397.684398 203.097742 
L 407.139191 199.854856 
L 416.593984 197.187586 
L 426.048777 193.566619 
L 435.50357 195.684374 
L 444.958363 196.065391 
L 454.413156 193.043802 
L 463.867948 192.788514 
L 473.322741 194.501728 
L 482.777534 197.054592 
L 492.232327 198.026354 
L 501.68712 202.458246 
L 511.141913 205.680879 
L 520.596706 208.994848 
L 530.051499 205.532187 
L 539.506292 199.265898 
L 548.961085 199.250844 
L 558.415877 195.107675 
" style="fill:none;stroke:#ac8e18;"/>
   </g>
   <g id="line2d_44">
    <path clip-path="url(#p36047f0b49)" d="M 66.766647 214.264317 
L 76.22144 183.358121 
L 85.676233 160.989634 
L 95.131026 166.57096 
L 104.585819 168.192132 
L 114.040611 168.029538 
L 123.495404 167.196258 
L 132.950197 168.087959 
L 142.40499 167.548461 
L 151.859783 167.836619 
L 161.314576 167.077188 
L 170.769369 167.596688 
L 180.224162 167.913211 
L 189.678955 168.344532 
L 199.133747 167.735197 
L 208.58854 167.84708 
L 218.043333 168.168349 
L 227.498126 167.572417 
L 236.952919 167.637564 
L 246.407712 167.790263 
L 255.862505 167.159746 
L 265.317298 168.316764 
L 274.772091 167.486949 
L 284.226884 167.362517 
L 293.681676 168.040473 
L 303.136469 168.146178 
L 312.591262 168.252715 
L 322.046055 167.766774 
L 331.500848 167.669044 
L 340.955641 168.381263 
L 350.410434 167.625202 
L 359.865227 167.067967 
L 369.32002 168.528392 
L 378.774812 167.396143 
L 388.229605 168.506167 
L 397.684398 167.816659 
L 407.139191 167.87429 
L 416.593984 168.183596 
L 426.048777 167.241689 
L 435.50357 167.071022 
L 444.958363 167.079926 
L 454.413156 167.946458 
L 463.867948 168.055067 
L 473.322741 167.46138 
L 482.777534 168.366396 
L 492.232327 167.443071 
L 501.68712 167.394996 
L 511.141913 167.995218 
L 520.596706 167.903807 
L 530.051499 168.297872 
L 539.506292 167.709947 
L 548.961085 167.775351 
L 558.415877 167.30972 
" style="fill:none;stroke:#00aaae;"/>
   </g>
   <g id="line2d_45">
    <path clip-path="url(#p36047f0b49)" d="M 66.766647 94.044214 
L 76.22144 140.734241 
L 85.676233 176.847629 
L 95.131026 172.95068 
L 104.585819 170.372228 
L 114.040611 167.793265 
L 123.495404 168.268821 
L 132.950197 168.62469 
L 142.40499 169.084819 
L 151.859783 168.489061 
L 161.314576 168.337651 
L 170.769369 167.874053 
L 180.224162 168.349795 
L 189.678955 168.460342 
L 199.133747 167.321164 
L 208.58854 169.011427 
L 218.043333 168.280415 
L 227.498126 168.301385 
L 236.952919 168.689682 
L 246.407712 168.078605 
L 255.862505 168.359164 
L 265.317298 167.633327 
L 274.772091 168.430904 
L 284.226884 167.870705 
L 293.681676 168.131991 
L 303.136469 168.446242 
L 312.591262 168.225031 
L 322.046055 167.679652 
L 331.500848 167.57155 
L 340.955641 169.180927 
L 350.410434 168.843849 
L 359.865227 168.097349 
L 369.32002 168.342674 
L 378.774812 168.506841 
L 388.229605 168.11552 
L 397.684398 168.693165 
L 407.139191 167.314493 
L 416.593984 168.676 
L 426.048777 168.374484 
L 435.50357 168.11662 
L 444.958363 168.126515 
L 454.413156 168.702412 
L 463.867948 167.988387 
L 473.322741 168.897032 
L 482.777534 168.626061 
L 492.232327 168.472163 
L 501.68712 168.881985 
L 511.141913 168.004804 
L 520.596706 168.217431 
L 530.051499 168.270659 
L 539.506292 166.914019 
L 548.961085 169.124018 
L 558.415877 167.959606 
" style="fill:none;stroke:#ed5e93;"/>
   </g>
   <g id="line2d_46">
    <path clip-path="url(#p36047f0b49)" d="M 66.766647 184.203992 
L 76.22144 204.787787 
L 85.676233 219.280324 
L 95.131026 204.404643 
L 104.585819 186.142995 
L 114.040611 171.275437 
L 123.495404 168.413955 
L 132.950197 167.360061 
L 142.40499 167.023845 
L 151.859783 166.730056 
L 161.314576 166.265156 
L 170.769369 167.184527 
L 180.224162 168.382113 
L 189.678955 168.101173 
L 199.133747 166.615539 
L 208.58854 168.371075 
L 218.043333 165.42599 
L 227.498126 166.949343 
L 236.952919 165.77767 
L 246.407712 169.32005 
L 255.862505 167.37369 
L 265.317298 166.805108 
L 274.772091 168.107912 
L 284.226884 167.704967 
L 293.681676 167.365466 
L 303.136469 168.946218 
L 312.591262 168.651104 
L 322.046055 168.60012 
L 331.500848 167.418296 
L 340.955641 168.576143 
L 350.410434 167.618473 
L 359.865227 167.382292 
L 369.32002 168.193442 
L 378.774812 168.408424 
L 388.229605 167.501183 
L 397.684398 170.344633 
L 407.139191 167.802596 
L 416.593984 167.467974 
L 426.048777 168.010342 
L 435.50357 170.09362 
L 444.958363 167.279313 
L 454.413156 168.464131 
L 463.867948 167.953837 
L 473.322741 169.430929 
L 482.777534 168.540292 
L 492.232327 169.226271 
L 501.68712 169.495493 
L 511.141913 168.334945 
L 520.596706 169.289131 
L 530.051499 169.241494 
L 539.506292 170.255458 
L 548.961085 170.24462 
L 558.415877 169.973454 
" style="fill:none;stroke:#c68225;"/>
   </g>
   <g id="line2d_47">
    <path clip-path="url(#p36047f0b49)" d="M 66.766647 113.08305 
L 76.22144 150.03105 
L 85.676233 172.035667 
L 95.131026 166.491358 
L 104.585819 164.145316 
L 114.040611 156.200395 
L 123.495404 155.494163 
L 132.950197 157.202029 
L 142.40499 160.093209 
L 151.859783 162.078415 
L 161.314576 161.18101 
L 170.769369 161.251107 
L 180.224162 160.346177 
L 189.678955 162.653476 
L 199.133747 161.705371 
L 208.58854 162.273049 
L 218.043333 162.07843 
L 227.498126 163.336498 
L 236.952919 161.966807 
L 246.407712 163.587428 
L 255.862505 163.271524 
L 265.317298 163.509002 
L 274.772091 163.50144 
L 284.226884 163.469107 
L 293.681676 164.190509 
L 303.136469 163.931644 
L 312.591262 164.394869 
L 322.046055 164.492055 
L 331.500848 164.036807 
L 340.955641 164.470051 
L 350.410434 164.769192 
L 359.865227 163.708887 
L 369.32002 162.89524 
L 378.774812 163.841667 
L 388.229605 164.665273 
L 397.684398 164.482144 
L 407.139191 166.213853 
L 416.593984 165.070764 
L 426.048777 164.261889 
L 435.50357 166.315341 
L 444.958363 164.562097 
L 454.413156 166.093823 
L 463.867948 165.281228 
L 473.322741 165.219003 
L 482.777534 164.46127 
L 492.232327 164.86373 
L 501.68712 164.514347 
L 511.141913 165.6147 
L 520.596706 164.31974 
L 530.051499 164.302327 
L 539.506292 165.599815 
L 548.961085 165.618117 
L 558.415877 163.895203 
" style="fill:none;stroke:#00a98d;"/>
   </g>
   <g id="line2d_48">
    <path clip-path="url(#p36047f0b49)" d="M 66.766647 243.301466 
L 76.22144 218.88655 
L 85.676233 197.98601 
L 95.131026 193.010274 
L 104.585819 179.193849 
L 114.040611 168.542716 
L 123.495404 168.863587 
L 132.950197 169.851884 
L 142.40499 168.4879 
L 151.859783 168.095072 
L 161.314576 169.866679 
L 170.769369 169.658384 
L 180.224162 168.924986 
L 189.678955 170.293725 
L 199.133747 169.5523 
L 208.58854 169.139388 
L 218.043333 168.134019 
L 227.498126 169.173862 
L 236.952919 169.800482 
L 246.407712 169.165148 
L 255.862505 169.851164 
L 265.317298 169.391304 
L 274.772091 168.719161 
L 284.226884 168.90813 
L 293.681676 169.109659 
L 303.136469 170.061422 
L 312.591262 168.188128 
L 322.046055 168.904141 
L 331.500848 169.801314 
L 340.955641 170.202382 
L 350.410434 168.960423 
L 359.865227 169.153857 
L 369.32002 168.187755 
L 378.774812 168.283282 
L 388.229605 168.605651 
L 397.684398 169.145393 
L 407.139191 169.587174 
L 416.593984 169.147713 
L 426.048777 169.651657 
L 435.50357 169.064451 
L 444.958363 168.317203 
L 454.413156 168.204227 
L 463.867948 168.945332 
L 473.322741 168.500143 
L 482.777534 169.338718 
L 492.232327 168.805833 
L 501.68712 168.270881 
L 511.141913 168.704788 
L 520.596706 168.470525 
L 530.051499 168.739234 
L 539.506292 168.38613 
L 548.961085 169.023013 
L 558.415877 168.153077 
" style="fill:none;stroke:#8e971e;"/>
   </g>
   <g id="line2d_49">
    <path clip-path="url(#p36047f0b49)" d="M 66.766647 236.665113 
L 76.22144 217.193836 
L 85.676233 231.304906 
L 95.131026 223.079314 
L 104.585819 221.477814 
L 114.040611 216.929456 
L 123.495404 214.319234 
L 132.950197 212.486302 
L 142.40499 209.031207 
L 151.859783 205.52357 
L 161.314576 204.318169 
L 170.769369 201.471398 
L 180.224162 198.005932 
L 189.678955 194.625956 
L 199.133747 192.851876 
L 208.58854 190.216021 
L 218.043333 185.18056 
L 227.498126 184.380729 
L 236.952919 183.613959 
L 246.407712 181.011204 
L 255.862505 179.315576 
L 265.317298 178.030689 
L 274.772091 176.363251 
L 284.226884 175.053849 
L 293.681676 174.830175 
L 303.136469 173.782563 
L 312.591262 173.776559 
L 322.046055 172.924289 
L 331.500848 171.603135 
L 340.955641 172.077963 
L 350.410434 171.624527 
L 359.865227 171.268507 
L 369.32002 170.97428 
L 378.774812 172.643702 
L 388.229605 171.194771 
L 397.684398 171.638989 
L 407.139191 170.046103 
L 416.593984 170.389227 
L 426.048777 170.071582 
L 435.50357 170.311972 
L 444.958363 170.058203 
L 454.413156 170.808133 
L 463.867948 170.895198 
L 473.322741 170.417454 
L 482.777534 170.21699 
L 492.232327 169.939366 
L 501.68712 169.621309 
L 511.141913 170.050953 
L 520.596706 169.587424 
L 530.051499 169.908097 
L 539.506292 171.120097 
L 548.961085 171.094082 
L 558.415877 170.526002 
" style="fill:none;stroke:#00a9cc;"/>
   </g>
   <g id="line2d_50">
    <path clip-path="url(#p36047f0b49)" d="M 66.766647 41.29008 
L 76.22144 17.496551 
L 85.676233 56.690632 
L 95.131026 101.203807 
L 104.585819 131.754295 
L 114.040611 163.281833 
L 123.495404 173.772667 
L 132.950197 170.00955 
L 142.40499 170.86317 
L 151.859783 169.013888 
L 161.314576 172.333909 
L 170.769369 168.580436 
L 180.224162 170.285183 
L 189.678955 171.72831 
L 199.133747 168.948567 
L 208.58854 167.575562 
L 218.043333 168.868762 
L 227.498126 168.872248 
L 236.952919 169.959897 
L 246.407712 167.839353 
L 255.862505 170.042143 
L 265.317298 168.241269 
L 274.772091 169.008396 
L 284.226884 169.35795 
L 293.681676 167.395552 
L 303.136469 168.905823 
L 312.591262 168.260682 
L 322.046055 168.143756 
L 331.500848 170.996244 
L 340.955641 165.786061 
L 350.410434 165.098578 
L 359.865227 170.585159 
L 369.32002 168.198309 
L 378.774812 167.664769 
L 388.229605 167.739673 
L 397.684398 166.463603 
L 407.139191 167.371699 
L 416.593984 169.40882 
L 426.048777 168.663451 
L 435.50357 168.105119 
L 444.958363 167.427428 
L 454.413156 168.712055 
L 463.867948 168.548226 
L 473.322741 168.777228 
L 482.777534 169.22922 
L 492.232327 167.349345 
L 501.68712 167.2508 
L 511.141913 169.150053 
L 520.596706 168.600267 
L 530.051499 168.450258 
L 539.506292 169.074836 
L 548.961085 166.905852 
L 558.415877 167.817746 
" style="fill:none;stroke:#9b7fe9;"/>
   </g>
   <g id="line2d_51">
    <path clip-path="url(#p36047f0b49)" d="M 66.766647 51.460877 
L 76.22144 9.838534 
L 85.676233 50.219816 
L 95.131026 51.661406 
L 104.585819 65.986523 
L 114.040611 74.115464 
L 123.495404 84.189197 
L 132.950197 92.946055 
L 142.40499 101.061711 
L 151.859783 107.769312 
L 161.314576 115.206719 
L 170.769369 119.742476 
L 180.224162 124.539126 
L 189.678955 129.198593 
L 199.133747 133.953228 
L 208.58854 133.743927 
L 218.043333 134.469536 
L 227.498126 138.622177 
L 236.952919 142.547201 
L 246.407712 145.253371 
L 255.862505 146.570859 
L 265.317298 147.394195 
L 274.772091 149.012688 
L 284.226884 150.496773 
L 293.681676 151.396424 
L 303.136469 153.616645 
L 312.591262 153.631205 
L 322.046055 154.663322 
L 331.500848 155.165968 
L 340.955641 155.964808 
L 350.410434 155.194995 
L 359.865227 156.651216 
L 369.32002 156.759019 
L 378.774812 158.361358 
L 388.229605 157.736614 
L 397.684398 159.835968 
L 407.139191 160.968192 
L 416.593984 161.023894 
L 426.048777 162.34119 
L 435.50357 159.207499 
L 444.958363 158.702538 
L 454.413156 158.712626 
L 463.867948 160.245271 
L 473.322741 159.097665 
L 482.777534 160.09694 
L 492.232327 160.727522 
L 501.68712 160.850635 
L 511.141913 159.350306 
L 520.596706 158.990199 
L 530.051499 159.336319 
L 539.506292 159.076027 
L 548.961085 155.684449 
L 558.415877 153.331473 
" style="fill:none;stroke:#618df6;"/>
   </g>
   <g id="line2d_52">
    <path clip-path="url(#p36047f0b49)" d="M 66.766647 151.377722 
L 76.22144 181.328753 
L 85.676233 165.015815 
L 95.131026 163.236177 
L 104.585819 160.162985 
L 114.040611 161.98393 
L 123.495404 163.23392 
L 132.950197 163.288622 
L 142.40499 164.613627 
L 151.859783 166.382376 
L 161.314576 165.95834 
L 170.769369 165.178466 
L 180.224162 165.802501 
L 189.678955 166.003192 
L 199.133747 165.737907 
L 208.58854 166.222328 
L 218.043333 165.748919 
L 227.498126 165.792704 
L 236.952919 164.757484 
L 246.407712 164.893775 
L 255.862505 165.391551 
L 265.317298 166.012032 
L 274.772091 166.047516 
L 284.226884 165.565283 
L 293.681676 166.232747 
L 303.136469 165.078714 
L 312.591262 166.53186 
L 322.046055 165.642394 
L 331.500848 166.403456 
L 340.955641 164.764442 
L 350.410434 164.809812 
L 359.865227 165.439916 
L 369.32002 167.102257 
L 378.774812 164.732609 
L 388.229605 166.390551 
L 397.684398 165.485083 
L 407.139191 165.819802 
L 416.593984 165.658832 
L 426.048777 165.605597 
L 435.50357 165.732373 
L 444.958363 166.597703 
L 454.413156 165.699434 
L 463.867948 165.985715 
L 473.322741 165.53541 
L 482.777534 167.082052 
L 492.232327 165.964662 
L 501.68712 166.574715 
L 511.141913 167.13633 
L 520.596706 166.107554 
L 530.051499 166.327547 
L 539.506292 165.437618 
L 548.961085 165.6351 
L 558.415877 167.18281 
" style="fill:none;stroke:#f06073;"/>
   </g>
   <g id="line2d_53">
    <path clip-path="url(#p36047f0b49)" d="M 66.766647 200.433566 
L 76.22144 195.325095 
L 85.676233 183.313546 
L 95.131026 187.936975 
L 104.585819 186.252084 
L 114.040611 185.15413 
L 123.495404 185.202235 
L 132.950197 183.664743 
L 142.40499 183.023316 
L 151.859783 181.882224 
L 161.314576 178.923569 
L 170.769369 179.109276 
L 180.224162 178.580906 
L 189.678955 178.886042 
L 199.133747 178.411878 
L 208.58854 178.400231 
L 218.043333 178.259555 
L 227.498126 178.02864 
L 236.952919 175.857127 
L 246.407712 176.223778 
L 255.862505 177.858502 
L 265.317298 176.394798 
L 274.772091 174.732793 
L 284.226884 173.968863 
L 293.681676 174.588996 
L 303.136469 174.349973 
L 312.591262 173.63674 
L 322.046055 173.954518 
L 331.500848 172.95284 
L 340.955641 173.933841 
L 350.410434 171.944251 
L 359.865227 172.041655 
L 369.32002 172.78166 
L 378.774812 172.179632 
L 388.229605 172.608294 
L 397.684398 171.149284 
L 407.139191 172.522873 
L 416.593984 171.931011 
L 426.048777 171.087875 
L 435.50357 170.767057 
L 444.958363 171.350799 
L 454.413156 171.011743 
L 463.867948 171.014847 
L 473.322741 170.380397 
L 482.777534 170.781797 
L 492.232327 171.128376 
L 501.68712 170.185078 
L 511.141913 170.701271 
L 520.596706 170.483547 
L 530.051499 171.031814 
L 539.506292 169.575354 
L 548.961085 169.167661 
L 558.415877 170.486273 
" style="fill:none;stroke:#dd65b6;"/>
   </g>
   <g id="line2d_54">
    <path clip-path="url(#p36047f0b49)" d="M 66.766647 136.345522 
L 76.22144 155.162517 
L 85.676233 173.677638 
L 95.131026 169.302414 
L 104.585819 171.974979 
L 114.040611 170.400397 
L 123.495404 170.88804 
L 132.950197 170.211099 
L 142.40499 170.313166 
L 151.859783 169.528757 
L 161.314576 170.23076 
L 170.769369 170.610918 
L 180.224162 169.816148 
L 189.678955 170.447096 
L 199.133747 170.640893 
L 208.58854 168.996808 
L 218.043333 169.597488 
L 227.498126 169.699369 
L 236.952919 171.116411 
L 246.407712 169.556257 
L 255.862505 168.425457 
L 265.317298 169.595648 
L 274.772091 169.656085 
L 284.226884 169.69485 
L 293.681676 170.104141 
L 303.136469 169.456908 
L 312.591262 168.932796 
L 322.046055 169.126367 
L 331.500848 169.4541 
L 340.955641 169.307222 
L 350.410434 169.979072 
L 359.865227 169.318502 
L 369.32002 169.624372 
L 378.774812 168.626604 
L 388.229605 169.494506 
L 397.684398 168.86503 
L 407.139191 169.071571 
L 416.593984 169.143062 
L 426.048777 169.203601 
L 435.50357 169.79582 
L 444.958363 168.656812 
L 454.413156 169.965424 
L 463.867948 168.648108 
L 473.322741 169.403068 
L 482.777534 170.689938 
L 492.232327 170.02179 
L 501.68712 168.389919 
L 511.141913 169.938132 
L 520.596706 168.954457 
L 530.051499 168.364638 
L 539.506292 170.268783 
L 548.961085 169.88332 
L 558.415877 168.777447 
" style="fill:none;stroke:#6c9f33;"/>
   </g>
   <g id="line2d_55">
    <path clip-path="url(#p36047f0b49)" d="M 66.766647 157.632158 
L 76.22144 148.208011 
L 85.676233 154.683872 
L 95.131026 159.694751 
L 104.585819 166.732252 
L 114.040611 168.197096 
L 123.495404 167.762729 
L 132.950197 167.427901 
L 142.40499 166.343008 
L 151.859783 168.223996 
L 161.314576 168.124584 
L 170.769369 167.996159 
L 180.224162 169.365855 
L 189.678955 167.92371 
L 199.133747 167.943969 
L 208.58854 168.090266 
L 218.043333 168.287332 
L 227.498126 168.026236 
L 236.952919 167.993586 
L 246.407712 167.879848 
L 255.862505 167.437907 
L 265.317298 168.809544 
L 274.772091 168.076896 
L 284.226884 168.56604 
L 293.681676 168.4325 
L 303.136469 167.192419 
L 312.591262 167.971112 
L 322.046055 167.380906 
L 331.500848 167.881535 
L 340.955641 167.673955 
L 350.410434 167.007242 
L 359.865227 167.332572 
L 369.32002 167.785127 
L 378.774812 167.516919 
L 388.229605 168.530518 
L 397.684398 168.357083 
L 407.139191 167.600073 
L 416.593984 168.393042 
L 426.048777 166.867425 
L 435.50357 167.657379 
L 444.958363 167.98699 
L 454.413156 167.530377 
L 463.867948 167.128004 
L 473.322741 167.50198 
L 482.777534 168.186455 
L 492.232327 166.973066 
L 501.68712 167.29766 
L 511.141913 167.960533 
L 520.596706 168.281149 
L 530.051499 168.335179 
L 539.506292 166.119292 
L 548.961085 168.380004 
L 558.415877 167.95899 
" style="fill:none;stroke:#009afa;"/>
   </g>
   <g id="line2d_56">
    <path clip-path="url(#p36047f0b49)" d="M 66.766647 159.244748 
L 76.22144 159.380067 
L 85.676233 173.008696 
L 95.131026 169.171135 
L 104.585819 171.175729 
L 114.040611 169.282124 
L 123.495404 169.615509 
L 132.950197 170.383889 
L 142.40499 169.222558 
L 151.859783 169.484946 
L 161.314576 169.830071 
L 170.769369 171.013816 
L 180.224162 169.689955 
L 189.678955 170.291591 
L 199.133747 169.425891 
L 208.58854 169.063754 
L 218.043333 169.460649 
L 227.498126 169.158995 
L 236.952919 168.42816 
L 246.407712 169.035914 
L 255.862505 168.594819 
L 265.317298 168.053444 
L 274.772091 169.23434 
L 284.226884 168.44527 
L 293.681676 168.92538 
L 303.136469 168.718013 
L 312.591262 169.007306 
L 322.046055 169.204463 
L 331.500848 169.529147 
L 340.955641 169.538216 
L 350.410434 169.840042 
L 359.865227 169.308458 
L 369.32002 168.704473 
L 378.774812 168.776877 
L 388.229605 168.323471 
L 397.684398 169.195286 
L 407.139191 168.95524 
L 416.593984 168.219391 
L 426.048777 169.723446 
L 435.50357 169.14989 
L 444.958363 168.651177 
L 454.413156 168.567592 
L 463.867948 169.289793 
L 473.322741 168.506722 
L 482.777534 168.554292 
L 492.232327 168.208583 
L 501.68712 168.409452 
L 511.141913 168.003129 
L 520.596706 169.002543 
L 530.051499 169.488698 
L 539.506292 169.322538 
L 548.961085 169.272098 
L 558.415877 169.609685 
" style="fill:none;stroke:#e36f47;"/>
   </g>
   <g id="line2d_57">
    <path clip-path="url(#p36047f0b49)" d="M 66.766647 53.340373 
L 76.22144 86.982507 
L 85.676233 67.18489 
L 95.131026 82.435555 
L 104.585819 95.742164 
L 114.040611 102.849748 
L 123.495404 110.753213 
L 132.950197 118.937899 
L 142.40499 125.734447 
L 151.859783 130.265433 
L 161.314576 138.376282 
L 170.769369 139.352022 
L 180.224162 144.763374 
L 189.678955 146.88559 
L 199.133747 151.297559 
L 208.58854 152.255887 
L 218.043333 151.842739 
L 227.498126 156.111672 
L 236.952919 159.369256 
L 246.407712 161.68008 
L 255.862505 159.366337 
L 265.317298 159.304264 
L 274.772091 162.015447 
L 284.226884 163.411898 
L 293.681676 161.857878 
L 303.136469 160.729657 
L 312.591262 164.359283 
L 322.046055 162.900022 
L 331.500848 164.917676 
L 340.955641 164.956191 
L 350.410434 165.46394 
L 359.865227 164.834063 
L 369.32002 163.049189 
L 378.774812 161.755573 
L 388.229605 161.353143 
L 397.684398 162.699451 
L 407.139191 162.888665 
L 416.593984 162.48533 
L 426.048777 163.94613 
L 435.50357 164.039423 
L 444.958363 162.820959 
L 454.413156 164.12395 
L 463.867948 162.517112 
L 473.322741 160.609704 
L 482.777534 160.568019 
L 492.232327 160.739103 
L 501.68712 159.744631 
L 511.141913 160.08338 
L 520.596706 160.708504 
L 530.051499 162.077186 
L 539.506292 162.011971 
L 548.961085 160.444848 
L 558.415877 160.28212 
" style="fill:none;stroke:#3ea44e;"/>
   </g>
   <g id="line2d_58">
    <path clip-path="url(#p36047f0b49)" d="M 66.766647 146.892784 
L 76.22144 127.707176 
L 85.676233 152.633107 
L 95.131026 148.988578 
L 104.585819 147.702994 
L 114.040611 152.755082 
L 123.495404 155.865843 
L 132.950197 155.961796 
L 142.40499 158.113943 
L 151.859783 161.536087 
L 161.314576 157.866176 
L 170.769369 159.971756 
L 180.224162 160.103553 
L 189.678955 162.123549 
L 199.133747 162.725532 
L 208.58854 164.321973 
L 218.043333 166.629405 
L 227.498126 166.421656 
L 236.952919 166.054084 
L 246.407712 166.782478 
L 255.862505 168.304899 
L 265.317298 168.098989 
L 274.772091 166.077278 
L 284.226884 165.494823 
L 293.681676 167.447545 
L 303.136469 169.331353 
L 312.591262 165.847201 
L 322.046055 167.326638 
L 331.500848 166.65501 
L 340.955641 166.451917 
L 350.410434 165.470766 
L 359.865227 167.170166 
L 369.32002 166.413973 
L 378.774812 168.658569 
L 388.229605 167.570557 
L 397.684398 165.685122 
L 407.139191 166.283032 
L 416.593984 166.732678 
L 426.048777 166.319124 
L 435.50357 166.431686 
L 444.958363 167.244608 
L 454.413156 166.004936 
L 463.867948 167.299284 
L 473.322741 167.236361 
L 482.777534 167.159372 
L 492.232327 166.725156 
L 501.68712 166.024802 
L 511.141913 165.682561 
L 520.596706 166.357666 
L 530.051499 166.267794 
L 539.506292 166.004073 
L 548.961085 164.833505 
L 558.415877 164.999278 
" style="fill:none;stroke:#c371d2;"/>
   </g>
   <g id="line2d_59">
    <path clip-path="url(#p36047f0b49)" d="M 66.766647 209.821801 
L 76.22144 177.646599 
L 85.676233 164.481929 
L 95.131026 167.030374 
L 104.585819 166.729111 
L 114.040611 169.355879 
L 123.495404 170.368335 
L 132.950197 170.113596 
L 142.40499 168.548292 
L 151.859783 170.199263 
L 161.314576 168.523826 
L 170.769369 168.739568 
L 180.224162 169.40765 
L 189.678955 168.972402 
L 199.133747 169.871624 
L 208.58854 169.260676 
L 218.043333 169.208841 
L 227.498126 167.957205 
L 236.952919 168.553886 
L 246.407712 169.534659 
L 255.862505 169.42662 
L 265.317298 168.845202 
L 274.772091 168.467212 
L 284.226884 168.291232 
L 293.681676 169.513091 
L 303.136469 168.805055 
L 312.591262 169.367169 
L 322.046055 168.937001 
L 331.500848 167.710849 
L 340.955641 168.985374 
L 350.410434 168.501364 
L 359.865227 168.027444 
L 369.32002 167.853922 
L 378.774812 168.295171 
L 388.229605 167.729381 
L 397.684398 169.029217 
L 407.139191 168.26784 
L 416.593984 168.38624 
L 426.048777 169.24577 
L 435.50357 167.518101 
L 444.958363 168.179259 
L 454.413156 168.443936 
L 463.867948 168.559065 
L 473.322741 168.639379 
L 482.777534 168.698944 
L 492.232327 168.628937 
L 501.68712 167.8175 
L 511.141913 168.093927 
L 520.596706 167.868222 
L 530.051499 168.45802 
L 539.506292 167.572442 
L 548.961085 167.599827 
L 558.415877 167.787674 
" style="fill:none;stroke:#ac8e18;"/>
   </g>
  </g>
 </g>
 <defs>
  <clipPath id="p36047f0b49">
   <rect height="247.470709" width="521.148184" x="52.01717" y="2.834646"/>
  </clipPath>
 </defs>
</svg>
