<?xml version="1.0" encoding="utf-8" standalone="no"?>
<!DOCTYPE svg PUBLIC "-//W3C//DTD SVG 1.1//EN"
  "http://www.w3.org/Graphics/SVG/1.1/DTD/svg11.dtd">
<!-- Created with matplotlib (https://matplotlib.org/) -->
<svg height="144pt" version="1.1" viewBox="0 0 576 144" width="576pt" xmlns="http://www.w3.org/2000/svg" xmlns:xlink="http://www.w3.org/1999/xlink">
 <metadata>
  <rdf:RDF xmlns:cc="http://creativecommons.org/ns#" xmlns:dc="http://purl.org/dc/elements/1.1/" xmlns:rdf="http://www.w3.org/1999/02/22-rdf-syntax-ns#">
   <cc:Work>
    <dc:type rdf:resource="http://purl.org/dc/dcmitype/StillImage"/>
    <dc:date>2021-06-14T15:34:48.696510</dc:date>
    <dc:format>image/svg+xml</dc:format>
    <dc:creator>
     <cc:Agent>
      <dc:title>Matplotlib v3.3.2, https://matplotlib.org/</dc:title>
     </cc:Agent>
    </dc:creator>
   </cc:Work>
  </rdf:RDF>
 </metadata>
 <defs>
  <style type="text/css">*{stroke-linecap:butt;stroke-linejoin:round;}</style>
 </defs>
 <g id="figure_1">
  <g id="patch_1">
   <path d="M 0 144 
L 576 144 
L 576 0 
L 0 0 
z
" style="fill:#ffffff;"/>
  </g>
  <g id="axes_1">
   <g id="patch_2">
    <path d="M 33.61717 106.305354 
L 473.595354 106.305354 
L 473.595354 2.834646 
L 33.61717 2.834646 
z
" style="fill:#ffffff;"/>
   </g>
   <g id="matplotlib.axis_1">
    <g id="xtick_1">
     <g id="line2d_1">
      <path clip-path="url(#p33fd327506)" d="M 44.272527 106.305354 
L 44.272527 2.834646 
" style="fill:none;stroke:#000000;stroke-linecap:square;stroke-opacity:0.1;stroke-width:0.5;"/>
     </g>
     <g id="line2d_2">
      <defs>
       <path d="M 0 0 
L 0 -2.5 
" id="m509180b49c" style="stroke:#000000;stroke-width:0.5;"/>
      </defs>
      <g>
       <use style="stroke:#000000;stroke-width:0.5;" x="44.272527" xlink:href="#m509180b49c" y="106.305354"/>
      </g>
     </g>
     <g id="text_1">
      <!-- $\mathregular{0}$ -->
      <g transform="translate(40.432527 118.923479)scale(0.12 -0.12)">
       <defs>
        <path d="M 31.78125 66.40625 
Q 24.171875 66.40625 20.328125 58.90625 
Q 16.5 51.421875 16.5 36.375 
Q 16.5 21.390625 20.328125 13.890625 
Q 24.171875 6.390625 31.78125 6.390625 
Q 39.453125 6.390625 43.28125 13.890625 
Q 47.125 21.390625 47.125 36.375 
Q 47.125 51.421875 43.28125 58.90625 
Q 39.453125 66.40625 31.78125 66.40625 
z
M 31.78125 74.21875 
Q 44.046875 74.21875 50.515625 64.515625 
Q 56.984375 54.828125 56.984375 36.375 
Q 56.984375 17.96875 50.515625 8.265625 
Q 44.046875 -1.421875 31.78125 -1.421875 
Q 19.53125 -1.421875 13.0625 8.265625 
Q 6.59375 17.96875 6.59375 36.375 
Q 6.59375 54.828125 13.0625 64.515625 
Q 19.53125 74.21875 31.78125 74.21875 
z
" id="DejaVuSans-48"/>
       </defs>
       <use transform="translate(0 0.78125)" xlink:href="#DejaVuSans-48"/>
      </g>
     </g>
    </g>
    <g id="xtick_2">
     <g id="line2d_3">
      <path clip-path="url(#p33fd327506)" d="M 134.115332 106.305354 
L 134.115332 2.834646 
" style="fill:none;stroke:#000000;stroke-linecap:square;stroke-opacity:0.1;stroke-width:0.5;"/>
     </g>
     <g id="line2d_4">
      <g>
       <use style="stroke:#000000;stroke-width:0.5;" x="134.115332" xlink:href="#m509180b49c" y="106.305354"/>
      </g>
     </g>
     <g id="text_2">
      <!-- $\mathregular{50}$ -->
      <g transform="translate(126.435332 118.923479)scale(0.12 -0.12)">
       <defs>
        <path d="M 10.796875 72.90625 
L 49.515625 72.90625 
L 49.515625 64.59375 
L 19.828125 64.59375 
L 19.828125 46.734375 
Q 21.96875 47.46875 24.109375 47.828125 
Q 26.265625 48.1875 28.421875 48.1875 
Q 40.625 48.1875 47.75 41.5 
Q 54.890625 34.8125 54.890625 23.390625 
Q 54.890625 11.625 47.5625 5.09375 
Q 40.234375 -1.421875 26.90625 -1.421875 
Q 22.3125 -1.421875 17.546875 -0.640625 
Q 12.796875 0.140625 7.71875 1.703125 
L 7.71875 11.625 
Q 12.109375 9.234375 16.796875 8.0625 
Q 21.484375 6.890625 26.703125 6.890625 
Q 35.15625 6.890625 40.078125 11.328125 
Q 45.015625 15.765625 45.015625 23.390625 
Q 45.015625 31 40.078125 35.4375 
Q 35.15625 39.890625 26.703125 39.890625 
Q 22.75 39.890625 18.8125 39.015625 
Q 14.890625 38.140625 10.796875 36.28125 
z
" id="DejaVuSans-53"/>
       </defs>
       <use transform="translate(0 0.78125)" xlink:href="#DejaVuSans-53"/>
       <use transform="translate(63.623047 0.78125)" xlink:href="#DejaVuSans-48"/>
      </g>
     </g>
    </g>
    <g id="xtick_3">
     <g id="line2d_5">
      <path clip-path="url(#p33fd327506)" d="M 223.958137 106.305354 
L 223.958137 2.834646 
" style="fill:none;stroke:#000000;stroke-linecap:square;stroke-opacity:0.1;stroke-width:0.5;"/>
     </g>
     <g id="line2d_6">
      <g>
       <use style="stroke:#000000;stroke-width:0.5;" x="223.958137" xlink:href="#m509180b49c" y="106.305354"/>
      </g>
     </g>
     <g id="text_3">
      <!-- $\mathregular{100}$ -->
      <g transform="translate(212.498137 118.923479)scale(0.12 -0.12)">
       <defs>
        <path d="M 12.40625 8.296875 
L 28.515625 8.296875 
L 28.515625 63.921875 
L 10.984375 60.40625 
L 10.984375 69.390625 
L 28.421875 72.90625 
L 38.28125 72.90625 
L 38.28125 8.296875 
L 54.390625 8.296875 
L 54.390625 0 
L 12.40625 0 
z
" id="DejaVuSans-49"/>
       </defs>
       <use transform="translate(0 0.78125)" xlink:href="#DejaVuSans-49"/>
       <use transform="translate(63.623047 0.78125)" xlink:href="#DejaVuSans-48"/>
       <use transform="translate(127.246094 0.78125)" xlink:href="#DejaVuSans-48"/>
      </g>
     </g>
    </g>
    <g id="xtick_4">
     <g id="line2d_7">
      <path clip-path="url(#p33fd327506)" d="M 313.800942 106.305354 
L 313.800942 2.834646 
" style="fill:none;stroke:#000000;stroke-linecap:square;stroke-opacity:0.1;stroke-width:0.5;"/>
     </g>
     <g id="line2d_8">
      <g>
       <use style="stroke:#000000;stroke-width:0.5;" x="313.800942" xlink:href="#m509180b49c" y="106.305354"/>
      </g>
     </g>
     <g id="text_4">
      <!-- $\mathregular{150}$ -->
      <g transform="translate(302.340942 118.923479)scale(0.12 -0.12)">
       <use transform="translate(0 0.78125)" xlink:href="#DejaVuSans-49"/>
       <use transform="translate(63.623047 0.78125)" xlink:href="#DejaVuSans-53"/>
       <use transform="translate(127.246094 0.78125)" xlink:href="#DejaVuSans-48"/>
      </g>
     </g>
    </g>
    <g id="xtick_5">
     <g id="line2d_9">
      <path clip-path="url(#p33fd327506)" d="M 403.643746 106.305354 
L 403.643746 2.834646 
" style="fill:none;stroke:#000000;stroke-linecap:square;stroke-opacity:0.1;stroke-width:0.5;"/>
     </g>
     <g id="line2d_10">
      <g>
       <use style="stroke:#000000;stroke-width:0.5;" x="403.643746" xlink:href="#m509180b49c" y="106.305354"/>
      </g>
     </g>
     <g id="text_5">
      <!-- $\mathregular{200}$ -->
      <g transform="translate(392.183746 118.923479)scale(0.12 -0.12)">
       <defs>
        <path d="M 19.1875 8.296875 
L 53.609375 8.296875 
L 53.609375 0 
L 7.328125 0 
L 7.328125 8.296875 
Q 12.9375 14.109375 22.625 23.890625 
Q 32.328125 33.6875 34.8125 36.53125 
Q 39.546875 41.84375 41.421875 45.53125 
Q 43.3125 49.21875 43.3125 52.78125 
Q 43.3125 58.59375 39.234375 62.25 
Q 35.15625 65.921875 28.609375 65.921875 
Q 23.96875 65.921875 18.8125 64.3125 
Q 13.671875 62.703125 7.8125 59.421875 
L 7.8125 69.390625 
Q 13.765625 71.78125 18.9375 73 
Q 24.125 74.21875 28.421875 74.21875 
Q 39.75 74.21875 46.484375 68.546875 
Q 53.21875 62.890625 53.21875 53.421875 
Q 53.21875 48.921875 51.53125 44.890625 
Q 49.859375 40.875 45.40625 35.40625 
Q 44.1875 33.984375 37.640625 27.21875 
Q 31.109375 20.453125 19.1875 8.296875 
z
" id="DejaVuSans-50"/>
       </defs>
       <use transform="translate(0 0.78125)" xlink:href="#DejaVuSans-50"/>
       <use transform="translate(63.623047 0.78125)" xlink:href="#DejaVuSans-48"/>
       <use transform="translate(127.246094 0.78125)" xlink:href="#DejaVuSans-48"/>
      </g>
     </g>
    </g>
    <g id="text_6">
     <!-- Index -->
     <g transform="translate(231.580012 137.576604)scale(0.16 -0.16)">
      <defs>
       <path d="M 9.8125 72.90625 
L 19.671875 72.90625 
L 19.671875 0 
L 9.8125 0 
z
" id="DejaVuSans-73"/>
       <path d="M 54.890625 33.015625 
L 54.890625 0 
L 45.90625 0 
L 45.90625 32.71875 
Q 45.90625 40.484375 42.875 44.328125 
Q 39.84375 48.1875 33.796875 48.1875 
Q 26.515625 48.1875 22.3125 43.546875 
Q 18.109375 38.921875 18.109375 30.90625 
L 18.109375 0 
L 9.078125 0 
L 9.078125 54.6875 
L 18.109375 54.6875 
L 18.109375 46.1875 
Q 21.34375 51.125 25.703125 53.5625 
Q 30.078125 56 35.796875 56 
Q 45.21875 56 50.046875 50.171875 
Q 54.890625 44.34375 54.890625 33.015625 
z
" id="DejaVuSans-110"/>
       <path d="M 45.40625 46.390625 
L 45.40625 75.984375 
L 54.390625 75.984375 
L 54.390625 0 
L 45.40625 0 
L 45.40625 8.203125 
Q 42.578125 3.328125 38.25 0.953125 
Q 33.9375 -1.421875 27.875 -1.421875 
Q 17.96875 -1.421875 11.734375 6.484375 
Q 5.515625 14.40625 5.515625 27.296875 
Q 5.515625 40.1875 11.734375 48.09375 
Q 17.96875 56 27.875 56 
Q 33.9375 56 38.25 53.625 
Q 42.578125 51.265625 45.40625 46.390625 
z
M 14.796875 27.296875 
Q 14.796875 17.390625 18.875 11.75 
Q 22.953125 6.109375 30.078125 6.109375 
Q 37.203125 6.109375 41.296875 11.75 
Q 45.40625 17.390625 45.40625 27.296875 
Q 45.40625 37.203125 41.296875 42.84375 
Q 37.203125 48.484375 30.078125 48.484375 
Q 22.953125 48.484375 18.875 42.84375 
Q 14.796875 37.203125 14.796875 27.296875 
z
" id="DejaVuSans-100"/>
       <path d="M 56.203125 29.59375 
L 56.203125 25.203125 
L 14.890625 25.203125 
Q 15.484375 15.921875 20.484375 11.0625 
Q 25.484375 6.203125 34.421875 6.203125 
Q 39.59375 6.203125 44.453125 7.46875 
Q 49.3125 8.734375 54.109375 11.28125 
L 54.109375 2.78125 
Q 49.265625 0.734375 44.1875 -0.34375 
Q 39.109375 -1.421875 33.890625 -1.421875 
Q 20.796875 -1.421875 13.15625 6.1875 
Q 5.515625 13.8125 5.515625 26.8125 
Q 5.515625 40.234375 12.765625 48.109375 
Q 20.015625 56 32.328125 56 
Q 43.359375 56 49.78125 48.890625 
Q 56.203125 41.796875 56.203125 29.59375 
z
M 47.21875 32.234375 
Q 47.125 39.59375 43.09375 43.984375 
Q 39.0625 48.390625 32.421875 48.390625 
Q 24.90625 48.390625 20.390625 44.140625 
Q 15.875 39.890625 15.1875 32.171875 
z
" id="DejaVuSans-101"/>
       <path d="M 54.890625 54.6875 
L 35.109375 28.078125 
L 55.90625 0 
L 45.3125 0 
L 29.390625 21.484375 
L 13.484375 0 
L 2.875 0 
L 24.125 28.609375 
L 4.6875 54.6875 
L 15.28125 54.6875 
L 29.78125 35.203125 
L 44.28125 54.6875 
z
" id="DejaVuSans-120"/>
      </defs>
      <use xlink:href="#DejaVuSans-73"/>
      <use x="29.492188" xlink:href="#DejaVuSans-110"/>
      <use x="92.871094" xlink:href="#DejaVuSans-100"/>
      <use x="156.347656" xlink:href="#DejaVuSans-101"/>
      <use x="216.121094" xlink:href="#DejaVuSans-120"/>
     </g>
    </g>
   </g>
   <g id="matplotlib.axis_2">
    <g id="ytick_1">
     <g id="line2d_11">
      <path clip-path="url(#p33fd327506)" d="M 33.61717 90.954169 
L 473.595354 90.954169 
" style="fill:none;stroke:#000000;stroke-linecap:square;stroke-opacity:0.1;stroke-width:0.5;"/>
     </g>
     <g id="line2d_12">
      <defs>
       <path d="M 0 0 
L 2.5 0 
" id="md691ad8d6e" style="stroke:#000000;stroke-width:0.5;"/>
      </defs>
      <g>
       <use style="stroke:#000000;stroke-width:0.5;" x="33.61717" xlink:href="#md691ad8d6e" y="90.954169"/>
      </g>
     </g>
     <g id="text_7">
      <!-- $\mathregular{0.75}$ -->
      <g transform="translate(4.31717 95.513231)scale(0.12 -0.12)">
       <defs>
        <path d="M 10.6875 12.40625 
L 21 12.40625 
L 21 0 
L 10.6875 0 
z
" id="DejaVuSans-46"/>
        <path d="M 8.203125 72.90625 
L 55.078125 72.90625 
L 55.078125 68.703125 
L 28.609375 0 
L 18.3125 0 
L 43.21875 64.59375 
L 8.203125 64.59375 
z
" id="DejaVuSans-55"/>
       </defs>
       <use transform="translate(0 0.78125)" xlink:href="#DejaVuSans-48"/>
       <use transform="translate(63.623047 0.78125)" xlink:href="#DejaVuSans-46"/>
       <use transform="translate(87.660156 0.78125)" xlink:href="#DejaVuSans-55"/>
       <use transform="translate(151.283203 0.78125)" xlink:href="#DejaVuSans-53"/>
      </g>
     </g>
    </g>
    <g id="ytick_2">
     <g id="line2d_13">
      <path clip-path="url(#p33fd327506)" d="M 33.61717 67.291718 
L 473.595354 67.291718 
" style="fill:none;stroke:#000000;stroke-linecap:square;stroke-opacity:0.1;stroke-width:0.5;"/>
     </g>
     <g id="line2d_14">
      <g>
       <use style="stroke:#000000;stroke-width:0.5;" x="33.61717" xlink:href="#md691ad8d6e" y="67.291718"/>
      </g>
     </g>
     <g id="text_8">
      <!-- $\mathregular{1.00}$ -->
      <g transform="translate(3.35717 71.85078)scale(0.12 -0.12)">
       <use transform="translate(0 0.78125)" xlink:href="#DejaVuSans-49"/>
       <use transform="translate(63.623047 0.78125)" xlink:href="#DejaVuSans-46"/>
       <use transform="translate(95.410156 0.78125)" xlink:href="#DejaVuSans-48"/>
       <use transform="translate(159.033203 0.78125)" xlink:href="#DejaVuSans-48"/>
      </g>
     </g>
    </g>
    <g id="ytick_3">
     <g id="line2d_15">
      <path clip-path="url(#p33fd327506)" d="M 33.61717 43.629267 
L 473.595354 43.629267 
" style="fill:none;stroke:#000000;stroke-linecap:square;stroke-opacity:0.1;stroke-width:0.5;"/>
     </g>
     <g id="line2d_16">
      <g>
       <use style="stroke:#000000;stroke-width:0.5;" x="33.61717" xlink:href="#md691ad8d6e" y="43.629267"/>
      </g>
     </g>
     <g id="text_9">
      <!-- $\mathregular{1.25}$ -->
      <g transform="translate(3.95717 48.188329)scale(0.12 -0.12)">
       <use transform="translate(0 0.78125)" xlink:href="#DejaVuSans-49"/>
       <use transform="translate(63.623047 0.78125)" xlink:href="#DejaVuSans-46"/>
       <use transform="translate(89.910156 0.78125)" xlink:href="#DejaVuSans-50"/>
       <use transform="translate(153.533203 0.78125)" xlink:href="#DejaVuSans-53"/>
      </g>
     </g>
    </g>
    <g id="ytick_4">
     <g id="line2d_17">
      <path clip-path="url(#p33fd327506)" d="M 33.61717 19.966816 
L 473.595354 19.966816 
" style="fill:none;stroke:#000000;stroke-linecap:square;stroke-opacity:0.1;stroke-width:0.5;"/>
     </g>
     <g id="line2d_18">
      <g>
       <use style="stroke:#000000;stroke-width:0.5;" x="33.61717" xlink:href="#md691ad8d6e" y="19.966816"/>
      </g>
     </g>
     <g id="text_10">
      <!-- $\mathregular{1.50}$ -->
      <g transform="translate(3.35717 24.525879)scale(0.12 -0.12)">
       <use transform="translate(0 0.78125)" xlink:href="#DejaVuSans-49"/>
       <use transform="translate(63.623047 0.78125)" xlink:href="#DejaVuSans-46"/>
       <use transform="translate(95.410156 0.78125)" xlink:href="#DejaVuSans-53"/>
       <use transform="translate(159.033203 0.78125)" xlink:href="#DejaVuSans-48"/>
      </g>
     </g>
    </g>
   </g>
   <g id="PathCollection_1">
    <defs>
     <path d="M 0 4 
C 1.060812 4 2.078319 3.578535 2.828427 2.828427 
C 3.578535 2.078319 4 1.060812 4 0 
C 4 -1.060812 3.578535 -2.078319 2.828427 -2.828427 
C 2.078319 -3.578535 1.060812 -4 0 -4 
C -1.060812 -4 -2.078319 -3.578535 -2.828427 -2.828427 
C -3.578535 -2.078319 -4 -1.060812 -4 0 
C -4 1.060812 -3.578535 2.078319 -2.828427 2.828427 
C -2.078319 3.578535 -1.060812 4 0 4 
z
" id="m5cdacc7c65" style="stroke:#000000;"/>
    </defs>
    <g clip-path="url(#p33fd327506)">
     <use style="fill:#009afa;stroke:#000000;" x="46.069383" xlink:href="#m5cdacc7c65" y="41.715743"/>
     <use style="fill:#009afa;stroke:#000000;" x="47.866239" xlink:href="#m5cdacc7c65" y="45.555195"/>
     <use style="fill:#009afa;stroke:#000000;" x="49.663095" xlink:href="#m5cdacc7c65" y="47.049519"/>
     <use style="fill:#009afa;stroke:#000000;" x="141.302756" xlink:href="#m5cdacc7c65" y="9.258133"/>
     <use style="fill:#009afa;stroke:#000000;" x="150.287037" xlink:href="#m5cdacc7c65" y="95.244727"/>
     <use style="fill:#009afa;stroke:#000000;" x="159.271317" xlink:href="#m5cdacc7c65" y="88.272438"/>
     <use style="fill:#009afa;stroke:#000000;" x="182.630446" xlink:href="#m5cdacc7c65" y="53.230287"/>
     <use style="fill:#009afa;stroke:#000000;" x="202.395863" xlink:href="#m5cdacc7c65" y="30.750756"/>
     <use style="fill:#009afa;stroke:#000000;" x="223.958137" xlink:href="#m5cdacc7c65" y="77.403346"/>
     <use style="fill:#009afa;stroke:#000000;" x="225.754993" xlink:href="#m5cdacc7c65" y="87.224494"/>
     <use style="fill:#009afa;stroke:#000000;" x="236.536129" xlink:href="#m5cdacc7c65" y="38.009037"/>
     <use style="fill:#009afa;stroke:#000000;" x="252.707834" xlink:href="#m5cdacc7c65" y="61.797938"/>
     <use style="fill:#009afa;stroke:#000000;" x="268.879539" xlink:href="#m5cdacc7c65" y="81.35172"/>
     <use style="fill:#009afa;stroke:#000000;" x="290.441812" xlink:href="#m5cdacc7c65" y="50.584374"/>
     <use style="fill:#009afa;stroke:#000000;" x="292.238668" xlink:href="#m5cdacc7c65" y="68.152863"/>
     <use style="fill:#009afa;stroke:#000000;" x="308.410373" xlink:href="#m5cdacc7c65" y="46.806457"/>
     <use style="fill:#009afa;stroke:#000000;" x="317.394654" xlink:href="#m5cdacc7c65" y="101.389527"/>
     <use style="fill:#009afa;stroke:#000000;" x="319.19151" xlink:href="#m5cdacc7c65" y="30.336712"/>
     <use style="fill:#009afa;stroke:#000000;" x="320.988366" xlink:href="#m5cdacc7c65" y="58.197266"/>
     <use style="fill:#009afa;stroke:#000000;" x="324.582078" xlink:href="#m5cdacc7c65" y="28.487048"/>
     <use style="fill:#009afa;stroke:#000000;" x="333.566359" xlink:href="#m5cdacc7c65" y="81.196777"/>
     <use style="fill:#009afa;stroke:#000000;" x="335.363215" xlink:href="#m5cdacc7c65" y="61.133874"/>
     <use style="fill:#009afa;stroke:#000000;" x="337.160071" xlink:href="#m5cdacc7c65" y="91.742967"/>
     <use style="fill:#009afa;stroke:#000000;" x="338.956927" xlink:href="#m5cdacc7c65" y="47.845906"/>
     <use style="fill:#009afa;stroke:#000000;" x="347.941207" xlink:href="#m5cdacc7c65" y="93.932196"/>
     <use style="fill:#009afa;stroke:#000000;" x="349.738063" xlink:href="#m5cdacc7c65" y="89.429778"/>
     <use style="fill:#009afa;stroke:#000000;" x="362.316056" xlink:href="#m5cdacc7c65" y="31.685509"/>
     <use style="fill:#009afa;stroke:#000000;" x="364.112912" xlink:href="#m5cdacc7c65" y="74.991166"/>
     <use style="fill:#009afa;stroke:#000000;" x="365.909768" xlink:href="#m5cdacc7c65" y="40.830267"/>
     <use style="fill:#009afa;stroke:#000000;" x="376.690905" xlink:href="#m5cdacc7c65" y="66.313858"/>
     <use style="fill:#009afa;stroke:#000000;" x="385.675185" xlink:href="#m5cdacc7c65" y="103.376938"/>
     <use style="fill:#009afa;stroke:#000000;" x="387.472042" xlink:href="#m5cdacc7c65" y="100.189356"/>
     <use style="fill:#009afa;stroke:#000000;" x="389.268898" xlink:href="#m5cdacc7c65" y="6.346578"/>
     <use style="fill:#009afa;stroke:#000000;" x="391.065754" xlink:href="#m5cdacc7c65" y="11.231828"/>
     <use style="fill:#009afa;stroke:#000000;" x="398.253178" xlink:href="#m5cdacc7c65" y="59.224011"/>
     <use style="fill:#009afa;stroke:#000000;" x="418.018595" xlink:href="#m5cdacc7c65" y="82.786575"/>
     <use style="fill:#009afa;stroke:#000000;" x="419.815451" xlink:href="#m5cdacc7c65" y="52.003726"/>
     <use style="fill:#009afa;stroke:#000000;" x="430.596588" xlink:href="#m5cdacc7c65" y="62.22815"/>
     <use style="fill:#009afa;stroke:#000000;" x="432.393444" xlink:href="#m5cdacc7c65" y="63.002711"/>
     <use style="fill:#009afa;stroke:#000000;" x="453.955717" xlink:href="#m5cdacc7c65" y="12.13459"/>
     <use style="fill:#009afa;stroke:#000000;" x="459.346285" xlink:href="#m5cdacc7c65" y="57.0698"/>
     <use style="fill:#009afa;stroke:#000000;" x="461.143142" xlink:href="#m5cdacc7c65" y="87.295944"/>
    </g>
   </g>
   <g id="PathCollection_2">
    <defs>
     <path d="M 0 4 
C 1.060812 4 2.078319 3.578535 2.828427 2.828427 
C 3.578535 2.078319 4 1.060812 4 0 
C 4 -1.060812 3.578535 -2.078319 2.828427 -2.828427 
C 2.078319 -3.578535 1.060812 -4 0 -4 
C -1.060812 -4 -2.078319 -3.578535 -2.828427 -2.828427 
C -3.578535 -2.078319 -4 -1.060812 -4 0 
C -4 1.060812 -3.578535 2.078319 -2.828427 2.828427 
C -2.078319 3.578535 -1.060812 4 0 4 
z
" id="mac1c60ffa4" style="stroke:#000000;"/>
    </defs>
    <g clip-path="url(#p33fd327506)">
     <use style="fill:#e36f47;stroke:#000000;" x="46.069383" xlink:href="#mac1c60ffa4" y="67.348604"/>
     <use style="fill:#e36f47;stroke:#000000;" x="47.866239" xlink:href="#mac1c60ffa4" y="67.123622"/>
     <use style="fill:#e36f47;stroke:#000000;" x="49.663095" xlink:href="#mac1c60ffa4" y="66.739136"/>
     <use style="fill:#e36f47;stroke:#000000;" x="141.302756" xlink:href="#mac1c60ffa4" y="5.763062"/>
     <use style="fill:#e36f47;stroke:#000000;" x="150.287037" xlink:href="#mac1c60ffa4" y="94.288758"/>
     <use style="fill:#e36f47;stroke:#000000;" x="159.271317" xlink:href="#mac1c60ffa4" y="69.000002"/>
     <use style="fill:#e36f47;stroke:#000000;" x="182.630446" xlink:href="#mac1c60ffa4" y="67.213773"/>
     <use style="fill:#e36f47;stroke:#000000;" x="202.395863" xlink:href="#mac1c60ffa4" y="66.197318"/>
     <use style="fill:#e36f47;stroke:#000000;" x="223.958137" xlink:href="#mac1c60ffa4" y="67.484948"/>
     <use style="fill:#e36f47;stroke:#000000;" x="225.754993" xlink:href="#mac1c60ffa4" y="61.423983"/>
     <use style="fill:#e36f47;stroke:#000000;" x="236.536129" xlink:href="#mac1c60ffa4" y="65.023036"/>
     <use style="fill:#e36f47;stroke:#000000;" x="252.707834" xlink:href="#mac1c60ffa4" y="67.4838"/>
     <use style="fill:#e36f47;stroke:#000000;" x="268.879539" xlink:href="#mac1c60ffa4" y="75.378418"/>
     <use style="fill:#e36f47;stroke:#000000;" x="290.441812" xlink:href="#mac1c60ffa4" y="62.591822"/>
     <use style="fill:#e36f47;stroke:#000000;" x="292.238668" xlink:href="#mac1c60ffa4" y="66.888238"/>
     <use style="fill:#e36f47;stroke:#000000;" x="308.410373" xlink:href="#mac1c60ffa4" y="63.979404"/>
     <use style="fill:#e36f47;stroke:#000000;" x="317.394654" xlink:href="#mac1c60ffa4" y="83.111127"/>
     <use style="fill:#e36f47;stroke:#000000;" x="319.19151" xlink:href="#mac1c60ffa4" y="11.324501"/>
     <use style="fill:#e36f47;stroke:#000000;" x="320.988366" xlink:href="#mac1c60ffa4" y="65.343573"/>
     <use style="fill:#e36f47;stroke:#000000;" x="324.582078" xlink:href="#mac1c60ffa4" y="67.360734"/>
     <use style="fill:#e36f47;stroke:#000000;" x="333.566359" xlink:href="#mac1c60ffa4" y="67.205607"/>
     <use style="fill:#e36f47;stroke:#000000;" x="335.363215" xlink:href="#mac1c60ffa4" y="64.55444"/>
     <use style="fill:#e36f47;stroke:#000000;" x="337.160071" xlink:href="#mac1c60ffa4" y="71.837515"/>
     <use style="fill:#e36f47;stroke:#000000;" x="338.956927" xlink:href="#mac1c60ffa4" y="67.372361"/>
     <use style="fill:#e36f47;stroke:#000000;" x="347.941207" xlink:href="#mac1c60ffa4" y="80.228436"/>
     <use style="fill:#e36f47;stroke:#000000;" x="349.738063" xlink:href="#mac1c60ffa4" y="66.876488"/>
     <use style="fill:#e36f47;stroke:#000000;" x="362.316056" xlink:href="#mac1c60ffa4" y="67.188642"/>
     <use style="fill:#e36f47;stroke:#000000;" x="364.112912" xlink:href="#mac1c60ffa4" y="68.155936"/>
     <use style="fill:#e36f47;stroke:#000000;" x="365.909768" xlink:href="#mac1c60ffa4" y="65.236423"/>
     <use style="fill:#e36f47;stroke:#000000;" x="376.690905" xlink:href="#mac1c60ffa4" y="68.281025"/>
     <use style="fill:#e36f47;stroke:#000000;" x="385.675185" xlink:href="#mac1c60ffa4" y="67.28157"/>
     <use style="fill:#e36f47;stroke:#000000;" x="387.472042" xlink:href="#mac1c60ffa4" y="68.421336"/>
     <use style="fill:#e36f47;stroke:#000000;" x="389.268898" xlink:href="#mac1c60ffa4" y="67.120504"/>
     <use style="fill:#e36f47;stroke:#000000;" x="391.065754" xlink:href="#mac1c60ffa4" y="60.162439"/>
     <use style="fill:#e36f47;stroke:#000000;" x="398.253178" xlink:href="#mac1c60ffa4" y="66.815531"/>
     <use style="fill:#e36f47;stroke:#000000;" x="418.018595" xlink:href="#mac1c60ffa4" y="68.402254"/>
     <use style="fill:#e36f47;stroke:#000000;" x="419.815451" xlink:href="#mac1c60ffa4" y="67.581468"/>
     <use style="fill:#e36f47;stroke:#000000;" x="430.596588" xlink:href="#mac1c60ffa4" y="67.188346"/>
     <use style="fill:#e36f47;stroke:#000000;" x="432.393444" xlink:href="#mac1c60ffa4" y="67.98121"/>
     <use style="fill:#e36f47;stroke:#000000;" x="453.955717" xlink:href="#mac1c60ffa4" y="63.500983"/>
     <use style="fill:#e36f47;stroke:#000000;" x="459.346285" xlink:href="#mac1c60ffa4" y="65.766734"/>
     <use style="fill:#e36f47;stroke:#000000;" x="461.143142" xlink:href="#mac1c60ffa4" y="67.10606"/>
    </g>
   </g>
   <g id="patch_3">
    <path d="M 33.61717 106.305354 
L 33.61717 2.834646 
" style="fill:none;stroke:#000000;stroke-linecap:square;stroke-linejoin:miter;"/>
   </g>
   <g id="patch_4">
    <path d="M 33.61717 106.305354 
L 473.595354 106.305354 
" style="fill:none;stroke:#000000;stroke-linecap:square;stroke-linejoin:miter;"/>
   </g>
   <g id="legend_1">
    <g id="patch_5">
     <path d="M 479.595354 79.1175 
L 573.296604 79.1175 
L 573.296604 30.0225 
L 479.595354 30.0225 
z
" style="fill:#ffffff;stroke:#000000;stroke-linejoin:miter;"/>
    </g>
    <g id="line2d_19">
     <path d="M 489.195354 44.540625 
L 513.195354 44.540625 
" style="fill:none;"/>
    </g>
    <g id="line2d_20">
     <defs>
      <path d="M 0 4.8 
C 1.272975 4.8 2.493983 4.294242 3.394113 3.394113 
C 4.294242 2.493983 4.8 1.272975 4.8 0 
C 4.8 -1.272975 4.294242 -2.493983 3.394113 -3.394113 
C 2.493983 -4.294242 1.272975 -4.8 0 -4.8 
C -1.272975 -4.8 -2.493983 -4.294242 -3.394113 -3.394113 
C -4.294242 -2.493983 -4.8 -1.272975 -4.8 0 
C -4.8 1.272975 -4.294242 2.493983 -3.394113 3.394113 
C -2.493983 4.294242 -1.272975 4.8 0 4.8 
z
" id="m5c531a3b1b" style="stroke:#000000;stroke-width:1.2;"/>
     </defs>
     <g>
      <use style="fill:#009afa;stroke:#000000;stroke-width:1.2;" x="501.195354" xlink:href="#m5c531a3b1b" y="44.540625"/>
     </g>
    </g>
    <g id="text_11">
     <!-- p_init -->
     <g transform="translate(522.795354 48.740625)scale(0.12 -0.12)">
      <defs>
       <path d="M 18.109375 8.203125 
L 18.109375 -20.796875 
L 9.078125 -20.796875 
L 9.078125 54.6875 
L 18.109375 54.6875 
L 18.109375 46.390625 
Q 20.953125 51.265625 25.265625 53.625 
Q 29.59375 56 35.59375 56 
Q 45.5625 56 51.78125 48.09375 
Q 58.015625 40.1875 58.015625 27.296875 
Q 58.015625 14.40625 51.78125 6.484375 
Q 45.5625 -1.421875 35.59375 -1.421875 
Q 29.59375 -1.421875 25.265625 0.953125 
Q 20.953125 3.328125 18.109375 8.203125 
z
M 48.6875 27.296875 
Q 48.6875 37.203125 44.609375 42.84375 
Q 40.53125 48.484375 33.40625 48.484375 
Q 26.265625 48.484375 22.1875 42.84375 
Q 18.109375 37.203125 18.109375 27.296875 
Q 18.109375 17.390625 22.1875 11.75 
Q 26.265625 6.109375 33.40625 6.109375 
Q 40.53125 6.109375 44.609375 11.75 
Q 48.6875 17.390625 48.6875 27.296875 
z
" id="DejaVuSans-112"/>
       <path d="M 50.984375 -16.609375 
L 50.984375 -23.578125 
L -0.984375 -23.578125 
L -0.984375 -16.609375 
z
" id="DejaVuSans-95"/>
       <path d="M 9.421875 54.6875 
L 18.40625 54.6875 
L 18.40625 0 
L 9.421875 0 
z
M 9.421875 75.984375 
L 18.40625 75.984375 
L 18.40625 64.59375 
L 9.421875 64.59375 
z
" id="DejaVuSans-105"/>
       <path d="M 18.3125 70.21875 
L 18.3125 54.6875 
L 36.8125 54.6875 
L 36.8125 47.703125 
L 18.3125 47.703125 
L 18.3125 18.015625 
Q 18.3125 11.328125 20.140625 9.421875 
Q 21.96875 7.515625 27.59375 7.515625 
L 36.8125 7.515625 
L 36.8125 0 
L 27.59375 0 
Q 17.1875 0 13.234375 3.875 
Q 9.28125 7.765625 9.28125 18.015625 
L 9.28125 47.703125 
L 2.6875 47.703125 
L 2.6875 54.6875 
L 9.28125 54.6875 
L 9.28125 70.21875 
z
" id="DejaVuSans-116"/>
      </defs>
      <use xlink:href="#DejaVuSans-112"/>
      <use x="63.476562" xlink:href="#DejaVuSans-95"/>
      <use x="113.476562" xlink:href="#DejaVuSans-105"/>
      <use x="141.259766" xlink:href="#DejaVuSans-110"/>
      <use x="204.638672" xlink:href="#DejaVuSans-105"/>
      <use x="232.421875" xlink:href="#DejaVuSans-116"/>
     </g>
    </g>
    <g id="line2d_21">
     <path d="M 489.195354 62.488125 
L 513.195354 62.488125 
" style="fill:none;"/>
    </g>
    <g id="line2d_22">
     <defs>
      <path d="M 0 4.8 
C 1.272975 4.8 2.493983 4.294242 3.394113 3.394113 
C 4.294242 2.493983 4.8 1.272975 4.8 0 
C 4.8 -1.272975 4.294242 -2.493983 3.394113 -3.394113 
C 2.493983 -4.294242 1.272975 -4.8 0 -4.8 
C -1.272975 -4.8 -2.493983 -4.294242 -3.394113 -3.394113 
C -4.294242 -2.493983 -4.8 -1.272975 -4.8 0 
C -4.8 1.272975 -4.294242 2.493983 -3.394113 3.394113 
C -2.493983 4.294242 -1.272975 4.8 0 4.8 
z
" id="mb512584408" style="stroke:#000000;stroke-width:1.2;"/>
     </defs>
     <g>
      <use style="fill:#e36f47;stroke:#000000;stroke-width:1.2;" x="501.195354" xlink:href="#mb512584408" y="62.488125"/>
     </g>
    </g>
    <g id="text_12">
     <!-- p_pred -->
     <g transform="translate(522.795354 66.688125)scale(0.12 -0.12)">
      <defs>
       <path d="M 41.109375 46.296875 
Q 39.59375 47.171875 37.8125 47.578125 
Q 36.03125 48 33.890625 48 
Q 26.265625 48 22.1875 43.046875 
Q 18.109375 38.09375 18.109375 28.8125 
L 18.109375 0 
L 9.078125 0 
L 9.078125 54.6875 
L 18.109375 54.6875 
L 18.109375 46.1875 
Q 20.953125 51.171875 25.484375 53.578125 
Q 30.03125 56 36.53125 56 
Q 37.453125 56 38.578125 55.875 
Q 39.703125 55.765625 41.0625 55.515625 
z
" id="DejaVuSans-114"/>
      </defs>
      <use xlink:href="#DejaVuSans-112"/>
      <use x="63.476562" xlink:href="#DejaVuSans-95"/>
      <use x="113.476562" xlink:href="#DejaVuSans-112"/>
      <use x="176.953125" xlink:href="#DejaVuSans-114"/>
      <use x="215.816406" xlink:href="#DejaVuSans-101"/>
      <use x="277.339844" xlink:href="#DejaVuSans-100"/>
     </g>
    </g>
   </g>
  </g>
 </g>
 <defs>
  <clipPath id="p33fd327506">
   <rect height="103.470709" width="439.978184" x="33.61717" y="2.834646"/>
  </clipPath>
 </defs>
</svg>
