<?xml version="1.0" encoding="utf-8" standalone="no"?>
<!DOCTYPE svg PUBLIC "-//W3C//DTD SVG 1.1//EN"
  "http://www.w3.org/Graphics/SVG/1.1/DTD/svg11.dtd">
<svg xmlns:xlink="http://www.w3.org/1999/xlink" width="432pt" height="432pt" viewBox="0 0 432 432" xmlns="http://www.w3.org/2000/svg" version="1.1">
 <metadata>
  <rdf:RDF xmlns:dc="http://purl.org/dc/elements/1.1/" xmlns:cc="http://creativecommons.org/ns#" xmlns:rdf="http://www.w3.org/1999/02/22-rdf-syntax-ns#">
   <cc:Work>
    <dc:type rdf:resource="http://purl.org/dc/dcmitype/StillImage"/>
    <dc:date>2023-02-03T19:50:57.924786</dc:date>
    <dc:format>image/svg+xml</dc:format>
    <dc:creator>
     <cc:Agent>
      <dc:title>Matplotlib v3.5.3, https://matplotlib.org/</dc:title>
     </cc:Agent>
    </dc:creator>
   </cc:Work>
  </rdf:RDF>
 </metadata>
 <defs>
  <style type="text/css">*{stroke-linejoin: round; stroke-linecap: butt}</style>
 </defs>
 <g id="figure_1">
  <g id="patch_1">
   <path d="M 0 432 
L 432 432 
L 432 0 
L 0 0 
z
" style="fill: #ffffff"/>
  </g>
  <g id="axes_1">
   <g id="patch_2">
    <path d="M 59.632849 194.979354 
L 427.187748 194.979354 
L 427.187748 2.834646 
L 59.632849 2.834646 
z
" style="fill: #ffffff"/>
   </g>
   <g id="matplotlib.axis_1">
    <g id="xtick_1">
     <g id="line2d_1">
      <defs>
       <path id="ma9c80719d5" d="M 0 0 
L 0 2 
" style="stroke: #000000; stroke-width: 0.6"/>
      </defs>
      <g>
       <use xlink:href="#ma9c80719d5" x="70.035346" y="194.979354" style="stroke: #000000; stroke-width: 0.6"/>
      </g>
     </g>
    </g>
    <g id="xtick_2">
     <g id="line2d_2">
      <g>
       <use xlink:href="#ma9c80719d5" x="139.385327" y="194.979354" style="stroke: #000000; stroke-width: 0.6"/>
      </g>
     </g>
    </g>
    <g id="xtick_3">
     <g id="line2d_3">
      <g>
       <use xlink:href="#ma9c80719d5" x="208.735308" y="194.979354" style="stroke: #000000; stroke-width: 0.6"/>
      </g>
     </g>
    </g>
    <g id="xtick_4">
     <g id="line2d_4">
      <g>
       <use xlink:href="#ma9c80719d5" x="278.085289" y="194.979354" style="stroke: #000000; stroke-width: 0.6"/>
      </g>
     </g>
    </g>
    <g id="xtick_5">
     <g id="line2d_5">
      <g>
       <use xlink:href="#ma9c80719d5" x="347.43527" y="194.979354" style="stroke: #000000; stroke-width: 0.6"/>
      </g>
     </g>
    </g>
    <g id="xtick_6">
     <g id="line2d_6">
      <g>
       <use xlink:href="#ma9c80719d5" x="416.785251" y="194.979354" style="stroke: #000000; stroke-width: 0.6"/>
      </g>
     </g>
    </g>
   </g>
   <g id="matplotlib.axis_2">
    <g id="ytick_1">
     <g id="line2d_7">
      <path d="M 59.632849 189.54138 
L 427.187748 189.54138 
" clip-path="url(#p4e7bf8dab0)" style="fill: none; stroke: #000000; stroke-opacity: 0.1; stroke-width: 0.5; stroke-linecap: square"/>
     </g>
     <g id="line2d_8">
      <defs>
       <path id="md68412c592" d="M 0 0 
L 2.5 0 
" style="stroke: #000000; stroke-width: 0.5"/>
      </defs>
      <g>
       <use xlink:href="#md68412c592" x="59.632849" y="189.54138" style="stroke: #000000; stroke-width: 0.5"/>
      </g>
     </g>
     <g id="line2d_9">
      <defs>
       <path id="mfb1737e6c8" d="M 0 0 
L -2.5 0 
" style="stroke: #000000; stroke-width: 0.5"/>
      </defs>
      <g>
       <use xlink:href="#mfb1737e6c8" x="427.187748" y="189.54138" style="stroke: #000000; stroke-width: 0.5"/>
      </g>
     </g>
     <g id="text_1">
      <!-- $\mathregular{0.000}$ -->
      <g transform="translate(21.692849 194.100443)scale(0.12 -0.12)">
       <defs>
        <path id="DejaVuSans-30" d="M 2034 4250 
Q 1547 4250 1301 3770 
Q 1056 3291 1056 2328 
Q 1056 1369 1301 889 
Q 1547 409 2034 409 
Q 2525 409 2770 889 
Q 3016 1369 3016 2328 
Q 3016 3291 2770 3770 
Q 2525 4250 2034 4250 
z
M 2034 4750 
Q 2819 4750 3233 4129 
Q 3647 3509 3647 2328 
Q 3647 1150 3233 529 
Q 2819 -91 2034 -91 
Q 1250 -91 836 529 
Q 422 1150 422 2328 
Q 422 3509 836 4129 
Q 1250 4750 2034 4750 
z
" transform="scale(0.015625)"/>
        <path id="DejaVuSans-2e" d="M 684 794 
L 1344 794 
L 1344 0 
L 684 0 
L 684 794 
z
" transform="scale(0.015625)"/>
       </defs>
       <use xlink:href="#DejaVuSans-30" transform="translate(0 0.78125)"/>
       <use xlink:href="#DejaVuSans-2e" transform="translate(63.623047 0.78125)"/>
       <use xlink:href="#DejaVuSans-30" transform="translate(95.410156 0.78125)"/>
       <use xlink:href="#DejaVuSans-30" transform="translate(159.033203 0.78125)"/>
       <use xlink:href="#DejaVuSans-30" transform="translate(222.65625 0.78125)"/>
      </g>
     </g>
    </g>
    <g id="ytick_2">
     <g id="line2d_10">
      <path d="M 59.632849 147.957247 
L 427.187748 147.957247 
" clip-path="url(#p4e7bf8dab0)" style="fill: none; stroke: #000000; stroke-opacity: 0.1; stroke-width: 0.5; stroke-linecap: square"/>
     </g>
     <g id="line2d_11">
      <g>
       <use xlink:href="#md68412c592" x="59.632849" y="147.957247" style="stroke: #000000; stroke-width: 0.5"/>
      </g>
     </g>
     <g id="line2d_12">
      <g>
       <use xlink:href="#mfb1737e6c8" x="427.187748" y="147.957247" style="stroke: #000000; stroke-width: 0.5"/>
      </g>
     </g>
     <g id="text_2">
      <!-- $\mathregular{0.025}$ -->
      <g transform="translate(21.692849 152.516309)scale(0.12 -0.12)">
       <defs>
        <path id="DejaVuSans-32" d="M 1228 531 
L 3431 531 
L 3431 0 
L 469 0 
L 469 531 
Q 828 903 1448 1529 
Q 2069 2156 2228 2338 
Q 2531 2678 2651 2914 
Q 2772 3150 2772 3378 
Q 2772 3750 2511 3984 
Q 2250 4219 1831 4219 
Q 1534 4219 1204 4116 
Q 875 4013 500 3803 
L 500 4441 
Q 881 4594 1212 4672 
Q 1544 4750 1819 4750 
Q 2544 4750 2975 4387 
Q 3406 4025 3406 3419 
Q 3406 3131 3298 2873 
Q 3191 2616 2906 2266 
Q 2828 2175 2409 1742 
Q 1991 1309 1228 531 
z
" transform="scale(0.015625)"/>
        <path id="DejaVuSans-35" d="M 691 4666 
L 3169 4666 
L 3169 4134 
L 1269 4134 
L 1269 2991 
Q 1406 3038 1543 3061 
Q 1681 3084 1819 3084 
Q 2600 3084 3056 2656 
Q 3513 2228 3513 1497 
Q 3513 744 3044 326 
Q 2575 -91 1722 -91 
Q 1428 -91 1123 -41 
Q 819 9 494 109 
L 494 744 
Q 775 591 1075 516 
Q 1375 441 1709 441 
Q 2250 441 2565 725 
Q 2881 1009 2881 1497 
Q 2881 1984 2565 2268 
Q 2250 2553 1709 2553 
Q 1456 2553 1204 2497 
Q 953 2441 691 2322 
L 691 4666 
z
" transform="scale(0.015625)"/>
       </defs>
       <use xlink:href="#DejaVuSans-30" transform="translate(0 0.78125)"/>
       <use xlink:href="#DejaVuSans-2e" transform="translate(63.623047 0.78125)"/>
       <use xlink:href="#DejaVuSans-30" transform="translate(95.410156 0.78125)"/>
       <use xlink:href="#DejaVuSans-32" transform="translate(159.033203 0.78125)"/>
       <use xlink:href="#DejaVuSans-35" transform="translate(222.65625 0.78125)"/>
      </g>
     </g>
    </g>
    <g id="ytick_3">
     <g id="line2d_13">
      <path d="M 59.632849 106.373114 
L 427.187748 106.373114 
" clip-path="url(#p4e7bf8dab0)" style="fill: none; stroke: #000000; stroke-opacity: 0.1; stroke-width: 0.5; stroke-linecap: square"/>
     </g>
     <g id="line2d_14">
      <g>
       <use xlink:href="#md68412c592" x="59.632849" y="106.373114" style="stroke: #000000; stroke-width: 0.5"/>
      </g>
     </g>
     <g id="line2d_15">
      <g>
       <use xlink:href="#mfb1737e6c8" x="427.187748" y="106.373114" style="stroke: #000000; stroke-width: 0.5"/>
      </g>
     </g>
     <g id="text_3">
      <!-- $\mathregular{0.050}$ -->
      <g transform="translate(21.692849 110.932176)scale(0.12 -0.12)">
       <use xlink:href="#DejaVuSans-30" transform="translate(0 0.78125)"/>
       <use xlink:href="#DejaVuSans-2e" transform="translate(63.623047 0.78125)"/>
       <use xlink:href="#DejaVuSans-30" transform="translate(95.410156 0.78125)"/>
       <use xlink:href="#DejaVuSans-35" transform="translate(159.033203 0.78125)"/>
       <use xlink:href="#DejaVuSans-30" transform="translate(222.65625 0.78125)"/>
      </g>
     </g>
    </g>
    <g id="ytick_4">
     <g id="line2d_16">
      <path d="M 59.632849 64.78898 
L 427.187748 64.78898 
" clip-path="url(#p4e7bf8dab0)" style="fill: none; stroke: #000000; stroke-opacity: 0.1; stroke-width: 0.5; stroke-linecap: square"/>
     </g>
     <g id="line2d_17">
      <g>
       <use xlink:href="#md68412c592" x="59.632849" y="64.78898" style="stroke: #000000; stroke-width: 0.5"/>
      </g>
     </g>
     <g id="line2d_18">
      <g>
       <use xlink:href="#mfb1737e6c8" x="427.187748" y="64.78898" style="stroke: #000000; stroke-width: 0.5"/>
      </g>
     </g>
     <g id="text_4">
      <!-- $\mathregular{0.075}$ -->
      <g transform="translate(21.692849 69.348043)scale(0.12 -0.12)">
       <defs>
        <path id="DejaVuSans-37" d="M 525 4666 
L 3525 4666 
L 3525 4397 
L 1831 0 
L 1172 0 
L 2766 4134 
L 525 4134 
L 525 4666 
z
" transform="scale(0.015625)"/>
       </defs>
       <use xlink:href="#DejaVuSans-30" transform="translate(0 0.78125)"/>
       <use xlink:href="#DejaVuSans-2e" transform="translate(63.623047 0.78125)"/>
       <use xlink:href="#DejaVuSans-30" transform="translate(95.410156 0.78125)"/>
       <use xlink:href="#DejaVuSans-37" transform="translate(159.033203 0.78125)"/>
       <use xlink:href="#DejaVuSans-35" transform="translate(222.65625 0.78125)"/>
      </g>
     </g>
    </g>
    <g id="ytick_5">
     <g id="line2d_19">
      <path d="M 59.632849 23.204847 
L 427.187748 23.204847 
" clip-path="url(#p4e7bf8dab0)" style="fill: none; stroke: #000000; stroke-opacity: 0.1; stroke-width: 0.5; stroke-linecap: square"/>
     </g>
     <g id="line2d_20">
      <g>
       <use xlink:href="#md68412c592" x="59.632849" y="23.204847" style="stroke: #000000; stroke-width: 0.5"/>
      </g>
     </g>
     <g id="line2d_21">
      <g>
       <use xlink:href="#mfb1737e6c8" x="427.187748" y="23.204847" style="stroke: #000000; stroke-width: 0.5"/>
      </g>
     </g>
     <g id="text_5">
      <!-- $\mathregular{0.100}$ -->
      <g transform="translate(21.692849 27.763909)scale(0.12 -0.12)">
       <defs>
        <path id="DejaVuSans-31" d="M 794 531 
L 1825 531 
L 1825 4091 
L 703 3866 
L 703 4441 
L 1819 4666 
L 2450 4666 
L 2450 531 
L 3481 531 
L 3481 0 
L 794 0 
L 794 531 
z
" transform="scale(0.015625)"/>
       </defs>
       <use xlink:href="#DejaVuSans-30" transform="translate(0 0.78125)"/>
       <use xlink:href="#DejaVuSans-2e" transform="translate(63.623047 0.78125)"/>
       <use xlink:href="#DejaVuSans-31" transform="translate(95.410156 0.78125)"/>
       <use xlink:href="#DejaVuSans-30" transform="translate(159.033203 0.78125)"/>
       <use xlink:href="#DejaVuSans-30" transform="translate(222.65625 0.78125)"/>
      </g>
     </g>
    </g>
    <g id="text_6">
     <!-- Y -->
     <g transform="translate(14.365349 103.79325)rotate(-90)scale(0.16 -0.16)">
      <defs>
       <path id="DejaVuSans-59" d="M -13 4666 
L 666 4666 
L 1959 2747 
L 3244 4666 
L 3922 4666 
L 2272 2222 
L 2272 0 
L 1638 0 
L 1638 2222 
L -13 4666 
z
" transform="scale(0.015625)"/>
      </defs>
      <use xlink:href="#DejaVuSans-59"/>
     </g>
    </g>
   </g>
   <g id="PathCollection_1">
    <defs>
     <path id="mfbd29a45c0" d="M -2 2 
L 2 2 
L 2 -2 
L -2 -2 
z
" style="stroke: #1f77b4"/>
    </defs>
    <g clip-path="url(#p4e7bf8dab0)">
     <use xlink:href="#mfbd29a45c0" x="70.035346" y="36.545099" style="fill-opacity: 0; stroke: #1f77b4"/>
     <use xlink:href="#mfbd29a45c0" x="108.563113" y="36.691977" style="fill-opacity: 0; stroke: #1f77b4"/>
     <use xlink:href="#mfbd29a45c0" x="147.09088" y="37.466194" style="fill-opacity: 0; stroke: #1f77b4"/>
     <use xlink:href="#mfbd29a45c0" x="185.618648" y="39.932593" style="fill-opacity: 0; stroke: #1f77b4"/>
     <use xlink:href="#mfbd29a45c0" x="224.146415" y="46.342299" style="fill-opacity: 0; stroke: #1f77b4"/>
     <use xlink:href="#mfbd29a45c0" x="262.674182" y="59.839982" style="fill-opacity: 0; stroke: #1f77b4"/>
     <use xlink:href="#mfbd29a45c0" x="301.201949" y="81.088944" style="fill-opacity: 0; stroke: #1f77b4"/>
     <use xlink:href="#mfbd29a45c0" x="339.729716" y="107.72303" style="fill-opacity: 0; stroke: #1f77b4"/>
     <use xlink:href="#mfbd29a45c0" x="378.257484" y="135.535254" style="fill-opacity: 0; stroke: #1f77b4"/>
     <use xlink:href="#mfbd29a45c0" x="416.785251" y="160.866843" style="fill-opacity: 0; stroke: #1f77b4"/>
    </g>
   </g>
   <g id="PathCollection_2">
    <defs>
     <path id="m5f0c2ab2e1" d="M -2 2 
L 2 2 
L 2 -2 
L -2 -2 
z
" style="stroke: #d62728"/>
    </defs>
    <g clip-path="url(#p4e7bf8dab0)">
     <use xlink:href="#m5f0c2ab2e1" x="70.035346" y="189.54128" style="fill-opacity: 0; stroke: #d62728"/>
     <use xlink:href="#m5f0c2ab2e1" x="108.563113" y="189.537699" style="fill-opacity: 0; stroke: #d62728"/>
     <use xlink:href="#m5f0c2ab2e1" x="147.09088" y="189.423294" style="fill-opacity: 0; stroke: #d62728"/>
     <use xlink:href="#m5f0c2ab2e1" x="185.618648" y="188.062564" style="fill-opacity: 0; stroke: #d62728"/>
     <use xlink:href="#m5f0c2ab2e1" x="224.146415" y="178.484777" style="fill-opacity: 0; stroke: #d62728"/>
     <use xlink:href="#m5f0c2ab2e1" x="262.674182" y="150.80271" style="fill-opacity: 0; stroke: #d62728"/>
     <use xlink:href="#m5f0c2ab2e1" x="301.201949" y="112.148329" style="fill-opacity: 0; stroke: #d62728"/>
     <use xlink:href="#m5f0c2ab2e1" x="339.729716" y="67.320593" style="fill-opacity: 0; stroke: #d62728"/>
     <use xlink:href="#m5f0c2ab2e1" x="378.257484" y="40.870491" style="fill-opacity: 0; stroke: #d62728"/>
     <use xlink:href="#m5f0c2ab2e1" x="416.785251" y="49.043955" style="fill-opacity: 0; stroke: #d62728"/>
    </g>
   </g>
   <g id="patch_3">
    <path d="M 59.632849 194.979354 
L 59.632849 2.834646 
" style="fill: none; stroke: #000000; stroke-linejoin: miter; stroke-linecap: square"/>
   </g>
   <g id="patch_4">
    <path d="M 427.187748 194.979354 
L 427.187748 2.834646 
" style="fill: none; stroke: #000000; stroke-linejoin: miter; stroke-linecap: square"/>
   </g>
   <g id="patch_5">
    <path d="M 59.632849 194.979354 
L 427.187748 194.979354 
" style="fill: none; stroke: #000000; stroke-linejoin: miter; stroke-linecap: square"/>
   </g>
   <g id="patch_6">
    <path d="M 59.632849 2.834646 
L 427.187748 2.834646 
" style="fill: none; stroke: #000000; stroke-linejoin: miter; stroke-linecap: square"/>
   </g>
   <g id="PathCollection_3">
    <defs>
     <path id="m7285b23aff" d="M -2 2 
L 2 2 
L 2 -2 
L -2 -2 
z
" style="stroke: #e377c2"/>
    </defs>
    <g clip-path="url(#p4e7bf8dab0)">
     <use xlink:href="#m7285b23aff" x="70.035346" y="189.005954" style="fill-opacity: 0; stroke: #e377c2"/>
     <use xlink:href="#m7285b23aff" x="108.563113" y="184.150829" style="fill-opacity: 0; stroke: #e377c2"/>
     <use xlink:href="#m7285b23aff" x="147.09088" y="153.261613" style="fill-opacity: 0; stroke: #e377c2"/>
     <use xlink:href="#m7285b23aff" x="185.618648" y="77.558959" style="fill-opacity: 0; stroke: #e377c2"/>
     <use xlink:href="#m7285b23aff" x="224.146415" y="35.307215" style="fill-opacity: 0; stroke: #e377c2"/>
     <use xlink:href="#m7285b23aff" x="262.674182" y="123.698335" style="fill-opacity: 0; stroke: #e377c2"/>
     <use xlink:href="#m7285b23aff" x="301.201949" y="166.977583" style="fill-opacity: 0; stroke: #e377c2"/>
     <use xlink:href="#m7285b23aff" x="339.729716" y="182.800269" style="fill-opacity: 0; stroke: #e377c2"/>
     <use xlink:href="#m7285b23aff" x="378.257484" y="187.958878" style="fill-opacity: 0; stroke: #e377c2"/>
     <use xlink:href="#m7285b23aff" x="416.785251" y="189.200732" style="fill-opacity: 0; stroke: #e377c2"/>
    </g>
   </g>
   <g id="PathCollection_4">
    <defs>
     <path id="m42f665a237" d="M -2 2 
L 2 2 
L 2 -2 
L -2 -2 
z
" style="stroke: #17becf"/>
    </defs>
    <g clip-path="url(#p4e7bf8dab0)">
     <use xlink:href="#m42f665a237" x="70.035346" y="160.056552" style="fill-opacity: 0; stroke: #17becf"/>
     <use xlink:href="#m42f665a237" x="108.563113" y="110.599403" style="fill-opacity: 0; stroke: #17becf"/>
     <use xlink:href="#m42f665a237" x="147.09088" y="77.322937" style="fill-opacity: 0; stroke: #17becf"/>
     <use xlink:href="#m42f665a237" x="185.618648" y="112.231757" style="fill-opacity: 0; stroke: #17becf"/>
     <use xlink:href="#m42f665a237" x="224.146415" y="138.731892" style="fill-opacity: 0; stroke: #17becf"/>
     <use xlink:href="#m42f665a237" x="262.674182" y="166.226761" style="fill-opacity: 0; stroke: #17becf"/>
     <use xlink:href="#m42f665a237" x="301.201949" y="181.270255" style="fill-opacity: 0; stroke: #17becf"/>
     <use xlink:href="#m42f665a237" x="339.729716" y="187.099281" style="fill-opacity: 0; stroke: #17becf"/>
     <use xlink:href="#m42f665a237" x="378.257484" y="188.875073" style="fill-opacity: 0; stroke: #17becf"/>
     <use xlink:href="#m42f665a237" x="416.785251" y="189.356434" style="fill-opacity: 0; stroke: #17becf"/>
    </g>
   </g>
   <g id="line2d_22">
    <path d="M 70.035346 36.571858 
L 73.53787 36.581743 
L 77.040395 36.59336 
L 80.542919 36.60704 
L 84.045443 36.623179 
L 87.547967 36.642251 
L 91.050492 36.664782 
L 94.553016 36.691184 
L 98.05554 36.722113 
L 101.558065 36.758379 
L 105.060589 36.800921 
L 108.563113 36.850821 
L 112.065637 36.909227 
L 115.568162 36.976714 
L 119.070686 37.05442 
L 122.57321 37.143769 
L 126.075735 37.245737 
L 129.578259 37.360958 
L 133.080783 37.49089 
L 136.583307 37.637 
L 140.085832 37.800234 
L 143.588356 37.980974 
L 147.09088 38.180494 
L 150.593405 38.400057 
L 154.095929 38.64112 
L 157.598453 38.905149 
L 161.100978 39.193596 
L 164.603502 39.507914 
L 168.106026 39.850659 
L 171.60855 40.224743 
L 175.111075 40.633071 
L 178.613599 41.077661 
L 182.116123 41.561146 
L 185.618648 42.08746 
L 189.121172 42.660061 
L 192.623696 43.281134 
L 196.12622 43.953924 
L 199.628745 44.682241 
L 203.131269 45.468134 
L 206.633793 46.313404 
L 210.136318 47.221209 
L 213.638842 48.192481 
L 217.141366 49.227936 
L 220.64389 50.329643 
L 224.146415 51.496467 
L 227.648939 52.729715 
L 231.151463 54.028429 
L 234.653988 55.392831 
L 238.156512 56.821868 
L 241.659036 58.315609 
L 245.161561 59.872411 
L 248.664085 61.492591 
L 252.166609 63.174584 
L 255.669133 64.917334 
L 259.171658 66.720257 
L 262.674182 68.581647 
L 266.176706 70.499848 
L 269.679231 72.4733 
L 273.181755 74.499989 
L 276.684279 76.577794 
L 280.186803 78.704 
L 283.689328 80.876258 
L 287.191852 83.091471 
L 290.694376 85.346934 
L 294.196901 87.639346 
L 297.699425 89.965735 
L 301.201949 92.322686 
L 304.704473 94.70719 
L 308.206998 97.115911 
L 311.709522 99.5455 
L 315.212046 101.993004 
L 318.714571 104.455394 
L 322.217095 106.929472 
L 325.719619 109.412577 
L 329.222144 111.901765 
L 332.724668 114.394438 
L 336.227192 116.88786 
L 339.729716 119.379674 
L 343.232241 121.86738 
L 346.734765 124.348619 
L 350.237289 126.821107 
L 353.739814 129.28264 
L 357.242338 131.731037 
L 360.744862 134.164148 
L 364.247386 136.579854 
L 367.749911 138.976041 
L 371.252435 141.350574 
L 374.754959 143.701334 
L 378.257484 146.026158 
L 381.760008 148.322834 
L 385.262532 150.589067 
L 388.765056 152.822533 
L 392.267581 155.020774 
L 395.770105 157.18124 
L 399.272629 159.301256 
L 402.775154 161.378009 
L 406.277678 163.408514 
L 409.780202 165.38964 
L 413.282727 167.318051 
L 416.785251 169.190238 
" clip-path="url(#p4e7bf8dab0)" style="fill: none; stroke-dasharray: 7.4,3.2; stroke-dashoffset: 0; stroke: #1f77b4; stroke-width: 2"/>
   </g>
   <g id="line2d_23">
    <path d="M 70.035346 189.541082 
L 73.53787 189.540971 
L 77.040395 189.540808 
L 80.542919 189.540574 
L 84.045443 189.540242 
L 87.547967 189.539777 
L 91.050492 189.539125 
L 94.553016 189.538175 
L 98.05554 189.536817 
L 101.558065 189.534911 
L 105.060589 189.532271 
L 108.563113 189.528647 
L 112.065637 189.523702 
L 115.568162 189.516914 
L 119.070686 189.507694 
L 122.57321 189.495306 
L 126.075735 189.478835 
L 129.578259 189.457192 
L 133.080783 189.428998 
L 136.583307 189.392546 
L 140.085832 189.345968 
L 143.588356 189.287372 
L 147.09088 189.213973 
L 150.593405 189.122867 
L 154.095929 189.011237 
L 157.598453 188.874596 
L 161.100978 188.707511 
L 164.603502 188.503549 
L 168.106026 188.256543 
L 171.60855 187.959458 
L 175.111075 187.603958 
L 178.613599 187.178799 
L 182.116123 186.672217 
L 185.618648 186.074213 
L 189.121172 185.373696 
L 192.623696 184.554964 
L 196.12622 183.606062 
L 199.628745 182.519038 
L 203.131269 181.281107 
L 206.633793 179.881921 
L 210.136318 178.320346 
L 213.638842 176.591632 
L 217.141366 174.695677 
L 220.64389 172.639178 
L 224.146415 170.427978 
L 227.648939 168.072828 
L 231.151463 165.58594 
L 234.653988 162.978763 
L 238.156512 160.263652 
L 241.659036 157.448368 
L 245.161561 154.541587 
L 248.664085 151.544451 
L 252.166609 148.459562 
L 255.669133 145.286249 
L 259.171658 142.021005 
L 262.674182 138.661827 
L 266.176706 135.205995 
L 269.679231 131.650353 
L 273.181755 127.992731 
L 276.684279 124.23169 
L 280.186803 120.367444 
L 283.689328 116.400503 
L 287.191852 112.33374 
L 290.694376 108.170618 
L 294.196901 103.916971 
L 297.699425 99.579532 
L 301.201949 95.167234 
L 304.704473 90.689806 
L 308.206998 86.158951 
L 311.709522 81.587792 
L 315.212046 76.99008 
L 318.714571 72.380961 
L 322.217095 67.77709 
L 325.719619 63.195283 
L 329.222144 58.653966 
L 332.724668 54.171933 
L 336.227192 49.769223 
L 339.729716 45.46604 
L 343.232241 41.283716 
L 346.734765 37.244084 
L 350.237289 33.369532 
L 353.739814 29.682903 
L 357.242338 26.207521 
L 360.744862 22.967057 
L 364.247386 19.985418 
L 367.749911 17.286637 
L 371.252435 14.894752 
L 374.754959 12.833524 
L 378.257484 11.126292 
L 381.760008 9.795703 
L 385.262532 8.86342 
L 388.765056 8.349607 
L 392.267581 8.272703 
L 395.770105 8.648831 
L 399.272629 9.491329 
L 402.775154 10.810246 
L 406.277678 12.611855 
L 409.780202 14.898134 
L 413.282727 17.666449 
L 416.785251 20.909232 
" clip-path="url(#p4e7bf8dab0)" style="fill: none; stroke-dasharray: 7.4,3.2; stroke-dashoffset: 0; stroke: #d62728; stroke-width: 2"/>
   </g>
   <g id="line2d_24">
    <path d="M 70.035346 188.314436 
L 73.53787 188.0209 
L 77.040395 187.661788 
L 80.542919 187.222277 
L 84.045443 186.684351 
L 87.547967 186.026216 
L 91.050492 185.223726 
L 94.553016 184.260468 
L 98.05554 183.106851 
L 101.558065 181.725571 
L 105.060589 180.073156 
L 108.563113 178.099642 
L 112.065637 175.753453 
L 115.568162 173.020639 
L 119.070686 169.856915 
L 122.57321 166.205371 
L 126.075735 162.042547 
L 129.578259 157.374319 
L 133.080783 152.163584 
L 136.583307 146.383531 
L 140.085832 140.055271 
L 143.588356 133.255458 
L 147.09088 126.022576 
L 150.593405 118.423552 
L 154.095929 110.54393 
L 157.598453 102.498771 
L 161.100978 94.447234 
L 164.603502 86.599016 
L 168.106026 79.100994 
L 171.60855 72.084781 
L 175.111075 65.702751 
L 178.613599 60.273001 
L 182.116123 56.036142 
L 185.618648 52.967199 
L 189.121172 51.091211 
L 192.623696 50.672343 
L 196.12622 51.659595 
L 199.628745 53.832736 
L 203.131269 57.228532 
L 206.633793 61.803677 
L 210.136318 67.286829 
L 213.638842 73.593326 
L 217.141366 80.580659 
L 220.64389 88.027665 
L 224.146415 95.774152 
L 227.648939 103.607106 
L 231.151463 111.322397 
L 234.653988 118.743757 
L 238.156512 125.706525 
L 241.659036 132.120656 
L 245.161561 137.909431 
L 248.664085 143.086307 
L 252.166609 147.666076 
L 255.669133 151.695787 
L 259.171658 155.243659 
L 262.674182 158.366095 
L 266.176706 161.11953 
L 269.679231 163.558632 
L 273.181755 165.731176 
L 276.684279 167.67678 
L 280.186803 169.429479 
L 283.689328 171.018993 
L 287.191852 172.468946 
L 290.694376 173.799792 
L 294.196901 175.027365 
L 297.699425 176.164807 
L 301.201949 177.222228 
L 304.704473 178.207778 
L 308.206998 179.12769 
L 311.709522 179.986767 
L 315.212046 180.789176 
L 318.714571 181.538095 
L 322.217095 182.236098 
L 325.719619 182.885712 
L 329.222144 183.488993 
L 332.724668 184.048071 
L 336.227192 184.564864 
L 339.729716 185.041413 
L 343.232241 185.479696 
L 346.734765 185.881719 
L 350.237289 186.249505 
L 353.739814 186.585101 
L 357.242338 186.890546 
L 360.744862 187.167858 
L 364.247386 187.419028 
L 367.749911 187.646 
L 371.252435 187.850656 
L 374.754959 188.03482 
L 378.257484 188.200222 
L 381.760008 188.348511 
L 385.262532 188.481239 
L 388.765056 188.599864 
L 392.267581 188.705742 
L 395.770105 188.800129 
L 399.272629 188.884183 
L 402.775154 188.958966 
L 406.277678 189.025449 
L 409.780202 189.084511 
L 413.282727 189.13695 
L 416.785251 189.183486 
" clip-path="url(#p4e7bf8dab0)" style="fill: none; stroke-dasharray: 7.4,3.2; stroke-dashoffset: 0; stroke: #e377c2; stroke-width: 2"/>
   </g>
   <g id="line2d_25">
    <path d="M 70.035346 144.669961 
L 73.53787 140.207762 
L 77.040395 135.422794 
L 80.542919 130.328538 
L 84.045443 124.951463 
L 87.547967 119.334499 
L 91.050492 113.527576 
L 94.553016 107.522267 
L 98.05554 101.388086 
L 101.558065 95.23761 
L 105.060589 89.217697 
L 108.563113 83.51353 
L 112.065637 78.319639 
L 115.568162 73.585658 
L 119.070686 69.465965 
L 122.57321 66.211626 
L 126.075735 63.864591 
L 129.578259 62.288692 
L 133.080783 61.685506 
L 136.583307 62.247485 
L 140.085832 63.877623 
L 143.588356 66.120222 
L 147.09088 68.980489 
L 150.593405 72.313716 
L 154.095929 75.823343 
L 157.598453 79.451048 
L 161.100978 83.123148 
L 164.603502 86.733329 
L 168.106026 90.232545 
L 171.60855 93.638134 
L 175.111075 96.972838 
L 178.613599 100.174641 
L 182.116123 103.248637 
L 185.618648 106.29611 
L 189.121172 109.32349 
L 192.623696 112.298622 
L 196.12622 115.279375 
L 199.628745 118.309917 
L 203.131269 121.376842 
L 206.633793 124.489466 
L 210.136318 127.669774 
L 213.638842 130.890256 
L 217.141366 134.143266 
L 220.64389 137.410462 
L 224.146415 140.655438 
L 227.648939 143.864804 
L 231.151463 147.000817 
L 234.653988 150.050226 
L 238.156512 152.983091 
L 241.659036 155.791012 
L 245.161561 158.455036 
L 248.664085 160.972583 
L 252.166609 163.339881 
L 255.669133 165.553627 
L 259.171658 167.619406 
L 262.674182 169.541293 
L 266.176706 171.323565 
L 269.679231 172.97309 
L 273.181755 174.497172 
L 276.684279 175.902322 
L 280.186803 177.195463 
L 283.689328 178.383421 
L 287.191852 179.472539 
L 290.694376 180.469304 
L 294.196901 181.379707 
L 297.699425 182.209637 
L 301.201949 182.964599 
L 304.704473 183.650055 
L 308.206998 184.271095 
L 311.709522 184.832525 
L 315.212046 185.339195 
L 318.714571 185.795537 
L 322.217095 186.205698 
L 325.719619 186.573771 
L 329.222144 186.903453 
L 332.724668 187.198305 
L 336.227192 187.461564 
L 339.729716 187.696307 
L 343.232241 187.905331 
L 346.734765 188.091224 
L 350.237289 188.256353 
L 353.739814 188.402891 
L 357.242338 188.532809 
L 360.744862 188.647896 
L 364.247386 188.749772 
L 367.749911 188.839896 
L 371.252435 188.919581 
L 374.754959 188.990009 
L 378.257484 189.052235 
L 381.760008 189.107204 
L 385.262532 189.155759 
L 388.765056 189.19865 
L 392.267581 189.236546 
L 395.770105 189.27004 
L 399.272629 189.299656 
L 402.775154 189.325862 
L 406.277678 189.349068 
L 409.780202 189.36964 
L 413.282727 189.387897 
L 416.785251 189.404124 
" clip-path="url(#p4e7bf8dab0)" style="fill: none; stroke-dasharray: 7.4,3.2; stroke-dashoffset: 0; stroke: #17becf; stroke-width: 2"/>
   </g>
   <g id="line2d_26">
    <path d="M 70.035346 36.545361 
L 73.53787 36.550604 
L 77.040395 36.55676 
L 80.542919 36.563974 
L 84.045443 36.572441 
L 87.547967 36.582401 
L 91.050492 36.594143 
L 94.553016 36.608012 
L 98.05554 36.624397 
L 101.558065 36.643627 
L 105.060589 36.666193 
L 108.563113 36.692703 
L 112.065637 36.72387 
L 115.568162 36.760519 
L 119.070686 36.80352 
L 122.57321 36.85338 
L 126.075735 36.911042 
L 129.578259 36.977635 
L 133.080783 37.053822 
L 136.583307 37.140184 
L 140.085832 37.23787 
L 143.588356 37.348013 
L 147.09088 37.47117 
L 150.593405 37.607504 
L 154.095929 37.757913 
L 157.598453 37.923246 
L 161.100978 38.10452 
L 164.603502 38.302793 
L 168.106026 38.519128 
L 171.60855 38.754701 
L 175.111075 39.011923 
L 178.613599 39.292946 
L 182.116123 39.60079 
L 185.618648 39.937502 
L 189.121172 40.305061 
L 192.623696 40.706151 
L 196.12622 41.14462 
L 199.628745 41.624119 
L 203.131269 42.147664 
L 206.633793 42.717661 
L 210.136318 43.336989 
L 213.638842 44.009565 
L 217.141366 44.738752 
L 220.64389 45.526198 
L 224.146415 46.373268 
L 227.648939 47.282711 
L 231.151463 48.256484 
L 234.653988 49.293669 
L 238.156512 50.395841 
L 241.659036 51.56471 
L 245.161561 52.797986 
L 248.664085 54.097759 
L 252.166609 55.463986 
L 255.669133 56.895734 
L 259.171658 58.39547 
L 262.674182 59.960334 
L 266.176706 61.593454 
L 269.679231 63.291402 
L 273.181755 65.056458 
L 276.684279 66.88477 
L 280.186803 68.7777 
L 283.689328 70.730949 
L 287.191852 72.744483 
L 290.694376 74.8148 
L 294.196901 76.939201 
L 297.699425 79.115751 
L 301.201949 81.340147 
L 304.704473 83.6099 
L 308.206998 85.921862 
L 311.709522 88.272055 
L 315.212046 90.656866 
L 318.714571 93.073849 
L 322.217095 95.518304 
L 325.719619 97.987435 
L 329.222144 100.477177 
L 332.724668 102.984635 
L 336.227192 105.506808 
L 339.729716 108.040004 
L 343.232241 110.581495 
L 346.734765 113.127834 
L 350.237289 115.676546 
L 353.739814 118.224368 
L 357.242338 120.768949 
L 360.744862 123.307271 
L 364.247386 125.837027 
L 367.749911 128.35536 
L 371.252435 130.860098 
L 374.754959 133.348631 
L 378.257484 135.818445 
L 381.760008 138.267173 
L 385.262532 140.69238 
L 388.765056 143.0919 
L 392.267581 145.463047 
L 395.770105 147.803519 
L 399.272629 150.110838 
L 402.775154 152.382515 
L 406.277678 154.615943 
L 409.780202 156.808516 
L 413.282727 158.957413 
L 416.785251 161.059883 
" clip-path="url(#p4e7bf8dab0)" style="fill: none; stroke: #1f77b4"/>
   </g>
   <g id="line2d_27">
    <path d="M 70.035346 189.541297 
L 73.53787 189.541267 
L 77.040395 189.541227 
L 80.542919 189.541166 
L 84.045443 189.541078 
L 87.547967 189.540952 
L 91.050492 189.540774 
L 94.553016 189.540525 
L 98.05554 189.540176 
L 101.558065 189.539665 
L 105.060589 189.53893 
L 108.563113 189.537892 
L 112.065637 189.536447 
L 115.568162 189.534455 
L 119.070686 189.531718 
L 122.57321 189.527925 
L 126.075735 189.52273 
L 129.578259 189.515698 
L 133.080783 189.506274 
L 136.583307 189.493789 
L 140.085832 189.477414 
L 143.588356 189.456118 
L 147.09088 189.428802 
L 150.593405 189.39431 
L 154.095929 189.350967 
L 157.598453 189.297169 
L 161.100978 189.231027 
L 164.603502 189.149729 
L 168.106026 189.049863 
L 171.60855 188.927375 
L 175.111075 188.77799 
L 178.613599 188.596117 
L 182.116123 188.375558 
L 185.618648 188.108036 
L 189.121172 187.78343 
L 192.623696 187.390401 
L 196.12622 186.91736 
L 199.628745 186.352432 
L 203.131269 185.680168 
L 206.633793 184.881191 
L 210.136318 183.936931 
L 213.638842 182.835426 
L 217.141366 181.566229 
L 220.64389 180.111135 
L 224.146415 178.457034 
L 227.648939 176.609606 
L 231.151463 174.575285 
L 234.653988 172.357021 
L 238.156512 169.979119 
L 241.659036 167.467117 
L 245.161561 164.847172 
L 248.664085 162.145184 
L 252.166609 159.382345 
L 255.669133 156.572924 
L 259.171658 153.710673 
L 262.674182 150.799081 
L 266.176706 147.812676 
L 269.679231 144.74724 
L 273.181755 141.579738 
L 276.684279 138.307211 
L 280.186803 134.916414 
L 283.689328 131.409317 
L 287.191852 127.782455 
L 290.694376 124.040882 
L 294.196901 120.191356 
L 297.699425 116.241421 
L 301.201949 112.205116 
L 304.704473 108.096032 
L 308.206998 103.930733 
L 311.709522 99.729221 
L 315.212046 95.512737 
L 318.714571 91.301533 
L 322.217095 87.12085 
L 325.719619 82.993069 
L 329.222144 78.943136 
L 332.724668 74.99337 
L 336.227192 71.165679 
L 339.729716 67.482498 
L 343.232241 63.963143 
L 346.734765 60.627102 
L 350.237289 57.490378 
L 353.739814 54.569135 
L 357.242338 51.876119 
L 360.744862 49.42402 
L 364.247386 47.222698 
L 367.749911 45.281853 
L 371.252435 43.608732 
L 374.754959 42.210409 
L 378.257484 41.092911 
L 381.760008 40.261189 
L 385.262532 39.719635 
L 388.765056 39.471626 
L 392.267581 39.520692 
L 395.770105 39.869158 
L 399.272629 40.518944 
L 402.775154 41.471187 
L 406.277678 42.726274 
L 409.780202 44.283523 
L 413.282727 46.141236 
L 416.785251 48.296239 
" clip-path="url(#p4e7bf8dab0)" style="fill: none; stroke: #d62728"/>
   </g>
   <g id="line2d_28">
    <path d="M 70.035346 189.00081 
L 73.53787 188.870906 
L 77.040395 188.709661 
L 80.542919 188.511442 
L 84.045443 188.267903 
L 87.547967 187.96857 
L 91.050492 187.600639 
L 94.553016 187.148522 
L 98.05554 186.594511 
L 101.558065 185.925403 
L 105.060589 185.119145 
L 108.563113 184.147801 
L 112.065637 182.978478 
L 115.568162 181.572881 
L 119.070686 179.891695 
L 122.57321 177.919129 
L 126.075735 175.615661 
L 129.578259 172.93342 
L 133.080783 169.855702 
L 136.583307 166.374584 
L 140.085832 162.452737 
L 143.588356 158.059251 
L 147.09088 153.204437 
L 150.593405 147.930211 
L 154.095929 142.244117 
L 157.598453 136.168355 
L 161.100978 129.728764 
L 164.603502 122.964945 
L 168.106026 115.936631 
L 171.60855 108.719946 
L 175.111075 101.332072 
L 178.613599 93.835266 
L 182.116123 86.249173 
L 185.618648 78.707494 
L 189.121172 71.393534 
L 192.623696 64.461332 
L 196.12622 57.963996 
L 199.628745 51.967625 
L 203.131269 46.660284 
L 206.633793 42.348096 
L 210.136318 39.256824 
L 213.638842 37.386 
L 217.141366 36.794078 
L 220.64389 37.771153 
L 224.146415 40.531416 
L 227.648939 44.925864 
L 231.151463 50.850945 
L 234.653988 58.368275 
L 238.156512 67.094147 
L 241.659036 76.59458 
L 245.161561 86.556952 
L 248.664085 96.458205 
L 252.166609 105.895257 
L 255.669133 114.576087 
L 259.171658 122.384455 
L 262.674182 129.215038 
L 266.176706 135.235725 
L 269.679231 140.469998 
L 273.181755 145.116217 
L 276.684279 149.221599 
L 280.186803 152.915865 
L 283.689328 156.234893 
L 287.191852 159.248848 
L 290.694376 161.994519 
L 294.196901 164.501036 
L 297.699425 166.802942 
L 301.201949 168.916897 
L 304.704473 170.861956 
L 308.206998 172.65435 
L 311.709522 174.305079 
L 315.212046 175.822701 
L 318.714571 177.217466 
L 322.217095 178.496412 
L 325.719619 179.666441 
L 329.222144 180.732813 
L 332.724668 181.702454 
L 336.227192 182.58133 
L 339.729716 183.375199 
L 343.232241 184.089879 
L 346.734765 184.731162 
L 350.237289 185.304761 
L 353.739814 185.816197 
L 357.242338 186.27091 
L 360.744862 186.674059 
L 364.247386 187.030585 
L 367.749911 187.345102 
L 371.252435 187.621995 
L 374.754959 187.865279 
L 378.257484 188.078608 
L 381.760008 188.265406 
L 385.262532 188.428752 
L 388.765056 188.571424 
L 392.267581 188.695882 
L 395.770105 188.804385 
L 399.272629 188.898897 
L 402.775154 188.98119 
L 406.277678 189.052808 
L 409.780202 189.115125 
L 413.282727 189.169336 
L 416.785251 189.216498 
" clip-path="url(#p4e7bf8dab0)" style="fill: none; stroke: #e377c2"/>
   </g>
   <g id="line2d_29">
    <path d="M 70.035346 159.851066 
L 73.53787 156.665823 
L 77.040395 153.204511 
L 80.542919 149.449561 
L 84.045443 145.395389 
L 87.547967 141.044465 
L 91.050492 136.408403 
L 94.553016 131.510783 
L 98.05554 126.383377 
L 101.558065 121.027001 
L 105.060589 115.49251 
L 108.563113 109.86433 
L 112.065637 104.256831 
L 115.568162 98.819663 
L 119.070686 93.713542 
L 122.57321 88.955826 
L 126.075735 84.723743 
L 129.578259 81.265297 
L 133.080783 78.616247 
L 136.583307 76.757932 
L 140.085832 75.917551 
L 143.588356 76.316411 
L 147.09088 77.831072 
L 150.593405 80.047938 
L 154.095929 82.980409 
L 157.598453 86.35704 
L 161.100978 89.874334 
L 164.603502 93.464524 
L 168.106026 97.024268 
L 171.60855 100.411142 
L 175.111075 103.584178 
L 178.613599 106.539952 
L 182.116123 109.39632 
L 185.618648 112.113782 
L 189.121172 114.634571 
L 192.623696 116.98932 
L 196.12622 119.324757 
L 199.628745 121.647467 
L 203.131269 123.953427 
L 206.633793 126.22138 
L 210.136318 128.487599 
L 213.638842 130.839606 
L 217.141366 133.270616 
L 220.64389 135.767772 
L 224.146415 138.331843 
L 227.648939 140.973771 
L 231.151463 143.663177 
L 234.653988 146.366684 
L 238.156512 149.07546 
L 241.659036 151.752282 
L 245.161561 154.360603 
L 248.664085 156.893653 
L 252.166609 159.316853 
L 255.669133 161.625559 
L 259.171658 163.810502 
L 262.674182 165.861411 
L 266.176706 167.790712 
L 269.679231 169.590913 
L 273.181755 171.277373 
L 276.684279 172.84676 
L 280.186803 174.310929 
L 283.689328 175.670106 
L 287.191852 176.930929 
L 290.694376 178.098473 
L 294.196901 179.174803 
L 297.699425 180.166582 
L 301.201949 181.077358 
L 304.704473 181.911641 
L 308.206998 182.674382 
L 311.709522 183.370188 
L 315.212046 184.002718 
L 318.714571 184.577153 
L 322.217095 185.097366 
L 325.719619 185.567722 
L 329.222144 185.991685 
L 332.724668 186.373404 
L 336.227192 186.716509 
L 339.729716 187.024313 
L 343.232241 187.300037 
L 346.734765 187.546683 
L 350.237289 187.767049 
L 353.739814 187.963692 
L 357.242338 188.139002 
L 360.744862 188.295143 
L 364.247386 188.434105 
L 367.749911 188.557677 
L 371.252435 188.667516 
L 374.754959 188.765094 
L 378.257484 188.851724 
L 381.760008 188.928619 
L 385.262532 188.996854 
L 388.765056 189.057396 
L 392.267581 189.111093 
L 395.770105 189.158726 
L 399.272629 189.200974 
L 402.775154 189.238455 
L 406.277678 189.271709 
L 409.780202 189.301224 
L 413.282727 189.327428 
L 416.785251 189.350704 
" clip-path="url(#p4e7bf8dab0)" style="fill: none; stroke: #17becf"/>
   </g>
   <g id="text_7">
    <!-- $C_{10}H_{16}$ -->
    <g style="fill: #1f77b4" transform="translate(116.355327 27.067972)scale(0.14 -0.14)">
     <defs>
      <path id="DejaVuSans-Oblique-43" d="M 4447 4306 
L 4319 3641 
Q 4019 3944 3683 4091 
Q 3347 4238 2956 4238 
Q 2422 4238 2017 3981 
Q 1613 3725 1319 3200 
Q 1131 2863 1032 2486 
Q 934 2109 934 1728 
Q 934 1091 1264 756 
Q 1594 422 2222 422 
Q 2656 422 3056 561 
Q 3456 700 3834 978 
L 3688 231 
Q 3316 72 2936 -9 
Q 2556 -91 2175 -91 
Q 1278 -91 773 396 
Q 269 884 269 1753 
Q 269 2309 461 2846 
Q 653 3384 1013 3828 
Q 1394 4300 1883 4525 
Q 2372 4750 3022 4750 
Q 3422 4750 3780 4639 
Q 4138 4528 4447 4306 
z
" transform="scale(0.015625)"/>
      <path id="DejaVuSans-Oblique-48" d="M 1081 4666 
L 1716 4666 
L 1344 2753 
L 3634 2753 
L 4006 4666 
L 4641 4666 
L 3731 0 
L 3097 0 
L 3531 2222 
L 1241 2222 
L 806 0 
L 172 0 
L 1081 4666 
z
" transform="scale(0.015625)"/>
      <path id="DejaVuSans-36" d="M 2113 2584 
Q 1688 2584 1439 2293 
Q 1191 2003 1191 1497 
Q 1191 994 1439 701 
Q 1688 409 2113 409 
Q 2538 409 2786 701 
Q 3034 994 3034 1497 
Q 3034 2003 2786 2293 
Q 2538 2584 2113 2584 
z
M 3366 4563 
L 3366 3988 
Q 3128 4100 2886 4159 
Q 2644 4219 2406 4219 
Q 1781 4219 1451 3797 
Q 1122 3375 1075 2522 
Q 1259 2794 1537 2939 
Q 1816 3084 2150 3084 
Q 2853 3084 3261 2657 
Q 3669 2231 3669 1497 
Q 3669 778 3244 343 
Q 2819 -91 2113 -91 
Q 1303 -91 875 529 
Q 447 1150 447 2328 
Q 447 3434 972 4092 
Q 1497 4750 2381 4750 
Q 2619 4750 2861 4703 
Q 3103 4656 3366 4563 
z
" transform="scale(0.015625)"/>
     </defs>
     <use xlink:href="#DejaVuSans-Oblique-43" transform="translate(0 0.78125)"/>
     <use xlink:href="#DejaVuSans-31" transform="translate(69.824219 -15.625)scale(0.7)"/>
     <use xlink:href="#DejaVuSans-30" transform="translate(114.360352 -15.625)scale(0.7)"/>
     <use xlink:href="#DejaVuSans-Oblique-48" transform="translate(161.630859 0.78125)"/>
     <use xlink:href="#DejaVuSans-31" transform="translate(236.826172 -15.625)scale(0.7)"/>
     <use xlink:href="#DejaVuSans-36" transform="translate(281.362305 -15.625)scale(0.7)"/>
    </g>
   </g>
   <g id="text_8">
    <!-- $50 \, C_5H_5$ -->
    <g style="fill: #d62728" transform="translate(353.64362 68.652105)scale(0.14 -0.14)">
     <use xlink:href="#DejaVuSans-35" transform="translate(0 0.78125)"/>
     <use xlink:href="#DejaVuSans-30" transform="translate(63.623047 0.78125)"/>
     <use xlink:href="#DejaVuSans-Oblique-43" transform="translate(143.48177 0.78125)"/>
     <use xlink:href="#DejaVuSans-35" transform="translate(213.305989 -15.625)scale(0.7)"/>
     <use xlink:href="#DejaVuSans-Oblique-48" transform="translate(260.576497 0.78125)"/>
     <use xlink:href="#DejaVuSans-35" transform="translate(335.771809 -15.625)scale(0.7)"/>
    </g>
   </g>
   <g id="text_9">
    <!-- $2\times10^3 \, CH_3$ -->
    <g style="fill: #e377c2" transform="translate(201.853658 102.774724)scale(0.14 -0.14)">
     <defs>
      <path id="DejaVuSans-d7" d="M 4488 3438 
L 3059 2003 
L 4488 575 
L 4116 197 
L 2681 1631 
L 1247 197 
L 878 575 
L 2303 2003 
L 878 3438 
L 1247 3816 
L 2681 2381 
L 4116 3816 
L 4488 3438 
z
" transform="scale(0.015625)"/>
      <path id="DejaVuSans-33" d="M 2597 2516 
Q 3050 2419 3304 2112 
Q 3559 1806 3559 1356 
Q 3559 666 3084 287 
Q 2609 -91 1734 -91 
Q 1441 -91 1130 -33 
Q 819 25 488 141 
L 488 750 
Q 750 597 1062 519 
Q 1375 441 1716 441 
Q 2309 441 2620 675 
Q 2931 909 2931 1356 
Q 2931 1769 2642 2001 
Q 2353 2234 1838 2234 
L 1294 2234 
L 1294 2753 
L 1863 2753 
Q 2328 2753 2575 2939 
Q 2822 3125 2822 3475 
Q 2822 3834 2567 4026 
Q 2313 4219 1838 4219 
Q 1578 4219 1281 4162 
Q 984 4106 628 3988 
L 628 4550 
Q 988 4650 1302 4700 
Q 1616 4750 1894 4750 
Q 2613 4750 3031 4423 
Q 3450 4097 3450 3541 
Q 3450 3153 3228 2886 
Q 3006 2619 2597 2516 
z
" transform="scale(0.015625)"/>
     </defs>
     <use xlink:href="#DejaVuSans-32" transform="translate(0 0.765625)"/>
     <use xlink:href="#DejaVuSans-d7" transform="translate(83.105469 0.765625)"/>
     <use xlink:href="#DejaVuSans-31" transform="translate(186.376953 0.765625)"/>
     <use xlink:href="#DejaVuSans-30" transform="translate(250 0.765625)"/>
     <use xlink:href="#DejaVuSans-33" transform="translate(314.580078 39.046875)scale(0.7)"/>
     <use xlink:href="#DejaVuSans-Oblique-43" transform="translate(378.086262 0.765625)"/>
     <use xlink:href="#DejaVuSans-Oblique-48" transform="translate(447.910481 0.765625)"/>
     <use xlink:href="#DejaVuSans-33" transform="translate(523.105793 -15.640625)scale(0.7)"/>
    </g>
   </g>
   <g id="text_10">
    <!-- $10^5 \, H$ -->
    <g style="fill: #17becf" transform="translate(72.22177 76.968932)scale(0.14 -0.14)">
     <use xlink:href="#DejaVuSans-31" transform="translate(0 0.684375)"/>
     <use xlink:href="#DejaVuSans-30" transform="translate(63.623047 0.684375)"/>
     <use xlink:href="#DejaVuSans-35" transform="translate(128.203125 38.965625)scale(0.7)"/>
     <use xlink:href="#DejaVuSans-Oblique-48" transform="translate(191.709309 0.684375)"/>
    </g>
   </g>
   <g id="text_11">
    <!-- Training Set #1 -->
    <g transform="translate(314.515844 18.751145)scale(0.14 -0.14)">
     <defs>
      <path id="DejaVuSans-54" d="M -19 4666 
L 3928 4666 
L 3928 4134 
L 2272 4134 
L 2272 0 
L 1638 0 
L 1638 4134 
L -19 4134 
L -19 4666 
z
" transform="scale(0.015625)"/>
      <path id="DejaVuSans-72" d="M 2631 2963 
Q 2534 3019 2420 3045 
Q 2306 3072 2169 3072 
Q 1681 3072 1420 2755 
Q 1159 2438 1159 1844 
L 1159 0 
L 581 0 
L 581 3500 
L 1159 3500 
L 1159 2956 
Q 1341 3275 1631 3429 
Q 1922 3584 2338 3584 
Q 2397 3584 2469 3576 
Q 2541 3569 2628 3553 
L 2631 2963 
z
" transform="scale(0.015625)"/>
      <path id="DejaVuSans-61" d="M 2194 1759 
Q 1497 1759 1228 1600 
Q 959 1441 959 1056 
Q 959 750 1161 570 
Q 1363 391 1709 391 
Q 2188 391 2477 730 
Q 2766 1069 2766 1631 
L 2766 1759 
L 2194 1759 
z
M 3341 1997 
L 3341 0 
L 2766 0 
L 2766 531 
Q 2569 213 2275 61 
Q 1981 -91 1556 -91 
Q 1019 -91 701 211 
Q 384 513 384 1019 
Q 384 1609 779 1909 
Q 1175 2209 1959 2209 
L 2766 2209 
L 2766 2266 
Q 2766 2663 2505 2880 
Q 2244 3097 1772 3097 
Q 1472 3097 1187 3025 
Q 903 2953 641 2809 
L 641 3341 
Q 956 3463 1253 3523 
Q 1550 3584 1831 3584 
Q 2591 3584 2966 3190 
Q 3341 2797 3341 1997 
z
" transform="scale(0.015625)"/>
      <path id="DejaVuSans-69" d="M 603 3500 
L 1178 3500 
L 1178 0 
L 603 0 
L 603 3500 
z
M 603 4863 
L 1178 4863 
L 1178 4134 
L 603 4134 
L 603 4863 
z
" transform="scale(0.015625)"/>
      <path id="DejaVuSans-6e" d="M 3513 2113 
L 3513 0 
L 2938 0 
L 2938 2094 
Q 2938 2591 2744 2837 
Q 2550 3084 2163 3084 
Q 1697 3084 1428 2787 
Q 1159 2491 1159 1978 
L 1159 0 
L 581 0 
L 581 3500 
L 1159 3500 
L 1159 2956 
Q 1366 3272 1645 3428 
Q 1925 3584 2291 3584 
Q 2894 3584 3203 3211 
Q 3513 2838 3513 2113 
z
" transform="scale(0.015625)"/>
      <path id="DejaVuSans-67" d="M 2906 1791 
Q 2906 2416 2648 2759 
Q 2391 3103 1925 3103 
Q 1463 3103 1205 2759 
Q 947 2416 947 1791 
Q 947 1169 1205 825 
Q 1463 481 1925 481 
Q 2391 481 2648 825 
Q 2906 1169 2906 1791 
z
M 3481 434 
Q 3481 -459 3084 -895 
Q 2688 -1331 1869 -1331 
Q 1566 -1331 1297 -1286 
Q 1028 -1241 775 -1147 
L 775 -588 
Q 1028 -725 1275 -790 
Q 1522 -856 1778 -856 
Q 2344 -856 2625 -561 
Q 2906 -266 2906 331 
L 2906 616 
Q 2728 306 2450 153 
Q 2172 0 1784 0 
Q 1141 0 747 490 
Q 353 981 353 1791 
Q 353 2603 747 3093 
Q 1141 3584 1784 3584 
Q 2172 3584 2450 3431 
Q 2728 3278 2906 2969 
L 2906 3500 
L 3481 3500 
L 3481 434 
z
" transform="scale(0.015625)"/>
      <path id="DejaVuSans-20" transform="scale(0.015625)"/>
      <path id="DejaVuSans-53" d="M 3425 4513 
L 3425 3897 
Q 3066 4069 2747 4153 
Q 2428 4238 2131 4238 
Q 1616 4238 1336 4038 
Q 1056 3838 1056 3469 
Q 1056 3159 1242 3001 
Q 1428 2844 1947 2747 
L 2328 2669 
Q 3034 2534 3370 2195 
Q 3706 1856 3706 1288 
Q 3706 609 3251 259 
Q 2797 -91 1919 -91 
Q 1588 -91 1214 -16 
Q 841 59 441 206 
L 441 856 
Q 825 641 1194 531 
Q 1563 422 1919 422 
Q 2459 422 2753 634 
Q 3047 847 3047 1241 
Q 3047 1584 2836 1778 
Q 2625 1972 2144 2069 
L 1759 2144 
Q 1053 2284 737 2584 
Q 422 2884 422 3419 
Q 422 4038 858 4394 
Q 1294 4750 2059 4750 
Q 2388 4750 2728 4690 
Q 3069 4631 3425 4513 
z
" transform="scale(0.015625)"/>
      <path id="DejaVuSans-65" d="M 3597 1894 
L 3597 1613 
L 953 1613 
Q 991 1019 1311 708 
Q 1631 397 2203 397 
Q 2534 397 2845 478 
Q 3156 559 3463 722 
L 3463 178 
Q 3153 47 2828 -22 
Q 2503 -91 2169 -91 
Q 1331 -91 842 396 
Q 353 884 353 1716 
Q 353 2575 817 3079 
Q 1281 3584 2069 3584 
Q 2775 3584 3186 3129 
Q 3597 2675 3597 1894 
z
M 3022 2063 
Q 3016 2534 2758 2815 
Q 2500 3097 2075 3097 
Q 1594 3097 1305 2825 
Q 1016 2553 972 2059 
L 3022 2063 
z
" transform="scale(0.015625)"/>
      <path id="DejaVuSans-74" d="M 1172 4494 
L 1172 3500 
L 2356 3500 
L 2356 3053 
L 1172 3053 
L 1172 1153 
Q 1172 725 1289 603 
Q 1406 481 1766 481 
L 2356 481 
L 2356 0 
L 1766 0 
Q 1100 0 847 248 
Q 594 497 594 1153 
L 594 3053 
L 172 3053 
L 172 3500 
L 594 3500 
L 594 4494 
L 1172 4494 
z
" transform="scale(0.015625)"/>
      <path id="DejaVuSans-23" d="M 3272 2816 
L 2363 2816 
L 2100 1772 
L 3016 1772 
L 3272 2816 
z
M 2803 4594 
L 2478 3297 
L 3391 3297 
L 3719 4594 
L 4219 4594 
L 3897 3297 
L 4872 3297 
L 4872 2816 
L 3775 2816 
L 3519 1772 
L 4513 1772 
L 4513 1294 
L 3397 1294 
L 3072 0 
L 2572 0 
L 2894 1294 
L 1978 1294 
L 1656 0 
L 1153 0 
L 1478 1294 
L 494 1294 
L 494 1772 
L 1594 1772 
L 1856 2816 
L 850 2816 
L 850 3297 
L 1978 3297 
L 2297 4594 
L 2803 4594 
z
" transform="scale(0.015625)"/>
     </defs>
     <use xlink:href="#DejaVuSans-54"/>
     <use xlink:href="#DejaVuSans-72" x="46.333984"/>
     <use xlink:href="#DejaVuSans-61" x="87.447266"/>
     <use xlink:href="#DejaVuSans-69" x="148.726562"/>
     <use xlink:href="#DejaVuSans-6e" x="176.509766"/>
     <use xlink:href="#DejaVuSans-69" x="239.888672"/>
     <use xlink:href="#DejaVuSans-6e" x="267.671875"/>
     <use xlink:href="#DejaVuSans-67" x="331.050781"/>
     <use xlink:href="#DejaVuSans-20" x="394.527344"/>
     <use xlink:href="#DejaVuSans-53" x="426.314453"/>
     <use xlink:href="#DejaVuSans-65" x="489.791016"/>
     <use xlink:href="#DejaVuSans-74" x="551.314453"/>
     <use xlink:href="#DejaVuSans-20" x="590.523438"/>
     <use xlink:href="#DejaVuSans-23" x="622.310547"/>
     <use xlink:href="#DejaVuSans-31" x="706.099609"/>
    </g>
   </g>
  </g>
  <g id="axes_2">
   <g id="patch_7">
    <path d="M 59.632849 392.793354 
L 427.187748 392.793354 
L 427.187748 200.648646 
L 59.632849 200.648646 
z
" style="fill: #ffffff"/>
   </g>
   <g id="matplotlib.axis_3">
    <g id="xtick_7">
     <g id="line2d_30">
      <path d="M 70.035346 392.793354 
L 70.035346 200.648646 
" clip-path="url(#p2c54ed1cd1)" style="fill: none; stroke: #000000; stroke-opacity: 0.1; stroke-width: 0.5; stroke-linecap: square"/>
     </g>
     <g id="line2d_31">
      <defs>
       <path id="mb611cb41f1" d="M 0 0 
L 0 -2.5 
" style="stroke: #000000; stroke-width: 0.5"/>
      </defs>
      <g>
       <use xlink:href="#mb611cb41f1" x="70.035346" y="392.793354" style="stroke: #000000; stroke-width: 0.5"/>
      </g>
     </g>
     <g id="line2d_32">
      <defs>
       <path id="m6c60de5c7a" d="M 0 0 
L 0 2.5 
" style="stroke: #000000; stroke-width: 0.5"/>
      </defs>
      <g>
       <use xlink:href="#m6c60de5c7a" x="70.035346" y="200.648646" style="stroke: #000000; stroke-width: 0.5"/>
      </g>
     </g>
     <g id="text_12">
      <!-- $\mathregular{10^{-6}}$ -->
      <g transform="translate(55.935346 405.411479)scale(0.12 -0.12)">
       <defs>
        <path id="DejaVuSans-2212" d="M 678 2272 
L 4684 2272 
L 4684 1741 
L 678 1741 
L 678 2272 
z
" transform="scale(0.015625)"/>
       </defs>
       <use xlink:href="#DejaVuSans-31" transform="translate(0 0.765625)"/>
       <use xlink:href="#DejaVuSans-30" transform="translate(63.623047 0.765625)"/>
       <use xlink:href="#DejaVuSans-2212" transform="translate(128.203125 39.046875)scale(0.7)"/>
       <use xlink:href="#DejaVuSans-36" transform="translate(186.855469 39.046875)scale(0.7)"/>
      </g>
     </g>
    </g>
    <g id="xtick_8">
     <g id="line2d_33">
      <path d="M 139.385327 392.793354 
L 139.385327 200.648646 
" clip-path="url(#p2c54ed1cd1)" style="fill: none; stroke: #000000; stroke-opacity: 0.1; stroke-width: 0.5; stroke-linecap: square"/>
     </g>
     <g id="line2d_34">
      <g>
       <use xlink:href="#mb611cb41f1" x="139.385327" y="392.793354" style="stroke: #000000; stroke-width: 0.5"/>
      </g>
     </g>
     <g id="line2d_35">
      <g>
       <use xlink:href="#m6c60de5c7a" x="139.385327" y="200.648646" style="stroke: #000000; stroke-width: 0.5"/>
      </g>
     </g>
     <g id="text_13">
      <!-- $\mathregular{10^{-5}}$ -->
      <g transform="translate(125.285327 405.411479)scale(0.12 -0.12)">
       <use xlink:href="#DejaVuSans-31" transform="translate(0 0.684375)"/>
       <use xlink:href="#DejaVuSans-30" transform="translate(63.623047 0.684375)"/>
       <use xlink:href="#DejaVuSans-2212" transform="translate(128.203125 38.965625)scale(0.7)"/>
       <use xlink:href="#DejaVuSans-35" transform="translate(186.855469 38.965625)scale(0.7)"/>
      </g>
     </g>
    </g>
    <g id="xtick_9">
     <g id="line2d_36">
      <path d="M 208.735308 392.793354 
L 208.735308 200.648646 
" clip-path="url(#p2c54ed1cd1)" style="fill: none; stroke: #000000; stroke-opacity: 0.1; stroke-width: 0.5; stroke-linecap: square"/>
     </g>
     <g id="line2d_37">
      <g>
       <use xlink:href="#mb611cb41f1" x="208.735308" y="392.793354" style="stroke: #000000; stroke-width: 0.5"/>
      </g>
     </g>
     <g id="line2d_38">
      <g>
       <use xlink:href="#m6c60de5c7a" x="208.735308" y="200.648646" style="stroke: #000000; stroke-width: 0.5"/>
      </g>
     </g>
     <g id="text_14">
      <!-- $\mathregular{10^{-4}}$ -->
      <g transform="translate(194.635308 405.411479)scale(0.12 -0.12)">
       <defs>
        <path id="DejaVuSans-34" d="M 2419 4116 
L 825 1625 
L 2419 1625 
L 2419 4116 
z
M 2253 4666 
L 3047 4666 
L 3047 1625 
L 3713 1625 
L 3713 1100 
L 3047 1100 
L 3047 0 
L 2419 0 
L 2419 1100 
L 313 1100 
L 313 1709 
L 2253 4666 
z
" transform="scale(0.015625)"/>
       </defs>
       <use xlink:href="#DejaVuSans-31" transform="translate(0 0.684375)"/>
       <use xlink:href="#DejaVuSans-30" transform="translate(63.623047 0.684375)"/>
       <use xlink:href="#DejaVuSans-2212" transform="translate(128.203125 38.965625)scale(0.7)"/>
       <use xlink:href="#DejaVuSans-34" transform="translate(186.855469 38.965625)scale(0.7)"/>
      </g>
     </g>
    </g>
    <g id="xtick_10">
     <g id="line2d_39">
      <path d="M 278.085289 392.793354 
L 278.085289 200.648646 
" clip-path="url(#p2c54ed1cd1)" style="fill: none; stroke: #000000; stroke-opacity: 0.1; stroke-width: 0.5; stroke-linecap: square"/>
     </g>
     <g id="line2d_40">
      <g>
       <use xlink:href="#mb611cb41f1" x="278.085289" y="392.793354" style="stroke: #000000; stroke-width: 0.5"/>
      </g>
     </g>
     <g id="line2d_41">
      <g>
       <use xlink:href="#m6c60de5c7a" x="278.085289" y="200.648646" style="stroke: #000000; stroke-width: 0.5"/>
      </g>
     </g>
     <g id="text_15">
      <!-- $\mathregular{10^{-3}}$ -->
      <g transform="translate(263.985289 405.411479)scale(0.12 -0.12)">
       <use xlink:href="#DejaVuSans-31" transform="translate(0 0.765625)"/>
       <use xlink:href="#DejaVuSans-30" transform="translate(63.623047 0.765625)"/>
       <use xlink:href="#DejaVuSans-2212" transform="translate(128.203125 39.046875)scale(0.7)"/>
       <use xlink:href="#DejaVuSans-33" transform="translate(186.855469 39.046875)scale(0.7)"/>
      </g>
     </g>
    </g>
    <g id="xtick_11">
     <g id="line2d_42">
      <path d="M 347.43527 392.793354 
L 347.43527 200.648646 
" clip-path="url(#p2c54ed1cd1)" style="fill: none; stroke: #000000; stroke-opacity: 0.1; stroke-width: 0.5; stroke-linecap: square"/>
     </g>
     <g id="line2d_43">
      <g>
       <use xlink:href="#mb611cb41f1" x="347.43527" y="392.793354" style="stroke: #000000; stroke-width: 0.5"/>
      </g>
     </g>
     <g id="line2d_44">
      <g>
       <use xlink:href="#m6c60de5c7a" x="347.43527" y="200.648646" style="stroke: #000000; stroke-width: 0.5"/>
      </g>
     </g>
     <g id="text_16">
      <!-- $\mathregular{10^{-2}}$ -->
      <g transform="translate(333.33527 405.411479)scale(0.12 -0.12)">
       <use xlink:href="#DejaVuSans-31" transform="translate(0 0.765625)"/>
       <use xlink:href="#DejaVuSans-30" transform="translate(63.623047 0.765625)"/>
       <use xlink:href="#DejaVuSans-2212" transform="translate(128.203125 39.046875)scale(0.7)"/>
       <use xlink:href="#DejaVuSans-32" transform="translate(186.855469 39.046875)scale(0.7)"/>
      </g>
     </g>
    </g>
    <g id="xtick_12">
     <g id="line2d_45">
      <path d="M 416.785251 392.793354 
L 416.785251 200.648646 
" clip-path="url(#p2c54ed1cd1)" style="fill: none; stroke: #000000; stroke-opacity: 0.1; stroke-width: 0.5; stroke-linecap: square"/>
     </g>
     <g id="line2d_46">
      <g>
       <use xlink:href="#mb611cb41f1" x="416.785251" y="392.793354" style="stroke: #000000; stroke-width: 0.5"/>
      </g>
     </g>
     <g id="line2d_47">
      <g>
       <use xlink:href="#m6c60de5c7a" x="416.785251" y="200.648646" style="stroke: #000000; stroke-width: 0.5"/>
      </g>
     </g>
     <g id="text_17">
      <!-- $\mathregular{10^{-1}}$ -->
      <g transform="translate(402.685251 405.411479)scale(0.12 -0.12)">
       <use xlink:href="#DejaVuSans-31" transform="translate(0 0.684375)"/>
       <use xlink:href="#DejaVuSans-30" transform="translate(63.623047 0.684375)"/>
       <use xlink:href="#DejaVuSans-2212" transform="translate(128.203125 38.965625)scale(0.7)"/>
       <use xlink:href="#DejaVuSans-31" transform="translate(186.855469 38.965625)scale(0.7)"/>
      </g>
     </g>
    </g>
    <g id="text_18">
     <!-- Time [s] -->
     <g transform="translate(210.884048 424.064604)scale(0.16 -0.16)">
      <defs>
       <path id="DejaVuSans-6d" d="M 3328 2828 
Q 3544 3216 3844 3400 
Q 4144 3584 4550 3584 
Q 5097 3584 5394 3201 
Q 5691 2819 5691 2113 
L 5691 0 
L 5113 0 
L 5113 2094 
Q 5113 2597 4934 2840 
Q 4756 3084 4391 3084 
Q 3944 3084 3684 2787 
Q 3425 2491 3425 1978 
L 3425 0 
L 2847 0 
L 2847 2094 
Q 2847 2600 2669 2842 
Q 2491 3084 2119 3084 
Q 1678 3084 1418 2786 
Q 1159 2488 1159 1978 
L 1159 0 
L 581 0 
L 581 3500 
L 1159 3500 
L 1159 2956 
Q 1356 3278 1631 3431 
Q 1906 3584 2284 3584 
Q 2666 3584 2933 3390 
Q 3200 3197 3328 2828 
z
" transform="scale(0.015625)"/>
       <path id="DejaVuSans-5b" d="M 550 4863 
L 1875 4863 
L 1875 4416 
L 1125 4416 
L 1125 -397 
L 1875 -397 
L 1875 -844 
L 550 -844 
L 550 4863 
z
" transform="scale(0.015625)"/>
       <path id="DejaVuSans-73" d="M 2834 3397 
L 2834 2853 
Q 2591 2978 2328 3040 
Q 2066 3103 1784 3103 
Q 1356 3103 1142 2972 
Q 928 2841 928 2578 
Q 928 2378 1081 2264 
Q 1234 2150 1697 2047 
L 1894 2003 
Q 2506 1872 2764 1633 
Q 3022 1394 3022 966 
Q 3022 478 2636 193 
Q 2250 -91 1575 -91 
Q 1294 -91 989 -36 
Q 684 19 347 128 
L 347 722 
Q 666 556 975 473 
Q 1284 391 1588 391 
Q 1994 391 2212 530 
Q 2431 669 2431 922 
Q 2431 1156 2273 1281 
Q 2116 1406 1581 1522 
L 1381 1569 
Q 847 1681 609 1914 
Q 372 2147 372 2553 
Q 372 3047 722 3315 
Q 1072 3584 1716 3584 
Q 2034 3584 2315 3537 
Q 2597 3491 2834 3397 
z
" transform="scale(0.015625)"/>
       <path id="DejaVuSans-5d" d="M 1947 4863 
L 1947 -844 
L 622 -844 
L 622 -397 
L 1369 -397 
L 1369 4416 
L 622 4416 
L 622 4863 
L 1947 4863 
z
" transform="scale(0.015625)"/>
      </defs>
      <use xlink:href="#DejaVuSans-54"/>
      <use xlink:href="#DejaVuSans-69" x="57.958984"/>
      <use xlink:href="#DejaVuSans-6d" x="85.742188"/>
      <use xlink:href="#DejaVuSans-65" x="183.154297"/>
      <use xlink:href="#DejaVuSans-20" x="244.677734"/>
      <use xlink:href="#DejaVuSans-5b" x="276.464844"/>
      <use xlink:href="#DejaVuSans-73" x="315.478516"/>
      <use xlink:href="#DejaVuSans-5d" x="367.578125"/>
     </g>
    </g>
   </g>
   <g id="matplotlib.axis_4">
    <g id="ytick_6">
     <g id="line2d_48">
      <path d="M 59.632849 387.35979 
L 427.187748 387.35979 
" clip-path="url(#p2c54ed1cd1)" style="fill: none; stroke: #000000; stroke-opacity: 0.1; stroke-width: 0.5; stroke-linecap: square"/>
     </g>
     <g id="line2d_49">
      <g>
       <use xlink:href="#md68412c592" x="59.632849" y="387.35979" style="stroke: #000000; stroke-width: 0.5"/>
      </g>
     </g>
     <g id="line2d_50">
      <g>
       <use xlink:href="#mfb1737e6c8" x="427.187748" y="387.35979" style="stroke: #000000; stroke-width: 0.5"/>
      </g>
     </g>
     <g id="text_19">
      <!-- $\mathregular{0.00}$ -->
      <g transform="translate(29.372849 391.918852)scale(0.12 -0.12)">
       <use xlink:href="#DejaVuSans-30" transform="translate(0 0.78125)"/>
       <use xlink:href="#DejaVuSans-2e" transform="translate(63.623047 0.78125)"/>
       <use xlink:href="#DejaVuSans-30" transform="translate(95.410156 0.78125)"/>
       <use xlink:href="#DejaVuSans-30" transform="translate(159.033203 0.78125)"/>
      </g>
     </g>
    </g>
    <g id="ytick_7">
     <g id="line2d_51">
      <path d="M 59.632849 353.65373 
L 427.187748 353.65373 
" clip-path="url(#p2c54ed1cd1)" style="fill: none; stroke: #000000; stroke-opacity: 0.1; stroke-width: 0.5; stroke-linecap: square"/>
     </g>
     <g id="line2d_52">
      <g>
       <use xlink:href="#md68412c592" x="59.632849" y="353.65373" style="stroke: #000000; stroke-width: 0.5"/>
      </g>
     </g>
     <g id="line2d_53">
      <g>
       <use xlink:href="#mfb1737e6c8" x="427.187748" y="353.65373" style="stroke: #000000; stroke-width: 0.5"/>
      </g>
     </g>
     <g id="text_20">
      <!-- $\mathregular{0.05}$ -->
      <g transform="translate(29.372849 358.212793)scale(0.12 -0.12)">
       <use xlink:href="#DejaVuSans-30" transform="translate(0 0.78125)"/>
       <use xlink:href="#DejaVuSans-2e" transform="translate(63.623047 0.78125)"/>
       <use xlink:href="#DejaVuSans-30" transform="translate(95.410156 0.78125)"/>
       <use xlink:href="#DejaVuSans-35" transform="translate(159.033203 0.78125)"/>
      </g>
     </g>
    </g>
    <g id="ytick_8">
     <g id="line2d_54">
      <path d="M 59.632849 319.947671 
L 427.187748 319.947671 
" clip-path="url(#p2c54ed1cd1)" style="fill: none; stroke: #000000; stroke-opacity: 0.1; stroke-width: 0.5; stroke-linecap: square"/>
     </g>
     <g id="line2d_55">
      <g>
       <use xlink:href="#md68412c592" x="59.632849" y="319.947671" style="stroke: #000000; stroke-width: 0.5"/>
      </g>
     </g>
     <g id="line2d_56">
      <g>
       <use xlink:href="#mfb1737e6c8" x="427.187748" y="319.947671" style="stroke: #000000; stroke-width: 0.5"/>
      </g>
     </g>
     <g id="text_21">
      <!-- $\mathregular{0.10}$ -->
      <g transform="translate(29.372849 324.506734)scale(0.12 -0.12)">
       <use xlink:href="#DejaVuSans-30" transform="translate(0 0.78125)"/>
       <use xlink:href="#DejaVuSans-2e" transform="translate(63.623047 0.78125)"/>
       <use xlink:href="#DejaVuSans-31" transform="translate(95.410156 0.78125)"/>
       <use xlink:href="#DejaVuSans-30" transform="translate(159.033203 0.78125)"/>
      </g>
     </g>
    </g>
    <g id="ytick_9">
     <g id="line2d_57">
      <path d="M 59.632849 286.241612 
L 427.187748 286.241612 
" clip-path="url(#p2c54ed1cd1)" style="fill: none; stroke: #000000; stroke-opacity: 0.1; stroke-width: 0.5; stroke-linecap: square"/>
     </g>
     <g id="line2d_58">
      <g>
       <use xlink:href="#md68412c592" x="59.632849" y="286.241612" style="stroke: #000000; stroke-width: 0.5"/>
      </g>
     </g>
     <g id="line2d_59">
      <g>
       <use xlink:href="#mfb1737e6c8" x="427.187748" y="286.241612" style="stroke: #000000; stroke-width: 0.5"/>
      </g>
     </g>
     <g id="text_22">
      <!-- $\mathregular{0.15}$ -->
      <g transform="translate(29.372849 290.800674)scale(0.12 -0.12)">
       <use xlink:href="#DejaVuSans-30" transform="translate(0 0.78125)"/>
       <use xlink:href="#DejaVuSans-2e" transform="translate(63.623047 0.78125)"/>
       <use xlink:href="#DejaVuSans-31" transform="translate(95.410156 0.78125)"/>
       <use xlink:href="#DejaVuSans-35" transform="translate(159.033203 0.78125)"/>
      </g>
     </g>
    </g>
    <g id="ytick_10">
     <g id="line2d_60">
      <path d="M 59.632849 252.535552 
L 427.187748 252.535552 
" clip-path="url(#p2c54ed1cd1)" style="fill: none; stroke: #000000; stroke-opacity: 0.1; stroke-width: 0.5; stroke-linecap: square"/>
     </g>
     <g id="line2d_61">
      <g>
       <use xlink:href="#md68412c592" x="59.632849" y="252.535552" style="stroke: #000000; stroke-width: 0.5"/>
      </g>
     </g>
     <g id="line2d_62">
      <g>
       <use xlink:href="#mfb1737e6c8" x="427.187748" y="252.535552" style="stroke: #000000; stroke-width: 0.5"/>
      </g>
     </g>
     <g id="text_23">
      <!-- $\mathregular{0.20}$ -->
      <g transform="translate(29.972849 257.094615)scale(0.12 -0.12)">
       <use xlink:href="#DejaVuSans-30" transform="translate(0 0.78125)"/>
       <use xlink:href="#DejaVuSans-2e" transform="translate(63.623047 0.78125)"/>
       <use xlink:href="#DejaVuSans-32" transform="translate(89.910156 0.78125)"/>
       <use xlink:href="#DejaVuSans-30" transform="translate(153.533203 0.78125)"/>
      </g>
     </g>
    </g>
    <g id="ytick_11">
     <g id="line2d_63">
      <path d="M 59.632849 218.829493 
L 427.187748 218.829493 
" clip-path="url(#p2c54ed1cd1)" style="fill: none; stroke: #000000; stroke-opacity: 0.1; stroke-width: 0.5; stroke-linecap: square"/>
     </g>
     <g id="line2d_64">
      <g>
       <use xlink:href="#md68412c592" x="59.632849" y="218.829493" style="stroke: #000000; stroke-width: 0.5"/>
      </g>
     </g>
     <g id="line2d_65">
      <g>
       <use xlink:href="#mfb1737e6c8" x="427.187748" y="218.829493" style="stroke: #000000; stroke-width: 0.5"/>
      </g>
     </g>
     <g id="text_24">
      <!-- $\mathregular{0.25}$ -->
      <g transform="translate(29.972849 223.388555)scale(0.12 -0.12)">
       <use xlink:href="#DejaVuSans-30" transform="translate(0 0.78125)"/>
       <use xlink:href="#DejaVuSans-2e" transform="translate(63.623047 0.78125)"/>
       <use xlink:href="#DejaVuSans-32" transform="translate(89.910156 0.78125)"/>
       <use xlink:href="#DejaVuSans-35" transform="translate(153.533203 0.78125)"/>
      </g>
     </g>
    </g>
    <g id="text_25">
     <!-- Y -->
     <g transform="translate(22.045349 301.60725)rotate(-90)scale(0.16 -0.16)">
      <use xlink:href="#DejaVuSans-59"/>
     </g>
    </g>
   </g>
   <g id="PathCollection_5">
    <g clip-path="url(#p2c54ed1cd1)">
     <use xlink:href="#mfbd29a45c0" x="70.035346" y="247.343918" style="fill-opacity: 0; stroke: #1f77b4"/>
     <use xlink:href="#mfbd29a45c0" x="108.563113" y="248.225961" style="fill-opacity: 0; stroke: #1f77b4"/>
     <use xlink:href="#mfbd29a45c0" x="147.09088" y="251.004619" style="fill-opacity: 0; stroke: #1f77b4"/>
     <use xlink:href="#mfbd29a45c0" x="185.618648" y="257.382206" style="fill-opacity: 0; stroke: #1f77b4"/>
     <use xlink:href="#mfbd29a45c0" x="224.146415" y="268.916923" style="fill-opacity: 0; stroke: #1f77b4"/>
     <use xlink:href="#mfbd29a45c0" x="262.674182" y="284.461258" style="fill-opacity: 0; stroke: #1f77b4"/>
     <use xlink:href="#mfbd29a45c0" x="301.201949" y="301.921493" style="fill-opacity: 0; stroke: #1f77b4"/>
     <use xlink:href="#mfbd29a45c0" x="339.729716" y="319.481911" style="fill-opacity: 0; stroke: #1f77b4"/>
     <use xlink:href="#mfbd29a45c0" x="378.257484" y="336.311095" style="fill-opacity: 0; stroke: #1f77b4"/>
     <use xlink:href="#mfbd29a45c0" x="416.785251" y="351.969235" style="fill-opacity: 0; stroke: #1f77b4"/>
    </g>
   </g>
   <g id="PathCollection_6">
    <g clip-path="url(#p2c54ed1cd1)">
     <use xlink:href="#m5f0c2ab2e1" x="70.035346" y="387.355042" style="fill-opacity: 0; stroke: #d62728"/>
     <use xlink:href="#m5f0c2ab2e1" x="108.563113" y="387.195098" style="fill-opacity: 0; stroke: #d62728"/>
     <use xlink:href="#m5f0c2ab2e1" x="147.09088" y="385.332221" style="fill-opacity: 0; stroke: #d62728"/>
     <use xlink:href="#m5f0c2ab2e1" x="185.618648" y="374.058369" style="fill-opacity: 0; stroke: #d62728"/>
     <use xlink:href="#m5f0c2ab2e1" x="224.146415" y="345.396537" style="fill-opacity: 0; stroke: #d62728"/>
     <use xlink:href="#m5f0c2ab2e1" x="262.674182" y="312.953513" style="fill-opacity: 0; stroke: #d62728"/>
     <use xlink:href="#m5f0c2ab2e1" x="301.201949" y="280.059167" style="fill-opacity: 0; stroke: #d62728"/>
     <use xlink:href="#m5f0c2ab2e1" x="339.729716" y="262.001641" style="fill-opacity: 0; stroke: #d62728"/>
     <use xlink:href="#m5f0c2ab2e1" x="378.257484" y="267.810534" style="fill-opacity: 0; stroke: #d62728"/>
     <use xlink:href="#m5f0c2ab2e1" x="416.785251" y="293.465868" style="fill-opacity: 0; stroke: #d62728"/>
    </g>
   </g>
   <g id="patch_8">
    <path d="M 59.632849 392.793354 
L 59.632849 200.648646 
" style="fill: none; stroke: #000000; stroke-linejoin: miter; stroke-linecap: square"/>
   </g>
   <g id="patch_9">
    <path d="M 427.187748 392.793354 
L 427.187748 200.648646 
" style="fill: none; stroke: #000000; stroke-linejoin: miter; stroke-linecap: square"/>
   </g>
   <g id="patch_10">
    <path d="M 59.632849 392.793354 
L 427.187748 392.793354 
" style="fill: none; stroke: #000000; stroke-linejoin: miter; stroke-linecap: square"/>
   </g>
   <g id="patch_11">
    <path d="M 59.632849 200.648646 
L 427.187748 200.648646 
" style="fill: none; stroke: #000000; stroke-linejoin: miter; stroke-linecap: square"/>
   </g>
   <g id="PathCollection_7">
    <g clip-path="url(#p2c54ed1cd1)">
     <use xlink:href="#m7285b23aff" x="70.035346" y="381.779067" style="fill-opacity: 0; stroke: #e377c2"/>
     <use xlink:href="#m7285b23aff" x="108.563113" y="346.871354" style="fill-opacity: 0; stroke: #e377c2"/>
     <use xlink:href="#m7285b23aff" x="147.09088" y="257.004032" style="fill-opacity: 0; stroke: #e377c2"/>
     <use xlink:href="#m7285b23aff" x="185.618648" y="211.019844" style="fill-opacity: 0; stroke: #e377c2"/>
     <use xlink:href="#m7285b23aff" x="224.146415" y="316.922423" style="fill-opacity: 0; stroke: #e377c2"/>
     <use xlink:href="#m7285b23aff" x="262.674182" y="364.428564" style="fill-opacity: 0; stroke: #e377c2"/>
     <use xlink:href="#m7285b23aff" x="301.201949" y="380.180709" style="fill-opacity: 0; stroke: #e377c2"/>
     <use xlink:href="#m7285b23aff" x="339.729716" y="385.479305" style="fill-opacity: 0; stroke: #e377c2"/>
     <use xlink:href="#m7285b23aff" x="378.257484" y="386.894478" style="fill-opacity: 0; stroke: #e377c2"/>
     <use xlink:href="#m7285b23aff" x="416.785251" y="387.24122" style="fill-opacity: 0; stroke: #e377c2"/>
    </g>
   </g>
   <g id="PathCollection_8">
    <g clip-path="url(#p2c54ed1cd1)">
     <use xlink:href="#m42f665a237" x="70.035346" y="284.855884" style="fill-opacity: 0; stroke: #17becf"/>
     <use xlink:href="#m42f665a237" x="108.563113" y="227.7802" style="fill-opacity: 0; stroke: #17becf"/>
     <use xlink:href="#m42f665a237" x="147.09088" y="283.295372" style="fill-opacity: 0; stroke: #17becf"/>
     <use xlink:href="#m42f665a237" x="185.618648" y="327.5707" style="fill-opacity: 0; stroke: #17becf"/>
     <use xlink:href="#m42f665a237" x="224.146415" y="363.129925" style="fill-opacity: 0; stroke: #17becf"/>
     <use xlink:href="#m42f665a237" x="262.674182" y="379.46903" style="fill-opacity: 0; stroke: #17becf"/>
     <use xlink:href="#m42f665a237" x="301.201949" y="385.073541" style="fill-opacity: 0; stroke: #17becf"/>
     <use xlink:href="#m42f665a237" x="339.729716" y="386.714452" style="fill-opacity: 0; stroke: #17becf"/>
     <use xlink:href="#m42f665a237" x="378.257484" y="387.165948" style="fill-opacity: 0; stroke: #17becf"/>
     <use xlink:href="#m42f665a237" x="416.785251" y="387.295243" style="fill-opacity: 0; stroke: #17becf"/>
    </g>
   </g>
   <g id="line2d_66">
    <path d="M 70.035346 247.520675 
L 73.53787 247.585168 
L 77.040395 247.660155 
L 80.542919 247.747289 
L 84.045443 247.848382 
L 87.547967 247.964312 
L 91.050492 248.096114 
L 94.553016 248.245588 
L 98.05554 248.413756 
L 101.558065 248.600949 
L 105.060589 248.808626 
L 108.563113 249.038056 
L 112.065637 249.289843 
L 115.568162 249.564276 
L 119.070686 249.862261 
L 122.57321 250.184493 
L 126.075735 250.531683 
L 129.578259 250.905945 
L 133.080783 251.309173 
L 136.583307 251.744189 
L 140.085832 252.211733 
L 143.588356 252.712748 
L 147.09088 253.250564 
L 150.593405 253.82819 
L 154.095929 254.446945 
L 157.598453 255.106651 
L 161.100978 255.809755 
L 164.603502 256.558804 
L 168.106026 257.353141 
L 171.60855 258.192472 
L 175.111075 259.078658 
L 178.613599 260.009848 
L 182.116123 260.984489 
L 185.618648 262.00348 
L 189.121172 263.062866 
L 192.623696 264.162614 
L 196.12622 265.300259 
L 199.628745 266.474021 
L 203.131269 267.682376 
L 206.633793 268.923261 
L 210.136318 270.195124 
L 213.638842 271.496722 
L 217.141366 272.825677 
L 220.64389 274.181849 
L 224.146415 275.56286 
L 227.648939 276.967541 
L 231.151463 278.394951 
L 234.653988 279.843218 
L 238.156512 281.310795 
L 241.659036 282.796822 
L 245.161561 284.299191 
L 248.664085 285.816774 
L 252.166609 287.34756 
L 255.669133 288.890285 
L 259.171658 290.443393 
L 262.674182 292.005311 
L 266.176706 293.574652 
L 269.679231 295.149841 
L 273.181755 296.729647 
L 276.684279 298.312683 
L 280.186803 299.897819 
L 283.689328 301.483921 
L 287.191852 303.069865 
L 290.694376 304.654902 
L 294.196901 306.238082 
L 297.699425 307.818785 
L 301.201949 309.396184 
L 304.704473 310.969728 
L 308.206998 312.538984 
L 311.709522 314.103357 
L 315.212046 315.66256 
L 318.714571 317.216093 
L 322.217095 318.763804 
L 325.719619 320.30533 
L 329.222144 321.840467 
L 332.724668 323.369012 
L 336.227192 324.890774 
L 339.729716 326.405576 
L 343.232241 327.913292 
L 346.734765 329.413786 
L 350.237289 330.906921 
L 353.739814 332.392561 
L 357.242338 333.870574 
L 360.744862 335.340815 
L 364.247386 336.803124 
L 367.749911 338.257322 
L 371.252435 339.703227 
L 374.754959 341.140634 
L 378.257484 342.569281 
L 381.760008 343.98892 
L 385.262532 345.399216 
L 388.765056 346.799848 
L 392.267581 348.190429 
L 395.770105 349.570532 
L 399.272629 350.939695 
L 402.775154 352.297415 
L 406.277678 353.643144 
L 409.780202 354.976291 
L 413.282727 356.296224 
L 416.785251 357.602276 
" clip-path="url(#p2c54ed1cd1)" style="fill: none; stroke-dasharray: 7.4,3.2; stroke-dashoffset: 0; stroke: #1f77b4; stroke-width: 2"/>
   </g>
   <g id="line2d_67">
    <path d="M 70.035346 387.343322 
L 73.53787 387.336635 
L 77.040395 387.327417 
L 80.542919 387.314858 
L 84.045443 387.297899 
L 87.547967 387.275141 
L 91.050492 387.244901 
L 94.553016 387.205117 
L 98.05554 387.153541 
L 101.558065 387.087838 
L 105.060589 387.004685 
L 108.563113 386.90011 
L 112.065637 386.77057 
L 115.568162 386.613265 
L 119.070686 386.422602 
L 122.57321 386.191988 
L 126.075735 385.914352 
L 129.578259 385.583933 
L 133.080783 385.192584 
L 136.583307 384.732028 
L 140.085832 384.190351 
L 143.588356 383.554691 
L 147.09088 382.81494 
L 150.593405 381.96168 
L 154.095929 380.982303 
L 157.598453 379.861638 
L 161.100978 378.592395 
L 164.603502 377.170789 
L 168.106026 375.588931 
L 171.60855 373.844424 
L 175.111075 371.943225 
L 178.613599 369.889898 
L 182.116123 367.694448 
L 185.618648 365.371147 
L 189.121172 362.93726 
L 192.623696 360.40949 
L 196.12622 357.807331 
L 199.628745 355.147345 
L 203.131269 352.443929 
L 206.633793 349.708707 
L 210.136318 346.949389 
L 213.638842 344.16905 
L 217.141366 341.371945 
L 220.64389 338.553977 
L 224.146415 335.71625 
L 227.648939 332.855959 
L 231.151463 329.9695 
L 234.653988 327.055664 
L 238.156512 324.11269 
L 241.659036 321.137811 
L 245.161561 318.131609 
L 248.664085 315.093495 
L 252.166609 312.02567 
L 255.669133 308.929903 
L 259.171658 305.809757 
L 262.674182 302.669982 
L 266.176706 299.516167 
L 269.679231 296.355343 
L 273.181755 293.194921 
L 276.684279 290.043524 
L 280.186803 286.910112 
L 283.689328 283.804378 
L 287.191852 280.736663 
L 290.694376 277.71712 
L 294.196901 274.756844 
L 297.699425 271.866714 
L 301.201949 269.058481 
L 304.704473 266.343686 
L 308.206998 263.733941 
L 311.709522 261.241503 
L 315.212046 258.878154 
L 318.714571 256.656322 
L 322.217095 254.587721 
L 325.719619 252.684537 
L 329.222144 250.958497 
L 332.724668 249.421115 
L 336.227192 248.083551 
L 339.729716 246.956484 
L 343.232241 246.049866 
L 346.734765 245.372921 
L 350.237289 244.933951 
L 353.739814 244.740146 
L 357.242338 244.797401 
L 360.744862 245.110149 
L 364.247386 245.681187 
L 367.749911 246.511481 
L 371.252435 247.599989 
L 374.754959 248.94354 
L 378.257484 250.536785 
L 381.760008 252.372018 
L 385.262532 254.439302 
L 388.765056 256.726397 
L 392.267581 259.218964 
L 395.770105 261.900718 
L 399.272629 264.753682 
L 402.775154 267.758506 
L 406.277678 270.894837 
L 409.780202 274.141708 
L 413.282727 277.477977 
L 416.785251 280.882742 
" clip-path="url(#p2c54ed1cd1)" style="fill: none; stroke-dasharray: 7.4,3.2; stroke-dashoffset: 0; stroke: #d62728; stroke-width: 2"/>
   </g>
   <g id="line2d_68">
    <path d="M 70.035346 375.282855 
L 73.53787 372.769366 
L 77.040395 369.804405 
L 80.542919 366.314015 
L 84.045443 362.218481 
L 87.547967 357.500485 
L 91.050492 352.139971 
L 94.553016 346.077947 
L 98.05554 339.315004 
L 101.558065 331.90939 
L 105.060589 323.861844 
L 108.563113 315.203516 
L 112.065637 306.033877 
L 115.568162 296.502384 
L 119.070686 286.745125 
L 122.57321 276.950771 
L 126.075735 267.348925 
L 129.578259 258.095651 
L 133.080783 249.391654 
L 136.583307 241.37008 
L 140.085832 234.39827 
L 143.588356 228.839937 
L 147.09088 224.72629 
L 150.593405 222.052121 
L 154.095929 221.005181 
L 157.598453 221.909413 
L 161.100978 224.565726 
L 164.603502 228.714388 
L 168.106026 234.387862 
L 171.60855 241.449837 
L 175.111075 249.546413 
L 178.613599 258.519752 
L 182.116123 268.128115 
L 185.618648 278.060433 
L 189.121172 288.065367 
L 192.623696 297.879511 
L 196.12622 307.253642 
L 199.628745 316.000955 
L 203.131269 323.981919 
L 206.633793 331.126157 
L 210.136318 337.420226 
L 213.638842 342.917576 
L 217.141366 347.668365 
L 220.64389 351.786529 
L 224.146415 355.344281 
L 227.648939 358.427862 
L 231.151463 361.116931 
L 234.653988 363.470956 
L 238.156512 365.543538 
L 241.659036 367.38395 
L 245.161561 369.028563 
L 248.664085 370.509935 
L 252.166609 371.852326 
L 255.669133 373.077935 
L 259.171658 374.203259 
L 262.674182 375.241741 
L 266.176706 376.203701 
L 269.679231 377.09723 
L 273.181755 377.928674 
L 276.684279 378.703017 
L 280.186803 379.424235 
L 283.689328 380.095654 
L 287.191852 380.719995 
L 290.694376 381.299935 
L 294.196901 381.837692 
L 297.699425 382.335452 
L 301.201949 382.79522 
L 304.704473 383.219101 
L 308.206998 383.609064 
L 311.709522 383.967039 
L 315.212046 384.295 
L 318.714571 384.594778 
L 322.217095 384.868287 
L 325.719619 385.117311 
L 329.222144 385.343599 
L 332.724668 385.548853 
L 336.227192 385.734701 
L 339.729716 385.902681 
L 343.232241 386.054278 
L 346.734765 386.190887 
L 350.237289 386.31382 
L 353.739814 386.424306 
L 357.242338 386.52349 
L 360.744862 386.612436 
L 364.247386 386.692126 
L 367.749911 386.763464 
L 371.252435 386.827284 
L 374.754959 386.884342 
L 378.257484 386.935329 
L 381.760008 386.980873 
L 385.262532 387.021541 
L 388.765056 387.057845 
L 392.267581 387.090247 
L 395.770105 387.11916 
L 399.272629 387.144955 
L 402.775154 387.167966 
L 406.277678 387.188488 
L 409.780202 387.206788 
L 413.282727 387.223101 
L 416.785251 387.237641 
" clip-path="url(#p2c54ed1cd1)" style="fill: none; stroke-dasharray: 7.4,3.2; stroke-dashoffset: 0; stroke: #e377c2; stroke-width: 2"/>
   </g>
   <g id="line2d_69">
    <path d="M 70.035346 246.43748 
L 73.53787 237.932302 
L 77.040395 229.896348 
L 80.542919 222.66406 
L 84.045443 216.630931 
L 87.547967 211.804013 
L 91.050492 208.244392 
L 94.553016 206.33599 
L 98.05554 206.086703 
L 101.558065 207.133736 
L 105.060589 209.696073 
L 108.563113 213.939239 
L 112.065637 219.508827 
L 115.568162 225.579995 
L 119.070686 232.06267 
L 122.57321 238.818434 
L 126.075735 245.599624 
L 129.578259 252.135296 
L 133.080783 258.388257 
L 136.583307 264.469486 
L 140.085832 270.260086 
L 143.588356 275.698986 
L 147.09088 281.010326 
L 150.593405 286.226022 
L 154.095929 291.307712 
L 157.598453 296.186794 
L 161.100978 301.006667 
L 164.603502 305.794594 
L 168.106026 310.500331 
L 171.60855 315.144351 
L 175.111075 319.751742 
L 178.613599 324.267133 
L 182.116123 328.689895 
L 185.618648 333.004375 
L 189.121172 337.158034 
L 192.623696 341.156513 
L 196.12622 344.955534 
L 199.628745 348.556783 
L 203.131269 351.933963 
L 206.633793 355.092471 
L 210.136318 358.020227 
L 213.638842 360.72989 
L 217.141366 363.219122 
L 220.64389 365.504731 
L 224.146415 367.596348 
L 227.648939 369.504051 
L 231.151463 371.243448 
L 234.653988 372.827078 
L 238.156512 374.265433 
L 241.659036 375.572125 
L 245.161561 376.757413 
L 248.664085 377.832314 
L 252.166609 378.805297 
L 255.669133 379.685687 
L 259.171658 380.48146 
L 262.674182 381.200069 
L 266.176706 381.848256 
L 269.679231 382.432191 
L 273.181755 382.957627 
L 276.684279 383.429818 
L 280.186803 383.853623 
L 283.689328 384.233536 
L 287.191852 384.573634 
L 290.694376 384.877855 
L 294.196901 385.149625 
L 297.699425 385.392192 
L 301.201949 385.608445 
L 304.704473 385.801114 
L 308.206998 385.972631 
L 311.709522 386.125198 
L 315.212046 386.260846 
L 318.714571 386.381363 
L 322.217095 386.488411 
L 325.719619 386.583455 
L 329.222144 386.667816 
L 332.724668 386.742681 
L 336.227192 386.809116 
L 339.729716 386.868063 
L 343.232241 386.920372 
L 346.734765 386.966797 
L 350.237289 387.008011 
L 353.739814 387.044609 
L 357.242338 387.077122 
L 360.744862 387.106021 
L 364.247386 387.131723 
L 367.749911 387.154596 
L 371.252435 387.174969 
L 374.754959 387.193131 
L 378.257484 387.209338 
L 381.760008 387.223816 
L 385.262532 387.236763 
L 388.765056 387.248357 
L 392.267581 387.258752 
L 395.770105 387.268084 
L 399.272629 387.276475 
L 402.775154 387.284029 
L 406.277678 387.290841 
L 409.780202 387.296991 
L 413.282727 387.302552 
L 416.785251 387.307588 
" clip-path="url(#p2c54ed1cd1)" style="fill: none; stroke-dasharray: 7.4,3.2; stroke-dashoffset: 0; stroke: #17becf; stroke-width: 2"/>
   </g>
   <g id="line2d_70">
    <path d="M 70.035346 247.344822 
L 73.53787 247.379515 
L 77.040395 247.420293 
L 80.542919 247.467775 
L 84.045443 247.52303 
L 87.547967 247.587319 
L 91.050492 247.66205 
L 94.553016 247.748665 
L 98.05554 247.847588 
L 101.558065 247.959937 
L 105.060589 248.087126 
L 108.563113 248.229436 
L 112.065637 248.38736 
L 115.568162 248.561971 
L 119.070686 248.75411 
L 122.57321 248.963996 
L 126.075735 249.192028 
L 129.578259 249.43888 
L 133.080783 249.705635 
L 136.583307 249.994526 
L 140.085832 250.306556 
L 143.588356 250.643557 
L 147.09088 251.008517 
L 150.593405 251.40256 
L 154.095929 251.828368 
L 157.598453 252.288357 
L 161.100978 252.783796 
L 164.603502 253.317922 
L 168.106026 253.891821 
L 171.60855 254.507956 
L 175.111075 255.167658 
L 178.613599 255.871885 
L 182.116123 256.622125 
L 185.618648 257.418197 
L 189.121172 258.260936 
L 192.623696 259.149114 
L 196.12622 260.082638 
L 199.628745 261.06052 
L 203.131269 262.080838 
L 206.633793 263.143268 
L 210.136318 264.245123 
L 213.638842 265.385871 
L 217.141366 266.563722 
L 220.64389 267.777217 
L 224.146415 269.025342 
L 227.648939 270.306926 
L 231.151463 271.621283 
L 234.653988 272.965882 
L 238.156512 274.340113 
L 241.659036 275.742562 
L 245.161561 277.171191 
L 248.664085 278.624988 
L 252.166609 280.100969 
L 255.669133 281.598097 
L 259.171658 283.113871 
L 262.674182 284.646882 
L 266.176706 286.194902 
L 269.679231 287.756392 
L 273.181755 289.329284 
L 276.684279 290.91217 
L 280.186803 292.503037 
L 283.689328 294.100754 
L 287.191852 295.703556 
L 290.694376 297.310547 
L 294.196901 298.920237 
L 297.699425 300.531417 
L 301.201949 302.14307 
L 304.704473 303.754366 
L 308.206998 305.364554 
L 311.709522 306.972577 
L 315.212046 308.577944 
L 318.714571 310.180022 
L 322.217095 311.778098 
L 325.719619 313.371903 
L 329.222144 314.960625 
L 332.724668 316.544176 
L 336.227192 318.121887 
L 339.729716 319.693502 
L 343.232241 321.258771 
L 346.734765 322.817177 
L 350.237289 324.368488 
L 353.739814 325.912424 
L 357.242338 327.448721 
L 360.744862 328.977045 
L 364.247386 330.497144 
L 367.749911 332.008699 
L 371.252435 333.511466 
L 374.754959 335.005157 
L 378.257484 336.489508 
L 381.760008 337.964205 
L 385.262532 339.428913 
L 388.765056 340.883407 
L 392.267581 342.327286 
L 395.770105 343.760286 
L 399.272629 345.181993 
L 402.775154 346.592084 
L 406.277678 347.990175 
L 409.780202 349.375861 
L 413.282727 350.748723 
L 416.785251 352.108311 
" clip-path="url(#p2c54ed1cd1)" style="fill: none; stroke: #1f77b4"/>
   </g>
   <g id="line2d_71">
    <path d="M 70.035346 387.355297 
L 73.53787 387.353454 
L 77.040395 387.350876 
L 80.542919 387.347212 
L 84.045443 387.342096 
L 87.547967 387.335056 
L 91.050492 387.325479 
L 94.553016 387.312553 
L 98.05554 387.295233 
L 101.558065 387.272281 
L 105.060589 387.24217 
L 108.563113 387.203443 
L 112.065637 387.154325 
L 115.568162 387.092414 
L 119.070686 387.014863 
L 122.57321 386.919454 
L 126.075735 386.80348 
L 129.578259 386.662666 
L 133.080783 386.49241 
L 136.583307 386.28802 
L 140.085832 386.042554 
L 143.588356 385.748277 
L 147.09088 385.396881 
L 150.593405 384.977158 
L 154.095929 384.478122 
L 157.598453 383.886921 
L 161.100978 383.187684 
L 164.603502 382.367467 
L 168.106026 381.407923 
L 171.60855 380.295402 
L 175.111075 379.014007 
L 178.613599 377.549929 
L 182.116123 375.895887 
L 185.618648 374.044344 
L 189.121172 371.999492 
L 192.623696 369.76633 
L 196.12622 367.363502 
L 199.628745 364.8134 
L 203.131269 362.146464 
L 206.633793 359.395187 
L 210.136318 356.594671 
L 213.638842 353.773392 
L 217.141366 350.953008 
L 220.64389 348.146048 
L 224.146415 345.352798 
L 227.648939 342.56513 
L 231.151463 339.76908 
L 234.653988 336.95575 
L 238.156512 334.10997 
L 241.659036 331.223152 
L 245.161561 328.290992 
L 248.664085 325.310087 
L 252.166609 322.284025 
L 255.669133 319.214589 
L 259.171658 316.108976 
L 262.674182 312.97402 
L 266.176706 309.820165 
L 269.679231 306.657902 
L 273.181755 303.500326 
L 276.684279 300.360217 
L 280.186803 297.252618 
L 283.689328 294.191339 
L 287.191852 291.191964 
L 290.694376 288.268387 
L 294.196901 285.435718 
L 297.699425 282.708282 
L 301.201949 280.099471 
L 304.704473 277.621636 
L 308.206998 275.286237 
L 311.709522 273.104629 
L 315.212046 271.085895 
L 318.714571 269.238525 
L 322.217095 267.570213 
L 325.719619 266.086621 
L 329.222144 264.793728 
L 332.724668 263.694905 
L 336.227192 262.793938 
L 339.729716 262.092841 
L 343.232241 261.592846 
L 346.734765 261.294919 
L 350.237289 261.198729 
L 353.739814 261.303351 
L 357.242338 261.60716 
L 360.744862 262.107946 
L 364.247386 262.802708 
L 367.749911 263.68784 
L 371.252435 264.758945 
L 374.754959 266.010955 
L 378.257484 267.438041 
L 381.760008 269.033639 
L 385.262532 270.790396 
L 388.765056 272.700123 
L 392.267581 274.753887 
L 395.770105 276.941944 
L 399.272629 279.253799 
L 402.775154 281.678257 
L 406.277678 284.203477 
L 409.780202 286.817063 
L 413.282727 289.506165 
L 416.785251 292.2576 
" clip-path="url(#p2c54ed1cd1)" style="fill: none; stroke: #d62728"/>
   </g>
   <g id="line2d_72">
    <path d="M 70.035346 381.771902 
L 73.53787 380.520726 
L 77.040395 379.011721 
L 80.542919 377.221765 
L 84.045443 375.102902 
L 87.547967 372.598278 
L 91.050492 369.644787 
L 94.553016 366.180294 
L 98.05554 362.207264 
L 101.558065 357.691206 
L 105.060589 352.585136 
L 108.563113 346.916657 
L 112.065637 340.708187 
L 115.568162 333.955911 
L 119.070686 326.680823 
L 122.57321 318.954039 
L 126.075735 310.850979 
L 129.578259 302.448349 
L 133.080783 293.818554 
L 136.583307 284.983826 
L 140.085832 276.071639 
L 143.588356 267.181443 
L 147.09088 258.357224 
L 150.593405 249.811078 
L 154.095929 241.648497 
L 157.598453 234.022022 
L 161.100978 227.20929 
L 164.603502 221.283909 
L 168.106026 216.555388 
L 171.60855 213.143254 
L 175.111075 211.26751 
L 178.613599 211.133428 
L 182.116123 212.797004 
L 185.618648 216.419794 
L 189.121172 221.921613 
L 192.623696 229.313786 
L 196.12622 238.337982 
L 199.628745 248.711782 
L 203.131269 260.049853 
L 206.633793 271.847723 
L 210.136318 283.63149 
L 213.638842 294.914471 
L 217.141366 305.345802 
L 220.64389 314.682912 
L 224.146415 322.846266 
L 227.648939 329.894019 
L 231.151463 335.964405 
L 234.653988 341.179894 
L 238.156512 345.722823 
L 241.659036 349.717019 
L 245.161561 353.260011 
L 248.664085 356.434531 
L 252.166609 359.28857 
L 255.669133 361.87602 
L 259.171658 364.227308 
L 262.674182 366.374906 
L 266.176706 368.338348 
L 269.679231 370.138297 
L 273.181755 371.787749 
L 276.684279 373.300792 
L 280.186803 374.686545 
L 283.689328 375.955303 
L 287.191852 377.114683 
L 290.694376 378.172594 
L 294.196901 379.135822 
L 297.699425 380.010353 
L 301.201949 380.802542 
L 304.704473 381.518647 
L 308.206998 382.164329 
L 311.709522 382.744826 
L 315.212046 383.265749 
L 318.714571 383.732074 
L 322.217095 384.148488 
L 325.719619 384.519852 
L 329.222144 384.850101 
L 332.724668 385.143542 
L 336.227192 385.40369 
L 339.729716 385.634047 
L 343.232241 385.837828 
L 346.734765 386.0178 
L 350.237289 386.176629 
L 353.739814 386.316696 
L 357.242338 386.44013 
L 360.744862 386.548841 
L 364.247386 386.644546 
L 367.749911 386.728774 
L 371.252435 386.802893 
L 374.754959 386.868114 
L 378.257484 386.925511 
L 381.760008 386.976028 
L 385.262532 387.020494 
L 388.765056 387.059658 
L 392.267581 387.094156 
L 395.770105 387.124564 
L 399.272629 387.151375 
L 402.775154 387.175027 
L 406.277678 387.195904 
L 409.780202 387.214338 
L 413.282727 387.230622 
L 416.785251 387.245011 
" clip-path="url(#p2c54ed1cd1)" style="fill: none; stroke: #e377c2"/>
   </g>
   <g id="line2d_73">
    <path d="M 70.035346 283.961015 
L 73.53787 275.942469 
L 77.040395 267.920408 
L 80.542919 259.939546 
L 84.045443 252.202248 
L 87.547967 244.982623 
L 91.050492 238.62017 
L 94.553016 233.481374 
L 98.05554 229.502613 
L 101.558065 226.914913 
L 105.060589 226.097163 
L 108.563113 226.772966 
L 112.065637 228.757539 
L 115.568162 232.229236 
L 119.070686 237.265451 
L 122.57321 243.186614 
L 126.075735 249.340864 
L 129.578259 255.566199 
L 133.080783 261.646556 
L 136.583307 267.458187 
L 140.085832 272.861152 
L 143.588356 277.872998 
L 147.09088 282.702956 
L 150.593405 287.255088 
L 154.095929 291.618769 
L 157.598453 295.86041 
L 161.100978 299.923901 
L 164.603502 303.928773 
L 168.106026 307.843119 
L 171.60855 311.720073 
L 175.111075 315.573624 
L 178.613599 319.399994 
L 182.116123 323.232075 
L 185.618648 327.042355 
L 189.121172 330.841053 
L 192.623696 334.591534 
L 196.12622 338.285115 
L 199.628745 341.891642 
L 203.131269 345.377177 
L 206.633793 348.732293 
L 210.136318 351.917359 
L 213.638842 354.926832 
L 217.141366 357.74861 
L 220.64389 360.371706 
L 224.146415 362.798672 
L 227.648939 365.039716 
L 231.151463 367.101476 
L 234.653988 368.989255 
L 238.156512 370.720855 
L 241.659036 372.306045 
L 245.161561 373.756727 
L 248.664085 375.083004 
L 252.166609 376.291704 
L 255.669133 377.393359 
L 259.171658 378.394873 
L 262.674182 379.304971 
L 266.176706 380.129924 
L 269.679231 380.877128 
L 273.181755 381.552309 
L 276.684279 382.16187 
L 280.186803 382.710933 
L 283.689328 383.205054 
L 287.191852 383.648996 
L 290.694376 384.047487 
L 294.196901 384.404683 
L 297.699425 384.7243 
L 301.201949 385.009971 
L 304.704473 385.265208 
L 308.206998 385.493031 
L 311.709522 385.696087 
L 315.212046 385.877074 
L 318.714571 386.038268 
L 322.217095 386.181704 
L 325.719619 386.309401 
L 329.222144 386.422932 
L 332.724668 386.52395 
L 336.227192 386.613757 
L 339.729716 386.693613 
L 343.232241 386.764645 
L 346.734765 386.8278 
L 350.237289 386.883972 
L 353.739814 386.933948 
L 357.242338 386.978424 
L 360.744862 387.018014 
L 364.247386 387.053268 
L 367.749911 387.084674 
L 371.252435 387.112666 
L 374.754959 387.137629 
L 378.257484 387.159904 
L 381.760008 387.179793 
L 385.262532 387.19756 
L 388.765056 387.213449 
L 392.267581 387.227664 
L 395.770105 387.240397 
L 399.272629 387.251808 
L 402.775154 387.262047 
L 406.277678 387.271242 
L 409.780202 387.279507 
L 413.282727 387.286945 
L 416.785251 387.293646 
" clip-path="url(#p2c54ed1cd1)" style="fill: none; stroke: #17becf"/>
   </g>
   <g id="text_26">
    <!-- $C_{10}H_{16}$ -->
    <g style="fill: #1f77b4" transform="translate(206.581732 256.398677)scale(0.14 -0.14)">
     <use xlink:href="#DejaVuSans-Oblique-43" transform="translate(0 0.78125)"/>
     <use xlink:href="#DejaVuSans-31" transform="translate(69.824219 -15.625)scale(0.7)"/>
     <use xlink:href="#DejaVuSans-30" transform="translate(114.360352 -15.625)scale(0.7)"/>
     <use xlink:href="#DejaVuSans-Oblique-48" transform="translate(161.630859 0.78125)"/>
     <use xlink:href="#DejaVuSans-31" transform="translate(236.826172 -15.625)scale(0.7)"/>
     <use xlink:href="#DejaVuSans-36" transform="translate(281.362305 -15.625)scale(0.7)"/>
    </g>
   </g>
   <g id="text_27">
    <!-- $50 \, C_5H_5$ -->
    <g style="fill: #d62728" transform="translate(320.55527 290.104737)scale(0.14 -0.14)">
     <use xlink:href="#DejaVuSans-35" transform="translate(0 0.78125)"/>
     <use xlink:href="#DejaVuSans-30" transform="translate(63.623047 0.78125)"/>
     <use xlink:href="#DejaVuSans-Oblique-43" transform="translate(143.48177 0.78125)"/>
     <use xlink:href="#DejaVuSans-35" transform="translate(213.305989 -15.625)scale(0.7)"/>
     <use xlink:href="#DejaVuSans-Oblique-48" transform="translate(260.576497 0.78125)"/>
     <use xlink:href="#DejaVuSans-35" transform="translate(335.771809 -15.625)scale(0.7)"/>
    </g>
   </g>
   <g id="text_28">
    <!-- $2\times10^3 \, CH_3$ -->
    <g style="fill: #e377c2" transform="translate(168.765308 307.813079)scale(0.14 -0.14)">
     <use xlink:href="#DejaVuSans-32" transform="translate(0 0.765625)"/>
     <use xlink:href="#DejaVuSans-d7" transform="translate(83.105469 0.765625)"/>
     <use xlink:href="#DejaVuSans-31" transform="translate(186.376953 0.765625)"/>
     <use xlink:href="#DejaVuSans-30" transform="translate(250 0.765625)"/>
     <use xlink:href="#DejaVuSans-33" transform="translate(314.580078 39.046875)scale(0.7)"/>
     <use xlink:href="#DejaVuSans-Oblique-43" transform="translate(378.086262 0.765625)"/>
     <use xlink:href="#DejaVuSans-Oblique-48" transform="translate(447.910481 0.765625)"/>
     <use xlink:href="#DejaVuSans-33" transform="translate(523.105793 -15.640625)scale(0.7)"/>
    </g>
   </g>
   <g id="text_29">
    <!-- $10^5 \, H$ -->
    <g style="fill: #17becf" transform="translate(84.433696 276.622313)scale(0.14 -0.14)">
     <use xlink:href="#DejaVuSans-31" transform="translate(0 0.684375)"/>
     <use xlink:href="#DejaVuSans-30" transform="translate(63.623047 0.684375)"/>
     <use xlink:href="#DejaVuSans-35" transform="translate(128.203125 38.965625)scale(0.7)"/>
     <use xlink:href="#DejaVuSans-Oblique-48" transform="translate(191.709309 0.684375)"/>
    </g>
   </g>
   <g id="text_30">
    <!-- Validation Set #21 -->
    <g transform="translate(291.706781 215.951406)scale(0.14 -0.14)">
     <defs>
      <path id="DejaVuSans-56" d="M 1831 0 
L 50 4666 
L 709 4666 
L 2188 738 
L 3669 4666 
L 4325 4666 
L 2547 0 
L 1831 0 
z
" transform="scale(0.015625)"/>
      <path id="DejaVuSans-6c" d="M 603 4863 
L 1178 4863 
L 1178 0 
L 603 0 
L 603 4863 
z
" transform="scale(0.015625)"/>
      <path id="DejaVuSans-64" d="M 2906 2969 
L 2906 4863 
L 3481 4863 
L 3481 0 
L 2906 0 
L 2906 525 
Q 2725 213 2448 61 
Q 2172 -91 1784 -91 
Q 1150 -91 751 415 
Q 353 922 353 1747 
Q 353 2572 751 3078 
Q 1150 3584 1784 3584 
Q 2172 3584 2448 3432 
Q 2725 3281 2906 2969 
z
M 947 1747 
Q 947 1113 1208 752 
Q 1469 391 1925 391 
Q 2381 391 2643 752 
Q 2906 1113 2906 1747 
Q 2906 2381 2643 2742 
Q 2381 3103 1925 3103 
Q 1469 3103 1208 2742 
Q 947 2381 947 1747 
z
" transform="scale(0.015625)"/>
      <path id="DejaVuSans-6f" d="M 1959 3097 
Q 1497 3097 1228 2736 
Q 959 2375 959 1747 
Q 959 1119 1226 758 
Q 1494 397 1959 397 
Q 2419 397 2687 759 
Q 2956 1122 2956 1747 
Q 2956 2369 2687 2733 
Q 2419 3097 1959 3097 
z
M 1959 3584 
Q 2709 3584 3137 3096 
Q 3566 2609 3566 1747 
Q 3566 888 3137 398 
Q 2709 -91 1959 -91 
Q 1206 -91 779 398 
Q 353 888 353 1747 
Q 353 2609 779 3096 
Q 1206 3584 1959 3584 
z
" transform="scale(0.015625)"/>
     </defs>
     <use xlink:href="#DejaVuSans-56"/>
     <use xlink:href="#DejaVuSans-61" x="60.658203"/>
     <use xlink:href="#DejaVuSans-6c" x="121.9375"/>
     <use xlink:href="#DejaVuSans-69" x="149.720703"/>
     <use xlink:href="#DejaVuSans-64" x="177.503906"/>
     <use xlink:href="#DejaVuSans-61" x="240.980469"/>
     <use xlink:href="#DejaVuSans-74" x="302.259766"/>
     <use xlink:href="#DejaVuSans-69" x="341.46875"/>
     <use xlink:href="#DejaVuSans-6f" x="369.251953"/>
     <use xlink:href="#DejaVuSans-6e" x="430.433594"/>
     <use xlink:href="#DejaVuSans-20" x="493.8125"/>
     <use xlink:href="#DejaVuSans-53" x="525.599609"/>
     <use xlink:href="#DejaVuSans-65" x="589.076172"/>
     <use xlink:href="#DejaVuSans-74" x="650.599609"/>
     <use xlink:href="#DejaVuSans-20" x="689.808594"/>
     <use xlink:href="#DejaVuSans-23" x="721.595703"/>
     <use xlink:href="#DejaVuSans-32" x="805.384766"/>
     <use xlink:href="#DejaVuSans-31" x="869.007812"/>
    </g>
   </g>
  </g>
 </g>
 <defs>
  <clipPath id="p4e7bf8dab0">
   <rect x="59.632849" y="2.834646" width="367.554899" height="192.144709"/>
  </clipPath>
  <clipPath id="p2c54ed1cd1">
   <rect x="59.632849" y="200.648646" width="367.554899" height="192.144709"/>
  </clipPath>
 </defs>
</svg>
