<?xml version="1.0" encoding="utf-8" standalone="no"?>
<!DOCTYPE svg PUBLIC "-//W3C//DTD SVG 1.1//EN"
  "http://www.w3.org/Graphics/SVG/1.1/DTD/svg11.dtd">
<svg xmlns:xlink="http://www.w3.org/1999/xlink" width="432pt" height="432pt" viewBox="0 0 432 432" xmlns="http://www.w3.org/2000/svg" version="1.1">
 <metadata>
  <rdf:RDF xmlns:dc="http://purl.org/dc/elements/1.1/" xmlns:cc="http://creativecommons.org/ns#" xmlns:rdf="http://www.w3.org/1999/02/22-rdf-syntax-ns#">
   <cc:Work>
    <dc:type rdf:resource="http://purl.org/dc/dcmitype/StillImage"/>
    <dc:date>2022-01-04T17:26:39.829403</dc:date>
    <dc:format>image/svg+xml</dc:format>
    <dc:creator>
     <cc:Agent>
      <dc:title>Matplotlib v3.5.0, https://matplotlib.org/</dc:title>
     </cc:Agent>
    </dc:creator>
   </cc:Work>
  </rdf:RDF>
 </metadata>
 <defs>
  <style type="text/css">*{stroke-linejoin: round; stroke-linecap: butt}</style>
 </defs>
 <g id="figure_1">
  <g id="patch_1">
   <path d="M 0 432 
L 432 432 
L 432 0 
L 0 0 
z
" style="fill: #ffffff"/>
  </g>
  <g id="axes_1">
   <g id="patch_2">
    <path d="M 59.632849 194.979354 
L 427.187748 194.979354 
L 427.187748 2.834646 
L 59.632849 2.834646 
z
" style="fill: #ffffff"/>
   </g>
   <g id="matplotlib.axis_1">
    <g id="xtick_1">
     <g id="line2d_1">
      <defs>
       <path id="ma16c440495" d="M 0 0 
L 0 2 
" style="stroke: #000000; stroke-width: 0.6"/>
      </defs>
      <g>
       <use xlink:href="#ma16c440495" x="70.035346" y="194.979354" style="stroke: #000000; stroke-width: 0.6"/>
      </g>
     </g>
    </g>
    <g id="xtick_2">
     <g id="line2d_2">
      <g>
       <use xlink:href="#ma16c440495" x="139.385327" y="194.979354" style="stroke: #000000; stroke-width: 0.6"/>
      </g>
     </g>
    </g>
    <g id="xtick_3">
     <g id="line2d_3">
      <g>
       <use xlink:href="#ma16c440495" x="208.735308" y="194.979354" style="stroke: #000000; stroke-width: 0.6"/>
      </g>
     </g>
    </g>
    <g id="xtick_4">
     <g id="line2d_4">
      <g>
       <use xlink:href="#ma16c440495" x="278.085289" y="194.979354" style="stroke: #000000; stroke-width: 0.6"/>
      </g>
     </g>
    </g>
    <g id="xtick_5">
     <g id="line2d_5">
      <g>
       <use xlink:href="#ma16c440495" x="347.43527" y="194.979354" style="stroke: #000000; stroke-width: 0.6"/>
      </g>
     </g>
    </g>
    <g id="xtick_6">
     <g id="line2d_6">
      <g>
       <use xlink:href="#ma16c440495" x="416.785251" y="194.979354" style="stroke: #000000; stroke-width: 0.6"/>
      </g>
     </g>
    </g>
   </g>
   <g id="matplotlib.axis_2">
    <g id="ytick_1">
     <g id="line2d_7">
      <path d="M 59.632849 189.541382 
L 427.187748 189.541382 
" clip-path="url(#pcfa9d2252a)" style="fill: none; stroke: #000000; stroke-opacity: 0.1; stroke-width: 0.5; stroke-linecap: square"/>
     </g>
     <g id="line2d_8">
      <defs>
       <path id="mb4b466547b" d="M 0 0 
L 2.5 0 
" style="stroke: #000000; stroke-width: 0.5"/>
      </defs>
      <g>
       <use xlink:href="#mb4b466547b" x="59.632849" y="189.541382" style="stroke: #000000; stroke-width: 0.5"/>
      </g>
     </g>
     <g id="line2d_9">
      <defs>
       <path id="m035a28ad6b" d="M 0 0 
L -2.5 0 
" style="stroke: #000000; stroke-width: 0.5"/>
      </defs>
      <g>
       <use xlink:href="#m035a28ad6b" x="427.187748" y="189.541382" style="stroke: #000000; stroke-width: 0.5"/>
      </g>
     </g>
     <g id="text_1">
      <!-- $\mathregular{0.000}$ -->
      <g transform="translate(21.692849 194.100444)scale(0.12 -0.12)">
       <defs>
        <path id="DejaVuSans-30" d="M 2034 4250 
Q 1547 4250 1301 3770 
Q 1056 3291 1056 2328 
Q 1056 1369 1301 889 
Q 1547 409 2034 409 
Q 2525 409 2770 889 
Q 3016 1369 3016 2328 
Q 3016 3291 2770 3770 
Q 2525 4250 2034 4250 
z
M 2034 4750 
Q 2819 4750 3233 4129 
Q 3647 3509 3647 2328 
Q 3647 1150 3233 529 
Q 2819 -91 2034 -91 
Q 1250 -91 836 529 
Q 422 1150 422 2328 
Q 422 3509 836 4129 
Q 1250 4750 2034 4750 
z
" transform="scale(0.015625)"/>
        <path id="DejaVuSans-2e" d="M 684 794 
L 1344 794 
L 1344 0 
L 684 0 
L 684 794 
z
" transform="scale(0.015625)"/>
       </defs>
       <use xlink:href="#DejaVuSans-30" transform="translate(0 0.78125)"/>
       <use xlink:href="#DejaVuSans-2e" transform="translate(63.623047 0.78125)"/>
       <use xlink:href="#DejaVuSans-30" transform="translate(95.410156 0.78125)"/>
       <use xlink:href="#DejaVuSans-30" transform="translate(159.033203 0.78125)"/>
       <use xlink:href="#DejaVuSans-30" transform="translate(222.65625 0.78125)"/>
      </g>
     </g>
    </g>
    <g id="ytick_2">
     <g id="line2d_10">
      <path d="M 59.632849 147.957248 
L 427.187748 147.957248 
" clip-path="url(#pcfa9d2252a)" style="fill: none; stroke: #000000; stroke-opacity: 0.1; stroke-width: 0.5; stroke-linecap: square"/>
     </g>
     <g id="line2d_11">
      <g>
       <use xlink:href="#mb4b466547b" x="59.632849" y="147.957248" style="stroke: #000000; stroke-width: 0.5"/>
      </g>
     </g>
     <g id="line2d_12">
      <g>
       <use xlink:href="#m035a28ad6b" x="427.187748" y="147.957248" style="stroke: #000000; stroke-width: 0.5"/>
      </g>
     </g>
     <g id="text_2">
      <!-- $\mathregular{0.025}$ -->
      <g transform="translate(21.692849 152.51631)scale(0.12 -0.12)">
       <defs>
        <path id="DejaVuSans-32" d="M 1228 531 
L 3431 531 
L 3431 0 
L 469 0 
L 469 531 
Q 828 903 1448 1529 
Q 2069 2156 2228 2338 
Q 2531 2678 2651 2914 
Q 2772 3150 2772 3378 
Q 2772 3750 2511 3984 
Q 2250 4219 1831 4219 
Q 1534 4219 1204 4116 
Q 875 4013 500 3803 
L 500 4441 
Q 881 4594 1212 4672 
Q 1544 4750 1819 4750 
Q 2544 4750 2975 4387 
Q 3406 4025 3406 3419 
Q 3406 3131 3298 2873 
Q 3191 2616 2906 2266 
Q 2828 2175 2409 1742 
Q 1991 1309 1228 531 
z
" transform="scale(0.015625)"/>
        <path id="DejaVuSans-35" d="M 691 4666 
L 3169 4666 
L 3169 4134 
L 1269 4134 
L 1269 2991 
Q 1406 3038 1543 3061 
Q 1681 3084 1819 3084 
Q 2600 3084 3056 2656 
Q 3513 2228 3513 1497 
Q 3513 744 3044 326 
Q 2575 -91 1722 -91 
Q 1428 -91 1123 -41 
Q 819 9 494 109 
L 494 744 
Q 775 591 1075 516 
Q 1375 441 1709 441 
Q 2250 441 2565 725 
Q 2881 1009 2881 1497 
Q 2881 1984 2565 2268 
Q 2250 2553 1709 2553 
Q 1456 2553 1204 2497 
Q 953 2441 691 2322 
L 691 4666 
z
" transform="scale(0.015625)"/>
       </defs>
       <use xlink:href="#DejaVuSans-30" transform="translate(0 0.78125)"/>
       <use xlink:href="#DejaVuSans-2e" transform="translate(63.623047 0.78125)"/>
       <use xlink:href="#DejaVuSans-30" transform="translate(95.410156 0.78125)"/>
       <use xlink:href="#DejaVuSans-32" transform="translate(159.033203 0.78125)"/>
       <use xlink:href="#DejaVuSans-35" transform="translate(222.65625 0.78125)"/>
      </g>
     </g>
    </g>
    <g id="ytick_3">
     <g id="line2d_13">
      <path d="M 59.632849 106.373114 
L 427.187748 106.373114 
" clip-path="url(#pcfa9d2252a)" style="fill: none; stroke: #000000; stroke-opacity: 0.1; stroke-width: 0.5; stroke-linecap: square"/>
     </g>
     <g id="line2d_14">
      <g>
       <use xlink:href="#mb4b466547b" x="59.632849" y="106.373114" style="stroke: #000000; stroke-width: 0.5"/>
      </g>
     </g>
     <g id="line2d_15">
      <g>
       <use xlink:href="#m035a28ad6b" x="427.187748" y="106.373114" style="stroke: #000000; stroke-width: 0.5"/>
      </g>
     </g>
     <g id="text_3">
      <!-- $\mathregular{0.050}$ -->
      <g transform="translate(21.692849 110.932177)scale(0.12 -0.12)">
       <use xlink:href="#DejaVuSans-30" transform="translate(0 0.78125)"/>
       <use xlink:href="#DejaVuSans-2e" transform="translate(63.623047 0.78125)"/>
       <use xlink:href="#DejaVuSans-30" transform="translate(95.410156 0.78125)"/>
       <use xlink:href="#DejaVuSans-35" transform="translate(159.033203 0.78125)"/>
       <use xlink:href="#DejaVuSans-30" transform="translate(222.65625 0.78125)"/>
      </g>
     </g>
    </g>
    <g id="ytick_4">
     <g id="line2d_16">
      <path d="M 59.632849 64.788981 
L 427.187748 64.788981 
" clip-path="url(#pcfa9d2252a)" style="fill: none; stroke: #000000; stroke-opacity: 0.1; stroke-width: 0.5; stroke-linecap: square"/>
     </g>
     <g id="line2d_17">
      <g>
       <use xlink:href="#mb4b466547b" x="59.632849" y="64.788981" style="stroke: #000000; stroke-width: 0.5"/>
      </g>
     </g>
     <g id="line2d_18">
      <g>
       <use xlink:href="#m035a28ad6b" x="427.187748" y="64.788981" style="stroke: #000000; stroke-width: 0.5"/>
      </g>
     </g>
     <g id="text_4">
      <!-- $\mathregular{0.075}$ -->
      <g transform="translate(21.692849 69.348043)scale(0.12 -0.12)">
       <defs>
        <path id="DejaVuSans-37" d="M 525 4666 
L 3525 4666 
L 3525 4397 
L 1831 0 
L 1172 0 
L 2766 4134 
L 525 4134 
L 525 4666 
z
" transform="scale(0.015625)"/>
       </defs>
       <use xlink:href="#DejaVuSans-30" transform="translate(0 0.78125)"/>
       <use xlink:href="#DejaVuSans-2e" transform="translate(63.623047 0.78125)"/>
       <use xlink:href="#DejaVuSans-30" transform="translate(95.410156 0.78125)"/>
       <use xlink:href="#DejaVuSans-37" transform="translate(159.033203 0.78125)"/>
       <use xlink:href="#DejaVuSans-35" transform="translate(222.65625 0.78125)"/>
      </g>
     </g>
    </g>
    <g id="ytick_5">
     <g id="line2d_19">
      <path d="M 59.632849 23.204847 
L 427.187748 23.204847 
" clip-path="url(#pcfa9d2252a)" style="fill: none; stroke: #000000; stroke-opacity: 0.1; stroke-width: 0.5; stroke-linecap: square"/>
     </g>
     <g id="line2d_20">
      <g>
       <use xlink:href="#mb4b466547b" x="59.632849" y="23.204847" style="stroke: #000000; stroke-width: 0.5"/>
      </g>
     </g>
     <g id="line2d_21">
      <g>
       <use xlink:href="#m035a28ad6b" x="427.187748" y="23.204847" style="stroke: #000000; stroke-width: 0.5"/>
      </g>
     </g>
     <g id="text_5">
      <!-- $\mathregular{0.100}$ -->
      <g transform="translate(21.692849 27.763909)scale(0.12 -0.12)">
       <defs>
        <path id="DejaVuSans-31" d="M 794 531 
L 1825 531 
L 1825 4091 
L 703 3866 
L 703 4441 
L 1819 4666 
L 2450 4666 
L 2450 531 
L 3481 531 
L 3481 0 
L 794 0 
L 794 531 
z
" transform="scale(0.015625)"/>
       </defs>
       <use xlink:href="#DejaVuSans-30" transform="translate(0 0.78125)"/>
       <use xlink:href="#DejaVuSans-2e" transform="translate(63.623047 0.78125)"/>
       <use xlink:href="#DejaVuSans-31" transform="translate(95.410156 0.78125)"/>
       <use xlink:href="#DejaVuSans-30" transform="translate(159.033203 0.78125)"/>
       <use xlink:href="#DejaVuSans-30" transform="translate(222.65625 0.78125)"/>
      </g>
     </g>
    </g>
    <g id="text_6">
     <!-- Y -->
     <g transform="translate(14.365349 103.79325)rotate(-90)scale(0.16 -0.16)">
      <defs>
       <path id="DejaVuSans-59" d="M -13 4666 
L 666 4666 
L 1959 2747 
L 3244 4666 
L 3922 4666 
L 2272 2222 
L 2272 0 
L 1638 0 
L 1638 2222 
L -13 4666 
z
" transform="scale(0.015625)"/>
      </defs>
      <use xlink:href="#DejaVuSans-59"/>
     </g>
    </g>
   </g>
   <g id="PathCollection_1">
    <defs>
     <path id="m8300952ace" d="M -2 2 
L 2 2 
L 2 -2 
L -2 -2 
z
" style="stroke: #1f77b4"/>
    </defs>
    <g clip-path="url(#pcfa9d2252a)">
     <use xlink:href="#m8300952ace" x="70.035346" y="36.545099" style="fill-opacity: 0; stroke: #1f77b4"/>
     <use xlink:href="#m8300952ace" x="108.563113" y="36.691977" style="fill-opacity: 0; stroke: #1f77b4"/>
     <use xlink:href="#m8300952ace" x="147.09088" y="37.466194" style="fill-opacity: 0; stroke: #1f77b4"/>
     <use xlink:href="#m8300952ace" x="185.618648" y="39.932593" style="fill-opacity: 0; stroke: #1f77b4"/>
     <use xlink:href="#m8300952ace" x="224.146415" y="46.342299" style="fill-opacity: 0; stroke: #1f77b4"/>
     <use xlink:href="#m8300952ace" x="262.674182" y="59.839983" style="fill-opacity: 0; stroke: #1f77b4"/>
     <use xlink:href="#m8300952ace" x="301.201949" y="81.088944" style="fill-opacity: 0; stroke: #1f77b4"/>
     <use xlink:href="#m8300952ace" x="339.729716" y="107.723031" style="fill-opacity: 0; stroke: #1f77b4"/>
     <use xlink:href="#m8300952ace" x="378.257484" y="135.535254" style="fill-opacity: 0; stroke: #1f77b4"/>
     <use xlink:href="#m8300952ace" x="416.785251" y="160.866845" style="fill-opacity: 0; stroke: #1f77b4"/>
    </g>
   </g>
   <g id="PathCollection_2">
    <defs>
     <path id="mdae5950612" d="M -2 2 
L 2 2 
L 2 -2 
L -2 -2 
z
" style="stroke: #d62728"/>
    </defs>
    <g clip-path="url(#pcfa9d2252a)">
     <use xlink:href="#mdae5950612" x="70.035346" y="189.541281" style="fill-opacity: 0; stroke: #d62728"/>
     <use xlink:href="#mdae5950612" x="108.563113" y="189.5377" style="fill-opacity: 0; stroke: #d62728"/>
     <use xlink:href="#mdae5950612" x="147.09088" y="189.423295" style="fill-opacity: 0; stroke: #d62728"/>
     <use xlink:href="#mdae5950612" x="185.618648" y="188.062565" style="fill-opacity: 0; stroke: #d62728"/>
     <use xlink:href="#mdae5950612" x="224.146415" y="178.484779" style="fill-opacity: 0; stroke: #d62728"/>
     <use xlink:href="#mdae5950612" x="262.674182" y="150.802711" style="fill-opacity: 0; stroke: #d62728"/>
     <use xlink:href="#mdae5950612" x="301.201949" y="112.14833" style="fill-opacity: 0; stroke: #d62728"/>
     <use xlink:href="#mdae5950612" x="339.729716" y="67.320593" style="fill-opacity: 0; stroke: #d62728"/>
     <use xlink:href="#mdae5950612" x="378.257484" y="40.870491" style="fill-opacity: 0; stroke: #d62728"/>
     <use xlink:href="#mdae5950612" x="416.785251" y="49.043956" style="fill-opacity: 0; stroke: #d62728"/>
    </g>
   </g>
   <g id="patch_3">
    <path d="M 59.632849 194.979354 
L 59.632849 2.834646 
" style="fill: none; stroke: #000000; stroke-linejoin: miter; stroke-linecap: square"/>
   </g>
   <g id="patch_4">
    <path d="M 427.187748 194.979354 
L 427.187748 2.834646 
" style="fill: none; stroke: #000000; stroke-linejoin: miter; stroke-linecap: square"/>
   </g>
   <g id="patch_5">
    <path d="M 59.632849 194.979354 
L 427.187748 194.979354 
" style="fill: none; stroke: #000000; stroke-linejoin: miter; stroke-linecap: square"/>
   </g>
   <g id="patch_6">
    <path d="M 59.632849 2.834646 
L 427.187748 2.834646 
" style="fill: none; stroke: #000000; stroke-linejoin: miter; stroke-linecap: square"/>
   </g>
   <g id="PathCollection_3">
    <defs>
     <path id="m16e93c3c1b" d="M -2 2 
L 2 2 
L 2 -2 
L -2 -2 
z
" style="stroke: #e377c2"/>
    </defs>
    <g clip-path="url(#pcfa9d2252a)">
     <use xlink:href="#m16e93c3c1b" x="70.035346" y="189.005956" style="fill-opacity: 0; stroke: #e377c2"/>
     <use xlink:href="#m16e93c3c1b" x="108.563113" y="184.150831" style="fill-opacity: 0; stroke: #e377c2"/>
     <use xlink:href="#m16e93c3c1b" x="147.09088" y="153.261614" style="fill-opacity: 0; stroke: #e377c2"/>
     <use xlink:href="#m16e93c3c1b" x="185.618648" y="77.558959" style="fill-opacity: 0; stroke: #e377c2"/>
     <use xlink:href="#m16e93c3c1b" x="224.146415" y="35.307215" style="fill-opacity: 0; stroke: #e377c2"/>
     <use xlink:href="#m16e93c3c1b" x="262.674182" y="123.698336" style="fill-opacity: 0; stroke: #e377c2"/>
     <use xlink:href="#m16e93c3c1b" x="301.201949" y="166.977584" style="fill-opacity: 0; stroke: #e377c2"/>
     <use xlink:href="#m16e93c3c1b" x="339.729716" y="182.80027" style="fill-opacity: 0; stroke: #e377c2"/>
     <use xlink:href="#m16e93c3c1b" x="378.257484" y="187.958879" style="fill-opacity: 0; stroke: #e377c2"/>
     <use xlink:href="#m16e93c3c1b" x="416.785251" y="189.200733" style="fill-opacity: 0; stroke: #e377c2"/>
    </g>
   </g>
   <g id="PathCollection_4">
    <defs>
     <path id="m6ce862c830" d="M -2 2 
L 2 2 
L 2 -2 
L -2 -2 
z
" style="stroke: #17becf"/>
    </defs>
    <g clip-path="url(#pcfa9d2252a)">
     <use xlink:href="#m6ce862c830" x="70.035346" y="160.056554" style="fill-opacity: 0; stroke: #17becf"/>
     <use xlink:href="#m6ce862c830" x="108.563113" y="110.599404" style="fill-opacity: 0; stroke: #17becf"/>
     <use xlink:href="#m6ce862c830" x="147.09088" y="77.322938" style="fill-opacity: 0; stroke: #17becf"/>
     <use xlink:href="#m6ce862c830" x="185.618648" y="112.231758" style="fill-opacity: 0; stroke: #17becf"/>
     <use xlink:href="#m6ce862c830" x="224.146415" y="138.731893" style="fill-opacity: 0; stroke: #17becf"/>
     <use xlink:href="#m6ce862c830" x="262.674182" y="166.226762" style="fill-opacity: 0; stroke: #17becf"/>
     <use xlink:href="#m6ce862c830" x="301.201949" y="181.270256" style="fill-opacity: 0; stroke: #17becf"/>
     <use xlink:href="#m6ce862c830" x="339.729716" y="187.099282" style="fill-opacity: 0; stroke: #17becf"/>
     <use xlink:href="#m6ce862c830" x="378.257484" y="188.875075" style="fill-opacity: 0; stroke: #17becf"/>
     <use xlink:href="#m6ce862c830" x="416.785251" y="189.356435" style="fill-opacity: 0; stroke: #17becf"/>
    </g>
   </g>
   <g id="line2d_22">
    <path d="M 70.035346 36.571858 
L 73.53787 36.581743 
L 77.040395 36.59336 
L 80.542919 36.60704 
L 84.045443 36.62318 
L 87.547967 36.642251 
L 91.050492 36.664782 
L 94.553016 36.691184 
L 98.05554 36.722114 
L 101.558065 36.758379 
L 105.060589 36.800922 
L 108.563113 36.850822 
L 112.065637 36.909227 
L 115.568162 36.976714 
L 119.070686 37.054421 
L 122.57321 37.143769 
L 126.075735 37.245737 
L 129.578259 37.360958 
L 133.080783 37.490891 
L 136.583307 37.637 
L 140.085832 37.800234 
L 143.588356 37.980974 
L 147.09088 38.180494 
L 150.593405 38.400057 
L 154.095929 38.64112 
L 157.598453 38.90515 
L 161.100978 39.193596 
L 164.603502 39.507914 
L 168.106026 39.850659 
L 171.60855 40.224743 
L 175.111075 40.633071 
L 178.613599 41.077661 
L 182.116123 41.561146 
L 185.618648 42.08746 
L 189.121172 42.660061 
L 192.623696 43.281134 
L 196.12622 43.953924 
L 199.628745 44.682241 
L 203.131269 45.468134 
L 206.633793 46.313404 
L 210.136318 47.221209 
L 213.638842 48.192481 
L 217.141366 49.227936 
L 220.64389 50.329644 
L 224.146415 51.496467 
L 227.648939 52.729715 
L 231.151463 54.028429 
L 234.653988 55.392831 
L 238.156512 56.821868 
L 241.659036 58.31561 
L 245.161561 59.872411 
L 248.664085 61.492591 
L 252.166609 63.174584 
L 255.669133 64.917334 
L 259.171658 66.720257 
L 262.674182 68.581647 
L 266.176706 70.499848 
L 269.679231 72.4733 
L 273.181755 74.49999 
L 276.684279 76.577794 
L 280.186803 78.704001 
L 283.689328 80.876259 
L 287.191852 83.091471 
L 290.694376 85.346935 
L 294.196901 87.639347 
L 297.699425 89.965736 
L 301.201949 92.322686 
L 304.704473 94.707191 
L 308.206998 97.115912 
L 311.709522 99.545501 
L 315.212046 101.993005 
L 318.714571 104.455395 
L 322.217095 106.929473 
L 325.719619 109.412578 
L 329.222144 111.901766 
L 332.724668 114.394439 
L 336.227192 116.887861 
L 339.729716 119.379675 
L 343.232241 121.867381 
L 346.734765 124.34862 
L 350.237289 126.821108 
L 353.739814 129.282641 
L 357.242338 131.731038 
L 360.744862 134.164149 
L 364.247386 136.579855 
L 367.749911 138.976042 
L 371.252435 141.350575 
L 374.754959 143.701335 
L 378.257484 146.026159 
L 381.760008 148.322835 
L 385.262532 150.589068 
L 388.765056 152.822534 
L 392.267581 155.020775 
L 395.770105 157.181241 
L 399.272629 159.301258 
L 402.775154 161.37801 
L 406.277678 163.408515 
L 409.780202 165.389641 
L 413.282727 167.318052 
L 416.785251 169.190239 
" clip-path="url(#pcfa9d2252a)" style="fill: none; stroke-dasharray: 7.4,3.2; stroke-dashoffset: 0; stroke: #1f77b4; stroke-width: 2"/>
   </g>
   <g id="line2d_23">
    <path d="M 70.035346 189.541084 
L 73.53787 189.540973 
L 77.040395 189.54081 
L 80.542919 189.540575 
L 84.045443 189.540243 
L 87.547967 189.539778 
L 91.050492 189.539126 
L 94.553016 189.538177 
L 98.05554 189.536819 
L 101.558065 189.534913 
L 105.060589 189.532272 
L 108.563113 189.528648 
L 112.065637 189.523703 
L 115.568162 189.516915 
L 119.070686 189.507696 
L 122.57321 189.495308 
L 126.075735 189.478837 
L 129.578259 189.457193 
L 133.080783 189.429 
L 136.583307 189.392547 
L 140.085832 189.34597 
L 143.588356 189.287373 
L 147.09088 189.213974 
L 150.593405 189.122869 
L 154.095929 189.011238 
L 157.598453 188.874598 
L 161.100978 188.707513 
L 164.603502 188.50355 
L 168.106026 188.256545 
L 171.60855 187.959459 
L 175.111075 187.603959 
L 178.613599 187.1788 
L 182.116123 186.672218 
L 185.618648 186.074215 
L 189.121172 185.373697 
L 192.623696 184.554965 
L 196.12622 183.606064 
L 199.628745 182.519039 
L 203.131269 181.281108 
L 206.633793 179.881923 
L 210.136318 178.320347 
L 213.638842 176.591633 
L 217.141366 174.695679 
L 220.64389 172.639179 
L 224.146415 170.427979 
L 227.648939 168.072829 
L 231.151463 165.585941 
L 234.653988 162.978764 
L 238.156512 160.263653 
L 241.659036 157.44837 
L 245.161561 154.541588 
L 248.664085 151.544452 
L 252.166609 148.459563 
L 255.669133 145.28625 
L 259.171658 142.021006 
L 262.674182 138.661828 
L 266.176706 135.205996 
L 269.679231 131.650354 
L 273.181755 127.992732 
L 276.684279 124.23169 
L 280.186803 120.367445 
L 283.689328 116.400504 
L 287.191852 112.333741 
L 290.694376 108.170619 
L 294.196901 103.916972 
L 297.699425 99.579533 
L 301.201949 95.167234 
L 304.704473 90.689807 
L 308.206998 86.158952 
L 311.709522 81.587792 
L 315.212046 76.990081 
L 318.714571 72.380961 
L 322.217095 67.77709 
L 325.719619 63.195284 
L 329.222144 58.653966 
L 332.724668 54.171933 
L 336.227192 49.769223 
L 339.729716 45.46604 
L 343.232241 41.283716 
L 346.734765 37.244084 
L 350.237289 33.369533 
L 353.739814 29.682903 
L 357.242338 26.207521 
L 360.744862 22.967057 
L 364.247386 19.985418 
L 367.749911 17.286637 
L 371.252435 14.894752 
L 374.754959 12.833524 
L 378.257484 11.126292 
L 381.760008 9.795703 
L 385.262532 8.86342 
L 388.765056 8.349607 
L 392.267581 8.272703 
L 395.770105 8.648831 
L 399.272629 9.491329 
L 402.775154 10.810246 
L 406.277678 12.611855 
L 409.780202 14.898134 
L 413.282727 17.666449 
L 416.785251 20.909233 
" clip-path="url(#pcfa9d2252a)" style="fill: none; stroke-dasharray: 7.4,3.2; stroke-dashoffset: 0; stroke: #d62728; stroke-width: 2"/>
   </g>
   <g id="line2d_24">
    <path d="M 70.035346 188.314437 
L 73.53787 188.020901 
L 77.040395 187.66179 
L 80.542919 187.222279 
L 84.045443 186.684352 
L 87.547967 186.026217 
L 91.050492 185.223728 
L 94.553016 184.260469 
L 98.05554 183.106852 
L 101.558065 181.725573 
L 105.060589 180.073157 
L 108.563113 178.099644 
L 112.065637 175.753454 
L 115.568162 173.02064 
L 119.070686 169.856916 
L 122.57321 166.205372 
L 126.075735 162.042548 
L 129.578259 157.37432 
L 133.080783 152.163585 
L 136.583307 146.383532 
L 140.085832 140.055272 
L 143.588356 133.255459 
L 147.09088 126.022576 
L 150.593405 118.423553 
L 154.095929 110.543931 
L 157.598453 102.498771 
L 161.100978 94.447234 
L 164.603502 86.599017 
L 168.106026 79.100995 
L 171.60855 72.084781 
L 175.111075 65.702752 
L 178.613599 60.273001 
L 182.116123 56.036143 
L 185.618648 52.9672 
L 189.121172 51.091212 
L 192.623696 50.672343 
L 196.12622 51.659595 
L 199.628745 53.832737 
L 203.131269 57.228533 
L 206.633793 61.803677 
L 210.136318 67.286829 
L 213.638842 73.593326 
L 217.141366 80.58066 
L 220.64389 88.027665 
L 224.146415 95.774153 
L 227.648939 103.607107 
L 231.151463 111.322398 
L 234.653988 118.743758 
L 238.156512 125.706525 
L 241.659036 132.120657 
L 245.161561 137.909432 
L 248.664085 143.086308 
L 252.166609 147.666077 
L 255.669133 151.695788 
L 259.171658 155.243661 
L 262.674182 158.366096 
L 266.176706 161.119531 
L 269.679231 163.558633 
L 273.181755 165.731177 
L 276.684279 167.676781 
L 280.186803 169.42948 
L 283.689328 171.018994 
L 287.191852 172.468947 
L 290.694376 173.799793 
L 294.196901 175.027366 
L 297.699425 176.164808 
L 301.201949 177.222229 
L 304.704473 178.207779 
L 308.206998 179.127692 
L 311.709522 179.986769 
L 315.212046 180.789178 
L 318.714571 181.538096 
L 322.217095 182.236099 
L 325.719619 182.885713 
L 329.222144 183.488994 
L 332.724668 184.048072 
L 336.227192 184.564865 
L 339.729716 185.041414 
L 343.232241 185.479697 
L 346.734765 185.881721 
L 350.237289 186.249506 
L 353.739814 186.585102 
L 357.242338 186.890547 
L 360.744862 187.167859 
L 364.247386 187.419029 
L 367.749911 187.646001 
L 371.252435 187.850658 
L 374.754959 188.034821 
L 378.257484 188.200224 
L 381.760008 188.348512 
L 385.262532 188.481241 
L 388.765056 188.599866 
L 392.267581 188.705744 
L 395.770105 188.80013 
L 399.272629 188.884184 
L 402.775154 188.958968 
L 406.277678 189.02545 
L 409.780202 189.084512 
L 413.282727 189.136951 
L 416.785251 189.183487 
" clip-path="url(#pcfa9d2252a)" style="fill: none; stroke-dasharray: 7.4,3.2; stroke-dashoffset: 0; stroke: #e377c2; stroke-width: 2"/>
   </g>
   <g id="line2d_25">
    <path d="M 70.035346 144.669962 
L 73.53787 140.207763 
L 77.040395 135.422795 
L 80.542919 130.328538 
L 84.045443 124.951464 
L 87.547967 119.3345 
L 91.050492 113.527577 
L 94.553016 107.522267 
L 98.05554 101.388087 
L 101.558065 95.23761 
L 105.060589 89.217697 
L 108.563113 83.513531 
L 112.065637 78.319639 
L 115.568162 73.585659 
L 119.070686 69.465965 
L 122.57321 66.211626 
L 126.075735 63.864591 
L 129.578259 62.288693 
L 133.080783 61.685507 
L 136.583307 62.247485 
L 140.085832 63.877624 
L 143.588356 66.120223 
L 147.09088 68.980489 
L 150.593405 72.313717 
L 154.095929 75.823343 
L 157.598453 79.451049 
L 161.100978 83.123148 
L 164.603502 86.73333 
L 168.106026 90.232545 
L 171.60855 93.638134 
L 175.111075 96.972839 
L 178.613599 100.174641 
L 182.116123 103.248638 
L 185.618648 106.296111 
L 189.121172 109.323491 
L 192.623696 112.298622 
L 196.12622 115.279376 
L 199.628745 118.309918 
L 203.131269 121.376843 
L 206.633793 124.489467 
L 210.136318 127.669774 
L 213.638842 130.890257 
L 217.141366 134.143267 
L 220.64389 137.410463 
L 224.146415 140.655439 
L 227.648939 143.864805 
L 231.151463 147.000818 
L 234.653988 150.050227 
L 238.156512 152.983092 
L 241.659036 155.791013 
L 245.161561 158.455037 
L 248.664085 160.972584 
L 252.166609 163.339882 
L 255.669133 165.553628 
L 259.171658 167.619407 
L 262.674182 169.541295 
L 266.176706 171.323566 
L 269.679231 172.973091 
L 273.181755 174.497174 
L 276.684279 175.902324 
L 280.186803 177.195464 
L 283.689328 178.383422 
L 287.191852 179.47254 
L 290.694376 180.469305 
L 294.196901 181.379708 
L 297.699425 182.209638 
L 301.201949 182.9646 
L 304.704473 183.650056 
L 308.206998 184.271097 
L 311.709522 184.832526 
L 315.212046 185.339196 
L 318.714571 185.795538 
L 322.217095 186.205699 
L 325.719619 186.573772 
L 329.222144 186.903455 
L 332.724668 187.198307 
L 336.227192 187.461565 
L 339.729716 187.696308 
L 343.232241 187.905332 
L 346.734765 188.091225 
L 350.237289 188.256354 
L 353.739814 188.402892 
L 357.242338 188.53281 
L 360.744862 188.647898 
L 364.247386 188.749773 
L 367.749911 188.839897 
L 371.252435 188.919582 
L 374.754959 188.99001 
L 378.257484 189.052236 
L 381.760008 189.107205 
L 385.262532 189.15576 
L 388.765056 189.198652 
L 392.267581 189.236548 
L 395.770105 189.270041 
L 399.272629 189.299657 
L 402.775154 189.325863 
L 406.277678 189.349069 
L 409.780202 189.369641 
L 413.282727 189.387899 
L 416.785251 189.404125 
" clip-path="url(#pcfa9d2252a)" style="fill: none; stroke-dasharray: 7.4,3.2; stroke-dashoffset: 0; stroke: #17becf; stroke-width: 2"/>
   </g>
   <g id="line2d_26">
    <path d="M 70.035346 36.546739 
L 73.53787 36.552345 
L 77.040395 36.558923 
L 80.542919 36.566649 
L 84.045443 36.575744 
L 87.547967 36.586471 
L 91.050492 36.599146 
L 94.553016 36.614141 
L 98.05554 36.631759 
L 101.558065 36.652418 
L 105.060589 36.67667 
L 108.563113 36.705162 
L 112.065637 36.738642 
L 115.568162 36.777957 
L 119.070686 36.823621 
L 122.57321 36.876379 
L 126.075735 36.93727 
L 129.578259 37.007178 
L 133.080783 37.086502 
L 136.583307 37.176307 
L 140.085832 37.277736 
L 143.588356 37.391792 
L 147.09088 37.518651 
L 150.593405 37.659147 
L 154.095929 37.814258 
L 157.598453 37.985023 
L 161.100978 38.172609 
L 164.603502 38.378203 
L 168.106026 38.602992 
L 171.60855 38.848255 
L 175.111075 39.116351 
L 178.613599 39.409495 
L 182.116123 39.730625 
L 185.618648 40.081737 
L 189.121172 40.464763 
L 192.623696 40.882008 
L 196.12622 41.337325 
L 199.628745 41.834344 
L 203.131269 42.37594 
L 206.633793 42.964271 
L 210.136318 43.602226 
L 213.638842 44.293566 
L 217.141366 45.041212 
L 220.64389 45.846135 
L 224.146415 46.710002 
L 227.648939 47.63576 
L 231.151463 48.624285 
L 234.653988 49.674856 
L 238.156512 50.790136 
L 241.659036 51.970588 
L 245.161561 53.214994 
L 248.664085 54.526788 
L 252.166609 55.903935 
L 255.669133 57.348227 
L 259.171658 58.859903 
L 262.674182 60.438065 
L 266.176706 62.084077 
L 269.679231 63.795303 
L 273.181755 65.57294 
L 276.684279 67.41377 
L 280.186803 69.317737 
L 283.689328 71.281927 
L 287.191852 73.304271 
L 290.694376 75.382868 
L 294.196901 77.513526 
L 297.699425 79.695026 
L 301.201949 81.92339 
L 304.704473 84.194785 
L 308.206998 86.507174 
L 311.709522 88.856543 
L 315.212046 91.239176 
L 318.714571 93.652039 
L 322.217095 96.091785 
L 325.719619 98.555283 
L 329.222144 101.038559 
L 332.724668 103.538816 
L 336.227192 106.052962 
L 339.729716 108.57791 
L 343.232241 111.110993 
L 346.734765 113.648841 
L 350.237289 116.18906 
L 353.739814 118.728501 
L 357.242338 121.264882 
L 360.744862 123.79523 
L 364.247386 126.317329 
L 367.749911 128.828445 
L 371.252435 131.326262 
L 374.754959 133.808217 
L 378.257484 136.271718 
L 381.760008 138.714618 
L 385.262532 141.134421 
L 388.765056 143.528672 
L 392.267581 145.894898 
L 395.770105 148.23074 
L 399.272629 150.533459 
L 402.775154 152.800708 
L 406.277678 155.029647 
L 409.780202 157.217688 
L 413.282727 159.361922 
L 416.785251 161.459364 
" clip-path="url(#pcfa9d2252a)" style="fill: none; stroke: #1f77b4"/>
   </g>
   <g id="line2d_27">
    <path d="M 70.035346 189.541297 
L 73.53787 189.541266 
L 77.040395 189.541222 
L 80.542919 189.541156 
L 84.045443 189.541062 
L 87.547967 189.540928 
L 91.050492 189.540741 
L 94.553016 189.54048 
L 98.05554 189.540101 
L 101.558065 189.539552 
L 105.060589 189.538774 
L 108.563113 189.537687 
L 112.065637 189.536185 
L 115.568162 189.534125 
L 119.070686 189.531271 
L 122.57321 189.527342 
L 126.075735 189.522001 
L 129.578259 189.514801 
L 133.080783 189.505176 
L 136.583307 189.492437 
L 140.085832 189.47572 
L 143.588356 189.453961 
L 147.09088 189.42603 
L 150.593405 189.390405 
L 154.095929 189.345224 
L 157.598453 189.28858 
L 161.100978 189.217744 
L 164.603502 189.129249 
L 168.106026 189.018822 
L 171.60855 188.881278 
L 175.111075 188.711015 
L 178.613599 188.501012 
L 182.116123 188.243667 
L 185.618648 187.928657 
L 189.121172 187.543447 
L 192.623696 187.073864 
L 196.12622 186.507754 
L 199.628745 185.833524 
L 203.131269 185.035586 
L 206.633793 184.094124 
L 210.136318 182.995208 
L 213.638842 181.735775 
L 217.141366 180.312156 
L 220.64389 178.713257 
L 224.146415 176.94384 
L 227.648939 175.022963 
L 231.151463 172.964197 
L 234.653988 170.784755 
L 238.156512 168.508136 
L 241.659036 166.153091 
L 245.161561 163.737297 
L 248.664085 161.258075 
L 252.166609 158.723952 
L 255.669133 156.120559 
L 259.171658 153.437794 
L 262.674182 150.664886 
L 266.176706 147.785997 
L 269.679231 144.795678 
L 273.181755 141.681898 
L 276.684279 138.443051 
L 280.186803 135.07437 
L 283.689328 131.577547 
L 287.191852 127.956014 
L 290.694376 124.214782 
L 294.196901 120.365291 
L 297.699425 116.416887 
L 301.201949 112.385303 
L 304.704473 108.288704 
L 308.206998 104.144161 
L 311.709522 99.973577 
L 315.212046 95.799892 
L 318.714571 91.64575 
L 322.217095 87.534743 
L 325.719619 83.490188 
L 329.222144 79.536827 
L 332.724668 75.696436 
L 336.227192 71.990431 
L 339.729716 68.439016 
L 343.232241 65.060213 
L 346.734765 61.872075 
L 350.237289 58.889093 
L 353.739814 56.125842 
L 357.242338 53.593641 
L 360.744862 51.303843 
L 364.247386 49.265031 
L 367.749911 47.485657 
L 371.252435 45.972374 
L 374.754959 44.731377 
L 378.257484 43.768101 
L 381.760008 43.086481 
L 385.262532 42.690395 
L 388.765056 42.582988 
L 392.267581 42.766696 
L 395.770105 43.243074 
L 399.272629 44.013286 
L 402.775154 45.077013 
L 406.277678 46.433338 
L 409.780202 48.07974 
L 413.282727 50.012509 
L 416.785251 52.226339 
" clip-path="url(#pcfa9d2252a)" style="fill: none; stroke: #d62728"/>
   </g>
   <g id="line2d_28">
    <path d="M 70.035346 188.909391 
L 73.53787 188.757147 
L 77.040395 188.570042 
L 80.542919 188.340554 
L 84.045443 188.058961 
L 87.547967 187.713398 
L 91.050492 187.289449 
L 94.553016 186.76997 
L 98.05554 186.142422 
L 101.558065 185.388341 
L 105.060589 184.48221 
L 108.563113 183.394001 
L 112.065637 182.088783 
L 115.568162 180.527243 
L 119.070686 178.691518 
L 122.57321 176.552105 
L 126.075735 174.0645 
L 129.578259 171.196528 
L 133.080783 167.949071 
L 136.583307 164.287272 
L 140.085832 160.177008 
L 143.588356 155.599247 
L 147.09088 150.594882 
L 150.593405 145.17426 
L 154.095929 139.351925 
L 157.598453 133.15815 
L 161.100978 126.630056 
L 164.603502 119.825425 
L 168.106026 112.829467 
L 171.60855 105.754857 
L 175.111075 98.669575 
L 178.613599 91.682448 
L 182.116123 84.861083 
L 185.618648 78.409588 
L 189.121172 72.591219 
L 192.623696 67.670236 
L 196.12622 63.690334 
L 199.628745 60.687042 
L 203.131269 58.845666 
L 206.633793 58.484366 
L 210.136318 59.691373 
L 213.638842 62.262413 
L 217.141366 66.1185 
L 220.64389 71.405347 
L 224.146415 77.961056 
L 227.648939 85.377478 
L 231.151463 93.425232 
L 234.653988 101.860877 
L 238.156512 110.262781 
L 241.659036 118.325265 
L 245.161561 125.789638 
L 248.664085 132.569307 
L 252.166609 138.526871 
L 255.669133 143.761235 
L 259.171658 148.327436 
L 262.674182 152.314954 
L 266.176706 155.836298 
L 269.679231 158.943746 
L 273.181755 161.724249 
L 276.684279 164.21556 
L 280.186803 166.467216 
L 283.689328 168.51343 
L 287.191852 170.377359 
L 290.694376 172.088472 
L 294.196901 173.658002 
L 297.699425 175.105261 
L 301.201949 176.441788 
L 304.704473 177.674141 
L 308.206998 178.812362 
L 311.709522 179.862648 
L 315.212046 180.829424 
L 318.714571 181.717401 
L 322.217095 182.531498 
L 325.719619 183.275643 
L 329.222144 183.953434 
L 332.724668 184.568764 
L 336.227192 185.125524 
L 339.729716 185.627728 
L 343.232241 186.07924 
L 346.734765 186.483808 
L 350.237289 186.845241 
L 353.739814 187.167183 
L 357.242338 187.453192 
L 360.744862 187.706618 
L 364.247386 187.930679 
L 367.749911 188.128354 
L 371.252435 188.302424 
L 374.754959 188.455441 
L 378.257484 188.589726 
L 381.760008 188.707468 
L 385.262532 188.810572 
L 388.765056 188.900766 
L 392.267581 188.979622 
L 395.770105 189.048527 
L 399.272629 189.1087 
L 402.775154 189.161249 
L 406.277678 189.207125 
L 409.780202 189.247184 
L 413.282727 189.282169 
L 416.785251 189.312726 
" clip-path="url(#pcfa9d2252a)" style="fill: none; stroke: #e377c2"/>
   </g>
   <g id="line2d_29">
    <path d="M 70.035346 160.820646 
L 73.53787 157.835119 
L 77.040395 154.604419 
L 80.542919 151.123951 
L 84.045443 147.398165 
L 87.547967 143.439753 
L 91.050492 139.272044 
L 94.553016 134.929886 
L 98.05554 130.412182 
L 101.558065 125.750224 
L 105.060589 121.015261 
L 108.563113 116.302682 
L 112.065637 111.735685 
L 115.568162 107.463455 
L 119.070686 103.492643 
L 122.57321 99.906723 
L 126.075735 96.892927 
L 129.578259 94.559535 
L 133.080783 92.787373 
L 136.583307 91.725206 
L 140.085832 91.543141 
L 143.588356 92.33142 
L 147.09088 93.705935 
L 150.593405 95.600539 
L 154.095929 97.974383 
L 157.598453 100.547491 
L 161.100978 103.246128 
L 164.603502 106.026907 
L 168.106026 108.822067 
L 171.60855 111.536651 
L 175.111075 114.145957 
L 178.613599 116.651821 
L 182.116123 119.12039 
L 185.618648 121.513715 
L 189.121172 123.783408 
L 192.623696 125.919237 
L 196.12622 128.050603 
L 199.628745 130.179625 
L 203.131269 132.29646 
L 206.633793 134.381554 
L 210.136318 136.47891 
L 213.638842 138.639979 
L 217.141366 140.856722 
L 220.64389 143.11176 
L 224.146415 145.41809 
L 227.648939 147.770085 
L 231.151463 150.137764 
L 234.653988 152.497994 
L 238.156512 154.839473 
L 241.659036 157.127457 
L 245.161561 159.345003 
L 248.664085 161.484905 
L 252.166609 163.521344 
L 255.669133 165.463735 
L 259.171658 167.298743 
L 262.674182 169.033822 
L 266.176706 170.667193 
L 269.679231 172.202173 
L 273.181755 173.642006 
L 276.684279 174.989787 
L 280.186803 176.247764 
L 283.689328 177.421008 
L 287.191852 178.510085 
L 290.694376 179.520834 
L 294.196901 180.454274 
L 297.699425 181.315661 
L 301.201949 182.10852 
L 304.704473 182.835079 
L 308.206998 183.500311 
L 311.709522 184.10768 
L 315.212046 184.660544 
L 318.714571 185.162625 
L 322.217095 185.617801 
L 325.719619 186.029548 
L 329.222144 186.401139 
L 332.724668 186.73585 
L 336.227192 187.03683 
L 339.729716 187.307104 
L 343.232241 187.549456 
L 346.734765 187.766424 
L 350.237289 187.960463 
L 353.739814 188.133788 
L 357.242338 188.288477 
L 360.744862 188.426398 
L 364.247386 188.549294 
L 367.749911 188.658721 
L 371.252435 188.756105 
L 374.754959 188.842722 
L 378.257484 188.919718 
L 381.760008 188.988164 
L 385.262532 189.048983 
L 388.765056 189.103011 
L 392.267581 189.151006 
L 395.770105 189.193642 
L 399.272629 189.231513 
L 402.775154 189.265164 
L 406.277678 189.295067 
L 409.780202 189.321652 
L 413.282727 189.345299 
L 416.785251 189.366342 
" clip-path="url(#pcfa9d2252a)" style="fill: none; stroke: #17becf"/>
   </g>
   <g id="text_7">
    <!-- $C_{10}H_{16}$ -->
    <g style="fill: #1f77b4" transform="translate(116.355327 27.067972)scale(0.14 -0.14)">
     <defs>
      <path id="DejaVuSans-Oblique-43" d="M 4447 4306 
L 4319 3641 
Q 4019 3944 3683 4091 
Q 3347 4238 2956 4238 
Q 2422 4238 2017 3981 
Q 1613 3725 1319 3200 
Q 1131 2863 1032 2486 
Q 934 2109 934 1728 
Q 934 1091 1264 756 
Q 1594 422 2222 422 
Q 2656 422 3056 561 
Q 3456 700 3834 978 
L 3688 231 
Q 3316 72 2936 -9 
Q 2556 -91 2175 -91 
Q 1278 -91 773 396 
Q 269 884 269 1753 
Q 269 2309 461 2846 
Q 653 3384 1013 3828 
Q 1394 4300 1883 4525 
Q 2372 4750 3022 4750 
Q 3422 4750 3780 4639 
Q 4138 4528 4447 4306 
z
" transform="scale(0.015625)"/>
      <path id="DejaVuSans-Oblique-48" d="M 1081 4666 
L 1716 4666 
L 1344 2753 
L 3634 2753 
L 4006 4666 
L 4641 4666 
L 3731 0 
L 3097 0 
L 3531 2222 
L 1241 2222 
L 806 0 
L 172 0 
L 1081 4666 
z
" transform="scale(0.015625)"/>
      <path id="DejaVuSans-36" d="M 2113 2584 
Q 1688 2584 1439 2293 
Q 1191 2003 1191 1497 
Q 1191 994 1439 701 
Q 1688 409 2113 409 
Q 2538 409 2786 701 
Q 3034 994 3034 1497 
Q 3034 2003 2786 2293 
Q 2538 2584 2113 2584 
z
M 3366 4563 
L 3366 3988 
Q 3128 4100 2886 4159 
Q 2644 4219 2406 4219 
Q 1781 4219 1451 3797 
Q 1122 3375 1075 2522 
Q 1259 2794 1537 2939 
Q 1816 3084 2150 3084 
Q 2853 3084 3261 2657 
Q 3669 2231 3669 1497 
Q 3669 778 3244 343 
Q 2819 -91 2113 -91 
Q 1303 -91 875 529 
Q 447 1150 447 2328 
Q 447 3434 972 4092 
Q 1497 4750 2381 4750 
Q 2619 4750 2861 4703 
Q 3103 4656 3366 4563 
z
" transform="scale(0.015625)"/>
     </defs>
     <use xlink:href="#DejaVuSans-Oblique-43" transform="translate(0 0.78125)"/>
     <use xlink:href="#DejaVuSans-31" transform="translate(69.824219 -15.625)scale(0.7)"/>
     <use xlink:href="#DejaVuSans-30" transform="translate(114.360352 -15.625)scale(0.7)"/>
     <use xlink:href="#DejaVuSans-Oblique-48" transform="translate(161.630859 0.78125)"/>
     <use xlink:href="#DejaVuSans-31" transform="translate(236.826172 -15.625)scale(0.7)"/>
     <use xlink:href="#DejaVuSans-36" transform="translate(281.362305 -15.625)scale(0.7)"/>
    </g>
   </g>
   <g id="text_8">
    <!-- $50 \, C_5H_5$ -->
    <g style="fill: #d62728" transform="translate(353.64362 68.652106)scale(0.14 -0.14)">
     <use xlink:href="#DejaVuSans-35" transform="translate(0 0.78125)"/>
     <use xlink:href="#DejaVuSans-30" transform="translate(63.623047 0.78125)"/>
     <use xlink:href="#DejaVuSans-Oblique-43" transform="translate(143.48177 0.78125)"/>
     <use xlink:href="#DejaVuSans-35" transform="translate(213.305989 -15.625)scale(0.7)"/>
     <use xlink:href="#DejaVuSans-Oblique-48" transform="translate(260.576497 0.78125)"/>
     <use xlink:href="#DejaVuSans-35" transform="translate(335.771809 -15.625)scale(0.7)"/>
    </g>
   </g>
   <g id="text_9">
    <!-- $2\times10^3 \, CH_3$ -->
    <g style="fill: #e377c2" transform="translate(201.853658 102.774725)scale(0.14 -0.14)">
     <defs>
      <path id="DejaVuSans-d7" d="M 4488 3438 
L 3059 2003 
L 4488 575 
L 4116 197 
L 2681 1631 
L 1247 197 
L 878 575 
L 2303 2003 
L 878 3438 
L 1247 3816 
L 2681 2381 
L 4116 3816 
L 4488 3438 
z
" transform="scale(0.015625)"/>
      <path id="DejaVuSans-33" d="M 2597 2516 
Q 3050 2419 3304 2112 
Q 3559 1806 3559 1356 
Q 3559 666 3084 287 
Q 2609 -91 1734 -91 
Q 1441 -91 1130 -33 
Q 819 25 488 141 
L 488 750 
Q 750 597 1062 519 
Q 1375 441 1716 441 
Q 2309 441 2620 675 
Q 2931 909 2931 1356 
Q 2931 1769 2642 2001 
Q 2353 2234 1838 2234 
L 1294 2234 
L 1294 2753 
L 1863 2753 
Q 2328 2753 2575 2939 
Q 2822 3125 2822 3475 
Q 2822 3834 2567 4026 
Q 2313 4219 1838 4219 
Q 1578 4219 1281 4162 
Q 984 4106 628 3988 
L 628 4550 
Q 988 4650 1302 4700 
Q 1616 4750 1894 4750 
Q 2613 4750 3031 4423 
Q 3450 4097 3450 3541 
Q 3450 3153 3228 2886 
Q 3006 2619 2597 2516 
z
" transform="scale(0.015625)"/>
     </defs>
     <use xlink:href="#DejaVuSans-32" transform="translate(0 0.765625)"/>
     <use xlink:href="#DejaVuSans-d7" transform="translate(83.105469 0.765625)"/>
     <use xlink:href="#DejaVuSans-31" transform="translate(186.376953 0.765625)"/>
     <use xlink:href="#DejaVuSans-30" transform="translate(250 0.765625)"/>
     <use xlink:href="#DejaVuSans-33" transform="translate(314.580078 39.046875)scale(0.7)"/>
     <use xlink:href="#DejaVuSans-Oblique-43" transform="translate(378.086262 0.765625)"/>
     <use xlink:href="#DejaVuSans-Oblique-48" transform="translate(447.910481 0.765625)"/>
     <use xlink:href="#DejaVuSans-33" transform="translate(523.105793 -15.640625)scale(0.7)"/>
    </g>
   </g>
   <g id="text_10">
    <!-- $10^5 \, H$ -->
    <g style="fill: #17becf" transform="translate(72.22177 76.968932)scale(0.14 -0.14)">
     <use xlink:href="#DejaVuSans-31" transform="translate(0 0.684375)"/>
     <use xlink:href="#DejaVuSans-30" transform="translate(63.623047 0.684375)"/>
     <use xlink:href="#DejaVuSans-35" transform="translate(128.203125 38.965625)scale(0.7)"/>
     <use xlink:href="#DejaVuSans-Oblique-48" transform="translate(191.709309 0.684375)"/>
    </g>
   </g>
   <g id="text_11">
    <!-- Training Set #1 -->
    <g transform="translate(314.515844 18.751145)scale(0.14 -0.14)">
     <defs>
      <path id="DejaVuSans-54" d="M -19 4666 
L 3928 4666 
L 3928 4134 
L 2272 4134 
L 2272 0 
L 1638 0 
L 1638 4134 
L -19 4134 
L -19 4666 
z
" transform="scale(0.015625)"/>
      <path id="DejaVuSans-72" d="M 2631 2963 
Q 2534 3019 2420 3045 
Q 2306 3072 2169 3072 
Q 1681 3072 1420 2755 
Q 1159 2438 1159 1844 
L 1159 0 
L 581 0 
L 581 3500 
L 1159 3500 
L 1159 2956 
Q 1341 3275 1631 3429 
Q 1922 3584 2338 3584 
Q 2397 3584 2469 3576 
Q 2541 3569 2628 3553 
L 2631 2963 
z
" transform="scale(0.015625)"/>
      <path id="DejaVuSans-61" d="M 2194 1759 
Q 1497 1759 1228 1600 
Q 959 1441 959 1056 
Q 959 750 1161 570 
Q 1363 391 1709 391 
Q 2188 391 2477 730 
Q 2766 1069 2766 1631 
L 2766 1759 
L 2194 1759 
z
M 3341 1997 
L 3341 0 
L 2766 0 
L 2766 531 
Q 2569 213 2275 61 
Q 1981 -91 1556 -91 
Q 1019 -91 701 211 
Q 384 513 384 1019 
Q 384 1609 779 1909 
Q 1175 2209 1959 2209 
L 2766 2209 
L 2766 2266 
Q 2766 2663 2505 2880 
Q 2244 3097 1772 3097 
Q 1472 3097 1187 3025 
Q 903 2953 641 2809 
L 641 3341 
Q 956 3463 1253 3523 
Q 1550 3584 1831 3584 
Q 2591 3584 2966 3190 
Q 3341 2797 3341 1997 
z
" transform="scale(0.015625)"/>
      <path id="DejaVuSans-69" d="M 603 3500 
L 1178 3500 
L 1178 0 
L 603 0 
L 603 3500 
z
M 603 4863 
L 1178 4863 
L 1178 4134 
L 603 4134 
L 603 4863 
z
" transform="scale(0.015625)"/>
      <path id="DejaVuSans-6e" d="M 3513 2113 
L 3513 0 
L 2938 0 
L 2938 2094 
Q 2938 2591 2744 2837 
Q 2550 3084 2163 3084 
Q 1697 3084 1428 2787 
Q 1159 2491 1159 1978 
L 1159 0 
L 581 0 
L 581 3500 
L 1159 3500 
L 1159 2956 
Q 1366 3272 1645 3428 
Q 1925 3584 2291 3584 
Q 2894 3584 3203 3211 
Q 3513 2838 3513 2113 
z
" transform="scale(0.015625)"/>
      <path id="DejaVuSans-67" d="M 2906 1791 
Q 2906 2416 2648 2759 
Q 2391 3103 1925 3103 
Q 1463 3103 1205 2759 
Q 947 2416 947 1791 
Q 947 1169 1205 825 
Q 1463 481 1925 481 
Q 2391 481 2648 825 
Q 2906 1169 2906 1791 
z
M 3481 434 
Q 3481 -459 3084 -895 
Q 2688 -1331 1869 -1331 
Q 1566 -1331 1297 -1286 
Q 1028 -1241 775 -1147 
L 775 -588 
Q 1028 -725 1275 -790 
Q 1522 -856 1778 -856 
Q 2344 -856 2625 -561 
Q 2906 -266 2906 331 
L 2906 616 
Q 2728 306 2450 153 
Q 2172 0 1784 0 
Q 1141 0 747 490 
Q 353 981 353 1791 
Q 353 2603 747 3093 
Q 1141 3584 1784 3584 
Q 2172 3584 2450 3431 
Q 2728 3278 2906 2969 
L 2906 3500 
L 3481 3500 
L 3481 434 
z
" transform="scale(0.015625)"/>
      <path id="DejaVuSans-20" transform="scale(0.015625)"/>
      <path id="DejaVuSans-53" d="M 3425 4513 
L 3425 3897 
Q 3066 4069 2747 4153 
Q 2428 4238 2131 4238 
Q 1616 4238 1336 4038 
Q 1056 3838 1056 3469 
Q 1056 3159 1242 3001 
Q 1428 2844 1947 2747 
L 2328 2669 
Q 3034 2534 3370 2195 
Q 3706 1856 3706 1288 
Q 3706 609 3251 259 
Q 2797 -91 1919 -91 
Q 1588 -91 1214 -16 
Q 841 59 441 206 
L 441 856 
Q 825 641 1194 531 
Q 1563 422 1919 422 
Q 2459 422 2753 634 
Q 3047 847 3047 1241 
Q 3047 1584 2836 1778 
Q 2625 1972 2144 2069 
L 1759 2144 
Q 1053 2284 737 2584 
Q 422 2884 422 3419 
Q 422 4038 858 4394 
Q 1294 4750 2059 4750 
Q 2388 4750 2728 4690 
Q 3069 4631 3425 4513 
z
" transform="scale(0.015625)"/>
      <path id="DejaVuSans-65" d="M 3597 1894 
L 3597 1613 
L 953 1613 
Q 991 1019 1311 708 
Q 1631 397 2203 397 
Q 2534 397 2845 478 
Q 3156 559 3463 722 
L 3463 178 
Q 3153 47 2828 -22 
Q 2503 -91 2169 -91 
Q 1331 -91 842 396 
Q 353 884 353 1716 
Q 353 2575 817 3079 
Q 1281 3584 2069 3584 
Q 2775 3584 3186 3129 
Q 3597 2675 3597 1894 
z
M 3022 2063 
Q 3016 2534 2758 2815 
Q 2500 3097 2075 3097 
Q 1594 3097 1305 2825 
Q 1016 2553 972 2059 
L 3022 2063 
z
" transform="scale(0.015625)"/>
      <path id="DejaVuSans-74" d="M 1172 4494 
L 1172 3500 
L 2356 3500 
L 2356 3053 
L 1172 3053 
L 1172 1153 
Q 1172 725 1289 603 
Q 1406 481 1766 481 
L 2356 481 
L 2356 0 
L 1766 0 
Q 1100 0 847 248 
Q 594 497 594 1153 
L 594 3053 
L 172 3053 
L 172 3500 
L 594 3500 
L 594 4494 
L 1172 4494 
z
" transform="scale(0.015625)"/>
      <path id="DejaVuSans-23" d="M 3272 2816 
L 2363 2816 
L 2100 1772 
L 3016 1772 
L 3272 2816 
z
M 2803 4594 
L 2478 3297 
L 3391 3297 
L 3719 4594 
L 4219 4594 
L 3897 3297 
L 4872 3297 
L 4872 2816 
L 3775 2816 
L 3519 1772 
L 4513 1772 
L 4513 1294 
L 3397 1294 
L 3072 0 
L 2572 0 
L 2894 1294 
L 1978 1294 
L 1656 0 
L 1153 0 
L 1478 1294 
L 494 1294 
L 494 1772 
L 1594 1772 
L 1856 2816 
L 850 2816 
L 850 3297 
L 1978 3297 
L 2297 4594 
L 2803 4594 
z
" transform="scale(0.015625)"/>
     </defs>
     <use xlink:href="#DejaVuSans-54"/>
     <use xlink:href="#DejaVuSans-72" x="46.333984"/>
     <use xlink:href="#DejaVuSans-61" x="87.447266"/>
     <use xlink:href="#DejaVuSans-69" x="148.726562"/>
     <use xlink:href="#DejaVuSans-6e" x="176.509766"/>
     <use xlink:href="#DejaVuSans-69" x="239.888672"/>
     <use xlink:href="#DejaVuSans-6e" x="267.671875"/>
     <use xlink:href="#DejaVuSans-67" x="331.050781"/>
     <use xlink:href="#DejaVuSans-20" x="394.527344"/>
     <use xlink:href="#DejaVuSans-53" x="426.314453"/>
     <use xlink:href="#DejaVuSans-65" x="489.791016"/>
     <use xlink:href="#DejaVuSans-74" x="551.314453"/>
     <use xlink:href="#DejaVuSans-20" x="590.523438"/>
     <use xlink:href="#DejaVuSans-23" x="622.310547"/>
     <use xlink:href="#DejaVuSans-31" x="706.099609"/>
    </g>
   </g>
  </g>
  <g id="axes_2">
   <g id="patch_7">
    <path d="M 59.632849 392.793354 
L 427.187748 392.793354 
L 427.187748 200.648646 
L 59.632849 200.648646 
z
" style="fill: #ffffff"/>
   </g>
   <g id="matplotlib.axis_3">
    <g id="xtick_7">
     <g id="line2d_30">
      <path d="M 70.035346 392.793354 
L 70.035346 200.648646 
" clip-path="url(#p81331ab19f)" style="fill: none; stroke: #000000; stroke-opacity: 0.1; stroke-width: 0.5; stroke-linecap: square"/>
     </g>
     <g id="line2d_31">
      <defs>
       <path id="m434841d74a" d="M 0 0 
L 0 -2.5 
" style="stroke: #000000; stroke-width: 0.5"/>
      </defs>
      <g>
       <use xlink:href="#m434841d74a" x="70.035346" y="392.793354" style="stroke: #000000; stroke-width: 0.5"/>
      </g>
     </g>
     <g id="line2d_32">
      <defs>
       <path id="mb6be643449" d="M 0 0 
L 0 2.5 
" style="stroke: #000000; stroke-width: 0.5"/>
      </defs>
      <g>
       <use xlink:href="#mb6be643449" x="70.035346" y="200.648646" style="stroke: #000000; stroke-width: 0.5"/>
      </g>
     </g>
     <g id="text_12">
      <!-- $\mathregular{10^{-6}}$ -->
      <g transform="translate(55.935346 405.411479)scale(0.12 -0.12)">
       <defs>
        <path id="DejaVuSans-2212" d="M 678 2272 
L 4684 2272 
L 4684 1741 
L 678 1741 
L 678 2272 
z
" transform="scale(0.015625)"/>
       </defs>
       <use xlink:href="#DejaVuSans-31" transform="translate(0 0.765625)"/>
       <use xlink:href="#DejaVuSans-30" transform="translate(63.623047 0.765625)"/>
       <use xlink:href="#DejaVuSans-2212" transform="translate(128.203125 39.046875)scale(0.7)"/>
       <use xlink:href="#DejaVuSans-36" transform="translate(186.855469 39.046875)scale(0.7)"/>
      </g>
     </g>
    </g>
    <g id="xtick_8">
     <g id="line2d_33">
      <path d="M 139.385327 392.793354 
L 139.385327 200.648646 
" clip-path="url(#p81331ab19f)" style="fill: none; stroke: #000000; stroke-opacity: 0.1; stroke-width: 0.5; stroke-linecap: square"/>
     </g>
     <g id="line2d_34">
      <g>
       <use xlink:href="#m434841d74a" x="139.385327" y="392.793354" style="stroke: #000000; stroke-width: 0.5"/>
      </g>
     </g>
     <g id="line2d_35">
      <g>
       <use xlink:href="#mb6be643449" x="139.385327" y="200.648646" style="stroke: #000000; stroke-width: 0.5"/>
      </g>
     </g>
     <g id="text_13">
      <!-- $\mathregular{10^{-5}}$ -->
      <g transform="translate(125.285327 405.411479)scale(0.12 -0.12)">
       <use xlink:href="#DejaVuSans-31" transform="translate(0 0.684375)"/>
       <use xlink:href="#DejaVuSans-30" transform="translate(63.623047 0.684375)"/>
       <use xlink:href="#DejaVuSans-2212" transform="translate(128.203125 38.965625)scale(0.7)"/>
       <use xlink:href="#DejaVuSans-35" transform="translate(186.855469 38.965625)scale(0.7)"/>
      </g>
     </g>
    </g>
    <g id="xtick_9">
     <g id="line2d_36">
      <path d="M 208.735308 392.793354 
L 208.735308 200.648646 
" clip-path="url(#p81331ab19f)" style="fill: none; stroke: #000000; stroke-opacity: 0.1; stroke-width: 0.5; stroke-linecap: square"/>
     </g>
     <g id="line2d_37">
      <g>
       <use xlink:href="#m434841d74a" x="208.735308" y="392.793354" style="stroke: #000000; stroke-width: 0.5"/>
      </g>
     </g>
     <g id="line2d_38">
      <g>
       <use xlink:href="#mb6be643449" x="208.735308" y="200.648646" style="stroke: #000000; stroke-width: 0.5"/>
      </g>
     </g>
     <g id="text_14">
      <!-- $\mathregular{10^{-4}}$ -->
      <g transform="translate(194.635308 405.411479)scale(0.12 -0.12)">
       <defs>
        <path id="DejaVuSans-34" d="M 2419 4116 
L 825 1625 
L 2419 1625 
L 2419 4116 
z
M 2253 4666 
L 3047 4666 
L 3047 1625 
L 3713 1625 
L 3713 1100 
L 3047 1100 
L 3047 0 
L 2419 0 
L 2419 1100 
L 313 1100 
L 313 1709 
L 2253 4666 
z
" transform="scale(0.015625)"/>
       </defs>
       <use xlink:href="#DejaVuSans-31" transform="translate(0 0.684375)"/>
       <use xlink:href="#DejaVuSans-30" transform="translate(63.623047 0.684375)"/>
       <use xlink:href="#DejaVuSans-2212" transform="translate(128.203125 38.965625)scale(0.7)"/>
       <use xlink:href="#DejaVuSans-34" transform="translate(186.855469 38.965625)scale(0.7)"/>
      </g>
     </g>
    </g>
    <g id="xtick_10">
     <g id="line2d_39">
      <path d="M 278.085289 392.793354 
L 278.085289 200.648646 
" clip-path="url(#p81331ab19f)" style="fill: none; stroke: #000000; stroke-opacity: 0.1; stroke-width: 0.5; stroke-linecap: square"/>
     </g>
     <g id="line2d_40">
      <g>
       <use xlink:href="#m434841d74a" x="278.085289" y="392.793354" style="stroke: #000000; stroke-width: 0.5"/>
      </g>
     </g>
     <g id="line2d_41">
      <g>
       <use xlink:href="#mb6be643449" x="278.085289" y="200.648646" style="stroke: #000000; stroke-width: 0.5"/>
      </g>
     </g>
     <g id="text_15">
      <!-- $\mathregular{10^{-3}}$ -->
      <g transform="translate(263.985289 405.411479)scale(0.12 -0.12)">
       <use xlink:href="#DejaVuSans-31" transform="translate(0 0.765625)"/>
       <use xlink:href="#DejaVuSans-30" transform="translate(63.623047 0.765625)"/>
       <use xlink:href="#DejaVuSans-2212" transform="translate(128.203125 39.046875)scale(0.7)"/>
       <use xlink:href="#DejaVuSans-33" transform="translate(186.855469 39.046875)scale(0.7)"/>
      </g>
     </g>
    </g>
    <g id="xtick_11">
     <g id="line2d_42">
      <path d="M 347.43527 392.793354 
L 347.43527 200.648646 
" clip-path="url(#p81331ab19f)" style="fill: none; stroke: #000000; stroke-opacity: 0.1; stroke-width: 0.5; stroke-linecap: square"/>
     </g>
     <g id="line2d_43">
      <g>
       <use xlink:href="#m434841d74a" x="347.43527" y="392.793354" style="stroke: #000000; stroke-width: 0.5"/>
      </g>
     </g>
     <g id="line2d_44">
      <g>
       <use xlink:href="#mb6be643449" x="347.43527" y="200.648646" style="stroke: #000000; stroke-width: 0.5"/>
      </g>
     </g>
     <g id="text_16">
      <!-- $\mathregular{10^{-2}}$ -->
      <g transform="translate(333.33527 405.411479)scale(0.12 -0.12)">
       <use xlink:href="#DejaVuSans-31" transform="translate(0 0.765625)"/>
       <use xlink:href="#DejaVuSans-30" transform="translate(63.623047 0.765625)"/>
       <use xlink:href="#DejaVuSans-2212" transform="translate(128.203125 39.046875)scale(0.7)"/>
       <use xlink:href="#DejaVuSans-32" transform="translate(186.855469 39.046875)scale(0.7)"/>
      </g>
     </g>
    </g>
    <g id="xtick_12">
     <g id="line2d_45">
      <path d="M 416.785251 392.793354 
L 416.785251 200.648646 
" clip-path="url(#p81331ab19f)" style="fill: none; stroke: #000000; stroke-opacity: 0.1; stroke-width: 0.5; stroke-linecap: square"/>
     </g>
     <g id="line2d_46">
      <g>
       <use xlink:href="#m434841d74a" x="416.785251" y="392.793354" style="stroke: #000000; stroke-width: 0.5"/>
      </g>
     </g>
     <g id="line2d_47">
      <g>
       <use xlink:href="#mb6be643449" x="416.785251" y="200.648646" style="stroke: #000000; stroke-width: 0.5"/>
      </g>
     </g>
     <g id="text_17">
      <!-- $\mathregular{10^{-1}}$ -->
      <g transform="translate(402.685251 405.411479)scale(0.12 -0.12)">
       <use xlink:href="#DejaVuSans-31" transform="translate(0 0.684375)"/>
       <use xlink:href="#DejaVuSans-30" transform="translate(63.623047 0.684375)"/>
       <use xlink:href="#DejaVuSans-2212" transform="translate(128.203125 38.965625)scale(0.7)"/>
       <use xlink:href="#DejaVuSans-31" transform="translate(186.855469 38.965625)scale(0.7)"/>
      </g>
     </g>
    </g>
    <g id="text_18">
     <!-- Time [s] -->
     <g transform="translate(210.884048 424.064604)scale(0.16 -0.16)">
      <defs>
       <path id="DejaVuSans-6d" d="M 3328 2828 
Q 3544 3216 3844 3400 
Q 4144 3584 4550 3584 
Q 5097 3584 5394 3201 
Q 5691 2819 5691 2113 
L 5691 0 
L 5113 0 
L 5113 2094 
Q 5113 2597 4934 2840 
Q 4756 3084 4391 3084 
Q 3944 3084 3684 2787 
Q 3425 2491 3425 1978 
L 3425 0 
L 2847 0 
L 2847 2094 
Q 2847 2600 2669 2842 
Q 2491 3084 2119 3084 
Q 1678 3084 1418 2786 
Q 1159 2488 1159 1978 
L 1159 0 
L 581 0 
L 581 3500 
L 1159 3500 
L 1159 2956 
Q 1356 3278 1631 3431 
Q 1906 3584 2284 3584 
Q 2666 3584 2933 3390 
Q 3200 3197 3328 2828 
z
" transform="scale(0.015625)"/>
       <path id="DejaVuSans-5b" d="M 550 4863 
L 1875 4863 
L 1875 4416 
L 1125 4416 
L 1125 -397 
L 1875 -397 
L 1875 -844 
L 550 -844 
L 550 4863 
z
" transform="scale(0.015625)"/>
       <path id="DejaVuSans-73" d="M 2834 3397 
L 2834 2853 
Q 2591 2978 2328 3040 
Q 2066 3103 1784 3103 
Q 1356 3103 1142 2972 
Q 928 2841 928 2578 
Q 928 2378 1081 2264 
Q 1234 2150 1697 2047 
L 1894 2003 
Q 2506 1872 2764 1633 
Q 3022 1394 3022 966 
Q 3022 478 2636 193 
Q 2250 -91 1575 -91 
Q 1294 -91 989 -36 
Q 684 19 347 128 
L 347 722 
Q 666 556 975 473 
Q 1284 391 1588 391 
Q 1994 391 2212 530 
Q 2431 669 2431 922 
Q 2431 1156 2273 1281 
Q 2116 1406 1581 1522 
L 1381 1569 
Q 847 1681 609 1914 
Q 372 2147 372 2553 
Q 372 3047 722 3315 
Q 1072 3584 1716 3584 
Q 2034 3584 2315 3537 
Q 2597 3491 2834 3397 
z
" transform="scale(0.015625)"/>
       <path id="DejaVuSans-5d" d="M 1947 4863 
L 1947 -844 
L 622 -844 
L 622 -397 
L 1369 -397 
L 1369 4416 
L 622 4416 
L 622 4863 
L 1947 4863 
z
" transform="scale(0.015625)"/>
      </defs>
      <use xlink:href="#DejaVuSans-54"/>
      <use xlink:href="#DejaVuSans-69" x="57.958984"/>
      <use xlink:href="#DejaVuSans-6d" x="85.742188"/>
      <use xlink:href="#DejaVuSans-65" x="183.154297"/>
      <use xlink:href="#DejaVuSans-20" x="244.677734"/>
      <use xlink:href="#DejaVuSans-5b" x="276.464844"/>
      <use xlink:href="#DejaVuSans-73" x="315.478516"/>
      <use xlink:href="#DejaVuSans-5d" x="367.578125"/>
     </g>
    </g>
   </g>
   <g id="matplotlib.axis_4">
    <g id="ytick_6">
     <g id="line2d_48">
      <path d="M 59.632849 387.360044 
L 427.187748 387.360044 
" clip-path="url(#p81331ab19f)" style="fill: none; stroke: #000000; stroke-opacity: 0.1; stroke-width: 0.5; stroke-linecap: square"/>
     </g>
     <g id="line2d_49">
      <g>
       <use xlink:href="#mb4b466547b" x="59.632849" y="387.360044" style="stroke: #000000; stroke-width: 0.5"/>
      </g>
     </g>
     <g id="line2d_50">
      <g>
       <use xlink:href="#m035a28ad6b" x="427.187748" y="387.360044" style="stroke: #000000; stroke-width: 0.5"/>
      </g>
     </g>
     <g id="text_19">
      <!-- $\mathregular{0.00}$ -->
      <g transform="translate(29.372849 391.919107)scale(0.12 -0.12)">
       <use xlink:href="#DejaVuSans-30" transform="translate(0 0.78125)"/>
       <use xlink:href="#DejaVuSans-2e" transform="translate(63.623047 0.78125)"/>
       <use xlink:href="#DejaVuSans-30" transform="translate(95.410156 0.78125)"/>
       <use xlink:href="#DejaVuSans-30" transform="translate(159.033203 0.78125)"/>
      </g>
     </g>
    </g>
    <g id="ytick_7">
     <g id="line2d_51">
      <path d="M 59.632849 353.653937 
L 427.187748 353.653937 
" clip-path="url(#p81331ab19f)" style="fill: none; stroke: #000000; stroke-opacity: 0.1; stroke-width: 0.5; stroke-linecap: square"/>
     </g>
     <g id="line2d_52">
      <g>
       <use xlink:href="#mb4b466547b" x="59.632849" y="353.653937" style="stroke: #000000; stroke-width: 0.5"/>
      </g>
     </g>
     <g id="line2d_53">
      <g>
       <use xlink:href="#m035a28ad6b" x="427.187748" y="353.653937" style="stroke: #000000; stroke-width: 0.5"/>
      </g>
     </g>
     <g id="text_20">
      <!-- $\mathregular{0.05}$ -->
      <g transform="translate(29.372849 358.213)scale(0.12 -0.12)">
       <use xlink:href="#DejaVuSans-30" transform="translate(0 0.78125)"/>
       <use xlink:href="#DejaVuSans-2e" transform="translate(63.623047 0.78125)"/>
       <use xlink:href="#DejaVuSans-30" transform="translate(95.410156 0.78125)"/>
       <use xlink:href="#DejaVuSans-35" transform="translate(159.033203 0.78125)"/>
      </g>
     </g>
    </g>
    <g id="ytick_8">
     <g id="line2d_54">
      <path d="M 59.632849 319.947831 
L 427.187748 319.947831 
" clip-path="url(#p81331ab19f)" style="fill: none; stroke: #000000; stroke-opacity: 0.1; stroke-width: 0.5; stroke-linecap: square"/>
     </g>
     <g id="line2d_55">
      <g>
       <use xlink:href="#mb4b466547b" x="59.632849" y="319.947831" style="stroke: #000000; stroke-width: 0.5"/>
      </g>
     </g>
     <g id="line2d_56">
      <g>
       <use xlink:href="#m035a28ad6b" x="427.187748" y="319.947831" style="stroke: #000000; stroke-width: 0.5"/>
      </g>
     </g>
     <g id="text_21">
      <!-- $\mathregular{0.10}$ -->
      <g transform="translate(29.372849 324.506893)scale(0.12 -0.12)">
       <use xlink:href="#DejaVuSans-30" transform="translate(0 0.78125)"/>
       <use xlink:href="#DejaVuSans-2e" transform="translate(63.623047 0.78125)"/>
       <use xlink:href="#DejaVuSans-31" transform="translate(95.410156 0.78125)"/>
       <use xlink:href="#DejaVuSans-30" transform="translate(159.033203 0.78125)"/>
      </g>
     </g>
    </g>
    <g id="ytick_9">
     <g id="line2d_57">
      <path d="M 59.632849 286.241724 
L 427.187748 286.241724 
" clip-path="url(#p81331ab19f)" style="fill: none; stroke: #000000; stroke-opacity: 0.1; stroke-width: 0.5; stroke-linecap: square"/>
     </g>
     <g id="line2d_58">
      <g>
       <use xlink:href="#mb4b466547b" x="59.632849" y="286.241724" style="stroke: #000000; stroke-width: 0.5"/>
      </g>
     </g>
     <g id="line2d_59">
      <g>
       <use xlink:href="#m035a28ad6b" x="427.187748" y="286.241724" style="stroke: #000000; stroke-width: 0.5"/>
      </g>
     </g>
     <g id="text_22">
      <!-- $\mathregular{0.15}$ -->
      <g transform="translate(29.372849 290.800787)scale(0.12 -0.12)">
       <use xlink:href="#DejaVuSans-30" transform="translate(0 0.78125)"/>
       <use xlink:href="#DejaVuSans-2e" transform="translate(63.623047 0.78125)"/>
       <use xlink:href="#DejaVuSans-31" transform="translate(95.410156 0.78125)"/>
       <use xlink:href="#DejaVuSans-35" transform="translate(159.033203 0.78125)"/>
      </g>
     </g>
    </g>
    <g id="ytick_10">
     <g id="line2d_60">
      <path d="M 59.632849 252.535617 
L 427.187748 252.535617 
" clip-path="url(#p81331ab19f)" style="fill: none; stroke: #000000; stroke-opacity: 0.1; stroke-width: 0.5; stroke-linecap: square"/>
     </g>
     <g id="line2d_61">
      <g>
       <use xlink:href="#mb4b466547b" x="59.632849" y="252.535617" style="stroke: #000000; stroke-width: 0.5"/>
      </g>
     </g>
     <g id="line2d_62">
      <g>
       <use xlink:href="#m035a28ad6b" x="427.187748" y="252.535617" style="stroke: #000000; stroke-width: 0.5"/>
      </g>
     </g>
     <g id="text_23">
      <!-- $\mathregular{0.20}$ -->
      <g transform="translate(29.972849 257.09468)scale(0.12 -0.12)">
       <use xlink:href="#DejaVuSans-30" transform="translate(0 0.78125)"/>
       <use xlink:href="#DejaVuSans-2e" transform="translate(63.623047 0.78125)"/>
       <use xlink:href="#DejaVuSans-32" transform="translate(89.910156 0.78125)"/>
       <use xlink:href="#DejaVuSans-30" transform="translate(153.533203 0.78125)"/>
      </g>
     </g>
    </g>
    <g id="ytick_11">
     <g id="line2d_63">
      <path d="M 59.632849 218.829511 
L 427.187748 218.829511 
" clip-path="url(#p81331ab19f)" style="fill: none; stroke: #000000; stroke-opacity: 0.1; stroke-width: 0.5; stroke-linecap: square"/>
     </g>
     <g id="line2d_64">
      <g>
       <use xlink:href="#mb4b466547b" x="59.632849" y="218.829511" style="stroke: #000000; stroke-width: 0.5"/>
      </g>
     </g>
     <g id="line2d_65">
      <g>
       <use xlink:href="#m035a28ad6b" x="427.187748" y="218.829511" style="stroke: #000000; stroke-width: 0.5"/>
      </g>
     </g>
     <g id="text_24">
      <!-- $\mathregular{0.25}$ -->
      <g transform="translate(29.972849 223.388573)scale(0.12 -0.12)">
       <use xlink:href="#DejaVuSans-30" transform="translate(0 0.78125)"/>
       <use xlink:href="#DejaVuSans-2e" transform="translate(63.623047 0.78125)"/>
       <use xlink:href="#DejaVuSans-32" transform="translate(89.910156 0.78125)"/>
       <use xlink:href="#DejaVuSans-35" transform="translate(153.533203 0.78125)"/>
      </g>
     </g>
    </g>
    <g id="text_25">
     <!-- Y -->
     <g transform="translate(22.045349 301.60725)rotate(-90)scale(0.16 -0.16)">
      <use xlink:href="#DejaVuSans-59"/>
     </g>
    </g>
   </g>
   <g id="PathCollection_5">
    <g clip-path="url(#p81331ab19f)">
     <use xlink:href="#m8300952ace" x="70.035346" y="247.343976" style="fill-opacity: 0; stroke: #1f77b4"/>
     <use xlink:href="#m8300952ace" x="108.563113" y="248.22602" style="fill-opacity: 0; stroke: #1f77b4"/>
     <use xlink:href="#m8300952ace" x="147.09088" y="251.004682" style="fill-opacity: 0; stroke: #1f77b4"/>
     <use xlink:href="#m8300952ace" x="185.618648" y="257.382278" style="fill-opacity: 0; stroke: #1f77b4"/>
     <use xlink:href="#m8300952ace" x="224.146415" y="268.917011" style="fill-opacity: 0; stroke: #1f77b4"/>
     <use xlink:href="#m8300952ace" x="262.674182" y="284.461368" style="fill-opacity: 0; stroke: #1f77b4"/>
     <use xlink:href="#m8300952ace" x="301.201949" y="301.921628" style="fill-opacity: 0; stroke: #1f77b4"/>
     <use xlink:href="#m8300952ace" x="339.729716" y="319.48207" style="fill-opacity: 0; stroke: #1f77b4"/>
     <use xlink:href="#m8300952ace" x="378.257484" y="336.311278" style="fill-opacity: 0; stroke: #1f77b4"/>
     <use xlink:href="#m8300952ace" x="416.785251" y="351.969439" style="fill-opacity: 0; stroke: #1f77b4"/>
    </g>
   </g>
   <g id="PathCollection_6">
    <g clip-path="url(#p81331ab19f)">
     <use xlink:href="#mdae5950612" x="70.035346" y="387.355297" style="fill-opacity: 0; stroke: #d62728"/>
     <use xlink:href="#mdae5950612" x="108.563113" y="387.195352" style="fill-opacity: 0; stroke: #d62728"/>
     <use xlink:href="#mdae5950612" x="147.09088" y="385.332473" style="fill-opacity: 0; stroke: #d62728"/>
     <use xlink:href="#mdae5950612" x="185.618648" y="374.058604" style="fill-opacity: 0; stroke: #d62728"/>
     <use xlink:href="#mdae5950612" x="224.146415" y="345.396732" style="fill-opacity: 0; stroke: #d62728"/>
     <use xlink:href="#mdae5950612" x="262.674182" y="312.953663" style="fill-opacity: 0; stroke: #d62728"/>
     <use xlink:href="#mdae5950612" x="301.201949" y="280.05927" style="fill-opacity: 0; stroke: #d62728"/>
     <use xlink:href="#mdae5950612" x="339.729716" y="262.00172" style="fill-opacity: 0; stroke: #d62728"/>
     <use xlink:href="#mdae5950612" x="378.257484" y="267.81062" style="fill-opacity: 0; stroke: #d62728"/>
     <use xlink:href="#mdae5950612" x="416.785251" y="293.465991" style="fill-opacity: 0; stroke: #d62728"/>
    </g>
   </g>
   <g id="patch_8">
    <path d="M 59.632849 392.793354 
L 59.632849 200.648646 
" style="fill: none; stroke: #000000; stroke-linejoin: miter; stroke-linecap: square"/>
   </g>
   <g id="patch_9">
    <path d="M 427.187748 392.793354 
L 427.187748 200.648646 
" style="fill: none; stroke: #000000; stroke-linejoin: miter; stroke-linecap: square"/>
   </g>
   <g id="patch_10">
    <path d="M 59.632849 392.793354 
L 427.187748 392.793354 
" style="fill: none; stroke: #000000; stroke-linejoin: miter; stroke-linecap: square"/>
   </g>
   <g id="patch_11">
    <path d="M 59.632849 200.648646 
L 427.187748 200.648646 
" style="fill: none; stroke: #000000; stroke-linejoin: miter; stroke-linecap: square"/>
   </g>
   <g id="PathCollection_7">
    <g clip-path="url(#p81331ab19f)">
     <use xlink:href="#m16e93c3c1b" x="70.035346" y="381.779313" style="fill-opacity: 0; stroke: #e377c2"/>
     <use xlink:href="#m16e93c3c1b" x="108.563113" y="346.871551" style="fill-opacity: 0; stroke: #e377c2"/>
     <use xlink:href="#m16e93c3c1b" x="147.09088" y="257.004103" style="fill-opacity: 0; stroke: #e377c2"/>
     <use xlink:href="#m16e93c3c1b" x="185.618648" y="211.019851" style="fill-opacity: 0; stroke: #e377c2"/>
     <use xlink:href="#m16e93c3c1b" x="224.146415" y="316.922578" style="fill-opacity: 0; stroke: #e377c2"/>
     <use xlink:href="#m16e93c3c1b" x="262.674182" y="364.428786" style="fill-opacity: 0; stroke: #e377c2"/>
     <use xlink:href="#m16e93c3c1b" x="301.201949" y="380.180954" style="fill-opacity: 0; stroke: #e377c2"/>
     <use xlink:href="#m16e93c3c1b" x="339.729716" y="385.479557" style="fill-opacity: 0; stroke: #e377c2"/>
     <use xlink:href="#m16e93c3c1b" x="378.257484" y="386.894732" style="fill-opacity: 0; stroke: #e377c2"/>
     <use xlink:href="#m16e93c3c1b" x="416.785251" y="387.241474" style="fill-opacity: 0; stroke: #e377c2"/>
    </g>
   </g>
   <g id="PathCollection_8">
    <g clip-path="url(#p81331ab19f)">
     <use xlink:href="#m6ce862c830" x="70.035346" y="284.855995" style="fill-opacity: 0; stroke: #17becf"/>
     <use xlink:href="#m6ce862c830" x="108.563113" y="227.780231" style="fill-opacity: 0; stroke: #17becf"/>
     <use xlink:href="#m6ce862c830" x="147.09088" y="283.29548" style="fill-opacity: 0; stroke: #17becf"/>
     <use xlink:href="#m6ce862c830" x="185.618648" y="327.57087" style="fill-opacity: 0; stroke: #17becf"/>
     <use xlink:href="#m6ce862c830" x="224.146415" y="363.130145" style="fill-opacity: 0; stroke: #17becf"/>
     <use xlink:href="#m6ce862c830" x="262.674182" y="379.469273" style="fill-opacity: 0; stroke: #17becf"/>
     <use xlink:href="#m6ce862c830" x="301.201949" y="385.073792" style="fill-opacity: 0; stroke: #17becf"/>
     <use xlink:href="#m6ce862c830" x="339.729716" y="386.714705" style="fill-opacity: 0; stroke: #17becf"/>
     <use xlink:href="#m6ce862c830" x="378.257484" y="387.166202" style="fill-opacity: 0; stroke: #17becf"/>
     <use xlink:href="#m6ce862c830" x="416.785251" y="387.295497" style="fill-opacity: 0; stroke: #17becf"/>
    </g>
   </g>
   <g id="line2d_66">
    <path d="M 70.035346 247.520733 
L 73.53787 247.585226 
L 77.040395 247.660214 
L 80.542919 247.747348 
L 84.045443 247.84844 
L 87.547967 247.96437 
L 91.050492 248.096173 
L 94.553016 248.245647 
L 98.05554 248.413815 
L 101.558065 248.601009 
L 105.060589 248.808686 
L 108.563113 249.038116 
L 112.065637 249.289903 
L 115.568162 249.564337 
L 119.070686 249.862322 
L 122.57321 250.184555 
L 126.075735 250.531745 
L 129.578259 250.906007 
L 133.080783 251.309236 
L 136.583307 251.744253 
L 140.085832 252.211797 
L 143.588356 252.712813 
L 147.09088 253.25063 
L 150.593405 253.828257 
L 154.095929 254.447012 
L 157.598453 255.10672 
L 161.100978 255.809824 
L 164.603502 256.558875 
L 168.106026 257.353212 
L 171.60855 258.192545 
L 175.111075 259.078732 
L 178.613599 260.009923 
L 182.116123 260.984566 
L 185.618648 262.003558 
L 189.121172 263.062946 
L 192.623696 264.162696 
L 196.12622 265.300342 
L 199.628745 266.474105 
L 203.131269 267.682463 
L 206.633793 268.923349 
L 210.136318 270.195214 
L 213.638842 271.496814 
L 217.141366 272.82577 
L 220.64389 274.181945 
L 224.146415 275.562958 
L 227.648939 276.96764 
L 231.151463 278.395053 
L 234.653988 279.843321 
L 238.156512 281.3109 
L 241.659036 282.79693 
L 245.161561 284.2993 
L 248.664085 285.816886 
L 252.166609 287.347674 
L 255.669133 288.890401 
L 259.171658 290.443511 
L 262.674182 292.005432 
L 266.176706 293.574774 
L 269.679231 295.149966 
L 273.181755 296.729774 
L 276.684279 298.312812 
L 280.186803 299.89795 
L 283.689328 301.484055 
L 287.191852 303.070001 
L 290.694376 304.65504 
L 294.196901 306.238223 
L 297.699425 307.818928 
L 301.201949 309.396329 
L 304.704473 310.969875 
L 308.206998 312.539134 
L 311.709522 314.103508 
L 315.212046 315.662714 
L 318.714571 317.216249 
L 322.217095 318.763962 
L 325.719619 320.30549 
L 329.222144 321.840629 
L 332.724668 323.369176 
L 336.227192 324.890941 
L 339.729716 326.405744 
L 343.232241 327.913463 
L 346.734765 329.413959 
L 350.237289 330.907096 
L 353.739814 332.392738 
L 357.242338 333.870753 
L 360.744862 335.340997 
L 364.247386 336.803308 
L 367.749911 338.257508 
L 371.252435 339.703414 
L 374.754959 341.140824 
L 378.257484 342.569472 
L 381.760008 343.989113 
L 385.262532 345.399412 
L 388.765056 346.800045 
L 392.267581 348.190628 
L 395.770105 349.570733 
L 399.272629 350.939899 
L 402.775154 352.29762 
L 406.277678 353.643351 
L 409.780202 354.976499 
L 413.282727 356.296435 
L 416.785251 357.602488 
" clip-path="url(#p81331ab19f)" style="fill: none; stroke-dasharray: 7.4,3.2; stroke-dashoffset: 0; stroke: #1f77b4; stroke-width: 2"/>
   </g>
   <g id="line2d_67">
    <path d="M 70.035346 387.343577 
L 73.53787 387.336889 
L 77.040395 387.327671 
L 80.542919 387.315112 
L 84.045443 387.298153 
L 87.547967 387.275396 
L 91.050492 387.245155 
L 94.553016 387.20537 
L 98.05554 387.153795 
L 101.558065 387.088091 
L 105.060589 387.004939 
L 108.563113 386.900364 
L 112.065637 386.770823 
L 115.568162 386.613519 
L 119.070686 386.422855 
L 122.57321 386.19224 
L 126.075735 385.914604 
L 129.578259 385.584184 
L 133.080783 385.192835 
L 136.583307 384.732279 
L 140.085832 384.190601 
L 143.588356 383.554939 
L 147.09088 382.815188 
L 150.593405 381.961926 
L 154.095929 380.982549 
L 157.598453 379.861881 
L 161.100978 378.592636 
L 164.603502 377.171028 
L 168.106026 375.589169 
L 171.60855 373.844659 
L 175.111075 371.943458 
L 178.613599 369.890128 
L 182.116123 367.694674 
L 185.618648 365.37137 
L 189.121172 362.93748 
L 192.623696 360.409706 
L 196.12622 357.807544 
L 199.628745 355.147554 
L 203.131269 352.444134 
L 206.633793 349.708909 
L 210.136318 346.949587 
L 213.638842 344.169243 
L 217.141366 341.372134 
L 220.64389 338.554162 
L 224.146415 335.716432 
L 227.648939 332.856137 
L 231.151463 329.969673 
L 234.653988 327.055833 
L 238.156512 324.112856 
L 241.659036 321.137972 
L 245.161561 318.131766 
L 248.664085 315.093647 
L 252.166609 312.025818 
L 255.669133 308.930048 
L 259.171658 305.809896 
L 262.674182 302.670117 
L 266.176706 299.516298 
L 269.679231 296.355469 
L 273.181755 293.195043 
L 276.684279 290.043642 
L 280.186803 286.910226 
L 283.689328 283.804487 
L 287.191852 280.736768 
L 290.694376 277.717221 
L 294.196901 274.75694 
L 297.699425 271.866806 
L 301.201949 269.058569 
L 304.704473 266.343771 
L 308.206998 263.734022 
L 311.709522 261.24158 
L 315.212046 258.878228 
L 318.714571 256.656393 
L 322.217095 254.587789 
L 325.719619 252.684603 
L 329.222144 250.95856 
L 332.724668 249.421176 
L 336.227192 248.08361 
L 339.729716 246.956542 
L 343.232241 246.049922 
L 346.734765 245.372976 
L 350.237289 244.934006 
L 353.739814 244.7402 
L 357.242338 244.797456 
L 360.744862 245.110204 
L 364.247386 245.681242 
L 367.749911 246.511538 
L 371.252435 247.600047 
L 374.754959 248.9436 
L 378.257484 250.536847 
L 381.760008 252.372083 
L 385.262532 254.439369 
L 388.765056 256.726468 
L 392.267581 259.219038 
L 395.770105 261.900796 
L 399.272629 264.753764 
L 402.775154 267.758593 
L 406.277678 270.894927 
L 409.780202 274.141804 
L 413.282727 277.478077 
L 416.785251 280.882847 
" clip-path="url(#p81331ab19f)" style="fill: none; stroke-dasharray: 7.4,3.2; stroke-dashoffset: 0; stroke: #d62728; stroke-width: 2"/>
   </g>
   <g id="line2d_68">
    <path d="M 70.035346 375.283092 
L 73.53787 372.7696 
L 77.040395 369.804635 
L 80.542919 366.314239 
L 84.045443 362.2187 
L 87.547967 357.500697 
L 91.050492 352.140176 
L 94.553016 346.078143 
L 98.05554 339.315191 
L 101.558065 331.909566 
L 105.060589 323.862009 
L 108.563113 315.203669 
L 112.065637 306.034017 
L 115.568162 296.502511 
L 119.070686 286.745238 
L 122.57321 276.950871 
L 126.075735 267.34901 
L 129.578259 258.095723 
L 133.080783 249.391715 
L 136.583307 241.37013 
L 140.085832 234.39831 
L 143.588356 228.839969 
L 147.09088 224.726316 
L 150.593405 222.052143 
L 154.095929 221.005202 
L 157.598453 221.909435 
L 161.100978 224.565752 
L 164.603502 228.714419 
L 168.106026 234.387902 
L 171.60855 241.449887 
L 175.111075 249.546474 
L 178.613599 258.519826 
L 182.116123 268.128202 
L 185.618648 278.060533 
L 189.121172 288.065482 
L 192.623696 297.879639 
L 196.12622 307.253784 
L 199.628745 316.00111 
L 203.131269 323.982084 
L 206.633793 331.126333 
L 210.136318 337.42041 
L 213.638842 342.917768 
L 217.141366 347.668564 
L 220.64389 351.786734 
L 224.146415 355.344491 
L 227.648939 358.428075 
L 231.151463 361.117148 
L 234.653988 363.471176 
L 238.156512 365.543761 
L 241.659036 367.384177 
L 245.161561 369.028791 
L 248.664085 370.510166 
L 252.166609 371.852558 
L 255.669133 373.078169 
L 259.171658 374.203494 
L 262.674182 375.241978 
L 266.176706 376.203939 
L 269.679231 377.09747 
L 273.181755 377.928915 
L 276.684279 378.703259 
L 280.186803 379.424478 
L 283.689328 380.095898 
L 287.191852 380.72024 
L 290.694376 381.300181 
L 294.196901 381.837938 
L 297.699425 382.3357 
L 301.201949 382.795468 
L 304.704473 383.21935 
L 308.206998 383.609313 
L 311.709522 383.967288 
L 315.212046 384.29525 
L 318.714571 384.595029 
L 322.217095 384.868537 
L 325.719619 385.117562 
L 329.222144 385.343851 
L 332.724668 385.549105 
L 336.227192 385.734953 
L 339.729716 385.902933 
L 343.232241 386.05453 
L 346.734765 386.19114 
L 350.237289 386.314073 
L 353.739814 386.424559 
L 357.242338 386.523743 
L 360.744862 386.612689 
L 364.247386 386.692379 
L 367.749911 386.763718 
L 371.252435 386.827537 
L 374.754959 386.884595 
L 378.257484 386.935582 
L 381.760008 386.981127 
L 385.262532 387.021795 
L 388.765056 387.058099 
L 392.267581 387.0905 
L 395.770105 387.119414 
L 399.272629 387.145209 
L 402.775154 387.16822 
L 406.277678 387.188742 
L 409.780202 387.207042 
L 413.282727 387.223355 
L 416.785251 387.237895 
" clip-path="url(#p81331ab19f)" style="fill: none; stroke-dasharray: 7.4,3.2; stroke-dashoffset: 0; stroke: #e377c2; stroke-width: 2"/>
   </g>
   <g id="line2d_69">
    <path d="M 70.035346 246.437536 
L 73.53787 237.932347 
L 77.040395 229.896381 
L 80.542919 222.664083 
L 84.045443 216.630946 
L 87.547967 211.804021 
L 91.050492 208.244395 
L 94.553016 206.33599 
L 98.05554 206.086703 
L 101.558065 207.133737 
L 105.060589 209.696078 
L 108.563113 213.93925 
L 112.065637 219.508845 
L 115.568162 225.580022 
L 119.070686 232.062707 
L 122.57321 238.81848 
L 126.075735 245.59968 
L 129.578259 252.135361 
L 133.080783 258.38833 
L 136.583307 264.469567 
L 140.085832 270.260176 
L 143.588356 275.699084 
L 147.09088 281.010431 
L 150.593405 286.226134 
L 154.095929 291.307832 
L 157.598453 296.186921 
L 161.100978 301.0068 
L 164.603502 305.794734 
L 168.106026 310.500477 
L 171.60855 315.144504 
L 175.111075 319.751901 
L 178.613599 324.267299 
L 182.116123 328.690067 
L 185.618648 333.004553 
L 189.121172 337.158218 
L 192.623696 341.156702 
L 196.12622 344.955729 
L 199.628745 348.556983 
L 203.131269 351.934168 
L 206.633793 355.09268 
L 210.136318 358.02044 
L 213.638842 360.730107 
L 217.141366 363.219343 
L 220.64389 365.504954 
L 224.146415 367.596575 
L 227.648939 369.50428 
L 231.151463 371.24368 
L 234.653988 372.827312 
L 238.156512 374.265668 
L 241.659036 375.572363 
L 245.161561 376.757652 
L 248.664085 377.832554 
L 252.166609 378.80554 
L 255.669133 379.68593 
L 259.171658 380.481705 
L 262.674182 381.200315 
L 266.176706 381.848502 
L 269.679231 382.432438 
L 273.181755 382.957875 
L 276.684279 383.430067 
L 280.186803 383.853873 
L 283.689328 384.233785 
L 287.191852 384.573884 
L 290.694376 384.878106 
L 294.196901 385.149876 
L 297.699425 385.392443 
L 301.201949 385.608696 
L 304.704473 385.801366 
L 308.206998 385.972883 
L 311.709522 386.125451 
L 315.212046 386.261099 
L 318.714571 386.381616 
L 322.217095 386.488664 
L 325.719619 386.583708 
L 329.222144 386.668069 
L 332.724668 386.742935 
L 336.227192 386.80937 
L 339.729716 386.868316 
L 343.232241 386.920625 
L 346.734765 386.967051 
L 350.237289 387.008265 
L 353.739814 387.044863 
L 357.242338 387.077376 
L 360.744862 387.106275 
L 364.247386 387.131976 
L 367.749911 387.15485 
L 371.252435 387.175223 
L 374.754959 387.193385 
L 378.257484 387.209592 
L 381.760008 387.22407 
L 385.262532 387.237017 
L 388.765056 387.248611 
L 392.267581 387.259006 
L 395.770105 387.268338 
L 399.272629 387.276729 
L 402.775154 387.284283 
L 406.277678 387.291095 
L 409.780202 387.297245 
L 413.282727 387.302806 
L 416.785251 387.307842 
" clip-path="url(#p81331ab19f)" style="fill: none; stroke-dasharray: 7.4,3.2; stroke-dashoffset: 0; stroke: #17becf; stroke-width: 2"/>
   </g>
   <g id="line2d_70">
    <path d="M 70.035346 247.358573 
L 73.53787 247.395979 
L 77.040395 247.439566 
L 80.542919 247.490251 
L 84.045443 247.549189 
L 87.547967 247.617675 
L 91.050492 247.697139 
L 94.553016 247.788328 
L 98.05554 247.89194 
L 101.558065 248.009381 
L 105.060589 248.141602 
L 108.563113 248.288765 
L 112.065637 248.45201 
L 115.568162 248.632407 
L 119.070686 248.8307 
L 122.57321 249.047175 
L 126.075735 249.282623 
L 129.578259 249.537805 
L 133.080783 249.814326 
L 136.583307 250.114004 
L 140.085832 250.437755 
L 143.588356 250.787887 
L 147.09088 251.166663 
L 150.593405 251.575117 
L 154.095929 252.016221 
L 157.598453 252.491656 
L 161.100978 253.00307 
L 164.603502 253.553311 
L 168.106026 254.143133 
L 171.60855 254.775285 
L 175.111075 255.450057 
L 178.613599 256.169499 
L 182.116123 256.933249 
L 185.618648 257.742556 
L 189.121172 258.596175 
L 192.623696 259.494828 
L 196.12622 260.436278 
L 199.628745 261.421098 
L 203.131269 262.446578 
L 206.633793 263.512674 
L 210.136318 264.618117 
L 213.638842 265.761038 
L 217.141366 266.941246 
L 220.64389 268.157702 
L 224.146415 269.4085 
L 227.648939 270.692875 
L 231.151463 272.009847 
L 234.653988 273.358013 
L 238.156512 274.735271 
L 241.659036 276.140234 
L 245.161561 277.571172 
L 248.664085 279.02628 
L 252.166609 280.503966 
L 255.669133 282.001759 
L 259.171658 283.518417 
L 262.674182 285.051218 
L 266.176706 286.599077 
L 269.679231 288.15941 
L 273.181755 289.731197 
L 276.684279 291.312197 
L 280.186803 292.901363 
L 283.689328 294.496895 
L 287.191852 296.097625 
L 290.694376 297.702213 
L 294.196901 299.309287 
L 297.699425 300.918065 
L 301.201949 302.527597 
L 304.704473 304.136999 
L 308.206998 305.745276 
L 311.709522 307.351876 
L 315.212046 308.956214 
L 318.714571 310.557438 
L 322.217095 312.155339 
L 325.719619 313.749019 
L 329.222144 315.338473 
L 332.724668 316.922827 
L 336.227192 318.502039 
L 339.729716 320.075515 
L 343.232241 321.642929 
L 346.734765 323.204093 
L 350.237289 324.758511 
L 353.739814 326.305892 
L 357.242338 327.845963 
L 360.744862 329.378409 
L 364.247386 330.902944 
L 367.749911 332.419248 
L 371.252435 333.92702 
L 374.754959 335.425938 
L 378.257484 336.915677 
L 381.760008 338.395903 
L 385.262532 339.866347 
L 388.765056 341.326584 
L 392.267581 342.77632 
L 395.770105 344.215118 
L 399.272629 345.642642 
L 402.775154 347.058448 
L 406.277678 348.462098 
L 409.780202 349.85315 
L 413.282727 351.231125 
L 416.785251 352.595497 
" clip-path="url(#p81331ab19f)" style="fill: none; stroke: #1f77b4"/>
   </g>
   <g id="line2d_71">
    <path d="M 70.035346 387.355291 
L 73.53787 387.353358 
L 77.040395 387.350606 
L 80.542919 387.346742 
L 84.045443 387.341402 
L 87.547967 387.334111 
L 91.050492 387.32424 
L 94.553016 387.310943 
L 98.05554 387.293177 
L 101.558065 387.269682 
L 105.060589 387.238983 
L 108.563113 387.19951 
L 112.065637 387.149089 
L 115.568162 387.085053 
L 119.070686 387.004373 
L 122.57321 386.904409 
L 126.075735 386.780945 
L 129.578259 386.628677 
L 133.080783 386.442089 
L 136.583307 386.214552 
L 140.085832 385.937098 
L 143.588356 385.600522 
L 147.09088 385.194001 
L 150.593405 384.703541 
L 154.095929 384.117059 
L 157.598453 383.418628 
L 161.100978 382.591822 
L 164.603502 381.623989 
L 168.106026 380.496724 
L 171.60855 379.202916 
L 175.111075 377.728958 
L 178.613599 376.076249 
L 182.116123 374.24274 
L 185.618648 372.241615 
L 189.121172 370.086387 
L 192.623696 367.801811 
L 196.12622 365.414711 
L 199.628745 362.953455 
L 203.131269 360.44786 
L 206.633793 357.91831 
L 210.136318 355.378421 
L 213.638842 352.837205 
L 217.141366 350.288054 
L 220.64389 347.722867 
L 224.146415 345.133756 
L 227.648939 342.50769 
L 231.151463 339.83415 
L 234.653988 337.105838 
L 238.156512 334.318929 
L 241.659036 331.469954 
L 245.161561 328.558569 
L 248.664085 325.586724 
L 252.166609 322.558371 
L 255.669133 319.481012 
L 259.171658 316.362081 
L 262.674182 313.213512 
L 266.176706 310.045959 
L 269.679231 306.874335 
L 273.181755 303.711762 
L 276.684279 300.574672 
L 280.186803 297.477754 
L 283.689328 294.437583 
L 287.191852 291.469562 
L 290.694376 288.589273 
L 294.196901 285.812107 
L 297.699425 283.151504 
L 301.201949 280.620581 
L 304.704473 278.231522 
L 308.206998 275.995845 
L 311.709522 273.923006 
L 315.212046 272.021546 
L 318.714571 270.299599 
L 322.217095 268.762732 
L 325.719619 267.417145 
L 329.222144 266.266004 
L 332.724668 265.313494 
L 336.227192 264.561119 
L 339.729716 264.010715 
L 343.232241 263.662762 
L 346.734765 263.516774 
L 350.237289 263.572078 
L 353.739814 263.826933 
L 357.242338 264.278883 
L 360.744862 264.924846 
L 364.247386 265.760999 
L 367.749911 266.782826 
L 371.252435 267.985029 
L 374.754959 269.36154 
L 378.257484 270.905472 
L 381.760008 272.609086 
L 385.262532 274.463769 
L 388.765056 276.460082 
L 392.267581 278.587706 
L 395.770105 280.835499 
L 399.272629 283.191574 
L 402.775154 285.64336 
L 406.277678 288.177743 
L 409.780202 290.781258 
L 413.282727 293.440272 
L 416.785251 296.141216 
" clip-path="url(#p81331ab19f)" style="fill: none; stroke: #d62728"/>
   </g>
   <g id="line2d_72">
    <path d="M 70.035346 380.936438 
L 73.53787 379.524725 
L 77.040395 377.850264 
L 80.542919 375.872557 
L 84.045443 373.539185 
L 87.547967 370.791632 
L 91.050492 367.566439 
L 94.553016 363.844356 
L 98.05554 359.613727 
L 101.558065 354.825483 
L 105.060589 349.464962 
L 108.563113 343.574621 
L 112.065637 337.145823 
L 115.568162 330.185585 
L 119.070686 322.736145 
L 122.57321 314.888855 
L 126.075735 306.721781 
L 129.578259 298.340017 
L 133.080783 289.824072 
L 136.583307 281.271048 
L 140.085832 272.87474 
L 143.588356 264.755937 
L 147.09088 257.070929 
L 150.593405 250.1172 
L 154.095929 244.00497 
L 157.598453 239.003645 
L 161.100978 235.374021 
L 164.603502 233.181734 
L 168.106026 232.745342 
L 171.60855 233.994333 
L 175.111075 237.134136 
L 178.613599 241.987216 
L 182.116123 248.564479 
L 185.618648 256.562418 
L 189.121172 265.781265 
L 192.623696 275.792243 
L 196.12622 286.238821 
L 199.628745 296.661716 
L 203.131269 306.676414 
L 206.633793 315.958886 
L 210.136318 324.314644 
L 213.638842 331.624943 
L 217.141366 337.94771 
L 220.64389 343.377493 
L 224.146415 348.020568 
L 227.648939 352.025332 
L 231.151463 355.511668 
L 234.653988 358.570546 
L 238.156512 361.270665 
L 241.659036 363.676182 
L 245.161561 365.834457 
L 248.664085 367.784389 
L 252.166609 369.555152 
L 255.669133 371.169521 
L 259.171658 372.647534 
L 262.674182 374.002364 
L 266.176706 375.247674 
L 269.679231 376.391713 
L 273.181755 377.443639 
L 276.684279 378.409502 
L 280.186803 379.29552 
L 283.689328 380.106864 
L 287.191852 380.848097 
L 290.694376 381.523924 
L 294.196901 382.13818 
L 297.699425 382.695314 
L 301.201949 383.19952 
L 304.704473 383.654488 
L 308.206998 384.063879 
L 311.709522 384.431554 
L 315.212046 384.760993 
L 318.714571 385.055375 
L 322.217095 385.318153 
L 325.719619 385.552032 
L 329.222144 385.760058 
L 332.724668 385.944634 
L 336.227192 386.108318 
L 339.729716 386.253212 
L 343.232241 386.381369 
L 346.734765 386.494656 
L 350.237289 386.594692 
L 353.739814 386.682979 
L 357.242338 386.760874 
L 360.744862 386.829583 
L 364.247386 386.89018 
L 367.749911 386.94362 
L 371.252435 386.990754 
L 374.754959 387.032334 
L 378.257484 387.069024 
L 381.760008 387.101411 
L 385.262532 387.130017 
L 388.765056 387.155292 
L 392.267581 387.177638 
L 395.770105 387.197404 
L 399.272629 387.2149 
L 402.775154 387.230393 
L 406.277678 387.24412 
L 409.780202 387.256289 
L 413.282727 387.267082 
L 416.785251 387.276658 
" clip-path="url(#p81331ab19f)" style="fill: none; stroke: #e377c2"/>
   </g>
   <g id="line2d_73">
    <path d="M 70.035346 291.237416 
L 73.53787 284.47867 
L 77.040395 277.755618 
L 80.542919 271.203277 
L 84.045443 265.037024 
L 87.547967 259.521512 
L 91.050492 254.970892 
L 94.553016 251.413143 
L 98.05554 248.841988 
L 101.558065 247.548807 
L 105.060589 247.594014 
L 108.563113 248.595419 
L 112.065637 250.681466 
L 115.568162 253.963326 
L 119.070686 258.334851 
L 122.57321 263.071173 
L 126.075735 267.991194 
L 129.578259 272.970616 
L 133.080783 277.881374 
L 136.583307 282.643145 
L 140.085832 287.151482 
L 143.588356 291.480466 
L 147.09088 295.694981 
L 150.593405 299.710888 
L 154.095929 303.621544 
L 157.598453 307.418027 
L 161.100978 311.08489 
L 164.603502 314.701163 
L 168.106026 318.224631 
L 171.60855 321.725707 
L 175.111075 325.178177 
L 178.613599 328.622293 
L 182.116123 332.036697 
L 185.618648 335.43602 
L 189.121172 338.790318 
L 192.623696 342.099284 
L 196.12622 345.321279 
L 199.628745 348.453902 
L 203.131269 351.454223 
L 206.633793 354.317761 
L 210.136318 357.02739 
L 213.638842 359.566759 
L 217.141366 361.941765 
L 220.64389 364.152778 
L 224.146415 366.197796 
L 227.648939 368.088215 
L 231.151463 369.834267 
L 234.653988 371.443685 
L 238.156512 372.922162 
L 241.659036 374.279647 
L 245.161561 375.524449 
L 248.664085 376.664816 
L 252.166609 377.707515 
L 255.669133 378.659195 
L 259.171658 379.526656 
L 262.674182 380.315302 
L 266.176706 381.031717 
L 269.679231 381.680733 
L 273.181755 382.268217 
L 276.684279 382.798794 
L 280.186803 383.277388 
L 283.689328 383.7084 
L 287.191852 384.095902 
L 290.694376 384.44387 
L 294.196901 384.755728 
L 297.699425 385.035016 
L 301.201949 385.284997 
L 304.704473 385.508434 
L 308.206998 385.707885 
L 311.709522 385.88591 
L 315.212046 386.044703 
L 318.714571 386.186172 
L 322.217095 386.31229 
L 325.719619 386.424555 
L 329.222144 386.524574 
L 332.724668 386.613582 
L 336.227192 386.692853 
L 339.729716 386.763405 
L 343.232241 386.826215 
L 346.734765 386.882156 
L 350.237289 386.931969 
L 353.739814 386.976338 
L 357.242338 387.015875 
L 360.744862 387.051117 
L 364.247386 387.082544 
L 367.749911 387.110581 
L 371.252435 387.135607 
L 374.754959 387.157958 
L 378.257484 387.177931 
L 381.760008 387.195791 
L 385.262532 387.211776 
L 388.765056 387.226091 
L 392.267581 387.238924 
L 395.770105 387.250436 
L 399.272629 387.260775 
L 402.775154 387.270069 
L 406.277678 387.278433 
L 409.780202 387.285967 
L 413.282727 387.292762 
L 416.785251 387.298897 
" clip-path="url(#p81331ab19f)" style="fill: none; stroke: #17becf"/>
   </g>
   <g id="text_26">
    <!-- $C_{10}H_{16}$ -->
    <g style="fill: #1f77b4" transform="translate(206.581732 256.398742)scale(0.14 -0.14)">
     <use xlink:href="#DejaVuSans-Oblique-43" transform="translate(0 0.78125)"/>
     <use xlink:href="#DejaVuSans-31" transform="translate(69.824219 -15.625)scale(0.7)"/>
     <use xlink:href="#DejaVuSans-30" transform="translate(114.360352 -15.625)scale(0.7)"/>
     <use xlink:href="#DejaVuSans-Oblique-48" transform="translate(161.630859 0.78125)"/>
     <use xlink:href="#DejaVuSans-31" transform="translate(236.826172 -15.625)scale(0.7)"/>
     <use xlink:href="#DejaVuSans-36" transform="translate(281.362305 -15.625)scale(0.7)"/>
    </g>
   </g>
   <g id="text_27">
    <!-- $50 \, C_5H_5$ -->
    <g style="fill: #d62728" transform="translate(320.55527 290.104849)scale(0.14 -0.14)">
     <use xlink:href="#DejaVuSans-35" transform="translate(0 0.78125)"/>
     <use xlink:href="#DejaVuSans-30" transform="translate(63.623047 0.78125)"/>
     <use xlink:href="#DejaVuSans-Oblique-43" transform="translate(143.48177 0.78125)"/>
     <use xlink:href="#DejaVuSans-35" transform="translate(213.305989 -15.625)scale(0.7)"/>
     <use xlink:href="#DejaVuSans-Oblique-48" transform="translate(260.576497 0.78125)"/>
     <use xlink:href="#DejaVuSans-35" transform="translate(335.771809 -15.625)scale(0.7)"/>
    </g>
   </g>
   <g id="text_28">
    <!-- $2\times10^3 \, CH_3$ -->
    <g style="fill: #e377c2" transform="translate(168.765308 307.813215)scale(0.14 -0.14)">
     <use xlink:href="#DejaVuSans-32" transform="translate(0 0.765625)"/>
     <use xlink:href="#DejaVuSans-d7" transform="translate(83.105469 0.765625)"/>
     <use xlink:href="#DejaVuSans-31" transform="translate(186.376953 0.765625)"/>
     <use xlink:href="#DejaVuSans-30" transform="translate(250 0.765625)"/>
     <use xlink:href="#DejaVuSans-33" transform="translate(314.580078 39.046875)scale(0.7)"/>
     <use xlink:href="#DejaVuSans-Oblique-43" transform="translate(378.086262 0.765625)"/>
     <use xlink:href="#DejaVuSans-Oblique-48" transform="translate(447.910481 0.765625)"/>
     <use xlink:href="#DejaVuSans-33" transform="translate(523.105793 -15.640625)scale(0.7)"/>
    </g>
   </g>
   <g id="text_29">
    <!-- $10^5 \, H$ -->
    <g style="fill: #17becf" transform="translate(84.433696 276.622406)scale(0.14 -0.14)">
     <use xlink:href="#DejaVuSans-31" transform="translate(0 0.684375)"/>
     <use xlink:href="#DejaVuSans-30" transform="translate(63.623047 0.684375)"/>
     <use xlink:href="#DejaVuSans-35" transform="translate(128.203125 38.965625)scale(0.7)"/>
     <use xlink:href="#DejaVuSans-Oblique-48" transform="translate(191.709309 0.684375)"/>
    </g>
   </g>
   <g id="text_30">
    <!-- Validation Set #21 -->
    <g transform="translate(291.706781 215.951414)scale(0.14 -0.14)">
     <defs>
      <path id="DejaVuSans-56" d="M 1831 0 
L 50 4666 
L 709 4666 
L 2188 738 
L 3669 4666 
L 4325 4666 
L 2547 0 
L 1831 0 
z
" transform="scale(0.015625)"/>
      <path id="DejaVuSans-6c" d="M 603 4863 
L 1178 4863 
L 1178 0 
L 603 0 
L 603 4863 
z
" transform="scale(0.015625)"/>
      <path id="DejaVuSans-64" d="M 2906 2969 
L 2906 4863 
L 3481 4863 
L 3481 0 
L 2906 0 
L 2906 525 
Q 2725 213 2448 61 
Q 2172 -91 1784 -91 
Q 1150 -91 751 415 
Q 353 922 353 1747 
Q 353 2572 751 3078 
Q 1150 3584 1784 3584 
Q 2172 3584 2448 3432 
Q 2725 3281 2906 2969 
z
M 947 1747 
Q 947 1113 1208 752 
Q 1469 391 1925 391 
Q 2381 391 2643 752 
Q 2906 1113 2906 1747 
Q 2906 2381 2643 2742 
Q 2381 3103 1925 3103 
Q 1469 3103 1208 2742 
Q 947 2381 947 1747 
z
" transform="scale(0.015625)"/>
      <path id="DejaVuSans-6f" d="M 1959 3097 
Q 1497 3097 1228 2736 
Q 959 2375 959 1747 
Q 959 1119 1226 758 
Q 1494 397 1959 397 
Q 2419 397 2687 759 
Q 2956 1122 2956 1747 
Q 2956 2369 2687 2733 
Q 2419 3097 1959 3097 
z
M 1959 3584 
Q 2709 3584 3137 3096 
Q 3566 2609 3566 1747 
Q 3566 888 3137 398 
Q 2709 -91 1959 -91 
Q 1206 -91 779 398 
Q 353 888 353 1747 
Q 353 2609 779 3096 
Q 1206 3584 1959 3584 
z
" transform="scale(0.015625)"/>
     </defs>
     <use xlink:href="#DejaVuSans-56"/>
     <use xlink:href="#DejaVuSans-61" x="60.658203"/>
     <use xlink:href="#DejaVuSans-6c" x="121.9375"/>
     <use xlink:href="#DejaVuSans-69" x="149.720703"/>
     <use xlink:href="#DejaVuSans-64" x="177.503906"/>
     <use xlink:href="#DejaVuSans-61" x="240.980469"/>
     <use xlink:href="#DejaVuSans-74" x="302.259766"/>
     <use xlink:href="#DejaVuSans-69" x="341.46875"/>
     <use xlink:href="#DejaVuSans-6f" x="369.251953"/>
     <use xlink:href="#DejaVuSans-6e" x="430.433594"/>
     <use xlink:href="#DejaVuSans-20" x="493.8125"/>
     <use xlink:href="#DejaVuSans-53" x="525.599609"/>
     <use xlink:href="#DejaVuSans-65" x="589.076172"/>
     <use xlink:href="#DejaVuSans-74" x="650.599609"/>
     <use xlink:href="#DejaVuSans-20" x="689.808594"/>
     <use xlink:href="#DejaVuSans-23" x="721.595703"/>
     <use xlink:href="#DejaVuSans-32" x="805.384766"/>
     <use xlink:href="#DejaVuSans-31" x="869.007812"/>
    </g>
   </g>
  </g>
 </g>
 <defs>
  <clipPath id="pcfa9d2252a">
   <rect x="59.632849" y="2.834646" width="367.554899" height="192.144709"/>
  </clipPath>
  <clipPath id="p81331ab19f">
   <rect x="59.632849" y="200.648646" width="367.554899" height="192.144709"/>
  </clipPath>
 </defs>
</svg>
