<?xml version="1.0" encoding="utf-8" standalone="no"?>
<!DOCTYPE svg PUBLIC "-//W3C//DTD SVG 1.1//EN"
  "http://www.w3.org/Graphics/SVG/1.1/DTD/svg11.dtd">
<svg xmlns:xlink="http://www.w3.org/1999/xlink" width="324pt" height="216pt" viewBox="0 0 324 216" xmlns="http://www.w3.org/2000/svg" version="1.1">
 <metadata>
  <rdf:RDF xmlns:dc="http://purl.org/dc/elements/1.1/" xmlns:cc="http://creativecommons.org/ns#" xmlns:rdf="http://www.w3.org/1999/02/22-rdf-syntax-ns#">
   <cc:Work>
    <dc:type rdf:resource="http://purl.org/dc/dcmitype/StillImage"/>
    <dc:date>2023-02-06T16:30:25.799688</dc:date>
    <dc:format>image/svg+xml</dc:format>
    <dc:creator>
     <cc:Agent>
      <dc:title>Matplotlib v3.5.3, https://matplotlib.org/</dc:title>
     </cc:Agent>
    </dc:creator>
   </cc:Work>
  </rdf:RDF>
 </metadata>
 <defs>
  <style type="text/css">*{stroke-linejoin: round; stroke-linecap: butt}</style>
 </defs>
 <g id="figure_1">
  <g id="patch_1">
   <path d="M 0 216 
L 324 216 
L 324 0 
L 0 0 
z
" style="fill: #ffffff"/>
  </g>
  <g id="axes_1">
   <g id="patch_2">
    <path d="M 51.84 181.44 
L 291.6 181.44 
L 291.6 8.64 
L 51.84 8.64 
z
" style="fill: #ffffff"/>
   </g>
   <g id="PolyCollection_1">
    <path d="M 79.459089 155.024798 
L 65.832151 155.024798 
L 65.528995 154.002962 
L 65.235259 153.015212 
L 64.952608 152.059347 
L 64.682591 151.133374 
L 64.426625 150.235478 
L 64.185981 149.364008 
L 63.961772 148.517452 
L 63.754946 147.694424 
L 63.566284 146.893654 
L 63.396402 146.113968 
L 63.245751 145.354284 
L 63.11463 144.613602 
L 63.003191 143.890995 
L 62.911455 143.185601 
L 62.839327 142.496619 
L 62.786608 141.823303 
L 62.753012 141.164956 
L 62.738182 140.520927 
L 62.741705 139.890607 
L 62.763123 139.273424 
L 62.801948 138.668841 
L 62.857668 138.076355 
L 62.929756 137.495491 
L 63.017675 136.925801 
L 63.120878 136.366864 
L 63.238812 135.818282 
L 63.370912 135.279677 
L 63.5166 134.750694 
L 63.675281 134.230994 
L 63.846331 133.720257 
L 64.029102 133.21818 
L 64.222904 132.724474 
L 64.427009 132.238863 
L 64.640641 131.761087 
L 64.862976 131.290898 
L 65.093139 130.828057 
L 65.330202 130.372339 
L 65.573193 129.923528 
L 65.821092 129.481417 
L 66.07284 129.045809 
L 66.32735 128.616517 
L 66.583509 128.193359 
L 66.840193 127.776162 
L 67.096277 127.364762 
L 67.350645 126.958998 
L 67.602204 126.558719 
L 67.849893 126.163779 
L 68.092698 125.774036 
L 68.329657 125.389356 
L 68.559877 125.009609 
L 68.782536 124.63467 
L 68.996894 124.264419 
L 69.202299 123.89874 
L 69.39819 123.537521 
L 69.584098 123.180656 
L 69.759653 122.82804 
L 69.924579 122.479573 
L 70.078694 122.135159 
L 70.221908 121.794704 
L 70.354216 121.458119 
L 70.475696 121.125317 
L 70.5865 120.796213 
L 70.68685 120.470727 
L 70.777026 120.148779 
L 70.857363 119.830293 
L 70.928242 119.515197 
L 70.990079 119.203417 
L 71.043322 118.894887 
L 71.08844 118.589537 
L 71.125922 118.287304 
L 71.156264 117.988124 
L 71.179975 117.691937 
L 71.197561 117.398682 
L 71.209536 117.108303 
L 71.21641 116.820744 
L 71.218693 116.535951 
L 71.216894 116.25387 
L 71.211526 115.97445 
L 71.2031 115.697643 
L 71.19213 115.423399 
L 71.179135 115.151671 
L 71.164638 114.882415 
L 71.149166 114.615584 
L 71.133251 114.351136 
L 71.117426 114.089028 
L 71.102222 113.82922 
L 71.088166 113.571672 
L 71.075776 113.316344 
L 71.065553 113.063199 
L 71.057974 112.8122 
L 71.053487 112.56331 
L 71.052503 112.316494 
L 71.055384 112.071719 
L 71.062441 111.82895 
L 71.073922 111.588155 
L 71.090011 111.349303 
L 71.11082 111.112361 
L 71.136384 110.8773 
L 71.166665 110.644091 
L 74.124575 110.644091 
L 74.124575 110.644091 
L 74.154856 110.8773 
L 74.18042 111.112361 
L 74.201228 111.349303 
L 74.217317 111.588155 
L 74.228799 111.82895 
L 74.235856 112.071719 
L 74.238737 112.316494 
L 74.237752 112.56331 
L 74.233266 112.8122 
L 74.225687 113.063199 
L 74.215463 113.316344 
L 74.203073 113.571672 
L 74.189018 113.82922 
L 74.173814 114.089028 
L 74.157988 114.351136 
L 74.142073 114.615584 
L 74.126602 114.882415 
L 74.112105 115.151671 
L 74.09911 115.423399 
L 74.08814 115.697643 
L 74.079714 115.97445 
L 74.074345 116.25387 
L 74.072547 116.535951 
L 74.07483 116.820744 
L 74.081703 117.108303 
L 74.093678 117.398682 
L 74.111265 117.691937 
L 74.134975 117.988124 
L 74.165318 118.287304 
L 74.202799 118.589537 
L 74.247918 118.894887 
L 74.301161 119.203417 
L 74.362998 119.515197 
L 74.433877 119.830293 
L 74.514214 120.148779 
L 74.60439 120.470727 
L 74.704739 120.796213 
L 74.815543 121.125317 
L 74.937023 121.458119 
L 75.069331 121.794704 
L 75.212545 122.135159 
L 75.366661 122.479573 
L 75.531587 122.82804 
L 75.707142 123.180656 
L 75.89305 123.537521 
L 76.08894 123.89874 
L 76.294345 124.264419 
L 76.508704 124.63467 
L 76.731363 125.009609 
L 76.961582 125.389356 
L 77.198542 125.774036 
L 77.441346 126.163779 
L 77.689036 126.558719 
L 77.940595 126.958998 
L 78.194963 127.364762 
L 78.451047 127.776162 
L 78.707731 128.193359 
L 78.96389 128.616517 
L 79.2184 129.045809 
L 79.470148 129.481417 
L 79.718047 129.923528 
L 79.961037 130.372339 
L 80.198101 130.828057 
L 80.428263 131.290898 
L 80.650598 131.761087 
L 80.864231 132.238863 
L 81.068336 132.724474 
L 81.262138 133.21818 
L 81.444908 133.720257 
L 81.615959 134.230994 
L 81.774639 134.750694 
L 81.920328 135.279677 
L 82.052428 135.818282 
L 82.170362 136.366864 
L 82.273565 136.925801 
L 82.361484 137.495491 
L 82.433572 138.076355 
L 82.489292 138.668841 
L 82.528117 139.273424 
L 82.549535 139.890607 
L 82.553058 140.520927 
L 82.538228 141.164956 
L 82.504632 141.823303 
L 82.451912 142.496619 
L 82.379784 143.185601 
L 82.288049 143.890995 
L 82.17661 144.613602 
L 82.045488 145.354284 
L 81.894838 146.113968 
L 81.724955 146.893654 
L 81.536294 147.694424 
L 81.329468 148.517452 
L 81.105258 149.364008 
L 80.864614 150.235478 
L 80.608649 151.133374 
L 80.338632 152.059347 
L 80.055981 153.015212 
L 79.762245 154.002962 
L 79.459089 155.024798 
z
" clip-path="url(#pd93935ab96)" style="fill: #1f77b4; fill-opacity: 0.3"/>
   </g>
   <g id="PolyCollection_2">
    <path d="M 118.711616 157.576876 
L 105.839128 157.576876 
L 105.518254 156.49787 
L 105.206464 155.4568 
L 104.90577 154.451089 
L 104.618024 153.478414 
L 104.344882 152.536674 
L 104.087775 151.623962 
L 103.847886 150.73854 
L 103.626132 149.878826 
L 103.423156 149.043367 
L 103.239326 148.230832 
L 103.074741 147.439998 
L 102.92925 146.669735 
L 102.802471 145.919 
L 102.693822 145.186827 
L 102.602555 144.472321 
L 102.527799 143.774648 
L 102.468602 143.093035 
L 102.423972 142.426758 
L 102.392925 141.775142 
L 102.374528 141.137556 
L 102.367934 140.513408 
L 102.372418 139.902144 
L 102.387406 139.303243 
L 102.412493 138.716214 
L 102.447454 138.140596 
L 102.492252 137.575953 
L 102.547026 137.021875 
L 102.612082 136.477974 
L 102.687867 135.943883 
L 102.774945 135.419254 
L 102.873955 134.903757 
L 102.985576 134.397081 
L 103.110483 133.898928 
L 103.249303 133.409016 
L 103.402573 132.927078 
L 103.570696 132.452857 
L 103.753906 131.986111 
L 103.952238 131.526607 
L 104.165499 131.074124 
L 104.393253 130.628451 
L 104.634811 130.189386 
L 104.889229 129.756735 
L 105.155317 129.330315 
L 105.431656 128.909948 
L 105.716617 128.495465 
L 106.008396 128.086702 
L 106.305044 127.683506 
L 106.604514 127.285725 
L 106.904695 126.893216 
L 107.203461 126.505843 
L 107.498715 126.12347 
L 107.788427 125.745973 
L 108.070676 125.373227 
L 108.343683 125.005114 
L 108.605844 124.641521 
L 108.85575 124.282338 
L 109.09221 123.927459 
L 109.31426 123.576783 
L 109.521166 123.230211 
L 109.71243 122.887648 
L 109.887776 122.549002 
L 110.047144 122.214186 
L 110.190669 121.883112 
L 110.318665 121.555699 
L 110.431601 121.231866 
L 110.53008 120.911536 
L 110.614807 120.594635 
L 110.686574 120.281088 
L 110.746229 119.970826 
L 110.794658 119.663782 
L 110.832766 119.359888 
L 110.861458 119.059081 
L 110.881628 118.7613 
L 110.894145 118.466482 
L 110.899852 118.174571 
L 110.899554 117.885509 
L 110.894025 117.599241 
L 110.884002 117.315715 
L 110.870191 117.034877 
L 110.853272 116.756677 
L 110.8339 116.481067 
L 110.812715 116.207998 
L 110.790341 115.937423 
L 110.767394 115.669299 
L 110.744484 115.403581 
L 110.72221 115.140226 
L 110.701168 114.879192 
L 110.681941 114.620439 
L 110.665097 114.363927 
L 110.651181 114.109618 
L 110.640711 113.857474 
L 110.634165 113.607459 
L 110.631973 113.359537 
L 110.634508 113.113674 
L 110.642079 112.869835 
L 110.654918 112.627987 
L 110.673178 112.388099 
L 110.696923 112.150138 
L 110.726131 111.914074 
L 113.824613 111.914074 
L 113.824613 111.914074 
L 113.853821 112.150138 
L 113.877566 112.388099 
L 113.895825 112.627987 
L 113.908665 112.869835 
L 113.916235 113.113674 
L 113.918771 113.359537 
L 113.916579 113.607459 
L 113.910033 113.857474 
L 113.899563 114.109618 
L 113.885647 114.363927 
L 113.868803 114.620439 
L 113.849576 114.879192 
L 113.828534 115.140226 
L 113.80626 115.403581 
L 113.783349 115.669299 
L 113.760403 115.937423 
L 113.738029 116.207998 
L 113.716843 116.481067 
L 113.697472 116.756677 
L 113.680552 117.034877 
L 113.666742 117.315715 
L 113.656718 117.599241 
L 113.651189 117.885509 
L 113.650892 118.174571 
L 113.656598 118.466482 
L 113.669116 118.7613 
L 113.689286 119.059081 
L 113.717978 119.359888 
L 113.756086 119.663782 
L 113.804515 119.970826 
L 113.86417 120.281088 
L 113.935937 120.594635 
L 114.020664 120.911536 
L 114.119142 121.231866 
L 114.232079 121.555699 
L 114.360075 121.883112 
L 114.5036 122.214186 
L 114.662967 122.549002 
L 114.838314 122.887648 
L 115.029578 123.230211 
L 115.236484 123.576783 
L 115.458534 123.927459 
L 115.694994 124.282338 
L 115.9449 124.641521 
L 116.207061 125.005114 
L 116.480068 125.373227 
L 116.762317 125.745973 
L 117.052028 126.12347 
L 117.347282 126.505843 
L 117.646049 126.893216 
L 117.94623 127.285725 
L 118.245699 127.683506 
L 118.542348 128.086702 
L 118.834127 128.495465 
L 119.119088 128.909948 
L 119.395426 129.330315 
L 119.661515 129.756735 
L 119.915933 130.189386 
L 120.157491 130.628451 
L 120.385245 131.074124 
L 120.598506 131.526607 
L 120.796838 131.986111 
L 120.980048 132.452857 
L 121.148171 132.927078 
L 121.30144 133.409016 
L 121.440261 133.898928 
L 121.565168 134.397081 
L 121.676789 134.903757 
L 121.775799 135.419254 
L 121.862876 135.943883 
L 121.938662 136.477974 
L 122.003718 137.021875 
L 122.058492 137.575953 
L 122.10329 138.140596 
L 122.138251 138.716214 
L 122.163338 139.303243 
L 122.178326 139.902144 
L 122.18281 140.513408 
L 122.176216 141.137556 
L 122.157818 141.775142 
L 122.126772 142.426758 
L 122.082142 143.093035 
L 122.022944 143.774648 
L 121.948189 144.472321 
L 121.856922 145.186827 
L 121.748272 145.919 
L 121.621493 146.669735 
L 121.476003 147.439998 
L 121.311418 148.230832 
L 121.127588 149.043367 
L 120.924612 149.878826 
L 120.702857 150.73854 
L 120.462968 151.623962 
L 120.205862 152.536674 
L 119.93272 153.478414 
L 119.644974 154.451089 
L 119.34428 155.4568 
L 119.03249 156.49787 
L 118.711616 157.576876 
z
" clip-path="url(#pd93935ab96)" style="fill: #1f77b4; fill-opacity: 0.3"/>
   </g>
   <g id="PolyCollection_3">
    <path d="M 157.285347 149.858569 
L 146.524901 149.858569 
L 146.248596 148.992172 
L 145.972576 148.150404 
L 145.697828 147.331904 
L 145.425351 146.535419 
L 145.156148 145.759796 
L 144.891233 145.003971 
L 144.631624 144.266957 
L 144.378348 143.547841 
L 144.132434 142.845775 
L 143.894919 142.159968 
L 143.66684 141.489684 
L 143.449234 140.834237 
L 143.243132 140.192983 
L 143.049554 139.565321 
L 142.869502 138.950687 
L 142.703946 138.348551 
L 142.553823 137.758414 
L 142.420016 137.179808 
L 142.303346 136.612291 
L 142.204556 136.055445 
L 142.1243 135.508878 
L 142.063123 134.972215 
L 142.021456 134.445105 
L 141.999592 133.927214 
L 141.997686 133.418224 
L 142.015735 132.917835 
L 142.053576 132.425761 
L 142.110879 131.941729 
L 142.187147 131.465483 
L 142.281712 130.996774 
L 142.393744 130.535368 
L 142.522254 130.081041 
L 142.666109 129.633579 
L 142.824043 129.192778 
L 142.994675 128.758442 
L 143.176529 128.330384 
L 143.368053 127.908426 
L 143.567648 127.492395 
L 143.773689 127.082129 
L 143.984549 126.677468 
L 144.198631 126.278263 
L 144.414388 125.884368 
L 144.630347 125.495643 
L 144.845134 125.111955 
L 145.057492 124.733174 
L 145.266296 124.359178 
L 145.47057 123.989845 
L 145.669495 123.625063 
L 145.862412 123.264719 
L 146.048831 122.908707 
L 146.228419 122.556924 
L 146.401002 122.209271 
L 146.566553 121.865652 
L 146.725176 121.525975 
L 146.877092 121.190149 
L 147.022621 120.858089 
L 147.162164 120.529712 
L 147.296175 120.204936 
L 147.425146 119.883683 
L 147.549585 119.565877 
L 147.669989 119.251446 
L 147.786835 118.940319 
L 147.900555 118.632426 
L 148.011526 118.327702 
L 148.120056 118.026081 
L 148.226377 117.727502 
L 148.330644 117.431903 
L 148.432925 117.139225 
L 148.533213 116.849412 
L 148.631423 116.562407 
L 148.727405 116.278157 
L 148.820956 115.99661 
L 148.911828 115.717714 
L 148.999746 115.441421 
L 149.084425 115.167681 
L 149.165581 114.896449 
L 149.242952 114.627678 
L 149.316312 114.361325 
L 149.385482 114.097346 
L 149.450346 113.835699 
L 149.510857 113.576344 
L 149.567049 113.319241 
L 149.619037 113.06435 
L 149.667021 112.811635 
L 149.711283 112.561058 
L 149.752184 112.312584 
L 149.790154 112.066177 
L 149.825685 111.821804 
L 149.859318 111.57943 
L 149.891626 111.339024 
L 149.923205 111.100554 
L 149.954651 110.863989 
L 149.986551 110.629299 
L 150.019462 110.396455 
L 150.053897 110.165426 
L 150.090314 109.936186 
L 150.129103 109.708707 
L 150.170577 109.482963 
L 150.214962 109.258926 
L 153.595286 109.258926 
L 153.595286 109.258926 
L 153.639671 109.482963 
L 153.681145 109.708707 
L 153.719934 109.936186 
L 153.756351 110.165426 
L 153.790786 110.396455 
L 153.823697 110.629299 
L 153.855597 110.863989 
L 153.887043 111.100554 
L 153.918622 111.339024 
L 153.95093 111.57943 
L 153.984563 111.821804 
L 154.020094 112.066177 
L 154.058064 112.312584 
L 154.098965 112.561058 
L 154.143227 112.811635 
L 154.191211 113.06435 
L 154.243199 113.319241 
L 154.299391 113.576344 
L 154.359902 113.835699 
L 154.424766 114.097346 
L 154.493936 114.361325 
L 154.567295 114.627678 
L 154.644667 114.896449 
L 154.725823 115.167681 
L 154.810501 115.441421 
L 154.89842 115.717714 
L 154.989292 115.99661 
L 155.082843 116.278157 
L 155.178825 116.562407 
L 155.277035 116.849412 
L 155.377323 117.139225 
L 155.479604 117.431903 
L 155.583871 117.727502 
L 155.690192 118.026081 
L 155.798722 118.327702 
L 155.909693 118.632426 
L 156.023413 118.940319 
L 156.140259 119.251446 
L 156.260663 119.565877 
L 156.385102 119.883683 
L 156.514073 120.204936 
L 156.648084 120.529712 
L 156.787627 120.858089 
L 156.933156 121.190149 
L 157.085072 121.525975 
L 157.243695 121.865652 
L 157.409246 122.209271 
L 157.581829 122.556924 
L 157.761417 122.908707 
L 157.947835 123.264719 
L 158.140753 123.625063 
L 158.339678 123.989845 
L 158.543952 124.359178 
L 158.752756 124.733174 
L 158.965114 125.111955 
L 159.179901 125.495643 
L 159.39586 125.884368 
L 159.611617 126.278263 
L 159.825699 126.677468 
L 160.036559 127.082129 
L 160.2426 127.492395 
L 160.442195 127.908426 
L 160.633719 128.330384 
L 160.815573 128.758442 
L 160.986205 129.192778 
L 161.144139 129.633579 
L 161.287994 130.081041 
L 161.416504 130.535368 
L 161.528536 130.996774 
L 161.623101 131.465483 
L 161.699368 131.941729 
L 161.756672 132.425761 
L 161.794513 132.917835 
L 161.812562 133.418224 
L 161.810656 133.927214 
L 161.788792 134.445105 
L 161.747125 134.972215 
L 161.685948 135.508878 
L 161.605692 136.055445 
L 161.506902 136.612291 
L 161.390232 137.179808 
L 161.256425 137.758414 
L 161.106301 138.348551 
L 160.940746 138.950687 
L 160.760694 139.565321 
L 160.567116 140.192983 
L 160.361014 140.834237 
L 160.143408 141.489684 
L 159.915329 142.159968 
L 159.677814 142.845775 
L 159.4319 143.547841 
L 159.178623 144.266957 
L 158.919015 145.003971 
L 158.6541 145.759796 
L 158.384897 146.535419 
L 158.11242 147.331904 
L 157.837672 148.150404 
L 157.561652 148.992172 
L 157.285347 149.858569 
z
" clip-path="url(#pd93935ab96)" style="fill: #1f77b4; fill-opacity: 0.3"/>
   </g>
   <g id="PolyCollection_4">
    <path d="M 198.154385 151.57749 
L 184.915367 151.57749 
L 184.610203 150.898807 
L 184.313029 150.23533 
L 184.025584 149.586393 
L 183.749523 148.951371 
L 183.486387 148.329682 
L 183.237591 147.720776 
L 183.004398 147.124138 
L 182.787905 146.539284 
L 182.589027 145.965757 
L 182.408489 145.403126 
L 182.246814 144.850987 
L 182.10432 144.308953 
L 181.981118 143.776663 
L 181.877116 143.253771 
L 181.792024 142.739953 
L 181.725358 142.234897 
L 181.676459 141.738311 
L 181.644506 141.249915 
L 181.62853 140.769443 
L 181.627438 140.296643 
L 181.640036 139.831272 
L 181.665048 139.373102 
L 181.701148 138.921912 
L 181.746981 138.477494 
L 181.801189 138.039647 
L 181.862439 137.608179 
L 181.929449 137.182907 
L 182.001006 136.763656 
L 182.075996 136.350258 
L 182.153414 135.942552 
L 182.23239 135.540382 
L 182.312194 135.143601 
L 182.392253 134.752066 
L 182.472153 134.365641 
L 182.551641 133.984192 
L 182.630627 133.607595 
L 182.709178 133.235727 
L 182.787507 132.868471 
L 182.865961 132.505713 
L 182.945009 132.147346 
L 183.025219 131.793263 
L 183.10724 131.443364 
L 183.191782 131.097551 
L 183.279588 130.75573 
L 183.371415 130.417809 
L 183.468004 130.083701 
L 183.570066 129.75332 
L 183.678251 129.426585 
L 183.793132 129.103415 
L 183.915189 128.783734 
L 184.044788 128.467467 
L 184.182173 128.154542 
L 184.327455 127.844889 
L 184.480605 127.53844 
L 184.641451 127.23513 
L 184.80968 126.934896 
L 184.984839 126.637674 
L 185.166345 126.343406 
L 185.353491 126.052034 
L 185.545458 125.7635 
L 185.741332 125.477751 
L 185.940116 125.194732 
L 186.140749 124.914393 
L 186.342125 124.636683 
L 186.543109 124.361553 
L 186.74256 124.088955 
L 186.939347 123.818844 
L 187.132368 123.551175 
L 187.32057 123.285903 
L 187.502964 123.022986 
L 187.678642 122.762383 
L 187.846788 122.504053 
L 188.006696 122.247958 
L 188.157775 121.994058 
L 188.299563 121.742316 
L 188.431729 121.492696 
L 188.554077 121.245163 
L 188.666551 120.999682 
L 188.769234 120.756219 
L 188.862341 120.514742 
L 188.946218 120.275217 
L 189.021332 120.037614 
L 189.088262 119.801903 
L 189.147684 119.568053 
L 189.200362 119.336035 
L 189.24713 119.10582 
L 189.288872 118.877382 
L 189.326512 118.650692 
L 189.360987 118.425725 
L 189.393233 118.202453 
L 189.424168 117.980853 
L 189.454669 117.760898 
L 189.48556 117.542565 
L 189.517597 117.32583 
L 189.551451 117.110669 
L 189.5877 116.897061 
L 189.626818 116.684982 
L 189.669173 116.474411 
L 189.715018 116.265328 
L 193.354734 116.265328 
L 193.354734 116.265328 
L 193.400579 116.474411 
L 193.442934 116.684982 
L 193.482052 116.897061 
L 193.518301 117.110669 
L 193.552155 117.32583 
L 193.584192 117.542565 
L 193.615083 117.760898 
L 193.645584 117.980853 
L 193.676519 118.202453 
L 193.708765 118.425725 
L 193.74324 118.650692 
L 193.78088 118.877382 
L 193.822622 119.10582 
L 193.86939 119.336035 
L 193.922068 119.568053 
L 193.98149 119.801903 
L 194.04842 120.037614 
L 194.123534 120.275217 
L 194.207411 120.514742 
L 194.300518 120.756219 
L 194.403201 120.999682 
L 194.515676 121.245163 
L 194.638024 121.492696 
L 194.770189 121.742316 
L 194.911977 121.994058 
L 195.063056 122.247958 
L 195.222964 122.504053 
L 195.39111 122.762383 
L 195.566788 123.022986 
L 195.749182 123.285903 
L 195.937384 123.551175 
L 196.130405 123.818844 
L 196.327192 124.088955 
L 196.526643 124.361553 
L 196.727627 124.636683 
L 196.929003 124.914393 
L 197.129636 125.194732 
L 197.32842 125.477751 
L 197.524294 125.7635 
L 197.716261 126.052034 
L 197.903407 126.343406 
L 198.084913 126.637674 
L 198.260072 126.934896 
L 198.428301 127.23513 
L 198.589147 127.53844 
L 198.742297 127.844889 
L 198.887579 128.154542 
L 199.024964 128.467467 
L 199.154563 128.783734 
L 199.27662 129.103415 
L 199.391501 129.426585 
L 199.499686 129.75332 
L 199.601748 130.083701 
L 199.698337 130.417809 
L 199.790164 130.75573 
L 199.87797 131.097551 
L 199.962512 131.443364 
L 200.044533 131.793263 
L 200.124743 132.147346 
L 200.203791 132.505713 
L 200.282245 132.868471 
L 200.360574 133.235727 
L 200.439125 133.607595 
L 200.518112 133.984192 
L 200.597599 134.365641 
L 200.677499 134.752066 
L 200.757558 135.143601 
L 200.837362 135.540382 
L 200.916338 135.942552 
L 200.993756 136.350258 
L 201.068746 136.763656 
L 201.140303 137.182907 
L 201.207313 137.608179 
L 201.268563 138.039647 
L 201.322771 138.477494 
L 201.368604 138.921912 
L 201.404704 139.373102 
L 201.429717 139.831272 
L 201.442314 140.296643 
L 201.441222 140.769443 
L 201.425246 141.249915 
L 201.393293 141.738311 
L 201.344394 142.234897 
L 201.277728 142.739953 
L 201.192636 143.253771 
L 201.088634 143.776663 
L 200.965433 144.308953 
L 200.822938 144.850987 
L 200.661263 145.403126 
L 200.480725 145.965757 
L 200.281847 146.539284 
L 200.065354 147.124138 
L 199.832161 147.720776 
L 199.583365 148.329682 
L 199.320229 148.951371 
L 199.044168 149.586393 
L 198.756723 150.23533 
L 198.459549 150.898807 
L 198.154385 151.57749 
z
" clip-path="url(#pd93935ab96)" style="fill: #1f77b4; fill-opacity: 0.3"/>
   </g>
   <g id="PolyCollection_5">
    <path d="M 239.799919 125.730725 
L 222.529337 125.730725 
L 222.264022 124.68926 
L 222.025645 123.68318 
L 221.816477 122.71016 
L 221.638466 121.768096 
L 221.493196 120.855079 
L 221.381862 119.969372 
L 221.305248 119.109388 
L 221.263714 118.273674 
L 221.25719 117.460899 
L 221.285182 116.669836 
L 221.346783 115.899357 
L 221.440694 115.148416 
L 221.565255 114.416047 
L 221.718472 113.701355 
L 221.898066 113.003505 
L 222.10151 112.321722 
L 222.326082 111.655282 
L 222.568915 111.003511 
L 222.827046 110.365777 
L 223.097468 109.741487 
L 223.37718 109.130087 
L 223.663237 108.531055 
L 223.952788 107.9439 
L 224.243124 107.368161 
L 224.531704 106.803402 
L 224.816195 106.249212 
L 225.094489 105.705203 
L 225.364726 105.171008 
L 225.625303 104.646278 
L 225.874886 104.130685 
L 226.112409 103.623915 
L 226.337072 103.125671 
L 226.548331 102.635672 
L 226.745889 102.153649 
L 226.929677 101.679346 
L 227.099835 101.21252 
L 227.256693 100.752939 
L 227.400744 100.300381 
L 227.532622 99.854636 
L 227.653073 99.4155 
L 227.762934 98.982782 
L 227.863101 98.556295 
L 227.95451 98.135863 
L 228.038112 97.721317 
L 228.114851 97.312494 
L 228.185642 96.909238 
L 228.251359 96.5114 
L 228.312819 96.118835 
L 228.370766 95.731406 
L 228.425868 95.348981 
L 228.478707 94.971431 
L 228.529779 94.598634 
L 228.579487 94.230472 
L 228.62815 93.866831 
L 228.676004 93.507601 
L 228.723207 93.152676 
L 228.769847 92.801955 
L 228.815953 92.455339 
L 228.8615 92.112734 
L 228.906426 91.774046 
L 228.950634 91.439189 
L 228.994012 91.108075 
L 229.036435 90.780623 
L 229.077775 90.456752 
L 229.117915 90.136384 
L 229.156748 89.819446 
L 229.194189 89.505863 
L 229.230176 89.195567 
L 229.264674 88.888488 
L 229.297675 88.58456 
L 229.329202 88.283721 
L 229.359306 87.985906 
L 229.388064 87.691057 
L 229.41558 87.399115 
L 229.441975 87.110023 
L 229.467393 86.823725 
L 229.491991 86.540169 
L 229.515934 86.259302 
L 229.539397 85.981074 
L 229.562559 85.705436 
L 229.585596 85.43234 
L 229.608684 85.161739 
L 229.631991 84.893589 
L 229.655678 84.627845 
L 229.679897 84.364464 
L 229.704785 84.103405 
L 229.730469 83.844628 
L 229.75706 83.588092 
L 229.784654 83.333759 
L 229.813331 83.081592 
L 229.843155 82.831555 
L 229.874171 82.58361 
L 229.906408 82.337725 
L 229.939875 82.093864 
L 229.974564 81.851995 
L 230.010448 81.612086 
L 230.047483 81.374104 
L 230.085603 81.13802 
L 230.124729 80.903803 
L 232.204528 80.903803 
L 232.204528 80.903803 
L 232.243653 81.13802 
L 232.281774 81.374104 
L 232.318808 81.612086 
L 232.354692 81.851995 
L 232.389381 82.093864 
L 232.422848 82.337725 
L 232.455085 82.58361 
L 232.486101 82.831555 
L 232.515925 83.081592 
L 232.544602 83.333759 
L 232.572196 83.588092 
L 232.598787 83.844628 
L 232.624471 84.103405 
L 232.64936 84.364464 
L 232.673578 84.627845 
L 232.697265 84.893589 
L 232.720572 85.161739 
L 232.74366 85.43234 
L 232.766697 85.705436 
L 232.789859 85.981074 
L 232.813322 86.259302 
L 232.837266 86.540169 
L 232.861863 86.823725 
L 232.887281 87.110023 
L 232.913677 87.399115 
L 232.941192 87.691057 
L 232.96995 87.985906 
L 233.000054 88.283721 
L 233.031581 88.58456 
L 233.064583 88.888488 
L 233.09908 89.195567 
L 233.135067 89.505863 
L 233.172508 89.819446 
L 233.211341 90.136384 
L 233.251481 90.456752 
L 233.292822 90.780623 
L 233.335244 91.108075 
L 233.378622 91.439189 
L 233.422831 91.774046 
L 233.467756 92.112734 
L 233.513303 92.455339 
L 233.559409 92.801955 
L 233.606049 93.152676 
L 233.653252 93.507601 
L 233.701106 93.866831 
L 233.74977 94.230472 
L 233.799478 94.598634 
L 233.850549 94.971431 
L 233.903388 95.348981 
L 233.95849 95.731406 
L 234.016438 96.118835 
L 234.077897 96.5114 
L 234.143615 96.909238 
L 234.214406 97.312494 
L 234.291144 97.721317 
L 234.374746 98.135863 
L 234.466155 98.556295 
L 234.566323 98.982782 
L 234.676183 99.4155 
L 234.796635 99.854636 
L 234.928512 100.300381 
L 235.072563 100.752939 
L 235.229421 101.21252 
L 235.399579 101.679346 
L 235.583367 102.153649 
L 235.780925 102.635672 
L 235.992184 103.125671 
L 236.216847 103.623915 
L 236.454371 104.130685 
L 236.703954 104.646278 
L 236.964531 105.171008 
L 237.234767 105.705203 
L 237.513061 106.249212 
L 237.797552 106.803402 
L 238.086133 107.368161 
L 238.376468 107.9439 
L 238.66602 108.531055 
L 238.952076 109.130087 
L 239.231789 109.741487 
L 239.50221 110.365777 
L 239.760341 111.003511 
L 240.003174 111.655282 
L 240.227747 112.321722 
L 240.43119 113.003505 
L 240.610784 113.701355 
L 240.764001 114.416047 
L 240.888562 115.148416 
L 240.982474 115.899357 
L 241.044075 116.669836 
L 241.072066 117.460899 
L 241.065542 118.273674 
L 241.024008 119.109388 
L 240.947394 119.969372 
L 240.83606 120.855079 
L 240.69079 121.768096 
L 240.512779 122.71016 
L 240.303611 123.68318 
L 240.065234 124.68926 
L 239.799919 125.730725 
z
" clip-path="url(#pd93935ab96)" style="fill: #1f77b4; fill-opacity: 0.3"/>
   </g>
   <g id="PolyCollection_6">
    <path d="M 279.420299 88.748453 
L 262.168461 88.748453 
L 261.968268 85.77091 
L 261.784658 83.065586 
L 261.618199 80.586848 
L 261.469266 78.299657 
L 261.338042 76.17652 
L 261.224519 74.195471 
L 261.128495 72.338678 
L 261.049588 70.591469 
L 260.98724 68.941628 
L 260.940731 67.378873 
L 260.909194 65.894469 
L 260.891633 64.480933 
L 260.886942 63.131807 
L 260.893926 61.841474 
L 260.911322 60.605025 
L 260.937824 59.418138 
L 260.972104 58.276992 
L 261.012832 57.178194 
L 261.058706 56.118711 
L 261.108462 55.095828 
L 261.160903 54.107099 
L 261.21491 53.150318 
L 261.26946 52.223484 
L 261.323636 51.32478 
L 261.376645 50.452548 
L 261.427815 49.605273 
L 261.476611 48.781566 
L 261.522631 47.980153 
L 261.565605 47.199857 
L 261.6054 46.439594 
L 261.642006 45.698362 
L 261.675537 44.975231 
L 261.706214 44.269338 
L 261.734364 43.57988 
L 261.760397 42.90611 
L 261.784803 42.247328 
L 261.808131 41.602883 
L 261.830978 40.972165 
L 261.85397 40.3546 
L 261.877755 39.749651 
L 261.90298 39.156812 
L 261.930283 38.57561 
L 261.960276 38.005595 
L 261.993539 37.446345 
L 262.0306 36.897461 
L 262.071935 36.358565 
L 262.117954 35.829301 
L 262.168996 35.30933 
L 262.225325 34.798332 
L 262.287126 34.296002 
L 262.354505 33.802051 
L 262.427485 33.316204 
L 262.506012 32.8382 
L 262.589955 32.367789 
L 262.679111 31.904733 
L 262.77321 31.448807 
L 262.87192 30.999793 
L 262.974859 30.557487 
L 263.081594 30.121689 
L 263.19166 29.692212 
L 263.304559 29.268874 
L 263.419776 28.851503 
L 263.536786 28.439933 
L 263.655059 28.034004 
L 263.774077 27.633565 
L 263.893333 27.238468 
L 264.012347 26.848573 
L 264.13067 26.463744 
L 264.247889 26.083853 
L 264.363637 25.708773 
L 264.477595 25.338385 
L 264.589498 24.972571 
L 264.699137 24.611222 
L 264.806363 24.254229 
L 264.911088 23.901488 
L 265.013283 23.552899 
L 265.112982 23.208366 
L 265.210274 22.867796 
L 265.305306 22.531097 
L 265.398277 22.198184 
L 265.489433 21.868971 
L 265.579061 21.543379 
L 265.667485 21.221327 
L 265.755059 20.90274 
L 265.842156 20.587544 
L 265.929166 20.275667 
L 266.016482 19.967041 
L 266.104496 19.661598 
L 266.19359 19.359273 
L 266.284126 19.060003 
L 266.376442 18.763728 
L 266.470842 18.470388 
L 266.567588 18.179924 
L 266.6669 17.892282 
L 266.768946 17.607407 
L 266.873839 17.325247 
L 266.981636 17.045749 
L 267.092334 16.768865 
L 267.205873 16.494545 
L 274.382888 16.494545 
L 274.382888 16.494545 
L 274.496426 16.768865 
L 274.607125 17.045749 
L 274.714921 17.325247 
L 274.819814 17.607407 
L 274.92186 17.892282 
L 275.021172 18.179924 
L 275.117919 18.470388 
L 275.212318 18.763728 
L 275.304634 19.060003 
L 275.395171 19.359273 
L 275.484264 19.661598 
L 275.572279 19.967041 
L 275.659594 20.275667 
L 275.746604 20.587544 
L 275.833701 20.90274 
L 275.921275 21.221327 
L 276.0097 21.543379 
L 276.099328 21.868971 
L 276.190483 22.198184 
L 276.283454 22.531097 
L 276.378487 22.867796 
L 276.475779 23.208366 
L 276.575477 23.552899 
L 276.677672 23.901488 
L 276.782397 24.254229 
L 276.889624 24.611222 
L 276.999263 24.972571 
L 277.111165 25.338385 
L 277.225123 25.708773 
L 277.340871 26.083853 
L 277.45809 26.463744 
L 277.576413 26.848573 
L 277.695428 27.238468 
L 277.814684 27.633565 
L 277.933701 28.034004 
L 278.051975 28.439933 
L 278.168984 28.851503 
L 278.284201 29.268874 
L 278.397101 29.692212 
L 278.507166 30.121689 
L 278.613902 30.557487 
L 278.71684 30.999793 
L 278.815551 31.448807 
L 278.909649 31.904733 
L 278.998805 32.367789 
L 279.082748 32.8382 
L 279.161276 33.316204 
L 279.234256 33.802051 
L 279.301634 34.296002 
L 279.363436 34.798332 
L 279.419764 35.30933 
L 279.470806 35.829301 
L 279.516825 36.358565 
L 279.55816 36.897461 
L 279.595221 37.446345 
L 279.628484 38.005595 
L 279.658478 38.57561 
L 279.685781 39.156812 
L 279.711006 39.749651 
L 279.73479 40.3546 
L 279.757783 40.972165 
L 279.780629 41.602883 
L 279.803957 42.247328 
L 279.828363 42.90611 
L 279.854397 43.57988 
L 279.882546 44.269338 
L 279.913224 44.975231 
L 279.946754 45.698362 
L 279.98336 46.439594 
L 280.023155 47.199857 
L 280.06613 47.980153 
L 280.112149 48.781566 
L 280.160945 49.605273 
L 280.212116 50.452548 
L 280.265124 51.32478 
L 280.319301 52.223484 
L 280.37385 53.150318 
L 280.427857 54.107099 
L 280.480298 55.095828 
L 280.530055 56.118711 
L 280.575928 57.178194 
L 280.616657 58.276992 
L 280.650936 59.418138 
L 280.677438 60.605025 
L 280.694834 61.841474 
L 280.701818 63.131807 
L 280.697127 64.480933 
L 280.679566 65.894469 
L 280.648029 67.378873 
L 280.60152 68.941628 
L 280.539172 70.591469 
L 280.460265 72.338678 
L 280.364242 74.195471 
L 280.250718 76.17652 
L 280.119495 78.299657 
L 279.970561 80.586848 
L 279.804102 83.065586 
L 279.620493 85.77091 
L 279.420299 88.748453 
z
" clip-path="url(#pd93935ab96)" style="fill: #1f77b4; fill-opacity: 0.3"/>
   </g>
   <g id="PolyCollection_7">
    <path d="M 80.587815 173.585455 
L 64.703424 173.585455 
L 64.405935 172.707549 
L 64.126728 171.854922 
L 63.868107 171.026158 
L 63.632202 170.219958 
L 63.420931 169.435125 
L 63.235978 168.670557 
L 63.078764 167.925232 
L 62.950429 167.198206 
L 62.851818 166.488602 
L 62.783469 165.795604 
L 62.745616 165.118453 
L 62.738182 164.456441 
L 62.760792 163.808905 
L 62.812784 163.175225 
L 62.893223 162.554822 
L 63.000925 161.947149 
L 63.134477 161.351696 
L 63.292268 160.76798 
L 63.472513 160.195548 
L 63.673288 159.633971 
L 63.892556 159.082846 
L 64.128202 158.54179 
L 64.378059 158.010443 
L 64.639942 157.488462 
L 64.91167 156.975522 
L 65.191098 156.471316 
L 65.476133 155.97555 
L 65.764759 155.487948 
L 66.055054 155.008245 
L 66.345205 154.536189 
L 66.633517 154.071539 
L 66.918427 153.614068 
L 67.198507 153.163556 
L 67.472472 152.719795 
L 67.739174 152.282586 
L 67.997612 151.851738 
L 68.246919 151.427069 
L 68.486368 151.008403 
L 68.715356 150.595574 
L 68.933409 150.188421 
L 69.140163 149.78679 
L 69.335365 149.390533 
L 69.518859 148.999509 
L 69.690579 148.61358 
L 69.850542 148.232617 
L 69.998834 147.856492 
L 70.135607 147.485084 
L 70.261068 147.118277 
L 70.375471 146.755958 
L 70.479113 146.398018 
L 70.572325 146.044353 
L 70.655465 145.694862 
L 70.72892 145.349447 
L 70.793091 145.008015 
L 70.848401 144.670475 
L 70.895282 144.336738 
L 70.934179 144.006721 
L 70.965547 143.680341 
L 70.989849 143.357519 
L 71.007552 143.038178 
L 71.019134 142.722244 
L 71.025074 142.409645 
L 71.02586 142.100312 
L 71.02198 141.794176 
L 71.01393 141.491173 
L 71.002208 141.191238 
L 70.987313 140.894311 
L 70.969746 140.600332 
L 70.950009 140.309242 
L 70.928601 140.020986 
L 70.906017 139.735509 
L 70.882746 139.452757 
L 70.85927 139.172679 
L 70.836058 138.895226 
L 70.813567 138.620348 
L 70.792238 138.347998 
L 70.772491 138.07813 
L 70.754725 137.810699 
L 70.739312 137.545662 
L 70.7266 137.282975 
L 70.716901 137.022598 
L 70.710499 136.764491 
L 70.70764 136.508614 
L 70.708533 136.254929 
L 70.71335 136.003398 
L 70.722221 135.753986 
L 70.735237 135.506657 
L 70.752447 135.261377 
L 70.773857 135.018111 
L 70.799434 134.776828 
L 70.829105 134.537495 
L 70.862757 134.30008 
L 70.900239 134.064554 
L 70.941367 133.830886 
L 70.985922 133.599047 
L 71.033655 133.369009 
L 71.084293 133.140745 
L 71.137537 132.914226 
L 71.193068 132.689427 
L 74.098171 132.689427 
L 74.098171 132.689427 
L 74.153703 132.914226 
L 74.206947 133.140745 
L 74.257584 133.369009 
L 74.305318 133.599047 
L 74.349873 133.830886 
L 74.391 134.064554 
L 74.428483 134.30008 
L 74.462134 134.537495 
L 74.491805 134.776828 
L 74.517383 135.018111 
L 74.538793 135.261377 
L 74.556002 135.506657 
L 74.569018 135.753986 
L 74.57789 136.003398 
L 74.582706 136.254929 
L 74.5836 136.508614 
L 74.580741 136.764491 
L 74.574338 137.022598 
L 74.56464 137.282975 
L 74.551927 137.545662 
L 74.536515 137.810699 
L 74.518749 138.07813 
L 74.499002 138.347998 
L 74.477672 138.620348 
L 74.455182 138.895226 
L 74.43197 139.172679 
L 74.408494 139.452757 
L 74.385223 139.735509 
L 74.362638 140.020986 
L 74.34123 140.309242 
L 74.321493 140.600332 
L 74.303927 140.894311 
L 74.289032 141.191238 
L 74.27731 141.491173 
L 74.26926 141.794176 
L 74.26538 142.100312 
L 74.266165 142.409645 
L 74.272106 142.722244 
L 74.283687 143.038178 
L 74.301391 143.357519 
L 74.325692 143.680341 
L 74.357061 144.006721 
L 74.395958 144.336738 
L 74.442839 144.670475 
L 74.498148 145.008015 
L 74.56232 145.349447 
L 74.635774 145.694862 
L 74.718915 146.044353 
L 74.812127 146.398018 
L 74.915769 146.755958 
L 75.030172 147.118277 
L 75.155633 147.485084 
L 75.292406 147.856492 
L 75.440698 148.232617 
L 75.60066 148.61358 
L 75.772381 148.999509 
L 75.955875 149.390533 
L 76.151077 149.78679 
L 76.357831 150.188421 
L 76.575883 150.595574 
L 76.804872 151.008403 
L 77.04432 151.427069 
L 77.293628 151.851738 
L 77.552065 152.282586 
L 77.818768 152.719795 
L 78.092732 153.163556 
L 78.372813 153.614068 
L 78.657723 154.071539 
L 78.946035 154.536189 
L 79.236185 155.008245 
L 79.52648 155.487948 
L 79.815107 155.97555 
L 80.100142 156.471316 
L 80.379569 156.975522 
L 80.651298 157.488462 
L 80.913181 158.010443 
L 81.163038 158.54179 
L 81.398684 159.082846 
L 81.617952 159.633971 
L 81.818727 160.195548 
L 81.998972 160.76798 
L 82.156763 161.351696 
L 82.290315 161.947149 
L 82.398017 162.554822 
L 82.478456 163.175225 
L 82.530448 163.808905 
L 82.553058 164.456441 
L 82.545624 165.118453 
L 82.50777 165.795604 
L 82.439422 166.488602 
L 82.340811 167.198206 
L 82.212476 167.925232 
L 82.055262 168.670557 
L 81.870309 169.435125 
L 81.659038 170.219958 
L 81.423132 171.026158 
L 81.164512 171.854922 
L 80.885304 172.707549 
L 80.587815 173.585455 
z
" clip-path="url(#pd93935ab96)" style="fill: #ff7f0e; fill-opacity: 0.3"/>
   </g>
   <g id="PolyCollection_8">
    <path d="M 120.075978 172.37663 
L 104.474766 172.37663 
L 104.15995 171.583325 
L 103.863256 170.810719 
L 103.587352 170.057757 
L 103.334738 169.323467 
L 103.107704 168.606945 
L 102.908292 167.90735 
L 102.738267 167.223902 
L 102.599082 166.555872 
L 102.49186 165.90258 
L 102.417377 165.263389 
L 102.376049 164.637704 
L 102.367934 164.024965 
L 102.392729 163.424648 
L 102.449784 162.836259 
L 102.53812 162.259333 
L 102.656443 161.693432 
L 102.803179 161.138143 
L 102.9765 160.593074 
L 103.174361 160.057857 
L 103.394534 159.532142 
L 103.634648 159.015597 
L 103.892228 158.507908 
L 104.164735 158.008776 
L 104.449601 157.517917 
L 104.74427 157.035062 
L 105.046226 156.559954 
L 105.353029 156.092348 
L 105.662339 155.632011 
L 105.971942 155.178721 
L 106.279769 154.732264 
L 106.58391 154.292439 
L 106.88263 153.85905 
L 107.174373 153.431912 
L 107.457768 153.010848 
L 107.731628 152.595687 
L 107.994951 152.186266 
L 108.24691 151.782428 
L 108.48685 151.384023 
L 108.714274 150.990907 
L 108.928835 150.602941 
L 109.130324 150.219993 
L 109.318654 149.841933 
L 109.493849 149.468639 
L 109.656029 149.099992 
L 109.805399 148.735878 
L 109.942236 148.376186 
L 110.066874 148.020811 
L 110.179697 147.66965 
L 110.281127 147.322604 
L 110.371618 146.979578 
L 110.451643 146.64048 
L 110.521695 146.305222 
L 110.582276 145.973716 
L 110.633894 145.64588 
L 110.677062 145.321634 
L 110.712294 145.000899 
L 110.740104 144.683601 
L 110.761003 144.369667 
L 110.775504 144.059026 
L 110.784114 143.75161 
L 110.787339 143.447352 
L 110.785683 143.146189 
L 110.77965 142.848057 
L 110.769737 142.552897 
L 110.756444 142.26065 
L 110.740264 141.971259 
L 110.721688 141.684668 
L 110.701201 141.400824 
L 110.679282 141.119676 
L 110.656403 140.841171 
L 110.633024 140.565261 
L 110.609596 140.291898 
L 110.586554 140.021035 
L 110.564318 139.752628 
L 110.543289 139.486631 
L 110.523847 139.223002 
L 110.506347 138.9617 
L 110.491124 138.702683 
L 110.478479 138.445912 
L 110.468689 138.191348 
L 110.461998 137.938953 
L 110.458617 137.688692 
L 110.458725 137.440528 
L 110.462467 137.194426 
L 110.469952 136.950353 
L 110.481252 136.708275 
L 110.496407 136.468159 
L 110.51542 136.229975 
L 110.538259 135.993692 
L 110.564858 135.759279 
L 110.595118 135.526706 
L 110.62891 135.295946 
L 110.666073 135.066971 
L 110.70642 134.839752 
L 110.749736 134.614263 
L 110.795784 134.390479 
L 110.844306 134.168372 
L 110.895026 133.947919 
L 110.947652 133.729096 
L 113.603091 133.729096 
L 113.603091 133.729096 
L 113.655718 133.947919 
L 113.706437 134.168372 
L 113.754959 134.390479 
L 113.801008 134.614263 
L 113.844324 134.839752 
L 113.88467 135.066971 
L 113.921834 135.295946 
L 113.955626 135.526706 
L 113.985886 135.759279 
L 114.012485 135.993692 
L 114.035324 136.229975 
L 114.054336 136.468159 
L 114.069492 136.708275 
L 114.080792 136.950353 
L 114.088277 137.194426 
L 114.092018 137.440528 
L 114.092127 137.688692 
L 114.088746 137.938953 
L 114.082055 138.191348 
L 114.072265 138.445912 
L 114.05962 138.702683 
L 114.044396 138.9617 
L 114.026897 139.223002 
L 114.007455 139.486631 
L 113.986425 139.752628 
L 113.964189 140.021035 
L 113.941148 140.291898 
L 113.91772 140.565261 
L 113.894341 140.841171 
L 113.871462 141.119676 
L 113.849543 141.400824 
L 113.829056 141.684668 
L 113.810479 141.971259 
L 113.794299 142.26065 
L 113.781006 142.552897 
L 113.771094 142.848057 
L 113.765061 143.146189 
L 113.763405 143.447352 
L 113.76663 143.75161 
L 113.77524 144.059026 
L 113.78974 144.369667 
L 113.81064 144.683601 
L 113.83845 145.000899 
L 113.873682 145.321634 
L 113.91685 145.64588 
L 113.968468 145.973716 
L 114.029049 146.305222 
L 114.099101 146.64048 
L 114.179126 146.979578 
L 114.269617 147.322604 
L 114.371047 147.66965 
L 114.48387 148.020811 
L 114.608508 148.376186 
L 114.745344 148.735878 
L 114.894715 149.099992 
L 115.056895 149.468639 
L 115.23209 149.841933 
L 115.42042 150.219993 
L 115.621908 150.602941 
L 115.83647 150.990907 
L 116.063894 151.384023 
L 116.303834 151.782428 
L 116.555793 152.186266 
L 116.819116 152.595687 
L 117.092976 153.010848 
L 117.376371 153.431912 
L 117.668114 153.85905 
L 117.966834 154.292439 
L 118.270975 154.732264 
L 118.578802 155.178721 
L 118.888405 155.632011 
L 119.197715 156.092348 
L 119.504518 156.559954 
L 119.806474 157.035062 
L 120.101143 157.517917 
L 120.386009 158.008776 
L 120.658516 158.507908 
L 120.916096 159.015597 
L 121.15621 159.532142 
L 121.376383 160.057857 
L 121.574243 160.593074 
L 121.747565 161.138143 
L 121.894301 161.693432 
L 122.012624 162.259333 
L 122.100959 162.836259 
L 122.158015 163.424648 
L 122.18281 164.024965 
L 122.174694 164.637704 
L 122.133367 165.263389 
L 122.058884 165.90258 
L 121.951662 166.555872 
L 121.812477 167.223902 
L 121.642452 167.90735 
L 121.44304 168.606945 
L 121.216006 169.323467 
L 120.963392 170.057757 
L 120.687488 170.810719 
L 120.390794 171.583325 
L 120.075978 172.37663 
z
" clip-path="url(#pd93935ab96)" style="fill: #ff7f0e; fill-opacity: 0.3"/>
   </g>
   <g id="PolyCollection_9">
    <path d="M 159.581082 173.237347 
L 144.229166 173.237347 
L 143.91029 172.410571 
L 143.608322 171.606251 
L 143.325913 170.823201 
L 143.065561 170.060324 
L 142.829572 169.316607 
L 142.620018 168.591111 
L 142.438712 167.882964 
L 142.287172 167.191357 
L 142.1666 166.515534 
L 142.077868 165.85479 
L 142.021504 165.208468 
L 141.997686 164.575951 
L 142.006248 163.956662 
L 142.046685 163.350058 
L 142.118168 162.755632 
L 142.219563 162.172902 
L 142.349457 161.601419 
L 142.506182 161.040755 
L 142.687854 160.49051 
L 142.892398 159.950302 
L 143.117595 159.419772 
L 143.361107 158.89858 
L 143.620523 158.386402 
L 143.893391 157.882932 
L 144.177253 157.387879 
L 144.469676 156.900965 
L 144.768284 156.421929 
L 145.070785 155.950518 
L 145.374991 155.486494 
L 145.678841 155.029628 
L 145.980416 154.579704 
L 146.277952 154.136514 
L 146.569848 153.699859 
L 146.854673 153.269548 
L 147.131166 152.845401 
L 147.398237 152.427244 
L 147.654964 152.014908 
L 147.900587 151.608236 
L 148.134501 151.207072 
L 148.356245 150.81127 
L 148.565495 150.420689 
L 148.762049 150.035192 
L 148.945821 149.654648 
L 149.116823 149.278933 
L 149.275156 148.907925 
L 149.421002 148.541508 
L 149.554606 148.179569 
L 149.676272 147.822001 
L 149.786348 147.468698 
L 149.885223 147.119561 
L 149.973316 146.774492 
L 150.051069 146.433397 
L 150.118947 146.096187 
L 150.177423 145.762773 
L 150.226985 145.433072 
L 150.268128 145.107001 
L 150.301351 144.784481 
L 150.327158 144.465435 
L 150.346057 144.149791 
L 150.358557 143.837475 
L 150.365169 143.528419 
L 150.366407 143.222555 
L 150.362786 142.919817 
L 150.354821 142.620143 
L 150.34303 142.323472 
L 150.327928 142.029743 
L 150.310033 141.738899 
L 150.289856 141.450883 
L 150.267909 141.165642 
L 150.244695 140.883122 
L 150.22071 140.603272 
L 150.19644 140.326042 
L 150.172359 140.051383 
L 150.148925 139.779248 
L 150.126578 139.509591 
L 150.105736 139.242367 
L 150.086795 138.977533 
L 150.070123 138.715047 
L 150.056061 138.454866 
L 150.044916 138.196952 
L 150.036965 137.941265 
L 150.032447 137.687766 
L 150.031566 137.436419 
L 150.034488 137.187187 
L 150.041339 136.940036 
L 150.052208 136.69493 
L 150.067144 136.451836 
L 150.086156 136.210721 
L 150.109216 135.971554 
L 150.136257 135.734302 
L 150.167176 135.498937 
L 150.201837 135.265427 
L 150.24007 135.033744 
L 150.281673 134.80386 
L 150.32642 134.575746 
L 150.374056 134.349377 
L 150.424307 134.124724 
L 150.476876 133.901763 
L 150.531455 133.680468 
L 153.278793 133.680468 
L 153.278793 133.680468 
L 153.333372 133.901763 
L 153.385941 134.124724 
L 153.436192 134.349377 
L 153.483828 134.575746 
L 153.528575 134.80386 
L 153.570178 135.033744 
L 153.608411 135.265427 
L 153.643072 135.498937 
L 153.673991 135.734302 
L 153.701032 135.971554 
L 153.724092 136.210721 
L 153.743104 136.451836 
L 153.75804 136.69493 
L 153.768909 136.940036 
L 153.77576 137.187187 
L 153.778682 137.436419 
L 153.777801 137.687766 
L 153.773283 137.941265 
L 153.765332 138.196952 
L 153.754187 138.454866 
L 153.740125 138.715047 
L 153.723453 138.977533 
L 153.704512 139.242367 
L 153.68367 139.509591 
L 153.661323 139.779248 
L 153.637889 140.051383 
L 153.613808 140.326042 
L 153.589538 140.603272 
L 153.565553 140.883122 
L 153.542339 141.165642 
L 153.520391 141.450883 
L 153.500215 141.738899 
L 153.48232 142.029743 
L 153.467218 142.323472 
L 153.455427 142.620143 
L 153.447462 142.919817 
L 153.443841 143.222555 
L 153.445079 143.528419 
L 153.451691 143.837475 
L 153.464191 144.149791 
L 153.48309 144.465435 
L 153.508897 144.784481 
L 153.54212 145.107001 
L 153.583263 145.433072 
L 153.632825 145.762773 
L 153.691301 146.096187 
L 153.759178 146.433397 
L 153.836932 146.774492 
L 153.925025 147.119561 
L 154.0239 147.468698 
L 154.133976 147.822001 
L 154.255641 148.179569 
L 154.389246 148.541508 
L 154.535091 148.907925 
L 154.693425 149.278933 
L 154.864427 149.654648 
L 155.048199 150.035192 
L 155.244753 150.420689 
L 155.454003 150.81127 
L 155.675747 151.207072 
L 155.90966 151.608236 
L 156.155284 152.014908 
L 156.412011 152.427244 
L 156.679082 152.845401 
L 156.955575 153.269548 
L 157.240399 153.699859 
L 157.532296 154.136514 
L 157.829832 154.579704 
L 158.131407 155.029628 
L 158.435257 155.486494 
L 158.739463 155.950518 
L 159.041964 156.421929 
L 159.340572 156.900965 
L 159.632995 157.387879 
L 159.916857 157.882932 
L 160.189725 158.386402 
L 160.449141 158.89858 
L 160.692653 159.419772 
L 160.91785 159.950302 
L 161.122394 160.49051 
L 161.304066 161.040755 
L 161.460791 161.601419 
L 161.590684 162.172902 
L 161.69208 162.755632 
L 161.763563 163.350058 
L 161.804 163.956662 
L 161.812562 164.575951 
L 161.788744 165.208468 
L 161.73238 165.85479 
L 161.643648 166.515534 
L 161.523076 167.191357 
L 161.371536 167.882964 
L 161.19023 168.591111 
L 160.980676 169.316607 
L 160.744687 170.060324 
L 160.484335 170.823201 
L 160.201926 171.606251 
L 159.899958 172.410571 
L 159.581082 173.237347 
z
" clip-path="url(#pd93935ab96)" style="fill: #ff7f0e; fill-opacity: 0.3"/>
   </g>
   <g id="PolyCollection_10">
    <path d="M 199.318926 169.114349 
L 183.750826 169.114349 
L 183.442595 168.393737 
L 183.151579 167.690245 
L 182.880247 167.003077 
L 182.630906 166.331494 
L 182.405672 165.674803 
L 182.206431 165.03236 
L 182.034811 164.403558 
L 181.89216 163.787831 
L 181.779526 163.184646 
L 181.697641 162.593502 
L 181.646916 162.013928 
L 181.627438 161.445479 
L 181.638972 160.887737 
L 181.680974 160.340305 
L 181.752604 159.80281 
L 181.852743 159.274897 
L 181.980023 158.75623 
L 182.132846 158.246491 
L 182.309422 157.745378 
L 182.507795 157.252603 
L 182.725879 156.767895 
L 182.961489 156.290992 
L 183.212377 155.821648 
L 183.476263 155.359626 
L 183.750864 154.904703 
L 184.033927 154.456662 
L 184.323247 154.015299 
L 184.6167 153.580417 
L 184.912255 153.15183 
L 185.207995 152.729357 
L 185.502129 152.312826 
L 185.793004 151.902073 
L 186.079112 151.496939 
L 186.359093 151.097273 
L 186.631738 150.70293 
L 186.895991 150.313768 
L 187.150941 149.929654 
L 187.395823 149.550459 
L 187.630009 149.176058 
L 187.852999 148.806332 
L 188.064417 148.441164 
L 188.264 148.080445 
L 188.451587 147.724067 
L 188.62711 147.371926 
L 188.790588 147.023924 
L 188.942109 146.679964 
L 189.081831 146.339953 
L 189.209962 146.003801 
L 189.326763 145.671423 
L 189.432529 145.342734 
L 189.527593 145.017653 
L 189.612311 144.696101 
L 189.68706 144.378004 
L 189.752237 144.063288 
L 189.808247 143.75188 
L 189.855509 143.443714 
L 189.894449 143.138721 
L 189.925499 142.836838 
L 189.949097 142.538 
L 189.965686 142.242149 
L 189.975716 141.949223 
L 189.979643 141.659167 
L 189.977928 141.371925 
L 189.971042 141.087442 
L 189.959461 140.805665 
L 189.943672 140.526545 
L 189.924169 140.250031 
L 189.901456 139.976075 
L 189.876045 139.70463 
L 189.848452 139.43565 
L 189.819202 139.169092 
L 189.788822 138.904912 
L 189.757838 138.643067 
L 189.726777 138.383518 
L 189.696159 138.126223 
L 189.666492 137.871145 
L 189.638275 137.618245 
L 189.611986 137.367487 
L 189.588082 137.118834 
L 189.566993 136.872252 
L 189.549117 136.627706 
L 189.534821 136.385163 
L 189.524428 136.14459 
L 189.518223 135.905956 
L 189.516444 135.669229 
L 189.519282 135.43438 
L 189.526878 135.201378 
L 189.539321 134.970196 
L 189.556653 134.740804 
L 189.57886 134.513176 
L 189.605879 134.287284 
L 189.6376 134.063102 
L 189.673864 133.840604 
L 189.714467 133.619765 
L 189.759166 133.400562 
L 189.807678 133.182969 
L 189.859689 132.966963 
L 189.914855 132.752521 
L 189.972809 132.539621 
L 193.096943 132.539621 
L 193.096943 132.539621 
L 193.154897 132.752521 
L 193.210063 132.966963 
L 193.262074 133.182969 
L 193.310587 133.400562 
L 193.355285 133.619765 
L 193.395888 133.840604 
L 193.432152 134.063102 
L 193.463873 134.287284 
L 193.490893 134.513176 
L 193.513099 134.740804 
L 193.530431 134.970196 
L 193.542875 135.201378 
L 193.55047 135.43438 
L 193.553308 135.669229 
L 193.551529 135.905956 
L 193.545324 136.14459 
L 193.534931 136.385163 
L 193.520635 136.627706 
L 193.50276 136.872252 
L 193.48167 137.118834 
L 193.457766 137.367487 
L 193.431477 137.618245 
L 193.40326 137.871145 
L 193.373593 138.126223 
L 193.342975 138.383518 
L 193.311914 138.643067 
L 193.28093 138.904912 
L 193.25055 139.169092 
L 193.2213 139.43565 
L 193.193707 139.70463 
L 193.168296 139.976075 
L 193.145583 140.250031 
L 193.12608 140.526545 
L 193.110291 140.805665 
L 193.09871 141.087442 
L 193.091824 141.371925 
L 193.090109 141.659167 
L 193.094036 141.949223 
L 193.104066 142.242149 
L 193.120656 142.538 
L 193.144253 142.836838 
L 193.175303 143.138721 
L 193.214243 143.443714 
L 193.261505 143.75188 
L 193.317516 144.063288 
L 193.382692 144.378004 
L 193.457441 144.696101 
L 193.542159 145.017653 
L 193.637223 145.342734 
L 193.74299 145.671423 
L 193.85979 146.003801 
L 193.987921 146.339953 
L 194.127643 146.679964 
L 194.279164 147.023924 
L 194.442642 147.371926 
L 194.618166 147.724067 
L 194.805752 148.080445 
L 195.005335 148.441164 
L 195.216753 148.806332 
L 195.439744 149.176058 
L 195.673929 149.550459 
L 195.918811 149.929654 
L 196.173761 150.313768 
L 196.438014 150.70293 
L 196.710659 151.097273 
L 196.99064 151.496939 
L 197.276748 151.902073 
L 197.567623 152.312826 
L 197.861757 152.729357 
L 198.157497 153.15183 
L 198.453052 153.580417 
L 198.746505 154.015299 
L 199.035825 154.456662 
L 199.318888 154.904703 
L 199.593489 155.359626 
L 199.857375 155.821648 
L 200.108263 156.290992 
L 200.343873 156.767895 
L 200.561957 157.252603 
L 200.76033 157.745378 
L 200.936906 158.246491 
L 201.08973 158.75623 
L 201.217009 159.274897 
L 201.317148 159.80281 
L 201.388778 160.340305 
L 201.43078 160.887737 
L 201.442314 161.445479 
L 201.422836 162.013928 
L 201.372111 162.593502 
L 201.290226 163.184646 
L 201.177592 163.787831 
L 201.034941 164.403558 
L 200.863321 165.03236 
L 200.66408 165.674803 
L 200.438846 166.331494 
L 200.189505 167.003077 
L 199.918173 167.690245 
L 199.627157 168.393737 
L 199.318926 169.114349 
z
" clip-path="url(#pd93935ab96)" style="fill: #ff7f0e; fill-opacity: 0.3"/>
   </g>
   <g id="PolyCollection_11">
    <path d="M 238.873985 155.937714 
L 223.455271 155.937714 
L 223.168302 155.500171 
L 222.895277 155.068999 
L 222.638098 154.644015 
L 222.398567 154.225044 
L 222.178356 153.811917 
L 221.978991 153.404475 
L 221.801835 153.002562 
L 221.648068 152.606032 
L 221.518677 152.21474 
L 221.414441 151.828552 
L 221.335932 151.447335 
L 221.2835 151.070963 
L 221.25728 150.699315 
L 221.25719 150.332273 
L 221.282935 149.969724 
L 221.334016 149.611561 
L 221.40974 149.257678 
L 221.509229 148.907973 
L 221.631438 148.56235 
L 221.775167 148.220715 
L 221.939083 147.882976 
L 222.121731 147.549045 
L 222.321561 147.218838 
L 222.53694 146.892272 
L 222.766178 146.569268 
L 223.007541 146.249749 
L 223.259274 145.933641 
L 223.519618 145.620872 
L 223.786827 145.311371 
L 224.059183 145.005072 
L 224.335013 144.701908 
L 224.612702 144.401817 
L 224.890702 144.104736 
L 225.167546 143.810606 
L 225.441858 143.519368 
L 225.712355 143.230967 
L 225.977855 142.945347 
L 226.237284 142.662456 
L 226.489675 142.382242 
L 226.734168 142.104654 
L 226.970015 141.829644 
L 227.196571 141.557165 
L 227.413298 141.28717 
L 227.619756 141.019614 
L 227.8156 140.754454 
L 228.000575 140.491647 
L 228.17451 140.231152 
L 228.337308 139.972929 
L 228.488943 139.716937 
L 228.629452 139.46314 
L 228.758925 139.211499 
L 228.877504 138.961978 
L 228.98537 138.714543 
L 229.08274 138.469157 
L 229.169863 138.225789 
L 229.247013 137.984404 
L 229.314485 137.74497 
L 229.372593 137.507457 
L 229.421666 137.271834 
L 229.462048 137.038071 
L 229.494094 136.806139 
L 229.518173 136.576009 
L 229.534666 136.347653 
L 229.543968 136.121045 
L 229.546488 135.896158 
L 229.542651 135.672966 
L 229.532899 135.451443 
L 229.517694 135.231565 
L 229.497516 135.013308 
L 229.472866 134.796648 
L 229.444267 134.581561 
L 229.412263 134.368025 
L 229.377417 134.156018 
L 229.34031 133.945517 
L 229.301542 133.736503 
L 229.261723 133.528953 
L 229.221476 133.322848 
L 229.181425 133.118168 
L 229.142196 132.914892 
L 229.104408 132.713003 
L 229.068669 132.51248 
L 229.035566 132.313306 
L 229.005661 132.115463 
L 228.979485 131.918932 
L 228.957527 131.723698 
L 228.940233 131.529742 
L 228.927996 131.337048 
L 228.921154 131.1456 
L 228.91998 130.955381 
L 228.924686 130.766377 
L 228.935415 130.578571 
L 228.952238 130.391949 
L 228.975159 130.206495 
L 229.004112 130.022196 
L 229.03896 129.839037 
L 229.079504 129.657003 
L 229.125482 129.476082 
L 229.176575 129.296259 
L 229.232412 129.117521 
L 233.096844 129.117521 
L 233.096844 129.117521 
L 233.152682 129.296259 
L 233.203774 129.476082 
L 233.249752 129.657003 
L 233.290296 129.839037 
L 233.325145 130.022196 
L 233.354097 130.206495 
L 233.377018 130.391949 
L 233.393842 130.578571 
L 233.40457 130.766377 
L 233.409276 130.955381 
L 233.408103 131.1456 
L 233.40126 131.337048 
L 233.389023 131.529742 
L 233.371729 131.723698 
L 233.349771 131.918932 
L 233.323595 132.115463 
L 233.29369 132.313306 
L 233.260587 132.51248 
L 233.224848 132.713003 
L 233.18706 132.914892 
L 233.147831 133.118168 
L 233.10778 133.322848 
L 233.067533 133.528953 
L 233.027714 133.736503 
L 232.988946 133.945517 
L 232.95184 134.156018 
L 232.916993 134.368025 
L 232.884989 134.581561 
L 232.85639 134.796648 
L 232.831741 135.013308 
L 232.811563 135.231565 
L 232.796357 135.451443 
L 232.786606 135.672966 
L 232.782769 135.896158 
L 232.785289 136.121045 
L 232.79459 136.347653 
L 232.811083 136.576009 
L 232.835162 136.806139 
L 232.867208 137.038071 
L 232.90759 137.271834 
L 232.956663 137.507457 
L 233.014771 137.74497 
L 233.082243 137.984404 
L 233.159393 138.225789 
L 233.246516 138.469157 
L 233.343887 138.714543 
L 233.451752 138.961978 
L 233.570331 139.211499 
L 233.699804 139.46314 
L 233.840313 139.716937 
L 233.991949 139.972929 
L 234.154747 140.231152 
L 234.328681 140.491647 
L 234.513656 140.754454 
L 234.7095 141.019614 
L 234.915958 141.28717 
L 235.132685 141.557165 
L 235.359241 141.829644 
L 235.595088 142.104654 
L 235.839581 142.382242 
L 236.091972 142.662456 
L 236.351401 142.945347 
L 236.616902 143.230967 
L 236.887398 143.519368 
L 237.16171 143.810606 
L 237.438555 144.104736 
L 237.716555 144.401817 
L 237.994243 144.701908 
L 238.270073 145.005072 
L 238.542429 145.311371 
L 238.809638 145.620872 
L 239.069982 145.933641 
L 239.321715 146.249749 
L 239.563078 146.569268 
L 239.792316 146.892272 
L 240.007696 147.218838 
L 240.207525 147.549045 
L 240.390174 147.882976 
L 240.554089 148.220715 
L 240.697818 148.56235 
L 240.820027 148.907973 
L 240.919516 149.257678 
L 240.99524 149.611561 
L 241.046321 149.969724 
L 241.072066 150.332273 
L 241.071976 150.699315 
L 241.045756 151.070963 
L 240.993324 151.447335 
L 240.914815 151.828552 
L 240.81058 152.21474 
L 240.681188 152.606032 
L 240.527421 153.002562 
L 240.350265 153.404475 
L 240.150901 153.811917 
L 239.930689 154.225044 
L 239.691158 154.644015 
L 239.433979 155.068999 
L 239.160954 155.500171 
L 238.873985 155.937714 
z
" clip-path="url(#pd93935ab96)" style="fill: #ff7f0e; fill-opacity: 0.3"/>
   </g>
   <g id="PolyCollection_12">
    <path d="M 277.632521 108.352122 
L 263.956239 108.352122 
L 263.650877 108.183954 
L 263.353536 108.016735 
L 263.066088 107.850456 
L 262.790356 107.685105 
L 262.528089 107.520672 
L 262.280942 107.357147 
L 262.050454 107.19452 
L 261.838029 107.032781 
L 261.644921 106.871921 
L 261.472217 106.71193 
L 261.320824 106.552798 
L 261.191467 106.394517 
L 261.084673 106.237078 
L 261.000779 106.080471 
L 260.939924 105.924688 
L 260.902057 105.76972 
L 260.886942 105.615559 
L 260.894168 105.462197 
L 260.923157 105.309624 
L 260.973183 105.157834 
L 261.04338 105.006817 
L 261.132765 104.856567 
L 261.24025 104.707075 
L 261.364661 104.558334 
L 261.504758 104.410337 
L 261.65925 104.263075 
L 261.826813 104.116542 
L 262.006106 103.970731 
L 262.195786 103.825634 
L 262.394522 103.681244 
L 262.601008 103.537555 
L 262.813971 103.39456 
L 263.032184 103.252252 
L 263.254471 103.110625 
L 263.479715 102.969672 
L 263.706859 102.829386 
L 263.934912 102.689762 
L 264.162951 102.550793 
L 264.390117 102.412474 
L 264.615618 102.274797 
L 264.838729 102.137757 
L 265.058784 102.001349 
L 265.275177 101.865566 
L 265.487358 101.730403 
L 265.694828 101.595854 
L 265.897136 101.461913 
L 266.093874 101.328576 
L 266.284675 101.195836 
L 266.469207 101.063689 
L 266.647169 100.932129 
L 266.81829 100.80115 
L 266.982323 100.670748 
L 267.139045 100.540918 
L 267.288254 100.411655 
L 267.429766 100.282954 
L 267.563416 100.154809 
L 267.689056 100.027217 
L 267.806555 99.900171 
L 267.915801 99.773669 
L 268.016699 99.647705 
L 268.109175 99.522274 
L 268.193179 99.397372 
L 268.268684 99.272995 
L 268.335692 99.149138 
L 268.394236 99.025797 
L 268.444383 98.902968 
L 268.486239 98.780646 
L 268.519952 98.658827 
L 268.545714 98.537507 
L 268.563767 98.416682 
L 268.574403 98.296348 
L 268.577968 98.176501 
L 268.574864 98.057137 
L 268.565548 97.938252 
L 268.550534 97.819843 
L 268.53039 97.701905 
L 268.505735 97.584435 
L 268.47724 97.46743 
L 268.445617 97.350884 
L 268.411619 97.234796 
L 268.376028 97.119161 
L 268.339651 97.003975 
L 268.303306 96.889236 
L 268.26782 96.77494 
L 268.234008 96.661083 
L 268.202673 96.547663 
L 268.174585 96.434675 
L 268.150478 96.322116 
L 268.131034 96.209984 
L 268.116875 96.098274 
L 268.108553 95.986985 
L 268.106544 95.876112 
L 268.111235 95.765653 
L 268.122927 95.655604 
L 268.141822 95.545963 
L 268.168027 95.436726 
L 268.201551 95.32789 
L 268.242306 95.219453 
L 268.290111 95.111412 
L 273.298649 95.111412 
L 273.298649 95.111412 
L 273.346454 95.219453 
L 273.387209 95.32789 
L 273.420733 95.436726 
L 273.446939 95.545963 
L 273.465834 95.655604 
L 273.477525 95.765653 
L 273.482217 95.876112 
L 273.480207 95.986985 
L 273.471886 96.098274 
L 273.457727 96.209984 
L 273.438283 96.322116 
L 273.414176 96.434675 
L 273.386088 96.547663 
L 273.354752 96.661083 
L 273.320941 96.77494 
L 273.285454 96.889236 
L 273.24911 97.003975 
L 273.212732 97.119161 
L 273.177141 97.234796 
L 273.143143 97.350884 
L 273.11152 97.46743 
L 273.083025 97.584435 
L 273.05837 97.701905 
L 273.038226 97.819843 
L 273.023212 97.938252 
L 273.013896 98.057137 
L 273.010792 98.176501 
L 273.014357 98.296348 
L 273.024993 98.416682 
L 273.043046 98.537507 
L 273.068808 98.658827 
L 273.102521 98.780646 
L 273.144377 98.902968 
L 273.194525 99.025797 
L 273.253069 99.149138 
L 273.320077 99.272995 
L 273.395582 99.397372 
L 273.479585 99.522274 
L 273.572062 99.647705 
L 273.67296 99.773669 
L 273.782205 99.900171 
L 273.899705 100.027217 
L 274.025345 100.154809 
L 274.158995 100.282954 
L 274.300507 100.411655 
L 274.449716 100.540918 
L 274.606438 100.670748 
L 274.77047 100.80115 
L 274.941591 100.932129 
L 275.119553 101.063689 
L 275.304085 101.195836 
L 275.494886 101.328576 
L 275.691625 101.461913 
L 275.893933 101.595854 
L 276.101403 101.730403 
L 276.313583 101.865566 
L 276.529976 102.001349 
L 276.750031 102.137757 
L 276.973142 102.274797 
L 277.198644 102.412474 
L 277.425809 102.550793 
L 277.653848 102.689762 
L 277.881901 102.829386 
L 278.109045 102.969672 
L 278.334289 103.110625 
L 278.556577 103.252252 
L 278.77479 103.39456 
L 278.987753 103.537555 
L 279.194238 103.681244 
L 279.392974 103.825634 
L 279.582654 103.970731 
L 279.761947 104.116542 
L 279.92951 104.263075 
L 280.084002 104.410337 
L 280.224099 104.558334 
L 280.348511 104.707075 
L 280.455995 104.856567 
L 280.54538 105.006817 
L 280.615577 105.157834 
L 280.665603 105.309624 
L 280.694593 105.462197 
L 280.701818 105.615559 
L 280.686703 105.76972 
L 280.648836 105.924688 
L 280.587981 106.080471 
L 280.504087 106.237078 
L 280.397294 106.394517 
L 280.267936 106.552798 
L 280.116544 106.71193 
L 279.943839 106.871921 
L 279.750731 107.032781 
L 279.538307 107.19452 
L 279.307819 107.357147 
L 279.060671 107.520672 
L 278.798404 107.685105 
L 278.522672 107.850456 
L 278.235225 108.016735 
L 277.937884 108.183954 
L 277.632521 108.352122 
z
" clip-path="url(#pd93935ab96)" style="fill: #ff7f0e; fill-opacity: 0.3"/>
   </g>
   <g id="matplotlib.axis_1">
    <g id="xtick_1">
     <g id="line2d_1">
      <defs>
       <path id="md931ba14d9" d="M 0 0 
L 0 3.5 
" style="stroke: #000000; stroke-width: 0.8"/>
      </defs>
      <g>
       <use xlink:href="#md931ba14d9" x="72.64562" y="181.44" style="stroke: #000000; stroke-width: 0.8"/>
      </g>
     </g>
     <g id="text_1">
      <!-- 0% -->
      <g transform="translate(64.713589 196.038437)scale(0.1 -0.1)">
       <defs>
        <path id="DejaVuSans-30" d="M 2034 4250 
Q 1547 4250 1301 3770 
Q 1056 3291 1056 2328 
Q 1056 1369 1301 889 
Q 1547 409 2034 409 
Q 2525 409 2770 889 
Q 3016 1369 3016 2328 
Q 3016 3291 2770 3770 
Q 2525 4250 2034 4250 
z
M 2034 4750 
Q 2819 4750 3233 4129 
Q 3647 3509 3647 2328 
Q 3647 1150 3233 529 
Q 2819 -91 2034 -91 
Q 1250 -91 836 529 
Q 422 1150 422 2328 
Q 422 3509 836 4129 
Q 1250 4750 2034 4750 
z
" transform="scale(0.015625)"/>
        <path id="DejaVuSans-25" d="M 4653 2053 
Q 4381 2053 4226 1822 
Q 4072 1591 4072 1178 
Q 4072 772 4226 539 
Q 4381 306 4653 306 
Q 4919 306 5073 539 
Q 5228 772 5228 1178 
Q 5228 1588 5073 1820 
Q 4919 2053 4653 2053 
z
M 4653 2450 
Q 5147 2450 5437 2106 
Q 5728 1763 5728 1178 
Q 5728 594 5436 251 
Q 5144 -91 4653 -91 
Q 4153 -91 3862 251 
Q 3572 594 3572 1178 
Q 3572 1766 3864 2108 
Q 4156 2450 4653 2450 
z
M 1428 4353 
Q 1159 4353 1004 4120 
Q 850 3888 850 3481 
Q 850 3069 1003 2837 
Q 1156 2606 1428 2606 
Q 1700 2606 1854 2837 
Q 2009 3069 2009 3481 
Q 2009 3884 1853 4118 
Q 1697 4353 1428 4353 
z
M 4250 4750 
L 4750 4750 
L 1831 -91 
L 1331 -91 
L 4250 4750 
z
M 1428 4750 
Q 1922 4750 2215 4408 
Q 2509 4066 2509 3481 
Q 2509 2891 2217 2550 
Q 1925 2209 1428 2209 
Q 931 2209 642 2551 
Q 353 2894 353 3481 
Q 353 4063 643 4406 
Q 934 4750 1428 4750 
z
" transform="scale(0.015625)"/>
       </defs>
       <use xlink:href="#DejaVuSans-30"/>
       <use xlink:href="#DejaVuSans-25" x="63.623047"/>
      </g>
     </g>
    </g>
    <g id="xtick_2">
     <g id="line2d_2">
      <g>
       <use xlink:href="#md931ba14d9" x="112.275372" y="181.44" style="stroke: #000000; stroke-width: 0.8"/>
      </g>
     </g>
     <g id="text_2">
      <!-- 0.2% -->
      <g transform="translate(99.573028 196.038437)scale(0.1 -0.1)">
       <defs>
        <path id="DejaVuSans-2e" d="M 684 794 
L 1344 794 
L 1344 0 
L 684 0 
L 684 794 
z
" transform="scale(0.015625)"/>
        <path id="DejaVuSans-32" d="M 1228 531 
L 3431 531 
L 3431 0 
L 469 0 
L 469 531 
Q 828 903 1448 1529 
Q 2069 2156 2228 2338 
Q 2531 2678 2651 2914 
Q 2772 3150 2772 3378 
Q 2772 3750 2511 3984 
Q 2250 4219 1831 4219 
Q 1534 4219 1204 4116 
Q 875 4013 500 3803 
L 500 4441 
Q 881 4594 1212 4672 
Q 1544 4750 1819 4750 
Q 2544 4750 2975 4387 
Q 3406 4025 3406 3419 
Q 3406 3131 3298 2873 
Q 3191 2616 2906 2266 
Q 2828 2175 2409 1742 
Q 1991 1309 1228 531 
z
" transform="scale(0.015625)"/>
       </defs>
       <use xlink:href="#DejaVuSans-30"/>
       <use xlink:href="#DejaVuSans-2e" x="63.623047"/>
       <use xlink:href="#DejaVuSans-32" x="95.410156"/>
       <use xlink:href="#DejaVuSans-25" x="159.033203"/>
      </g>
     </g>
    </g>
    <g id="xtick_3">
     <g id="line2d_3">
      <g>
       <use xlink:href="#md931ba14d9" x="151.905124" y="181.44" style="stroke: #000000; stroke-width: 0.8"/>
      </g>
     </g>
     <g id="text_3">
      <!-- 1% -->
      <g transform="translate(143.973093 196.038437)scale(0.1 -0.1)">
       <defs>
        <path id="DejaVuSans-31" d="M 794 531 
L 1825 531 
L 1825 4091 
L 703 3866 
L 703 4441 
L 1819 4666 
L 2450 4666 
L 2450 531 
L 3481 531 
L 3481 0 
L 794 0 
L 794 531 
z
" transform="scale(0.015625)"/>
       </defs>
       <use xlink:href="#DejaVuSans-31"/>
       <use xlink:href="#DejaVuSans-25" x="63.623047"/>
      </g>
     </g>
    </g>
    <g id="xtick_4">
     <g id="line2d_4">
      <g>
       <use xlink:href="#md931ba14d9" x="191.534876" y="181.44" style="stroke: #000000; stroke-width: 0.8"/>
      </g>
     </g>
     <g id="text_4">
      <!-- 5% -->
      <g transform="translate(183.602845 196.038437)scale(0.1 -0.1)">
       <defs>
        <path id="DejaVuSans-35" d="M 691 4666 
L 3169 4666 
L 3169 4134 
L 1269 4134 
L 1269 2991 
Q 1406 3038 1543 3061 
Q 1681 3084 1819 3084 
Q 2600 3084 3056 2656 
Q 3513 2228 3513 1497 
Q 3513 744 3044 326 
Q 2575 -91 1722 -91 
Q 1428 -91 1123 -41 
Q 819 9 494 109 
L 494 744 
Q 775 591 1075 516 
Q 1375 441 1709 441 
Q 2250 441 2565 725 
Q 2881 1009 2881 1497 
Q 2881 1984 2565 2268 
Q 2250 2553 1709 2553 
Q 1456 2553 1204 2497 
Q 953 2441 691 2322 
L 691 4666 
z
" transform="scale(0.015625)"/>
       </defs>
       <use xlink:href="#DejaVuSans-35"/>
       <use xlink:href="#DejaVuSans-25" x="63.623047"/>
      </g>
     </g>
    </g>
    <g id="xtick_5">
     <g id="line2d_5">
      <g>
       <use xlink:href="#md931ba14d9" x="231.164628" y="181.44" style="stroke: #000000; stroke-width: 0.8"/>
      </g>
     </g>
     <g id="text_5">
      <!-- 25% -->
      <g transform="translate(220.051347 196.038437)scale(0.1 -0.1)">
       <use xlink:href="#DejaVuSans-32"/>
       <use xlink:href="#DejaVuSans-35" x="63.623047"/>
       <use xlink:href="#DejaVuSans-25" x="127.246094"/>
      </g>
     </g>
    </g>
    <g id="xtick_6">
     <g id="line2d_6">
      <g>
       <use xlink:href="#md931ba14d9" x="270.79438" y="181.44" style="stroke: #000000; stroke-width: 0.8"/>
      </g>
     </g>
     <g id="text_6">
      <!-- 125% -->
      <g transform="translate(256.499849 196.038437)scale(0.1 -0.1)">
       <use xlink:href="#DejaVuSans-31"/>
       <use xlink:href="#DejaVuSans-32" x="63.623047"/>
       <use xlink:href="#DejaVuSans-35" x="127.246094"/>
       <use xlink:href="#DejaVuSans-25" x="190.869141"/>
      </g>
     </g>
    </g>
    <g id="text_7">
     <!-- Noise Level -->
     <g transform="translate(143.060625 209.716562)scale(0.1 -0.1)">
      <defs>
       <path id="DejaVuSans-4e" d="M 628 4666 
L 1478 4666 
L 3547 763 
L 3547 4666 
L 4159 4666 
L 4159 0 
L 3309 0 
L 1241 3903 
L 1241 0 
L 628 0 
L 628 4666 
z
" transform="scale(0.015625)"/>
       <path id="DejaVuSans-6f" d="M 1959 3097 
Q 1497 3097 1228 2736 
Q 959 2375 959 1747 
Q 959 1119 1226 758 
Q 1494 397 1959 397 
Q 2419 397 2687 759 
Q 2956 1122 2956 1747 
Q 2956 2369 2687 2733 
Q 2419 3097 1959 3097 
z
M 1959 3584 
Q 2709 3584 3137 3096 
Q 3566 2609 3566 1747 
Q 3566 888 3137 398 
Q 2709 -91 1959 -91 
Q 1206 -91 779 398 
Q 353 888 353 1747 
Q 353 2609 779 3096 
Q 1206 3584 1959 3584 
z
" transform="scale(0.015625)"/>
       <path id="DejaVuSans-69" d="M 603 3500 
L 1178 3500 
L 1178 0 
L 603 0 
L 603 3500 
z
M 603 4863 
L 1178 4863 
L 1178 4134 
L 603 4134 
L 603 4863 
z
" transform="scale(0.015625)"/>
       <path id="DejaVuSans-73" d="M 2834 3397 
L 2834 2853 
Q 2591 2978 2328 3040 
Q 2066 3103 1784 3103 
Q 1356 3103 1142 2972 
Q 928 2841 928 2578 
Q 928 2378 1081 2264 
Q 1234 2150 1697 2047 
L 1894 2003 
Q 2506 1872 2764 1633 
Q 3022 1394 3022 966 
Q 3022 478 2636 193 
Q 2250 -91 1575 -91 
Q 1294 -91 989 -36 
Q 684 19 347 128 
L 347 722 
Q 666 556 975 473 
Q 1284 391 1588 391 
Q 1994 391 2212 530 
Q 2431 669 2431 922 
Q 2431 1156 2273 1281 
Q 2116 1406 1581 1522 
L 1381 1569 
Q 847 1681 609 1914 
Q 372 2147 372 2553 
Q 372 3047 722 3315 
Q 1072 3584 1716 3584 
Q 2034 3584 2315 3537 
Q 2597 3491 2834 3397 
z
" transform="scale(0.015625)"/>
       <path id="DejaVuSans-65" d="M 3597 1894 
L 3597 1613 
L 953 1613 
Q 991 1019 1311 708 
Q 1631 397 2203 397 
Q 2534 397 2845 478 
Q 3156 559 3463 722 
L 3463 178 
Q 3153 47 2828 -22 
Q 2503 -91 2169 -91 
Q 1331 -91 842 396 
Q 353 884 353 1716 
Q 353 2575 817 3079 
Q 1281 3584 2069 3584 
Q 2775 3584 3186 3129 
Q 3597 2675 3597 1894 
z
M 3022 2063 
Q 3016 2534 2758 2815 
Q 2500 3097 2075 3097 
Q 1594 3097 1305 2825 
Q 1016 2553 972 2059 
L 3022 2063 
z
" transform="scale(0.015625)"/>
       <path id="DejaVuSans-20" transform="scale(0.015625)"/>
       <path id="DejaVuSans-4c" d="M 628 4666 
L 1259 4666 
L 1259 531 
L 3531 531 
L 3531 0 
L 628 0 
L 628 4666 
z
" transform="scale(0.015625)"/>
       <path id="DejaVuSans-76" d="M 191 3500 
L 800 3500 
L 1894 563 
L 2988 3500 
L 3597 3500 
L 2284 0 
L 1503 0 
L 191 3500 
z
" transform="scale(0.015625)"/>
       <path id="DejaVuSans-6c" d="M 603 4863 
L 1178 4863 
L 1178 0 
L 603 0 
L 603 4863 
z
" transform="scale(0.015625)"/>
      </defs>
      <use xlink:href="#DejaVuSans-4e"/>
      <use xlink:href="#DejaVuSans-6f" x="74.804688"/>
      <use xlink:href="#DejaVuSans-69" x="135.986328"/>
      <use xlink:href="#DejaVuSans-73" x="163.769531"/>
      <use xlink:href="#DejaVuSans-65" x="215.869141"/>
      <use xlink:href="#DejaVuSans-20" x="277.392578"/>
      <use xlink:href="#DejaVuSans-4c" x="309.179688"/>
      <use xlink:href="#DejaVuSans-65" x="363.142578"/>
      <use xlink:href="#DejaVuSans-76" x="424.666016"/>
      <use xlink:href="#DejaVuSans-65" x="483.845703"/>
      <use xlink:href="#DejaVuSans-6c" x="545.369141"/>
     </g>
    </g>
   </g>
   <g id="matplotlib.axis_2">
    <g id="ytick_1">
     <g id="line2d_7">
      <defs>
       <path id="m2764253ff2" d="M 0 0 
L -3.5 0 
" style="stroke: #000000; stroke-width: 0.8"/>
      </defs>
      <g>
       <use xlink:href="#m2764253ff2" x="51.84" y="170.225516" style="stroke: #000000; stroke-width: 0.8"/>
      </g>
     </g>
     <g id="text_8">
      <!-- $\mathdefault{10^{-3}}$ -->
      <g transform="translate(21.34 174.024735)scale(0.1 -0.1)">
       <defs>
        <path id="DejaVuSans-2212" d="M 678 2272 
L 4684 2272 
L 4684 1741 
L 678 1741 
L 678 2272 
z
" transform="scale(0.015625)"/>
        <path id="DejaVuSans-33" d="M 2597 2516 
Q 3050 2419 3304 2112 
Q 3559 1806 3559 1356 
Q 3559 666 3084 287 
Q 2609 -91 1734 -91 
Q 1441 -91 1130 -33 
Q 819 25 488 141 
L 488 750 
Q 750 597 1062 519 
Q 1375 441 1716 441 
Q 2309 441 2620 675 
Q 2931 909 2931 1356 
Q 2931 1769 2642 2001 
Q 2353 2234 1838 2234 
L 1294 2234 
L 1294 2753 
L 1863 2753 
Q 2328 2753 2575 2939 
Q 2822 3125 2822 3475 
Q 2822 3834 2567 4026 
Q 2313 4219 1838 4219 
Q 1578 4219 1281 4162 
Q 984 4106 628 3988 
L 628 4550 
Q 988 4650 1302 4700 
Q 1616 4750 1894 4750 
Q 2613 4750 3031 4423 
Q 3450 4097 3450 3541 
Q 3450 3153 3228 2886 
Q 3006 2619 2597 2516 
z
" transform="scale(0.015625)"/>
       </defs>
       <use xlink:href="#DejaVuSans-31" transform="translate(0 0.765625)"/>
       <use xlink:href="#DejaVuSans-30" transform="translate(63.623047 0.765625)"/>
       <use xlink:href="#DejaVuSans-2212" transform="translate(128.203125 39.046875)scale(0.7)"/>
       <use xlink:href="#DejaVuSans-33" transform="translate(186.855469 39.046875)scale(0.7)"/>
      </g>
     </g>
    </g>
    <g id="ytick_2">
     <g id="line2d_8">
      <g>
       <use xlink:href="#m2764253ff2" x="51.84" y="102.037504" style="stroke: #000000; stroke-width: 0.8"/>
      </g>
     </g>
     <g id="text_9">
      <!-- $\mathdefault{10^{-2}}$ -->
      <g transform="translate(21.34 105.836723)scale(0.1 -0.1)">
       <use xlink:href="#DejaVuSans-31" transform="translate(0 0.765625)"/>
       <use xlink:href="#DejaVuSans-30" transform="translate(63.623047 0.765625)"/>
       <use xlink:href="#DejaVuSans-2212" transform="translate(128.203125 39.046875)scale(0.7)"/>
       <use xlink:href="#DejaVuSans-32" transform="translate(186.855469 39.046875)scale(0.7)"/>
      </g>
     </g>
    </g>
    <g id="ytick_3">
     <g id="line2d_9">
      <g>
       <use xlink:href="#m2764253ff2" x="51.84" y="33.849491" style="stroke: #000000; stroke-width: 0.8"/>
      </g>
     </g>
     <g id="text_10">
      <!-- $\mathdefault{10^{-1}}$ -->
      <g transform="translate(21.34 37.64871)scale(0.1 -0.1)">
       <use xlink:href="#DejaVuSans-31" transform="translate(0 0.684375)"/>
       <use xlink:href="#DejaVuSans-30" transform="translate(63.623047 0.684375)"/>
       <use xlink:href="#DejaVuSans-2212" transform="translate(128.203125 38.965625)scale(0.7)"/>
       <use xlink:href="#DejaVuSans-31" transform="translate(186.855469 38.965625)scale(0.7)"/>
      </g>
     </g>
    </g>
    <g id="ytick_4">
     <g id="line2d_10">
      <defs>
       <path id="ma5276a659d" d="M 0 0 
L -2 0 
" style="stroke: #000000; stroke-width: 0.6"/>
      </defs>
      <g>
       <use xlink:href="#ma5276a659d" x="51.84" y="180.787973" style="stroke: #000000; stroke-width: 0.6"/>
      </g>
     </g>
    </g>
    <g id="ytick_5">
     <g id="line2d_11">
      <g>
       <use xlink:href="#ma5276a659d" x="51.84" y="176.833618" style="stroke: #000000; stroke-width: 0.6"/>
      </g>
     </g>
    </g>
    <g id="ytick_6">
     <g id="line2d_12">
      <g>
       <use xlink:href="#ma5276a659d" x="51.84" y="173.345629" style="stroke: #000000; stroke-width: 0.6"/>
      </g>
     </g>
    </g>
    <g id="ytick_7">
     <g id="line2d_13">
      <g>
       <use xlink:href="#ma5276a659d" x="51.84" y="149.698879" style="stroke: #000000; stroke-width: 0.6"/>
      </g>
     </g>
    </g>
    <g id="ytick_8">
     <g id="line2d_14">
      <g>
       <use xlink:href="#ma5276a659d" x="51.84" y="137.691566" style="stroke: #000000; stroke-width: 0.6"/>
      </g>
     </g>
    </g>
    <g id="ytick_9">
     <g id="line2d_15">
      <g>
       <use xlink:href="#ma5276a659d" x="51.84" y="129.172242" style="stroke: #000000; stroke-width: 0.6"/>
      </g>
     </g>
    </g>
    <g id="ytick_10">
     <g id="line2d_16">
      <g>
       <use xlink:href="#ma5276a659d" x="51.84" y="122.564141" style="stroke: #000000; stroke-width: 0.6"/>
      </g>
     </g>
    </g>
    <g id="ytick_11">
     <g id="line2d_17">
      <g>
       <use xlink:href="#ma5276a659d" x="51.84" y="117.164929" style="stroke: #000000; stroke-width: 0.6"/>
      </g>
     </g>
    </g>
    <g id="ytick_12">
     <g id="line2d_18">
      <g>
       <use xlink:href="#ma5276a659d" x="51.84" y="112.599961" style="stroke: #000000; stroke-width: 0.6"/>
      </g>
     </g>
    </g>
    <g id="ytick_13">
     <g id="line2d_19">
      <g>
       <use xlink:href="#ma5276a659d" x="51.84" y="108.645605" style="stroke: #000000; stroke-width: 0.6"/>
      </g>
     </g>
    </g>
    <g id="ytick_14">
     <g id="line2d_20">
      <g>
       <use xlink:href="#ma5276a659d" x="51.84" y="105.157616" style="stroke: #000000; stroke-width: 0.6"/>
      </g>
     </g>
    </g>
    <g id="ytick_15">
     <g id="line2d_21">
      <g>
       <use xlink:href="#ma5276a659d" x="51.84" y="81.510867" style="stroke: #000000; stroke-width: 0.6"/>
      </g>
     </g>
    </g>
    <g id="ytick_16">
     <g id="line2d_22">
      <g>
       <use xlink:href="#ma5276a659d" x="51.84" y="69.503554" style="stroke: #000000; stroke-width: 0.6"/>
      </g>
     </g>
    </g>
    <g id="ytick_17">
     <g id="line2d_23">
      <g>
       <use xlink:href="#ma5276a659d" x="51.84" y="60.98423" style="stroke: #000000; stroke-width: 0.6"/>
      </g>
     </g>
    </g>
    <g id="ytick_18">
     <g id="line2d_24">
      <g>
       <use xlink:href="#ma5276a659d" x="51.84" y="54.376128" style="stroke: #000000; stroke-width: 0.6"/>
      </g>
     </g>
    </g>
    <g id="ytick_19">
     <g id="line2d_25">
      <g>
       <use xlink:href="#ma5276a659d" x="51.84" y="48.976917" style="stroke: #000000; stroke-width: 0.6"/>
      </g>
     </g>
    </g>
    <g id="ytick_20">
     <g id="line2d_26">
      <g>
       <use xlink:href="#ma5276a659d" x="51.84" y="44.411948" style="stroke: #000000; stroke-width: 0.6"/>
      </g>
     </g>
    </g>
    <g id="ytick_21">
     <g id="line2d_27">
      <g>
       <use xlink:href="#ma5276a659d" x="51.84" y="40.457593" style="stroke: #000000; stroke-width: 0.6"/>
      </g>
     </g>
    </g>
    <g id="ytick_22">
     <g id="line2d_28">
      <g>
       <use xlink:href="#ma5276a659d" x="51.84" y="36.969604" style="stroke: #000000; stroke-width: 0.6"/>
      </g>
     </g>
    </g>
    <g id="ytick_23">
     <g id="line2d_29">
      <g>
       <use xlink:href="#ma5276a659d" x="51.84" y="13.322854" style="stroke: #000000; stroke-width: 0.6"/>
      </g>
     </g>
    </g>
    <g id="text_11">
     <!-- $y_{err}$ -->
     <g transform="translate(15.24 103.19)rotate(-90)scale(0.1 -0.1)">
      <defs>
       <path id="DejaVuSans-Oblique-79" d="M 1588 -325 
Q 1188 -997 936 -1164 
Q 684 -1331 294 -1331 
L -159 -1331 
L -63 -850 
L 269 -850 
Q 509 -850 678 -719 
Q 847 -588 1056 -206 
L 1234 128 
L 459 3500 
L 1069 3500 
L 1650 819 
L 3256 3500 
L 3859 3500 
L 1588 -325 
z
" transform="scale(0.015625)"/>
       <path id="DejaVuSans-Oblique-65" d="M 3078 2063 
Q 3088 2113 3092 2166 
Q 3097 2219 3097 2272 
Q 3097 2653 2873 2875 
Q 2650 3097 2266 3097 
Q 1838 3097 1509 2826 
Q 1181 2556 1013 2059 
L 3078 2063 
z
M 3578 1613 
L 903 1613 
Q 884 1494 878 1425 
Q 872 1356 872 1306 
Q 872 872 1139 634 
Q 1406 397 1894 397 
Q 2269 397 2603 481 
Q 2938 566 3225 728 
L 3116 159 
Q 2806 34 2476 -28 
Q 2147 -91 1806 -91 
Q 1078 -91 686 257 
Q 294 606 294 1247 
Q 294 1794 489 2264 
Q 684 2734 1063 3103 
Q 1306 3334 1642 3459 
Q 1978 3584 2356 3584 
Q 2950 3584 3301 3228 
Q 3653 2872 3653 2272 
Q 3653 2128 3634 1964 
Q 3616 1800 3578 1613 
z
" transform="scale(0.015625)"/>
       <path id="DejaVuSans-Oblique-72" d="M 2853 2969 
Q 2766 3016 2653 3041 
Q 2541 3066 2413 3066 
Q 1953 3066 1609 2717 
Q 1266 2369 1153 1784 
L 800 0 
L 225 0 
L 909 3500 
L 1484 3500 
L 1375 2956 
Q 1603 3259 1920 3421 
Q 2238 3584 2597 3584 
Q 2691 3584 2781 3573 
Q 2872 3563 2963 3538 
L 2853 2969 
z
" transform="scale(0.015625)"/>
      </defs>
      <use xlink:href="#DejaVuSans-Oblique-79" transform="translate(0 0.3125)"/>
      <use xlink:href="#DejaVuSans-Oblique-65" transform="translate(59.179688 -16.09375)scale(0.7)"/>
      <use xlink:href="#DejaVuSans-Oblique-72" transform="translate(102.246094 -16.09375)scale(0.7)"/>
      <use xlink:href="#DejaVuSans-Oblique-72" transform="translate(131.025391 -16.09375)scale(0.7)"/>
     </g>
    </g>
   </g>
   <g id="LineCollection_1">
    <path d="M 67.691901 134.249306 
L 77.599339 134.249306 
" clip-path="url(#pd93935ab96)" style="fill: none; stroke: #1f77b4; stroke-width: 1.5"/>
    <path d="M 107.321653 135.065648 
L 117.229091 135.065648 
" clip-path="url(#pd93935ab96)" style="fill: none; stroke: #1f77b4; stroke-width: 1.5"/>
    <path d="M 146.951405 128.643899 
L 156.858843 128.643899 
" clip-path="url(#pd93935ab96)" style="fill: none; stroke: #1f77b4; stroke-width: 1.5"/>
    <path d="M 186.581157 133.848157 
L 196.488595 133.848157 
" clip-path="url(#pd93935ab96)" style="fill: none; stroke: #1f77b4; stroke-width: 1.5"/>
    <path d="M 226.210909 107.514402 
L 236.118347 107.514402 
" clip-path="url(#pd93935ab96)" style="fill: none; stroke: #1f77b4; stroke-width: 1.5"/>
    <path d="M 265.840661 40.693722 
L 275.748099 40.693722 
" clip-path="url(#pd93935ab96)" style="fill: none; stroke: #1f77b4; stroke-width: 1.5"/>
   </g>
   <g id="LineCollection_2">
    <path d="M 67.691901 156.489102 
L 77.599339 156.489102 
" clip-path="url(#pd93935ab96)" style="fill: none; stroke: #ff7f0e; stroke-width: 1.5"/>
    <path d="M 107.321653 156.847365 
L 117.229091 156.847365 
" clip-path="url(#pd93935ab96)" style="fill: none; stroke: #ff7f0e; stroke-width: 1.5"/>
    <path d="M 146.951405 156.887625 
L 156.858843 156.887625 
" clip-path="url(#pd93935ab96)" style="fill: none; stroke: #ff7f0e; stroke-width: 1.5"/>
    <path d="M 186.581157 154.151277 
L 196.488595 154.151277 
" clip-path="url(#pd93935ab96)" style="fill: none; stroke: #ff7f0e; stroke-width: 1.5"/>
    <path d="M 226.210909 145.54167 
L 236.118347 145.54167 
" clip-path="url(#pd93935ab96)" style="fill: none; stroke: #ff7f0e; stroke-width: 1.5"/>
    <path d="M 265.840661 103.127992 
L 275.748099 103.127992 
" clip-path="url(#pd93935ab96)" style="fill: none; stroke: #ff7f0e; stroke-width: 1.5"/>
   </g>
   <g id="patch_3">
    <path d="M 51.84 181.44 
L 51.84 8.64 
" style="fill: none; stroke: #000000; stroke-width: 0.8; stroke-linejoin: miter; stroke-linecap: square"/>
   </g>
   <g id="patch_4">
    <path d="M 291.6 181.44 
L 291.6 8.64 
" style="fill: none; stroke: #000000; stroke-width: 0.8; stroke-linejoin: miter; stroke-linecap: square"/>
   </g>
   <g id="patch_5">
    <path d="M 51.84 181.44 
L 291.6 181.44 
" style="fill: none; stroke: #000000; stroke-width: 0.8; stroke-linejoin: miter; stroke-linecap: square"/>
   </g>
   <g id="patch_6">
    <path d="M 51.84 8.64 
L 291.6 8.64 
" style="fill: none; stroke: #000000; stroke-width: 0.8; stroke-linejoin: miter; stroke-linecap: square"/>
   </g>
   <g id="legend_1">
    <g id="patch_7">
     <path d="M 60.84 25.238438 
L 80.84 25.238438 
L 80.84 18.238438 
L 60.84 18.238438 
z
" style="fill: #1f77b4; fill-opacity: 0.3"/>
    </g>
    <g id="text_12">
     <!-- Train with $CH_4$, $C_2H_4$ -->
     <g transform="translate(88.84 25.238438)scale(0.1 -0.1)">
      <defs>
       <path id="DejaVuSans-54" d="M -19 4666 
L 3928 4666 
L 3928 4134 
L 2272 4134 
L 2272 0 
L 1638 0 
L 1638 4134 
L -19 4134 
L -19 4666 
z
" transform="scale(0.015625)"/>
       <path id="DejaVuSans-72" d="M 2631 2963 
Q 2534 3019 2420 3045 
Q 2306 3072 2169 3072 
Q 1681 3072 1420 2755 
Q 1159 2438 1159 1844 
L 1159 0 
L 581 0 
L 581 3500 
L 1159 3500 
L 1159 2956 
Q 1341 3275 1631 3429 
Q 1922 3584 2338 3584 
Q 2397 3584 2469 3576 
Q 2541 3569 2628 3553 
L 2631 2963 
z
" transform="scale(0.015625)"/>
       <path id="DejaVuSans-61" d="M 2194 1759 
Q 1497 1759 1228 1600 
Q 959 1441 959 1056 
Q 959 750 1161 570 
Q 1363 391 1709 391 
Q 2188 391 2477 730 
Q 2766 1069 2766 1631 
L 2766 1759 
L 2194 1759 
z
M 3341 1997 
L 3341 0 
L 2766 0 
L 2766 531 
Q 2569 213 2275 61 
Q 1981 -91 1556 -91 
Q 1019 -91 701 211 
Q 384 513 384 1019 
Q 384 1609 779 1909 
Q 1175 2209 1959 2209 
L 2766 2209 
L 2766 2266 
Q 2766 2663 2505 2880 
Q 2244 3097 1772 3097 
Q 1472 3097 1187 3025 
Q 903 2953 641 2809 
L 641 3341 
Q 956 3463 1253 3523 
Q 1550 3584 1831 3584 
Q 2591 3584 2966 3190 
Q 3341 2797 3341 1997 
z
" transform="scale(0.015625)"/>
       <path id="DejaVuSans-6e" d="M 3513 2113 
L 3513 0 
L 2938 0 
L 2938 2094 
Q 2938 2591 2744 2837 
Q 2550 3084 2163 3084 
Q 1697 3084 1428 2787 
Q 1159 2491 1159 1978 
L 1159 0 
L 581 0 
L 581 3500 
L 1159 3500 
L 1159 2956 
Q 1366 3272 1645 3428 
Q 1925 3584 2291 3584 
Q 2894 3584 3203 3211 
Q 3513 2838 3513 2113 
z
" transform="scale(0.015625)"/>
       <path id="DejaVuSans-77" d="M 269 3500 
L 844 3500 
L 1563 769 
L 2278 3500 
L 2956 3500 
L 3675 769 
L 4391 3500 
L 4966 3500 
L 4050 0 
L 3372 0 
L 2619 2869 
L 1863 0 
L 1184 0 
L 269 3500 
z
" transform="scale(0.015625)"/>
       <path id="DejaVuSans-74" d="M 1172 4494 
L 1172 3500 
L 2356 3500 
L 2356 3053 
L 1172 3053 
L 1172 1153 
Q 1172 725 1289 603 
Q 1406 481 1766 481 
L 2356 481 
L 2356 0 
L 1766 0 
Q 1100 0 847 248 
Q 594 497 594 1153 
L 594 3053 
L 172 3053 
L 172 3500 
L 594 3500 
L 594 4494 
L 1172 4494 
z
" transform="scale(0.015625)"/>
       <path id="DejaVuSans-68" d="M 3513 2113 
L 3513 0 
L 2938 0 
L 2938 2094 
Q 2938 2591 2744 2837 
Q 2550 3084 2163 3084 
Q 1697 3084 1428 2787 
Q 1159 2491 1159 1978 
L 1159 0 
L 581 0 
L 581 4863 
L 1159 4863 
L 1159 2956 
Q 1366 3272 1645 3428 
Q 1925 3584 2291 3584 
Q 2894 3584 3203 3211 
Q 3513 2838 3513 2113 
z
" transform="scale(0.015625)"/>
       <path id="DejaVuSans-Oblique-43" d="M 4447 4306 
L 4319 3641 
Q 4019 3944 3683 4091 
Q 3347 4238 2956 4238 
Q 2422 4238 2017 3981 
Q 1613 3725 1319 3200 
Q 1131 2863 1032 2486 
Q 934 2109 934 1728 
Q 934 1091 1264 756 
Q 1594 422 2222 422 
Q 2656 422 3056 561 
Q 3456 700 3834 978 
L 3688 231 
Q 3316 72 2936 -9 
Q 2556 -91 2175 -91 
Q 1278 -91 773 396 
Q 269 884 269 1753 
Q 269 2309 461 2846 
Q 653 3384 1013 3828 
Q 1394 4300 1883 4525 
Q 2372 4750 3022 4750 
Q 3422 4750 3780 4639 
Q 4138 4528 4447 4306 
z
" transform="scale(0.015625)"/>
       <path id="DejaVuSans-Oblique-48" d="M 1081 4666 
L 1716 4666 
L 1344 2753 
L 3634 2753 
L 4006 4666 
L 4641 4666 
L 3731 0 
L 3097 0 
L 3531 2222 
L 1241 2222 
L 806 0 
L 172 0 
L 1081 4666 
z
" transform="scale(0.015625)"/>
       <path id="DejaVuSans-34" d="M 2419 4116 
L 825 1625 
L 2419 1625 
L 2419 4116 
z
M 2253 4666 
L 3047 4666 
L 3047 1625 
L 3713 1625 
L 3713 1100 
L 3047 1100 
L 3047 0 
L 2419 0 
L 2419 1100 
L 313 1100 
L 313 1709 
L 2253 4666 
z
" transform="scale(0.015625)"/>
       <path id="DejaVuSans-2c" d="M 750 794 
L 1409 794 
L 1409 256 
L 897 -744 
L 494 -744 
L 750 256 
L 750 794 
z
" transform="scale(0.015625)"/>
      </defs>
      <use xlink:href="#DejaVuSans-54" transform="translate(0 0.015625)"/>
      <use xlink:href="#DejaVuSans-72" transform="translate(61.083984 0.015625)"/>
      <use xlink:href="#DejaVuSans-61" transform="translate(102.197266 0.015625)"/>
      <use xlink:href="#DejaVuSans-69" transform="translate(163.476562 0.015625)"/>
      <use xlink:href="#DejaVuSans-6e" transform="translate(191.259766 0.015625)"/>
      <use xlink:href="#DejaVuSans-20" transform="translate(254.638672 0.015625)"/>
      <use xlink:href="#DejaVuSans-77" transform="translate(286.425781 0.015625)"/>
      <use xlink:href="#DejaVuSans-69" transform="translate(368.212891 0.015625)"/>
      <use xlink:href="#DejaVuSans-74" transform="translate(395.996094 0.015625)"/>
      <use xlink:href="#DejaVuSans-68" transform="translate(435.205078 0.015625)"/>
      <use xlink:href="#DejaVuSans-20" transform="translate(498.583984 0.015625)"/>
      <use xlink:href="#DejaVuSans-Oblique-43" transform="translate(530.371094 0.015625)"/>
      <use xlink:href="#DejaVuSans-Oblique-48" transform="translate(600.195312 0.015625)"/>
      <use xlink:href="#DejaVuSans-34" transform="translate(675.390625 -16.390625)scale(0.7)"/>
      <use xlink:href="#DejaVuSans-2c" transform="translate(722.661133 0.015625)"/>
      <use xlink:href="#DejaVuSans-20" transform="translate(754.448242 0.015625)"/>
      <use xlink:href="#DejaVuSans-Oblique-43" transform="translate(786.235352 0.015625)"/>
      <use xlink:href="#DejaVuSans-32" transform="translate(856.05957 -16.390625)scale(0.7)"/>
      <use xlink:href="#DejaVuSans-Oblique-48" transform="translate(903.330078 0.015625)"/>
      <use xlink:href="#DejaVuSans-34" transform="translate(978.525391 -16.390625)scale(0.7)"/>
     </g>
    </g>
    <g id="patch_8">
     <path d="M 60.84 39.916563 
L 80.84 39.916563 
L 80.84 32.916563 
L 60.84 32.916563 
z
" style="fill: #ff7f0e; fill-opacity: 0.3"/>
    </g>
    <g id="text_13">
     <!-- Train with all profiles -->
     <g transform="translate(88.84 39.916563)scale(0.1 -0.1)">
      <defs>
       <path id="DejaVuSans-70" d="M 1159 525 
L 1159 -1331 
L 581 -1331 
L 581 3500 
L 1159 3500 
L 1159 2969 
Q 1341 3281 1617 3432 
Q 1894 3584 2278 3584 
Q 2916 3584 3314 3078 
Q 3713 2572 3713 1747 
Q 3713 922 3314 415 
Q 2916 -91 2278 -91 
Q 1894 -91 1617 61 
Q 1341 213 1159 525 
z
M 3116 1747 
Q 3116 2381 2855 2742 
Q 2594 3103 2138 3103 
Q 1681 3103 1420 2742 
Q 1159 2381 1159 1747 
Q 1159 1113 1420 752 
Q 1681 391 2138 391 
Q 2594 391 2855 752 
Q 3116 1113 3116 1747 
z
" transform="scale(0.015625)"/>
       <path id="DejaVuSans-66" d="M 2375 4863 
L 2375 4384 
L 1825 4384 
Q 1516 4384 1395 4259 
Q 1275 4134 1275 3809 
L 1275 3500 
L 2222 3500 
L 2222 3053 
L 1275 3053 
L 1275 0 
L 697 0 
L 697 3053 
L 147 3053 
L 147 3500 
L 697 3500 
L 697 3744 
Q 697 4328 969 4595 
Q 1241 4863 1831 4863 
L 2375 4863 
z
" transform="scale(0.015625)"/>
      </defs>
      <use xlink:href="#DejaVuSans-54"/>
      <use xlink:href="#DejaVuSans-72" x="46.333984"/>
      <use xlink:href="#DejaVuSans-61" x="87.447266"/>
      <use xlink:href="#DejaVuSans-69" x="148.726562"/>
      <use xlink:href="#DejaVuSans-6e" x="176.509766"/>
      <use xlink:href="#DejaVuSans-20" x="239.888672"/>
      <use xlink:href="#DejaVuSans-77" x="271.675781"/>
      <use xlink:href="#DejaVuSans-69" x="353.462891"/>
      <use xlink:href="#DejaVuSans-74" x="381.246094"/>
      <use xlink:href="#DejaVuSans-68" x="420.455078"/>
      <use xlink:href="#DejaVuSans-20" x="483.833984"/>
      <use xlink:href="#DejaVuSans-61" x="515.621094"/>
      <use xlink:href="#DejaVuSans-6c" x="576.900391"/>
      <use xlink:href="#DejaVuSans-6c" x="604.683594"/>
      <use xlink:href="#DejaVuSans-20" x="632.466797"/>
      <use xlink:href="#DejaVuSans-70" x="664.253906"/>
      <use xlink:href="#DejaVuSans-72" x="727.730469"/>
      <use xlink:href="#DejaVuSans-6f" x="766.59375"/>
      <use xlink:href="#DejaVuSans-66" x="827.775391"/>
      <use xlink:href="#DejaVuSans-69" x="862.980469"/>
      <use xlink:href="#DejaVuSans-6c" x="890.763672"/>
      <use xlink:href="#DejaVuSans-65" x="918.546875"/>
      <use xlink:href="#DejaVuSans-73" x="980.070312"/>
     </g>
    </g>
   </g>
  </g>
 </g>
 <defs>
  <clipPath id="pd93935ab96">
   <rect x="51.84" y="8.64" width="239.76" height="172.8"/>
  </clipPath>
 </defs>
</svg>
