<?xml version="1.0" encoding="utf-8" standalone="no"?>
<!DOCTYPE svg PUBLIC "-//W3C//DTD SVG 1.1//EN"
  "http://www.w3.org/Graphics/SVG/1.1/DTD/svg11.dtd">
<svg xmlns:xlink="http://www.w3.org/1999/xlink" width="432pt" height="288pt" viewBox="0 0 432 288" xmlns="http://www.w3.org/2000/svg" version="1.1">
 <metadata>
  <rdf:RDF xmlns:dc="http://purl.org/dc/elements/1.1/" xmlns:cc="http://creativecommons.org/ns#" xmlns:rdf="http://www.w3.org/1999/02/22-rdf-syntax-ns#">
   <cc:Work>
    <dc:type rdf:resource="http://purl.org/dc/dcmitype/StillImage"/>
    <dc:date>2023-02-03T17:26:09.401941</dc:date>
    <dc:format>image/svg+xml</dc:format>
    <dc:creator>
     <cc:Agent>
      <dc:title>Matplotlib v3.5.3, https://matplotlib.org/</dc:title>
     </cc:Agent>
    </dc:creator>
   </cc:Work>
  </rdf:RDF>
 </metadata>
 <defs>
  <style type="text/css">*{stroke-linejoin: round; stroke-linecap: butt}</style>
 </defs>
 <g id="figure_1">
  <g id="patch_1">
   <path d="M 0 288 
L 432 288 
L 432 0 
L 0 0 
z
" style="fill: #ffffff"/>
  </g>
  <g id="axes_1">
   <g id="patch_2">
    <path d="M 54 256.32 
L 388.8 256.32 
L 388.8 34.56 
L 54 34.56 
z
" style="fill: #ffffff"/>
   </g>
   <g id="PolyCollection_1">
    <path d="M 100.199209 239.529704 
L 72.055337 239.529704 
L 71.549054 232.684137 
L 71.08333 226.864156 
L 70.662432 221.802124 
L 70.290157 217.323177 
L 69.969769 213.306755 
L 69.703954 209.666209 
L 69.494783 206.337168 
L 69.343684 203.2705 
L 69.25144 200.427853 
L 69.218182 197.778714 
L 69.243409 195.298407 
L 69.326009 192.966696 
L 69.464298 190.766779 
L 69.656059 188.68455 
L 69.898597 186.708055 
L 70.188794 184.827072 
L 70.523172 183.032795 
L 70.897954 181.31758 
L 71.309131 179.674753 
L 71.752526 178.098451 
L 72.223854 176.583495 
L 72.718785 175.125288 
L 73.232999 173.719733 
L 73.762237 172.363158 
L 74.302346 171.052265 
L 74.849325 169.784077 
L 75.399355 168.5559 
L 75.94883 167.365285 
L 76.494382 166.210004 
L 77.032901 165.088018 
L 77.561546 163.997464 
L 78.077756 162.936627 
L 78.579251 161.903931 
L 79.064039 160.897921 
L 79.530411 159.917253 
L 79.976933 158.960682 
L 80.402444 158.027051 
L 80.806043 157.115285 
L 81.18708 156.224386 
L 81.545142 155.353417 
L 81.880044 154.501508 
L 82.191809 153.667842 
L 82.480657 152.851653 
L 82.746989 152.052225 
L 82.991371 151.268882 
L 83.214515 150.50099 
L 83.417265 149.747951 
L 83.600577 149.009202 
L 83.765502 148.28421 
L 83.913163 147.572473 
L 84.044743 146.873513 
L 84.161457 146.186882 
L 84.264537 145.51215 
L 84.355214 144.848913 
L 84.434693 144.196786 
L 84.504141 143.555403 
L 84.564666 142.924415 
L 84.617304 142.30349 
L 84.663002 141.692314 
L 84.70261 141.090584 
L 84.736873 140.498012 
L 84.766421 139.914325 
L 84.791771 139.33926 
L 84.813324 138.772565 
L 84.831371 138.214001 
L 84.846101 137.663338 
L 84.857609 137.120354 
L 84.865908 136.58484 
L 84.870949 136.056591 
L 84.872631 135.535415 
L 84.870825 135.021123 
L 84.865393 134.513536 
L 84.856202 134.012482 
L 84.843149 133.517795 
L 84.826175 133.029314 
L 84.805281 132.546887 
L 84.780543 132.070364 
L 84.752121 131.599604 
L 84.720268 131.134468 
L 84.685333 130.674823 
L 84.647763 130.220542 
L 84.608096 129.771501 
L 84.56696 129.32758 
L 84.525058 128.888663 
L 84.483157 128.45464 
L 84.442071 128.025402 
L 84.402646 127.600845 
L 84.365734 127.180868 
L 84.332183 126.765373 
L 84.302807 126.354265 
L 84.27837 125.947454 
L 84.259567 125.544849 
L 84.247008 125.146365 
L 84.241199 124.751918 
L 84.242534 124.361428 
L 84.251285 123.974815 
L 84.267592 123.592004 
L 84.291469 123.21292 
L 84.322795 122.837492 
L 87.93175 122.837492 
L 87.93175 122.837492 
L 87.963077 123.21292 
L 87.986953 123.592004 
L 88.003261 123.974815 
L 88.012011 124.361428 
L 88.013346 124.751918 
L 88.007537 125.146365 
L 87.994978 125.544849 
L 87.976175 125.947454 
L 87.951738 126.354265 
L 87.922362 126.765373 
L 87.888811 127.180868 
L 87.8519 127.600845 
L 87.812474 128.025402 
L 87.771388 128.45464 
L 87.729487 128.888663 
L 87.687585 129.32758 
L 87.646449 129.771501 
L 87.606783 130.220542 
L 87.569212 130.674823 
L 87.534278 131.134468 
L 87.502425 131.599604 
L 87.474003 132.070364 
L 87.449264 132.546887 
L 87.42837 133.029314 
L 87.411396 133.517795 
L 87.398343 134.012482 
L 87.389153 134.513536 
L 87.38372 135.021123 
L 87.381915 135.535415 
L 87.383597 136.056591 
L 87.388637 136.58484 
L 87.396936 137.120354 
L 87.408444 137.663338 
L 87.423174 138.214001 
L 87.441222 138.772565 
L 87.462774 139.33926 
L 87.488124 139.914325 
L 87.517672 140.498012 
L 87.551935 141.090584 
L 87.591544 141.692314 
L 87.637242 142.30349 
L 87.689879 142.924415 
L 87.750404 143.555403 
L 87.819853 144.196786 
L 87.899332 144.848913 
L 87.990008 145.51215 
L 88.093089 146.186882 
L 88.209802 146.873513 
L 88.341382 147.572473 
L 88.489044 148.28421 
L 88.653968 149.009202 
L 88.837281 149.747951 
L 89.040031 150.50099 
L 89.263175 151.268882 
L 89.507556 152.052225 
L 89.773888 152.851653 
L 90.062736 153.667842 
L 90.374501 154.501508 
L 90.709403 155.353417 
L 91.067466 156.224386 
L 91.448503 157.115285 
L 91.852102 158.027051 
L 92.277613 158.960682 
L 92.724135 159.917253 
L 93.190506 160.897921 
L 93.675295 161.903931 
L 94.17679 162.936627 
L 94.692999 163.997464 
L 95.221644 165.088018 
L 95.760163 166.210004 
L 96.305716 167.365285 
L 96.855191 168.5559 
L 97.40522 169.784077 
L 97.952199 171.052265 
L 98.492309 172.363158 
L 99.021547 173.719733 
L 99.535761 175.125288 
L 100.030692 176.583495 
L 100.50202 178.098451 
L 100.945414 179.674753 
L 101.356592 181.31758 
L 101.731374 183.032795 
L 102.065752 184.827072 
L 102.355949 186.708055 
L 102.598487 188.68455 
L 102.790247 190.766779 
L 102.928536 192.966696 
L 103.011137 195.298407 
L 103.036364 197.778714 
L 103.003106 200.427853 
L 102.910861 203.2705 
L 102.759763 206.337168 
L 102.550591 209.666209 
L 102.284776 213.306755 
L 101.964389 217.323177 
L 101.592114 221.802124 
L 101.171216 226.864156 
L 100.705491 232.684137 
L 100.199209 239.529704 
z
" clip-path="url(#p3341bb12d0)" style="fill: #1f77b4; fill-opacity: 0.3"/>
   </g>
   <g id="PolyCollection_2">
    <path d="M 167.122892 246.24 
L 140.404381 246.24 
L 139.869863 238.801356 
L 139.368478 232.55855 
L 138.904278 227.179818 
L 138.480932 222.45479 
L 138.101684 218.241651 
L 137.769322 214.44025 
L 137.486151 210.977228 
L 137.253987 207.797238 
L 137.074148 204.857489 
L 136.947467 202.124219 
L 136.874298 199.570316 
L 136.854545 197.173682 
L 136.88768 194.916066 
L 136.972771 192.782221 
L 137.108516 190.759278 
L 137.293268 188.836276 
L 137.525068 187.003804 
L 137.801671 185.25372 
L 138.120574 183.578933 
L 138.47904 181.97323 
L 138.874123 180.431137 
L 139.302689 178.947806 
L 139.761439 177.518922 
L 140.246928 176.140629 
L 140.75559 174.809467 
L 141.283762 173.522319 
L 141.827706 172.276368 
L 142.383642 171.069057 
L 142.947772 169.898062 
L 143.516319 168.761262 
L 144.085557 167.656716 
L 144.65185 166.582645 
L 145.211692 165.537411 
L 145.761738 164.519508 
L 146.298849 163.527541 
L 146.820122 162.560222 
L 147.322926 161.616356 
L 147.80493 160.694832 
L 148.264125 159.794617 
L 148.698847 158.914748 
L 149.107784 158.054325 
L 149.489987 157.212507 
L 149.844868 156.388507 
L 150.172191 155.581586 
L 150.472057 154.791051 
L 150.744889 154.016249 
L 150.9914 153.256566 
L 151.212567 152.511423 
L 151.409594 151.780275 
L 151.583875 151.062604 
L 151.736954 150.357924 
L 151.870485 149.665773 
L 151.986191 148.985712 
L 152.085822 148.317326 
L 152.17112 147.660222 
L 152.243782 147.014025 
L 152.305428 146.378379 
L 152.357571 145.752944 
L 152.401598 145.137398 
L 152.438745 144.531433 
L 152.470091 143.934755 
L 152.496541 143.347084 
L 152.518833 142.768151 
L 152.537529 142.197702 
L 152.553032 141.635491 
L 152.565591 141.081283 
L 152.575317 140.534853 
L 152.582207 139.995987 
L 152.586159 139.464478 
L 152.586998 138.940127 
L 152.584502 138.422745 
L 152.578428 137.912148 
L 152.568534 137.408161 
L 152.554606 136.910615 
L 152.53648 136.419347 
L 152.514062 135.934202 
L 152.487345 135.455027 
L 152.456422 134.981679 
L 152.421495 134.514016 
L 152.382886 134.051905 
L 152.34103 133.595214 
L 152.296479 133.143819 
L 152.249889 132.697597 
L 152.202015 132.256431 
L 152.15369 131.820209 
L 152.105811 131.388821 
L 152.059318 130.96216 
L 152.015171 130.540124 
L 151.974326 130.122614 
L 151.937713 129.709534 
L 151.906212 129.300791 
L 151.880629 128.896295 
L 151.861679 128.495958 
L 151.849967 128.099696 
L 151.84597 127.707426 
L 151.850032 127.31907 
L 151.862351 126.934549 
L 151.882976 126.553789 
L 151.911812 126.176717 
L 155.61546 126.176717 
L 155.61546 126.176717 
L 155.644296 126.553789 
L 155.664922 126.934549 
L 155.67724 127.31907 
L 155.681302 127.707426 
L 155.677306 128.099696 
L 155.665594 128.495958 
L 155.646644 128.896295 
L 155.621061 129.300791 
L 155.58956 129.709534 
L 155.552946 130.122614 
L 155.512101 130.540124 
L 155.467954 130.96216 
L 155.421462 131.388821 
L 155.373583 131.820209 
L 155.325258 132.256431 
L 155.277384 132.697597 
L 155.230794 133.143819 
L 155.186243 133.595214 
L 155.144387 134.051905 
L 155.105777 134.514016 
L 155.070851 134.981679 
L 155.039928 135.455027 
L 155.01321 135.934202 
L 154.990792 136.419347 
L 154.972667 136.910615 
L 154.958739 137.408161 
L 154.948845 137.912148 
L 154.94277 138.422745 
L 154.940275 138.940127 
L 154.941114 139.464478 
L 154.945065 139.995987 
L 154.951955 140.534853 
L 154.961682 141.081283 
L 154.974241 141.635491 
L 154.989744 142.197702 
L 155.00844 142.768151 
L 155.030731 143.347084 
L 155.057182 143.934755 
L 155.088527 144.531433 
L 155.125675 145.137398 
L 155.169701 145.752944 
L 155.221845 146.378379 
L 155.28349 147.014025 
L 155.356153 147.660222 
L 155.441451 148.317326 
L 155.541082 148.985712 
L 155.656788 149.665773 
L 155.790319 150.357924 
L 155.943398 151.062604 
L 156.117679 151.780275 
L 156.314706 152.511423 
L 156.535873 153.256566 
L 156.782384 154.016249 
L 157.055215 154.791051 
L 157.355082 155.581586 
L 157.682404 156.388507 
L 158.037285 157.212507 
L 158.419489 158.054325 
L 158.828426 158.914748 
L 159.263147 159.794617 
L 159.722343 160.694832 
L 160.204346 161.616356 
L 160.707151 162.560222 
L 161.228424 163.527541 
L 161.765535 164.519508 
L 162.315581 165.537411 
L 162.875422 166.582645 
L 163.441716 167.656716 
L 164.010954 168.761262 
L 164.579501 169.898062 
L 165.143631 171.069057 
L 165.699566 172.276368 
L 166.243511 173.522319 
L 166.771683 174.809467 
L 167.280345 176.140629 
L 167.765834 177.518922 
L 168.224583 178.947806 
L 168.65315 180.431137 
L 169.048233 181.97323 
L 169.406699 183.578933 
L 169.725602 185.25372 
L 170.002205 187.003804 
L 170.234005 188.836276 
L 170.418757 190.759278 
L 170.554502 192.782221 
L 170.639593 194.916066 
L 170.672727 197.173682 
L 170.652974 199.570316 
L 170.579806 202.124219 
L 170.453124 204.857489 
L 170.273286 207.797238 
L 170.041122 210.977228 
L 169.757951 214.44025 
L 169.425589 218.241651 
L 169.046341 222.45479 
L 168.622994 227.179818 
L 168.158794 232.55855 
L 167.65741 238.801356 
L 167.122892 246.24 
z
" clip-path="url(#p3341bb12d0)" style="fill: #1f77b4; fill-opacity: 0.3"/>
   </g>
   <g id="PolyCollection_3">
    <path d="M 233.986215 225.945904 
L 208.813785 225.945904 
L 208.25341 220.618606 
L 207.71754 215.933301 
L 207.210627 211.751766 
L 206.736922 207.976108 
L 206.300399 204.53446 
L 205.904705 201.3725 
L 205.553093 198.448165 
L 205.248376 195.728224 
L 204.992881 193.185961 
L 204.788414 190.79958 
L 204.636233 188.551064 
L 204.537026 186.42535 
L 204.490909 184.409716 
L 204.497422 182.49332 
L 204.555543 180.666848 
L 204.663707 178.922236 
L 204.819839 177.252462 
L 205.021388 175.651367 
L 205.265378 174.113525 
L 205.548456 172.634127 
L 205.866955 171.208893 
L 206.216954 169.833997 
L 206.594348 168.506003 
L 206.994909 167.221818 
L 207.414362 165.978642 
L 207.84845 164.773938 
L 208.292996 163.605396 
L 208.743969 162.470908 
L 209.197539 161.368544 
L 209.650128 160.296537 
L 210.098451 159.253257 
L 210.53956 158.237207 
L 210.970864 157.247001 
L 211.390153 156.281356 
L 211.795611 155.339084 
L 212.185812 154.41908 
L 212.559722 153.520315 
L 212.91668 152.641831 
L 213.256379 151.782733 
L 213.57884 150.942183 
L 213.884379 150.119398 
L 214.173568 149.313643 
L 214.4472 148.524226 
L 214.706242 147.750498 
L 214.951798 146.991848 
L 215.185059 146.247699 
L 215.40727 145.517507 
L 215.619682 144.800759 
L 215.823524 144.096968 
L 216.019966 143.405674 
L 216.21009 142.726441 
L 216.394868 142.058855 
L 216.575144 141.402524 
L 216.751615 140.757074 
L 216.924826 140.122151 
L 217.095163 139.497416 
L 217.262855 138.882549 
L 217.427972 138.277241 
L 217.590439 137.6812 
L 217.750043 137.094147 
L 217.906446 136.515815 
L 218.059201 135.945949 
L 218.207773 135.384303 
L 218.351555 134.830645 
L 218.489886 134.28475 
L 218.622079 133.746404 
L 218.747435 133.215401 
L 218.865268 132.691542 
L 218.974925 132.174639 
L 219.075806 131.664509 
L 219.167383 131.160977 
L 219.249213 130.663874 
L 219.320963 130.173039 
L 219.382414 129.688315 
L 219.433476 129.209551 
L 219.474198 128.736604 
L 219.504771 128.269333 
L 219.525534 127.807604 
L 219.536968 127.351287 
L 219.5397 126.900256 
L 219.534487 126.454391 
L 219.522213 126.013574 
L 219.503874 125.577693 
L 219.480558 125.146637 
L 219.453429 124.720302 
L 219.423709 124.298585 
L 219.392649 123.881388 
L 219.361509 123.468613 
L 219.331535 123.06017 
L 219.30393 122.655966 
L 219.279834 122.255917 
L 219.260302 121.859936 
L 219.246281 121.467942 
L 219.238594 121.079855 
L 219.237924 120.6956 
L 219.244806 120.315099 
L 219.259614 119.938281 
L 219.282559 119.565076 
L 219.313694 119.195414 
L 223.486306 119.195414 
L 223.486306 119.195414 
L 223.517441 119.565076 
L 223.540386 119.938281 
L 223.555194 120.315099 
L 223.562076 120.6956 
L 223.561406 121.079855 
L 223.553719 121.467942 
L 223.539698 121.859936 
L 223.520166 122.255917 
L 223.49607 122.655966 
L 223.468465 123.06017 
L 223.438491 123.468613 
L 223.407351 123.881388 
L 223.376291 124.298585 
L 223.346571 124.720302 
L 223.319442 125.146637 
L 223.296126 125.577693 
L 223.277787 126.013574 
L 223.265513 126.454391 
L 223.2603 126.900256 
L 223.263032 127.351287 
L 223.274466 127.807604 
L 223.295229 128.269333 
L 223.325802 128.736604 
L 223.366524 129.209551 
L 223.417586 129.688315 
L 223.479037 130.173039 
L 223.550787 130.663874 
L 223.632617 131.160977 
L 223.724194 131.664509 
L 223.825075 132.174639 
L 223.934732 132.691542 
L 224.052565 133.215401 
L 224.177921 133.746404 
L 224.310114 134.28475 
L 224.448445 134.830645 
L 224.592227 135.384303 
L 224.740799 135.945949 
L 224.893554 136.515815 
L 225.049957 137.094147 
L 225.209561 137.6812 
L 225.372028 138.277241 
L 225.537145 138.882549 
L 225.704837 139.497416 
L 225.875174 140.122151 
L 226.048385 140.757074 
L 226.224856 141.402524 
L 226.405132 142.058855 
L 226.58991 142.726441 
L 226.780034 143.405674 
L 226.976476 144.096968 
L 227.180318 144.800759 
L 227.39273 145.517507 
L 227.614941 146.247699 
L 227.848202 146.991848 
L 228.093758 147.750498 
L 228.3528 148.524226 
L 228.626432 149.313643 
L 228.915621 150.119398 
L 229.22116 150.942183 
L 229.543621 151.782733 
L 229.88332 152.641831 
L 230.240278 153.520315 
L 230.614188 154.41908 
L 231.004389 155.339084 
L 231.409847 156.281356 
L 231.829136 157.247001 
L 232.26044 158.237207 
L 232.701549 159.253257 
L 233.149872 160.296537 
L 233.602461 161.368544 
L 234.056031 162.470908 
L 234.507004 163.605396 
L 234.95155 164.773938 
L 235.385638 165.978642 
L 235.805091 167.221818 
L 236.205652 168.506003 
L 236.583046 169.833997 
L 236.933045 171.208893 
L 237.251544 172.634127 
L 237.534622 174.113525 
L 237.778612 175.651367 
L 237.980161 177.252462 
L 238.136293 178.922236 
L 238.244457 180.666848 
L 238.302578 182.49332 
L 238.309091 184.409716 
L 238.262974 186.42535 
L 238.163767 188.551064 
L 238.011586 190.79958 
L 237.807119 193.185961 
L 237.551624 195.728224 
L 237.246907 198.448165 
L 236.895295 201.3725 
L 236.499601 204.53446 
L 236.063078 207.976108 
L 235.589373 211.751766 
L 235.08246 215.933301 
L 234.54659 220.618606 
L 233.986215 225.945904 
z
" clip-path="url(#p3341bb12d0)" style="fill: #1f77b4; fill-opacity: 0.3"/>
   </g>
   <g id="PolyCollection_4">
    <path d="M 302.240475 230.465542 
L 275.832252 230.465542 
L 275.30881 226.770099 
L 274.816558 223.395219 
L 274.35912 220.289699 
L 273.939673 217.413701 
L 273.56089 214.735622 
L 273.224898 212.229966 
L 272.933245 209.875867 
L 272.686887 207.656032 
L 272.486183 205.555969 
L 272.330908 203.563412 
L 272.220278 201.667889 
L 272.15299 199.860385 
L 272.127273 198.133087 
L 272.140943 196.47918 
L 272.191477 194.89268 
L 272.276081 193.368306 
L 272.391769 191.901376 
L 272.53544 190.487718 
L 272.703953 189.123597 
L 272.8942 187.805659 
L 273.103171 186.530879 
L 273.328015 185.296519 
L 273.566091 184.100096 
L 273.815005 182.939346 
L 274.072645 181.812204 
L 274.337196 180.716778 
L 274.607151 179.651332 
L 274.88131 178.614269 
L 275.158769 177.604115 
L 275.438897 176.61951 
L 275.721312 175.659192 
L 276.00585 174.721993 
L 276.292523 173.806826 
L 276.581485 172.912678 
L 276.872986 172.038605 
L 277.167334 171.183726 
L 277.464854 170.347216 
L 277.765855 169.528302 
L 278.070593 168.726259 
L 278.379248 167.940406 
L 278.691896 167.170102 
L 279.008498 166.414744 
L 279.328883 165.673763 
L 279.652747 164.946622 
L 279.979648 164.232812 
L 280.309016 163.531855 
L 280.640156 162.843296 
L 280.972265 162.166703 
L 281.304444 161.501668 
L 281.635717 160.847802 
L 281.965048 160.204737 
L 282.29136 159.572121 
L 282.613555 158.949621 
L 282.930531 158.336917 
L 283.241195 157.733707 
L 283.544486 157.1397 
L 283.839379 156.554621 
L 284.124901 155.978204 
L 284.400138 155.410196 
L 284.664244 154.850357 
L 284.916442 154.298455 
L 285.156033 153.754266 
L 285.382396 153.21758 
L 285.594989 152.688191 
L 285.793354 152.165905 
L 285.977115 151.650532 
L 286.145984 151.141893 
L 286.299757 150.639813 
L 286.438324 150.144126 
L 286.561667 149.65467 
L 286.669865 149.171292 
L 286.763099 148.693842 
L 286.841655 148.222176 
L 286.905927 147.756156 
L 286.956422 147.295649 
L 286.99376 146.840524 
L 287.018677 146.390659 
L 287.032021 145.945933 
L 287.034751 145.50623 
L 287.02793 145.071437 
L 287.012718 144.641447 
L 286.990361 144.216153 
L 286.962175 143.795456 
L 286.929532 143.379255 
L 286.893843 142.967458 
L 286.856532 142.55997 
L 286.819022 142.156703 
L 286.782704 141.75757 
L 286.74892 141.362488 
L 286.718938 140.971375 
L 286.693927 140.584152 
L 286.674943 140.200743 
L 286.662904 139.821072 
L 286.658579 139.445068 
L 286.662577 139.072661 
L 286.675333 138.703783 
L 286.697108 138.338367 
L 286.727987 137.976348 
L 286.767884 137.617666 
L 291.304843 137.617666 
L 291.304843 137.617666 
L 291.34474 137.976348 
L 291.37562 138.338367 
L 291.397395 138.703783 
L 291.41015 139.072661 
L 291.414148 139.445068 
L 291.409824 139.821072 
L 291.397785 140.200743 
L 291.3788 140.584152 
L 291.353789 140.971375 
L 291.323807 141.362488 
L 291.290023 141.75757 
L 291.253706 142.156703 
L 291.216195 142.55997 
L 291.178885 142.967458 
L 291.143195 143.379255 
L 291.110553 143.795456 
L 291.082366 144.216153 
L 291.060009 144.641447 
L 291.044798 145.071437 
L 291.037977 145.50623 
L 291.040706 145.945933 
L 291.05405 146.390659 
L 291.078967 146.840524 
L 291.116305 147.295649 
L 291.1668 147.756156 
L 291.231072 148.222176 
L 291.309628 148.693842 
L 291.402862 149.171292 
L 291.51106 149.65467 
L 291.634403 150.144126 
L 291.77297 150.639813 
L 291.926744 151.141893 
L 292.095612 151.650532 
L 292.279373 152.165905 
L 292.477738 152.688191 
L 292.690331 153.21758 
L 292.916694 153.754266 
L 293.156285 154.298455 
L 293.408483 154.850357 
L 293.672589 155.410196 
L 293.947826 155.978204 
L 294.233348 156.554621 
L 294.528241 157.1397 
L 294.831532 157.733707 
L 295.142197 158.336917 
L 295.459172 158.949621 
L 295.781367 159.572121 
L 296.107679 160.204737 
L 296.43701 160.847802 
L 296.768283 161.501668 
L 297.100462 162.166703 
L 297.432571 162.843296 
L 297.763711 163.531855 
L 298.093079 164.232812 
L 298.419981 164.946622 
L 298.743844 165.673763 
L 299.064229 166.414744 
L 299.380831 167.170102 
L 299.693479 167.940406 
L 300.002134 168.726259 
L 300.306872 169.528302 
L 300.607873 170.347216 
L 300.905394 171.183726 
L 301.199741 172.038605 
L 301.491242 172.912678 
L 301.780204 173.806826 
L 302.066878 174.721993 
L 302.351415 175.659192 
L 302.633831 176.61951 
L 302.913958 177.604115 
L 303.191417 178.614269 
L 303.465576 179.651332 
L 303.735532 180.716778 
L 304.000082 181.812204 
L 304.257722 182.939346 
L 304.506636 184.100096 
L 304.744712 185.296519 
L 304.969557 186.530879 
L 305.178528 187.805659 
L 305.368774 189.123597 
L 305.537288 190.487718 
L 305.680959 191.901376 
L 305.796647 193.368306 
L 305.881251 194.89268 
L 305.931784 196.47918 
L 305.945455 198.133087 
L 305.919737 199.860385 
L 305.852449 201.667889 
L 305.741819 203.563412 
L 305.586544 205.555969 
L 305.38584 207.656032 
L 305.139482 209.875867 
L 304.84783 212.229966 
L 304.511837 214.735622 
L 304.133055 217.413701 
L 303.713608 220.289699 
L 303.25617 223.395219 
L 302.763917 226.770099 
L 302.240475 230.465542 
z
" clip-path="url(#p3341bb12d0)" style="fill: #1f77b4; fill-opacity: 0.3"/>
   </g>
   <g id="PolyCollection_5">
    <path d="M 372.718466 162.505467 
L 340.626989 162.505467 
L 340.305705 155.458275 
L 340.056759 149.493308 
L 339.882705 144.322001 
L 339.784932 139.757744 
L 339.763636 135.672871 
L 339.817825 131.976186 
L 339.945351 128.600269 
L 340.142975 125.493871 
L 340.406461 122.617121 
L 340.730687 119.93839 
L 341.109788 117.432162 
L 341.537303 115.07756 
L 342.006339 112.857277 
L 342.509737 110.756813 
L 343.040241 108.763895 
L 343.590656 106.868044 
L 344.153997 105.060243 
L 344.723629 103.332675 
L 345.293382 101.678518 
L 345.857647 100.091789 
L 346.411453 98.567204 
L 346.950518 97.100079 
L 347.471274 95.686239 
L 347.970878 94.321949 
L 348.447194 93.003853 
L 348.898761 91.728925 
L 349.324745 90.494427 
L 349.724874 89.297873 
L 350.099372 88.137001 
L 350.448878 87.009743 
L 350.774368 85.914208 
L 351.077071 84.848659 
L 351.358396 83.811498 
L 351.61986 82.801252 
L 351.863017 81.816558 
L 352.08941 80.856157 
L 352.300516 79.918878 
L 352.497714 79.003635 
L 352.682257 78.109414 
L 352.855257 77.235272 
L 353.017672 76.380326 
L 353.170313 75.543753 
L 353.313846 74.724778 
L 353.448809 73.922676 
L 353.575626 73.136767 
L 353.694632 72.366409 
L 353.806088 71.610999 
L 353.910208 70.869968 
L 354.007179 70.142779 
L 354.097177 69.428923 
L 354.180389 68.727921 
L 354.257024 68.039319 
L 354.32732 67.362684 
L 354.391558 66.697609 
L 354.45006 66.043704 
L 354.50319 65.400601 
L 354.551352 64.767949 
L 354.594988 64.145413 
L 354.634562 63.532676 
L 354.670562 62.929433 
L 354.703481 62.335394 
L 354.733812 61.750283 
L 354.762037 61.173836 
L 354.788612 60.605799 
L 354.813965 60.045932 
L 354.838481 59.494001 
L 354.8625 58.949786 
L 354.886307 58.413074 
L 354.910132 57.883659 
L 354.934144 57.361348 
L 354.958455 56.845951 
L 354.983117 56.337288 
L 355.00813 55.835186 
L 355.033442 55.339476 
L 355.058959 54.849999 
L 355.084553 54.366599 
L 355.110069 53.889129 
L 355.135335 53.417443 
L 355.160175 52.951403 
L 355.184416 52.490876 
L 355.2079 52.035733 
L 355.230495 51.58585 
L 355.2521 51.141106 
L 355.272657 50.701385 
L 355.292152 50.266575 
L 355.310622 49.836567 
L 355.328157 49.411258 
L 355.344896 48.990544 
L 355.361029 48.574328 
L 355.376787 48.162515 
L 355.392442 47.755012 
L 355.408289 47.35173 
L 355.424646 46.952583 
L 355.441836 46.557487 
L 355.460178 46.16636 
L 355.479976 45.779123 
L 355.501507 45.3957 
L 355.52501 45.016017 
L 355.550678 44.64 
L 357.794777 44.64 
L 357.794777 44.64 
L 357.820445 45.016017 
L 357.843948 45.3957 
L 357.865478 45.779123 
L 357.885276 46.16636 
L 357.903618 46.557487 
L 357.920808 46.952583 
L 357.937165 47.35173 
L 357.953013 47.755012 
L 357.968667 48.162515 
L 357.984426 48.574328 
L 358.000559 48.990544 
L 358.017298 49.411258 
L 358.034832 49.836567 
L 358.053303 50.266575 
L 358.072798 50.701385 
L 358.093354 51.141106 
L 358.11496 51.58585 
L 358.137555 52.035733 
L 358.161039 52.490876 
L 358.18528 52.951403 
L 358.21012 53.417443 
L 358.235386 53.889129 
L 358.260902 54.366599 
L 358.286495 54.849999 
L 358.312013 55.339476 
L 358.337325 55.835186 
L 358.362337 56.337288 
L 358.387 56.845951 
L 358.41131 57.361348 
L 358.435323 57.883659 
L 358.459148 58.413074 
L 358.482955 58.949786 
L 358.506974 59.494001 
L 358.53149 60.045932 
L 358.556843 60.605799 
L 358.583418 61.173836 
L 358.611642 61.750283 
L 358.641973 62.335394 
L 358.674893 62.929433 
L 358.710892 63.532676 
L 358.750467 64.145413 
L 358.794102 64.767949 
L 358.842265 65.400601 
L 358.895395 66.043704 
L 358.953896 66.697609 
L 359.018135 67.362684 
L 359.088431 68.039319 
L 359.165065 68.727921 
L 359.248278 69.428923 
L 359.338276 70.142779 
L 359.435246 70.869968 
L 359.539366 71.610999 
L 359.650822 72.366409 
L 359.769828 73.136767 
L 359.896646 73.922676 
L 360.031609 74.724778 
L 360.175142 75.543753 
L 360.327782 76.380326 
L 360.490198 77.235272 
L 360.663197 78.109414 
L 360.847741 79.003635 
L 361.044939 79.918878 
L 361.256045 80.856157 
L 361.482437 81.816558 
L 361.725595 82.801252 
L 361.987058 83.811498 
L 362.268384 84.848659 
L 362.571087 85.914208 
L 362.896576 87.009743 
L 363.246082 88.137001 
L 363.620581 89.297873 
L 364.02071 90.494427 
L 364.446693 91.728925 
L 364.898261 93.003853 
L 365.374577 94.321949 
L 365.874181 95.686239 
L 366.394937 97.100079 
L 366.934001 98.567204 
L 367.487808 100.091789 
L 368.052073 101.678518 
L 368.621826 103.332675 
L 369.191458 105.060243 
L 369.754799 106.868044 
L 370.305213 108.763895 
L 370.835717 110.756813 
L 371.339116 112.857277 
L 371.808152 115.07756 
L 372.235667 117.432162 
L 372.614768 119.93839 
L 372.938994 122.617121 
L 373.202479 125.493871 
L 373.400103 128.600269 
L 373.527629 131.976186 
L 373.581818 135.672871 
L 373.560522 139.757744 
L 373.462749 144.322001 
L 373.288695 149.493308 
L 373.03975 155.458275 
L 372.718466 162.505467 
z
" clip-path="url(#p3341bb12d0)" style="fill: #1f77b4; fill-opacity: 0.3"/>
   </g>
   <g id="matplotlib.axis_1">
    <g id="xtick_1">
     <g id="line2d_1">
      <defs>
       <path id="mcea01f0121" d="M 0 0 
L 0 3.5 
" style="stroke: #000000; stroke-width: 0.8"/>
      </defs>
      <g>
       <use xlink:href="#mcea01f0121" x="86.127273" y="256.32" style="stroke: #000000; stroke-width: 0.8"/>
      </g>
     </g>
     <g id="text_1">
      <!-- 0% -->
      <g transform="translate(78.195241 270.918437)scale(0.1 -0.1)">
       <defs>
        <path id="DejaVuSans-30" d="M 2034 4250 
Q 1547 4250 1301 3770 
Q 1056 3291 1056 2328 
Q 1056 1369 1301 889 
Q 1547 409 2034 409 
Q 2525 409 2770 889 
Q 3016 1369 3016 2328 
Q 3016 3291 2770 3770 
Q 2525 4250 2034 4250 
z
M 2034 4750 
Q 2819 4750 3233 4129 
Q 3647 3509 3647 2328 
Q 3647 1150 3233 529 
Q 2819 -91 2034 -91 
Q 1250 -91 836 529 
Q 422 1150 422 2328 
Q 422 3509 836 4129 
Q 1250 4750 2034 4750 
z
" transform="scale(0.015625)"/>
        <path id="DejaVuSans-25" d="M 4653 2053 
Q 4381 2053 4226 1822 
Q 4072 1591 4072 1178 
Q 4072 772 4226 539 
Q 4381 306 4653 306 
Q 4919 306 5073 539 
Q 5228 772 5228 1178 
Q 5228 1588 5073 1820 
Q 4919 2053 4653 2053 
z
M 4653 2450 
Q 5147 2450 5437 2106 
Q 5728 1763 5728 1178 
Q 5728 594 5436 251 
Q 5144 -91 4653 -91 
Q 4153 -91 3862 251 
Q 3572 594 3572 1178 
Q 3572 1766 3864 2108 
Q 4156 2450 4653 2450 
z
M 1428 4353 
Q 1159 4353 1004 4120 
Q 850 3888 850 3481 
Q 850 3069 1003 2837 
Q 1156 2606 1428 2606 
Q 1700 2606 1854 2837 
Q 2009 3069 2009 3481 
Q 2009 3884 1853 4118 
Q 1697 4353 1428 4353 
z
M 4250 4750 
L 4750 4750 
L 1831 -91 
L 1331 -91 
L 4250 4750 
z
M 1428 4750 
Q 1922 4750 2215 4408 
Q 2509 4066 2509 3481 
Q 2509 2891 2217 2550 
Q 1925 2209 1428 2209 
Q 931 2209 642 2551 
Q 353 2894 353 3481 
Q 353 4063 643 4406 
Q 934 4750 1428 4750 
z
" transform="scale(0.015625)"/>
       </defs>
       <use xlink:href="#DejaVuSans-30"/>
       <use xlink:href="#DejaVuSans-25" x="63.623047"/>
      </g>
     </g>
    </g>
    <g id="xtick_2">
     <g id="line2d_2">
      <g>
       <use xlink:href="#mcea01f0121" x="153.763636" y="256.32" style="stroke: #000000; stroke-width: 0.8"/>
      </g>
     </g>
     <g id="text_2">
      <!-- 0.2% -->
      <g transform="translate(141.061293 270.918437)scale(0.1 -0.1)">
       <defs>
        <path id="DejaVuSans-2e" d="M 684 794 
L 1344 794 
L 1344 0 
L 684 0 
L 684 794 
z
" transform="scale(0.015625)"/>
        <path id="DejaVuSans-32" d="M 1228 531 
L 3431 531 
L 3431 0 
L 469 0 
L 469 531 
Q 828 903 1448 1529 
Q 2069 2156 2228 2338 
Q 2531 2678 2651 2914 
Q 2772 3150 2772 3378 
Q 2772 3750 2511 3984 
Q 2250 4219 1831 4219 
Q 1534 4219 1204 4116 
Q 875 4013 500 3803 
L 500 4441 
Q 881 4594 1212 4672 
Q 1544 4750 1819 4750 
Q 2544 4750 2975 4387 
Q 3406 4025 3406 3419 
Q 3406 3131 3298 2873 
Q 3191 2616 2906 2266 
Q 2828 2175 2409 1742 
Q 1991 1309 1228 531 
z
" transform="scale(0.015625)"/>
       </defs>
       <use xlink:href="#DejaVuSans-30"/>
       <use xlink:href="#DejaVuSans-2e" x="63.623047"/>
       <use xlink:href="#DejaVuSans-32" x="95.410156"/>
       <use xlink:href="#DejaVuSans-25" x="159.033203"/>
      </g>
     </g>
    </g>
    <g id="xtick_3">
     <g id="line2d_3">
      <g>
       <use xlink:href="#mcea01f0121" x="221.4" y="256.32" style="stroke: #000000; stroke-width: 0.8"/>
      </g>
     </g>
     <g id="text_3">
      <!-- 1% -->
      <g transform="translate(213.467969 270.918437)scale(0.1 -0.1)">
       <defs>
        <path id="DejaVuSans-31" d="M 794 531 
L 1825 531 
L 1825 4091 
L 703 3866 
L 703 4441 
L 1819 4666 
L 2450 4666 
L 2450 531 
L 3481 531 
L 3481 0 
L 794 0 
L 794 531 
z
" transform="scale(0.015625)"/>
       </defs>
       <use xlink:href="#DejaVuSans-31"/>
       <use xlink:href="#DejaVuSans-25" x="63.623047"/>
      </g>
     </g>
    </g>
    <g id="xtick_4">
     <g id="line2d_4">
      <g>
       <use xlink:href="#mcea01f0121" x="289.036364" y="256.32" style="stroke: #000000; stroke-width: 0.8"/>
      </g>
     </g>
     <g id="text_4">
      <!-- 5% -->
      <g transform="translate(281.104332 270.918437)scale(0.1 -0.1)">
       <defs>
        <path id="DejaVuSans-35" d="M 691 4666 
L 3169 4666 
L 3169 4134 
L 1269 4134 
L 1269 2991 
Q 1406 3038 1543 3061 
Q 1681 3084 1819 3084 
Q 2600 3084 3056 2656 
Q 3513 2228 3513 1497 
Q 3513 744 3044 326 
Q 2575 -91 1722 -91 
Q 1428 -91 1123 -41 
Q 819 9 494 109 
L 494 744 
Q 775 591 1075 516 
Q 1375 441 1709 441 
Q 2250 441 2565 725 
Q 2881 1009 2881 1497 
Q 2881 1984 2565 2268 
Q 2250 2553 1709 2553 
Q 1456 2553 1204 2497 
Q 953 2441 691 2322 
L 691 4666 
z
" transform="scale(0.015625)"/>
       </defs>
       <use xlink:href="#DejaVuSans-35"/>
       <use xlink:href="#DejaVuSans-25" x="63.623047"/>
      </g>
     </g>
    </g>
    <g id="xtick_5">
     <g id="line2d_5">
      <g>
       <use xlink:href="#mcea01f0121" x="356.672727" y="256.32" style="stroke: #000000; stroke-width: 0.8"/>
      </g>
     </g>
     <g id="text_5">
      <!-- 25% -->
      <g transform="translate(345.559446 270.918437)scale(0.1 -0.1)">
       <use xlink:href="#DejaVuSans-32"/>
       <use xlink:href="#DejaVuSans-35" x="63.623047"/>
       <use xlink:href="#DejaVuSans-25" x="127.246094"/>
      </g>
     </g>
    </g>
    <g id="text_6">
     <!-- Noise Level -->
     <g transform="translate(192.740625 284.596563)scale(0.1 -0.1)">
      <defs>
       <path id="DejaVuSans-4e" d="M 628 4666 
L 1478 4666 
L 3547 763 
L 3547 4666 
L 4159 4666 
L 4159 0 
L 3309 0 
L 1241 3903 
L 1241 0 
L 628 0 
L 628 4666 
z
" transform="scale(0.015625)"/>
       <path id="DejaVuSans-6f" d="M 1959 3097 
Q 1497 3097 1228 2736 
Q 959 2375 959 1747 
Q 959 1119 1226 758 
Q 1494 397 1959 397 
Q 2419 397 2687 759 
Q 2956 1122 2956 1747 
Q 2956 2369 2687 2733 
Q 2419 3097 1959 3097 
z
M 1959 3584 
Q 2709 3584 3137 3096 
Q 3566 2609 3566 1747 
Q 3566 888 3137 398 
Q 2709 -91 1959 -91 
Q 1206 -91 779 398 
Q 353 888 353 1747 
Q 353 2609 779 3096 
Q 1206 3584 1959 3584 
z
" transform="scale(0.015625)"/>
       <path id="DejaVuSans-69" d="M 603 3500 
L 1178 3500 
L 1178 0 
L 603 0 
L 603 3500 
z
M 603 4863 
L 1178 4863 
L 1178 4134 
L 603 4134 
L 603 4863 
z
" transform="scale(0.015625)"/>
       <path id="DejaVuSans-73" d="M 2834 3397 
L 2834 2853 
Q 2591 2978 2328 3040 
Q 2066 3103 1784 3103 
Q 1356 3103 1142 2972 
Q 928 2841 928 2578 
Q 928 2378 1081 2264 
Q 1234 2150 1697 2047 
L 1894 2003 
Q 2506 1872 2764 1633 
Q 3022 1394 3022 966 
Q 3022 478 2636 193 
Q 2250 -91 1575 -91 
Q 1294 -91 989 -36 
Q 684 19 347 128 
L 347 722 
Q 666 556 975 473 
Q 1284 391 1588 391 
Q 1994 391 2212 530 
Q 2431 669 2431 922 
Q 2431 1156 2273 1281 
Q 2116 1406 1581 1522 
L 1381 1569 
Q 847 1681 609 1914 
Q 372 2147 372 2553 
Q 372 3047 722 3315 
Q 1072 3584 1716 3584 
Q 2034 3584 2315 3537 
Q 2597 3491 2834 3397 
z
" transform="scale(0.015625)"/>
       <path id="DejaVuSans-65" d="M 3597 1894 
L 3597 1613 
L 953 1613 
Q 991 1019 1311 708 
Q 1631 397 2203 397 
Q 2534 397 2845 478 
Q 3156 559 3463 722 
L 3463 178 
Q 3153 47 2828 -22 
Q 2503 -91 2169 -91 
Q 1331 -91 842 396 
Q 353 884 353 1716 
Q 353 2575 817 3079 
Q 1281 3584 2069 3584 
Q 2775 3584 3186 3129 
Q 3597 2675 3597 1894 
z
M 3022 2063 
Q 3016 2534 2758 2815 
Q 2500 3097 2075 3097 
Q 1594 3097 1305 2825 
Q 1016 2553 972 2059 
L 3022 2063 
z
" transform="scale(0.015625)"/>
       <path id="DejaVuSans-20" transform="scale(0.015625)"/>
       <path id="DejaVuSans-4c" d="M 628 4666 
L 1259 4666 
L 1259 531 
L 3531 531 
L 3531 0 
L 628 0 
L 628 4666 
z
" transform="scale(0.015625)"/>
       <path id="DejaVuSans-76" d="M 191 3500 
L 800 3500 
L 1894 563 
L 2988 3500 
L 3597 3500 
L 2284 0 
L 1503 0 
L 191 3500 
z
" transform="scale(0.015625)"/>
       <path id="DejaVuSans-6c" d="M 603 4863 
L 1178 4863 
L 1178 0 
L 603 0 
L 603 4863 
z
" transform="scale(0.015625)"/>
      </defs>
      <use xlink:href="#DejaVuSans-4e"/>
      <use xlink:href="#DejaVuSans-6f" x="74.804688"/>
      <use xlink:href="#DejaVuSans-69" x="135.986328"/>
      <use xlink:href="#DejaVuSans-73" x="163.769531"/>
      <use xlink:href="#DejaVuSans-65" x="215.869141"/>
      <use xlink:href="#DejaVuSans-20" x="277.392578"/>
      <use xlink:href="#DejaVuSans-4c" x="309.179688"/>
      <use xlink:href="#DejaVuSans-65" x="363.142578"/>
      <use xlink:href="#DejaVuSans-76" x="424.666016"/>
      <use xlink:href="#DejaVuSans-65" x="483.845703"/>
      <use xlink:href="#DejaVuSans-6c" x="545.369141"/>
     </g>
    </g>
   </g>
   <g id="matplotlib.axis_2">
    <g id="ytick_1">
     <g id="line2d_6">
      <defs>
       <path id="m88d81751a9" d="M 0 0 
L -3.5 0 
" style="stroke: #000000; stroke-width: 0.8"/>
      </defs>
      <g>
       <use xlink:href="#m88d81751a9" x="54" y="216.838534" style="stroke: #000000; stroke-width: 0.8"/>
      </g>
     </g>
     <g id="text_7">
      <!-- $\mathdefault{10^{-5}}$ -->
      <g transform="translate(23.5 220.637753)scale(0.1 -0.1)">
       <defs>
        <path id="DejaVuSans-2212" d="M 678 2272 
L 4684 2272 
L 4684 1741 
L 678 1741 
L 678 2272 
z
" transform="scale(0.015625)"/>
       </defs>
       <use xlink:href="#DejaVuSans-31" transform="translate(0 0.684375)"/>
       <use xlink:href="#DejaVuSans-30" transform="translate(63.623047 0.684375)"/>
       <use xlink:href="#DejaVuSans-2212" transform="translate(128.203125 38.965625)scale(0.7)"/>
       <use xlink:href="#DejaVuSans-35" transform="translate(186.855469 38.965625)scale(0.7)"/>
      </g>
     </g>
    </g>
    <g id="ytick_2">
     <g id="line2d_7">
      <g>
       <use xlink:href="#m88d81751a9" x="54" y="127.193612" style="stroke: #000000; stroke-width: 0.8"/>
      </g>
     </g>
     <g id="text_8">
      <!-- $\mathdefault{10^{-4}}$ -->
      <g transform="translate(23.5 130.992831)scale(0.1 -0.1)">
       <defs>
        <path id="DejaVuSans-34" d="M 2419 4116 
L 825 1625 
L 2419 1625 
L 2419 4116 
z
M 2253 4666 
L 3047 4666 
L 3047 1625 
L 3713 1625 
L 3713 1100 
L 3047 1100 
L 3047 0 
L 2419 0 
L 2419 1100 
L 313 1100 
L 313 1709 
L 2253 4666 
z
" transform="scale(0.015625)"/>
       </defs>
       <use xlink:href="#DejaVuSans-31" transform="translate(0 0.684375)"/>
       <use xlink:href="#DejaVuSans-30" transform="translate(63.623047 0.684375)"/>
       <use xlink:href="#DejaVuSans-2212" transform="translate(128.203125 38.965625)scale(0.7)"/>
       <use xlink:href="#DejaVuSans-34" transform="translate(186.855469 38.965625)scale(0.7)"/>
      </g>
     </g>
    </g>
    <g id="ytick_3">
     <g id="line2d_8">
      <g>
       <use xlink:href="#m88d81751a9" x="54" y="37.54869" style="stroke: #000000; stroke-width: 0.8"/>
      </g>
     </g>
     <g id="text_9">
      <!-- $\mathdefault{10^{-3}}$ -->
      <g transform="translate(23.5 41.347909)scale(0.1 -0.1)">
       <defs>
        <path id="DejaVuSans-33" d="M 2597 2516 
Q 3050 2419 3304 2112 
Q 3559 1806 3559 1356 
Q 3559 666 3084 287 
Q 2609 -91 1734 -91 
Q 1441 -91 1130 -33 
Q 819 25 488 141 
L 488 750 
Q 750 597 1062 519 
Q 1375 441 1716 441 
Q 2309 441 2620 675 
Q 2931 909 2931 1356 
Q 2931 1769 2642 2001 
Q 2353 2234 1838 2234 
L 1294 2234 
L 1294 2753 
L 1863 2753 
Q 2328 2753 2575 2939 
Q 2822 3125 2822 3475 
Q 2822 3834 2567 4026 
Q 2313 4219 1838 4219 
Q 1578 4219 1281 4162 
Q 984 4106 628 3988 
L 628 4550 
Q 988 4650 1302 4700 
Q 1616 4750 1894 4750 
Q 2613 4750 3031 4423 
Q 3450 4097 3450 3541 
Q 3450 3153 3228 2886 
Q 3006 2619 2597 2516 
z
" transform="scale(0.015625)"/>
       </defs>
       <use xlink:href="#DejaVuSans-31" transform="translate(0 0.765625)"/>
       <use xlink:href="#DejaVuSans-30" transform="translate(63.623047 0.765625)"/>
       <use xlink:href="#DejaVuSans-2212" transform="translate(128.203125 39.046875)scale(0.7)"/>
       <use xlink:href="#DejaVuSans-33" transform="translate(186.855469 39.046875)scale(0.7)"/>
      </g>
     </g>
    </g>
    <g id="ytick_4">
     <g id="line2d_9">
      <defs>
       <path id="mdfb7cfd25e" d="M 0 0 
L -2 0 
" style="stroke: #000000; stroke-width: 0.6"/>
      </defs>
      <g>
       <use xlink:href="#mdfb7cfd25e" x="54" y="252.511835" style="stroke: #000000; stroke-width: 0.6"/>
      </g>
     </g>
    </g>
    <g id="ytick_5">
     <g id="line2d_10">
      <g>
       <use xlink:href="#mdfb7cfd25e" x="54" y="243.824344" style="stroke: #000000; stroke-width: 0.6"/>
      </g>
     </g>
    </g>
    <g id="ytick_6">
     <g id="line2d_11">
      <g>
       <use xlink:href="#mdfb7cfd25e" x="54" y="236.726148" style="stroke: #000000; stroke-width: 0.6"/>
      </g>
     </g>
    </g>
    <g id="ytick_7">
     <g id="line2d_12">
      <g>
       <use xlink:href="#mdfb7cfd25e" x="54" y="230.724708" style="stroke: #000000; stroke-width: 0.6"/>
      </g>
     </g>
    </g>
    <g id="ytick_8">
     <g id="line2d_13">
      <g>
       <use xlink:href="#mdfb7cfd25e" x="54" y="225.526025" style="stroke: #000000; stroke-width: 0.6"/>
      </g>
     </g>
    </g>
    <g id="ytick_9">
     <g id="line2d_14">
      <g>
       <use xlink:href="#mdfb7cfd25e" x="54" y="220.940461" style="stroke: #000000; stroke-width: 0.6"/>
      </g>
     </g>
    </g>
    <g id="ytick_10">
     <g id="line2d_15">
      <g>
       <use xlink:href="#mdfb7cfd25e" x="54" y="189.852724" style="stroke: #000000; stroke-width: 0.6"/>
      </g>
     </g>
    </g>
    <g id="ytick_11">
     <g id="line2d_16">
      <g>
       <use xlink:href="#mdfb7cfd25e" x="54" y="174.067036" style="stroke: #000000; stroke-width: 0.6"/>
      </g>
     </g>
    </g>
    <g id="ytick_12">
     <g id="line2d_17">
      <g>
       <use xlink:href="#mdfb7cfd25e" x="54" y="162.866913" style="stroke: #000000; stroke-width: 0.6"/>
      </g>
     </g>
    </g>
    <g id="ytick_13">
     <g id="line2d_18">
      <g>
       <use xlink:href="#mdfb7cfd25e" x="54" y="154.179422" style="stroke: #000000; stroke-width: 0.6"/>
      </g>
     </g>
    </g>
    <g id="ytick_14">
     <g id="line2d_19">
      <g>
       <use xlink:href="#mdfb7cfd25e" x="54" y="147.081226" style="stroke: #000000; stroke-width: 0.6"/>
      </g>
     </g>
    </g>
    <g id="ytick_15">
     <g id="line2d_20">
      <g>
       <use xlink:href="#mdfb7cfd25e" x="54" y="141.079786" style="stroke: #000000; stroke-width: 0.6"/>
      </g>
     </g>
    </g>
    <g id="ytick_16">
     <g id="line2d_21">
      <g>
       <use xlink:href="#mdfb7cfd25e" x="54" y="135.881103" style="stroke: #000000; stroke-width: 0.6"/>
      </g>
     </g>
    </g>
    <g id="ytick_17">
     <g id="line2d_22">
      <g>
       <use xlink:href="#mdfb7cfd25e" x="54" y="131.295539" style="stroke: #000000; stroke-width: 0.6"/>
      </g>
     </g>
    </g>
    <g id="ytick_18">
     <g id="line2d_23">
      <g>
       <use xlink:href="#mdfb7cfd25e" x="54" y="100.207801" style="stroke: #000000; stroke-width: 0.6"/>
      </g>
     </g>
    </g>
    <g id="ytick_19">
     <g id="line2d_24">
      <g>
       <use xlink:href="#mdfb7cfd25e" x="54" y="84.422114" style="stroke: #000000; stroke-width: 0.6"/>
      </g>
     </g>
    </g>
    <g id="ytick_20">
     <g id="line2d_25">
      <g>
       <use xlink:href="#mdfb7cfd25e" x="54" y="73.221991" style="stroke: #000000; stroke-width: 0.6"/>
      </g>
     </g>
    </g>
    <g id="ytick_21">
     <g id="line2d_26">
      <g>
       <use xlink:href="#mdfb7cfd25e" x="54" y="64.5345" style="stroke: #000000; stroke-width: 0.6"/>
      </g>
     </g>
    </g>
    <g id="ytick_22">
     <g id="line2d_27">
      <g>
       <use xlink:href="#mdfb7cfd25e" x="54" y="57.436304" style="stroke: #000000; stroke-width: 0.6"/>
      </g>
     </g>
    </g>
    <g id="ytick_23">
     <g id="line2d_28">
      <g>
       <use xlink:href="#mdfb7cfd25e" x="54" y="51.434864" style="stroke: #000000; stroke-width: 0.6"/>
      </g>
     </g>
    </g>
    <g id="ytick_24">
     <g id="line2d_29">
      <g>
       <use xlink:href="#mdfb7cfd25e" x="54" y="46.236181" style="stroke: #000000; stroke-width: 0.6"/>
      </g>
     </g>
    </g>
    <g id="ytick_25">
     <g id="line2d_30">
      <g>
       <use xlink:href="#mdfb7cfd25e" x="54" y="41.650617" style="stroke: #000000; stroke-width: 0.6"/>
      </g>
     </g>
    </g>
    <g id="text_10">
     <!-- $y_{err}$ -->
     <g transform="translate(17.4 153.59)rotate(-90)scale(0.1 -0.1)">
      <defs>
       <path id="DejaVuSans-Oblique-79" d="M 1588 -325 
Q 1188 -997 936 -1164 
Q 684 -1331 294 -1331 
L -159 -1331 
L -63 -850 
L 269 -850 
Q 509 -850 678 -719 
Q 847 -588 1056 -206 
L 1234 128 
L 459 3500 
L 1069 3500 
L 1650 819 
L 3256 3500 
L 3859 3500 
L 1588 -325 
z
" transform="scale(0.015625)"/>
       <path id="DejaVuSans-Oblique-65" d="M 3078 2063 
Q 3088 2113 3092 2166 
Q 3097 2219 3097 2272 
Q 3097 2653 2873 2875 
Q 2650 3097 2266 3097 
Q 1838 3097 1509 2826 
Q 1181 2556 1013 2059 
L 3078 2063 
z
M 3578 1613 
L 903 1613 
Q 884 1494 878 1425 
Q 872 1356 872 1306 
Q 872 872 1139 634 
Q 1406 397 1894 397 
Q 2269 397 2603 481 
Q 2938 566 3225 728 
L 3116 159 
Q 2806 34 2476 -28 
Q 2147 -91 1806 -91 
Q 1078 -91 686 257 
Q 294 606 294 1247 
Q 294 1794 489 2264 
Q 684 2734 1063 3103 
Q 1306 3334 1642 3459 
Q 1978 3584 2356 3584 
Q 2950 3584 3301 3228 
Q 3653 2872 3653 2272 
Q 3653 2128 3634 1964 
Q 3616 1800 3578 1613 
z
" transform="scale(0.015625)"/>
       <path id="DejaVuSans-Oblique-72" d="M 2853 2969 
Q 2766 3016 2653 3041 
Q 2541 3066 2413 3066 
Q 1953 3066 1609 2717 
Q 1266 2369 1153 1784 
L 800 0 
L 225 0 
L 909 3500 
L 1484 3500 
L 1375 2956 
Q 1603 3259 1920 3421 
Q 2238 3584 2597 3584 
Q 2691 3584 2781 3573 
Q 2872 3563 2963 3538 
L 2853 2969 
z
" transform="scale(0.015625)"/>
      </defs>
      <use xlink:href="#DejaVuSans-Oblique-79" transform="translate(0 0.3125)"/>
      <use xlink:href="#DejaVuSans-Oblique-65" transform="translate(59.179688 -16.09375)scale(0.7)"/>
      <use xlink:href="#DejaVuSans-Oblique-72" transform="translate(102.246094 -16.09375)scale(0.7)"/>
      <use xlink:href="#DejaVuSans-Oblique-72" transform="translate(131.025391 -16.09375)scale(0.7)"/>
     </g>
    </g>
   </g>
   <g id="LineCollection_1">
    <path d="M 77.672727 177.394327 
L 94.581818 177.394327 
" clip-path="url(#p3341bb12d0)" style="fill: none; stroke: #1f77b4; stroke-width: 1.5"/>
    <path d="M 145.309091 179.918646 
L 162.218182 179.918646 
" clip-path="url(#p3341bb12d0)" style="fill: none; stroke: #1f77b4; stroke-width: 1.5"/>
    <path d="M 212.945455 164.716403 
L 229.854545 164.716403 
" clip-path="url(#p3341bb12d0)" style="fill: none; stroke: #1f77b4; stroke-width: 1.5"/>
    <path d="M 280.581818 179.503602 
L 297.490909 179.503602 
" clip-path="url(#p3341bb12d0)" style="fill: none; stroke: #1f77b4; stroke-width: 1.5"/>
    <path d="M 348.218182 104.997655 
L 365.127273 104.997655 
" clip-path="url(#p3341bb12d0)" style="fill: none; stroke: #1f77b4; stroke-width: 1.5"/>
   </g>
   <g id="patch_3">
    <path d="M 54 256.32 
L 54 34.56 
" style="fill: none; stroke: #000000; stroke-width: 0.8; stroke-linejoin: miter; stroke-linecap: square"/>
   </g>
   <g id="patch_4">
    <path d="M 388.8 256.32 
L 388.8 34.56 
" style="fill: none; stroke: #000000; stroke-width: 0.8; stroke-linejoin: miter; stroke-linecap: square"/>
   </g>
   <g id="patch_5">
    <path d="M 54 256.32 
L 388.8 256.32 
" style="fill: none; stroke: #000000; stroke-width: 0.8; stroke-linejoin: miter; stroke-linecap: square"/>
   </g>
   <g id="patch_6">
    <path d="M 54 34.56 
L 388.8 34.56 
" style="fill: none; stroke: #000000; stroke-width: 0.8; stroke-linejoin: miter; stroke-linecap: square"/>
   </g>
  </g>
 </g>
 <defs>
  <clipPath id="p3341bb12d0">
   <rect x="54" y="34.56" width="334.8" height="221.76"/>
  </clipPath>
 </defs>
</svg>
