<?xml version="1.0" encoding="utf-8" standalone="no"?>
<!DOCTYPE svg PUBLIC "-//W3C//DTD SVG 1.1//EN"
  "http://www.w3.org/Graphics/SVG/1.1/DTD/svg11.dtd">
<svg xmlns:xlink="http://www.w3.org/1999/xlink" width="576pt" height="144pt" viewBox="0 0 576 144" xmlns="http://www.w3.org/2000/svg" version="1.1">
 <metadata>
  <rdf:RDF xmlns:dc="http://purl.org/dc/elements/1.1/" xmlns:cc="http://creativecommons.org/ns#" xmlns:rdf="http://www.w3.org/1999/02/22-rdf-syntax-ns#">
   <cc:Work>
    <dc:type rdf:resource="http://purl.org/dc/dcmitype/StillImage"/>
    <dc:date>2023-02-03T19:50:31.360013</dc:date>
    <dc:format>image/svg+xml</dc:format>
    <dc:creator>
     <cc:Agent>
      <dc:title>Matplotlib v3.5.3, https://matplotlib.org/</dc:title>
     </cc:Agent>
    </dc:creator>
   </cc:Work>
  </rdf:RDF>
 </metadata>
 <defs>
  <style type="text/css">*{stroke-linejoin: round; stroke-linecap: butt}</style>
 </defs>
 <g id="figure_1">
  <g id="patch_1">
   <path d="M 0 144 
L 576 144 
L 576 0 
L 0 0 
z
" style="fill: #ffffff"/>
  </g>
  <g id="axes_1">
   <g id="patch_2">
    <path d="M 42.905856 104.793354 
L 279.834379 104.793354 
L 279.834379 2.834646 
L 42.905856 2.834646 
z
" style="fill: #ffffff"/>
   </g>
   <g id="matplotlib.axis_1">
    <g id="xtick_1">
     <g id="line2d_1">
      <path d="M 49.61138 104.793354 
L 49.61138 2.834646 
" clip-path="url(#p2773516199)" style="fill: none; stroke: #000000; stroke-opacity: 0.1; stroke-width: 0.5; stroke-linecap: square"/>
     </g>
     <g id="line2d_2">
      <defs>
       <path id="mbe6fa523ce" d="M 0 0 
L 0 -2.5 
" style="stroke: #000000; stroke-width: 0.5"/>
      </defs>
      <g>
       <use xlink:href="#mbe6fa523ce" x="49.61138" y="104.793354" style="stroke: #000000; stroke-width: 0.5"/>
      </g>
     </g>
     <g id="line2d_3">
      <defs>
       <path id="m596d1548f3" d="M 0 0 
L 0 2.5 
" style="stroke: #000000; stroke-width: 0.5"/>
      </defs>
      <g>
       <use xlink:href="#m596d1548f3" x="49.61138" y="2.834646" style="stroke: #000000; stroke-width: 0.5"/>
      </g>
     </g>
     <g id="text_1">
      <!-- $\mathregular{10^{0}}$ -->
      <g transform="translate(39.05138 117.411479)scale(0.12 -0.12)">
       <defs>
        <path id="DejaVuSans-31" d="M 794 531 
L 1825 531 
L 1825 4091 
L 703 3866 
L 703 4441 
L 1819 4666 
L 2450 4666 
L 2450 531 
L 3481 531 
L 3481 0 
L 794 0 
L 794 531 
z
" transform="scale(0.015625)"/>
        <path id="DejaVuSans-30" d="M 2034 4250 
Q 1547 4250 1301 3770 
Q 1056 3291 1056 2328 
Q 1056 1369 1301 889 
Q 1547 409 2034 409 
Q 2525 409 2770 889 
Q 3016 1369 3016 2328 
Q 3016 3291 2770 3770 
Q 2525 4250 2034 4250 
z
M 2034 4750 
Q 2819 4750 3233 4129 
Q 3647 3509 3647 2328 
Q 3647 1150 3233 529 
Q 2819 -91 2034 -91 
Q 1250 -91 836 529 
Q 422 1150 422 2328 
Q 422 3509 836 4129 
Q 1250 4750 2034 4750 
z
" transform="scale(0.015625)"/>
       </defs>
       <use xlink:href="#DejaVuSans-31" transform="translate(0 0.765625)"/>
       <use xlink:href="#DejaVuSans-30" transform="translate(63.623047 0.765625)"/>
       <use xlink:href="#DejaVuSans-30" transform="translate(128.203125 39.046875)scale(0.7)"/>
      </g>
     </g>
    </g>
    <g id="xtick_2">
     <g id="line2d_4">
      <path d="M 161.129162 104.793354 
L 161.129162 2.834646 
" clip-path="url(#p2773516199)" style="fill: none; stroke: #000000; stroke-opacity: 0.1; stroke-width: 0.5; stroke-linecap: square"/>
     </g>
     <g id="line2d_5">
      <g>
       <use xlink:href="#mbe6fa523ce" x="161.129162" y="104.793354" style="stroke: #000000; stroke-width: 0.5"/>
      </g>
     </g>
     <g id="line2d_6">
      <g>
       <use xlink:href="#m596d1548f3" x="161.129162" y="2.834646" style="stroke: #000000; stroke-width: 0.5"/>
      </g>
     </g>
     <g id="text_2">
      <!-- $\mathregular{10^{1}}$ -->
      <g transform="translate(150.569162 117.411479)scale(0.12 -0.12)">
       <use xlink:href="#DejaVuSans-31" transform="translate(0 0.684375)"/>
       <use xlink:href="#DejaVuSans-30" transform="translate(63.623047 0.684375)"/>
       <use xlink:href="#DejaVuSans-31" transform="translate(128.203125 38.965625)scale(0.7)"/>
      </g>
     </g>
    </g>
    <g id="xtick_3">
     <g id="line2d_7">
      <path d="M 272.646945 104.793354 
L 272.646945 2.834646 
" clip-path="url(#p2773516199)" style="fill: none; stroke: #000000; stroke-opacity: 0.1; stroke-width: 0.5; stroke-linecap: square"/>
     </g>
     <g id="line2d_8">
      <g>
       <use xlink:href="#mbe6fa523ce" x="272.646945" y="104.793354" style="stroke: #000000; stroke-width: 0.5"/>
      </g>
     </g>
     <g id="line2d_9">
      <g>
       <use xlink:href="#m596d1548f3" x="272.646945" y="2.834646" style="stroke: #000000; stroke-width: 0.5"/>
      </g>
     </g>
     <g id="text_3">
      <!-- $\mathregular{10^{2}}$ -->
      <g transform="translate(262.086945 117.411479)scale(0.12 -0.12)">
       <defs>
        <path id="DejaVuSans-32" d="M 1228 531 
L 3431 531 
L 3431 0 
L 469 0 
L 469 531 
Q 828 903 1448 1529 
Q 2069 2156 2228 2338 
Q 2531 2678 2651 2914 
Q 2772 3150 2772 3378 
Q 2772 3750 2511 3984 
Q 2250 4219 1831 4219 
Q 1534 4219 1204 4116 
Q 875 4013 500 3803 
L 500 4441 
Q 881 4594 1212 4672 
Q 1544 4750 1819 4750 
Q 2544 4750 2975 4387 
Q 3406 4025 3406 3419 
Q 3406 3131 3298 2873 
Q 3191 2616 2906 2266 
Q 2828 2175 2409 1742 
Q 1991 1309 1228 531 
z
" transform="scale(0.015625)"/>
       </defs>
       <use xlink:href="#DejaVuSans-31" transform="translate(0 0.765625)"/>
       <use xlink:href="#DejaVuSans-30" transform="translate(63.623047 0.765625)"/>
       <use xlink:href="#DejaVuSans-32" transform="translate(128.203125 39.046875)scale(0.7)"/>
      </g>
     </g>
    </g>
    <g id="text_4">
     <!-- Epoch -->
     <g transform="translate(136.872617 136.064604)scale(0.16 -0.16)">
      <defs>
       <path id="DejaVuSans-45" d="M 628 4666 
L 3578 4666 
L 3578 4134 
L 1259 4134 
L 1259 2753 
L 3481 2753 
L 3481 2222 
L 1259 2222 
L 1259 531 
L 3634 531 
L 3634 0 
L 628 0 
L 628 4666 
z
" transform="scale(0.015625)"/>
       <path id="DejaVuSans-70" d="M 1159 525 
L 1159 -1331 
L 581 -1331 
L 581 3500 
L 1159 3500 
L 1159 2969 
Q 1341 3281 1617 3432 
Q 1894 3584 2278 3584 
Q 2916 3584 3314 3078 
Q 3713 2572 3713 1747 
Q 3713 922 3314 415 
Q 2916 -91 2278 -91 
Q 1894 -91 1617 61 
Q 1341 213 1159 525 
z
M 3116 1747 
Q 3116 2381 2855 2742 
Q 2594 3103 2138 3103 
Q 1681 3103 1420 2742 
Q 1159 2381 1159 1747 
Q 1159 1113 1420 752 
Q 1681 391 2138 391 
Q 2594 391 2855 752 
Q 3116 1113 3116 1747 
z
" transform="scale(0.015625)"/>
       <path id="DejaVuSans-6f" d="M 1959 3097 
Q 1497 3097 1228 2736 
Q 959 2375 959 1747 
Q 959 1119 1226 758 
Q 1494 397 1959 397 
Q 2419 397 2687 759 
Q 2956 1122 2956 1747 
Q 2956 2369 2687 2733 
Q 2419 3097 1959 3097 
z
M 1959 3584 
Q 2709 3584 3137 3096 
Q 3566 2609 3566 1747 
Q 3566 888 3137 398 
Q 2709 -91 1959 -91 
Q 1206 -91 779 398 
Q 353 888 353 1747 
Q 353 2609 779 3096 
Q 1206 3584 1959 3584 
z
" transform="scale(0.015625)"/>
       <path id="DejaVuSans-63" d="M 3122 3366 
L 3122 2828 
Q 2878 2963 2633 3030 
Q 2388 3097 2138 3097 
Q 1578 3097 1268 2742 
Q 959 2388 959 1747 
Q 959 1106 1268 751 
Q 1578 397 2138 397 
Q 2388 397 2633 464 
Q 2878 531 3122 666 
L 3122 134 
Q 2881 22 2623 -34 
Q 2366 -91 2075 -91 
Q 1284 -91 818 406 
Q 353 903 353 1747 
Q 353 2603 823 3093 
Q 1294 3584 2113 3584 
Q 2378 3584 2631 3529 
Q 2884 3475 3122 3366 
z
" transform="scale(0.015625)"/>
       <path id="DejaVuSans-68" d="M 3513 2113 
L 3513 0 
L 2938 0 
L 2938 2094 
Q 2938 2591 2744 2837 
Q 2550 3084 2163 3084 
Q 1697 3084 1428 2787 
Q 1159 2491 1159 1978 
L 1159 0 
L 581 0 
L 581 4863 
L 1159 4863 
L 1159 2956 
Q 1366 3272 1645 3428 
Q 1925 3584 2291 3584 
Q 2894 3584 3203 3211 
Q 3513 2838 3513 2113 
z
" transform="scale(0.015625)"/>
      </defs>
      <use xlink:href="#DejaVuSans-45"/>
      <use xlink:href="#DejaVuSans-70" x="63.183594"/>
      <use xlink:href="#DejaVuSans-6f" x="126.660156"/>
      <use xlink:href="#DejaVuSans-63" x="187.841797"/>
      <use xlink:href="#DejaVuSans-68" x="242.822266"/>
     </g>
    </g>
   </g>
   <g id="matplotlib.axis_2">
    <g id="ytick_1">
     <g id="line2d_10">
      <path d="M 42.905856 84.132909 
L 279.834379 84.132909 
" clip-path="url(#p2773516199)" style="fill: none; stroke: #000000; stroke-opacity: 0.1; stroke-width: 0.5; stroke-linecap: square"/>
     </g>
     <g id="line2d_11">
      <defs>
       <path id="m5c6b058759" d="M 0 0 
L 2.5 0 
" style="stroke: #000000; stroke-width: 0.5"/>
      </defs>
      <g>
       <use xlink:href="#m5c6b058759" x="42.905856" y="84.132909" style="stroke: #000000; stroke-width: 0.5"/>
      </g>
     </g>
     <g id="line2d_12">
      <defs>
       <path id="m5d523df698" d="M 0 0 
L -2.5 0 
" style="stroke: #000000; stroke-width: 0.5"/>
      </defs>
      <g>
       <use xlink:href="#m5d523df698" x="279.834379" y="84.132909" style="stroke: #000000; stroke-width: 0.5"/>
      </g>
     </g>
     <g id="text_5">
      <!-- $\mathregular{10^{-3.0}}$ -->
      <g transform="translate(3.285856 88.691972)scale(0.12 -0.12)">
       <defs>
        <path id="DejaVuSans-2212" d="M 678 2272 
L 4684 2272 
L 4684 1741 
L 678 1741 
L 678 2272 
z
" transform="scale(0.015625)"/>
        <path id="DejaVuSans-33" d="M 2597 2516 
Q 3050 2419 3304 2112 
Q 3559 1806 3559 1356 
Q 3559 666 3084 287 
Q 2609 -91 1734 -91 
Q 1441 -91 1130 -33 
Q 819 25 488 141 
L 488 750 
Q 750 597 1062 519 
Q 1375 441 1716 441 
Q 2309 441 2620 675 
Q 2931 909 2931 1356 
Q 2931 1769 2642 2001 
Q 2353 2234 1838 2234 
L 1294 2234 
L 1294 2753 
L 1863 2753 
Q 2328 2753 2575 2939 
Q 2822 3125 2822 3475 
Q 2822 3834 2567 4026 
Q 2313 4219 1838 4219 
Q 1578 4219 1281 4162 
Q 984 4106 628 3988 
L 628 4550 
Q 988 4650 1302 4700 
Q 1616 4750 1894 4750 
Q 2613 4750 3031 4423 
Q 3450 4097 3450 3541 
Q 3450 3153 3228 2886 
Q 3006 2619 2597 2516 
z
" transform="scale(0.015625)"/>
        <path id="DejaVuSans-2e" d="M 684 794 
L 1344 794 
L 1344 0 
L 684 0 
L 684 794 
z
" transform="scale(0.015625)"/>
       </defs>
       <use xlink:href="#DejaVuSans-31" transform="translate(0 0.765625)"/>
       <use xlink:href="#DejaVuSans-30" transform="translate(63.623047 0.765625)"/>
       <use xlink:href="#DejaVuSans-2212" transform="translate(128.203125 39.046875)scale(0.7)"/>
       <use xlink:href="#DejaVuSans-33" transform="translate(186.855469 39.046875)scale(0.7)"/>
       <use xlink:href="#DejaVuSans-2e" transform="translate(231.391602 39.046875)scale(0.7)"/>
       <use xlink:href="#DejaVuSans-30" transform="translate(253.642578 39.046875)scale(0.7)"/>
      </g>
     </g>
    </g>
    <g id="ytick_2">
     <g id="line2d_13">
      <path d="M 42.905856 60.009089 
L 279.834379 60.009089 
" clip-path="url(#p2773516199)" style="fill: none; stroke: #000000; stroke-opacity: 0.1; stroke-width: 0.5; stroke-linecap: square"/>
     </g>
     <g id="line2d_14">
      <g>
       <use xlink:href="#m5c6b058759" x="42.905856" y="60.009089" style="stroke: #000000; stroke-width: 0.5"/>
      </g>
     </g>
     <g id="line2d_15">
      <g>
       <use xlink:href="#m5d523df698" x="279.834379" y="60.009089" style="stroke: #000000; stroke-width: 0.5"/>
      </g>
     </g>
     <g id="text_6">
      <!-- $\mathregular{10^{-2.5}}$ -->
      <g transform="translate(3.285856 64.568151)scale(0.12 -0.12)">
       <defs>
        <path id="DejaVuSans-35" d="M 691 4666 
L 3169 4666 
L 3169 4134 
L 1269 4134 
L 1269 2991 
Q 1406 3038 1543 3061 
Q 1681 3084 1819 3084 
Q 2600 3084 3056 2656 
Q 3513 2228 3513 1497 
Q 3513 744 3044 326 
Q 2575 -91 1722 -91 
Q 1428 -91 1123 -41 
Q 819 9 494 109 
L 494 744 
Q 775 591 1075 516 
Q 1375 441 1709 441 
Q 2250 441 2565 725 
Q 2881 1009 2881 1497 
Q 2881 1984 2565 2268 
Q 2250 2553 1709 2553 
Q 1456 2553 1204 2497 
Q 953 2441 691 2322 
L 691 4666 
z
" transform="scale(0.015625)"/>
       </defs>
       <use xlink:href="#DejaVuSans-31" transform="translate(0 0.765625)"/>
       <use xlink:href="#DejaVuSans-30" transform="translate(63.623047 0.765625)"/>
       <use xlink:href="#DejaVuSans-2212" transform="translate(128.203125 39.046875)scale(0.7)"/>
       <use xlink:href="#DejaVuSans-32" transform="translate(186.855469 39.046875)scale(0.7)"/>
       <use xlink:href="#DejaVuSans-2e" transform="translate(231.391602 39.046875)scale(0.7)"/>
       <use xlink:href="#DejaVuSans-35" transform="translate(253.642578 39.046875)scale(0.7)"/>
      </g>
     </g>
    </g>
    <g id="ytick_3">
     <g id="line2d_16">
      <path d="M 42.905856 35.885269 
L 279.834379 35.885269 
" clip-path="url(#p2773516199)" style="fill: none; stroke: #000000; stroke-opacity: 0.1; stroke-width: 0.5; stroke-linecap: square"/>
     </g>
     <g id="line2d_17">
      <g>
       <use xlink:href="#m5c6b058759" x="42.905856" y="35.885269" style="stroke: #000000; stroke-width: 0.5"/>
      </g>
     </g>
     <g id="line2d_18">
      <g>
       <use xlink:href="#m5d523df698" x="279.834379" y="35.885269" style="stroke: #000000; stroke-width: 0.5"/>
      </g>
     </g>
     <g id="text_7">
      <!-- $\mathregular{10^{-2.0}}$ -->
      <g transform="translate(3.285856 40.444331)scale(0.12 -0.12)">
       <use xlink:href="#DejaVuSans-31" transform="translate(0 0.765625)"/>
       <use xlink:href="#DejaVuSans-30" transform="translate(63.623047 0.765625)"/>
       <use xlink:href="#DejaVuSans-2212" transform="translate(128.203125 39.046875)scale(0.7)"/>
       <use xlink:href="#DejaVuSans-32" transform="translate(186.855469 39.046875)scale(0.7)"/>
       <use xlink:href="#DejaVuSans-2e" transform="translate(231.391602 39.046875)scale(0.7)"/>
       <use xlink:href="#DejaVuSans-30" transform="translate(253.642578 39.046875)scale(0.7)"/>
      </g>
     </g>
    </g>
    <g id="ytick_4">
     <g id="line2d_19">
      <path d="M 42.905856 11.761448 
L 279.834379 11.761448 
" clip-path="url(#p2773516199)" style="fill: none; stroke: #000000; stroke-opacity: 0.1; stroke-width: 0.5; stroke-linecap: square"/>
     </g>
     <g id="line2d_20">
      <g>
       <use xlink:href="#m5c6b058759" x="42.905856" y="11.761448" style="stroke: #000000; stroke-width: 0.5"/>
      </g>
     </g>
     <g id="line2d_21">
      <g>
       <use xlink:href="#m5d523df698" x="279.834379" y="11.761448" style="stroke: #000000; stroke-width: 0.5"/>
      </g>
     </g>
     <g id="text_8">
      <!-- $\mathregular{10^{-1.5}}$ -->
      <g transform="translate(3.285856 16.320511)scale(0.12 -0.12)">
       <use xlink:href="#DejaVuSans-31" transform="translate(0 0.684375)"/>
       <use xlink:href="#DejaVuSans-30" transform="translate(63.623047 0.684375)"/>
       <use xlink:href="#DejaVuSans-2212" transform="translate(128.203125 38.965625)scale(0.7)"/>
       <use xlink:href="#DejaVuSans-31" transform="translate(186.855469 38.965625)scale(0.7)"/>
       <use xlink:href="#DejaVuSans-2e" transform="translate(231.391602 38.965625)scale(0.7)"/>
       <use xlink:href="#DejaVuSans-35" transform="translate(253.642578 38.965625)scale(0.7)"/>
      </g>
     </g>
    </g>
   </g>
   <g id="line2d_22">
    <path d="M 49.61138 15.855223 
L 83.181577 79.435272 
L 102.818884 95.936639 
L 116.751775 93.269964 
L 127.558965 95.214297 
L 136.389082 96.527403 
L 143.854839 99.229191 
L 150.321973 100.043178 
L 156.026389 99.494155 
L 161.129162 96.370229 
L 165.745183 96.82935 
L 169.959279 101.108824 
L 173.835872 101.599714 
L 177.425037 101.743015 
L 180.766469 101.84332 
L 183.89217 101.893978 
L 186.828315 101.790575 
L 189.596586 101.641036 
L 192.215146 101.788952 
L 194.69936 101.670182 
L 197.062344 101.680686 
L 199.31538 101.848258 
L 201.468249 101.885168 
L 203.529477 101.613715 
L 205.50655 101.767371 
L 207.40607 101.838203 
L 209.233893 101.649586 
L 210.995235 101.86424 
L 212.694762 101.739275 
L 214.336667 101.758709 
L 215.924729 101.708264 
L 217.462368 101.88701 
L 218.952687 101.827659 
L 220.398513 101.900626 
L 221.802424 101.90191 
L 223.166784 101.788724 
L 224.493759 101.709354 
L 225.785343 101.835387 
L 227.043377 101.621453 
L 228.269558 101.846455 
L 229.465459 101.47199 
L 230.632541 101.709166 
L 231.77216 101.504584 
L 232.885578 101.854464 
L 233.973973 101.864898 
L 235.038446 101.907731 
L 236.080025 101.597234 
L 237.099675 101.644478 
L 238.098299 101.656505 
L 239.076747 101.669598 
L 240.035819 101.841202 
L 240.976268 100.553552 
L 241.898801 100.936392 
L 242.80409 100.89665 
L 243.692768 100.908496 
L 244.565432 100.895716 
L 245.42265 100.942097 
L 246.264959 101.013515 
L 247.092869 101.085439 
L 247.906864 101.055396 
L 248.707404 101.010582 
L 249.494927 101.000972 
L 250.269848 100.984798 
L 251.032565 100.831069 
L 251.783457 100.630891 
L 252.522885 101.008363 
L 253.251193 100.800832 
L 253.96871 101.005548 
L 254.675753 101.098828 
L 255.372622 101.038738 
L 256.059606 101.057331 
L 256.736981 100.780373 
L 257.405013 100.79463 
L 258.063956 100.992608 
L 258.714054 100.858504 
L 259.355541 100.969898 
L 259.988642 101.099228 
L 260.613574 100.943353 
L 261.230545 101.012645 
L 261.839755 101.055386 
L 262.441397 100.473392 
L 263.035657 100.929506 
L 263.622713 101.004211 
L 264.202739 100.826115 
L 264.7759 100.930835 
L 265.342357 100.999615 
L 265.902266 100.909731 
L 266.455776 100.901559 
L 267.003031 100.961773 
L 267.544171 100.889575 
L 268.079332 100.581208 
L 268.608644 101.024084 
L 269.132233 101.042498 
L 269.650223 100.957145 
L 270.162731 100.990453 
L 270.669872 101.043177 
L 271.171758 101.014707 
L 271.668496 101.018785 
L 272.160192 100.813152 
L 272.646945 101.031619 
L 273.128855 100.974189 
" clip-path="url(#p2773516199)" style="fill: none; stroke: #009afa"/>
   </g>
   <g id="line2d_23">
    <path d="M 49.61138 5.720269 
L 83.181577 71.323505 
L 102.818884 80.53608 
L 116.751775 72.061863 
L 127.558965 78.578091 
L 136.389082 77.617367 
L 143.854839 85.061296 
L 150.321973 82.912668 
L 156.026389 87.043726 
L 161.129162 76.753366 
L 165.745183 78.753411 
L 169.959279 89.428619 
L 173.835872 90.005159 
L 177.425037 91.34136 
L 180.766469 90.996512 
L 183.89217 91.614357 
L 186.828315 91.567165 
L 189.596586 91.805553 
L 192.215146 90.634061 
L 194.69936 91.213211 
L 197.062344 89.652991 
L 199.31538 91.802851 
L 201.468249 91.982068 
L 203.529477 90.097085 
L 205.50655 91.832463 
L 207.40607 91.717739 
L 209.233893 91.900242 
L 210.995235 91.0554 
L 212.694762 91.021838 
L 214.336667 90.772789 
L 215.924729 91.954682 
L 217.462368 90.821488 
L 218.952687 90.934665 
L 220.398513 91.492849 
L 221.802424 91.551625 
L 223.166784 91.645312 
L 224.493759 91.486707 
L 225.785343 91.782569 
L 227.043377 90.223556 
L 228.269558 91.567134 
L 229.465459 91.912122 
L 230.632541 90.565905 
L 231.77216 91.098805 
L 232.885578 91.999256 
L 233.973973 90.327411 
L 235.038446 91.222956 
L 236.080025 91.064966 
L 237.099675 90.191023 
L 238.098299 90.355379 
L 239.076747 90.225366 
L 240.035819 90.53979 
L 240.976268 90.491299 
L 241.898801 90.5368 
L 242.80409 91.112517 
L 243.692768 91.548555 
L 244.565432 90.943624 
L 245.42265 90.278206 
L 246.264959 91.261839 
L 247.092869 90.800347 
L 247.906864 91.528196 
L 248.707404 89.769237 
L 249.494927 91.150553 
L 250.269848 90.512061 
L 251.032565 89.638939 
L 251.783457 89.871146 
L 252.522885 91.285454 
L 253.251193 91.848085 
L 253.96871 90.862384 
L 254.675753 90.447412 
L 255.372622 90.957558 
L 256.059606 90.127777 
L 256.736981 88.985824 
L 257.405013 91.821129 
L 258.063956 91.1732 
L 258.714054 89.249823 
L 259.355541 89.89821 
L 259.988642 90.698048 
L 260.613574 90.264796 
L 261.230545 91.728968 
L 261.839755 90.543795 
L 262.441397 90.072661 
L 263.035657 91.519777 
L 263.622713 89.752812 
L 264.202739 92.681545 
L 264.7759 89.954453 
L 265.342357 90.228842 
L 265.902266 92.005856 
L 266.455776 89.157436 
L 267.003031 90.361517 
L 267.544171 91.142168 
L 268.079332 89.556445 
L 268.608644 91.212456 
L 269.132233 89.86383 
L 269.650223 91.261871 
L 270.162731 90.542873 
L 270.669872 90.23812 
L 271.171758 90.817919 
L 271.668496 90.523021 
L 272.160192 91.618639 
L 272.646945 91.438308 
L 273.128855 91.308348 
" clip-path="url(#p2773516199)" style="fill: none; stroke: #e36f47"/>
   </g>
   <g id="patch_3">
    <path d="M 42.905856 104.793354 
L 42.905856 2.834646 
" style="fill: none; stroke: #000000; stroke-linejoin: miter; stroke-linecap: square"/>
   </g>
   <g id="patch_4">
    <path d="M 279.834379 104.793354 
L 279.834379 2.834646 
" style="fill: none; stroke: #000000; stroke-linejoin: miter; stroke-linecap: square"/>
   </g>
   <g id="patch_5">
    <path d="M 42.905856 104.793354 
L 279.834379 104.793354 
" style="fill: none; stroke: #000000; stroke-linejoin: miter; stroke-linecap: square"/>
   </g>
   <g id="patch_6">
    <path d="M 42.905856 2.834646 
L 279.834379 2.834646 
" style="fill: none; stroke: #000000; stroke-linejoin: miter; stroke-linecap: square"/>
   </g>
   <g id="legend_1">
    <g id="patch_7">
     <path d="M 154.383754 57.262146 
L 273.834379 57.262146 
L 273.834379 8.834646 
L 154.383754 8.834646 
z
" style="fill: #ffffff; stroke: #000000; stroke-linejoin: miter"/>
    </g>
    <g id="line2d_24">
     <path d="M 163.983754 23.352771 
L 175.983754 23.352771 
L 187.983754 23.352771 
" style="fill: none; stroke: #009afa; stroke-width: 1.5; stroke-linejoin: miter"/>
    </g>
    <g id="text_9">
     <!-- y loss train -->
     <g transform="translate(197.583754 27.552771)scale(0.12 -0.12)">
      <defs>
       <path id="DejaVuSans-79" d="M 2059 -325 
Q 1816 -950 1584 -1140 
Q 1353 -1331 966 -1331 
L 506 -1331 
L 506 -850 
L 844 -850 
Q 1081 -850 1212 -737 
Q 1344 -625 1503 -206 
L 1606 56 
L 191 3500 
L 800 3500 
L 1894 763 
L 2988 3500 
L 3597 3500 
L 2059 -325 
z
" transform="scale(0.015625)"/>
       <path id="DejaVuSans-20" transform="scale(0.015625)"/>
       <path id="DejaVuSans-6c" d="M 603 4863 
L 1178 4863 
L 1178 0 
L 603 0 
L 603 4863 
z
" transform="scale(0.015625)"/>
       <path id="DejaVuSans-73" d="M 2834 3397 
L 2834 2853 
Q 2591 2978 2328 3040 
Q 2066 3103 1784 3103 
Q 1356 3103 1142 2972 
Q 928 2841 928 2578 
Q 928 2378 1081 2264 
Q 1234 2150 1697 2047 
L 1894 2003 
Q 2506 1872 2764 1633 
Q 3022 1394 3022 966 
Q 3022 478 2636 193 
Q 2250 -91 1575 -91 
Q 1294 -91 989 -36 
Q 684 19 347 128 
L 347 722 
Q 666 556 975 473 
Q 1284 391 1588 391 
Q 1994 391 2212 530 
Q 2431 669 2431 922 
Q 2431 1156 2273 1281 
Q 2116 1406 1581 1522 
L 1381 1569 
Q 847 1681 609 1914 
Q 372 2147 372 2553 
Q 372 3047 722 3315 
Q 1072 3584 1716 3584 
Q 2034 3584 2315 3537 
Q 2597 3491 2834 3397 
z
" transform="scale(0.015625)"/>
       <path id="DejaVuSans-74" d="M 1172 4494 
L 1172 3500 
L 2356 3500 
L 2356 3053 
L 1172 3053 
L 1172 1153 
Q 1172 725 1289 603 
Q 1406 481 1766 481 
L 2356 481 
L 2356 0 
L 1766 0 
Q 1100 0 847 248 
Q 594 497 594 1153 
L 594 3053 
L 172 3053 
L 172 3500 
L 594 3500 
L 594 4494 
L 1172 4494 
z
" transform="scale(0.015625)"/>
       <path id="DejaVuSans-72" d="M 2631 2963 
Q 2534 3019 2420 3045 
Q 2306 3072 2169 3072 
Q 1681 3072 1420 2755 
Q 1159 2438 1159 1844 
L 1159 0 
L 581 0 
L 581 3500 
L 1159 3500 
L 1159 2956 
Q 1341 3275 1631 3429 
Q 1922 3584 2338 3584 
Q 2397 3584 2469 3576 
Q 2541 3569 2628 3553 
L 2631 2963 
z
" transform="scale(0.015625)"/>
       <path id="DejaVuSans-61" d="M 2194 1759 
Q 1497 1759 1228 1600 
Q 959 1441 959 1056 
Q 959 750 1161 570 
Q 1363 391 1709 391 
Q 2188 391 2477 730 
Q 2766 1069 2766 1631 
L 2766 1759 
L 2194 1759 
z
M 3341 1997 
L 3341 0 
L 2766 0 
L 2766 531 
Q 2569 213 2275 61 
Q 1981 -91 1556 -91 
Q 1019 -91 701 211 
Q 384 513 384 1019 
Q 384 1609 779 1909 
Q 1175 2209 1959 2209 
L 2766 2209 
L 2766 2266 
Q 2766 2663 2505 2880 
Q 2244 3097 1772 3097 
Q 1472 3097 1187 3025 
Q 903 2953 641 2809 
L 641 3341 
Q 956 3463 1253 3523 
Q 1550 3584 1831 3584 
Q 2591 3584 2966 3190 
Q 3341 2797 3341 1997 
z
" transform="scale(0.015625)"/>
       <path id="DejaVuSans-69" d="M 603 3500 
L 1178 3500 
L 1178 0 
L 603 0 
L 603 3500 
z
M 603 4863 
L 1178 4863 
L 1178 4134 
L 603 4134 
L 603 4863 
z
" transform="scale(0.015625)"/>
       <path id="DejaVuSans-6e" d="M 3513 2113 
L 3513 0 
L 2938 0 
L 2938 2094 
Q 2938 2591 2744 2837 
Q 2550 3084 2163 3084 
Q 1697 3084 1428 2787 
Q 1159 2491 1159 1978 
L 1159 0 
L 581 0 
L 581 3500 
L 1159 3500 
L 1159 2956 
Q 1366 3272 1645 3428 
Q 1925 3584 2291 3584 
Q 2894 3584 3203 3211 
Q 3513 2838 3513 2113 
z
" transform="scale(0.015625)"/>
      </defs>
      <use xlink:href="#DejaVuSans-79"/>
      <use xlink:href="#DejaVuSans-20" x="59.179688"/>
      <use xlink:href="#DejaVuSans-6c" x="90.966797"/>
      <use xlink:href="#DejaVuSans-6f" x="118.75"/>
      <use xlink:href="#DejaVuSans-73" x="179.931641"/>
      <use xlink:href="#DejaVuSans-73" x="232.03125"/>
      <use xlink:href="#DejaVuSans-20" x="284.130859"/>
      <use xlink:href="#DejaVuSans-74" x="315.917969"/>
      <use xlink:href="#DejaVuSans-72" x="355.126953"/>
      <use xlink:href="#DejaVuSans-61" x="396.240234"/>
      <use xlink:href="#DejaVuSans-69" x="457.519531"/>
      <use xlink:href="#DejaVuSans-6e" x="485.302734"/>
     </g>
    </g>
    <g id="line2d_25">
     <path d="M 163.983754 40.966521 
L 175.983754 40.966521 
L 187.983754 40.966521 
" style="fill: none; stroke: #e36f47; stroke-width: 1.5; stroke-linejoin: miter"/>
    </g>
    <g id="text_10">
     <!-- y loss valid -->
     <g transform="translate(197.583754 45.166521)scale(0.12 -0.12)">
      <defs>
       <path id="DejaVuSans-76" d="M 191 3500 
L 800 3500 
L 1894 563 
L 2988 3500 
L 3597 3500 
L 2284 0 
L 1503 0 
L 191 3500 
z
" transform="scale(0.015625)"/>
       <path id="DejaVuSans-64" d="M 2906 2969 
L 2906 4863 
L 3481 4863 
L 3481 0 
L 2906 0 
L 2906 525 
Q 2725 213 2448 61 
Q 2172 -91 1784 -91 
Q 1150 -91 751 415 
Q 353 922 353 1747 
Q 353 2572 751 3078 
Q 1150 3584 1784 3584 
Q 2172 3584 2448 3432 
Q 2725 3281 2906 2969 
z
M 947 1747 
Q 947 1113 1208 752 
Q 1469 391 1925 391 
Q 2381 391 2643 752 
Q 2906 1113 2906 1747 
Q 2906 2381 2643 2742 
Q 2381 3103 1925 3103 
Q 1469 3103 1208 2742 
Q 947 2381 947 1747 
z
" transform="scale(0.015625)"/>
      </defs>
      <use xlink:href="#DejaVuSans-79"/>
      <use xlink:href="#DejaVuSans-20" x="59.179688"/>
      <use xlink:href="#DejaVuSans-6c" x="90.966797"/>
      <use xlink:href="#DejaVuSans-6f" x="118.75"/>
      <use xlink:href="#DejaVuSans-73" x="179.931641"/>
      <use xlink:href="#DejaVuSans-73" x="232.03125"/>
      <use xlink:href="#DejaVuSans-20" x="284.130859"/>
      <use xlink:href="#DejaVuSans-76" x="315.917969"/>
      <use xlink:href="#DejaVuSans-61" x="375.097656"/>
      <use xlink:href="#DejaVuSans-6c" x="436.376953"/>
      <use xlink:href="#DejaVuSans-69" x="464.160156"/>
      <use xlink:href="#DejaVuSans-64" x="491.943359"/>
     </g>
    </g>
   </g>
  </g>
  <g id="axes_2">
   <g id="patch_8">
    <path d="M 336.236831 104.793354 
L 573.165354 104.793354 
L 573.165354 2.834646 
L 336.236831 2.834646 
z
" style="fill: #ffffff"/>
   </g>
   <g id="matplotlib.axis_3">
    <g id="xtick_4">
     <g id="line2d_26">
      <path d="M 342.942355 104.793354 
L 342.942355 2.834646 
" clip-path="url(#p89b547df9a)" style="fill: none; stroke: #000000; stroke-opacity: 0.1; stroke-width: 0.5; stroke-linecap: square"/>
     </g>
     <g id="line2d_27">
      <g>
       <use xlink:href="#mbe6fa523ce" x="342.942355" y="104.793354" style="stroke: #000000; stroke-width: 0.5"/>
      </g>
     </g>
     <g id="line2d_28">
      <g>
       <use xlink:href="#m596d1548f3" x="342.942355" y="2.834646" style="stroke: #000000; stroke-width: 0.5"/>
      </g>
     </g>
     <g id="text_11">
      <!-- $\mathregular{10^{0}}$ -->
      <g transform="translate(332.382355 117.411479)scale(0.12 -0.12)">
       <use xlink:href="#DejaVuSans-31" transform="translate(0 0.765625)"/>
       <use xlink:href="#DejaVuSans-30" transform="translate(63.623047 0.765625)"/>
       <use xlink:href="#DejaVuSans-30" transform="translate(128.203125 39.046875)scale(0.7)"/>
      </g>
     </g>
    </g>
    <g id="xtick_5">
     <g id="line2d_29">
      <path d="M 454.460138 104.793354 
L 454.460138 2.834646 
" clip-path="url(#p89b547df9a)" style="fill: none; stroke: #000000; stroke-opacity: 0.1; stroke-width: 0.5; stroke-linecap: square"/>
     </g>
     <g id="line2d_30">
      <g>
       <use xlink:href="#mbe6fa523ce" x="454.460138" y="104.793354" style="stroke: #000000; stroke-width: 0.5"/>
      </g>
     </g>
     <g id="line2d_31">
      <g>
       <use xlink:href="#m596d1548f3" x="454.460138" y="2.834646" style="stroke: #000000; stroke-width: 0.5"/>
      </g>
     </g>
     <g id="text_12">
      <!-- $\mathregular{10^{1}}$ -->
      <g transform="translate(443.900138 117.411479)scale(0.12 -0.12)">
       <use xlink:href="#DejaVuSans-31" transform="translate(0 0.684375)"/>
       <use xlink:href="#DejaVuSans-30" transform="translate(63.623047 0.684375)"/>
       <use xlink:href="#DejaVuSans-31" transform="translate(128.203125 38.965625)scale(0.7)"/>
      </g>
     </g>
    </g>
    <g id="xtick_6">
     <g id="line2d_32">
      <path d="M 565.97792 104.793354 
L 565.97792 2.834646 
" clip-path="url(#p89b547df9a)" style="fill: none; stroke: #000000; stroke-opacity: 0.1; stroke-width: 0.5; stroke-linecap: square"/>
     </g>
     <g id="line2d_33">
      <g>
       <use xlink:href="#mbe6fa523ce" x="565.97792" y="104.793354" style="stroke: #000000; stroke-width: 0.5"/>
      </g>
     </g>
     <g id="line2d_34">
      <g>
       <use xlink:href="#m596d1548f3" x="565.97792" y="2.834646" style="stroke: #000000; stroke-width: 0.5"/>
      </g>
     </g>
     <g id="text_13">
      <!-- $\mathregular{10^{2}}$ -->
      <g transform="translate(555.41792 117.411479)scale(0.12 -0.12)">
       <use xlink:href="#DejaVuSans-31" transform="translate(0 0.765625)"/>
       <use xlink:href="#DejaVuSans-30" transform="translate(63.623047 0.765625)"/>
       <use xlink:href="#DejaVuSans-32" transform="translate(128.203125 39.046875)scale(0.7)"/>
      </g>
     </g>
    </g>
    <g id="text_14">
     <!-- Epoch -->
     <g transform="translate(430.203593 136.064604)scale(0.16 -0.16)">
      <use xlink:href="#DejaVuSans-45"/>
      <use xlink:href="#DejaVuSans-70" x="63.183594"/>
      <use xlink:href="#DejaVuSans-6f" x="126.660156"/>
      <use xlink:href="#DejaVuSans-63" x="187.841797"/>
      <use xlink:href="#DejaVuSans-68" x="242.822266"/>
     </g>
    </g>
   </g>
   <g id="matplotlib.axis_4">
    <g id="ytick_5">
     <g id="line2d_35">
      <path d="M 336.236831 101.211559 
L 573.165354 101.211559 
" clip-path="url(#p89b547df9a)" style="fill: none; stroke: #000000; stroke-opacity: 0.1; stroke-width: 0.5; stroke-linecap: square"/>
     </g>
     <g id="line2d_36">
      <g>
       <use xlink:href="#m5c6b058759" x="336.236831" y="101.211559" style="stroke: #000000; stroke-width: 0.5"/>
      </g>
     </g>
     <g id="line2d_37">
      <g>
       <use xlink:href="#m5d523df698" x="573.165354" y="101.211559" style="stroke: #000000; stroke-width: 0.5"/>
      </g>
     </g>
     <g id="text_15">
      <!-- $\mathregular{10^{-0.335}}$ -->
      <g transform="translate(285.936831 105.770622)scale(0.12 -0.12)">
       <use xlink:href="#DejaVuSans-31" transform="translate(0 0.765625)"/>
       <use xlink:href="#DejaVuSans-30" transform="translate(63.623047 0.765625)"/>
       <use xlink:href="#DejaVuSans-2212" transform="translate(128.203125 39.046875)scale(0.7)"/>
       <use xlink:href="#DejaVuSans-30" transform="translate(186.855469 39.046875)scale(0.7)"/>
       <use xlink:href="#DejaVuSans-2e" transform="translate(231.391602 39.046875)scale(0.7)"/>
       <use xlink:href="#DejaVuSans-33" transform="translate(253.642578 39.046875)scale(0.7)"/>
       <use xlink:href="#DejaVuSans-33" transform="translate(298.178711 39.046875)scale(0.7)"/>
       <use xlink:href="#DejaVuSans-35" transform="translate(342.714844 39.046875)scale(0.7)"/>
      </g>
     </g>
    </g>
    <g id="ytick_6">
     <g id="line2d_38">
      <path d="M 336.236831 83.057157 
L 573.165354 83.057157 
" clip-path="url(#p89b547df9a)" style="fill: none; stroke: #000000; stroke-opacity: 0.1; stroke-width: 0.5; stroke-linecap: square"/>
     </g>
     <g id="line2d_39">
      <g>
       <use xlink:href="#m5c6b058759" x="336.236831" y="83.057157" style="stroke: #000000; stroke-width: 0.5"/>
      </g>
     </g>
     <g id="line2d_40">
      <g>
       <use xlink:href="#m5d523df698" x="573.165354" y="83.057157" style="stroke: #000000; stroke-width: 0.5"/>
      </g>
     </g>
     <g id="text_16">
      <!-- $\mathregular{10^{-0.330}}$ -->
      <g transform="translate(285.936831 87.616219)scale(0.12 -0.12)">
       <use xlink:href="#DejaVuSans-31" transform="translate(0 0.765625)"/>
       <use xlink:href="#DejaVuSans-30" transform="translate(63.623047 0.765625)"/>
       <use xlink:href="#DejaVuSans-2212" transform="translate(128.203125 39.046875)scale(0.7)"/>
       <use xlink:href="#DejaVuSans-30" transform="translate(186.855469 39.046875)scale(0.7)"/>
       <use xlink:href="#DejaVuSans-2e" transform="translate(231.391602 39.046875)scale(0.7)"/>
       <use xlink:href="#DejaVuSans-33" transform="translate(253.642578 39.046875)scale(0.7)"/>
       <use xlink:href="#DejaVuSans-33" transform="translate(298.178711 39.046875)scale(0.7)"/>
       <use xlink:href="#DejaVuSans-30" transform="translate(342.714844 39.046875)scale(0.7)"/>
      </g>
     </g>
    </g>
    <g id="ytick_7">
     <g id="line2d_41">
      <path d="M 336.236831 64.902754 
L 573.165354 64.902754 
" clip-path="url(#p89b547df9a)" style="fill: none; stroke: #000000; stroke-opacity: 0.1; stroke-width: 0.5; stroke-linecap: square"/>
     </g>
     <g id="line2d_42">
      <g>
       <use xlink:href="#m5c6b058759" x="336.236831" y="64.902754" style="stroke: #000000; stroke-width: 0.5"/>
      </g>
     </g>
     <g id="line2d_43">
      <g>
       <use xlink:href="#m5d523df698" x="573.165354" y="64.902754" style="stroke: #000000; stroke-width: 0.5"/>
      </g>
     </g>
     <g id="text_17">
      <!-- $\mathregular{10^{-0.325}}$ -->
      <g transform="translate(285.936831 69.461817)scale(0.12 -0.12)">
       <use xlink:href="#DejaVuSans-31" transform="translate(0 0.765625)"/>
       <use xlink:href="#DejaVuSans-30" transform="translate(63.623047 0.765625)"/>
       <use xlink:href="#DejaVuSans-2212" transform="translate(128.203125 39.046875)scale(0.7)"/>
       <use xlink:href="#DejaVuSans-30" transform="translate(186.855469 39.046875)scale(0.7)"/>
       <use xlink:href="#DejaVuSans-2e" transform="translate(231.391602 39.046875)scale(0.7)"/>
       <use xlink:href="#DejaVuSans-33" transform="translate(253.642578 39.046875)scale(0.7)"/>
       <use xlink:href="#DejaVuSans-32" transform="translate(298.178711 39.046875)scale(0.7)"/>
       <use xlink:href="#DejaVuSans-35" transform="translate(342.714844 39.046875)scale(0.7)"/>
      </g>
     </g>
    </g>
    <g id="ytick_8">
     <g id="line2d_44">
      <path d="M 336.236831 46.748352 
L 573.165354 46.748352 
" clip-path="url(#p89b547df9a)" style="fill: none; stroke: #000000; stroke-opacity: 0.1; stroke-width: 0.5; stroke-linecap: square"/>
     </g>
     <g id="line2d_45">
      <g>
       <use xlink:href="#m5c6b058759" x="336.236831" y="46.748352" style="stroke: #000000; stroke-width: 0.5"/>
      </g>
     </g>
     <g id="line2d_46">
      <g>
       <use xlink:href="#m5d523df698" x="573.165354" y="46.748352" style="stroke: #000000; stroke-width: 0.5"/>
      </g>
     </g>
     <g id="text_18">
      <!-- $\mathregular{10^{-0.320}}$ -->
      <g transform="translate(285.936831 51.307414)scale(0.12 -0.12)">
       <use xlink:href="#DejaVuSans-31" transform="translate(0 0.765625)"/>
       <use xlink:href="#DejaVuSans-30" transform="translate(63.623047 0.765625)"/>
       <use xlink:href="#DejaVuSans-2212" transform="translate(128.203125 39.046875)scale(0.7)"/>
       <use xlink:href="#DejaVuSans-30" transform="translate(186.855469 39.046875)scale(0.7)"/>
       <use xlink:href="#DejaVuSans-2e" transform="translate(231.391602 39.046875)scale(0.7)"/>
       <use xlink:href="#DejaVuSans-33" transform="translate(253.642578 39.046875)scale(0.7)"/>
       <use xlink:href="#DejaVuSans-32" transform="translate(298.178711 39.046875)scale(0.7)"/>
       <use xlink:href="#DejaVuSans-30" transform="translate(342.714844 39.046875)scale(0.7)"/>
      </g>
     </g>
    </g>
    <g id="ytick_9">
     <g id="line2d_47">
      <path d="M 336.236831 28.593949 
L 573.165354 28.593949 
" clip-path="url(#p89b547df9a)" style="fill: none; stroke: #000000; stroke-opacity: 0.1; stroke-width: 0.5; stroke-linecap: square"/>
     </g>
     <g id="line2d_48">
      <g>
       <use xlink:href="#m5c6b058759" x="336.236831" y="28.593949" style="stroke: #000000; stroke-width: 0.5"/>
      </g>
     </g>
     <g id="line2d_49">
      <g>
       <use xlink:href="#m5d523df698" x="573.165354" y="28.593949" style="stroke: #000000; stroke-width: 0.5"/>
      </g>
     </g>
     <g id="text_19">
      <!-- $\mathregular{10^{-0.315}}$ -->
      <g transform="translate(285.936831 33.153012)scale(0.12 -0.12)">
       <use xlink:href="#DejaVuSans-31" transform="translate(0 0.765625)"/>
       <use xlink:href="#DejaVuSans-30" transform="translate(63.623047 0.765625)"/>
       <use xlink:href="#DejaVuSans-2212" transform="translate(128.203125 39.046875)scale(0.7)"/>
       <use xlink:href="#DejaVuSans-30" transform="translate(186.855469 39.046875)scale(0.7)"/>
       <use xlink:href="#DejaVuSans-2e" transform="translate(231.391602 39.046875)scale(0.7)"/>
       <use xlink:href="#DejaVuSans-33" transform="translate(253.642578 39.046875)scale(0.7)"/>
       <use xlink:href="#DejaVuSans-31" transform="translate(298.178711 39.046875)scale(0.7)"/>
       <use xlink:href="#DejaVuSans-35" transform="translate(342.714844 39.046875)scale(0.7)"/>
      </g>
     </g>
    </g>
    <g id="ytick_10">
     <g id="line2d_50">
      <path d="M 336.236831 10.439547 
L 573.165354 10.439547 
" clip-path="url(#p89b547df9a)" style="fill: none; stroke: #000000; stroke-opacity: 0.1; stroke-width: 0.5; stroke-linecap: square"/>
     </g>
     <g id="line2d_51">
      <g>
       <use xlink:href="#m5c6b058759" x="336.236831" y="10.439547" style="stroke: #000000; stroke-width: 0.5"/>
      </g>
     </g>
     <g id="line2d_52">
      <g>
       <use xlink:href="#m5d523df698" x="573.165354" y="10.439547" style="stroke: #000000; stroke-width: 0.5"/>
      </g>
     </g>
     <g id="text_20">
      <!-- $\mathregular{10^{-0.310}}$ -->
      <g transform="translate(285.936831 14.998609)scale(0.12 -0.12)">
       <use xlink:href="#DejaVuSans-31" transform="translate(0 0.765625)"/>
       <use xlink:href="#DejaVuSans-30" transform="translate(63.623047 0.765625)"/>
       <use xlink:href="#DejaVuSans-2212" transform="translate(128.203125 39.046875)scale(0.7)"/>
       <use xlink:href="#DejaVuSans-30" transform="translate(186.855469 39.046875)scale(0.7)"/>
       <use xlink:href="#DejaVuSans-2e" transform="translate(231.391602 39.046875)scale(0.7)"/>
       <use xlink:href="#DejaVuSans-33" transform="translate(253.642578 39.046875)scale(0.7)"/>
       <use xlink:href="#DejaVuSans-31" transform="translate(298.178711 39.046875)scale(0.7)"/>
       <use xlink:href="#DejaVuSans-30" transform="translate(342.714844 39.046875)scale(0.7)"/>
      </g>
     </g>
    </g>
   </g>
   <g id="line2d_53">
    <path d="M 342.942355 5.720269 
L 376.512553 68.900986 
L 396.149859 83.248058 
L 410.08275 87.320312 
L 420.88994 84.346325 
L 429.720057 86.098918 
L 437.185814 90.554561 
L 443.652948 90.580248 
L 449.357364 89.228773 
L 454.460138 85.637215 
L 459.076158 87.381122 
L 463.290254 88.736571 
L 467.166848 93.753367 
L 470.756012 96.328428 
L 474.097444 97.302166 
L 477.223145 97.163367 
L 480.15929 97.777656 
L 482.927561 96.127903 
L 485.546121 98.298703 
L 488.030335 97.787994 
L 490.393319 97.585065 
L 492.646356 96.38006 
L 494.799224 97.986849 
L 496.860452 97.8944 
L 498.837525 96.256782 
L 500.737045 98.583951 
L 502.564868 97.206699 
L 504.32621 98.148852 
L 506.025737 97.599322 
L 507.667642 97.465222 
L 509.255704 96.771512 
L 510.793343 97.924822 
L 512.283662 97.866789 
L 513.729488 97.361159 
L 515.133399 97.33801 
L 516.497759 96.957206 
L 517.824734 98.793523 
L 519.116319 97.439411 
L 520.374352 98.246728 
L 521.600533 96.984674 
L 522.796434 96.31435 
L 523.963516 98.370966 
L 525.103135 96.477409 
L 526.216553 98.392692 
L 527.304949 98.049096 
L 528.369421 97.573864 
L 529.411 98.146587 
L 530.43065 97.36858 
L 531.429274 96.462372 
L 532.407722 98.040275 
L 533.366795 96.712388 
L 534.307243 100.682711 
L 535.229776 98.018447 
L 536.135066 98.572949 
L 537.023743 99.397634 
L 537.896407 98.716584 
L 538.753625 100.193299 
L 539.595934 99.69237 
L 540.423845 100.04932 
L 541.237839 100.698696 
L 542.038379 100.605939 
L 542.825902 100.1088 
L 543.600823 101.907731 
L 544.363541 100.109264 
L 545.114432 98.823338 
L 545.85386 101.404835 
L 546.582168 99.300744 
L 547.299685 101.045366 
L 548.006728 100.952296 
L 548.703597 100.758106 
L 549.390581 100.899055 
L 550.067956 100.063538 
L 550.735988 99.02019 
L 551.394931 101.227264 
L 552.045029 101.432149 
L 552.686516 99.764726 
L 553.319617 100.087382 
L 553.944549 100.93748 
L 554.56152 99.747053 
L 555.17073 101.531121 
L 555.772372 101.18676 
L 556.366632 99.691557 
L 556.953688 100.097229 
L 557.533714 100.546815 
L 558.106875 101.535093 
L 558.673333 100.521654 
L 559.233241 98.819863 
L 559.786751 100.694037 
L 560.334006 99.410775 
L 560.875146 99.528076 
L 561.410307 100.863508 
L 561.939619 100.119586 
L 562.463208 100.329163 
L 562.981198 101.254893 
L 563.493706 99.636213 
L 564.000847 100.211715 
L 564.502733 100.047249 
L 564.999471 100.435917 
L 565.491167 100.563943 
L 565.97792 100.996657 
L 566.45983 101.741306 
" clip-path="url(#p89b547df9a)" style="fill: none; stroke: #009afa"/>
   </g>
   <g id="patch_9">
    <path d="M 336.236831 104.793354 
L 336.236831 2.834646 
" style="fill: none; stroke: #000000; stroke-linejoin: miter; stroke-linecap: square"/>
   </g>
   <g id="patch_10">
    <path d="M 573.165354 104.793354 
L 573.165354 2.834646 
" style="fill: none; stroke: #000000; stroke-linejoin: miter; stroke-linecap: square"/>
   </g>
   <g id="patch_11">
    <path d="M 336.236831 104.793354 
L 573.165354 104.793354 
" style="fill: none; stroke: #000000; stroke-linejoin: miter; stroke-linecap: square"/>
   </g>
   <g id="patch_12">
    <path d="M 336.236831 2.834646 
L 573.165354 2.834646 
" style="fill: none; stroke: #000000; stroke-linejoin: miter; stroke-linecap: square"/>
   </g>
   <g id="legend_2">
    <g id="patch_13">
     <path d="M 479.754729 39.648396 
L 567.165354 39.648396 
L 567.165354 8.834646 
L 479.754729 8.834646 
z
" style="fill: #ffffff; stroke: #000000; stroke-linejoin: miter"/>
    </g>
    <g id="line2d_54">
     <path d="M 489.354729 23.352771 
L 501.354729 23.352771 
L 513.354729 23.352771 
" style="fill: none; stroke: #009afa; stroke-width: 1.5; stroke-linejoin: miter"/>
    </g>
    <g id="text_21">
     <!-- p loss -->
     <g transform="translate(522.954729 27.552771)scale(0.12 -0.12)">
      <use xlink:href="#DejaVuSans-70"/>
      <use xlink:href="#DejaVuSans-20" x="63.476562"/>
      <use xlink:href="#DejaVuSans-6c" x="95.263672"/>
      <use xlink:href="#DejaVuSans-6f" x="123.046875"/>
      <use xlink:href="#DejaVuSans-73" x="184.228516"/>
      <use xlink:href="#DejaVuSans-73" x="236.328125"/>
     </g>
    </g>
   </g>
  </g>
 </g>
 <defs>
  <clipPath id="p2773516199">
   <rect x="42.905856" y="2.834646" width="236.928524" height="101.958709"/>
  </clipPath>
  <clipPath id="p89b547df9a">
   <rect x="336.236831" y="2.834646" width="236.928524" height="101.958709"/>
  </clipPath>
 </defs>
</svg>
