<?xml version="1.0" encoding="utf-8"?>
<svg xmlns="http://www.w3.org/2000/svg" xmlns:xlink="http://www.w3.org/1999/xlink" width="600" height="400" viewBox="0 0 2400 1600">
<defs>
  <clipPath id="clip520">
    <rect x="0" y="0" width="2400" height="1600"/>
  </clipPath>
</defs>
<path clip-path="url(#clip520)" d="
M0 1600 L2400 1600 L2400 0 L0 0  Z
  " fill="#ffffff" fill-rule="evenodd" fill-opacity="1"/>
<defs>
  <clipPath id="clip521">
    <rect x="480" y="0" width="1681" height="1600"/>
  </clipPath>
</defs>
<path clip-path="url(#clip520)" d="
M289.119 1423.18 L2352.76 1423.18 L2352.76 47.2441 L289.119 47.2441  Z
  " fill="#ffffff" fill-rule="evenodd" fill-opacity="1"/>
<defs>
  <clipPath id="clip522">
    <rect x="289" y="47" width="2065" height="1377"/>
  </clipPath>
</defs>
<polyline clip-path="url(#clip522)" style="stroke:#000000; stroke-linecap:butt; stroke-linejoin:round; stroke-width:2; stroke-opacity:0.1; fill:none" points="
  509.76,1423.18 509.76,47.2441 
  "/>
<polyline clip-path="url(#clip522)" style="stroke:#000000; stroke-linecap:butt; stroke-linejoin:round; stroke-width:2; stroke-opacity:0.1; fill:none" points="
  915.349,1423.18 915.349,47.2441 
  "/>
<polyline clip-path="url(#clip522)" style="stroke:#000000; stroke-linecap:butt; stroke-linejoin:round; stroke-width:2; stroke-opacity:0.1; fill:none" points="
  1320.94,1423.18 1320.94,47.2441 
  "/>
<polyline clip-path="url(#clip522)" style="stroke:#000000; stroke-linecap:butt; stroke-linejoin:round; stroke-width:2; stroke-opacity:0.1; fill:none" points="
  1726.53,1423.18 1726.53,47.2441 
  "/>
<polyline clip-path="url(#clip522)" style="stroke:#000000; stroke-linecap:butt; stroke-linejoin:round; stroke-width:2; stroke-opacity:0.1; fill:none" points="
  2132.12,1423.18 2132.12,47.2441 
  "/>
<polyline clip-path="url(#clip520)" style="stroke:#000000; stroke-linecap:butt; stroke-linejoin:round; stroke-width:4; stroke-opacity:1; fill:none" points="
  289.119,1423.18 2352.76,1423.18 
  "/>
<polyline clip-path="url(#clip520)" style="stroke:#000000; stroke-linecap:butt; stroke-linejoin:round; stroke-width:4; stroke-opacity:1; fill:none" points="
  289.119,47.2441 2352.76,47.2441 
  "/>
<polyline clip-path="url(#clip520)" style="stroke:#000000; stroke-linecap:butt; stroke-linejoin:round; stroke-width:4; stroke-opacity:1; fill:none" points="
  509.76,1423.18 509.76,1406.67 
  "/>
<polyline clip-path="url(#clip520)" style="stroke:#000000; stroke-linecap:butt; stroke-linejoin:round; stroke-width:4; stroke-opacity:1; fill:none" points="
  915.349,1423.18 915.349,1406.67 
  "/>
<polyline clip-path="url(#clip520)" style="stroke:#000000; stroke-linecap:butt; stroke-linejoin:round; stroke-width:4; stroke-opacity:1; fill:none" points="
  1320.94,1423.18 1320.94,1406.67 
  "/>
<polyline clip-path="url(#clip520)" style="stroke:#000000; stroke-linecap:butt; stroke-linejoin:round; stroke-width:4; stroke-opacity:1; fill:none" points="
  1726.53,1423.18 1726.53,1406.67 
  "/>
<polyline clip-path="url(#clip520)" style="stroke:#000000; stroke-linecap:butt; stroke-linejoin:round; stroke-width:4; stroke-opacity:1; fill:none" points="
  2132.12,1423.18 2132.12,1406.67 
  "/>
<path clip-path="url(#clip520)" d="M500.142 1479.92 L507.781 1479.92 L507.781 1453.55 L499.47 1455.22 L499.47 1450.96 L507.734 1449.29 L512.41 1449.29 L512.41 1479.92 L520.049 1479.92 L520.049 1483.85 L500.142 1483.85 L500.142 1479.92 Z" fill="#000000" fill-rule="evenodd" fill-opacity="1" /><path clip-path="url(#clip520)" d="M910.002 1479.92 L926.321 1479.92 L926.321 1483.85 L904.377 1483.85 L904.377 1479.92 Q907.039 1477.16 911.622 1472.53 Q916.228 1467.88 917.409 1466.54 Q919.654 1464.01 920.534 1462.28 Q921.437 1460.52 921.437 1458.83 Q921.437 1456.07 919.492 1454.34 Q917.571 1452.6 914.469 1452.6 Q912.27 1452.6 909.816 1453.37 Q907.386 1454.13 904.608 1455.68 L904.608 1450.96 Q907.432 1449.82 909.886 1449.25 Q912.339 1448.67 914.376 1448.67 Q919.747 1448.67 922.941 1451.35 Q926.136 1454.04 926.136 1458.53 Q926.136 1460.66 925.325 1462.58 Q924.538 1464.48 922.432 1467.07 Q921.853 1467.74 918.751 1470.96 Q915.65 1474.15 910.002 1479.92 Z" fill="#000000" fill-rule="evenodd" fill-opacity="1" /><path clip-path="url(#clip520)" d="M1325.19 1465.22 Q1328.54 1465.94 1330.42 1468.2 Q1332.31 1470.47 1332.31 1473.81 Q1332.31 1478.92 1328.8 1481.72 Q1325.28 1484.52 1318.8 1484.52 Q1316.62 1484.52 1314.31 1484.08 Q1312.01 1483.67 1309.56 1482.81 L1309.56 1478.3 Q1311.5 1479.43 1313.82 1480.01 Q1316.13 1480.59 1318.66 1480.59 Q1323.06 1480.59 1325.35 1478.85 Q1327.66 1477.12 1327.66 1473.81 Q1327.66 1470.75 1325.51 1469.04 Q1323.38 1467.3 1319.56 1467.3 L1315.53 1467.3 L1315.53 1463.46 L1319.75 1463.46 Q1323.19 1463.46 1325.02 1462.09 Q1326.85 1460.7 1326.85 1458.11 Q1326.85 1455.45 1324.95 1454.04 Q1323.08 1452.6 1319.56 1452.6 Q1317.64 1452.6 1315.44 1453.02 Q1313.24 1453.44 1310.6 1454.31 L1310.6 1450.15 Q1313.26 1449.41 1315.58 1449.04 Q1317.92 1448.67 1319.98 1448.67 Q1325.3 1448.67 1328.4 1451.1 Q1331.5 1453.5 1331.5 1457.63 Q1331.5 1460.5 1329.86 1462.49 Q1328.22 1464.45 1325.19 1465.22 Z" fill="#000000" fill-rule="evenodd" fill-opacity="1" /><path clip-path="url(#clip520)" d="M1729.54 1453.37 L1717.73 1471.81 L1729.54 1471.81 L1729.54 1453.37 M1728.31 1449.29 L1734.19 1449.29 L1734.19 1471.81 L1739.12 1471.81 L1739.12 1475.7 L1734.19 1475.7 L1734.19 1483.85 L1729.54 1483.85 L1729.54 1475.7 L1713.93 1475.7 L1713.93 1471.19 L1728.31 1449.29 Z" fill="#000000" fill-rule="evenodd" fill-opacity="1" /><path clip-path="url(#clip520)" d="M2122.39 1449.29 L2140.75 1449.29 L2140.75 1453.23 L2126.68 1453.23 L2126.68 1461.7 Q2127.69 1461.35 2128.71 1461.19 Q2129.73 1461 2130.75 1461 Q2136.54 1461 2139.92 1464.18 Q2143.3 1467.35 2143.3 1472.76 Q2143.3 1478.34 2139.82 1481.44 Q2136.35 1484.52 2130.03 1484.52 Q2127.86 1484.52 2125.59 1484.15 Q2123.34 1483.78 2120.94 1483.04 L2120.94 1478.34 Q2123.02 1479.48 2125.24 1480.03 Q2127.46 1480.59 2129.94 1480.59 Q2133.94 1480.59 2136.28 1478.48 Q2138.62 1476.38 2138.62 1472.76 Q2138.62 1469.15 2136.28 1467.05 Q2133.94 1464.94 2129.94 1464.94 Q2128.06 1464.94 2126.19 1465.36 Q2124.34 1465.77 2122.39 1466.65 L2122.39 1449.29 Z" fill="#000000" fill-rule="evenodd" fill-opacity="1" /><path clip-path="url(#clip520)" d="M1140.39 1520.52 L1149.05 1520.52 L1170.12 1560.28 L1170.12 1520.52 L1176.36 1520.52 L1176.36 1568.04 L1167.7 1568.04 L1146.63 1528.29 L1146.63 1568.04 L1140.39 1568.04 L1140.39 1520.52 Z" fill="#000000" fill-rule="evenodd" fill-opacity="1" /><path clip-path="url(#clip520)" d="M1202.71 1536.5 Q1198 1536.5 1195.26 1540.19 Q1192.53 1543.85 1192.53 1550.25 Q1192.53 1556.65 1195.23 1560.34 Q1197.97 1564 1202.71 1564 Q1207.39 1564 1210.13 1560.31 Q1212.86 1556.62 1212.86 1550.25 Q1212.86 1543.92 1210.13 1540.23 Q1207.39 1536.5 1202.71 1536.5 M1202.71 1531.54 Q1210.35 1531.54 1214.71 1536.5 Q1219.07 1541.47 1219.07 1550.25 Q1219.07 1559 1214.71 1564 Q1210.35 1568.97 1202.71 1568.97 Q1195.04 1568.97 1190.68 1564 Q1186.35 1559 1186.35 1550.25 Q1186.35 1541.47 1190.68 1536.5 Q1195.04 1531.54 1202.71 1531.54 Z" fill="#000000" fill-rule="evenodd" fill-opacity="1" /><path clip-path="url(#clip520)" d="M1228.78 1532.4 L1234.63 1532.4 L1234.63 1568.04 L1228.78 1568.04 L1228.78 1532.4 M1228.78 1518.52 L1234.63 1518.52 L1234.63 1525.93 L1228.78 1525.93 L1228.78 1518.52 Z" fill="#000000" fill-rule="evenodd" fill-opacity="1" /><path clip-path="url(#clip520)" d="M1269.61 1533.45 L1269.61 1538.98 Q1267.13 1537.71 1264.46 1537.07 Q1261.78 1536.44 1258.92 1536.44 Q1254.56 1536.44 1252.36 1537.77 Q1250.2 1539.11 1250.2 1541.79 Q1250.2 1543.82 1251.76 1545 Q1253.32 1546.15 1258.03 1547.2 L1260.03 1547.64 Q1266.27 1548.98 1268.88 1551.43 Q1271.52 1553.85 1271.52 1558.21 Q1271.52 1563.17 1267.58 1566.07 Q1263.66 1568.97 1256.79 1568.97 Q1253.92 1568.97 1250.8 1568.39 Q1247.72 1567.85 1244.28 1566.74 L1244.28 1560.69 Q1247.53 1562.38 1250.68 1563.24 Q1253.83 1564.07 1256.91 1564.07 Q1261.05 1564.07 1263.28 1562.66 Q1265.51 1561.23 1265.51 1558.65 Q1265.51 1556.27 1263.88 1554.99 Q1262.29 1553.72 1256.85 1552.54 L1254.81 1552.07 Q1249.37 1550.92 1246.95 1548.56 Q1244.53 1546.18 1244.53 1542.04 Q1244.53 1537.01 1248.1 1534.27 Q1251.66 1531.54 1258.22 1531.54 Q1261.47 1531.54 1264.33 1532.01 Q1267.2 1532.49 1269.61 1533.45 Z" fill="#000000" fill-rule="evenodd" fill-opacity="1" /><path clip-path="url(#clip520)" d="M1311.34 1548.76 L1311.34 1551.62 L1284.41 1551.62 Q1284.8 1557.67 1288.04 1560.85 Q1291.32 1564 1297.15 1564 Q1300.52 1564 1303.67 1563.17 Q1306.85 1562.35 1309.97 1560.69 L1309.97 1566.23 Q1306.82 1567.57 1303.51 1568.27 Q1300.2 1568.97 1296.8 1568.97 Q1288.27 1568.97 1283.27 1564 Q1278.3 1559.04 1278.3 1550.57 Q1278.3 1541.82 1283.01 1536.69 Q1287.76 1531.54 1295.78 1531.54 Q1302.97 1531.54 1307.14 1536.18 Q1311.34 1540.8 1311.34 1548.76 M1305.48 1547.04 Q1305.42 1542.23 1302.78 1539.37 Q1300.17 1536.5 1295.84 1536.5 Q1290.94 1536.5 1287.98 1539.27 Q1285.05 1542.04 1284.61 1547.07 L1305.48 1547.04 Z" fill="#000000" fill-rule="evenodd" fill-opacity="1" /><path clip-path="url(#clip520)" d="M1341.93 1520.52 L1348.36 1520.52 L1348.36 1562.63 L1371.5 1562.63 L1371.5 1568.04 L1341.93 1568.04 L1341.93 1520.52 Z" fill="#000000" fill-rule="evenodd" fill-opacity="1" /><path clip-path="url(#clip520)" d="M1407.34 1548.76 L1407.34 1551.62 L1380.41 1551.62 Q1380.79 1557.67 1384.04 1560.85 Q1387.32 1564 1393.14 1564 Q1396.51 1564 1399.67 1563.17 Q1402.85 1562.35 1405.97 1560.69 L1405.97 1566.23 Q1402.82 1567.57 1399.51 1568.27 Q1396.2 1568.97 1392.79 1568.97 Q1384.26 1568.97 1379.26 1564 Q1374.3 1559.04 1374.3 1550.57 Q1374.3 1541.82 1379.01 1536.69 Q1383.75 1531.54 1391.77 1531.54 Q1398.97 1531.54 1403.13 1536.18 Q1407.34 1540.8 1407.34 1548.76 M1401.48 1547.04 Q1401.42 1542.23 1398.77 1539.37 Q1396.16 1536.5 1391.84 1536.5 Q1386.93 1536.5 1383.97 1539.27 Q1381.05 1542.04 1380.6 1547.07 L1401.48 1547.04 Z" fill="#000000" fill-rule="evenodd" fill-opacity="1" /><path clip-path="url(#clip520)" d="M1412.75 1532.4 L1418.95 1532.4 L1430.09 1562.31 L1441.23 1532.4 L1447.44 1532.4 L1434.07 1568.04 L1426.12 1568.04 L1412.75 1532.4 Z" fill="#000000" fill-rule="evenodd" fill-opacity="1" /><path clip-path="url(#clip520)" d="M1486.02 1548.76 L1486.02 1551.62 L1459.09 1551.62 Q1459.47 1557.67 1462.72 1560.85 Q1466 1564 1471.82 1564 Q1475.19 1564 1478.35 1563.17 Q1481.53 1562.35 1484.65 1560.69 L1484.65 1566.23 Q1481.5 1567.57 1478.19 1568.27 Q1474.88 1568.97 1471.47 1568.97 Q1462.94 1568.97 1457.94 1564 Q1452.98 1559.04 1452.98 1550.57 Q1452.98 1541.82 1457.69 1536.69 Q1462.43 1531.54 1470.45 1531.54 Q1477.65 1531.54 1481.81 1536.18 Q1486.02 1540.8 1486.02 1548.76 M1480.16 1547.04 Q1480.1 1542.23 1477.45 1539.37 Q1474.84 1536.5 1470.52 1536.5 Q1465.61 1536.5 1462.65 1539.27 Q1459.73 1542.04 1459.28 1547.07 L1480.16 1547.04 Z" fill="#000000" fill-rule="evenodd" fill-opacity="1" /><path clip-path="url(#clip520)" d="M1495.63 1518.52 L1501.48 1518.52 L1501.48 1568.04 L1495.63 1568.04 L1495.63 1518.52 Z" fill="#000000" fill-rule="evenodd" fill-opacity="1" /><polyline clip-path="url(#clip522)" style="stroke:#000000; stroke-linecap:butt; stroke-linejoin:round; stroke-width:2; stroke-opacity:0.1; fill:none" points="
  289.119,1200.92 2352.76,1200.92 
  "/>
<polyline clip-path="url(#clip522)" style="stroke:#000000; stroke-linecap:butt; stroke-linejoin:round; stroke-width:2; stroke-opacity:0.1; fill:none" points="
  289.119,910.394 2352.76,910.394 
  "/>
<polyline clip-path="url(#clip522)" style="stroke:#000000; stroke-linecap:butt; stroke-linejoin:round; stroke-width:2; stroke-opacity:0.1; fill:none" points="
  289.119,619.869 2352.76,619.869 
  "/>
<polyline clip-path="url(#clip522)" style="stroke:#000000; stroke-linecap:butt; stroke-linejoin:round; stroke-width:2; stroke-opacity:0.1; fill:none" points="
  289.119,329.344 2352.76,329.344 
  "/>
<polyline clip-path="url(#clip520)" style="stroke:#000000; stroke-linecap:butt; stroke-linejoin:round; stroke-width:4; stroke-opacity:1; fill:none" points="
  289.119,1423.18 289.119,47.2441 
  "/>
<polyline clip-path="url(#clip520)" style="stroke:#000000; stroke-linecap:butt; stroke-linejoin:round; stroke-width:4; stroke-opacity:1; fill:none" points="
  2352.76,1423.18 2352.76,47.2441 
  "/>
<polyline clip-path="url(#clip520)" style="stroke:#000000; stroke-linecap:butt; stroke-linejoin:round; stroke-width:4; stroke-opacity:1; fill:none" points="
  289.119,1200.92 313.883,1200.92 
  "/>
<polyline clip-path="url(#clip520)" style="stroke:#000000; stroke-linecap:butt; stroke-linejoin:round; stroke-width:4; stroke-opacity:1; fill:none" points="
  289.119,910.394 313.883,910.394 
  "/>
<polyline clip-path="url(#clip520)" style="stroke:#000000; stroke-linecap:butt; stroke-linejoin:round; stroke-width:4; stroke-opacity:1; fill:none" points="
  289.119,619.869 313.883,619.869 
  "/>
<polyline clip-path="url(#clip520)" style="stroke:#000000; stroke-linecap:butt; stroke-linejoin:round; stroke-width:4; stroke-opacity:1; fill:none" points="
  289.119,329.344 313.883,329.344 
  "/>
<path clip-path="url(#clip520)" d="M114.931 1220.71 L122.57 1220.71 L122.57 1194.35 L114.26 1196.01 L114.26 1191.75 L122.524 1190.09 L127.2 1190.09 L127.2 1220.71 L134.839 1220.71 L134.839 1224.65 L114.931 1224.65 L114.931 1220.71 Z" fill="#000000" fill-rule="evenodd" fill-opacity="1" /><path clip-path="url(#clip520)" d="M154.283 1193.17 Q150.672 1193.17 148.843 1196.73 Q147.038 1200.27 147.038 1207.4 Q147.038 1214.51 148.843 1218.07 Q150.672 1221.61 154.283 1221.61 Q157.917 1221.61 159.723 1218.07 Q161.552 1214.51 161.552 1207.4 Q161.552 1200.27 159.723 1196.73 Q157.917 1193.17 154.283 1193.17 M154.283 1189.46 Q160.093 1189.46 163.149 1194.07 Q166.227 1198.65 166.227 1207.4 Q166.227 1216.13 163.149 1220.73 Q160.093 1225.32 154.283 1225.32 Q148.473 1225.32 145.394 1220.73 Q142.339 1216.13 142.339 1207.4 Q142.339 1198.65 145.394 1194.07 Q148.473 1189.46 154.283 1189.46 Z" fill="#000000" fill-rule="evenodd" fill-opacity="1" /><path clip-path="url(#clip520)" d="M166.227 1183.56 L190.339 1183.56 L190.339 1186.76 L166.227 1186.76 L166.227 1183.56 Z" fill="#000000" fill-rule="evenodd" fill-opacity="1" /><path clip-path="url(#clip520)" d="M198.577 1169.16 L213.491 1169.16 L213.491 1172.35 L202.056 1172.35 L202.056 1179.24 Q202.884 1178.96 203.711 1178.82 Q204.539 1178.67 205.366 1178.67 Q210.068 1178.67 212.814 1181.25 Q215.56 1183.83 215.56 1188.23 Q215.56 1192.76 212.739 1195.28 Q209.918 1197.78 204.783 1197.78 Q203.015 1197.78 201.172 1197.48 Q199.348 1197.18 197.392 1196.58 L197.392 1192.76 Q199.085 1193.68 200.89 1194.13 Q202.696 1194.58 204.708 1194.58 Q207.962 1194.58 209.861 1192.87 Q211.761 1191.16 211.761 1188.23 Q211.761 1185.29 209.861 1183.58 Q207.962 1181.87 204.708 1181.87 Q203.185 1181.87 201.661 1182.21 Q200.157 1182.55 198.577 1183.26 L198.577 1169.16 Z" fill="#000000" fill-rule="evenodd" fill-opacity="1" /><path clip-path="url(#clip520)" d="M223.046 1192.46 L227.014 1192.46 L227.014 1197.24 L223.046 1197.24 L223.046 1192.46 Z" fill="#000000" fill-rule="evenodd" fill-opacity="1" /><path clip-path="url(#clip520)" d="M243.415 1171.66 Q240.481 1171.66 238.995 1174.55 Q237.528 1177.43 237.528 1183.22 Q237.528 1189 238.995 1191.89 Q240.481 1194.77 243.415 1194.77 Q246.367 1194.77 247.834 1191.89 Q249.32 1189 249.32 1183.22 Q249.32 1177.43 247.834 1174.55 Q246.367 1171.66 243.415 1171.66 M243.415 1168.65 Q248.135 1168.65 250.618 1172.39 Q253.119 1176.12 253.119 1183.22 Q253.119 1190.32 250.618 1194.06 Q248.135 1197.78 243.415 1197.78 Q238.694 1197.78 236.192 1194.06 Q233.71 1190.32 233.71 1183.22 Q233.71 1176.12 236.192 1172.39 Q238.694 1168.65 243.415 1168.65 Z" fill="#000000" fill-rule="evenodd" fill-opacity="1" /><path clip-path="url(#clip520)" d="M115.74 930.187 L123.379 930.187 L123.379 903.821 L115.069 905.488 L115.069 901.228 L123.333 899.562 L128.009 899.562 L128.009 930.187 L135.647 930.187 L135.647 934.122 L115.74 934.122 L115.74 930.187 Z" fill="#000000" fill-rule="evenodd" fill-opacity="1" /><path clip-path="url(#clip520)" d="M155.092 902.64 Q151.481 902.64 149.652 906.205 Q147.846 909.747 147.846 916.876 Q147.846 923.983 149.652 927.548 Q151.481 931.089 155.092 931.089 Q158.726 931.089 160.532 927.548 Q162.36 923.983 162.36 916.876 Q162.36 909.747 160.532 906.205 Q158.726 902.64 155.092 902.64 M155.092 898.937 Q160.902 898.937 163.958 903.543 Q167.036 908.126 167.036 916.876 Q167.036 925.603 163.958 930.21 Q160.902 934.793 155.092 934.793 Q149.282 934.793 146.203 930.21 Q143.147 925.603 143.147 916.876 Q143.147 908.126 146.203 903.543 Q149.282 898.937 155.092 898.937 Z" fill="#000000" fill-rule="evenodd" fill-opacity="1" /><path clip-path="url(#clip520)" d="M167.036 893.038 L191.148 893.038 L191.148 896.235 L167.036 896.235 L167.036 893.038 Z" fill="#000000" fill-rule="evenodd" fill-opacity="1" /><path clip-path="url(#clip520)" d="M209.786 881.941 L200.194 896.931 L209.786 896.931 L209.786 881.941 M208.789 878.631 L213.567 878.631 L213.567 896.931 L217.573 896.931 L217.573 900.091 L213.567 900.091 L213.567 906.711 L209.786 906.711 L209.786 900.091 L197.11 900.091 L197.11 896.423 L208.789 878.631 Z" fill="#000000" fill-rule="evenodd" fill-opacity="1" /><path clip-path="url(#clip520)" d="M223.854 901.934 L227.823 901.934 L227.823 906.711 L223.854 906.711 L223.854 901.934 Z" fill="#000000" fill-rule="evenodd" fill-opacity="1" /><path clip-path="url(#clip520)" d="M236.136 878.631 L251.051 878.631 L251.051 881.829 L239.615 881.829 L239.615 888.712 Q240.443 888.43 241.27 888.298 Q242.098 888.148 242.926 888.148 Q247.627 888.148 250.373 890.725 Q253.119 893.301 253.119 897.702 Q253.119 902.235 250.298 904.755 Q247.477 907.257 242.343 907.257 Q240.575 907.257 238.731 906.956 Q236.907 906.655 234.951 906.053 L234.951 902.235 Q236.644 903.157 238.449 903.608 Q240.255 904.059 242.267 904.059 Q245.521 904.059 247.421 902.348 Q249.32 900.636 249.32 897.702 Q249.32 894.768 247.421 893.057 Q245.521 891.345 242.267 891.345 Q240.744 891.345 239.22 891.684 Q237.716 892.022 236.136 892.737 L236.136 878.631 Z" fill="#000000" fill-rule="evenodd" fill-opacity="1" /><path clip-path="url(#clip520)" d="M114.931 639.661 L122.57 639.661 L122.57 613.296 L114.26 614.963 L114.26 610.703 L122.524 609.037 L127.2 609.037 L127.2 639.661 L134.839 639.661 L134.839 643.597 L114.931 643.597 L114.931 639.661 Z" fill="#000000" fill-rule="evenodd" fill-opacity="1" /><path clip-path="url(#clip520)" d="M154.283 612.115 Q150.672 612.115 148.843 615.68 Q147.038 619.222 147.038 626.351 Q147.038 633.458 148.843 637.023 Q150.672 640.564 154.283 640.564 Q157.917 640.564 159.723 637.023 Q161.552 633.458 161.552 626.351 Q161.552 619.222 159.723 615.68 Q157.917 612.115 154.283 612.115 M154.283 608.412 Q160.093 608.412 163.149 613.018 Q166.227 617.601 166.227 626.351 Q166.227 635.078 163.149 639.685 Q160.093 644.268 154.283 644.268 Q148.473 644.268 145.394 639.685 Q142.339 635.078 142.339 626.351 Q142.339 617.601 145.394 613.018 Q148.473 608.412 154.283 608.412 Z" fill="#000000" fill-rule="evenodd" fill-opacity="1" /><path clip-path="url(#clip520)" d="M166.227 602.513 L190.339 602.513 L190.339 605.71 L166.227 605.71 L166.227 602.513 Z" fill="#000000" fill-rule="evenodd" fill-opacity="1" /><path clip-path="url(#clip520)" d="M208.978 591.416 L199.386 606.406 L208.978 606.406 L208.978 591.416 M207.981 588.106 L212.758 588.106 L212.758 606.406 L216.764 606.406 L216.764 609.566 L212.758 609.566 L212.758 616.186 L208.978 616.186 L208.978 609.566 L196.301 609.566 L196.301 605.898 L207.981 588.106 Z" fill="#000000" fill-rule="evenodd" fill-opacity="1" /><path clip-path="url(#clip520)" d="M223.046 611.409 L227.014 611.409 L227.014 616.186 L223.046 616.186 L223.046 611.409 Z" fill="#000000" fill-rule="evenodd" fill-opacity="1" /><path clip-path="url(#clip520)" d="M243.415 590.608 Q240.481 590.608 238.995 593.504 Q237.528 596.382 237.528 602.174 Q237.528 607.948 238.995 610.845 Q240.481 613.722 243.415 613.722 Q246.367 613.722 247.834 610.845 Q249.32 607.948 249.32 602.174 Q249.32 596.382 247.834 593.504 Q246.367 590.608 243.415 590.608 M243.415 587.598 Q248.135 587.598 250.618 591.341 Q253.119 595.065 253.119 602.174 Q253.119 609.265 250.618 613.008 Q248.135 616.732 243.415 616.732 Q238.694 616.732 236.192 613.008 Q233.71 609.265 233.71 602.174 Q233.71 595.065 236.192 591.341 Q238.694 587.598 243.415 587.598 Z" fill="#000000" fill-rule="evenodd" fill-opacity="1" /><path clip-path="url(#clip520)" d="M115.74 349.136 L123.379 349.136 L123.379 322.771 L115.069 324.438 L115.069 320.178 L123.333 318.512 L128.009 318.512 L128.009 349.136 L135.647 349.136 L135.647 353.072 L115.74 353.072 L115.74 349.136 Z" fill="#000000" fill-rule="evenodd" fill-opacity="1" /><path clip-path="url(#clip520)" d="M155.092 321.59 Q151.481 321.59 149.652 325.155 Q147.846 328.697 147.846 335.826 Q147.846 342.933 149.652 346.498 Q151.481 350.039 155.092 350.039 Q158.726 350.039 160.532 346.498 Q162.36 342.933 162.36 335.826 Q162.36 328.697 160.532 325.155 Q158.726 321.59 155.092 321.59 M155.092 317.887 Q160.902 317.887 163.958 322.493 Q167.036 327.076 167.036 335.826 Q167.036 344.553 163.958 349.16 Q160.902 353.743 155.092 353.743 Q149.282 353.743 146.203 349.16 Q143.147 344.553 143.147 335.826 Q143.147 327.076 146.203 322.493 Q149.282 317.887 155.092 317.887 Z" fill="#000000" fill-rule="evenodd" fill-opacity="1" /><path clip-path="url(#clip520)" d="M167.036 311.988 L191.148 311.988 L191.148 315.185 L167.036 315.185 L167.036 311.988 Z" fill="#000000" fill-rule="evenodd" fill-opacity="1" /><path clip-path="url(#clip520)" d="M210.858 310.521 Q213.585 311.104 215.109 312.947 Q216.651 314.79 216.651 317.499 Q216.651 321.655 213.792 323.931 Q210.934 326.207 205.667 326.207 Q203.899 326.207 202.019 325.849 Q200.157 325.511 198.163 324.815 L198.163 321.147 Q199.743 322.069 201.624 322.539 Q203.504 323.009 205.555 323.009 Q209.128 323.009 210.99 321.599 Q212.871 320.188 212.871 317.499 Q212.871 315.016 211.122 313.624 Q209.391 312.214 206.288 312.214 L203.015 312.214 L203.015 309.092 L206.438 309.092 Q209.241 309.092 210.727 307.982 Q212.212 306.853 212.212 304.747 Q212.212 302.584 210.67 301.437 Q209.147 300.271 206.288 300.271 Q204.727 300.271 202.94 300.609 Q201.153 300.948 199.009 301.662 L199.009 298.277 Q201.172 297.675 203.053 297.374 Q204.953 297.073 206.627 297.073 Q210.952 297.073 213.473 299.048 Q215.993 301.004 215.993 304.352 Q215.993 306.684 214.657 308.302 Q213.322 309.9 210.858 310.521 Z" fill="#000000" fill-rule="evenodd" fill-opacity="1" /><path clip-path="url(#clip520)" d="M223.854 320.884 L227.823 320.884 L227.823 325.661 L223.854 325.661 L223.854 320.884 Z" fill="#000000" fill-rule="evenodd" fill-opacity="1" /><path clip-path="url(#clip520)" d="M236.136 297.581 L251.051 297.581 L251.051 300.779 L239.615 300.779 L239.615 307.662 Q240.443 307.38 241.27 307.248 Q242.098 307.098 242.926 307.098 Q247.627 307.098 250.373 309.675 Q253.119 312.251 253.119 316.652 Q253.119 321.185 250.298 323.705 Q247.477 326.207 242.343 326.207 Q240.575 326.207 238.731 325.906 Q236.907 325.605 234.951 325.003 L234.951 321.185 Q236.644 322.107 238.449 322.558 Q240.255 323.009 242.267 323.009 Q245.521 323.009 247.421 321.298 Q249.32 319.586 249.32 316.652 Q249.32 313.718 247.421 312.007 Q245.521 310.295 242.267 310.295 Q240.744 310.295 239.22 310.634 Q237.716 310.972 236.136 311.687 L236.136 297.581 Z" fill="#000000" fill-rule="evenodd" fill-opacity="1" /><path clip-path="url(#clip520)" d="M67.3143 806.221 Q73.68 808.704 75.6216 811.059 Q77.5631 813.415 77.5631 817.361 L77.5631 822.04 L72.6615 822.04 L72.6615 818.603 Q72.6615 816.184 71.5157 814.847 Q70.3699 813.51 66.1048 811.887 L63.4312 810.837 L28.3562 825.255 L28.3562 819.048 L56.238 807.908 L28.3562 796.768 L28.3562 790.562 L67.3143 806.221 Z" fill="#000000" fill-rule="evenodd" fill-opacity="1" /><path clip-path="url(#clip520)" d="M14.479 761.757 L14.479 755.901 L64.0042 755.901 L64.0042 761.757 L14.479 761.757 Z" fill="#000000" fill-rule="evenodd" fill-opacity="1" /><path clip-path="url(#clip520)" d="M32.4621 729.833 Q32.4621 734.544 36.1542 737.281 Q39.8145 740.018 46.212 740.018 Q52.6095 740.018 56.3017 737.313 Q59.9619 734.575 59.9619 729.833 Q59.9619 725.154 56.2698 722.417 Q52.5777 719.68 46.212 719.68 Q39.8781 719.68 36.186 722.417 Q32.4621 725.154 32.4621 729.833 M27.4968 729.833 Q27.4968 722.194 32.4621 717.834 Q37.4273 713.473 46.212 713.473 Q54.9649 713.473 59.9619 717.834 Q64.9272 722.194 64.9272 729.833 Q64.9272 737.504 59.9619 741.864 Q54.9649 746.193 46.212 746.193 Q37.4273 746.193 32.4621 741.864 Q27.4968 737.504 27.4968 729.833 Z" fill="#000000" fill-rule="evenodd" fill-opacity="1" /><path clip-path="url(#clip520)" d="M29.4065 681.04 L34.9447 681.04 Q33.6716 683.522 33.035 686.196 Q32.3984 688.87 32.3984 691.734 Q32.3984 696.095 33.7352 698.291 Q35.072 700.455 37.7456 700.455 Q39.7826 700.455 40.9603 698.896 Q42.1061 697.336 43.1565 692.625 L43.6021 690.62 Q44.9389 684.382 47.3897 681.772 Q49.8086 679.13 54.1691 679.13 Q59.1344 679.13 62.0308 683.077 Q64.9272 686.992 64.9272 693.867 Q64.9272 696.731 64.3543 699.85 Q63.8132 702.938 62.6992 706.375 L56.6518 706.375 Q58.3387 703.129 59.198 699.978 Q60.0256 696.827 60.0256 693.739 Q60.0256 689.602 58.6251 687.374 Q57.1929 685.146 54.6147 685.146 Q52.2276 685.146 50.9545 686.769 Q49.6813 688.36 48.5037 693.803 L48.0262 695.84 Q46.8804 701.283 44.5251 703.702 Q42.138 706.121 38.0002 706.121 Q32.9713 706.121 30.2341 702.556 Q27.4968 698.991 27.4968 692.434 Q27.4968 689.188 27.9743 686.323 Q28.4517 683.459 29.4065 681.04 Z" fill="#000000" fill-rule="evenodd" fill-opacity="1" /><path clip-path="url(#clip520)" d="M29.4065 647.079 L34.9447 647.079 Q33.6716 649.561 33.035 652.235 Q32.3984 654.909 32.3984 657.773 Q32.3984 662.134 33.7352 664.33 Q35.072 666.494 37.7456 666.494 Q39.7826 666.494 40.9603 664.935 Q42.1061 663.375 43.1565 658.664 L43.6021 656.659 Q44.9389 650.421 47.3897 647.811 Q49.8086 645.169 54.1691 645.169 Q59.1344 645.169 62.0308 649.116 Q64.9272 653.031 64.9272 659.906 Q64.9272 662.77 64.3543 665.889 Q63.8132 668.977 62.6992 672.414 L56.6518 672.414 Q58.3387 669.168 59.198 666.017 Q60.0256 662.866 60.0256 659.778 Q60.0256 655.641 58.6251 653.413 Q57.1929 651.185 54.6147 651.185 Q52.2276 651.185 50.9545 652.808 Q49.6813 654.399 48.5037 659.842 L48.0262 661.879 Q46.8804 667.322 44.5251 669.741 Q42.138 672.16 38.0002 672.16 Q32.9713 672.16 30.2341 668.595 Q27.4968 665.03 27.4968 658.473 Q27.4968 655.227 27.9743 652.362 Q28.4517 649.498 29.4065 647.079 Z" fill="#000000" fill-rule="evenodd" fill-opacity="1" /><path clip-path="url(#clip522)" d="
M639.859 1328.76 L648.185 1298.44 L655.429 1271.38 L661.44 1246.94 L666.119 1224.66 L669.42 1204.19 L671.357 1185.26 L671.995 1167.65 L671.454 1151.19 L669.892 1135.73 
  L667.499 1121.17 L664.483 1107.4 L661.054 1094.35 L657.407 1081.93 L653.718 1070.1 L650.123 1058.8 L646.715 1047.99 L643.544 1037.62 L640.609 1027.65 L637.873 1018.07 
  L635.263 1008.84 L632.684 999.93 L630.031 991.327 L627.201 983.007 L624.105 974.953 L620.672 967.148 L616.864 959.577 L612.67 952.227 L608.113 945.084 L603.243 938.139 
  L598.134 931.379 L592.877 924.796 L587.57 918.38 L582.314 912.123 L577.203 906.018 L572.322 900.057 L567.735 894.233 L563.493 888.541 L559.621 882.975 L556.13 877.528 
  L553.008 872.197 L550.231 866.976 L547.762 861.86 L545.554 856.847 L543.555 851.931 L541.714 847.109 L539.979 842.377 L538.304 837.733 L536.65 833.172 L534.987 828.693 
  L533.295 824.291 L531.565 819.965 L529.796 815.712 L528 811.53 L526.194 807.415 L524.401 803.367 L522.648 799.382 L520.962 795.46 L519.371 791.597 L517.897 787.793 
  L516.559 784.045 L515.37 780.352 L514.339 776.713 L513.471 773.125 L512.763 769.587 L512.214 766.099 L511.819 762.657 L511.574 759.263 L511.473 755.913 L511.515 752.607 
  L511.698 749.344 L512.02 746.122 L512.482 742.942 L513.082 739.8 L513.815 736.698 L514.672 733.633 L515.641 730.604 L516.701 727.612 L517.824 724.655 L518.977 721.732 
  L520.119 718.843 L521.207 715.986 L522.194 713.161 L523.037 710.368 L523.696 707.605 L524.137 704.872 L524.34 702.168 L524.293 699.493 L523.999 696.846 L523.472 694.226 
  L522.74 691.634 L521.837 689.067 L520.805 686.527 L519.689 684.012 L518.534 681.522 L517.381 679.056 L516.267 676.614 L515.222 674.195 L514.268 671.799 L513.42 669.426 
  L512.685 667.075 L512.065 664.746 L511.556 662.438 L511.153 660.151 L510.848 657.884 L510.634 655.638 L510.503 653.411 L510.453 651.204 L510.481 649.016 L510.59 646.847 
  L510.783 644.696 L511.069 642.563 L511.457 640.449 L511.958 638.352 L512.582 636.272 L513.338 634.209 L514.235 632.163 L515.273 630.134 L516.45 628.12 L517.756 626.123 
  L519.177 624.141 L520.69 622.175 L522.265 620.223 L523.87 618.287 L525.467 616.366 L527.017 614.459 L528.48 612.566 L529.821 610.688 L531.005 608.823 L532.003 606.972 
  L532.79 605.135 L533.348 603.311 L533.665 601.499 L533.733 599.701 L533.552 597.916 L533.125 596.143 L532.463 594.382 L531.58 592.634 L487.939 592.634 L487.057 594.382 
  L486.395 596.143 L485.968 597.916 L485.786 599.701 L485.854 601.499 L486.171 603.311 L486.73 605.135 L487.517 606.972 L488.515 608.823 L489.698 610.688 L491.039 612.566 
  L492.503 614.459 L494.053 616.366 L495.649 618.287 L497.254 620.223 L498.83 622.175 L500.342 624.141 L501.763 626.123 L503.07 628.12 L504.247 630.134 L505.285 632.163 
  L506.181 634.209 L506.938 636.272 L507.562 638.352 L508.062 640.449 L508.45 642.563 L508.736 644.696 L508.93 646.847 L509.038 649.016 L509.066 651.204 L509.016 653.411 
  L508.886 655.638 L508.671 657.884 L508.366 660.151 L507.963 662.438 L507.455 664.746 L506.835 667.075 L506.1 669.426 L505.252 671.799 L504.298 674.195 L503.253 676.614 
  L502.139 679.056 L500.986 681.522 L499.83 684.012 L498.714 686.527 L497.682 689.067 L496.779 691.634 L496.047 694.226 L495.521 696.846 L495.227 699.493 L495.18 702.168 
  L495.382 704.872 L495.824 707.605 L496.482 710.368 L497.325 713.161 L498.313 715.986 L499.4 718.843 L500.542 721.732 L501.695 724.655 L502.818 727.612 L503.878 730.604 
  L504.847 733.633 L505.705 736.698 L506.438 739.8 L507.037 742.942 L507.499 746.122 L507.822 749.344 L508.004 752.607 L508.046 755.913 L507.946 759.263 L507.7 762.657 
  L507.305 766.099 L506.756 769.587 L506.049 773.125 L505.18 776.713 L504.149 780.352 L502.961 784.045 L501.623 787.793 L500.149 791.597 L498.557 795.46 L496.872 799.382 
  L495.119 803.367 L493.326 807.415 L491.52 811.53 L489.723 815.712 L487.955 819.965 L486.224 824.291 L484.532 828.693 L482.869 833.172 L481.215 837.733 L479.54 842.377 
  L477.806 847.109 L475.964 851.931 L473.966 856.847 L471.758 861.86 L469.288 866.976 L466.511 872.197 L463.39 877.528 L459.898 882.975 L456.027 888.541 L451.784 894.233 
  L447.198 900.057 L442.316 906.018 L437.206 912.123 L431.95 918.38 L426.643 924.796 L421.385 931.379 L416.277 938.139 L411.407 945.084 L406.85 952.227 L402.656 959.577 
  L398.847 967.148 L395.415 974.953 L392.318 983.007 L389.489 991.327 L386.836 999.93 L384.257 1008.84 L381.646 1018.07 L378.91 1027.65 L375.976 1037.62 L372.804 1047.99 
  L369.397 1058.8 L365.801 1070.1 L362.112 1081.93 L358.466 1094.35 L355.036 1107.4 L352.02 1121.17 L349.628 1135.73 L348.066 1151.19 L347.524 1167.65 L348.163 1185.26 
  L350.099 1204.19 L353.401 1224.66 L358.08 1246.94 L364.091 1271.38 L371.335 1298.44 L379.661 1328.76 L639.859 1328.76  Z
  " fill="#0000ff" fill-rule="evenodd" fill-opacity="0.2"/>
<polyline clip-path="url(#clip522)" style="stroke:#000000; stroke-linecap:butt; stroke-linejoin:round; stroke-width:0; stroke-opacity:1; fill:none" points="
  639.859,1328.76 648.185,1298.44 655.429,1271.38 661.44,1246.94 666.119,1224.66 669.42,1204.19 671.357,1185.26 671.995,1167.65 671.454,1151.19 669.892,1135.73 
  667.499,1121.17 664.483,1107.4 661.054,1094.35 657.407,1081.93 653.718,1070.1 650.123,1058.8 646.715,1047.99 643.544,1037.62 640.609,1027.65 637.873,1018.07 
  635.263,1008.84 632.684,999.93 630.031,991.327 627.201,983.007 624.105,974.953 620.672,967.148 616.864,959.577 612.67,952.227 608.113,945.084 603.243,938.139 
  598.134,931.379 592.877,924.796 587.57,918.38 582.314,912.123 577.203,906.018 572.322,900.057 567.735,894.233 563.493,888.541 559.621,882.975 556.13,877.528 
  553.008,872.197 550.231,866.976 547.762,861.86 545.554,856.847 543.555,851.931 541.714,847.109 539.979,842.377 538.304,837.733 536.65,833.172 534.987,828.693 
  533.295,824.291 531.565,819.965 529.796,815.712 528,811.53 526.194,807.415 524.401,803.367 522.648,799.382 520.962,795.46 519.371,791.597 517.897,787.793 
  516.559,784.045 515.37,780.352 514.339,776.713 513.471,773.125 512.763,769.587 512.214,766.099 511.819,762.657 511.574,759.263 511.473,755.913 511.515,752.607 
  511.698,749.344 512.02,746.122 512.482,742.942 513.082,739.8 513.815,736.698 514.672,733.633 515.641,730.604 516.701,727.612 517.824,724.655 518.977,721.732 
  520.119,718.843 521.207,715.986 522.194,713.161 523.037,710.368 523.696,707.605 524.137,704.872 524.34,702.168 524.293,699.493 523.999,696.846 523.472,694.226 
  522.74,691.634 521.837,689.067 520.805,686.527 519.689,684.012 518.534,681.522 517.381,679.056 516.267,676.614 515.222,674.195 514.268,671.799 513.42,669.426 
  512.685,667.075 512.065,664.746 511.556,662.438 511.153,660.151 510.848,657.884 510.634,655.638 510.503,653.411 510.453,651.204 510.481,649.016 510.59,646.847 
  510.783,644.696 511.069,642.563 511.457,640.449 511.958,638.352 512.582,636.272 513.338,634.209 514.235,632.163 515.273,630.134 516.45,628.12 517.756,626.123 
  519.177,624.141 520.69,622.175 522.265,620.223 523.87,618.287 525.467,616.366 527.017,614.459 528.48,612.566 529.821,610.688 531.005,608.823 532.003,606.972 
  532.79,605.135 533.348,603.311 533.665,601.499 533.733,599.701 533.552,597.916 533.125,596.143 532.463,594.382 531.58,592.634 487.939,592.634 487.057,594.382 
  486.395,596.143 485.968,597.916 485.786,599.701 485.854,601.499 486.171,603.311 486.73,605.135 487.517,606.972 488.515,608.823 489.698,610.688 491.039,612.566 
  492.503,614.459 494.053,616.366 495.649,618.287 497.254,620.223 498.83,622.175 500.342,624.141 501.763,626.123 503.07,628.12 504.247,630.134 505.285,632.163 
  506.181,634.209 506.938,636.272 507.562,638.352 508.062,640.449 508.45,642.563 508.736,644.696 508.93,646.847 509.038,649.016 509.066,651.204 509.016,653.411 
  508.886,655.638 508.671,657.884 508.366,660.151 507.963,662.438 507.455,664.746 506.835,667.075 506.1,669.426 505.252,671.799 504.298,674.195 503.253,676.614 
  502.139,679.056 500.986,681.522 499.83,684.012 498.714,686.527 497.682,689.067 496.779,691.634 496.047,694.226 495.521,696.846 495.227,699.493 495.18,702.168 
  495.382,704.872 495.824,707.605 496.482,710.368 497.325,713.161 498.313,715.986 499.4,718.843 500.542,721.732 501.695,724.655 502.818,727.612 503.878,730.604 
  504.847,733.633 505.705,736.698 506.438,739.8 507.037,742.942 507.499,746.122 507.822,749.344 508.004,752.607 508.046,755.913 507.946,759.263 507.7,762.657 
  507.305,766.099 506.756,769.587 506.049,773.125 505.18,776.713 504.149,780.352 502.961,784.045 501.623,787.793 500.149,791.597 498.557,795.46 496.872,799.382 
  495.119,803.367 493.326,807.415 491.52,811.53 489.723,815.712 487.955,819.965 486.224,824.291 484.532,828.693 482.869,833.172 481.215,837.733 479.54,842.377 
  477.806,847.109 475.964,851.931 473.966,856.847 471.758,861.86 469.288,866.976 466.511,872.197 463.39,877.528 459.898,882.975 456.027,888.541 451.784,894.233 
  447.198,900.057 442.316,906.018 437.206,912.123 431.95,918.38 426.643,924.796 421.385,931.379 416.277,938.139 411.407,945.084 406.85,952.227 402.656,959.577 
  398.847,967.148 395.415,974.953 392.318,983.007 389.489,991.327 386.836,999.93 384.257,1008.84 381.646,1018.07 378.91,1027.65 375.976,1037.62 372.804,1047.99 
  369.397,1058.8 365.801,1070.1 362.112,1081.93 358.466,1094.35 355.036,1107.4 352.02,1121.17 349.628,1135.73 348.066,1151.19 347.524,1167.65 348.163,1185.26 
  350.099,1204.19 353.401,1224.66 358.08,1246.94 364.091,1271.38 371.335,1298.44 379.661,1328.76 639.859,1328.76 
  "/>
<path clip-path="url(#clip522)" d="
M1042.75 1384.24 L1050.86 1347.53 L1058.09 1315.5 L1064.29 1287.07 L1069.35 1261.53 L1073.21 1238.33 L1075.84 1217.09 L1077.27 1197.5 L1077.58 1179.32 L1076.88 1162.37 
  L1075.32 1146.48 L1073.06 1131.53 L1070.3 1117.42 L1067.22 1104.06 L1064.02 1091.36 L1060.87 1079.28 L1057.91 1067.75 L1055.25 1056.72 L1052.98 1046.16 L1051.12 1036.02 
  L1049.67 1026.27 L1048.6 1016.88 L1047.83 1007.83 L1047.25 999.094 L1046.75 990.65 L1046.2 982.479 L1045.45 974.565 L1044.37 966.891 L1042.86 959.444 L1040.82 952.21 
  L1038.17 945.178 L1034.87 938.337 L1030.91 931.676 L1026.31 925.186 L1021.11 918.86 L1015.37 912.688 L1009.19 906.663 L1002.67 900.779 L995.924 895.029 L989.058 889.407 
  L982.191 883.907 L975.429 878.525 L968.869 873.255 L962.595 868.093 L956.676 863.035 L951.167 858.075 L946.104 853.212 L941.51 848.44 L937.395 843.757 L933.753 839.16 
  L930.57 834.644 L927.823 830.208 L925.485 825.849 L923.522 821.564 L921.9 817.35 L920.584 813.205 L919.542 809.128 L918.743 805.115 L918.159 801.165 L917.765 797.276 
  L917.544 793.446 L917.478 789.673 L917.554 785.956 L917.763 782.293 L918.097 778.682 L918.548 775.122 L919.11 771.611 L919.774 768.149 L920.53 764.734 L921.365 761.364 
  L922.263 758.039 L923.204 754.757 L924.164 751.517 L925.117 748.318 L926.035 745.159 L926.889 742.039 L927.65 738.958 L928.29 735.913 L928.785 732.905 L929.118 729.932 
  L929.275 726.994 L929.249 724.09 L929.042 721.218 L928.663 718.379 L928.125 715.572 L927.448 712.796 L926.659 710.049 L925.784 707.333 L924.853 704.645 L923.894 701.985 
  L922.935 699.354 L922.003 696.749 L921.118 694.171 L920.298 691.619 L919.559 689.093 L918.91 686.591 L918.361 684.115 L917.914 681.662 L917.575 679.233 L917.345 676.827 
  L917.226 674.444 L917.22 672.083 L917.329 669.744 L917.557 667.427 L917.907 665.13 L918.383 662.854 L918.988 660.599 L919.727 658.364 L920.599 656.148 L921.605 653.951 
  L922.74 651.774 L923.995 649.615 L925.358 647.474 L926.811 645.352 L928.333 643.247 L929.896 641.159 L931.47 639.089 L933.02 637.036 L934.511 634.999 L935.906 632.978 
  L937.169 630.973 L938.264 628.985 L939.163 627.011 L939.839 625.054 L940.273 623.111 L940.452 621.183 L940.37 619.269 L940.03 617.37 L939.443 615.486 L938.624 613.615 
  L892.073 613.615 L891.255 615.486 L890.667 617.37 L890.327 619.269 L890.246 621.183 L890.424 623.111 L890.858 625.054 L891.534 627.011 L892.433 628.985 L893.529 630.973 
  L894.791 632.978 L896.186 634.999 L897.677 637.036 L899.228 639.089 L900.801 641.159 L902.365 643.247 L903.886 645.352 L905.34 647.474 L906.703 649.615 L907.958 651.774 
  L909.092 653.951 L910.098 656.148 L910.971 658.364 L911.709 660.599 L912.315 662.854 L912.791 665.13 L913.14 667.427 L913.368 669.744 L913.477 672.083 L913.471 674.444 
  L913.352 676.827 L913.122 679.233 L912.783 681.662 L912.337 684.115 L911.787 686.591 L911.139 689.093 L910.399 691.619 L909.58 694.171 L908.695 696.749 L907.762 699.354 
  L906.804 701.985 L905.845 704.645 L904.913 707.333 L904.038 710.049 L903.249 712.796 L902.573 715.572 L902.035 718.379 L901.655 721.218 L901.448 724.09 L901.423 726.994 
  L901.579 729.932 L901.912 732.905 L902.408 735.913 L903.048 738.958 L903.808 742.039 L904.662 745.159 L905.58 748.318 L906.534 751.517 L907.494 754.757 L908.434 758.039 
  L909.332 761.364 L910.167 764.734 L910.923 768.149 L911.587 771.611 L912.149 775.122 L912.6 778.682 L912.934 782.293 L913.143 785.956 L913.22 789.673 L913.154 793.446 
  L912.932 797.276 L912.539 801.165 L911.955 805.115 L911.155 809.128 L910.113 813.205 L908.798 817.35 L907.176 821.564 L905.213 825.849 L902.874 830.208 L900.128 834.644 
  L896.945 839.16 L893.303 843.757 L889.187 848.44 L884.594 853.212 L879.531 858.075 L874.021 863.035 L868.103 868.093 L861.829 873.255 L855.268 878.525 L848.506 883.907 
  L841.639 889.407 L834.774 895.029 L828.024 900.779 L821.504 906.663 L815.326 912.688 L809.592 918.86 L804.389 925.186 L799.787 931.676 L795.828 938.337 L792.53 945.178 
  L789.88 952.21 L787.835 959.444 L786.324 966.891 L785.252 974.565 L784.502 982.479 L783.944 990.65 L783.443 999.094 L782.868 1007.83 L782.095 1016.88 L781.024 1026.27 
  L779.579 1036.02 L777.721 1046.16 L775.445 1056.72 L772.789 1067.75 L769.827 1079.28 L766.675 1091.36 L763.476 1104.06 L760.402 1117.42 L757.64 1131.53 L755.381 1146.48 
  L753.815 1162.37 L753.113 1179.32 L753.423 1197.5 L754.859 1217.09 L757.492 1238.33 L761.349 1261.53 L766.41 1287.07 L772.609 1315.5 L779.837 1347.53 L787.948 1384.24 
  L1042.75 1384.24  Z
  " fill="#0000ff" fill-rule="evenodd" fill-opacity="0.2"/>
<polyline clip-path="url(#clip522)" style="stroke:#000000; stroke-linecap:butt; stroke-linejoin:round; stroke-width:0; stroke-opacity:1; fill:none" points="
  1042.75,1384.24 1050.86,1347.53 1058.09,1315.5 1064.29,1287.07 1069.35,1261.53 1073.21,1238.33 1075.84,1217.09 1077.27,1197.5 1077.58,1179.32 1076.88,1162.37 
  1075.32,1146.48 1073.06,1131.53 1070.3,1117.42 1067.22,1104.06 1064.02,1091.36 1060.87,1079.28 1057.91,1067.75 1055.25,1056.72 1052.98,1046.16 1051.12,1036.02 
  1049.67,1026.27 1048.6,1016.88 1047.83,1007.83 1047.25,999.094 1046.75,990.65 1046.2,982.479 1045.45,974.565 1044.37,966.891 1042.86,959.444 1040.82,952.21 
  1038.17,945.178 1034.87,938.337 1030.91,931.676 1026.31,925.186 1021.11,918.86 1015.37,912.688 1009.19,906.663 1002.67,900.779 995.924,895.029 989.058,889.407 
  982.191,883.907 975.429,878.525 968.869,873.255 962.595,868.093 956.676,863.035 951.167,858.075 946.104,853.212 941.51,848.44 937.395,843.757 933.753,839.16 
  930.57,834.644 927.823,830.208 925.485,825.849 923.522,821.564 921.9,817.35 920.584,813.205 919.542,809.128 918.743,805.115 918.159,801.165 917.765,797.276 
  917.544,793.446 917.478,789.673 917.554,785.956 917.763,782.293 918.097,778.682 918.548,775.122 919.11,771.611 919.774,768.149 920.53,764.734 921.365,761.364 
  922.263,758.039 923.204,754.757 924.164,751.517 925.117,748.318 926.035,745.159 926.889,742.039 927.65,738.958 928.29,735.913 928.785,732.905 929.118,729.932 
  929.275,726.994 929.249,724.09 929.042,721.218 928.663,718.379 928.125,715.572 927.448,712.796 926.659,710.049 925.784,707.333 924.853,704.645 923.894,701.985 
  922.935,699.354 922.003,696.749 921.118,694.171 920.298,691.619 919.559,689.093 918.91,686.591 918.361,684.115 917.914,681.662 917.575,679.233 917.345,676.827 
  917.226,674.444 917.22,672.083 917.329,669.744 917.557,667.427 917.907,665.13 918.383,662.854 918.988,660.599 919.727,658.364 920.599,656.148 921.605,653.951 
  922.74,651.774 923.995,649.615 925.358,647.474 926.811,645.352 928.333,643.247 929.896,641.159 931.47,639.089 933.02,637.036 934.511,634.999 935.906,632.978 
  937.169,630.973 938.264,628.985 939.163,627.011 939.839,625.054 940.273,623.111 940.452,621.183 940.37,619.269 940.03,617.37 939.443,615.486 938.624,613.615 
  892.073,613.615 891.255,615.486 890.667,617.37 890.327,619.269 890.246,621.183 890.424,623.111 890.858,625.054 891.534,627.011 892.433,628.985 893.529,630.973 
  894.791,632.978 896.186,634.999 897.677,637.036 899.228,639.089 900.801,641.159 902.365,643.247 903.886,645.352 905.34,647.474 906.703,649.615 907.958,651.774 
  909.092,653.951 910.098,656.148 910.971,658.364 911.709,660.599 912.315,662.854 912.791,665.13 913.14,667.427 913.368,669.744 913.477,672.083 913.471,674.444 
  913.352,676.827 913.122,679.233 912.783,681.662 912.337,684.115 911.787,686.591 911.139,689.093 910.399,691.619 909.58,694.171 908.695,696.749 907.762,699.354 
  906.804,701.985 905.845,704.645 904.913,707.333 904.038,710.049 903.249,712.796 902.573,715.572 902.035,718.379 901.655,721.218 901.448,724.09 901.423,726.994 
  901.579,729.932 901.912,732.905 902.408,735.913 903.048,738.958 903.808,742.039 904.662,745.159 905.58,748.318 906.534,751.517 907.494,754.757 908.434,758.039 
  909.332,761.364 910.167,764.734 910.923,768.149 911.587,771.611 912.149,775.122 912.6,778.682 912.934,782.293 913.143,785.956 913.22,789.673 913.154,793.446 
  912.932,797.276 912.539,801.165 911.955,805.115 911.155,809.128 910.113,813.205 908.798,817.35 907.176,821.564 905.213,825.849 902.874,830.208 900.128,834.644 
  896.945,839.16 893.303,843.757 889.187,848.44 884.594,853.212 879.531,858.075 874.021,863.035 868.103,868.093 861.829,873.255 855.268,878.525 848.506,883.907 
  841.639,889.407 834.774,895.029 828.024,900.779 821.504,906.663 815.326,912.688 809.592,918.86 804.389,925.186 799.787,931.676 795.828,938.337 792.53,945.178 
  789.88,952.21 787.835,959.444 786.324,966.891 785.252,974.565 784.502,982.479 783.944,990.65 783.443,999.094 782.868,1007.83 782.095,1016.88 781.024,1026.27 
  779.579,1036.02 777.721,1046.16 775.445,1056.72 772.789,1067.75 769.827,1079.28 766.675,1091.36 763.476,1104.06 760.402,1117.42 757.64,1131.53 755.381,1146.48 
  753.815,1162.37 753.113,1179.32 753.423,1197.5 754.859,1217.09 757.492,1238.33 761.349,1261.53 766.41,1287.07 772.609,1315.5 779.837,1347.53 787.948,1384.24 
  1042.75,1384.24 
  "/>
<path clip-path="url(#clip522)" d="
M1429.99 1232.4 L1436.63 1206.18 L1443.01 1182.43 L1449.07 1160.73 L1454.76 1140.75 L1460.03 1122.23 L1464.83 1104.98 L1469.14 1088.83 L1472.9 1073.66 L1476.11 1059.35 
  L1478.73 1045.8 L1480.75 1032.95 L1482.17 1020.71 L1482.98 1009.05 L1483.17 997.897 L1482.76 987.218 L1481.75 976.973 L1480.16 967.128 L1478.02 957.653 L1475.33 948.52 
  L1472.14 939.706 L1468.49 931.19 L1464.4 922.952 L1459.93 914.975 L1455.12 907.241 L1450.03 899.738 L1444.71 892.452 L1439.21 885.37 L1433.6 878.481 L1427.93 871.775 
  L1422.26 865.243 L1416.65 858.876 L1411.15 852.666 L1405.82 846.604 L1400.7 840.685 L1395.83 834.902 L1391.26 829.248 L1387.02 823.718 L1383.14 818.307 L1379.63 813.009 
  L1376.52 807.82 L1373.79 802.736 L1371.46 797.752 L1369.51 792.865 L1367.92 788.07 L1366.67 783.365 L1365.72 778.746 L1365.03 774.21 L1364.56 769.754 L1364.28 765.376 
  L1364.12 761.072 L1364.05 756.84 L1364.02 752.679 L1363.98 748.584 L1363.91 744.555 L1363.77 740.59 L1363.54 736.685 L1363.19 732.84 L1362.72 729.053 L1362.13 725.322 
  L1361.4 721.646 L1360.56 718.022 L1359.59 714.449 L1358.53 710.926 L1357.39 707.452 L1356.17 704.025 L1354.89 700.644 L1353.57 697.307 L1352.22 694.014 L1350.84 690.764 
  L1349.45 687.555 L1348.05 684.386 L1346.64 681.256 L1345.24 678.165 L1343.84 675.111 L1342.44 672.094 L1341.05 669.112 L1339.67 666.166 L1338.31 663.253 L1336.97 660.373 
  L1335.67 657.526 L1334.41 654.711 L1333.2 651.926 L1332.05 649.173 L1330.98 646.448 L1329.99 643.753 L1329.09 641.087 L1328.31 638.448 L1327.64 635.837 L1327.11 633.252 
  L1326.7 630.694 L1326.44 628.161 L1326.33 625.653 L1326.38 623.171 L1326.57 620.712 L1326.93 618.277 L1327.44 615.865 L1328.1 613.476 L1328.9 611.11 L1329.84 608.765 
  L1330.91 606.442 L1332.08 604.141 L1333.34 601.86 L1334.66 599.599 L1336.03 597.359 L1337.41 595.138 L1338.78 592.937 L1340.11 590.754 L1341.36 588.591 L1342.51 586.446 
  L1343.52 584.319 L1344.38 582.209 L1345.05 580.117 L1345.53 578.043 L1345.79 575.985 L1345.84 573.944 L1345.66 571.919 L1345.27 569.911 L1296.61 569.911 L1296.22 571.919 
  L1296.04 573.944 L1296.08 575.985 L1296.35 578.043 L1296.82 580.117 L1297.5 582.209 L1298.35 584.319 L1299.37 586.446 L1300.51 588.591 L1301.77 590.754 L1303.09 592.937 
  L1304.46 595.138 L1305.85 597.359 L1307.21 599.599 L1308.54 601.86 L1309.8 604.141 L1310.97 606.442 L1312.03 608.765 L1312.97 611.11 L1313.78 613.476 L1314.44 615.865 
  L1314.95 618.277 L1315.3 620.712 L1315.5 623.171 L1315.54 625.653 L1315.43 628.161 L1315.17 630.694 L1314.77 633.252 L1314.23 635.837 L1313.56 638.448 L1312.78 641.087 
  L1311.89 643.753 L1310.9 646.448 L1309.82 649.173 L1308.68 651.926 L1307.47 654.711 L1306.2 657.526 L1304.9 660.373 L1303.57 663.253 L1302.21 666.166 L1300.83 669.112 
  L1299.44 672.094 L1298.04 675.111 L1296.64 678.165 L1295.23 681.256 L1293.83 684.386 L1292.43 687.555 L1291.03 690.764 L1289.66 694.014 L1288.3 697.307 L1286.98 700.644 
  L1285.71 704.025 L1284.49 707.452 L1283.34 710.926 L1282.28 714.449 L1281.32 718.022 L1280.47 721.646 L1279.75 725.322 L1279.15 729.053 L1278.68 732.84 L1278.34 736.685 
  L1278.1 740.59 L1277.96 744.555 L1277.89 748.584 L1277.86 752.679 L1277.83 756.84 L1277.75 761.072 L1277.6 765.376 L1277.31 769.754 L1276.85 774.21 L1276.16 778.746 
  L1275.21 783.365 L1273.95 788.07 L1272.36 792.865 L1270.41 797.752 L1268.08 802.736 L1265.36 807.82 L1262.24 813.009 L1258.74 818.307 L1254.85 823.718 L1250.61 829.248 
  L1246.05 834.902 L1241.18 840.685 L1236.06 846.604 L1230.72 852.666 L1225.22 858.876 L1219.61 865.243 L1213.94 871.775 L1208.27 878.481 L1202.66 885.37 L1197.17 892.452 
  L1191.84 899.738 L1186.75 907.241 L1181.95 914.975 L1177.47 922.952 L1173.39 931.19 L1169.73 939.706 L1166.54 948.52 L1163.86 957.653 L1161.71 967.128 L1160.12 976.973 
  L1159.11 987.218 L1158.7 997.897 L1158.9 1009.05 L1159.7 1020.71 L1161.12 1032.95 L1163.15 1045.8 L1165.77 1059.35 L1168.97 1073.66 L1172.74 1088.83 L1177.04 1104.98 
  L1181.85 1122.23 L1187.12 1140.75 L1192.81 1160.73 L1198.87 1182.43 L1205.25 1206.18 L1211.88 1232.4 L1429.99 1232.4  Z
  " fill="#0000ff" fill-rule="evenodd" fill-opacity="0.2"/>
<polyline clip-path="url(#clip522)" style="stroke:#000000; stroke-linecap:butt; stroke-linejoin:round; stroke-width:0; stroke-opacity:1; fill:none" points="
  1429.99,1232.4 1436.63,1206.18 1443.01,1182.43 1449.07,1160.73 1454.76,1140.75 1460.03,1122.23 1464.83,1104.98 1469.14,1088.83 1472.9,1073.66 1476.11,1059.35 
  1478.73,1045.8 1480.75,1032.95 1482.17,1020.71 1482.98,1009.05 1483.17,997.897 1482.76,987.218 1481.75,976.973 1480.16,967.128 1478.02,957.653 1475.33,948.52 
  1472.14,939.706 1468.49,931.19 1464.4,922.952 1459.93,914.975 1455.12,907.241 1450.03,899.738 1444.71,892.452 1439.21,885.37 1433.6,878.481 1427.93,871.775 
  1422.26,865.243 1416.65,858.876 1411.15,852.666 1405.82,846.604 1400.7,840.685 1395.83,834.902 1391.26,829.248 1387.02,823.718 1383.14,818.307 1379.63,813.009 
  1376.52,807.82 1373.79,802.736 1371.46,797.752 1369.51,792.865 1367.92,788.07 1366.67,783.365 1365.72,778.746 1365.03,774.21 1364.56,769.754 1364.28,765.376 
  1364.12,761.072 1364.05,756.84 1364.02,752.679 1363.98,748.584 1363.91,744.555 1363.77,740.59 1363.54,736.685 1363.19,732.84 1362.72,729.053 1362.13,725.322 
  1361.4,721.646 1360.56,718.022 1359.59,714.449 1358.53,710.926 1357.39,707.452 1356.17,704.025 1354.89,700.644 1353.57,697.307 1352.22,694.014 1350.84,690.764 
  1349.45,687.555 1348.05,684.386 1346.64,681.256 1345.24,678.165 1343.84,675.111 1342.44,672.094 1341.05,669.112 1339.67,666.166 1338.31,663.253 1336.97,660.373 
  1335.67,657.526 1334.41,654.711 1333.2,651.926 1332.05,649.173 1330.98,646.448 1329.99,643.753 1329.09,641.087 1328.31,638.448 1327.64,635.837 1327.11,633.252 
  1326.7,630.694 1326.44,628.161 1326.33,625.653 1326.38,623.171 1326.57,620.712 1326.93,618.277 1327.44,615.865 1328.1,613.476 1328.9,611.11 1329.84,608.765 
  1330.91,606.442 1332.08,604.141 1333.34,601.86 1334.66,599.599 1336.03,597.359 1337.41,595.138 1338.78,592.937 1340.11,590.754 1341.36,588.591 1342.51,586.446 
  1343.52,584.319 1344.38,582.209 1345.05,580.117 1345.53,578.043 1345.79,575.985 1345.84,573.944 1345.66,571.919 1345.27,569.911 1296.61,569.911 1296.22,571.919 
  1296.04,573.944 1296.08,575.985 1296.35,578.043 1296.82,580.117 1297.5,582.209 1298.35,584.319 1299.37,586.446 1300.51,588.591 1301.77,590.754 1303.09,592.937 
  1304.46,595.138 1305.85,597.359 1307.21,599.599 1308.54,601.86 1309.8,604.141 1310.97,606.442 1312.03,608.765 1312.97,611.11 1313.78,613.476 1314.44,615.865 
  1314.95,618.277 1315.3,620.712 1315.5,623.171 1315.54,625.653 1315.43,628.161 1315.17,630.694 1314.77,633.252 1314.23,635.837 1313.56,638.448 1312.78,641.087 
  1311.89,643.753 1310.9,646.448 1309.82,649.173 1308.68,651.926 1307.47,654.711 1306.2,657.526 1304.9,660.373 1303.57,663.253 1302.21,666.166 1300.83,669.112 
  1299.44,672.094 1298.04,675.111 1296.64,678.165 1295.23,681.256 1293.83,684.386 1292.43,687.555 1291.03,690.764 1289.66,694.014 1288.3,697.307 1286.98,700.644 
  1285.71,704.025 1284.49,707.452 1283.34,710.926 1282.28,714.449 1281.32,718.022 1280.47,721.646 1279.75,725.322 1279.15,729.053 1278.68,732.84 1278.34,736.685 
  1278.1,740.59 1277.96,744.555 1277.89,748.584 1277.86,752.679 1277.83,756.84 1277.75,761.072 1277.6,765.376 1277.31,769.754 1276.85,774.21 1276.16,778.746 
  1275.21,783.365 1273.95,788.07 1272.36,792.865 1270.41,797.752 1268.08,802.736 1265.36,807.82 1262.24,813.009 1258.74,818.307 1254.85,823.718 1250.61,829.248 
  1246.05,834.902 1241.18,840.685 1236.06,846.604 1230.72,852.666 1225.22,858.876 1219.61,865.243 1213.94,871.775 1208.27,878.481 1202.66,885.37 1197.17,892.452 
  1191.84,899.738 1186.75,907.241 1181.95,914.975 1177.47,922.952 1173.39,931.19 1169.73,939.706 1166.54,948.52 1163.86,957.653 1161.71,967.128 1160.12,976.973 
  1159.11,987.218 1158.7,997.897 1158.9,1009.05 1159.7,1020.71 1161.12,1032.95 1163.15,1045.8 1165.77,1059.35 1168.97,1073.66 1172.74,1088.83 1177.04,1104.98 
  1181.85,1122.23 1187.12,1140.75 1192.81,1160.73 1198.87,1182.43 1205.25,1206.18 1211.88,1232.4 1429.99,1232.4 
  "/>
<path clip-path="url(#clip522)" d="
M1850.84 1286.22 L1857.19 1264.67 L1863.11 1244.82 L1868.52 1226.42 L1873.36 1209.27 L1877.59 1193.21 L1881.16 1178.11 L1884.05 1163.86 L1886.25 1150.38 L1887.76 1137.58 
  L1888.58 1125.4 L1888.76 1113.78 L1888.33 1102.67 L1887.32 1092.02 L1885.81 1081.81 L1883.85 1072 L1881.51 1062.56 L1878.86 1053.45 L1875.97 1044.66 L1872.91 1036.17 
  L1869.75 1027.96 L1866.55 1020 L1863.36 1012.29 L1860.24 1004.8 L1857.22 997.532 L1854.33 990.466 L1851.61 983.593 L1849.06 976.903 L1846.68 970.385 L1844.49 964.031 
  L1842.46 957.834 L1840.59 951.784 L1838.85 945.877 L1837.21 940.105 L1835.66 934.461 L1834.15 928.941 L1832.67 923.54 L1831.17 918.251 L1829.64 913.071 L1828.05 907.996 
  L1826.37 903.02 L1824.59 898.141 L1822.68 893.354 L1820.65 888.656 L1818.47 884.044 L1816.16 879.515 L1813.7 875.066 L1811.11 870.694 L1808.39 866.396 L1805.56 862.17 
  L1802.63 858.014 L1799.62 853.926 L1796.55 849.902 L1793.43 845.942 L1790.3 842.042 L1787.17 838.202 L1784.06 834.42 L1780.99 830.694 L1777.98 827.021 L1775.05 823.402 
  L1772.2 819.833 L1769.46 816.315 L1766.82 812.844 L1764.3 809.421 L1761.89 806.044 L1759.6 802.711 L1757.43 799.422 L1755.37 796.175 L1753.43 792.969 L1751.59 789.804 
  L1749.86 786.677 L1748.23 783.589 L1746.7 780.539 L1745.28 777.524 L1743.95 774.546 L1742.73 771.602 L1741.61 768.692 L1740.61 765.815 L1739.72 762.97 L1738.95 760.158 
  L1738.32 757.376 L1737.82 754.625 L1737.46 751.903 L1737.24 749.21 L1737.17 746.546 L1737.25 743.91 L1737.48 741.301 L1737.86 738.718 L1738.37 736.162 L1739.01 733.631 
  L1739.78 731.126 L1740.64 728.645 L1741.59 726.188 L1742.61 723.755 L1743.68 721.346 L1744.77 718.959 L1745.87 716.594 L1746.93 714.251 L1747.95 711.93 L1748.9 709.63 
  L1749.76 707.351 L1750.49 705.092 L1751.1 702.853 L1751.56 700.634 L1751.85 698.435 L1751.98 696.254 L1751.94 694.092 L1751.72 691.948 L1751.33 689.823 L1750.78 687.715 
  L1702.27 687.715 L1701.72 689.823 L1701.33 691.948 L1701.11 694.092 L1701.07 696.254 L1701.2 698.435 L1701.5 700.634 L1701.95 702.853 L1702.56 705.092 L1703.3 707.351 
  L1704.15 709.63 L1705.1 711.93 L1706.12 714.251 L1707.19 716.594 L1708.28 718.959 L1709.37 721.346 L1710.44 723.755 L1711.46 726.188 L1712.41 728.645 L1713.28 731.126 
  L1714.04 733.631 L1714.68 736.162 L1715.2 738.718 L1715.57 741.301 L1715.8 743.91 L1715.88 746.546 L1715.81 749.21 L1715.6 751.903 L1715.24 754.625 L1714.74 757.376 
  L1714.1 760.158 L1713.33 762.97 L1712.45 765.815 L1711.44 768.692 L1710.32 771.602 L1709.1 774.546 L1707.78 777.524 L1706.35 780.539 L1704.82 783.589 L1703.19 786.677 
  L1701.46 789.804 L1699.63 792.969 L1697.68 796.175 L1695.62 799.422 L1693.45 802.711 L1691.16 806.044 L1688.76 809.421 L1686.23 812.844 L1683.6 816.315 L1680.85 819.833 
  L1678.01 823.402 L1675.07 827.021 L1672.06 830.694 L1669 834.42 L1665.89 838.202 L1662.75 842.042 L1659.62 845.942 L1656.51 849.902 L1653.43 853.926 L1650.42 858.014 
  L1647.49 862.17 L1644.66 866.396 L1641.94 870.694 L1639.35 875.066 L1636.9 879.515 L1634.58 884.044 L1632.41 888.656 L1630.37 893.354 L1628.47 898.141 L1626.68 903.02 
  L1625.01 907.996 L1623.41 913.071 L1621.88 918.251 L1620.39 923.54 L1618.9 928.941 L1617.4 934.461 L1615.84 940.105 L1614.21 945.877 L1612.46 951.784 L1610.59 957.834 
  L1608.56 964.031 L1606.37 970.385 L1604 976.903 L1601.44 983.593 L1598.72 990.466 L1595.84 997.532 L1592.81 1004.8 L1589.69 1012.29 L1586.5 1020 L1583.3 1027.96 
  L1580.14 1036.17 L1577.08 1044.66 L1574.19 1053.45 L1571.54 1062.56 L1569.2 1072 L1567.24 1081.81 L1565.73 1092.02 L1564.73 1102.67 L1564.29 1113.78 L1564.47 1125.4 
  L1565.3 1137.58 L1566.8 1150.38 L1569 1163.86 L1571.89 1178.11 L1575.47 1193.21 L1579.69 1209.27 L1584.53 1226.42 L1589.94 1244.82 L1595.86 1264.67 L1602.21 1286.22 
  L1850.84 1286.22  Z
  " fill="#0000ff" fill-rule="evenodd" fill-opacity="0.2"/>
<polyline clip-path="url(#clip522)" style="stroke:#000000; stroke-linecap:butt; stroke-linejoin:round; stroke-width:0; stroke-opacity:1; fill:none" points="
  1850.84,1286.22 1857.19,1264.67 1863.11,1244.82 1868.52,1226.42 1873.36,1209.27 1877.59,1193.21 1881.16,1178.11 1884.05,1163.86 1886.25,1150.38 1887.76,1137.58 
  1888.58,1125.4 1888.76,1113.78 1888.33,1102.67 1887.32,1092.02 1885.81,1081.81 1883.85,1072 1881.51,1062.56 1878.86,1053.45 1875.97,1044.66 1872.91,1036.17 
  1869.75,1027.96 1866.55,1020 1863.36,1012.29 1860.24,1004.8 1857.22,997.532 1854.33,990.466 1851.61,983.593 1849.06,976.903 1846.68,970.385 1844.49,964.031 
  1842.46,957.834 1840.59,951.784 1838.85,945.877 1837.21,940.105 1835.66,934.461 1834.15,928.941 1832.67,923.54 1831.17,918.251 1829.64,913.071 1828.05,907.996 
  1826.37,903.02 1824.59,898.141 1822.68,893.354 1820.65,888.656 1818.47,884.044 1816.16,879.515 1813.7,875.066 1811.11,870.694 1808.39,866.396 1805.56,862.17 
  1802.63,858.014 1799.62,853.926 1796.55,849.902 1793.43,845.942 1790.3,842.042 1787.17,838.202 1784.06,834.42 1780.99,830.694 1777.98,827.021 1775.05,823.402 
  1772.2,819.833 1769.46,816.315 1766.82,812.844 1764.3,809.421 1761.89,806.044 1759.6,802.711 1757.43,799.422 1755.37,796.175 1753.43,792.969 1751.59,789.804 
  1749.86,786.677 1748.23,783.589 1746.7,780.539 1745.28,777.524 1743.95,774.546 1742.73,771.602 1741.61,768.692 1740.61,765.815 1739.72,762.97 1738.95,760.158 
  1738.32,757.376 1737.82,754.625 1737.46,751.903 1737.24,749.21 1737.17,746.546 1737.25,743.91 1737.48,741.301 1737.86,738.718 1738.37,736.162 1739.01,733.631 
  1739.78,731.126 1740.64,728.645 1741.59,726.188 1742.61,723.755 1743.68,721.346 1744.77,718.959 1745.87,716.594 1746.93,714.251 1747.95,711.93 1748.9,709.63 
  1749.76,707.351 1750.49,705.092 1751.1,702.853 1751.56,700.634 1751.85,698.435 1751.98,696.254 1751.94,694.092 1751.72,691.948 1751.33,689.823 1750.78,687.715 
  1702.27,687.715 1701.72,689.823 1701.33,691.948 1701.11,694.092 1701.07,696.254 1701.2,698.435 1701.5,700.634 1701.95,702.853 1702.56,705.092 1703.3,707.351 
  1704.15,709.63 1705.1,711.93 1706.12,714.251 1707.19,716.594 1708.28,718.959 1709.37,721.346 1710.44,723.755 1711.46,726.188 1712.41,728.645 1713.28,731.126 
  1714.04,733.631 1714.68,736.162 1715.2,738.718 1715.57,741.301 1715.8,743.91 1715.88,746.546 1715.81,749.21 1715.6,751.903 1715.24,754.625 1714.74,757.376 
  1714.1,760.158 1713.33,762.97 1712.45,765.815 1711.44,768.692 1710.32,771.602 1709.1,774.546 1707.78,777.524 1706.35,780.539 1704.82,783.589 1703.19,786.677 
  1701.46,789.804 1699.63,792.969 1697.68,796.175 1695.62,799.422 1693.45,802.711 1691.16,806.044 1688.76,809.421 1686.23,812.844 1683.6,816.315 1680.85,819.833 
  1678.01,823.402 1675.07,827.021 1672.06,830.694 1669,834.42 1665.89,838.202 1662.75,842.042 1659.62,845.942 1656.51,849.902 1653.43,853.926 1650.42,858.014 
  1647.49,862.17 1644.66,866.396 1641.94,870.694 1639.35,875.066 1636.9,879.515 1634.58,884.044 1632.41,888.656 1630.37,893.354 1628.47,898.141 1626.68,903.02 
  1625.01,907.996 1623.41,913.071 1621.88,918.251 1620.39,923.54 1618.9,928.941 1617.4,934.461 1615.84,940.105 1614.21,945.877 1612.46,951.784 1610.59,957.834 
  1608.56,964.031 1606.37,970.385 1604,976.903 1601.44,983.593 1598.72,990.466 1595.84,997.532 1592.81,1004.8 1589.69,1012.29 1586.5,1020 1583.3,1027.96 
  1580.14,1036.17 1577.08,1044.66 1574.19,1053.45 1571.54,1062.56 1569.2,1072 1567.24,1081.81 1565.73,1092.02 1564.73,1102.67 1564.29,1113.78 1564.47,1125.4 
  1565.3,1137.58 1566.8,1150.38 1569,1163.86 1571.89,1178.11 1575.47,1193.21 1579.69,1209.27 1584.53,1226.42 1589.94,1244.82 1595.86,1264.67 1602.21,1286.22 
  1850.84,1286.22 
  "/>
<path clip-path="url(#clip522)" d="
M2281.43 821.401 L2287.26 789.894 L2291.42 761.887 L2293.8 736.68 L2294.35 713.765 L2293.09 692.758 L2290.1 673.366 L2285.53 655.359 L2279.56 638.551 L2272.43 622.794 
  L2264.38 607.962 L2255.67 593.955 L2246.56 580.684 L2237.3 568.076 L2228.1 556.069 L2219.16 544.606 L2210.62 533.642 L2202.6 523.135 L2195.2 513.048 L2188.45 503.348 
  L2182.39 494.008 L2177 485 L2172.28 476.304 L2168.19 467.897 L2164.68 459.761 L2161.73 451.879 L2159.28 444.237 L2157.29 436.818 L2155.72 429.612 L2154.54 422.606 
  L2153.71 415.789 L2153.2 409.151 L2152.98 402.683 L2153.02 396.377 L2153.29 390.225 L2153.76 384.219 L2154.37 378.353 L2155.1 372.62 L2155.89 367.015 L2156.7 361.531 
  L2157.49 356.164 L2158.2 350.909 L2158.79 345.761 L2159.23 340.716 L2159.48 335.769 L2159.51 330.918 L2159.32 326.159 L2158.9 321.487 L2158.24 316.901 L2157.36 312.396 
  L2156.28 307.97 L2155.02 303.621 L2153.61 299.345 L2152.1 295.14 L2150.52 291.005 L2148.91 286.936 L2147.31 282.931 L2145.77 278.99 L2144.32 275.108 L2142.98 271.286 
  L2141.8 267.521 L2140.78 263.811 L2139.95 260.155 L2139.31 256.551 L2138.87 252.997 L2138.62 249.493 L2138.56 246.037 L2138.66 242.628 L2138.9 239.264 L2139.26 235.945 
  L2139.71 232.668 L2140.21 229.434 L2140.74 226.24 L2141.25 223.087 L2141.73 219.972 L2142.14 216.895 L2142.47 213.856 L2142.7 210.852 L2142.82 207.884 L2142.83 204.951 
  L2142.75 202.051 L2142.59 199.184 L2142.36 196.349 L2142.1 193.546 L2141.83 190.773 L2141.58 188.031 L2141.37 185.318 L2141.22 182.634 L2141.15 179.978 L2141.16 177.35 
  L2141.25 174.749 L2141.41 172.175 L2141.64 169.626 L2141.89 167.103 L2142.16 164.605 L2142.41 162.131 L2142.62 159.682 L2142.76 157.256 L2142.81 154.853 L2142.75 152.473 
  L2142.58 150.115 L2142.29 147.779 L2141.88 145.464 L2141.38 143.17 L2140.79 140.897 L2140.13 138.645 L2139.43 136.412 L2138.72 134.199 L2138.02 132.005 L2137.35 129.83 
  L2136.74 127.673 L2136.2 125.535 L2135.75 123.415 L2135.41 121.312 L2135.18 119.227 L2135.07 117.159 L2135.08 115.108 L2135.22 113.073 L2135.47 111.054 L2135.83 109.052 
  L2136.3 107.065 L2136.85 105.094 L2137.47 103.138 L2138.14 101.197 L2138.84 99.2714 L2139.53 97.3599 L2140.21 95.4628 L2140.83 93.5799 L2141.37 91.7109 L2141.81 89.8557 
  L2142.12 88.014 L2142.3 86.1857 L2121.93 86.1857 L2122.11 88.014 L2122.43 89.8557 L2122.86 91.7109 L2123.41 93.5799 L2124.02 95.4628 L2124.7 97.3599 L2125.39 99.2714 
  L2126.09 101.197 L2126.76 103.138 L2127.38 105.094 L2127.94 107.065 L2128.4 109.052 L2128.76 111.054 L2129.02 113.073 L2129.15 115.108 L2129.16 117.159 L2129.05 119.227 
  L2128.82 121.312 L2128.48 123.415 L2128.03 125.535 L2127.5 127.673 L2126.88 129.83 L2126.21 132.005 L2125.51 134.199 L2124.8 136.412 L2124.1 138.645 L2123.45 140.897 
  L2122.85 143.17 L2122.35 145.464 L2121.94 147.779 L2121.65 150.115 L2121.48 152.473 L2121.42 154.853 L2121.47 157.256 L2121.61 159.682 L2121.82 162.131 L2122.07 164.605 
  L2122.34 167.103 L2122.6 169.626 L2122.82 172.175 L2122.98 174.749 L2123.07 177.35 L2123.08 179.978 L2123.01 182.634 L2122.86 185.318 L2122.65 188.031 L2122.4 190.773 
  L2122.13 193.546 L2121.87 196.349 L2121.65 199.184 L2121.48 202.051 L2121.4 204.951 L2121.41 207.884 L2121.53 210.852 L2121.76 213.856 L2122.09 216.895 L2122.5 219.972 
  L2122.98 223.087 L2123.49 226.24 L2124.02 229.434 L2124.52 232.668 L2124.97 235.945 L2125.33 239.264 L2125.58 242.628 L2125.67 246.037 L2125.61 249.493 L2125.36 252.997 
  L2124.92 256.551 L2124.28 260.155 L2123.45 263.811 L2122.43 267.521 L2121.25 271.286 L2119.91 275.108 L2118.46 278.99 L2116.92 282.931 L2115.32 286.936 L2113.71 291.005 
  L2112.13 295.14 L2110.62 299.345 L2109.22 303.621 L2107.96 307.97 L2106.87 312.396 L2105.99 316.901 L2105.33 321.487 L2104.91 326.159 L2104.72 330.918 L2104.75 335.769 
  L2105.01 340.716 L2105.44 345.761 L2106.04 350.909 L2106.75 356.164 L2107.53 361.531 L2108.34 367.015 L2109.13 372.62 L2109.86 378.353 L2110.48 384.219 L2110.94 390.225 
  L2111.21 396.377 L2111.25 402.683 L2111.03 409.151 L2110.52 415.789 L2109.69 422.606 L2108.51 429.612 L2106.94 436.818 L2104.95 444.237 L2102.5 451.879 L2099.55 459.761 
  L2096.05 467.897 L2091.95 476.304 L2087.23 485 L2081.85 494.008 L2075.78 503.348 L2069.03 513.048 L2061.63 523.135 L2053.61 533.642 L2045.07 544.606 L2036.13 556.069 
  L2026.93 568.076 L2017.67 580.684 L2008.56 593.955 L1999.85 607.962 L1991.8 622.794 L1984.67 638.551 L1978.7 655.359 L1974.13 673.366 L1971.14 692.758 L1969.88 713.765 
  L1970.43 736.68 L1972.81 761.887 L1976.97 789.894 L1982.8 821.401 L2281.43 821.401  Z
  " fill="#0000ff" fill-rule="evenodd" fill-opacity="0.2"/>
<polyline clip-path="url(#clip522)" style="stroke:#000000; stroke-linecap:butt; stroke-linejoin:round; stroke-width:0; stroke-opacity:1; fill:none" points="
  2281.43,821.401 2287.26,789.894 2291.42,761.887 2293.8,736.68 2294.35,713.765 2293.09,692.758 2290.1,673.366 2285.53,655.359 2279.56,638.551 2272.43,622.794 
  2264.38,607.962 2255.67,593.955 2246.56,580.684 2237.3,568.076 2228.1,556.069 2219.16,544.606 2210.62,533.642 2202.6,523.135 2195.2,513.048 2188.45,503.348 
  2182.39,494.008 2177,485 2172.28,476.304 2168.19,467.897 2164.68,459.761 2161.73,451.879 2159.28,444.237 2157.29,436.818 2155.72,429.612 2154.54,422.606 
  2153.71,415.789 2153.2,409.151 2152.98,402.683 2153.02,396.377 2153.29,390.225 2153.76,384.219 2154.37,378.353 2155.1,372.62 2155.89,367.015 2156.7,361.531 
  2157.49,356.164 2158.2,350.909 2158.79,345.761 2159.23,340.716 2159.48,335.769 2159.51,330.918 2159.32,326.159 2158.9,321.487 2158.24,316.901 2157.36,312.396 
  2156.28,307.97 2155.02,303.621 2153.61,299.345 2152.1,295.14 2150.52,291.005 2148.91,286.936 2147.31,282.931 2145.77,278.99 2144.32,275.108 2142.98,271.286 
  2141.8,267.521 2140.78,263.811 2139.95,260.155 2139.31,256.551 2138.87,252.997 2138.62,249.493 2138.56,246.037 2138.66,242.628 2138.9,239.264 2139.26,235.945 
  2139.71,232.668 2140.21,229.434 2140.74,226.24 2141.25,223.087 2141.73,219.972 2142.14,216.895 2142.47,213.856 2142.7,210.852 2142.82,207.884 2142.83,204.951 
  2142.75,202.051 2142.59,199.184 2142.36,196.349 2142.1,193.546 2141.83,190.773 2141.58,188.031 2141.37,185.318 2141.22,182.634 2141.15,179.978 2141.16,177.35 
  2141.25,174.749 2141.41,172.175 2141.64,169.626 2141.89,167.103 2142.16,164.605 2142.41,162.131 2142.62,159.682 2142.76,157.256 2142.81,154.853 2142.75,152.473 
  2142.58,150.115 2142.29,147.779 2141.88,145.464 2141.38,143.17 2140.79,140.897 2140.13,138.645 2139.43,136.412 2138.72,134.199 2138.02,132.005 2137.35,129.83 
  2136.74,127.673 2136.2,125.535 2135.75,123.415 2135.41,121.312 2135.18,119.227 2135.07,117.159 2135.08,115.108 2135.22,113.073 2135.47,111.054 2135.83,109.052 
  2136.3,107.065 2136.85,105.094 2137.47,103.138 2138.14,101.197 2138.84,99.2714 2139.53,97.3599 2140.21,95.4628 2140.83,93.5799 2141.37,91.7109 2141.81,89.8557 
  2142.12,88.014 2142.3,86.1857 2121.93,86.1857 2122.11,88.014 2122.43,89.8557 2122.86,91.7109 2123.41,93.5799 2124.02,95.4628 2124.7,97.3599 2125.39,99.2714 
  2126.09,101.197 2126.76,103.138 2127.38,105.094 2127.94,107.065 2128.4,109.052 2128.76,111.054 2129.02,113.073 2129.15,115.108 2129.16,117.159 2129.05,119.227 
  2128.82,121.312 2128.48,123.415 2128.03,125.535 2127.5,127.673 2126.88,129.83 2126.21,132.005 2125.51,134.199 2124.8,136.412 2124.1,138.645 2123.45,140.897 
  2122.85,143.17 2122.35,145.464 2121.94,147.779 2121.65,150.115 2121.48,152.473 2121.42,154.853 2121.47,157.256 2121.61,159.682 2121.82,162.131 2122.07,164.605 
  2122.34,167.103 2122.6,169.626 2122.82,172.175 2122.98,174.749 2123.07,177.35 2123.08,179.978 2123.01,182.634 2122.86,185.318 2122.65,188.031 2122.4,190.773 
  2122.13,193.546 2121.87,196.349 2121.65,199.184 2121.48,202.051 2121.4,204.951 2121.41,207.884 2121.53,210.852 2121.76,213.856 2122.09,216.895 2122.5,219.972 
  2122.98,223.087 2123.49,226.24 2124.02,229.434 2124.52,232.668 2124.97,235.945 2125.33,239.264 2125.58,242.628 2125.67,246.037 2125.61,249.493 2125.36,252.997 
  2124.92,256.551 2124.28,260.155 2123.45,263.811 2122.43,267.521 2121.25,271.286 2119.91,275.108 2118.46,278.99 2116.92,282.931 2115.32,286.936 2113.71,291.005 
  2112.13,295.14 2110.62,299.345 2109.22,303.621 2107.96,307.97 2106.87,312.396 2105.99,316.901 2105.33,321.487 2104.91,326.159 2104.72,330.918 2104.75,335.769 
  2105.01,340.716 2105.44,345.761 2106.04,350.909 2106.75,356.164 2107.53,361.531 2108.34,367.015 2109.13,372.62 2109.86,378.353 2110.48,384.219 2110.94,390.225 
  2111.21,396.377 2111.25,402.683 2111.03,409.151 2110.52,415.789 2109.69,422.606 2108.51,429.612 2106.94,436.818 2104.95,444.237 2102.5,451.879 2099.55,459.761 
  2096.05,467.897 2091.95,476.304 2087.23,485 2081.85,494.008 2075.78,503.348 2069.03,513.048 2061.63,523.135 2053.61,533.642 2045.07,544.606 2036.13,556.069 
  2026.93,568.076 2017.67,580.684 2008.56,593.955 1999.85,607.962 1991.8,622.794 1984.67,638.551 1978.7,655.359 1974.13,673.366 1971.14,692.758 1969.88,713.765 
  1970.43,736.68 1972.81,761.887 1976.97,789.894 1982.8,821.401 2281.43,821.401 
  "/>
</svg>
