<?xml version="1.0" encoding="utf-8" standalone="no"?>
<!DOCTYPE svg PUBLIC "-//W3C//DTD SVG 1.1//EN"
  "http://www.w3.org/Graphics/SVG/1.1/DTD/svg11.dtd">
<svg xmlns:xlink="http://www.w3.org/1999/xlink" width="576pt" height="288pt" viewBox="0 0 576 288" xmlns="http://www.w3.org/2000/svg" version="1.1">
 <metadata>
  <rdf:RDF xmlns:dc="http://purl.org/dc/elements/1.1/" xmlns:cc="http://creativecommons.org/ns#" xmlns:rdf="http://www.w3.org/1999/02/22-rdf-syntax-ns#">
   <cc:Work>
    <dc:type rdf:resource="http://purl.org/dc/dcmitype/StillImage"/>
    <dc:date>2021-12-31T01:22:06.753856</dc:date>
    <dc:format>image/svg+xml</dc:format>
    <dc:creator>
     <cc:Agent>
      <dc:title>Matplotlib v3.5.0, https://matplotlib.org/</dc:title>
     </cc:Agent>
    </dc:creator>
   </cc:Work>
  </rdf:RDF>
 </metadata>
 <defs>
  <style type="text/css">*{stroke-linejoin: round; stroke-linecap: butt}</style>
 </defs>
 <g id="figure_1">
  <g id="patch_1">
   <path d="M 0 288 
L 576 288 
L 576 0 
L 0 0 
z
" style="fill: #ffffff"/>
  </g>
  <g id="axes_1">
   <g id="patch_2">
    <path d="M 44.401491 250.305354 
L 573.165354 250.305354 
L 573.165354 2.834646 
L 44.401491 2.834646 
z
" style="fill: #ffffff"/>
   </g>
   <g id="matplotlib.axis_1">
    <g id="xtick_1">
     <g id="line2d_1">
      <path d="M 54.378168 250.305354 
L 54.378168 2.834646 
" clip-path="url(#p2f66ff54c7)" style="fill: none; stroke: #000000; stroke-opacity: 0.1; stroke-width: 0.5; stroke-linecap: square"/>
     </g>
     <g id="line2d_2">
      <defs>
       <path id="mf99f764cd4" d="M 0 0 
L 0 -2.5 
" style="stroke: #000000; stroke-width: 0.5"/>
      </defs>
      <g>
       <use xlink:href="#mf99f764cd4" x="54.378168" y="250.305354" style="stroke: #000000; stroke-width: 0.5"/>
      </g>
     </g>
     <g id="text_1">
      <!-- $\mathregular{0}$ -->
      <g transform="translate(50.538168 262.923479)scale(0.12 -0.12)">
       <defs>
        <path id="DejaVuSans-30" d="M 2034 4250 
Q 1547 4250 1301 3770 
Q 1056 3291 1056 2328 
Q 1056 1369 1301 889 
Q 1547 409 2034 409 
Q 2525 409 2770 889 
Q 3016 1369 3016 2328 
Q 3016 3291 2770 3770 
Q 2525 4250 2034 4250 
z
M 2034 4750 
Q 2819 4750 3233 4129 
Q 3647 3509 3647 2328 
Q 3647 1150 3233 529 
Q 2819 -91 2034 -91 
Q 1250 -91 836 529 
Q 422 1150 422 2328 
Q 422 3509 836 4129 
Q 1250 4750 2034 4750 
z
" transform="scale(0.015625)"/>
       </defs>
       <use xlink:href="#DejaVuSans-30" transform="translate(0 0.78125)"/>
      </g>
     </g>
    </g>
    <g id="xtick_2">
     <g id="line2d_3">
      <path d="M 179.086626 250.305354 
L 179.086626 2.834646 
" clip-path="url(#p2f66ff54c7)" style="fill: none; stroke: #000000; stroke-opacity: 0.1; stroke-width: 0.5; stroke-linecap: square"/>
     </g>
     <g id="line2d_4">
      <g>
       <use xlink:href="#mf99f764cd4" x="179.086626" y="250.305354" style="stroke: #000000; stroke-width: 0.5"/>
      </g>
     </g>
     <g id="text_2">
      <!-- $\mathregular{25}$ -->
      <g transform="translate(171.406626 262.923479)scale(0.12 -0.12)">
       <defs>
        <path id="DejaVuSans-32" d="M 1228 531 
L 3431 531 
L 3431 0 
L 469 0 
L 469 531 
Q 828 903 1448 1529 
Q 2069 2156 2228 2338 
Q 2531 2678 2651 2914 
Q 2772 3150 2772 3378 
Q 2772 3750 2511 3984 
Q 2250 4219 1831 4219 
Q 1534 4219 1204 4116 
Q 875 4013 500 3803 
L 500 4441 
Q 881 4594 1212 4672 
Q 1544 4750 1819 4750 
Q 2544 4750 2975 4387 
Q 3406 4025 3406 3419 
Q 3406 3131 3298 2873 
Q 3191 2616 2906 2266 
Q 2828 2175 2409 1742 
Q 1991 1309 1228 531 
z
" transform="scale(0.015625)"/>
        <path id="DejaVuSans-35" d="M 691 4666 
L 3169 4666 
L 3169 4134 
L 1269 4134 
L 1269 2991 
Q 1406 3038 1543 3061 
Q 1681 3084 1819 3084 
Q 2600 3084 3056 2656 
Q 3513 2228 3513 1497 
Q 3513 744 3044 326 
Q 2575 -91 1722 -91 
Q 1428 -91 1123 -41 
Q 819 9 494 109 
L 494 744 
Q 775 591 1075 516 
Q 1375 441 1709 441 
Q 2250 441 2565 725 
Q 2881 1009 2881 1497 
Q 2881 1984 2565 2268 
Q 2250 2553 1709 2553 
Q 1456 2553 1204 2497 
Q 953 2441 691 2322 
L 691 4666 
z
" transform="scale(0.015625)"/>
       </defs>
       <use xlink:href="#DejaVuSans-32" transform="translate(0 0.78125)"/>
       <use xlink:href="#DejaVuSans-35" transform="translate(63.623047 0.78125)"/>
      </g>
     </g>
    </g>
    <g id="xtick_3">
     <g id="line2d_5">
      <path d="M 303.795085 250.305354 
L 303.795085 2.834646 
" clip-path="url(#p2f66ff54c7)" style="fill: none; stroke: #000000; stroke-opacity: 0.1; stroke-width: 0.5; stroke-linecap: square"/>
     </g>
     <g id="line2d_6">
      <g>
       <use xlink:href="#mf99f764cd4" x="303.795085" y="250.305354" style="stroke: #000000; stroke-width: 0.5"/>
      </g>
     </g>
     <g id="text_3">
      <!-- $\mathregular{50}$ -->
      <g transform="translate(296.115085 262.923479)scale(0.12 -0.12)">
       <use xlink:href="#DejaVuSans-35" transform="translate(0 0.78125)"/>
       <use xlink:href="#DejaVuSans-30" transform="translate(63.623047 0.78125)"/>
      </g>
     </g>
    </g>
    <g id="xtick_4">
     <g id="line2d_7">
      <path d="M 428.503543 250.305354 
L 428.503543 2.834646 
" clip-path="url(#p2f66ff54c7)" style="fill: none; stroke: #000000; stroke-opacity: 0.1; stroke-width: 0.5; stroke-linecap: square"/>
     </g>
     <g id="line2d_8">
      <g>
       <use xlink:href="#mf99f764cd4" x="428.503543" y="250.305354" style="stroke: #000000; stroke-width: 0.5"/>
      </g>
     </g>
     <g id="text_4">
      <!-- $\mathregular{75}$ -->
      <g transform="translate(420.823543 262.923479)scale(0.12 -0.12)">
       <defs>
        <path id="DejaVuSans-37" d="M 525 4666 
L 3525 4666 
L 3525 4397 
L 1831 0 
L 1172 0 
L 2766 4134 
L 525 4134 
L 525 4666 
z
" transform="scale(0.015625)"/>
       </defs>
       <use xlink:href="#DejaVuSans-37" transform="translate(0 0.09375)"/>
       <use xlink:href="#DejaVuSans-35" transform="translate(63.623047 0.09375)"/>
      </g>
     </g>
    </g>
    <g id="xtick_5">
     <g id="line2d_9">
      <path d="M 553.212001 250.305354 
L 553.212001 2.834646 
" clip-path="url(#p2f66ff54c7)" style="fill: none; stroke: #000000; stroke-opacity: 0.1; stroke-width: 0.5; stroke-linecap: square"/>
     </g>
     <g id="line2d_10">
      <g>
       <use xlink:href="#mf99f764cd4" x="553.212001" y="250.305354" style="stroke: #000000; stroke-width: 0.5"/>
      </g>
     </g>
     <g id="text_5">
      <!-- $\mathregular{100}$ -->
      <g transform="translate(541.752001 262.923479)scale(0.12 -0.12)">
       <defs>
        <path id="DejaVuSans-31" d="M 794 531 
L 1825 531 
L 1825 4091 
L 703 3866 
L 703 4441 
L 1819 4666 
L 2450 4666 
L 2450 531 
L 3481 531 
L 3481 0 
L 794 0 
L 794 531 
z
" transform="scale(0.015625)"/>
       </defs>
       <use xlink:href="#DejaVuSans-31" transform="translate(0 0.78125)"/>
       <use xlink:href="#DejaVuSans-30" transform="translate(63.623047 0.78125)"/>
       <use xlink:href="#DejaVuSans-30" transform="translate(127.246094 0.78125)"/>
      </g>
     </g>
    </g>
    <g id="text_6">
     <!-- Epoch -->
     <g transform="translate(284.285923 281.576604)scale(0.16 -0.16)">
      <defs>
       <path id="DejaVuSans-45" d="M 628 4666 
L 3578 4666 
L 3578 4134 
L 1259 4134 
L 1259 2753 
L 3481 2753 
L 3481 2222 
L 1259 2222 
L 1259 531 
L 3634 531 
L 3634 0 
L 628 0 
L 628 4666 
z
" transform="scale(0.015625)"/>
       <path id="DejaVuSans-70" d="M 1159 525 
L 1159 -1331 
L 581 -1331 
L 581 3500 
L 1159 3500 
L 1159 2969 
Q 1341 3281 1617 3432 
Q 1894 3584 2278 3584 
Q 2916 3584 3314 3078 
Q 3713 2572 3713 1747 
Q 3713 922 3314 415 
Q 2916 -91 2278 -91 
Q 1894 -91 1617 61 
Q 1341 213 1159 525 
z
M 3116 1747 
Q 3116 2381 2855 2742 
Q 2594 3103 2138 3103 
Q 1681 3103 1420 2742 
Q 1159 2381 1159 1747 
Q 1159 1113 1420 752 
Q 1681 391 2138 391 
Q 2594 391 2855 752 
Q 3116 1113 3116 1747 
z
" transform="scale(0.015625)"/>
       <path id="DejaVuSans-6f" d="M 1959 3097 
Q 1497 3097 1228 2736 
Q 959 2375 959 1747 
Q 959 1119 1226 758 
Q 1494 397 1959 397 
Q 2419 397 2687 759 
Q 2956 1122 2956 1747 
Q 2956 2369 2687 2733 
Q 2419 3097 1959 3097 
z
M 1959 3584 
Q 2709 3584 3137 3096 
Q 3566 2609 3566 1747 
Q 3566 888 3137 398 
Q 2709 -91 1959 -91 
Q 1206 -91 779 398 
Q 353 888 353 1747 
Q 353 2609 779 3096 
Q 1206 3584 1959 3584 
z
" transform="scale(0.015625)"/>
       <path id="DejaVuSans-63" d="M 3122 3366 
L 3122 2828 
Q 2878 2963 2633 3030 
Q 2388 3097 2138 3097 
Q 1578 3097 1268 2742 
Q 959 2388 959 1747 
Q 959 1106 1268 751 
Q 1578 397 2138 397 
Q 2388 397 2633 464 
Q 2878 531 3122 666 
L 3122 134 
Q 2881 22 2623 -34 
Q 2366 -91 2075 -91 
Q 1284 -91 818 406 
Q 353 903 353 1747 
Q 353 2603 823 3093 
Q 1294 3584 2113 3584 
Q 2378 3584 2631 3529 
Q 2884 3475 3122 3366 
z
" transform="scale(0.015625)"/>
       <path id="DejaVuSans-68" d="M 3513 2113 
L 3513 0 
L 2938 0 
L 2938 2094 
Q 2938 2591 2744 2837 
Q 2550 3084 2163 3084 
Q 1697 3084 1428 2787 
Q 1159 2491 1159 1978 
L 1159 0 
L 581 0 
L 581 4863 
L 1159 4863 
L 1159 2956 
Q 1366 3272 1645 3428 
Q 1925 3584 2291 3584 
Q 2894 3584 3203 3211 
Q 3513 2838 3513 2113 
z
" transform="scale(0.015625)"/>
      </defs>
      <use xlink:href="#DejaVuSans-45"/>
      <use xlink:href="#DejaVuSans-70" x="63.183594"/>
      <use xlink:href="#DejaVuSans-6f" x="126.660156"/>
      <use xlink:href="#DejaVuSans-63" x="187.841797"/>
      <use xlink:href="#DejaVuSans-68" x="242.822266"/>
     </g>
    </g>
   </g>
   <g id="matplotlib.axis_2">
    <g id="ytick_1">
     <g id="line2d_11">
      <path d="M 44.401491 233.321965 
L 573.165354 233.321965 
" clip-path="url(#p2f66ff54c7)" style="fill: none; stroke: #000000; stroke-opacity: 0.1; stroke-width: 0.5; stroke-linecap: square"/>
     </g>
     <g id="line2d_12">
      <defs>
       <path id="mf455d45b9d" d="M 0 0 
L 2.5 0 
" style="stroke: #000000; stroke-width: 0.5"/>
      </defs>
      <g>
       <use xlink:href="#mf455d45b9d" x="44.401491" y="233.321965" style="stroke: #000000; stroke-width: 0.5"/>
      </g>
     </g>
     <g id="text_7">
      <!-- $\mathregular{0.5}$ -->
      <g transform="translate(21.701491 237.881027)scale(0.12 -0.12)">
       <defs>
        <path id="DejaVuSans-2e" d="M 684 794 
L 1344 794 
L 1344 0 
L 684 0 
L 684 794 
z
" transform="scale(0.015625)"/>
       </defs>
       <use xlink:href="#DejaVuSans-30" transform="translate(0 0.78125)"/>
       <use xlink:href="#DejaVuSans-2e" transform="translate(63.623047 0.78125)"/>
       <use xlink:href="#DejaVuSans-35" transform="translate(95.410156 0.78125)"/>
      </g>
     </g>
    </g>
    <g id="ytick_2">
     <g id="line2d_13">
      <path d="M 44.401491 190.728475 
L 573.165354 190.728475 
" clip-path="url(#p2f66ff54c7)" style="fill: none; stroke: #000000; stroke-opacity: 0.1; stroke-width: 0.5; stroke-linecap: square"/>
     </g>
     <g id="line2d_14">
      <g>
       <use xlink:href="#mf455d45b9d" x="44.401491" y="190.728475" style="stroke: #000000; stroke-width: 0.5"/>
      </g>
     </g>
     <g id="text_8">
      <!-- $\mathregular{1.0}$ -->
      <g transform="translate(21.701491 195.287538)scale(0.12 -0.12)">
       <use xlink:href="#DejaVuSans-31" transform="translate(0 0.78125)"/>
       <use xlink:href="#DejaVuSans-2e" transform="translate(63.623047 0.78125)"/>
       <use xlink:href="#DejaVuSans-30" transform="translate(95.410156 0.78125)"/>
      </g>
     </g>
    </g>
    <g id="ytick_3">
     <g id="line2d_15">
      <path d="M 44.401491 148.134986 
L 573.165354 148.134986 
" clip-path="url(#p2f66ff54c7)" style="fill: none; stroke: #000000; stroke-opacity: 0.1; stroke-width: 0.5; stroke-linecap: square"/>
     </g>
     <g id="line2d_16">
      <g>
       <use xlink:href="#mf455d45b9d" x="44.401491" y="148.134986" style="stroke: #000000; stroke-width: 0.5"/>
      </g>
     </g>
     <g id="text_9">
      <!-- $\mathregular{1.5}$ -->
      <g transform="translate(21.701491 152.694049)scale(0.12 -0.12)">
       <use xlink:href="#DejaVuSans-31" transform="translate(0 0.09375)"/>
       <use xlink:href="#DejaVuSans-2e" transform="translate(63.623047 0.09375)"/>
       <use xlink:href="#DejaVuSans-35" transform="translate(95.410156 0.09375)"/>
      </g>
     </g>
    </g>
    <g id="ytick_4">
     <g id="line2d_17">
      <path d="M 44.401491 105.541497 
L 573.165354 105.541497 
" clip-path="url(#p2f66ff54c7)" style="fill: none; stroke: #000000; stroke-opacity: 0.1; stroke-width: 0.5; stroke-linecap: square"/>
     </g>
     <g id="line2d_18">
      <g>
       <use xlink:href="#mf455d45b9d" x="44.401491" y="105.541497" style="stroke: #000000; stroke-width: 0.5"/>
      </g>
     </g>
     <g id="text_10">
      <!-- $\mathregular{2.0}$ -->
      <g transform="translate(21.701491 110.10056)scale(0.12 -0.12)">
       <use xlink:href="#DejaVuSans-32" transform="translate(0 0.78125)"/>
       <use xlink:href="#DejaVuSans-2e" transform="translate(63.623047 0.78125)"/>
       <use xlink:href="#DejaVuSans-30" transform="translate(95.410156 0.78125)"/>
      </g>
     </g>
    </g>
    <g id="ytick_5">
     <g id="line2d_19">
      <path d="M 44.401491 62.948008 
L 573.165354 62.948008 
" clip-path="url(#p2f66ff54c7)" style="fill: none; stroke: #000000; stroke-opacity: 0.1; stroke-width: 0.5; stroke-linecap: square"/>
     </g>
     <g id="line2d_20">
      <g>
       <use xlink:href="#mf455d45b9d" x="44.401491" y="62.948008" style="stroke: #000000; stroke-width: 0.5"/>
      </g>
     </g>
     <g id="text_11">
      <!-- $\mathregular{2.5}$ -->
      <g transform="translate(21.701491 67.50707)scale(0.12 -0.12)">
       <use xlink:href="#DejaVuSans-32" transform="translate(0 0.78125)"/>
       <use xlink:href="#DejaVuSans-2e" transform="translate(63.623047 0.78125)"/>
       <use xlink:href="#DejaVuSans-35" transform="translate(95.410156 0.78125)"/>
      </g>
     </g>
    </g>
    <g id="ytick_6">
     <g id="line2d_21">
      <path d="M 44.401491 20.354519 
L 573.165354 20.354519 
" clip-path="url(#p2f66ff54c7)" style="fill: none; stroke: #000000; stroke-opacity: 0.1; stroke-width: 0.5; stroke-linecap: square"/>
     </g>
     <g id="line2d_22">
      <g>
       <use xlink:href="#mf455d45b9d" x="44.401491" y="20.354519" style="stroke: #000000; stroke-width: 0.5"/>
      </g>
     </g>
     <g id="text_12">
      <!-- $\mathregular{3.0}$ -->
      <g transform="translate(21.701491 24.913581)scale(0.12 -0.12)">
       <defs>
        <path id="DejaVuSans-33" d="M 2597 2516 
Q 3050 2419 3304 2112 
Q 3559 1806 3559 1356 
Q 3559 666 3084 287 
Q 2609 -91 1734 -91 
Q 1441 -91 1130 -33 
Q 819 25 488 141 
L 488 750 
Q 750 597 1062 519 
Q 1375 441 1716 441 
Q 2309 441 2620 675 
Q 2931 909 2931 1356 
Q 2931 1769 2642 2001 
Q 2353 2234 1838 2234 
L 1294 2234 
L 1294 2753 
L 1863 2753 
Q 2328 2753 2575 2939 
Q 2822 3125 2822 3475 
Q 2822 3834 2567 4026 
Q 2313 4219 1838 4219 
Q 1578 4219 1281 4162 
Q 984 4106 628 3988 
L 628 4550 
Q 988 4650 1302 4700 
Q 1616 4750 1894 4750 
Q 2613 4750 3031 4423 
Q 3450 4097 3450 3541 
Q 3450 3153 3228 2886 
Q 3006 2619 2597 2516 
z
" transform="scale(0.015625)"/>
       </defs>
       <use xlink:href="#DejaVuSans-33" transform="translate(0 0.78125)"/>
       <use xlink:href="#DejaVuSans-2e" transform="translate(63.623047 0.78125)"/>
       <use xlink:href="#DejaVuSans-30" transform="translate(95.410156 0.78125)"/>
      </g>
     </g>
    </g>
    <g id="text_13">
     <!-- p -->
     <g transform="translate(14.373991 131.64875)rotate(-90)scale(0.16 -0.16)">
      <use xlink:href="#DejaVuSans-70"/>
     </g>
    </g>
   </g>
   <g id="line2d_23">
    <path d="M 59.366506 138.470444 
L 64.354845 193.403103 
L 69.343183 195.822344 
L 74.331521 192.231402 
L 79.31986 192.612534 
L 84.308198 193.785657 
L 89.296536 193.165756 
L 94.284875 191.395086 
L 99.273213 192.806874 
L 104.261551 194.127853 
L 109.24989 194.497666 
L 114.238228 192.642287 
L 119.226566 192.090339 
L 124.214905 191.663853 
L 129.203243 192.238682 
L 134.191581 191.603702 
L 139.17992 192.494582 
L 144.168258 192.180025 
L 149.156596 191.634968 
L 154.144935 192.215863 
L 159.133273 191.909851 
L 164.121611 191.464527 
L 169.10995 192.025865 
L 174.098288 191.517725 
L 179.086626 191.550837 
L 184.074965 191.769292 
L 189.063303 191.828439 
L 194.051641 191.942105 
L 199.03998 192.275884 
L 204.028318 191.979225 
L 209.016656 191.653663 
L 214.004995 192.172759 
L 218.993333 191.867067 
L 223.981671 191.688866 
L 228.97001 191.940106 
L 233.958348 192.253114 
L 238.946686 191.566943 
L 243.935025 191.779303 
L 248.923363 191.953012 
L 253.911701 191.914437 
L 258.90004 192.257053 
L 263.888378 191.984512 
L 268.876716 191.673253 
L 273.865055 192.089423 
L 278.853393 191.819114 
L 283.841731 191.93046 
L 288.83007 191.777901 
L 293.818408 192.26711 
L 298.806746 192.519992 
L 303.795085 191.628349 
L 308.783423 191.855972 
L 313.771761 191.74121 
L 318.7601 192.232558 
L 323.748438 191.879712 
L 328.736776 191.666437 
L 333.725115 191.787657 
L 338.713453 191.977738 
L 343.701791 192.289352 
L 348.690129 192.300102 
L 353.678468 192.279936 
L 358.666806 192.364178 
L 363.655144 192.066756 
L 368.643483 192.385536 
L 373.631821 192.184043 
L 378.620159 191.774029 
L 383.608498 192.141783 
L 388.596836 192.538501 
L 393.585174 192.215603 
L 398.573513 192.130141 
L 403.561851 191.510823 
L 408.550189 191.860385 
L 413.538528 192.046265 
L 418.526866 191.379598 
L 423.515204 192.213653 
L 428.503543 192.259949 
L 433.491881 191.566337 
L 438.480219 192.088074 
L 443.468558 191.505041 
L 448.456896 192.710967 
L 453.445234 191.941905 
L 458.433573 191.858289 
L 463.421911 192.182673 
L 468.410249 192.436065 
L 473.398588 192.142866 
L 478.386926 192.686608 
L 483.375264 191.868235 
L 488.363603 192.142396 
L 493.351941 192.057084 
L 498.340279 192.084306 
L 503.328618 191.799125 
L 508.316956 191.832158 
L 513.305294 192.013632 
L 518.293633 191.96941 
L 523.281971 191.780348 
L 528.270309 192.15574 
L 533.258648 192.114615 
L 538.246986 192.714674 
L 543.235324 192.085979 
L 548.223663 192.062065 
L 553.212001 191.905148 
L 558.200339 191.955634 
" clip-path="url(#p2f66ff54c7)" style="fill: none; stroke: #009afa"/>
   </g>
   <g id="line2d_24">
    <path d="M 59.366506 147.108977 
L 64.354845 179.958313 
L 69.343183 182.695099 
L 74.331521 173.05859 
L 79.31986 171.027821 
L 84.308198 178.420468 
L 89.296536 177.09462 
L 94.284875 170.980355 
L 99.273213 173.885322 
L 104.261551 173.61462 
L 109.24989 173.86413 
L 114.238228 175.513846 
L 119.226566 176.027703 
L 124.214905 177.954711 
L 129.203243 178.768266 
L 134.191581 179.443901 
L 139.17992 179.738061 
L 144.168258 180.011306 
L 149.156596 178.337736 
L 154.144935 179.808815 
L 159.133273 180.269482 
L 164.121611 179.395454 
L 169.10995 179.887038 
L 174.098288 179.998815 
L 179.086626 179.429248 
L 184.074965 179.759759 
L 189.063303 180.070974 
L 194.051641 179.662265 
L 199.03998 180.501329 
L 204.028318 179.514979 
L 209.016656 180.095558 
L 214.004995 179.934189 
L 218.993333 179.432676 
L 223.981671 179.755197 
L 228.97001 180.372183 
L 233.958348 180.858468 
L 238.946686 179.886733 
L 243.935025 180.247293 
L 248.923363 180.027083 
L 253.911701 179.780448 
L 258.90004 179.932786 
L 263.888378 180.898311 
L 268.876716 179.824787 
L 273.865055 179.72423 
L 278.853393 179.473003 
L 283.841731 180.101087 
L 288.83007 179.079546 
L 293.818408 180.365703 
L 298.806746 180.285056 
L 303.795085 179.406535 
L 308.783423 179.856153 
L 313.771761 180.380998 
L 318.7601 179.941361 
L 323.748438 180.210938 
L 328.736776 179.98318 
L 333.725115 179.949766 
L 338.713453 180.530824 
L 343.701791 181.039403 
L 348.690129 179.866137 
L 353.678468 180.767892 
L 358.666806 180.10628 
L 363.655144 180.239877 
L 368.643483 180.258017 
L 373.631821 180.229853 
L 378.620159 179.999106 
L 383.608498 180.658203 
L 388.596836 180.377503 
L 393.585174 180.051012 
L 398.573513 180.492557 
L 403.561851 179.455329 
L 408.550189 179.878738 
L 413.538528 180.305796 
L 418.526866 180.158022 
L 423.515204 180.472462 
L 428.503543 179.206273 
L 433.491881 179.016472 
L 438.480219 181.441662 
L 443.468558 179.758524 
L 448.456896 181.130719 
L 453.445234 179.187123 
L 458.433573 179.955106 
L 463.421911 180.519448 
L 468.410249 180.948887 
L 473.398588 178.933321 
L 478.386926 181.269598 
L 483.375264 180.168778 
L 488.363603 179.285906 
L 493.351941 180.097235 
L 498.340279 179.323548 
L 503.328618 180.377042 
L 508.316956 179.584344 
L 513.305294 180.223478 
L 518.293633 180.528969 
L 523.281971 179.958345 
L 528.270309 179.952651 
L 533.258648 180.287635 
L 538.246986 180.729907 
L 543.235324 180.668775 
L 548.223663 180.383861 
L 553.212001 180.608323 
L 558.200339 180.144128 
" clip-path="url(#p2f66ff54c7)" style="fill: none; stroke: #e36f47"/>
   </g>
   <g id="patch_3">
    <path d="M 44.401491 250.305354 
L 44.401491 2.834646 
" style="fill: none; stroke: #000000; stroke-linejoin: miter; stroke-linecap: square"/>
   </g>
   <g id="patch_4">
    <path d="M 44.401491 250.305354 
L 573.165354 250.305354 
" style="fill: none; stroke: #000000; stroke-linejoin: miter; stroke-linecap: square"/>
   </g>
   <g id="line2d_25">
    <path d="M 59.366506 225.917702 
L 64.354845 206.304364 
L 69.343183 204.380181 
L 74.331521 209.678333 
L 79.31986 211.384363 
L 84.308198 200.349265 
L 89.296536 208.606923 
L 94.284875 211.724945 
L 99.273213 206.629002 
L 104.261551 210.491252 
L 109.24989 206.607351 
L 114.238228 204.621967 
L 119.226566 204.714834 
L 124.214905 204.216831 
L 129.203243 204.532599 
L 134.191581 204.381633 
L 139.17992 204.481502 
L 144.168258 203.999752 
L 149.156596 204.525582 
L 154.144935 204.655944 
L 159.133273 204.303511 
L 164.121611 204.932656 
L 169.10995 205.002854 
L 174.098288 204.538044 
L 179.086626 205.440861 
L 184.074965 205.134212 
L 189.063303 204.940522 
L 194.051641 205.038524 
L 199.03998 204.371817 
L 204.028318 204.858441 
L 209.016656 204.806733 
L 214.004995 204.910096 
L 218.993333 205.642562 
L 223.981671 205.470174 
L 228.97001 204.622077 
L 233.958348 204.177257 
L 238.946686 204.724671 
L 243.935025 204.544724 
L 248.923363 204.741416 
L 253.911701 204.443709 
L 258.90004 203.991483 
L 263.888378 203.419816 
L 268.876716 204.185617 
L 273.865055 204.859215 
L 278.853393 204.937851 
L 283.841731 204.648007 
L 288.83007 205.30929 
L 293.818408 204.904142 
L 298.806746 204.292636 
L 303.795085 204.483386 
L 308.783423 205.445498 
L 313.771761 204.996067 
L 318.7601 205.599764 
L 323.748438 204.457819 
L 328.736776 204.174216 
L 333.725115 204.857155 
L 338.713453 204.599846 
L 343.701791 204.140741 
L 348.690129 204.189629 
L 353.678468 203.544444 
L 358.666806 204.753226 
L 363.655144 204.43973 
L 368.643483 204.65187 
L 373.631821 204.989769 
L 378.620159 204.511634 
L 383.608498 204.558794 
L 388.596836 204.312804 
L 393.585174 204.179447 
L 398.573513 204.064664 
L 403.561851 205.426898 
L 408.550189 204.820085 
L 413.538528 204.202764 
L 418.526866 204.524722 
L 423.515204 204.29501 
L 428.503543 205.175815 
L 433.491881 205.476718 
L 438.480219 203.375607 
L 443.468558 203.774941 
L 448.456896 204.327422 
L 453.445234 203.988599 
L 458.433573 203.783707 
L 463.421911 204.294784 
L 468.410249 204.146436 
L 473.398588 204.571462 
L 478.386926 202.978957 
L 483.375264 203.54948 
L 488.363603 205.417267 
L 493.351941 204.613781 
L 498.340279 205.201855 
L 503.328618 203.989191 
L 508.316956 204.019992 
L 513.305294 204.414016 
L 518.293633 204.418514 
L 523.281971 205.070237 
L 528.270309 205.093594 
L 533.258648 203.914805 
L 538.246986 203.970316 
L 543.235324 203.701123 
L 548.223663 204.247621 
L 553.212001 204.533784 
L 558.200339 204.469591 
" clip-path="url(#p2f66ff54c7)" style="fill: none; stroke: #3ea44e"/>
   </g>
   <g id="line2d_26">
    <path d="M 59.366506 114.580177 
L 64.354845 180.170408 
L 69.343183 183.297328 
L 74.331521 179.634646 
L 79.31986 177.559107 
L 84.308198 187.37515 
L 89.296536 179.258456 
L 94.284875 177.671454 
L 99.273213 181.538017 
L 104.261551 177.940273 
L 109.24989 181.106621 
L 114.238228 181.040717 
L 119.226566 180.846621 
L 124.214905 181.704396 
L 129.203243 181.361497 
L 134.191581 181.768271 
L 139.17992 181.639774 
L 144.168258 182.431506 
L 149.156596 181.907018 
L 154.144935 181.43001 
L 159.133273 181.997159 
L 164.121611 182.022487 
L 169.10995 181.646843 
L 174.098288 182.094002 
L 179.086626 181.011214 
L 184.074965 181.276908 
L 189.063303 181.476037 
L 194.051641 181.252554 
L 199.03998 182.172656 
L 204.028318 181.740759 
L 209.016656 181.887007 
L 214.004995 181.569657 
L 218.993333 181.070589 
L 223.981671 181.278823 
L 228.97001 182.045393 
L 233.958348 182.366735 
L 238.946686 181.846685 
L 243.935025 182.010563 
L 248.923363 181.88768 
L 253.911701 182.399016 
L 258.90004 182.244754 
L 263.888378 183.198167 
L 268.876716 182.263132 
L 273.865055 181.905334 
L 278.853393 181.650243 
L 283.841731 181.797803 
L 288.83007 180.926697 
L 293.818408 181.485944 
L 298.806746 182.380277 
L 303.795085 182.520111 
L 308.783423 181.461725 
L 313.771761 182.108818 
L 318.7601 180.555002 
L 323.748438 181.355619 
L 328.736776 182.242833 
L 333.725115 181.998824 
L 338.713453 182.177776 
L 343.701791 182.335374 
L 348.690129 182.309073 
L 353.678468 183.487719 
L 358.666806 181.933912 
L 363.655144 182.135621 
L 368.643483 181.942261 
L 373.631821 181.880098 
L 378.620159 182.394194 
L 383.608498 182.322063 
L 388.596836 181.925226 
L 393.585174 182.153149 
L 398.573513 182.643593 
L 403.561851 181.773103 
L 408.550189 181.633092 
L 413.538528 182.599329 
L 418.526866 182.343978 
L 423.515204 182.463508 
L 428.503543 181.091714 
L 433.491881 181.20636 
L 438.480219 183.794245 
L 443.468558 182.934521 
L 448.456896 182.019022 
L 453.445234 181.976108 
L 458.433573 182.657019 
L 463.421911 182.062139 
L 468.410249 182.416939 
L 473.398588 181.801149 
L 478.386926 183.517812 
L 483.375264 183.349677 
L 488.363603 181.299752 
L 493.351941 182.166149 
L 498.340279 181.369224 
L 503.328618 182.728681 
L 508.316956 182.56279 
L 513.305294 182.262695 
L 518.293633 182.214003 
L 523.281971 181.654729 
L 528.270309 181.284236 
L 533.258648 182.476209 
L 538.246986 182.513098 
L 543.235324 182.908951 
L 548.223663 182.246341 
L 553.212001 181.929651 
L 558.200339 181.882548 
" clip-path="url(#p2f66ff54c7)" style="fill: none; stroke: #c371d2"/>
   </g>
   <g id="line2d_27">
    <path d="M 59.366506 204.024126 
L 64.354845 208.537634 
L 69.343183 203.170973 
L 74.331521 203.769642 
L 79.31986 194.289743 
L 84.308198 200.106363 
L 89.296536 193.859132 
L 94.284875 201.156825 
L 99.273213 200.906008 
L 104.261551 192.85318 
L 109.24989 197.911608 
L 114.238228 196.10406 
L 119.226566 195.977097 
L 124.214905 195.488378 
L 129.203243 197.083685 
L 134.191581 195.736602 
L 139.17992 195.550091 
L 144.168258 195.334455 
L 149.156596 195.400644 
L 154.144935 197.46543 
L 159.133273 195.694824 
L 164.121611 196.486053 
L 169.10995 196.633568 
L 174.098288 195.039271 
L 179.086626 196.609309 
L 184.074965 196.878718 
L 189.063303 195.931603 
L 194.051641 196.95258 
L 199.03998 195.097407 
L 204.028318 197.148717 
L 209.016656 196.808998 
L 214.004995 195.272293 
L 218.993333 196.490471 
L 223.981671 197.428863 
L 228.97001 195.363231 
L 233.958348 196.43238 
L 238.946686 195.899803 
L 243.935025 196.07491 
L 248.923363 196.551529 
L 253.911701 194.66327 
L 258.90004 196.000051 
L 263.888378 195.827166 
L 268.876716 195.78834 
L 273.865055 196.298711 
L 278.853393 196.037491 
L 283.841731 195.38489 
L 288.83007 196.718304 
L 293.818408 195.317631 
L 298.806746 195.878396 
L 303.795085 194.77915 
L 308.783423 197.376971 
L 313.771761 194.861798 
L 318.7601 197.11491 
L 323.748438 196.713911 
L 328.736776 194.784446 
L 333.725115 195.901992 
L 338.713453 196.527527 
L 343.701791 195.603709 
L 348.690129 194.821581 
L 353.678468 194.618461 
L 358.666806 196.827785 
L 363.655144 194.514821 
L 368.643483 197.339146 
L 373.631821 195.560846 
L 378.620159 195.046173 
L 383.608498 197.678531 
L 388.596836 194.819027 
L 393.585174 195.337471 
L 398.573513 195.713847 
L 403.561851 196.582008 
L 408.550189 195.914074 
L 413.538528 195.198204 
L 418.526866 197.215631 
L 423.515204 194.925974 
L 428.503543 196.791736 
L 433.491881 196.080244 
L 438.480219 194.862615 
L 443.468558 195.051096 
L 448.456896 197.66692 
L 453.445234 194.644057 
L 458.433573 194.339444 
L 463.421911 196.589987 
L 468.410249 196.877786 
L 473.398588 195.819404 
L 478.386926 195.178623 
L 483.375264 196.456912 
L 488.363603 195.012142 
L 493.351941 196.32644 
L 498.340279 195.707387 
L 503.328618 195.861656 
L 508.316956 196.126281 
L 513.305294 196.138471 
L 518.293633 194.875156 
L 523.281971 195.980827 
L 528.270309 196.087738 
L 533.258648 196.17504 
L 538.246986 194.967011 
L 543.235324 194.143548 
L 548.223663 195.113357 
L 553.212001 196.015301 
L 558.200339 195.482647 
" clip-path="url(#p2f66ff54c7)" style="fill: none; stroke: #ac8e18"/>
   </g>
   <g id="line2d_28">
    <path d="M 59.366506 136.438393 
L 64.354845 129.221671 
L 69.343183 139.361337 
L 74.331521 140.084967 
L 79.31986 146.771139 
L 84.308198 145.149225 
L 89.296536 140.78524 
L 94.284875 147.795652 
L 99.273213 140.48025 
L 104.261551 147.960776 
L 109.24989 147.956228 
L 114.238228 141.714577 
L 119.226566 143.500782 
L 124.214905 144.913703 
L 129.203243 144.263612 
L 134.191581 143.854888 
L 139.17992 145.276478 
L 144.168258 145.615372 
L 149.156596 146.553658 
L 154.144935 143.060334 
L 159.133273 144.172065 
L 164.121611 144.827459 
L 169.10995 143.90677 
L 174.098288 144.686903 
L 179.086626 144.213665 
L 184.074965 143.782493 
L 189.063303 143.74187 
L 194.051641 143.974422 
L 199.03998 145.118221 
L 204.028318 144.565171 
L 209.016656 143.644338 
L 214.004995 145.130305 
L 218.993333 144.41315 
L 223.981671 143.715039 
L 228.97001 144.975019 
L 233.958348 144.59901 
L 238.946686 144.795756 
L 243.935025 144.585129 
L 248.923363 144.390917 
L 253.911701 145.850445 
L 258.90004 145.553905 
L 263.888378 144.803197 
L 268.876716 145.28294 
L 273.865055 144.968538 
L 278.853393 144.665051 
L 283.841731 144.659393 
L 288.83007 144.290764 
L 293.818408 144.55017 
L 298.806746 145.416105 
L 303.795085 146.655715 
L 308.783423 143.818898 
L 313.771761 145.441147 
L 318.7601 143.993097 
L 323.748438 143.592183 
L 328.736776 145.38245 
L 333.725115 145.080557 
L 338.713453 144.512025 
L 343.701791 144.797798 
L 348.690129 146.784837 
L 353.678468 146.412495 
L 358.666806 144.540709 
L 363.655144 145.512816 
L 368.643483 144.405147 
L 373.631821 144.677792 
L 378.620159 145.81712 
L 383.608498 143.863196 
L 388.596836 145.576888 
L 393.585174 145.523349 
L 398.573513 145.056779 
L 403.561851 144.748672 
L 408.550189 144.824482 
L 413.538528 145.825898 
L 418.526866 143.637008 
L 423.515204 145.56408 
L 428.503543 144.517775 
L 433.491881 144.049102 
L 438.480219 145.571506 
L 443.468558 146.731819 
L 448.456896 143.311652 
L 453.445234 146.212928 
L 458.433573 145.82689 
L 463.421911 144.380049 
L 468.410249 143.883225 
L 473.398588 146.167839 
L 478.386926 145.437933 
L 483.375264 145.367756 
L 488.363603 145.250891 
L 493.351941 144.167964 
L 498.340279 144.89918 
L 503.328618 144.516689 
L 508.316956 145.649492 
L 513.305294 144.363775 
L 518.293633 145.303112 
L 523.281971 144.930749 
L 528.270309 144.691211 
L 533.258648 145.165488 
L 538.246986 146.127843 
L 543.235324 146.565446 
L 548.223663 145.761234 
L 553.212001 144.659566 
L 558.200339 145.469748 
" clip-path="url(#p2f66ff54c7)" style="fill: none; stroke: #00aaae"/>
   </g>
   <g id="line2d_29">
    <path d="M 59.366506 243.301466 
L 64.354845 239.165199 
L 69.343183 239.295324 
L 74.331521 238.203433 
L 79.31986 236.864359 
L 84.308198 233.604863 
L 89.296536 238.18638 
L 94.284875 237.788613 
L 99.273213 235.561915 
L 104.261551 237.063516 
L 109.24989 234.433711 
L 114.238228 234.704543 
L 119.226566 234.230742 
L 124.214905 233.788878 
L 129.203243 233.513105 
L 134.191581 233.582961 
L 139.17992 233.210146 
L 144.168258 233.03832 
L 149.156596 232.920694 
L 154.144935 233.389513 
L 159.133273 233.436895 
L 164.121611 233.380738 
L 169.10995 233.535526 
L 174.098288 233.605798 
L 179.086626 233.712438 
L 184.074965 233.622166 
L 189.063303 233.679908 
L 194.051641 233.538749 
L 199.03998 233.315139 
L 204.028318 233.265586 
L 209.016656 233.53649 
L 214.004995 233.252711 
L 218.993333 233.332216 
L 223.981671 233.434024 
L 228.97001 233.133577 
L 233.958348 233.04296 
L 238.946686 233.362603 
L 243.935025 233.340264 
L 248.923363 233.41473 
L 253.911701 233.058952 
L 258.90004 232.872669 
L 263.888378 233.189727 
L 268.876716 233.392063 
L 273.865055 233.2424 
L 278.853393 233.233922 
L 283.841731 233.366793 
L 288.83007 233.491708 
L 293.818408 233.477246 
L 298.806746 232.991318 
L 303.795085 232.897104 
L 308.783423 233.408731 
L 313.771761 233.340324 
L 318.7601 233.468222 
L 323.748438 233.579943 
L 328.736776 233.395435 
L 333.725115 233.315989 
L 338.713453 233.185541 
L 343.701791 233.039782 
L 348.690129 232.589553 
L 353.678468 232.737777 
L 358.666806 233.122335 
L 363.655144 233.115568 
L 368.643483 233.075334 
L 373.631821 233.210285 
L 378.620159 232.995479 
L 383.608498 233.235999 
L 388.596836 232.992826 
L 393.585174 232.95111 
L 398.573513 233.072532 
L 403.561851 233.305709 
L 408.550189 233.171533 
L 413.538528 233.044129 
L 418.526866 233.477517 
L 423.515204 233.288711 
L 428.503543 233.324569 
L 433.491881 233.574301 
L 438.480219 233.255992 
L 443.468558 233.052411 
L 448.456896 233.463587 
L 453.445234 232.87859 
L 458.433573 233.06907 
L 463.421911 233.265926 
L 468.410249 233.276048 
L 473.398588 232.934643 
L 478.386926 232.994259 
L 483.375264 233.093471 
L 488.363603 233.504016 
L 493.351941 233.430826 
L 498.340279 233.422279 
L 503.328618 233.300749 
L 508.316956 232.998342 
L 513.305294 233.243199 
L 518.293633 233.175293 
L 523.281971 233.301971 
L 528.270309 233.344204 
L 533.258648 232.96856 
L 538.246986 232.675335 
L 543.235324 232.832271 
L 548.223663 233.053365 
L 553.212001 233.251516 
L 558.200339 233.071471 
" clip-path="url(#p2f66ff54c7)" style="fill: none; stroke: #ed5e93"/>
   </g>
   <g id="line2d_30">
    <path d="M 59.366506 45.705161 
L 64.354845 58.694692 
L 69.343183 33.845398 
L 74.331521 30.734404 
L 79.31986 16.468467 
L 84.308198 14.651894 
L 89.296536 30.363129 
L 94.284875 21.489639 
L 99.273213 28.663843 
L 104.261551 14.136759 
L 109.24989 9.838534 
L 114.238228 25.664641 
L 119.226566 25.293108 
L 124.214905 24.7551 
L 129.203243 22.67973 
L 134.191581 26.324406 
L 139.17992 22.031958 
L 144.168258 22.106701 
L 149.156596 20.160943 
L 154.144935 26.300299 
L 159.133273 26.192557 
L 164.121611 25.212798 
L 169.10995 25.86524 
L 174.098288 24.899341 
L 179.086626 24.892818 
L 184.074965 26.446881 
L 189.063303 26.295344 
L 194.051641 24.796787 
L 199.03998 22.532069 
L 204.028318 23.100138 
L 209.016656 26.472231 
L 214.004995 23.507759 
L 218.993333 23.460432 
L 223.981671 25.416976 
L 228.97001 23.710758 
L 233.958348 23.054778 
L 238.946686 24.092566 
L 243.935025 24.456217 
L 248.923363 23.692867 
L 253.911701 21.112718 
L 258.90004 21.750821 
L 263.888378 24.615389 
L 268.876716 23.013622 
L 273.865055 21.899068 
L 278.853393 23.470479 
L 283.841731 24.225945 
L 288.83007 23.499279 
L 293.818408 23.804245 
L 298.806746 22.281951 
L 303.795085 21.600822 
L 308.783423 24.439253 
L 313.771761 20.26374 
L 318.7601 22.445774 
L 323.748438 26.773387 
L 328.736776 24.63476 
L 333.725115 22.096525 
L 338.713453 22.736092 
L 343.701791 22.464463 
L 348.690129 19.067449 
L 353.678468 20.874112 
L 358.666806 22.757983 
L 363.655144 21.977331 
L 368.643483 22.705192 
L 373.631821 23.617601 
L 378.620159 22.290814 
L 383.608498 24.100256 
L 388.596836 21.12335 
L 393.585174 21.622681 
L 398.573513 23.328659 
L 403.561851 23.443751 
L 408.550189 22.887921 
L 413.538528 22.487938 
L 418.526866 25.606067 
L 423.515204 22.089407 
L 428.503543 23.189554 
L 433.491881 25.136545 
L 438.480219 22.600242 
L 443.468558 20.018498 
L 448.456896 24.391937 
L 453.445234 19.999782 
L 458.433573 22.323436 
L 463.421911 24.61258 
L 468.410249 26.102732 
L 473.398588 22.097214 
L 478.386926 22.426778 
L 483.375264 22.702459 
L 488.363603 22.606449 
L 493.351941 24.46702 
L 498.340279 23.124758 
L 503.328618 25.543858 
L 508.316956 22.652738 
L 513.305294 23.776737 
L 518.293633 21.982775 
L 523.281971 23.007402 
L 528.270309 22.354388 
L 533.258648 22.46591 
L 538.246986 20.106365 
L 543.235324 20.386682 
L 548.223663 20.35333 
L 553.212001 23.394796 
L 558.200339 21.889884 
" clip-path="url(#p2f66ff54c7)" style="fill: none; stroke: #c68225"/>
   </g>
   <g id="line2d_31">
    <path d="M 59.366506 160.98693 
L 64.354845 179.061357 
L 69.343183 176.425445 
L 74.331521 182.75174 
L 79.31986 186.36841 
L 84.308198 186.637768 
L 89.296536 182.852666 
L 94.284875 186.016438 
L 99.273213 187.404028 
L 104.261551 186.42019 
L 109.24989 190.430788 
L 114.238228 188.175513 
L 119.226566 189.453642 
L 124.214905 189.493968 
L 129.203243 190.156384 
L 134.191581 189.741925 
L 139.17992 190.821916 
L 144.168258 191.061699 
L 149.156596 192.378145 
L 154.144935 190.811714 
L 159.133273 190.645521 
L 164.121611 190.951171 
L 169.10995 190.542041 
L 174.098288 190.62438 
L 179.086626 190.580734 
L 184.074965 190.508698 
L 189.063303 190.313281 
L 194.051641 190.673581 
L 199.03998 190.931715 
L 204.028318 191.309979 
L 209.016656 190.466734 
L 214.004995 190.926338 
L 218.993333 190.974094 
L 223.981671 190.641379 
L 228.97001 190.911733 
L 233.958348 190.940452 
L 238.946686 190.908746 
L 243.935025 190.773249 
L 248.923363 190.736699 
L 253.911701 191.482534 
L 258.90004 191.665996 
L 263.888378 190.976685 
L 268.876716 191.133835 
L 273.865055 191.077459 
L 278.853393 191.243432 
L 283.841731 190.870532 
L 288.83007 191.162505 
L 293.818408 190.869841 
L 298.806746 191.419217 
L 303.795085 191.782892 
L 308.783423 190.75211 
L 313.771761 190.940489 
L 318.7601 190.894587 
L 323.748438 190.626658 
L 328.736776 190.937913 
L 333.725115 191.016485 
L 338.713453 190.727842 
L 343.701791 190.733781 
L 348.690129 191.938283 
L 353.678468 191.397442 
L 358.666806 191.058879 
L 363.655144 191.254667 
L 368.643483 191.185171 
L 373.631821 190.927531 
L 378.620159 191.44318 
L 383.608498 190.698312 
L 388.596836 191.369321 
L 393.585174 191.440137 
L 398.573513 191.193739 
L 403.561851 191.026936 
L 408.550189 191.126126 
L 413.538528 191.266881 
L 418.526866 190.641108 
L 423.515204 191.025035 
L 428.503543 191.270919 
L 433.491881 191.132181 
L 438.480219 190.84077 
L 443.468558 191.739071 
L 448.456896 190.174898 
L 453.445234 192.129426 
L 458.433573 191.664398 
L 463.421911 190.961858 
L 468.410249 190.415494 
L 473.398588 191.956674 
L 478.386926 191.050442 
L 483.375264 191.372843 
L 488.363603 191.039036 
L 493.351941 190.806863 
L 498.340279 191.238562 
L 503.328618 190.785919 
L 508.316956 191.639598 
L 513.305294 190.920045 
L 518.293633 190.865644 
L 523.281971 190.856455 
L 528.270309 191.039252 
L 533.258648 191.409199 
L 538.246986 191.595771 
L 543.235324 191.514198 
L 548.223663 191.675699 
L 553.212001 190.9268 
L 558.200339 191.459403 
" clip-path="url(#p2f66ff54c7)" style="fill: none; stroke: #00a98d"/>
   </g>
   <g id="line2d_32">
    <path d="M 59.366506 181.370014 
L 64.354845 122.137349 
L 69.343183 119.26656 
L 74.331521 128.463958 
L 79.31986 129.436517 
L 84.308198 113.317733 
L 89.296536 130.250662 
L 94.284875 131.415391 
L 99.273213 123.953033 
L 104.261551 128.873363 
L 109.24989 120.762118 
L 114.238228 122.105731 
L 119.226566 123.009461 
L 124.214905 122.283212 
L 129.203243 122.676997 
L 134.191581 122.857709 
L 139.17992 122.442561 
L 144.168258 121.372036 
L 149.156596 121.746014 
L 154.144935 123.458083 
L 159.133273 122.903916 
L 164.121611 122.893383 
L 169.10995 123.287388 
L 174.098288 122.89445 
L 179.086626 124.474128 
L 184.074965 123.785429 
L 189.063303 123.71536 
L 194.051641 123.954704 
L 199.03998 122.556152 
L 204.028318 123.124421 
L 209.016656 123.396483 
L 214.004995 123.382715 
L 218.993333 124.233007 
L 223.981671 123.994033 
L 228.97001 122.667311 
L 233.958348 122.378752 
L 238.946686 123.310916 
L 243.935025 123.134071 
L 248.923363 123.189282 
L 253.911701 122.348085 
L 258.90004 122.293957 
L 263.888378 121.059356 
L 268.876716 122.753178 
L 273.865055 123.191148 
L 278.853393 123.584272 
L 283.841731 123.347608 
L 288.83007 124.66604 
L 293.818408 123.737671 
L 298.806746 122.298555 
L 303.795085 121.933542 
L 308.783423 123.828919 
L 313.771761 121.635369 
L 318.7601 123.808308 
L 323.748438 123.351758 
L 328.736776 122.10041 
L 333.725115 122.80764 
L 338.713453 122.982883 
L 343.701791 122.929245 
L 348.690129 122.258082 
L 353.678468 120.744246 
L 358.666806 123.196751 
L 363.655144 122.924426 
L 368.643483 123.144961 
L 373.631821 123.165846 
L 378.620159 122.382402 
L 383.608498 122.694693 
L 388.596836 122.995633 
L 393.585174 122.8857 
L 398.573513 122.255852 
L 403.561851 123.588217 
L 408.550189 123.670001 
L 413.538528 121.773869 
L 418.526866 122.959178 
L 423.515204 122.2252 
L 428.503543 124.058802 
L 433.491881 124.207473 
L 438.480219 120.641598 
L 443.468558 121.684631 
L 448.456896 123.52427 
L 453.445234 123.039218 
L 458.433573 121.857103 
L 463.421911 122.89503 
L 468.410249 122.798865 
L 473.398588 122.61021 
L 478.386926 120.202245 
L 483.375264 120.832362 
L 488.363603 123.708145 
L 493.351941 122.807425 
L 498.340279 123.60627 
L 503.328618 122.147693 
L 508.316956 121.916429 
L 513.305294 122.869088 
L 518.293633 123.062117 
L 523.281971 123.927199 
L 528.270309 124.303832 
L 533.258648 122.364885 
L 538.246986 121.574574 
L 543.235324 121.241954 
L 548.223663 122.036279 
L 553.212001 123.023327 
L 558.200339 123.040136 
" clip-path="url(#p2f66ff54c7)" style="fill: none; stroke: #8e971e"/>
   </g>
   <g id="line2d_33">
    <path d="M 59.366506 182.833144 
L 64.354845 191.456872 
L 69.343183 185.466116 
L 74.331521 188.261808 
L 79.31986 189.612166 
L 84.308198 195.693371 
L 89.296536 186.883954 
L 94.284875 187.881431 
L 99.273213 191.405892 
L 104.261551 189.635508 
L 109.24989 190.750106 
L 114.238228 194.030493 
L 119.226566 191.551852 
L 124.214905 193.561056 
L 129.203243 191.916051 
L 134.191581 193.457718 
L 139.17992 191.901194 
L 144.168258 193.776616 
L 149.156596 192.373161 
L 154.144935 192.955074 
L 159.133273 193.271381 
L 164.121611 193.092021 
L 169.10995 193.196422 
L 174.098288 193.079833 
L 179.086626 192.589775 
L 184.074965 192.22479 
L 189.063303 192.795652 
L 194.051641 192.662134 
L 199.03998 192.827283 
L 204.028318 192.790875 
L 209.016656 193.258238 
L 214.004995 192.761886 
L 218.993333 192.656328 
L 223.981671 192.402774 
L 228.97001 193.179494 
L 233.958348 192.84556 
L 238.946686 193.280866 
L 243.935025 192.620797 
L 248.923363 193.762116 
L 253.911701 193.155013 
L 258.90004 192.816542 
L 263.888378 194.187244 
L 268.876716 193.041058 
L 273.865055 193.80577 
L 278.853393 192.230171 
L 283.841731 193.693824 
L 288.83007 192.530281 
L 293.818408 192.351087 
L 298.806746 193.369114 
L 303.795085 193.807386 
L 308.783423 192.724557 
L 313.771761 191.820694 
L 318.7601 192.777441 
L 323.748438 192.864842 
L 328.736776 193.798154 
L 333.725115 193.280702 
L 338.713453 193.970842 
L 343.701791 193.280061 
L 348.690129 193.095192 
L 353.678468 194.83778 
L 358.666806 193.023741 
L 363.655144 193.010476 
L 368.643483 192.641483 
L 373.631821 193.663554 
L 378.620159 192.958053 
L 383.608498 193.599287 
L 388.596836 192.422991 
L 393.585174 194.038235 
L 398.573513 193.19021 
L 403.561851 193.657068 
L 408.550189 193.043148 
L 413.538528 193.515047 
L 418.526866 193.321084 
L 423.515204 193.121479 
L 428.503543 193.436387 
L 433.491881 192.475949 
L 438.480219 193.827866 
L 443.468558 193.321786 
L 448.456896 193.529113 
L 453.445234 192.275933 
L 458.433573 194.349768 
L 463.421911 193.211493 
L 468.410249 193.116555 
L 473.398588 191.858689 
L 478.386926 194.33607 
L 483.375264 193.122692 
L 488.363603 193.530167 
L 493.351941 193.075805 
L 498.340279 192.606893 
L 503.328618 193.876195 
L 508.316956 192.622122 
L 513.305294 193.405144 
L 518.293633 194.067169 
L 523.281971 193.537253 
L 528.270309 191.964438 
L 533.258648 193.065417 
L 538.246986 193.760521 
L 543.235324 194.273662 
L 548.223663 193.153977 
L 553.212001 194.076167 
L 558.200339 192.718677 
" clip-path="url(#p2f66ff54c7)" style="fill: none; stroke: #00a9cc"/>
   </g>
   <g id="line2d_34">
    <path d="M 59.366506 222.931795 
L 64.354845 205.997835 
L 69.343183 204.460238 
L 74.331521 205.873226 
L 79.31986 204.823841 
L 84.308198 199.154014 
L 89.296536 206.562487 
L 94.284875 205.423187 
L 99.273213 203.556005 
L 104.261551 204.495719 
L 109.24989 201.580042 
L 114.238228 204.962073 
L 119.226566 206.05394 
L 124.214905 206.165152 
L 129.203243 206.546709 
L 134.191581 206.975408 
L 139.17992 206.817873 
L 144.168258 206.371176 
L 149.156596 206.352287 
L 154.144935 207.443374 
L 159.133273 207.208196 
L 164.121611 206.829489 
L 169.10995 207.168883 
L 174.098288 206.960599 
L 179.086626 207.49689 
L 184.074965 207.453181 
L 189.063303 207.464814 
L 194.051641 207.424297 
L 199.03998 206.730736 
L 204.028318 206.857552 
L 209.016656 207.046642 
L 214.004995 207.106091 
L 218.993333 207.214483 
L 223.981671 207.056135 
L 228.97001 206.653286 
L 233.958348 206.611517 
L 238.946686 206.892036 
L 243.935025 206.922143 
L 248.923363 206.727671 
L 253.911701 206.263207 
L 258.90004 206.711125 
L 263.888378 206.33008 
L 268.876716 206.809649 
L 273.865055 206.69531 
L 278.853393 206.965548 
L 283.841731 207.058875 
L 288.83007 207.482114 
L 293.818408 207.208885 
L 298.806746 206.540777 
L 303.795085 206.268428 
L 308.783423 206.898514 
L 313.771761 206.426964 
L 318.7601 207.274075 
L 323.748438 207.507365 
L 328.736776 206.787346 
L 333.725115 206.61717 
L 338.713453 206.572919 
L 343.701791 206.738694 
L 348.690129 206.323517 
L 353.678468 205.650153 
L 358.666806 206.630592 
L 363.655144 206.590384 
L 368.643483 206.724707 
L 373.631821 206.576474 
L 378.620159 206.337407 
L 383.608498 206.377015 
L 388.596836 206.782082 
L 393.585174 206.747831 
L 398.573513 206.513235 
L 403.561851 206.609847 
L 408.550189 206.965341 
L 413.538528 206.259194 
L 418.526866 206.677695 
L 423.515204 206.349019 
L 428.503543 207.226009 
L 433.491881 207.11959 
L 438.480219 205.47154 
L 443.468558 205.902929 
L 448.456896 206.941824 
L 453.445234 206.805988 
L 458.433573 206.41724 
L 463.421911 206.995293 
L 468.410249 207.106807 
L 473.398588 207.088294 
L 478.386926 206.270641 
L 483.375264 206.087628 
L 488.363603 207.010888 
L 493.351941 206.691679 
L 498.340279 207.00049 
L 503.328618 206.624899 
L 508.316956 206.49844 
L 513.305294 206.818227 
L 518.293633 206.68428 
L 523.281971 206.865185 
L 528.270309 207.074091 
L 533.258648 206.533387 
L 538.246986 206.30274 
L 543.235324 206.052182 
L 548.223663 206.291166 
L 553.212001 206.751262 
L 558.200339 206.758439 
" clip-path="url(#p2f66ff54c7)" style="fill: none; stroke: #9b7fe9"/>
   </g>
  </g>
 </g>
 <defs>
  <clipPath id="p2f66ff54c7">
   <rect x="44.401491" y="2.834646" width="528.763863" height="247.470709"/>
  </clipPath>
 </defs>
</svg>
