<?xml version="1.0" encoding="utf-8" standalone="no"?>
<!DOCTYPE svg PUBLIC "-//W3C//DTD SVG 1.1//EN"
  "http://www.w3.org/Graphics/SVG/1.1/DTD/svg11.dtd">
<svg xmlns:xlink="http://www.w3.org/1999/xlink" width="576pt" height="144pt" viewBox="0 0 576 144" xmlns="http://www.w3.org/2000/svg" version="1.1">
 <metadata>
  <rdf:RDF xmlns:dc="http://purl.org/dc/elements/1.1/" xmlns:cc="http://creativecommons.org/ns#" xmlns:rdf="http://www.w3.org/1999/02/22-rdf-syntax-ns#">
   <cc:Work>
    <dc:type rdf:resource="http://purl.org/dc/dcmitype/StillImage"/>
    <dc:date>2021-12-31T01:21:57.854681</dc:date>
    <dc:format>image/svg+xml</dc:format>
    <dc:creator>
     <cc:Agent>
      <dc:title>Matplotlib v3.5.0, https://matplotlib.org/</dc:title>
     </cc:Agent>
    </dc:creator>
   </cc:Work>
  </rdf:RDF>
 </metadata>
 <defs>
  <style type="text/css">*{stroke-linejoin: round; stroke-linecap: butt}</style>
 </defs>
 <g id="figure_1">
  <g id="patch_1">
   <path d="M 0 144 
L 576 144 
L 576 0 
L 0 0 
z
" style="fill: #ffffff"/>
  </g>
  <g id="axes_1">
   <g id="patch_2">
    <path d="M 42.917106 104.793354 
L 277.174517 104.793354 
L 277.174517 5.373913 
L 42.917106 5.373913 
z
" style="fill: #ffffff"/>
   </g>
   <g id="matplotlib.axis_1">
    <g id="xtick_1">
     <g id="line2d_1">
      <path d="M 49.547032 104.793354 
L 49.547032 5.373913 
" clip-path="url(#p2be774f5eb)" style="fill: none; stroke: #000000; stroke-opacity: 0.1; stroke-width: 0.5; stroke-linecap: square"/>
     </g>
     <g id="line2d_2">
      <defs>
       <path id="m7340d63a2e" d="M 0 0 
L 0 -2.5 
" style="stroke: #000000; stroke-width: 0.5"/>
      </defs>
      <g>
       <use xlink:href="#m7340d63a2e" x="49.547032" y="104.793354" style="stroke: #000000; stroke-width: 0.5"/>
      </g>
     </g>
     <g id="line2d_3">
      <defs>
       <path id="m2d583d505d" d="M 0 0 
L 0 2.5 
" style="stroke: #000000; stroke-width: 0.5"/>
      </defs>
      <g>
       <use xlink:href="#m2d583d505d" x="49.547032" y="5.373913" style="stroke: #000000; stroke-width: 0.5"/>
      </g>
     </g>
     <g id="text_1">
      <!-- $\mathregular{10^{0}}$ -->
      <g transform="translate(38.987032 117.411479)scale(0.12 -0.12)">
       <defs>
        <path id="DejaVuSans-31" d="M 794 531 
L 1825 531 
L 1825 4091 
L 703 3866 
L 703 4441 
L 1819 4666 
L 2450 4666 
L 2450 531 
L 3481 531 
L 3481 0 
L 794 0 
L 794 531 
z
" transform="scale(0.015625)"/>
        <path id="DejaVuSans-30" d="M 2034 4250 
Q 1547 4250 1301 3770 
Q 1056 3291 1056 2328 
Q 1056 1369 1301 889 
Q 1547 409 2034 409 
Q 2525 409 2770 889 
Q 3016 1369 3016 2328 
Q 3016 3291 2770 3770 
Q 2525 4250 2034 4250 
z
M 2034 4750 
Q 2819 4750 3233 4129 
Q 3647 3509 3647 2328 
Q 3647 1150 3233 529 
Q 2819 -91 2034 -91 
Q 1250 -91 836 529 
Q 422 1150 422 2328 
Q 422 3509 836 4129 
Q 1250 4750 2034 4750 
z
" transform="scale(0.015625)"/>
       </defs>
       <use xlink:href="#DejaVuSans-31" transform="translate(0 0.765625)"/>
       <use xlink:href="#DejaVuSans-30" transform="translate(63.623047 0.765625)"/>
       <use xlink:href="#DejaVuSans-30" transform="translate(128.203125 39.046875)scale(0.7)"/>
      </g>
     </g>
    </g>
    <g id="xtick_2">
     <g id="line2d_4">
      <path d="M 159.807573 104.793354 
L 159.807573 5.373913 
" clip-path="url(#p2be774f5eb)" style="fill: none; stroke: #000000; stroke-opacity: 0.1; stroke-width: 0.5; stroke-linecap: square"/>
     </g>
     <g id="line2d_5">
      <g>
       <use xlink:href="#m7340d63a2e" x="159.807573" y="104.793354" style="stroke: #000000; stroke-width: 0.5"/>
      </g>
     </g>
     <g id="line2d_6">
      <g>
       <use xlink:href="#m2d583d505d" x="159.807573" y="5.373913" style="stroke: #000000; stroke-width: 0.5"/>
      </g>
     </g>
     <g id="text_2">
      <!-- $\mathregular{10^{1}}$ -->
      <g transform="translate(149.247573 117.411479)scale(0.12 -0.12)">
       <use xlink:href="#DejaVuSans-31" transform="translate(0 0.684375)"/>
       <use xlink:href="#DejaVuSans-30" transform="translate(63.623047 0.684375)"/>
       <use xlink:href="#DejaVuSans-31" transform="translate(128.203125 38.965625)scale(0.7)"/>
      </g>
     </g>
    </g>
    <g id="xtick_3">
     <g id="line2d_7">
      <path d="M 270.068113 104.793354 
L 270.068113 5.373913 
" clip-path="url(#p2be774f5eb)" style="fill: none; stroke: #000000; stroke-opacity: 0.1; stroke-width: 0.5; stroke-linecap: square"/>
     </g>
     <g id="line2d_8">
      <g>
       <use xlink:href="#m7340d63a2e" x="270.068113" y="104.793354" style="stroke: #000000; stroke-width: 0.5"/>
      </g>
     </g>
     <g id="line2d_9">
      <g>
       <use xlink:href="#m2d583d505d" x="270.068113" y="5.373913" style="stroke: #000000; stroke-width: 0.5"/>
      </g>
     </g>
     <g id="text_3">
      <!-- $\mathregular{10^{2}}$ -->
      <g transform="translate(259.508113 117.411479)scale(0.12 -0.12)">
       <defs>
        <path id="DejaVuSans-32" d="M 1228 531 
L 3431 531 
L 3431 0 
L 469 0 
L 469 531 
Q 828 903 1448 1529 
Q 2069 2156 2228 2338 
Q 2531 2678 2651 2914 
Q 2772 3150 2772 3378 
Q 2772 3750 2511 3984 
Q 2250 4219 1831 4219 
Q 1534 4219 1204 4116 
Q 875 4013 500 3803 
L 500 4441 
Q 881 4594 1212 4672 
Q 1544 4750 1819 4750 
Q 2544 4750 2975 4387 
Q 3406 4025 3406 3419 
Q 3406 3131 3298 2873 
Q 3191 2616 2906 2266 
Q 2828 2175 2409 1742 
Q 1991 1309 1228 531 
z
" transform="scale(0.015625)"/>
       </defs>
       <use xlink:href="#DejaVuSans-31" transform="translate(0 0.765625)"/>
       <use xlink:href="#DejaVuSans-30" transform="translate(63.623047 0.765625)"/>
       <use xlink:href="#DejaVuSans-32" transform="translate(128.203125 39.046875)scale(0.7)"/>
      </g>
     </g>
    </g>
    <g id="text_4">
     <!-- Epoch -->
     <g transform="translate(135.548311 136.064604)scale(0.16 -0.16)">
      <defs>
       <path id="DejaVuSans-45" d="M 628 4666 
L 3578 4666 
L 3578 4134 
L 1259 4134 
L 1259 2753 
L 3481 2753 
L 3481 2222 
L 1259 2222 
L 1259 531 
L 3634 531 
L 3634 0 
L 628 0 
L 628 4666 
z
" transform="scale(0.015625)"/>
       <path id="DejaVuSans-70" d="M 1159 525 
L 1159 -1331 
L 581 -1331 
L 581 3500 
L 1159 3500 
L 1159 2969 
Q 1341 3281 1617 3432 
Q 1894 3584 2278 3584 
Q 2916 3584 3314 3078 
Q 3713 2572 3713 1747 
Q 3713 922 3314 415 
Q 2916 -91 2278 -91 
Q 1894 -91 1617 61 
Q 1341 213 1159 525 
z
M 3116 1747 
Q 3116 2381 2855 2742 
Q 2594 3103 2138 3103 
Q 1681 3103 1420 2742 
Q 1159 2381 1159 1747 
Q 1159 1113 1420 752 
Q 1681 391 2138 391 
Q 2594 391 2855 752 
Q 3116 1113 3116 1747 
z
" transform="scale(0.015625)"/>
       <path id="DejaVuSans-6f" d="M 1959 3097 
Q 1497 3097 1228 2736 
Q 959 2375 959 1747 
Q 959 1119 1226 758 
Q 1494 397 1959 397 
Q 2419 397 2687 759 
Q 2956 1122 2956 1747 
Q 2956 2369 2687 2733 
Q 2419 3097 1959 3097 
z
M 1959 3584 
Q 2709 3584 3137 3096 
Q 3566 2609 3566 1747 
Q 3566 888 3137 398 
Q 2709 -91 1959 -91 
Q 1206 -91 779 398 
Q 353 888 353 1747 
Q 353 2609 779 3096 
Q 1206 3584 1959 3584 
z
" transform="scale(0.015625)"/>
       <path id="DejaVuSans-63" d="M 3122 3366 
L 3122 2828 
Q 2878 2963 2633 3030 
Q 2388 3097 2138 3097 
Q 1578 3097 1268 2742 
Q 959 2388 959 1747 
Q 959 1106 1268 751 
Q 1578 397 2138 397 
Q 2388 397 2633 464 
Q 2878 531 3122 666 
L 3122 134 
Q 2881 22 2623 -34 
Q 2366 -91 2075 -91 
Q 1284 -91 818 406 
Q 353 903 353 1747 
Q 353 2603 823 3093 
Q 1294 3584 2113 3584 
Q 2378 3584 2631 3529 
Q 2884 3475 3122 3366 
z
" transform="scale(0.015625)"/>
       <path id="DejaVuSans-68" d="M 3513 2113 
L 3513 0 
L 2938 0 
L 2938 2094 
Q 2938 2591 2744 2837 
Q 2550 3084 2163 3084 
Q 1697 3084 1428 2787 
Q 1159 2491 1159 1978 
L 1159 0 
L 581 0 
L 581 4863 
L 1159 4863 
L 1159 2956 
Q 1366 3272 1645 3428 
Q 1925 3584 2291 3584 
Q 2894 3584 3203 3211 
Q 3513 2838 3513 2113 
z
" transform="scale(0.015625)"/>
      </defs>
      <use xlink:href="#DejaVuSans-45"/>
      <use xlink:href="#DejaVuSans-70" x="63.183594"/>
      <use xlink:href="#DejaVuSans-6f" x="126.660156"/>
      <use xlink:href="#DejaVuSans-63" x="187.841797"/>
      <use xlink:href="#DejaVuSans-68" x="242.822266"/>
     </g>
    </g>
   </g>
   <g id="matplotlib.axis_2">
    <g id="ytick_1">
     <g id="line2d_10">
      <path d="M 42.917106 99.195088 
L 277.174517 99.195088 
" clip-path="url(#p2be774f5eb)" style="fill: none; stroke: #000000; stroke-opacity: 0.1; stroke-width: 0.5; stroke-linecap: square"/>
     </g>
     <g id="line2d_11">
      <defs>
       <path id="md0970986bb" d="M 0 0 
L 2.5 0 
" style="stroke: #000000; stroke-width: 0.5"/>
      </defs>
      <g>
       <use xlink:href="#md0970986bb" x="42.917106" y="99.195088" style="stroke: #000000; stroke-width: 0.5"/>
      </g>
     </g>
     <g id="line2d_12">
      <defs>
       <path id="m2a3459fbb1" d="M 0 0 
L -2.5 0 
" style="stroke: #000000; stroke-width: 0.5"/>
      </defs>
      <g>
       <use xlink:href="#m2a3459fbb1" x="277.174517" y="99.195088" style="stroke: #000000; stroke-width: 0.5"/>
      </g>
     </g>
     <g id="text_5">
      <!-- $\mathregular{10^{-4.2}}$ -->
      <g transform="translate(3.657106 103.754151)scale(0.12 -0.12)">
       <defs>
        <path id="DejaVuSans-2212" d="M 678 2272 
L 4684 2272 
L 4684 1741 
L 678 1741 
L 678 2272 
z
" transform="scale(0.015625)"/>
        <path id="DejaVuSans-34" d="M 2419 4116 
L 825 1625 
L 2419 1625 
L 2419 4116 
z
M 2253 4666 
L 3047 4666 
L 3047 1625 
L 3713 1625 
L 3713 1100 
L 3047 1100 
L 3047 0 
L 2419 0 
L 2419 1100 
L 313 1100 
L 313 1709 
L 2253 4666 
z
" transform="scale(0.015625)"/>
        <path id="DejaVuSans-2e" d="M 684 794 
L 1344 794 
L 1344 0 
L 684 0 
L 684 794 
z
" transform="scale(0.015625)"/>
       </defs>
       <use xlink:href="#DejaVuSans-31" transform="translate(0 0.765625)"/>
       <use xlink:href="#DejaVuSans-30" transform="translate(63.623047 0.765625)"/>
       <use xlink:href="#DejaVuSans-2212" transform="translate(128.203125 39.046875)scale(0.7)"/>
       <use xlink:href="#DejaVuSans-34" transform="translate(186.855469 39.046875)scale(0.7)"/>
       <use xlink:href="#DejaVuSans-2e" transform="translate(231.391602 39.046875)scale(0.7)"/>
       <use xlink:href="#DejaVuSans-32" transform="translate(249.792578 39.046875)scale(0.7)"/>
      </g>
     </g>
    </g>
    <g id="ytick_2">
     <g id="line2d_13">
      <path d="M 42.917106 83.932974 
L 277.174517 83.932974 
" clip-path="url(#p2be774f5eb)" style="fill: none; stroke: #000000; stroke-opacity: 0.1; stroke-width: 0.5; stroke-linecap: square"/>
     </g>
     <g id="line2d_14">
      <g>
       <use xlink:href="#md0970986bb" x="42.917106" y="83.932974" style="stroke: #000000; stroke-width: 0.5"/>
      </g>
     </g>
     <g id="line2d_15">
      <g>
       <use xlink:href="#m2a3459fbb1" x="277.174517" y="83.932974" style="stroke: #000000; stroke-width: 0.5"/>
      </g>
     </g>
     <g id="text_6">
      <!-- $\mathregular{10^{-4.1}}$ -->
      <g transform="translate(3.297106 88.492037)scale(0.12 -0.12)">
       <use xlink:href="#DejaVuSans-31" transform="translate(0 0.684375)"/>
       <use xlink:href="#DejaVuSans-30" transform="translate(63.623047 0.684375)"/>
       <use xlink:href="#DejaVuSans-2212" transform="translate(128.203125 38.965625)scale(0.7)"/>
       <use xlink:href="#DejaVuSans-34" transform="translate(186.855469 38.965625)scale(0.7)"/>
       <use xlink:href="#DejaVuSans-2e" transform="translate(231.391602 38.965625)scale(0.7)"/>
       <use xlink:href="#DejaVuSans-31" transform="translate(253.642578 38.965625)scale(0.7)"/>
      </g>
     </g>
    </g>
    <g id="ytick_3">
     <g id="line2d_16">
      <path d="M 42.917106 68.67086 
L 277.174517 68.67086 
" clip-path="url(#p2be774f5eb)" style="fill: none; stroke: #000000; stroke-opacity: 0.1; stroke-width: 0.5; stroke-linecap: square"/>
     </g>
     <g id="line2d_17">
      <g>
       <use xlink:href="#md0970986bb" x="42.917106" y="68.67086" style="stroke: #000000; stroke-width: 0.5"/>
      </g>
     </g>
     <g id="line2d_18">
      <g>
       <use xlink:href="#m2a3459fbb1" x="277.174517" y="68.67086" style="stroke: #000000; stroke-width: 0.5"/>
      </g>
     </g>
     <g id="text_7">
      <!-- $\mathregular{10^{-4.0}}$ -->
      <g transform="translate(3.297106 73.229922)scale(0.12 -0.12)">
       <use xlink:href="#DejaVuSans-31" transform="translate(0 0.765625)"/>
       <use xlink:href="#DejaVuSans-30" transform="translate(63.623047 0.765625)"/>
       <use xlink:href="#DejaVuSans-2212" transform="translate(128.203125 39.046875)scale(0.7)"/>
       <use xlink:href="#DejaVuSans-34" transform="translate(186.855469 39.046875)scale(0.7)"/>
       <use xlink:href="#DejaVuSans-2e" transform="translate(231.391602 39.046875)scale(0.7)"/>
       <use xlink:href="#DejaVuSans-30" transform="translate(253.642578 39.046875)scale(0.7)"/>
      </g>
     </g>
    </g>
    <g id="ytick_4">
     <g id="line2d_19">
      <path d="M 42.917106 53.408746 
L 277.174517 53.408746 
" clip-path="url(#p2be774f5eb)" style="fill: none; stroke: #000000; stroke-opacity: 0.1; stroke-width: 0.5; stroke-linecap: square"/>
     </g>
     <g id="line2d_20">
      <g>
       <use xlink:href="#md0970986bb" x="42.917106" y="53.408746" style="stroke: #000000; stroke-width: 0.5"/>
      </g>
     </g>
     <g id="line2d_21">
      <g>
       <use xlink:href="#m2a3459fbb1" x="277.174517" y="53.408746" style="stroke: #000000; stroke-width: 0.5"/>
      </g>
     </g>
     <g id="text_8">
      <!-- $\mathregular{10^{-3.9}}$ -->
      <g transform="translate(3.297106 57.967808)scale(0.12 -0.12)">
       <defs>
        <path id="DejaVuSans-33" d="M 2597 2516 
Q 3050 2419 3304 2112 
Q 3559 1806 3559 1356 
Q 3559 666 3084 287 
Q 2609 -91 1734 -91 
Q 1441 -91 1130 -33 
Q 819 25 488 141 
L 488 750 
Q 750 597 1062 519 
Q 1375 441 1716 441 
Q 2309 441 2620 675 
Q 2931 909 2931 1356 
Q 2931 1769 2642 2001 
Q 2353 2234 1838 2234 
L 1294 2234 
L 1294 2753 
L 1863 2753 
Q 2328 2753 2575 2939 
Q 2822 3125 2822 3475 
Q 2822 3834 2567 4026 
Q 2313 4219 1838 4219 
Q 1578 4219 1281 4162 
Q 984 4106 628 3988 
L 628 4550 
Q 988 4650 1302 4700 
Q 1616 4750 1894 4750 
Q 2613 4750 3031 4423 
Q 3450 4097 3450 3541 
Q 3450 3153 3228 2886 
Q 3006 2619 2597 2516 
z
" transform="scale(0.015625)"/>
        <path id="DejaVuSans-39" d="M 703 97 
L 703 672 
Q 941 559 1184 500 
Q 1428 441 1663 441 
Q 2288 441 2617 861 
Q 2947 1281 2994 2138 
Q 2813 1869 2534 1725 
Q 2256 1581 1919 1581 
Q 1219 1581 811 2004 
Q 403 2428 403 3163 
Q 403 3881 828 4315 
Q 1253 4750 1959 4750 
Q 2769 4750 3195 4129 
Q 3622 3509 3622 2328 
Q 3622 1225 3098 567 
Q 2575 -91 1691 -91 
Q 1453 -91 1209 -44 
Q 966 3 703 97 
z
M 1959 2075 
Q 2384 2075 2632 2365 
Q 2881 2656 2881 3163 
Q 2881 3666 2632 3958 
Q 2384 4250 1959 4250 
Q 1534 4250 1286 3958 
Q 1038 3666 1038 3163 
Q 1038 2656 1286 2365 
Q 1534 2075 1959 2075 
z
" transform="scale(0.015625)"/>
       </defs>
       <use xlink:href="#DejaVuSans-31" transform="translate(0 0.765625)"/>
       <use xlink:href="#DejaVuSans-30" transform="translate(63.623047 0.765625)"/>
       <use xlink:href="#DejaVuSans-2212" transform="translate(128.203125 39.046875)scale(0.7)"/>
       <use xlink:href="#DejaVuSans-33" transform="translate(186.855469 39.046875)scale(0.7)"/>
       <use xlink:href="#DejaVuSans-2e" transform="translate(231.391602 39.046875)scale(0.7)"/>
       <use xlink:href="#DejaVuSans-39" transform="translate(253.642578 39.046875)scale(0.7)"/>
      </g>
     </g>
    </g>
    <g id="ytick_5">
     <g id="line2d_22">
      <path d="M 42.917106 38.146631 
L 277.174517 38.146631 
" clip-path="url(#p2be774f5eb)" style="fill: none; stroke: #000000; stroke-opacity: 0.1; stroke-width: 0.5; stroke-linecap: square"/>
     </g>
     <g id="line2d_23">
      <g>
       <use xlink:href="#md0970986bb" x="42.917106" y="38.146631" style="stroke: #000000; stroke-width: 0.5"/>
      </g>
     </g>
     <g id="line2d_24">
      <g>
       <use xlink:href="#m2a3459fbb1" x="277.174517" y="38.146631" style="stroke: #000000; stroke-width: 0.5"/>
      </g>
     </g>
     <g id="text_9">
      <!-- $\mathregular{10^{-3.8}}$ -->
      <g transform="translate(3.417106 42.705694)scale(0.12 -0.12)">
       <defs>
        <path id="DejaVuSans-38" d="M 2034 2216 
Q 1584 2216 1326 1975 
Q 1069 1734 1069 1313 
Q 1069 891 1326 650 
Q 1584 409 2034 409 
Q 2484 409 2743 651 
Q 3003 894 3003 1313 
Q 3003 1734 2745 1975 
Q 2488 2216 2034 2216 
z
M 1403 2484 
Q 997 2584 770 2862 
Q 544 3141 544 3541 
Q 544 4100 942 4425 
Q 1341 4750 2034 4750 
Q 2731 4750 3128 4425 
Q 3525 4100 3525 3541 
Q 3525 3141 3298 2862 
Q 3072 2584 2669 2484 
Q 3125 2378 3379 2068 
Q 3634 1759 3634 1313 
Q 3634 634 3220 271 
Q 2806 -91 2034 -91 
Q 1263 -91 848 271 
Q 434 634 434 1313 
Q 434 1759 690 2068 
Q 947 2378 1403 2484 
z
M 1172 3481 
Q 1172 3119 1398 2916 
Q 1625 2713 2034 2713 
Q 2441 2713 2670 2916 
Q 2900 3119 2900 3481 
Q 2900 3844 2670 4047 
Q 2441 4250 2034 4250 
Q 1625 4250 1398 4047 
Q 1172 3844 1172 3481 
z
" transform="scale(0.015625)"/>
       </defs>
       <use xlink:href="#DejaVuSans-31" transform="translate(0 0.765625)"/>
       <use xlink:href="#DejaVuSans-30" transform="translate(63.623047 0.765625)"/>
       <use xlink:href="#DejaVuSans-2212" transform="translate(128.203125 39.046875)scale(0.7)"/>
       <use xlink:href="#DejaVuSans-33" transform="translate(186.855469 39.046875)scale(0.7)"/>
       <use xlink:href="#DejaVuSans-2e" transform="translate(231.391602 39.046875)scale(0.7)"/>
       <use xlink:href="#DejaVuSans-38" transform="translate(251.805078 39.046875)scale(0.7)"/>
      </g>
     </g>
    </g>
    <g id="ytick_6">
     <g id="line2d_25">
      <path d="M 42.917106 22.884517 
L 277.174517 22.884517 
" clip-path="url(#p2be774f5eb)" style="fill: none; stroke: #000000; stroke-opacity: 0.1; stroke-width: 0.5; stroke-linecap: square"/>
     </g>
     <g id="line2d_26">
      <g>
       <use xlink:href="#md0970986bb" x="42.917106" y="22.884517" style="stroke: #000000; stroke-width: 0.5"/>
      </g>
     </g>
     <g id="line2d_27">
      <g>
       <use xlink:href="#m2a3459fbb1" x="277.174517" y="22.884517" style="stroke: #000000; stroke-width: 0.5"/>
      </g>
     </g>
     <g id="text_10">
      <!-- $\mathregular{10^{-3.7}}$ -->
      <g transform="translate(3.897106 27.44358)scale(0.12 -0.12)">
       <defs>
        <path id="DejaVuSans-37" d="M 525 4666 
L 3525 4666 
L 3525 4397 
L 1831 0 
L 1172 0 
L 2766 4134 
L 525 4134 
L 525 4666 
z
" transform="scale(0.015625)"/>
       </defs>
       <use xlink:href="#DejaVuSans-31" transform="translate(0 0.765625)"/>
       <use xlink:href="#DejaVuSans-30" transform="translate(63.623047 0.765625)"/>
       <use xlink:href="#DejaVuSans-2212" transform="translate(128.203125 39.046875)scale(0.7)"/>
       <use xlink:href="#DejaVuSans-33" transform="translate(186.855469 39.046875)scale(0.7)"/>
       <use xlink:href="#DejaVuSans-2e" transform="translate(231.391602 39.046875)scale(0.7)"/>
       <use xlink:href="#DejaVuSans-37" transform="translate(248.217578 39.046875)scale(0.7)"/>
      </g>
     </g>
    </g>
    <g id="ytick_7">
     <g id="line2d_28">
      <path d="M 42.917106 7.622403 
L 277.174517 7.622403 
" clip-path="url(#p2be774f5eb)" style="fill: none; stroke: #000000; stroke-opacity: 0.1; stroke-width: 0.5; stroke-linecap: square"/>
     </g>
     <g id="line2d_29">
      <g>
       <use xlink:href="#md0970986bb" x="42.917106" y="7.622403" style="stroke: #000000; stroke-width: 0.5"/>
      </g>
     </g>
     <g id="line2d_30">
      <g>
       <use xlink:href="#m2a3459fbb1" x="277.174517" y="7.622403" style="stroke: #000000; stroke-width: 0.5"/>
      </g>
     </g>
     <g id="text_11">
      <!-- $\mathregular{10^{-3.6}}$ -->
      <g transform="translate(3.297106 12.181465)scale(0.12 -0.12)">
       <defs>
        <path id="DejaVuSans-36" d="M 2113 2584 
Q 1688 2584 1439 2293 
Q 1191 2003 1191 1497 
Q 1191 994 1439 701 
Q 1688 409 2113 409 
Q 2538 409 2786 701 
Q 3034 994 3034 1497 
Q 3034 2003 2786 2293 
Q 2538 2584 2113 2584 
z
M 3366 4563 
L 3366 3988 
Q 3128 4100 2886 4159 
Q 2644 4219 2406 4219 
Q 1781 4219 1451 3797 
Q 1122 3375 1075 2522 
Q 1259 2794 1537 2939 
Q 1816 3084 2150 3084 
Q 2853 3084 3261 2657 
Q 3669 2231 3669 1497 
Q 3669 778 3244 343 
Q 2819 -91 2113 -91 
Q 1303 -91 875 529 
Q 447 1150 447 2328 
Q 447 3434 972 4092 
Q 1497 4750 2381 4750 
Q 2619 4750 2861 4703 
Q 3103 4656 3366 4563 
z
" transform="scale(0.015625)"/>
       </defs>
       <use xlink:href="#DejaVuSans-31" transform="translate(0 0.765625)"/>
       <use xlink:href="#DejaVuSans-30" transform="translate(63.623047 0.765625)"/>
       <use xlink:href="#DejaVuSans-2212" transform="translate(128.203125 39.046875)scale(0.7)"/>
       <use xlink:href="#DejaVuSans-33" transform="translate(186.855469 39.046875)scale(0.7)"/>
       <use xlink:href="#DejaVuSans-2e" transform="translate(231.391602 39.046875)scale(0.7)"/>
       <use xlink:href="#DejaVuSans-36" transform="translate(253.642578 39.046875)scale(0.7)"/>
      </g>
     </g>
    </g>
   </g>
   <g id="line2d_31">
    <path d="M 49.547032 96.605109 
L 82.738762 38.311065 
L 102.15468 8.187671 
L 115.930492 66.108207 
L 126.615843 75.945371 
L 135.34641 75.013376 
L 142.727999 55.740543 
L 149.122222 65.189637 
L 154.762327 96.695307 
L 159.807573 71.141215 
L 164.371552 95.223698 
L 168.53814 100.251864 
L 172.371028 100.171619 
L 175.919729 100.968557 
L 179.22349 101.388525 
L 182.313952 101.403829 
L 185.216995 100.810767 
L 187.954057 101.473998 
L 190.543095 98.209656 
L 192.999303 100.841078 
L 195.335646 101.839657 
L 197.563282 100.615062 
L 199.691879 101.328446 
L 201.72987 101.365647 
L 203.684653 100.088524 
L 205.562758 100.693879 
L 207.369974 101.00408 
L 209.111459 100.962589 
L 210.791826 101.45824 
L 212.41522 101.843433 
L 213.985378 101.524672 
L 215.505682 101.481771 
L 216.9792 100.989508 
L 218.408725 100.877261 
L 219.796809 101.979597 
L 221.145787 101.300842 
L 222.457802 101.321172 
L 223.734825 101.893102 
L 224.978676 101.898921 
L 226.191033 101.259708 
L 227.373452 101.666386 
L 228.527376 100.817247 
L 229.654147 101.410354 
L 230.755012 101.971915 
L 231.831137 101.595802 
L 232.883609 101.894047 
L 233.913446 100.552002 
L 234.9216 100.732252 
L 235.908965 101.035897 
L 236.876383 99.407698 
L 237.824643 101.351565 
L 238.754488 101.641512 
L 239.666621 99.965873 
L 240.561704 101.21627 
L 241.440363 101.436964 
L 242.303189 101.747788 
L 243.150743 101.905221 
L 243.983556 101.011272 
L 244.802132 101.125668 
L 245.60695 98.958664 
L 246.398465 101.387614 
L 247.177108 101.900171 
L 247.943294 101.245487 
L 248.697412 101.748995 
L 249.439839 101.154893 
L 250.17093 101.608992 
L 250.891027 100.747744 
L 251.600455 101.721794 
L 252.299527 101.632399 
L 252.988539 100.67806 
L 253.667778 101.830901 
L 254.337517 101.46914 
L 254.998018 100.821444 
L 255.649532 101.580302 
L 256.2923 101.051724 
L 256.926555 100.172534 
L 257.552519 99.173167 
L 258.170406 98.020451 
L 258.780421 97.140055 
L 259.382763 101.036725 
L 259.977622 100.485495 
L 260.565182 101.560573 
L 261.14562 99.788665 
L 261.719106 101.695644 
L 262.285806 97.9521 
L 262.845877 100.052273 
L 263.399473 101.458192 
L 263.946742 101.907495 
L 264.487828 101.615643 
L 265.022867 101.613691 
L 265.551995 100.994169 
L 266.075339 101.956939 
L 266.593026 101.836202 
L 267.105176 101.702694 
L 267.611906 101.139335 
L 268.11333 101.697148 
L 268.609557 99.563814 
L 269.100695 100.061422 
L 269.586847 101.399643 
L 270.068113 101.922849 
L 270.54459 101.922487 
" clip-path="url(#p2be774f5eb)" style="fill: none; stroke: #009afa"/>
   </g>
   <g id="line2d_32">
    <path d="M 49.547032 57.431687 
L 82.738762 44.042297 
L 102.15468 42.496354 
L 115.930492 74.147836 
L 126.615843 78.870335 
L 135.34641 50.089149 
L 142.727999 77.569434 
L 149.122222 74.700739 
L 154.762327 77.293786 
L 159.807573 79.289295 
L 164.371552 56.700879 
L 168.53814 76.862595 
L 172.371028 75.454185 
L 175.919729 74.468864 
L 179.22349 75.263569 
L 182.313952 77.743262 
L 185.216995 73.311093 
L 187.954057 69.304031 
L 190.543095 62.518592 
L 192.999303 77.782184 
L 195.335646 76.355048 
L 197.563282 73.47265 
L 199.691879 77.543126 
L 201.72987 74.774545 
L 203.684653 78.199654 
L 205.562758 78.639819 
L 207.369974 79.145356 
L 209.111459 77.807953 
L 210.791826 73.093342 
L 212.41522 73.130353 
L 213.985378 77.528376 
L 215.505682 74.806749 
L 216.9792 76.120289 
L 218.408725 77.609883 
L 219.796809 73.31504 
L 221.145787 73.197052 
L 222.457802 74.125062 
L 223.734825 75.009252 
L 224.978676 75.044113 
L 226.191033 67.821508 
L 227.373452 69.219451 
L 228.527376 70.636621 
L 229.654147 71.596791 
L 230.755012 72.727407 
L 231.831137 73.41941 
L 232.883609 75.042892 
L 233.913446 75.992384 
L 234.9216 76.556674 
L 235.908965 70.380994 
L 236.876383 65.105773 
L 237.824643 76.65019 
L 238.754488 70.753958 
L 239.666621 77.32957 
L 240.561704 78.509354 
L 241.440363 71.942401 
L 242.303189 72.287052 
L 243.150743 73.82459 
L 243.983556 73.804908 
L 244.802132 64.968122 
L 245.60695 63.89304 
L 246.398465 73.4609 
L 247.177108 70.949617 
L 247.943294 73.748937 
L 248.697412 74.030131 
L 249.439839 68.772943 
L 250.17093 74.889242 
L 250.891027 71.269747 
L 251.600455 69.968265 
L 252.299527 71.177236 
L 252.988539 73.305304 
L 253.667778 73.745474 
L 254.337517 69.135015 
L 254.998018 75.114581 
L 255.649532 71.080876 
L 256.2923 74.745578 
L 256.926555 75.20417 
L 257.552519 67.698449 
L 258.170406 63.476888 
L 258.780421 78.009834 
L 259.382763 65.950816 
L 259.977622 66.612358 
L 260.565182 74.844192 
L 261.14562 77.031247 
L 261.719106 68.958526 
L 262.285806 67.851784 
L 262.845877 67.071495 
L 263.399473 74.0217 
L 263.946742 74.622412 
L 264.487828 73.865269 
L 265.022867 73.155645 
L 265.551995 68.052181 
L 266.075339 73.88774 
L 266.593026 72.141353 
L 267.105176 74.689734 
L 267.611906 75.535635 
L 268.11333 70.401262 
L 268.609557 67.212576 
L 269.100695 64.74089 
L 269.586847 67.739588 
L 270.068113 73.876971 
L 270.54459 71.214226 
" clip-path="url(#p2be774f5eb)" style="fill: none; stroke: #e36f47"/>
   </g>
   <g id="patch_3">
    <path d="M 42.917106 104.793354 
L 42.917106 5.373913 
" style="fill: none; stroke: #000000; stroke-linejoin: miter; stroke-linecap: square"/>
   </g>
   <g id="patch_4">
    <path d="M 277.174517 104.793354 
L 277.174517 5.373913 
" style="fill: none; stroke: #000000; stroke-linejoin: miter; stroke-linecap: square"/>
   </g>
   <g id="patch_5">
    <path d="M 42.917106 104.793354 
L 277.174517 104.793354 
" style="fill: none; stroke: #000000; stroke-linejoin: miter; stroke-linecap: square"/>
   </g>
   <g id="patch_6">
    <path d="M 42.917106 5.373913 
L 277.174517 5.373913 
" style="fill: none; stroke: #000000; stroke-linejoin: miter; stroke-linecap: square"/>
   </g>
   <g id="legend_1">
    <g id="patch_7">
     <path d="M 151.723892 59.801413 
L 271.174517 59.801413 
L 271.174517 11.373913 
L 151.723892 11.373913 
z
" style="fill: #ffffff; stroke: #000000; stroke-linejoin: miter"/>
    </g>
    <g id="line2d_33">
     <path d="M 161.323892 25.892038 
L 173.323892 25.892038 
L 185.323892 25.892038 
" style="fill: none; stroke: #009afa; stroke-width: 1.5; stroke-linejoin: miter"/>
    </g>
    <g id="text_12">
     <!-- y loss train -->
     <g transform="translate(194.923892 30.092038)scale(0.12 -0.12)">
      <defs>
       <path id="DejaVuSans-79" d="M 2059 -325 
Q 1816 -950 1584 -1140 
Q 1353 -1331 966 -1331 
L 506 -1331 
L 506 -850 
L 844 -850 
Q 1081 -850 1212 -737 
Q 1344 -625 1503 -206 
L 1606 56 
L 191 3500 
L 800 3500 
L 1894 763 
L 2988 3500 
L 3597 3500 
L 2059 -325 
z
" transform="scale(0.015625)"/>
       <path id="DejaVuSans-20" transform="scale(0.015625)"/>
       <path id="DejaVuSans-6c" d="M 603 4863 
L 1178 4863 
L 1178 0 
L 603 0 
L 603 4863 
z
" transform="scale(0.015625)"/>
       <path id="DejaVuSans-73" d="M 2834 3397 
L 2834 2853 
Q 2591 2978 2328 3040 
Q 2066 3103 1784 3103 
Q 1356 3103 1142 2972 
Q 928 2841 928 2578 
Q 928 2378 1081 2264 
Q 1234 2150 1697 2047 
L 1894 2003 
Q 2506 1872 2764 1633 
Q 3022 1394 3022 966 
Q 3022 478 2636 193 
Q 2250 -91 1575 -91 
Q 1294 -91 989 -36 
Q 684 19 347 128 
L 347 722 
Q 666 556 975 473 
Q 1284 391 1588 391 
Q 1994 391 2212 530 
Q 2431 669 2431 922 
Q 2431 1156 2273 1281 
Q 2116 1406 1581 1522 
L 1381 1569 
Q 847 1681 609 1914 
Q 372 2147 372 2553 
Q 372 3047 722 3315 
Q 1072 3584 1716 3584 
Q 2034 3584 2315 3537 
Q 2597 3491 2834 3397 
z
" transform="scale(0.015625)"/>
       <path id="DejaVuSans-74" d="M 1172 4494 
L 1172 3500 
L 2356 3500 
L 2356 3053 
L 1172 3053 
L 1172 1153 
Q 1172 725 1289 603 
Q 1406 481 1766 481 
L 2356 481 
L 2356 0 
L 1766 0 
Q 1100 0 847 248 
Q 594 497 594 1153 
L 594 3053 
L 172 3053 
L 172 3500 
L 594 3500 
L 594 4494 
L 1172 4494 
z
" transform="scale(0.015625)"/>
       <path id="DejaVuSans-72" d="M 2631 2963 
Q 2534 3019 2420 3045 
Q 2306 3072 2169 3072 
Q 1681 3072 1420 2755 
Q 1159 2438 1159 1844 
L 1159 0 
L 581 0 
L 581 3500 
L 1159 3500 
L 1159 2956 
Q 1341 3275 1631 3429 
Q 1922 3584 2338 3584 
Q 2397 3584 2469 3576 
Q 2541 3569 2628 3553 
L 2631 2963 
z
" transform="scale(0.015625)"/>
       <path id="DejaVuSans-61" d="M 2194 1759 
Q 1497 1759 1228 1600 
Q 959 1441 959 1056 
Q 959 750 1161 570 
Q 1363 391 1709 391 
Q 2188 391 2477 730 
Q 2766 1069 2766 1631 
L 2766 1759 
L 2194 1759 
z
M 3341 1997 
L 3341 0 
L 2766 0 
L 2766 531 
Q 2569 213 2275 61 
Q 1981 -91 1556 -91 
Q 1019 -91 701 211 
Q 384 513 384 1019 
Q 384 1609 779 1909 
Q 1175 2209 1959 2209 
L 2766 2209 
L 2766 2266 
Q 2766 2663 2505 2880 
Q 2244 3097 1772 3097 
Q 1472 3097 1187 3025 
Q 903 2953 641 2809 
L 641 3341 
Q 956 3463 1253 3523 
Q 1550 3584 1831 3584 
Q 2591 3584 2966 3190 
Q 3341 2797 3341 1997 
z
" transform="scale(0.015625)"/>
       <path id="DejaVuSans-69" d="M 603 3500 
L 1178 3500 
L 1178 0 
L 603 0 
L 603 3500 
z
M 603 4863 
L 1178 4863 
L 1178 4134 
L 603 4134 
L 603 4863 
z
" transform="scale(0.015625)"/>
       <path id="DejaVuSans-6e" d="M 3513 2113 
L 3513 0 
L 2938 0 
L 2938 2094 
Q 2938 2591 2744 2837 
Q 2550 3084 2163 3084 
Q 1697 3084 1428 2787 
Q 1159 2491 1159 1978 
L 1159 0 
L 581 0 
L 581 3500 
L 1159 3500 
L 1159 2956 
Q 1366 3272 1645 3428 
Q 1925 3584 2291 3584 
Q 2894 3584 3203 3211 
Q 3513 2838 3513 2113 
z
" transform="scale(0.015625)"/>
      </defs>
      <use xlink:href="#DejaVuSans-79"/>
      <use xlink:href="#DejaVuSans-20" x="59.179688"/>
      <use xlink:href="#DejaVuSans-6c" x="90.966797"/>
      <use xlink:href="#DejaVuSans-6f" x="118.75"/>
      <use xlink:href="#DejaVuSans-73" x="179.931641"/>
      <use xlink:href="#DejaVuSans-73" x="232.03125"/>
      <use xlink:href="#DejaVuSans-20" x="284.130859"/>
      <use xlink:href="#DejaVuSans-74" x="315.917969"/>
      <use xlink:href="#DejaVuSans-72" x="355.126953"/>
      <use xlink:href="#DejaVuSans-61" x="396.240234"/>
      <use xlink:href="#DejaVuSans-69" x="457.519531"/>
      <use xlink:href="#DejaVuSans-6e" x="485.302734"/>
     </g>
    </g>
    <g id="line2d_34">
     <path d="M 161.323892 43.505788 
L 173.323892 43.505788 
L 185.323892 43.505788 
" style="fill: none; stroke: #e36f47; stroke-width: 1.5; stroke-linejoin: miter"/>
    </g>
    <g id="text_13">
     <!-- y loss valid -->
     <g transform="translate(194.923892 47.705788)scale(0.12 -0.12)">
      <defs>
       <path id="DejaVuSans-76" d="M 191 3500 
L 800 3500 
L 1894 563 
L 2988 3500 
L 3597 3500 
L 2284 0 
L 1503 0 
L 191 3500 
z
" transform="scale(0.015625)"/>
       <path id="DejaVuSans-64" d="M 2906 2969 
L 2906 4863 
L 3481 4863 
L 3481 0 
L 2906 0 
L 2906 525 
Q 2725 213 2448 61 
Q 2172 -91 1784 -91 
Q 1150 -91 751 415 
Q 353 922 353 1747 
Q 353 2572 751 3078 
Q 1150 3584 1784 3584 
Q 2172 3584 2448 3432 
Q 2725 3281 2906 2969 
z
M 947 1747 
Q 947 1113 1208 752 
Q 1469 391 1925 391 
Q 2381 391 2643 752 
Q 2906 1113 2906 1747 
Q 2906 2381 2643 2742 
Q 2381 3103 1925 3103 
Q 1469 3103 1208 2742 
Q 947 2381 947 1747 
z
" transform="scale(0.015625)"/>
      </defs>
      <use xlink:href="#DejaVuSans-79"/>
      <use xlink:href="#DejaVuSans-20" x="59.179688"/>
      <use xlink:href="#DejaVuSans-6c" x="90.966797"/>
      <use xlink:href="#DejaVuSans-6f" x="118.75"/>
      <use xlink:href="#DejaVuSans-73" x="179.931641"/>
      <use xlink:href="#DejaVuSans-73" x="232.03125"/>
      <use xlink:href="#DejaVuSans-20" x="284.130859"/>
      <use xlink:href="#DejaVuSans-76" x="315.917969"/>
      <use xlink:href="#DejaVuSans-61" x="375.097656"/>
      <use xlink:href="#DejaVuSans-6c" x="436.376953"/>
      <use xlink:href="#DejaVuSans-69" x="464.160156"/>
      <use xlink:href="#DejaVuSans-64" x="491.943359"/>
     </g>
    </g>
   </g>
  </g>
  <g id="axes_2">
   <g id="patch_8">
    <path d="M 338.907943 104.793354 
L 573.165354 104.793354 
L 573.165354 5.373913 
L 338.907943 5.373913 
z
" style="fill: #ffffff"/>
   </g>
   <g id="matplotlib.axis_3">
    <g id="xtick_4">
     <g id="line2d_35">
      <path d="M 345.53787 104.793354 
L 345.53787 5.373913 
" clip-path="url(#p138d9cef34)" style="fill: none; stroke: #000000; stroke-opacity: 0.1; stroke-width: 0.5; stroke-linecap: square"/>
     </g>
     <g id="line2d_36">
      <g>
       <use xlink:href="#m7340d63a2e" x="345.53787" y="104.793354" style="stroke: #000000; stroke-width: 0.5"/>
      </g>
     </g>
     <g id="line2d_37">
      <g>
       <use xlink:href="#m2d583d505d" x="345.53787" y="5.373913" style="stroke: #000000; stroke-width: 0.5"/>
      </g>
     </g>
     <g id="text_14">
      <!-- $\mathregular{10^{0}}$ -->
      <g transform="translate(334.97787 117.411479)scale(0.12 -0.12)">
       <use xlink:href="#DejaVuSans-31" transform="translate(0 0.765625)"/>
       <use xlink:href="#DejaVuSans-30" transform="translate(63.623047 0.765625)"/>
       <use xlink:href="#DejaVuSans-30" transform="translate(128.203125 39.046875)scale(0.7)"/>
      </g>
     </g>
    </g>
    <g id="xtick_5">
     <g id="line2d_38">
      <path d="M 455.79841 104.793354 
L 455.79841 5.373913 
" clip-path="url(#p138d9cef34)" style="fill: none; stroke: #000000; stroke-opacity: 0.1; stroke-width: 0.5; stroke-linecap: square"/>
     </g>
     <g id="line2d_39">
      <g>
       <use xlink:href="#m7340d63a2e" x="455.79841" y="104.793354" style="stroke: #000000; stroke-width: 0.5"/>
      </g>
     </g>
     <g id="line2d_40">
      <g>
       <use xlink:href="#m2d583d505d" x="455.79841" y="5.373913" style="stroke: #000000; stroke-width: 0.5"/>
      </g>
     </g>
     <g id="text_15">
      <!-- $\mathregular{10^{1}}$ -->
      <g transform="translate(445.23841 117.411479)scale(0.12 -0.12)">
       <use xlink:href="#DejaVuSans-31" transform="translate(0 0.684375)"/>
       <use xlink:href="#DejaVuSans-30" transform="translate(63.623047 0.684375)"/>
       <use xlink:href="#DejaVuSans-31" transform="translate(128.203125 38.965625)scale(0.7)"/>
      </g>
     </g>
    </g>
    <g id="xtick_6">
     <g id="line2d_41">
      <path d="M 566.058951 104.793354 
L 566.058951 5.373913 
" clip-path="url(#p138d9cef34)" style="fill: none; stroke: #000000; stroke-opacity: 0.1; stroke-width: 0.5; stroke-linecap: square"/>
     </g>
     <g id="line2d_42">
      <g>
       <use xlink:href="#m7340d63a2e" x="566.058951" y="104.793354" style="stroke: #000000; stroke-width: 0.5"/>
      </g>
     </g>
     <g id="line2d_43">
      <g>
       <use xlink:href="#m2d583d505d" x="566.058951" y="5.373913" style="stroke: #000000; stroke-width: 0.5"/>
      </g>
     </g>
     <g id="text_16">
      <!-- $\mathregular{10^{2}}$ -->
      <g transform="translate(555.498951 117.411479)scale(0.12 -0.12)">
       <use xlink:href="#DejaVuSans-31" transform="translate(0 0.765625)"/>
       <use xlink:href="#DejaVuSans-30" transform="translate(63.623047 0.765625)"/>
       <use xlink:href="#DejaVuSans-32" transform="translate(128.203125 39.046875)scale(0.7)"/>
      </g>
     </g>
    </g>
    <g id="text_17">
     <!-- Epoch -->
     <g transform="translate(431.539149 136.064604)scale(0.16 -0.16)">
      <use xlink:href="#DejaVuSans-45"/>
      <use xlink:href="#DejaVuSans-70" x="63.183594"/>
      <use xlink:href="#DejaVuSans-6f" x="126.660156"/>
      <use xlink:href="#DejaVuSans-63" x="187.841797"/>
      <use xlink:href="#DejaVuSans-68" x="242.822266"/>
     </g>
    </g>
   </g>
   <g id="matplotlib.axis_4">
    <g id="ytick_8">
     <g id="line2d_44">
      <path d="M 338.907943 91.599949 
L 573.165354 91.599949 
" clip-path="url(#p138d9cef34)" style="fill: none; stroke: #000000; stroke-opacity: 0.1; stroke-width: 0.5; stroke-linecap: square"/>
     </g>
     <g id="line2d_45">
      <g>
       <use xlink:href="#md0970986bb" x="338.907943" y="91.599949" style="stroke: #000000; stroke-width: 0.5"/>
      </g>
     </g>
     <g id="line2d_46">
      <g>
       <use xlink:href="#m2a3459fbb1" x="573.165354" y="91.599949" style="stroke: #000000; stroke-width: 0.5"/>
      </g>
     </g>
     <g id="text_18">
      <!-- $\mathregular{10^{-0.3170}}$ -->
      <g transform="translate(283.207943 96.159011)scale(0.12 -0.12)">
       <use xlink:href="#DejaVuSans-31" transform="translate(0 0.765625)"/>
       <use xlink:href="#DejaVuSans-30" transform="translate(63.623047 0.765625)"/>
       <use xlink:href="#DejaVuSans-2212" transform="translate(128.203125 39.046875)scale(0.7)"/>
       <use xlink:href="#DejaVuSans-30" transform="translate(186.855469 39.046875)scale(0.7)"/>
       <use xlink:href="#DejaVuSans-2e" transform="translate(231.391602 39.046875)scale(0.7)"/>
       <use xlink:href="#DejaVuSans-33" transform="translate(253.642578 39.046875)scale(0.7)"/>
       <use xlink:href="#DejaVuSans-31" transform="translate(298.178711 39.046875)scale(0.7)"/>
       <use xlink:href="#DejaVuSans-37" transform="translate(342.714844 39.046875)scale(0.7)"/>
       <use xlink:href="#DejaVuSans-30" transform="translate(387.250977 39.046875)scale(0.7)"/>
      </g>
     </g>
    </g>
    <g id="ytick_9">
     <g id="line2d_47">
      <path d="M 338.907943 76.128519 
L 573.165354 76.128519 
" clip-path="url(#p138d9cef34)" style="fill: none; stroke: #000000; stroke-opacity: 0.1; stroke-width: 0.5; stroke-linecap: square"/>
     </g>
     <g id="line2d_48">
      <g>
       <use xlink:href="#md0970986bb" x="338.907943" y="76.128519" style="stroke: #000000; stroke-width: 0.5"/>
      </g>
     </g>
     <g id="line2d_49">
      <g>
       <use xlink:href="#m2a3459fbb1" x="573.165354" y="76.128519" style="stroke: #000000; stroke-width: 0.5"/>
      </g>
     </g>
     <g id="text_19">
      <!-- $\mathregular{10^{-0.3165}}$ -->
      <g transform="translate(283.207943 80.687582)scale(0.12 -0.12)">
       <defs>
        <path id="DejaVuSans-35" d="M 691 4666 
L 3169 4666 
L 3169 4134 
L 1269 4134 
L 1269 2991 
Q 1406 3038 1543 3061 
Q 1681 3084 1819 3084 
Q 2600 3084 3056 2656 
Q 3513 2228 3513 1497 
Q 3513 744 3044 326 
Q 2575 -91 1722 -91 
Q 1428 -91 1123 -41 
Q 819 9 494 109 
L 494 744 
Q 775 591 1075 516 
Q 1375 441 1709 441 
Q 2250 441 2565 725 
Q 2881 1009 2881 1497 
Q 2881 1984 2565 2268 
Q 2250 2553 1709 2553 
Q 1456 2553 1204 2497 
Q 953 2441 691 2322 
L 691 4666 
z
" transform="scale(0.015625)"/>
       </defs>
       <use xlink:href="#DejaVuSans-31" transform="translate(0 0.765625)"/>
       <use xlink:href="#DejaVuSans-30" transform="translate(63.623047 0.765625)"/>
       <use xlink:href="#DejaVuSans-2212" transform="translate(128.203125 39.046875)scale(0.7)"/>
       <use xlink:href="#DejaVuSans-30" transform="translate(186.855469 39.046875)scale(0.7)"/>
       <use xlink:href="#DejaVuSans-2e" transform="translate(231.391602 39.046875)scale(0.7)"/>
       <use xlink:href="#DejaVuSans-33" transform="translate(253.642578 39.046875)scale(0.7)"/>
       <use xlink:href="#DejaVuSans-31" transform="translate(298.178711 39.046875)scale(0.7)"/>
       <use xlink:href="#DejaVuSans-36" transform="translate(342.714844 39.046875)scale(0.7)"/>
       <use xlink:href="#DejaVuSans-35" transform="translate(387.250977 39.046875)scale(0.7)"/>
      </g>
     </g>
    </g>
    <g id="ytick_10">
     <g id="line2d_50">
      <path d="M 338.907943 60.65709 
L 573.165354 60.65709 
" clip-path="url(#p138d9cef34)" style="fill: none; stroke: #000000; stroke-opacity: 0.1; stroke-width: 0.5; stroke-linecap: square"/>
     </g>
     <g id="line2d_51">
      <g>
       <use xlink:href="#md0970986bb" x="338.907943" y="60.65709" style="stroke: #000000; stroke-width: 0.5"/>
      </g>
     </g>
     <g id="line2d_52">
      <g>
       <use xlink:href="#m2a3459fbb1" x="573.165354" y="60.65709" style="stroke: #000000; stroke-width: 0.5"/>
      </g>
     </g>
     <g id="text_20">
      <!-- $\mathregular{10^{-0.3160}}$ -->
      <g transform="translate(283.207943 65.216153)scale(0.12 -0.12)">
       <use xlink:href="#DejaVuSans-31" transform="translate(0 0.765625)"/>
       <use xlink:href="#DejaVuSans-30" transform="translate(63.623047 0.765625)"/>
       <use xlink:href="#DejaVuSans-2212" transform="translate(128.203125 39.046875)scale(0.7)"/>
       <use xlink:href="#DejaVuSans-30" transform="translate(186.855469 39.046875)scale(0.7)"/>
       <use xlink:href="#DejaVuSans-2e" transform="translate(231.391602 39.046875)scale(0.7)"/>
       <use xlink:href="#DejaVuSans-33" transform="translate(253.642578 39.046875)scale(0.7)"/>
       <use xlink:href="#DejaVuSans-31" transform="translate(298.178711 39.046875)scale(0.7)"/>
       <use xlink:href="#DejaVuSans-36" transform="translate(342.714844 39.046875)scale(0.7)"/>
       <use xlink:href="#DejaVuSans-30" transform="translate(387.250977 39.046875)scale(0.7)"/>
      </g>
     </g>
    </g>
    <g id="ytick_11">
     <g id="line2d_53">
      <path d="M 338.907943 45.185661 
L 573.165354 45.185661 
" clip-path="url(#p138d9cef34)" style="fill: none; stroke: #000000; stroke-opacity: 0.1; stroke-width: 0.5; stroke-linecap: square"/>
     </g>
     <g id="line2d_54">
      <g>
       <use xlink:href="#md0970986bb" x="338.907943" y="45.185661" style="stroke: #000000; stroke-width: 0.5"/>
      </g>
     </g>
     <g id="line2d_55">
      <g>
       <use xlink:href="#m2a3459fbb1" x="573.165354" y="45.185661" style="stroke: #000000; stroke-width: 0.5"/>
      </g>
     </g>
     <g id="text_21">
      <!-- $\mathregular{10^{-0.3155}}$ -->
      <g transform="translate(283.207943 49.744723)scale(0.12 -0.12)">
       <use xlink:href="#DejaVuSans-31" transform="translate(0 0.765625)"/>
       <use xlink:href="#DejaVuSans-30" transform="translate(63.623047 0.765625)"/>
       <use xlink:href="#DejaVuSans-2212" transform="translate(128.203125 39.046875)scale(0.7)"/>
       <use xlink:href="#DejaVuSans-30" transform="translate(186.855469 39.046875)scale(0.7)"/>
       <use xlink:href="#DejaVuSans-2e" transform="translate(231.391602 39.046875)scale(0.7)"/>
       <use xlink:href="#DejaVuSans-33" transform="translate(253.642578 39.046875)scale(0.7)"/>
       <use xlink:href="#DejaVuSans-31" transform="translate(298.178711 39.046875)scale(0.7)"/>
       <use xlink:href="#DejaVuSans-35" transform="translate(342.714844 39.046875)scale(0.7)"/>
       <use xlink:href="#DejaVuSans-35" transform="translate(387.250977 39.046875)scale(0.7)"/>
      </g>
     </g>
    </g>
    <g id="ytick_12">
     <g id="line2d_56">
      <path d="M 338.907943 29.714232 
L 573.165354 29.714232 
" clip-path="url(#p138d9cef34)" style="fill: none; stroke: #000000; stroke-opacity: 0.1; stroke-width: 0.5; stroke-linecap: square"/>
     </g>
     <g id="line2d_57">
      <g>
       <use xlink:href="#md0970986bb" x="338.907943" y="29.714232" style="stroke: #000000; stroke-width: 0.5"/>
      </g>
     </g>
     <g id="line2d_58">
      <g>
       <use xlink:href="#m2a3459fbb1" x="573.165354" y="29.714232" style="stroke: #000000; stroke-width: 0.5"/>
      </g>
     </g>
     <g id="text_22">
      <!-- $\mathregular{10^{-0.3150}}$ -->
      <g transform="translate(283.207943 34.273294)scale(0.12 -0.12)">
       <use xlink:href="#DejaVuSans-31" transform="translate(0 0.765625)"/>
       <use xlink:href="#DejaVuSans-30" transform="translate(63.623047 0.765625)"/>
       <use xlink:href="#DejaVuSans-2212" transform="translate(128.203125 39.046875)scale(0.7)"/>
       <use xlink:href="#DejaVuSans-30" transform="translate(186.855469 39.046875)scale(0.7)"/>
       <use xlink:href="#DejaVuSans-2e" transform="translate(231.391602 39.046875)scale(0.7)"/>
       <use xlink:href="#DejaVuSans-33" transform="translate(253.642578 39.046875)scale(0.7)"/>
       <use xlink:href="#DejaVuSans-31" transform="translate(298.178711 39.046875)scale(0.7)"/>
       <use xlink:href="#DejaVuSans-35" transform="translate(342.714844 39.046875)scale(0.7)"/>
       <use xlink:href="#DejaVuSans-30" transform="translate(387.250977 39.046875)scale(0.7)"/>
      </g>
     </g>
    </g>
    <g id="ytick_13">
     <g id="line2d_59">
      <path d="M 338.907943 14.242803 
L 573.165354 14.242803 
" clip-path="url(#p138d9cef34)" style="fill: none; stroke: #000000; stroke-opacity: 0.1; stroke-width: 0.5; stroke-linecap: square"/>
     </g>
     <g id="line2d_60">
      <g>
       <use xlink:href="#md0970986bb" x="338.907943" y="14.242803" style="stroke: #000000; stroke-width: 0.5"/>
      </g>
     </g>
     <g id="line2d_61">
      <g>
       <use xlink:href="#m2a3459fbb1" x="573.165354" y="14.242803" style="stroke: #000000; stroke-width: 0.5"/>
      </g>
     </g>
     <g id="text_23">
      <!-- $\mathregular{10^{-0.3145}}$ -->
      <g transform="translate(283.207943 18.801865)scale(0.12 -0.12)">
       <use xlink:href="#DejaVuSans-31" transform="translate(0 0.765625)"/>
       <use xlink:href="#DejaVuSans-30" transform="translate(63.623047 0.765625)"/>
       <use xlink:href="#DejaVuSans-2212" transform="translate(128.203125 39.046875)scale(0.7)"/>
       <use xlink:href="#DejaVuSans-30" transform="translate(186.855469 39.046875)scale(0.7)"/>
       <use xlink:href="#DejaVuSans-2e" transform="translate(231.391602 39.046875)scale(0.7)"/>
       <use xlink:href="#DejaVuSans-33" transform="translate(253.642578 39.046875)scale(0.7)"/>
       <use xlink:href="#DejaVuSans-31" transform="translate(298.178711 39.046875)scale(0.7)"/>
       <use xlink:href="#DejaVuSans-34" transform="translate(342.714844 39.046875)scale(0.7)"/>
       <use xlink:href="#DejaVuSans-35" transform="translate(387.250977 39.046875)scale(0.7)"/>
      </g>
     </g>
    </g>
   </g>
   <g id="line2d_62">
    <path d="M 345.53787 66.570234 
L 378.7296 8.187671 
L 398.145517 65.454718 
L 411.92133 43.72838 
L 422.60668 49.807705 
L 431.337247 82.503964 
L 438.718836 61.449374 
L 445.11306 47.747889 
L 450.753165 60.67955 
L 455.79841 65.932068 
L 460.36239 81.010556 
L 464.528977 74.187422 
L 468.361866 86.747298 
L 471.910566 92.617876 
L 475.214328 92.571317 
L 478.30479 95.698428 
L 481.207833 94.785445 
L 483.944895 98.760907 
L 486.533933 95.214321 
L 488.99014 90.183319 
L 491.326484 97.366992 
L 493.55412 93.499241 
L 495.682717 91.842613 
L 497.720707 100.220725 
L 499.675491 91.746268 
L 501.553596 91.541058 
L 503.360812 96.913441 
L 505.102296 95.009606 
L 506.782663 95.341819 
L 508.406058 91.257984 
L 509.976216 94.544197 
L 511.49652 97.649578 
L 512.970037 91.537344 
L 514.399563 95.555845 
L 515.787647 96.852851 
L 517.136625 95.41847 
L 518.448639 95.216522 
L 519.725663 94.710734 
L 520.969513 98.574131 
L 522.18187 96.990934 
L 523.364289 97.78456 
L 524.518214 94.924875 
L 525.644984 95.53723 
L 526.74585 92.764962 
L 527.821975 97.108312 
L 528.874447 93.732392 
L 529.904283 95.732276 
L 530.912437 93.568896 
L 531.899803 97.575945 
L 532.867221 99.032272 
L 533.81548 89.769391 
L 534.745326 72.182033 
L 535.657459 87.764445 
L 536.552542 92.162653 
L 537.4312 100.411846 
L 538.294026 90.474509 
L 539.14158 92.084006 
L 539.974393 94.810494 
L 540.79297 101.979597 
L 541.597788 95.918223 
L 542.389302 92.784341 
L 543.167946 95.682458 
L 543.934131 92.682542 
L 544.68825 97.489 
L 545.430676 96.360176 
L 546.161767 95.332411 
L 546.881864 96.978368 
L 547.591293 98.445099 
L 548.290364 94.611551 
L 548.979377 93.279592 
L 549.658616 95.863669 
L 550.328355 96.942761 
L 550.988855 91.628435 
L 551.640369 94.19564 
L 552.283138 94.045514 
L 552.917393 90.424268 
L 553.543357 101.093143 
L 554.161243 100.78587 
L 554.771258 89.394231 
L 555.3736 98.497008 
L 555.968459 93.603561 
L 556.556019 92.236138 
L 557.136457 94.590002 
L 557.709944 96.230705 
L 558.276643 98.770018 
L 558.836714 96.357991 
L 559.390311 91.904752 
L 559.93758 91.740354 
L 560.478665 95.810858 
L 561.013705 93.970747 
L 561.542832 97.440197 
L 562.066177 93.022984 
L 562.583863 96.009683 
L 563.096013 92.519151 
L 563.602743 96.184115 
L 564.104167 99.175033 
L 564.600395 100.427618 
L 565.091533 101.481771 
L 565.577685 89.500549 
L 566.058951 97.358816 
L 566.535428 94.305557 
" clip-path="url(#p138d9cef34)" style="fill: none; stroke: #009afa"/>
   </g>
   <g id="patch_9">
    <path d="M 338.907943 104.793354 
L 338.907943 5.373913 
" style="fill: none; stroke: #000000; stroke-linejoin: miter; stroke-linecap: square"/>
   </g>
   <g id="patch_10">
    <path d="M 573.165354 104.793354 
L 573.165354 5.373913 
" style="fill: none; stroke: #000000; stroke-linejoin: miter; stroke-linecap: square"/>
   </g>
   <g id="patch_11">
    <path d="M 338.907943 104.793354 
L 573.165354 104.793354 
" style="fill: none; stroke: #000000; stroke-linejoin: miter; stroke-linecap: square"/>
   </g>
   <g id="patch_12">
    <path d="M 338.907943 5.373913 
L 573.165354 5.373913 
" style="fill: none; stroke: #000000; stroke-linejoin: miter; stroke-linecap: square"/>
   </g>
   <g id="legend_2">
    <g id="patch_13">
     <path d="M 479.754729 42.187663 
L 567.165354 42.187663 
L 567.165354 11.373913 
L 479.754729 11.373913 
z
" style="fill: #ffffff; stroke: #000000; stroke-linejoin: miter"/>
    </g>
    <g id="line2d_63">
     <path d="M 489.354729 25.892038 
L 501.354729 25.892038 
L 513.354729 25.892038 
" style="fill: none; stroke: #009afa; stroke-width: 1.5; stroke-linejoin: miter"/>
    </g>
    <g id="text_24">
     <!-- p loss -->
     <g transform="translate(522.954729 30.092038)scale(0.12 -0.12)">
      <use xlink:href="#DejaVuSans-70"/>
      <use xlink:href="#DejaVuSans-20" x="63.476562"/>
      <use xlink:href="#DejaVuSans-6c" x="95.263672"/>
      <use xlink:href="#DejaVuSans-6f" x="123.046875"/>
      <use xlink:href="#DejaVuSans-73" x="184.228516"/>
      <use xlink:href="#DejaVuSans-73" x="236.328125"/>
     </g>
    </g>
   </g>
  </g>
 </g>
 <defs>
  <clipPath id="p2be774f5eb">
   <rect x="42.917106" y="5.373913" width="234.257411" height="99.419441"/>
  </clipPath>
  <clipPath id="p138d9cef34">
   <rect x="338.907943" y="5.373913" width="234.257411" height="99.419441"/>
  </clipPath>
 </defs>
</svg>
